<?xml version="1.0" encoding="utf-8" standalone="no"?>
<!DOCTYPE svg PUBLIC "-//W3C//DTD SVG 1.1//EN"
  "http://www.w3.org/Graphics/SVG/1.1/DTD/svg11.dtd">
<svg xmlns:xlink="http://www.w3.org/1999/xlink" width="720pt" height="360pt" viewBox="0 0 720 360" xmlns="http://www.w3.org/2000/svg" version="1.1">
 <metadata>
  <rdf:RDF xmlns:dc="http://purl.org/dc/elements/1.1/" xmlns:cc="http://creativecommons.org/ns#" xmlns:rdf="http://www.w3.org/1999/02/22-rdf-syntax-ns#">
   <cc:Work>
    <dc:type rdf:resource="http://purl.org/dc/dcmitype/StillImage"/>
    <dc:date>2025-04-29T21:01:19.546027</dc:date>
    <dc:format>image/svg+xml</dc:format>
    <dc:creator>
     <cc:Agent>
      <dc:title>Matplotlib v3.10.0, https://matplotlib.org/</dc:title>
     </cc:Agent>
    </dc:creator>
   </cc:Work>
  </rdf:RDF>
 </metadata>
 <defs>
  <style type="text/css">*{stroke-linejoin: round; stroke-linecap: butt}</style>
 </defs>
 <g id="figure_1">
  <g id="patch_1">
   <path d="M 0 360 
L 720 360 
L 720 0 
L 0 0 
z
" style="fill: #ffffff"/>
  </g>
  <g id="axes_1">
   <g id="patch_2">
    <path d="M 53.03 318.04 
L 696.42 318.04 
L 696.42 25.44 
L 53.03 25.44 
z
" style="fill: #ffffff"/>
   </g>
   <g id="matplotlib.axis_1">
    <g id="xtick_1">
     <g id="line2d_1">
      <defs>
       <path id="m8f4447b303" d="M 0 0 
L 0 3.5 
" style="stroke: #000000; stroke-width: 0.8"/>
      </defs>
      <g>
       <use xlink:href="#m8f4447b303" x="53.03" y="318.04" style="stroke: #000000; stroke-width: 0.8"/>
      </g>
     </g>
     <g id="text_1">
      <!-- 2500 -->
      <g transform="translate(40.305 332.638438) scale(0.1 -0.1)">
       <defs>
        <path id="DejaVuSans-32" d="M 1228 531 
L 3431 531 
L 3431 0 
L 469 0 
L 469 531 
Q 828 903 1448 1529 
Q 2069 2156 2228 2338 
Q 2531 2678 2651 2914 
Q 2772 3150 2772 3378 
Q 2772 3750 2511 3984 
Q 2250 4219 1831 4219 
Q 1534 4219 1204 4116 
Q 875 4013 500 3803 
L 500 4441 
Q 881 4594 1212 4672 
Q 1544 4750 1819 4750 
Q 2544 4750 2975 4387 
Q 3406 4025 3406 3419 
Q 3406 3131 3298 2873 
Q 3191 2616 2906 2266 
Q 2828 2175 2409 1742 
Q 1991 1309 1228 531 
z
" transform="scale(0.015625)"/>
        <path id="DejaVuSans-35" d="M 691 4666 
L 3169 4666 
L 3169 4134 
L 1269 4134 
L 1269 2991 
Q 1406 3038 1543 3061 
Q 1681 3084 1819 3084 
Q 2600 3084 3056 2656 
Q 3513 2228 3513 1497 
Q 3513 744 3044 326 
Q 2575 -91 1722 -91 
Q 1428 -91 1123 -41 
Q 819 9 494 109 
L 494 744 
Q 775 591 1075 516 
Q 1375 441 1709 441 
Q 2250 441 2565 725 
Q 2881 1009 2881 1497 
Q 2881 1984 2565 2268 
Q 2250 2553 1709 2553 
Q 1456 2553 1204 2497 
Q 953 2441 691 2322 
L 691 4666 
z
" transform="scale(0.015625)"/>
        <path id="DejaVuSans-30" d="M 2034 4250 
Q 1547 4250 1301 3770 
Q 1056 3291 1056 2328 
Q 1056 1369 1301 889 
Q 1547 409 2034 409 
Q 2525 409 2770 889 
Q 3016 1369 3016 2328 
Q 3016 3291 2770 3770 
Q 2525 4250 2034 4250 
z
M 2034 4750 
Q 2819 4750 3233 4129 
Q 3647 3509 3647 2328 
Q 3647 1150 3233 529 
Q 2819 -91 2034 -91 
Q 1250 -91 836 529 
Q 422 1150 422 2328 
Q 422 3509 836 4129 
Q 1250 4750 2034 4750 
z
" transform="scale(0.015625)"/>
       </defs>
       <use xlink:href="#DejaVuSans-32"/>
       <use xlink:href="#DejaVuSans-35" transform="translate(63.623047 0)"/>
       <use xlink:href="#DejaVuSans-30" transform="translate(127.246094 0)"/>
       <use xlink:href="#DejaVuSans-30" transform="translate(190.869141 0)"/>
      </g>
     </g>
    </g>
    <g id="xtick_2">
     <g id="line2d_2">
      <g>
       <use xlink:href="#m8f4447b303" x="181.708" y="318.04" style="stroke: #000000; stroke-width: 0.8"/>
      </g>
     </g>
     <g id="text_2">
      <!-- 2600 -->
      <g transform="translate(168.983 332.638438) scale(0.1 -0.1)">
       <defs>
        <path id="DejaVuSans-36" d="M 2113 2584 
Q 1688 2584 1439 2293 
Q 1191 2003 1191 1497 
Q 1191 994 1439 701 
Q 1688 409 2113 409 
Q 2538 409 2786 701 
Q 3034 994 3034 1497 
Q 3034 2003 2786 2293 
Q 2538 2584 2113 2584 
z
M 3366 4563 
L 3366 3988 
Q 3128 4100 2886 4159 
Q 2644 4219 2406 4219 
Q 1781 4219 1451 3797 
Q 1122 3375 1075 2522 
Q 1259 2794 1537 2939 
Q 1816 3084 2150 3084 
Q 2853 3084 3261 2657 
Q 3669 2231 3669 1497 
Q 3669 778 3244 343 
Q 2819 -91 2113 -91 
Q 1303 -91 875 529 
Q 447 1150 447 2328 
Q 447 3434 972 4092 
Q 1497 4750 2381 4750 
Q 2619 4750 2861 4703 
Q 3103 4656 3366 4563 
z
" transform="scale(0.015625)"/>
       </defs>
       <use xlink:href="#DejaVuSans-32"/>
       <use xlink:href="#DejaVuSans-36" transform="translate(63.623047 0)"/>
       <use xlink:href="#DejaVuSans-30" transform="translate(127.246094 0)"/>
       <use xlink:href="#DejaVuSans-30" transform="translate(190.869141 0)"/>
      </g>
     </g>
    </g>
    <g id="xtick_3">
     <g id="line2d_3">
      <g>
       <use xlink:href="#m8f4447b303" x="310.386" y="318.04" style="stroke: #000000; stroke-width: 0.8"/>
      </g>
     </g>
     <g id="text_3">
      <!-- 2700 -->
      <g transform="translate(297.661 332.638438) scale(0.1 -0.1)">
       <defs>
        <path id="DejaVuSans-37" d="M 525 4666 
L 3525 4666 
L 3525 4397 
L 1831 0 
L 1172 0 
L 2766 4134 
L 525 4134 
L 525 4666 
z
" transform="scale(0.015625)"/>
       </defs>
       <use xlink:href="#DejaVuSans-32"/>
       <use xlink:href="#DejaVuSans-37" transform="translate(63.623047 0)"/>
       <use xlink:href="#DejaVuSans-30" transform="translate(127.246094 0)"/>
       <use xlink:href="#DejaVuSans-30" transform="translate(190.869141 0)"/>
      </g>
     </g>
    </g>
    <g id="xtick_4">
     <g id="line2d_4">
      <g>
       <use xlink:href="#m8f4447b303" x="439.064" y="318.04" style="stroke: #000000; stroke-width: 0.8"/>
      </g>
     </g>
     <g id="text_4">
      <!-- 2800 -->
      <g transform="translate(426.339 332.638438) scale(0.1 -0.1)">
       <defs>
        <path id="DejaVuSans-38" d="M 2034 2216 
Q 1584 2216 1326 1975 
Q 1069 1734 1069 1313 
Q 1069 891 1326 650 
Q 1584 409 2034 409 
Q 2484 409 2743 651 
Q 3003 894 3003 1313 
Q 3003 1734 2745 1975 
Q 2488 2216 2034 2216 
z
M 1403 2484 
Q 997 2584 770 2862 
Q 544 3141 544 3541 
Q 544 4100 942 4425 
Q 1341 4750 2034 4750 
Q 2731 4750 3128 4425 
Q 3525 4100 3525 3541 
Q 3525 3141 3298 2862 
Q 3072 2584 2669 2484 
Q 3125 2378 3379 2068 
Q 3634 1759 3634 1313 
Q 3634 634 3220 271 
Q 2806 -91 2034 -91 
Q 1263 -91 848 271 
Q 434 634 434 1313 
Q 434 1759 690 2068 
Q 947 2378 1403 2484 
z
M 1172 3481 
Q 1172 3119 1398 2916 
Q 1625 2713 2034 2713 
Q 2441 2713 2670 2916 
Q 2900 3119 2900 3481 
Q 2900 3844 2670 4047 
Q 2441 4250 2034 4250 
Q 1625 4250 1398 4047 
Q 1172 3844 1172 3481 
z
" transform="scale(0.015625)"/>
       </defs>
       <use xlink:href="#DejaVuSans-32"/>
       <use xlink:href="#DejaVuSans-38" transform="translate(63.623047 0)"/>
       <use xlink:href="#DejaVuSans-30" transform="translate(127.246094 0)"/>
       <use xlink:href="#DejaVuSans-30" transform="translate(190.869141 0)"/>
      </g>
     </g>
    </g>
    <g id="xtick_5">
     <g id="line2d_5">
      <g>
       <use xlink:href="#m8f4447b303" x="567.742" y="318.04" style="stroke: #000000; stroke-width: 0.8"/>
      </g>
     </g>
     <g id="text_5">
      <!-- 2900 -->
      <g transform="translate(555.017 332.638438) scale(0.1 -0.1)">
       <defs>
        <path id="DejaVuSans-39" d="M 703 97 
L 703 672 
Q 941 559 1184 500 
Q 1428 441 1663 441 
Q 2288 441 2617 861 
Q 2947 1281 2994 2138 
Q 2813 1869 2534 1725 
Q 2256 1581 1919 1581 
Q 1219 1581 811 2004 
Q 403 2428 403 3163 
Q 403 3881 828 4315 
Q 1253 4750 1959 4750 
Q 2769 4750 3195 4129 
Q 3622 3509 3622 2328 
Q 3622 1225 3098 567 
Q 2575 -91 1691 -91 
Q 1453 -91 1209 -44 
Q 966 3 703 97 
z
M 1959 2075 
Q 2384 2075 2632 2365 
Q 2881 2656 2881 3163 
Q 2881 3666 2632 3958 
Q 2384 4250 1959 4250 
Q 1534 4250 1286 3958 
Q 1038 3666 1038 3163 
Q 1038 2656 1286 2365 
Q 1534 2075 1959 2075 
z
" transform="scale(0.015625)"/>
       </defs>
       <use xlink:href="#DejaVuSans-32"/>
       <use xlink:href="#DejaVuSans-39" transform="translate(63.623047 0)"/>
       <use xlink:href="#DejaVuSans-30" transform="translate(127.246094 0)"/>
       <use xlink:href="#DejaVuSans-30" transform="translate(190.869141 0)"/>
      </g>
     </g>
    </g>
    <g id="xtick_6">
     <g id="line2d_6">
      <g>
       <use xlink:href="#m8f4447b303" x="696.42" y="318.04" style="stroke: #000000; stroke-width: 0.8"/>
      </g>
     </g>
     <g id="text_6">
      <!-- 3000 -->
      <g transform="translate(683.695 332.638438) scale(0.1 -0.1)">
       <defs>
        <path id="DejaVuSans-33" d="M 2597 2516 
Q 3050 2419 3304 2112 
Q 3559 1806 3559 1356 
Q 3559 666 3084 287 
Q 2609 -91 1734 -91 
Q 1441 -91 1130 -33 
Q 819 25 488 141 
L 488 750 
Q 750 597 1062 519 
Q 1375 441 1716 441 
Q 2309 441 2620 675 
Q 2931 909 2931 1356 
Q 2931 1769 2642 2001 
Q 2353 2234 1838 2234 
L 1294 2234 
L 1294 2753 
L 1863 2753 
Q 2328 2753 2575 2939 
Q 2822 3125 2822 3475 
Q 2822 3834 2567 4026 
Q 2313 4219 1838 4219 
Q 1578 4219 1281 4162 
Q 984 4106 628 3988 
L 628 4550 
Q 988 4650 1302 4700 
Q 1616 4750 1894 4750 
Q 2613 4750 3031 4423 
Q 3450 4097 3450 3541 
Q 3450 3153 3228 2886 
Q 3006 2619 2597 2516 
z
" transform="scale(0.015625)"/>
       </defs>
       <use xlink:href="#DejaVuSans-33"/>
       <use xlink:href="#DejaVuSans-30" transform="translate(63.623047 0)"/>
       <use xlink:href="#DejaVuSans-30" transform="translate(127.246094 0)"/>
       <use xlink:href="#DejaVuSans-30" transform="translate(190.869141 0)"/>
      </g>
     </g>
    </g>
    <g id="text_7">
     <!-- Time (ms) -->
     <g transform="translate(349.525781 346.316563) scale(0.1 -0.1)">
      <defs>
       <path id="DejaVuSans-54" d="M -19 4666 
L 3928 4666 
L 3928 4134 
L 2272 4134 
L 2272 0 
L 1638 0 
L 1638 4134 
L -19 4134 
L -19 4666 
z
" transform="scale(0.015625)"/>
       <path id="DejaVuSans-69" d="M 603 3500 
L 1178 3500 
L 1178 0 
L 603 0 
L 603 3500 
z
M 603 4863 
L 1178 4863 
L 1178 4134 
L 603 4134 
L 603 4863 
z
" transform="scale(0.015625)"/>
       <path id="DejaVuSans-6d" d="M 3328 2828 
Q 3544 3216 3844 3400 
Q 4144 3584 4550 3584 
Q 5097 3584 5394 3201 
Q 5691 2819 5691 2113 
L 5691 0 
L 5113 0 
L 5113 2094 
Q 5113 2597 4934 2840 
Q 4756 3084 4391 3084 
Q 3944 3084 3684 2787 
Q 3425 2491 3425 1978 
L 3425 0 
L 2847 0 
L 2847 2094 
Q 2847 2600 2669 2842 
Q 2491 3084 2119 3084 
Q 1678 3084 1418 2786 
Q 1159 2488 1159 1978 
L 1159 0 
L 581 0 
L 581 3500 
L 1159 3500 
L 1159 2956 
Q 1356 3278 1631 3431 
Q 1906 3584 2284 3584 
Q 2666 3584 2933 3390 
Q 3200 3197 3328 2828 
z
" transform="scale(0.015625)"/>
       <path id="DejaVuSans-65" d="M 3597 1894 
L 3597 1613 
L 953 1613 
Q 991 1019 1311 708 
Q 1631 397 2203 397 
Q 2534 397 2845 478 
Q 3156 559 3463 722 
L 3463 178 
Q 3153 47 2828 -22 
Q 2503 -91 2169 -91 
Q 1331 -91 842 396 
Q 353 884 353 1716 
Q 353 2575 817 3079 
Q 1281 3584 2069 3584 
Q 2775 3584 3186 3129 
Q 3597 2675 3597 1894 
z
M 3022 2063 
Q 3016 2534 2758 2815 
Q 2500 3097 2075 3097 
Q 1594 3097 1305 2825 
Q 1016 2553 972 2059 
L 3022 2063 
z
" transform="scale(0.015625)"/>
       <path id="DejaVuSans-20" transform="scale(0.015625)"/>
       <path id="DejaVuSans-28" d="M 1984 4856 
Q 1566 4138 1362 3434 
Q 1159 2731 1159 2009 
Q 1159 1288 1364 580 
Q 1569 -128 1984 -844 
L 1484 -844 
Q 1016 -109 783 600 
Q 550 1309 550 2009 
Q 550 2706 781 3412 
Q 1013 4119 1484 4856 
L 1984 4856 
z
" transform="scale(0.015625)"/>
       <path id="DejaVuSans-73" d="M 2834 3397 
L 2834 2853 
Q 2591 2978 2328 3040 
Q 2066 3103 1784 3103 
Q 1356 3103 1142 2972 
Q 928 2841 928 2578 
Q 928 2378 1081 2264 
Q 1234 2150 1697 2047 
L 1894 2003 
Q 2506 1872 2764 1633 
Q 3022 1394 3022 966 
Q 3022 478 2636 193 
Q 2250 -91 1575 -91 
Q 1294 -91 989 -36 
Q 684 19 347 128 
L 347 722 
Q 666 556 975 473 
Q 1284 391 1588 391 
Q 1994 391 2212 530 
Q 2431 669 2431 922 
Q 2431 1156 2273 1281 
Q 2116 1406 1581 1522 
L 1381 1569 
Q 847 1681 609 1914 
Q 372 2147 372 2553 
Q 372 3047 722 3315 
Q 1072 3584 1716 3584 
Q 2034 3584 2315 3537 
Q 2597 3491 2834 3397 
z
" transform="scale(0.015625)"/>
       <path id="DejaVuSans-29" d="M 513 4856 
L 1013 4856 
Q 1481 4119 1714 3412 
Q 1947 2706 1947 2009 
Q 1947 1309 1714 600 
Q 1481 -109 1013 -844 
L 513 -844 
Q 928 -128 1133 580 
Q 1338 1288 1338 2009 
Q 1338 2731 1133 3434 
Q 928 4138 513 4856 
z
" transform="scale(0.015625)"/>
      </defs>
      <use xlink:href="#DejaVuSans-54"/>
      <use xlink:href="#DejaVuSans-69" transform="translate(57.958984 0)"/>
      <use xlink:href="#DejaVuSans-6d" transform="translate(85.742188 0)"/>
      <use xlink:href="#DejaVuSans-65" transform="translate(183.154297 0)"/>
      <use xlink:href="#DejaVuSans-20" transform="translate(244.677734 0)"/>
      <use xlink:href="#DejaVuSans-28" transform="translate(276.464844 0)"/>
      <use xlink:href="#DejaVuSans-6d" transform="translate(315.478516 0)"/>
      <use xlink:href="#DejaVuSans-73" transform="translate(412.890625 0)"/>
      <use xlink:href="#DejaVuSans-29" transform="translate(464.990234 0)"/>
     </g>
    </g>
   </g>
   <g id="matplotlib.axis_2">
    <g id="ytick_1">
     <g id="line2d_7">
      <defs>
       <path id="meb8c850475" d="M 0 0 
L -3.5 0 
" style="stroke: #000000; stroke-width: 0.8"/>
      </defs>
      <g>
       <use xlink:href="#meb8c850475" x="53.03" y="297.976548" style="stroke: #000000; stroke-width: 0.8"/>
      </g>
     </g>
     <g id="text_8">
      <!-- −60 -->
      <g transform="translate(24.925313 301.775767) scale(0.1 -0.1)">
       <defs>
        <path id="DejaVuSans-2212" d="M 678 2272 
L 4684 2272 
L 4684 1741 
L 678 1741 
L 678 2272 
z
" transform="scale(0.015625)"/>
       </defs>
       <use xlink:href="#DejaVuSans-2212"/>
       <use xlink:href="#DejaVuSans-36" transform="translate(83.789062 0)"/>
       <use xlink:href="#DejaVuSans-30" transform="translate(147.412109 0)"/>
      </g>
     </g>
    </g>
    <g id="ytick_2">
     <g id="line2d_8">
      <g>
       <use xlink:href="#meb8c850475" x="53.03" y="241.3473" style="stroke: #000000; stroke-width: 0.8"/>
      </g>
     </g>
     <g id="text_9">
      <!-- −40 -->
      <g transform="translate(24.925313 245.146519) scale(0.1 -0.1)">
       <defs>
        <path id="DejaVuSans-34" d="M 2419 4116 
L 825 1625 
L 2419 1625 
L 2419 4116 
z
M 2253 4666 
L 3047 4666 
L 3047 1625 
L 3713 1625 
L 3713 1100 
L 3047 1100 
L 3047 0 
L 2419 0 
L 2419 1100 
L 313 1100 
L 313 1709 
L 2253 4666 
z
" transform="scale(0.015625)"/>
       </defs>
       <use xlink:href="#DejaVuSans-2212"/>
       <use xlink:href="#DejaVuSans-34" transform="translate(83.789062 0)"/>
       <use xlink:href="#DejaVuSans-30" transform="translate(147.412109 0)"/>
      </g>
     </g>
    </g>
    <g id="ytick_3">
     <g id="line2d_9">
      <g>
       <use xlink:href="#meb8c850475" x="53.03" y="184.718052" style="stroke: #000000; stroke-width: 0.8"/>
      </g>
     </g>
     <g id="text_10">
      <!-- −20 -->
      <g transform="translate(24.925313 188.517271) scale(0.1 -0.1)">
       <use xlink:href="#DejaVuSans-2212"/>
       <use xlink:href="#DejaVuSans-32" transform="translate(83.789062 0)"/>
       <use xlink:href="#DejaVuSans-30" transform="translate(147.412109 0)"/>
      </g>
     </g>
    </g>
    <g id="ytick_4">
     <g id="line2d_10">
      <g>
       <use xlink:href="#meb8c850475" x="53.03" y="128.088804" style="stroke: #000000; stroke-width: 0.8"/>
      </g>
     </g>
     <g id="text_11">
      <!-- 0 -->
      <g transform="translate(39.6675 131.888022) scale(0.1 -0.1)">
       <use xlink:href="#DejaVuSans-30"/>
      </g>
     </g>
    </g>
    <g id="ytick_5">
     <g id="line2d_11">
      <g>
       <use xlink:href="#meb8c850475" x="53.03" y="71.459556" style="stroke: #000000; stroke-width: 0.8"/>
      </g>
     </g>
     <g id="text_12">
      <!-- 20 -->
      <g transform="translate(33.305 75.258774) scale(0.1 -0.1)">
       <use xlink:href="#DejaVuSans-32"/>
       <use xlink:href="#DejaVuSans-30" transform="translate(63.623047 0)"/>
      </g>
     </g>
    </g>
    <g id="text_13">
     <!-- Voltage (mV) -->
     <g transform="translate(18.845625 204.2775) rotate(-90) scale(0.1 -0.1)">
      <defs>
       <path id="DejaVuSans-56" d="M 1831 0 
L 50 4666 
L 709 4666 
L 2188 738 
L 3669 4666 
L 4325 4666 
L 2547 0 
L 1831 0 
z
" transform="scale(0.015625)"/>
       <path id="DejaVuSans-6f" d="M 1959 3097 
Q 1497 3097 1228 2736 
Q 959 2375 959 1747 
Q 959 1119 1226 758 
Q 1494 397 1959 397 
Q 2419 397 2687 759 
Q 2956 1122 2956 1747 
Q 2956 2369 2687 2733 
Q 2419 3097 1959 3097 
z
M 1959 3584 
Q 2709 3584 3137 3096 
Q 3566 2609 3566 1747 
Q 3566 888 3137 398 
Q 2709 -91 1959 -91 
Q 1206 -91 779 398 
Q 353 888 353 1747 
Q 353 2609 779 3096 
Q 1206 3584 1959 3584 
z
" transform="scale(0.015625)"/>
       <path id="DejaVuSans-6c" d="M 603 4863 
L 1178 4863 
L 1178 0 
L 603 0 
L 603 4863 
z
" transform="scale(0.015625)"/>
       <path id="DejaVuSans-74" d="M 1172 4494 
L 1172 3500 
L 2356 3500 
L 2356 3053 
L 1172 3053 
L 1172 1153 
Q 1172 725 1289 603 
Q 1406 481 1766 481 
L 2356 481 
L 2356 0 
L 1766 0 
Q 1100 0 847 248 
Q 594 497 594 1153 
L 594 3053 
L 172 3053 
L 172 3500 
L 594 3500 
L 594 4494 
L 1172 4494 
z
" transform="scale(0.015625)"/>
       <path id="DejaVuSans-61" d="M 2194 1759 
Q 1497 1759 1228 1600 
Q 959 1441 959 1056 
Q 959 750 1161 570 
Q 1363 391 1709 391 
Q 2188 391 2477 730 
Q 2766 1069 2766 1631 
L 2766 1759 
L 2194 1759 
z
M 3341 1997 
L 3341 0 
L 2766 0 
L 2766 531 
Q 2569 213 2275 61 
Q 1981 -91 1556 -91 
Q 1019 -91 701 211 
Q 384 513 384 1019 
Q 384 1609 779 1909 
Q 1175 2209 1959 2209 
L 2766 2209 
L 2766 2266 
Q 2766 2663 2505 2880 
Q 2244 3097 1772 3097 
Q 1472 3097 1187 3025 
Q 903 2953 641 2809 
L 641 3341 
Q 956 3463 1253 3523 
Q 1550 3584 1831 3584 
Q 2591 3584 2966 3190 
Q 3341 2797 3341 1997 
z
" transform="scale(0.015625)"/>
       <path id="DejaVuSans-67" d="M 2906 1791 
Q 2906 2416 2648 2759 
Q 2391 3103 1925 3103 
Q 1463 3103 1205 2759 
Q 947 2416 947 1791 
Q 947 1169 1205 825 
Q 1463 481 1925 481 
Q 2391 481 2648 825 
Q 2906 1169 2906 1791 
z
M 3481 434 
Q 3481 -459 3084 -895 
Q 2688 -1331 1869 -1331 
Q 1566 -1331 1297 -1286 
Q 1028 -1241 775 -1147 
L 775 -588 
Q 1028 -725 1275 -790 
Q 1522 -856 1778 -856 
Q 2344 -856 2625 -561 
Q 2906 -266 2906 331 
L 2906 616 
Q 2728 306 2450 153 
Q 2172 0 1784 0 
Q 1141 0 747 490 
Q 353 981 353 1791 
Q 353 2603 747 3093 
Q 1141 3584 1784 3584 
Q 2172 3584 2450 3431 
Q 2728 3278 2906 2969 
L 2906 3500 
L 3481 3500 
L 3481 434 
z
" transform="scale(0.015625)"/>
      </defs>
      <use xlink:href="#DejaVuSans-56"/>
      <use xlink:href="#DejaVuSans-6f" transform="translate(60.658203 0)"/>
      <use xlink:href="#DejaVuSans-6c" transform="translate(121.839844 0)"/>
      <use xlink:href="#DejaVuSans-74" transform="translate(149.623047 0)"/>
      <use xlink:href="#DejaVuSans-61" transform="translate(188.832031 0)"/>
      <use xlink:href="#DejaVuSans-67" transform="translate(250.111328 0)"/>
      <use xlink:href="#DejaVuSans-65" transform="translate(313.587891 0)"/>
      <use xlink:href="#DejaVuSans-20" transform="translate(375.111328 0)"/>
      <use xlink:href="#DejaVuSans-28" transform="translate(406.898438 0)"/>
      <use xlink:href="#DejaVuSans-6d" transform="translate(445.912109 0)"/>
      <use xlink:href="#DejaVuSans-56" transform="translate(543.324219 0)"/>
      <use xlink:href="#DejaVuSans-29" transform="translate(611.732422 0)"/>
     </g>
    </g>
   </g>
   <g id="line2d_12">
    <path d="M 53.03 303.002013 
L 53.930746 301.344714 
L 55.346204 298.231474 
L 59.914273 287.293498 
L 64.61102 275.752916 
L 66.090817 271.518384 
L 67.18458 267.773389 
L 68.149665 263.688951 
L 68.986072 259.108881 
L 69.693801 253.921153 
L 70.272852 248.068683 
L 70.723225 241.505886 
L 71.109259 232.741083 
L 71.430954 219.628903 
L 71.68831 197.359163 
L 71.881327 156.729784 
L 72.267361 51.918869 
L 72.460378 40.333533 
L 72.524717 40.14935 
L 72.653395 43.750833 
L 72.910751 63.024525 
L 73.361124 120.266907 
L 74.068853 205.150608 
L 74.647904 249.170924 
L 75.162616 273.864939 
L 75.677328 288.279548 
L 76.19204 296.417106 
L 76.642413 300.491885 
L 77.092786 302.810419 
L 77.543159 304.007436 
L 77.929193 304.445005 
L 78.250888 304.517494 
L 78.636922 304.349586 
L 79.151634 303.819129 
L 79.859363 302.723999 
L 80.953126 300.563255 
L 82.883296 296.143168 
L 90.668315 277.328713 
L 92.405468 272.588785 
L 93.627909 268.605201 
L 94.592994 264.701622 
L 95.49374 260.034915 
L 96.201469 255.190721 
L 96.78052 249.708583 
L 97.295232 242.70505 
L 97.681266 234.619736 
L 98.002961 223.245444 
L 98.260317 205.190212 
L 98.453334 174.6454 
L 99.032385 42.228272 
L 99.161063 40.215851 
L 99.289741 43.731177 
L 99.547097 62.869581 
L 99.99747 120.015608 
L 100.705199 204.899761 
L 101.28425 248.985582 
L 101.798962 273.721139 
L 102.313674 288.168165 
L 102.828386 296.339864 
L 103.278759 300.431348 
L 103.729132 302.762322 
L 104.179505 303.96964 
L 104.565539 304.410905 
L 104.887234 304.484416 
L 105.273268 304.318058 
L 105.78798 303.798315 
L 106.495709 302.720246 
L 107.525133 300.702686 
L 109.519642 296.131192 
L 117.626356 276.486915 
L 119.234831 271.992725 
L 120.392933 268.115137 
L 121.358018 264.113644 
L 122.194425 259.627508 
L 122.902154 254.652227 
L 123.481205 249.009721 
L 123.995917 241.686232 
L 124.381951 233.207045 
L 124.703646 220.855261 
L 124.961002 200.006454 
L 125.154019 162.672147 
L 125.604392 47.504191 
L 125.797409 40.078772 
L 125.926087 42.876728 
L 126.119104 55.185371 
L 126.505138 99.405365 
L 127.405884 209.028771 
L 127.984935 251.685304 
L 128.499647 275.345793 
L 129.014359 289.127529 
L 129.529071 296.869435 
L 129.979444 300.720383 
L 130.429817 302.904603 
L 130.815851 303.905105 
L 131.201885 304.360597 
L 131.52358 304.446903 
L 131.909614 304.294012 
L 132.424326 303.778167 
L 133.132055 302.688191 
L 134.225818 300.531036 
L 136.02731 296.4296 
L 143.426295 278.603129 
L 145.356465 273.493434 
L 146.643245 269.476157 
L 147.672669 265.517261 
L 148.509076 261.479607 
L 149.281144 256.63543 
L 149.924534 251.187476 
L 150.439246 244.992708 
L 150.889619 236.656569 
L 151.211314 226.799751 
L 151.46867 212.398075 
L 151.661687 190.570383 
L 151.854704 142.182774 
L 152.176399 54.591429 
L 152.369416 40.919474 
L 152.433755 40.266919 
L 152.562433 43.100528 
L 152.75545 55.425974 
L 153.141484 99.663537 
L 154.04223 208.92822 
L 154.621281 251.62902 
L 155.135993 275.232708 
L 155.650705 289.001456 
L 156.165417 296.785798 
L 156.61579 300.666691 
L 157.066163 302.862967 
L 157.516536 303.9791 
L 157.90257 304.367434 
L 158.224265 304.408943 
L 158.610299 304.215762 
L 159.125011 303.666164 
L 159.83274 302.547021 
L 160.926503 300.36712 
L 162.856673 295.953217 
L 170.191319 278.277793 
L 172.05715 273.31221 
L 173.279591 269.482996 
L 174.244676 265.801418 
L 175.145422 261.476176 
L 175.853151 257.1058 
L 176.496541 251.742331 
L 177.075592 244.815823 
L 177.525965 236.335518 
L 177.84766 226.381633 
L 178.105016 211.897987 
L 178.298033 189.435376 
L 178.49105 139.503245 
L 178.812745 53.542318 
L 179.005762 40.648366 
L 179.070101 40.182247 
L 179.198779 43.303831 
L 179.456135 61.894487 
L 179.906508 118.585698 
L 180.614237 204.018487 
L 181.257627 252.214864 
L 181.772339 275.628675 
L 182.287051 289.252119 
L 182.801763 296.952933 
L 183.252136 300.784042 
L 183.702509 302.951347 
L 184.088543 303.942183 
L 184.474577 304.392063 
L 184.796272 304.473678 
L 185.182306 304.31286 
L 185.697018 303.792577 
L 186.404747 302.707659 
L 187.49851 300.54285 
L 189.493019 295.997745 
L 197.213699 277.36591 
L 198.950852 272.638544 
L 200.173293 268.678314 
L 201.202717 264.539844 
L 201.974785 260.556522 
L 202.746853 255.369925 
L 203.325904 250.052157 
L 203.840616 243.153687 
L 204.22665 235.347553 
L 204.548345 224.509578 
L 204.805701 207.945825 
L 204.998718 180.918697 
L 205.642108 40.854908 
L 205.706447 39.950838 
L 205.770786 40.514254 
L 205.899464 45.312068 
L 206.15682 66.359202 
L 206.671532 133.999191 
L 207.314922 207.905869 
L 207.893973 250.93497 
L 208.408685 274.889728 
L 208.923397 288.863981 
L 209.438109 296.723551 
L 209.888482 300.636937 
L 210.338855 302.863563 
L 210.789228 304.001131 
L 211.175262 304.400888 
L 211.496957 304.453318 
L 211.882991 304.27086 
L 212.397703 303.728025 
L 213.169771 302.50182 
L 214.327873 300.169986 
L 216.322382 295.575261 
L 224.17174 276.577569 
L 225.780215 272.104539 
L 227.002656 268.024144 
L 227.967741 263.987123 
L 228.804148 259.560829 
L 229.511877 254.594477 
L 230.090928 248.993941 
L 230.541301 242.739961 
L 230.927335 234.656234 
L 231.24903 223.334425 
L 231.506386 205.26045 
L 231.699403 174.767632 
L 232.278454 42.16572 
L 232.407132 40.067199 
L 232.53581 43.566723 
L 232.793166 62.691927 
L 233.243539 119.809099 
L 233.951268 204.866276 
L 234.594658 252.768744 
L 235.10937 275.976192 
L 235.624082 289.468737 
L 236.138794 297.093842 
L 236.589167 300.894892 
L 237.03954 303.041495 
L 237.425574 304.020366 
L 237.811608 304.464702 
L 238.133303 304.541889 
L 238.519337 304.379181 
L 239.034049 303.855499 
L 239.741778 302.769424 
L 240.771202 300.754232 
L 242.637033 296.512205 
L 250.422052 277.783767 
L 252.223544 272.946184 
L 253.445985 269.051092 
L 254.41107 265.269847 
L 255.311816 260.78398 
L 256.019545 256.193141 
L 256.598596 251.113436 
L 257.113308 244.784877 
L 257.563681 236.328235 
L 257.885376 226.235197 
L 258.142732 211.399054 
L 258.335749 188.178041 
L 258.528766 137.133429 
L 258.850461 52.535217 
L 259.043478 40.381484 
L 259.107817 40.05396 
L 259.236495 43.415342 
L 259.493851 62.361263 
L 259.944224 119.360235 
L 260.651953 204.256408 
L 261.295343 252.394127 
L 261.810055 275.801205 
L 262.324767 289.39013 
L 262.839479 297.026011 
L 263.289852 300.82915 
L 263.740225 302.981078 
L 264.126259 303.962948 
L 264.512293 304.407781 
L 264.833988 304.486734 
L 265.220022 304.327795 
L 265.734734 303.806713 
L 266.442463 302.71543 
L 267.536226 300.566592 
L 269.337718 296.469865 
L 277.058398 277.885161 
L 278.85989 273.058074 
L 280.14667 268.960057 
L 281.176094 264.889609 
L 282.012501 260.672584 
L 282.784569 255.574385 
L 283.427959 249.687616 
L 283.942671 242.74096 
L 284.328705 234.65072 
L 284.6504 223.31424 
L 284.907756 205.209957 
L 285.100773 174.779065 
L 285.679824 42.285087 
L 285.808502 40.126385 
L 285.93718 43.569188 
L 286.194536 62.631381 
L 286.644909 119.710104 
L 287.352638 204.786751 
L 287.996028 252.741994 
L 288.51074 276.026056 
L 289.025452 289.515046 
L 289.540164 297.113132 
L 289.990537 300.904406 
L 290.44091 303.045019 
L 290.826944 304.021241 
L 291.212978 304.464362 
L 291.534673 304.541073 
L 291.920707 304.377779 
L 292.435419 303.85217 
L 293.143148 302.762252 
L 294.236911 300.608987 
L 296.102742 296.353185 
L 304.080778 277.126784 
L 305.753592 272.565764 
L 306.976033 268.592402 
L 307.941118 264.696022 
L 308.841864 260.038625 
L 309.549593 255.200437 
L 310.128644 249.722122 
L 310.643356 242.726594 
L 311.02939 234.650783 
L 311.351085 223.291198 
L 311.608441 205.244673 
L 311.801458 174.718075 
L 312.380509 42.05736 
L 312.509187 40.009616 
L 312.637865 43.510513 
L 312.895221 62.60808 
L 313.345594 119.721495 
L 314.053323 204.558619 
L 314.696713 252.579524 
L 315.211425 275.833939 
L 315.726137 289.370944 
L 316.240849 297.010497 
L 316.691222 300.824686 
L 317.141595 302.979353 
L 317.591968 304.072158 
L 317.978002 304.447794 
L 318.299697 304.482207 
L 318.685731 304.283246 
L 319.200443 303.729917 
L 319.908172 302.613339 
L 321.066274 300.300617 
L 323.060783 295.722606 
L 330.97448 276.627508 
L 332.582955 272.187727 
L 333.741057 268.376681 
L 334.706142 264.450922 
L 335.542549 260.122922 
L 336.250278 255.279023 
L 336.893668 249.276048 
L 337.40838 242.158642 
L 337.794414 233.725319 
L 338.116109 221.586026 
L 338.373465 201.565897 
L 338.566482 166.16211 
L 339.016855 48.350362 
L 339.209872 39.77396 
L 339.274211 40.27326 
L 339.402889 44.986301 
L 339.660245 65.879188 
L 340.174957 133.437556 
L 340.818347 207.825705 
L 341.397398 250.951264 
L 341.91211 274.954432 
L 342.426822 288.952667 
L 342.941534 296.826878 
L 343.391907 300.746238 
L 343.84228 302.973634 
L 344.292653 304.110874 
L 344.678687 304.511327 
L 345.000382 304.564028 
L 345.386416 304.382579 
L 345.901128 303.840687 
L 346.608857 302.732972 
L 347.766959 300.434755 
L 349.63279 296.17147 
L 357.675165 276.778994 
L 359.347979 272.162797 
L 360.57042 268.109356 
L 361.535505 264.079653 
L 362.371912 259.64761 
L 363.079641 254.681545 
L 363.658692 249.028984 
L 364.173404 241.741242 
L 364.559438 232.997516 
L 364.881133 220.385252 
L 365.138489 198.862431 
L 365.331506 160.058356 
L 365.781879 46.447942 
L 365.974896 39.776376 
L 366.103574 42.879682 
L 366.36093 61.484184 
L 366.811303 118.229953 
L 367.519032 203.886177 
L 368.162422 252.176976 
L 368.677134 275.633603 
L 369.191846 289.281409 
L 369.706558 296.997905 
L 370.156931 300.83855 
L 370.607304 303.011183 
L 370.993338 304.006455 
L 371.379372 304.460533 
L 371.701067 304.544823 
L 372.087101 304.386252 
L 372.601813 303.867018 
L 373.309542 302.786799 
L 374.403305 300.638139 
L 376.397814 296.101083 
L 384.182833 277.391212 
L 385.919986 272.690595 
L 387.142427 268.755999 
L 388.107512 264.91362 
L 388.943919 260.719074 
L 389.715987 255.608778 
L 390.359377 249.743926 
L 390.874089 242.849371 
L 391.260123 234.809995 
L 391.581818 223.561983 
L 391.839174 205.834191 
L 392.032191 176.057345 
L 392.611242 42.132164 
L 392.73992 39.734419 
L 392.868598 42.965266 
L 393.125954 61.740049 
L 393.576327 118.630586 
L 394.284056 204.058122 
L 394.863107 248.459778 
L 395.377819 273.443054 
L 395.892531 288.078049 
L 396.407243 296.317195 
L 396.857616 300.428953 
L 397.307989 302.780506 
L 397.758362 303.998645 
L 398.144396 304.44539 
L 398.466091 304.526704 
L 398.852125 304.370404 
L 399.366837 303.851928 
L 400.074566 302.762742 
L 401.168329 300.611492 
L 402.969821 296.521339 
L 410.626162 278.141505 
L 412.491993 273.178574 
L 413.778773 269.115509 
L 414.808197 265.101507 
L 415.644604 260.971808 
L 416.352333 256.398244 
L 416.995723 250.773794 
L 417.510435 244.326628 
L 417.960808 235.502811 
L 418.282503 224.735952 
L 418.539859 208.576563 
L 418.732876 182.217364 
L 419.440605 39.794063 
L 419.504944 40.19207 
L 419.633622 44.753909 
L 419.890978 65.42324 
L 420.40569 132.846741 
L 421.04908 207.121166 
L 421.628131 250.48547 
L 422.142843 274.644167 
L 422.657555 288.741704 
L 423.172267 296.669851 
L 423.62264 300.624126 
L 424.073013 302.873952 
L 424.523386 304.025917 
L 424.90942 304.435659 
L 425.231115 304.493453 
L 425.617149 304.315677 
L 426.131861 303.778057 
L 426.83959 302.673612 
L 427.933353 300.516064 
L 429.799184 296.264575 
L 437.648542 277.376406 
L 439.385695 272.669065 
L 440.608136 268.724505 
L 441.63756 264.603916 
L 442.409628 260.677247 
L 443.181696 255.585486 
L 443.825086 249.704454 
L 444.339798 242.764957 
L 444.725832 234.685512 
L 445.047527 223.368858 
L 445.304883 205.313362 
L 445.4979 174.983641 
L 446.076951 42.240788 
L 446.205629 40.033112 
L 446.334307 43.436523 
L 446.591663 62.439389 
L 447.042036 119.476035 
L 447.749765 204.671076 
L 448.328816 248.852782 
L 448.843528 273.680827 
L 449.35824 288.208705 
L 449.872952 296.404517 
L 450.323325 300.491581 
L 450.773698 302.826071 
L 451.224071 304.033201 
L 451.610105 304.473748 
L 451.9318 304.551857 
L 452.317834 304.392685 
L 452.832546 303.872456 
L 453.540275 302.781637 
L 454.634038 300.630837 
L 456.43553 296.547299 
L 464.15621 278.018082 
L 465.957702 273.231305 
L 467.180143 269.398887 
L 468.145228 265.713705 
L 469.045974 261.371811 
L 469.753703 256.975982 
L 470.397093 251.561437 
L 470.976144 244.529654 
L 471.362178 237.383898 
L 471.748212 225.504019 
L 472.005568 210.085758 
L 472.198585 185.404854 
L 472.455941 108.142278 
L 472.713297 50.40383 
L 472.906314 39.848053 
L 472.970653 39.89678 
L 473.099331 43.862512 
L 473.356687 63.661658 
L 473.871399 130.458232 
L 474.514789 205.902986 
L 475.09384 249.681792 
L 475.608552 274.138878 
L 476.123264 288.431204 
L 476.637976 296.525001 
L 477.088349 300.574201 
L 477.538722 302.877678 
L 477.989095 304.064107 
L 478.375129 304.490398 
L 478.696824 304.558323 
L 479.082858 304.392109 
L 479.59757 303.876994 
L 480.24096 302.904927 
L 481.270384 300.897137 
L 482.943198 297.130513 
L 488.025979 285.010257 
L 491.886319 275.548573 
L 493.366116 271.321391 
L 494.524218 267.327498 
L 495.424964 263.427443 
L 496.261371 258.785951 
L 496.9691 253.488666 
L 497.548151 247.385486 
L 497.998524 240.395979 
L 498.384558 230.616734 
L 498.641914 219.4316 
L 498.89927 195.939292 
L 499.092287 153.33191 
L 499.478321 50.529734 
L 499.671338 39.936536 
L 499.735677 39.986886 
L 499.864355 43.939639 
L 500.121711 63.714965 
L 500.636423 130.47905 
L 501.279813 205.602897 
L 501.858864 249.49653 
L 502.373576 274.055621 
L 502.888288 288.426281 
L 503.403 296.511089 
L 503.853373 300.548223 
L 504.303746 302.851068 
L 504.754119 304.037827 
L 505.140153 304.46821 
L 505.461848 304.53888 
L 505.847882 304.372895 
L 506.362594 303.846544 
L 507.070323 302.752273 
L 508.164086 300.604514 
L 509.965578 296.514803 
L 517.879275 277.513665 
L 519.616428 272.838376 
L 520.838869 268.935888 
L 521.868293 264.8776 
L 522.640361 261.023562 
L 523.412429 256.054386 
L 524.055819 250.36617 
L 524.570531 243.751271 
L 524.956565 236.218529 
L 525.27826 226.044488 
L 525.535616 210.819892 
L 525.728633 186.995227 
L 525.985989 111.015745 
L 526.243345 51.267611 
L 526.436362 39.901934 
L 526.500701 39.768396 
L 526.629379 43.437339 
L 526.886735 62.800504 
L 527.337108 120.133818 
L 528.044837 205.148426 
L 528.623888 249.192197 
L 529.1386 273.852374 
L 529.653312 288.279272 
L 530.168024 296.452937 
L 530.618397 300.54514 
L 531.06877 302.878347 
L 531.519143 304.08622 
L 531.905177 304.52958 
L 532.226872 304.6064 
L 532.612906 304.444 
L 533.127618 303.924209 
L 533.835347 302.847477 
L 534.864771 300.844203 
L 536.730602 296.613057 
L 544.386943 278.29557 
L 546.252774 273.385915 
L 547.539554 269.387209 
L 548.568978 265.450712 
L 549.469724 261.042182 
L 550.241792 256.096554 
L 550.885182 250.420091 
L 551.399894 243.84804 
L 551.850267 234.808376 
L 552.171962 223.534419 
L 552.429318 205.813394 
L 552.622335 175.833621 
L 553.201386 41.756443 
L 553.330064 39.404143 
L 553.458742 42.685812 
L 553.716098 61.491165 
L 554.166471 118.43116 
L 554.8742 203.804478 
L 555.51759 252.144301 
L 556.032302 275.593838 
L 556.547014 289.258433 
L 557.061726 296.989212 
L 557.512099 300.842102 
L 557.962472 303.031564 
L 558.412845 304.143878 
L 558.798879 304.534049 
L 559.120574 304.580193 
L 559.506608 304.390339 
L 560.02132 303.842926 
L 560.729049 302.731176 
L 561.887151 300.427129 
L 563.817321 296.013366 
L 572.052713 276.199426 
L 573.596849 271.897756 
L 574.754951 268.019961 
L 575.720036 264.022436 
L 576.556443 259.54874 
L 577.264172 254.591964 
L 577.843223 249.013542 
L 578.357935 241.711909 
L 578.743969 232.948563 
L 579.065664 220.090682 
L 579.32302 197.833885 
L 579.516037 157.759825 
L 579.902071 52.062163 
L 580.095088 40.007844 
L 580.159427 39.726068 
L 580.288105 43.134006 
L 580.545461 62.113732 
L 580.995834 119.154914 
L 581.703563 204.213208 
L 582.346953 252.385749 
L 582.861665 275.78275 
L 583.376377 289.396203 
L 583.891089 297.048838 
L 584.341462 300.862807 
L 584.791835 303.022899 
L 585.177869 304.01113 
L 585.563903 304.46182 
L 585.885598 304.544621 
L 586.271632 304.388621 
L 586.786344 303.871509 
L 587.494073 302.789246 
L 588.587836 300.655597 
L 590.389328 296.57 
L 598.367364 277.425766 
L 600.104517 272.743124 
L 601.326958 268.827925 
L 602.356382 264.726744 
L 603.192789 260.479672 
L 603.964857 255.303981 
L 604.543908 250.017078 
L 605.05862 243.258974 
L 605.444654 235.44985 
L 605.766349 224.69996 
L 606.023705 208.206401 
L 606.216722 181.350099 
L 606.924451 39.626272 
L 606.98879 40.128976 
L 607.117468 44.814126 
L 607.374824 65.703795 
L 607.889536 133.296177 
L 608.532926 207.64879 
L 609.111977 250.821299 
L 609.626689 274.870009 
L 610.141401 288.89331 
L 610.656113 296.774183 
L 611.106486 300.699289 
L 611.556859 302.93226 
L 612.007232 304.074422 
L 612.393266 304.47794 
L 612.714961 304.532889 
L 613.100995 304.354041 
L 613.615707 303.81478 
L 614.323436 302.709522 
L 615.417199 300.547589 
L 617.28303 296.302615 
L 625.196727 277.301884 
L 626.93388 272.595869 
L 628.156321 268.644822 
L 629.185745 264.521333 
L 630.022152 260.236418 
L 630.729881 255.403488 
L 631.373271 249.383094 
L 631.887983 242.208158 
L 632.274017 233.870698 
L 632.595712 221.987523 
L 632.853068 202.427697 
L 633.046085 168.319637 
L 633.560797 44.037022 
L 633.689475 39.861578 
L 633.753814 40.173821 
L 633.882492 44.582994 
L 634.139848 65.028319 
L 634.65456 132.281624 
L 635.29795 207.030121 
L 635.877001 250.41871 
L 636.391713 274.632472 
L 636.906425 288.7257 
L 637.421137 296.668095 
L 637.87151 300.642484 
L 638.321883 302.90173 
L 638.772256 304.060701 
L 639.15829 304.476746 
L 639.479985 304.53737 
L 639.866019 304.360266 
L 640.380731 303.823122 
L 641.08846 302.726688 
L 642.246562 300.43454 
L 644.241071 295.861599 
L 652.476463 275.996267 
L 654.020599 271.653873 
L 655.178701 267.731351 
L 656.079447 263.925661 
L 656.915854 259.406591 
L 657.623583 254.350419 
L 658.202634 248.643004 
L 658.717346 241.204368 
L 659.10338 232.236911 
L 659.425075 218.5975 
L 659.682431 194.447434 
L 659.875448 150.054354 
L 660.261482 49.342436 
L 660.454499 39.739219 
L 660.518838 40.012134 
L 660.647516 44.324678 
L 660.904872 64.64097 
L 661.419584 131.823125 
L 662.062974 206.521124 
L 662.642025 250.107761 
L 663.156737 274.361139 
L 663.671449 288.55376 
L 664.186161 296.585975 
L 664.636534 300.600817 
L 665.086907 302.885416 
L 665.53728 304.055351 
L 665.923314 304.477787 
L 666.245009 304.543983 
L 666.631043 304.369327 
L 667.145755 303.839121 
L 667.853484 302.747909 
L 668.882908 300.727916 
L 670.813078 296.361186 
L 678.791114 277.225546 
L 680.528267 272.518186 
L 681.750708 268.558627 
L 682.715793 264.699929 
L 683.5522 260.363434 
L 684.324268 255.105589 
L 684.967658 248.9644 
L 685.48237 241.604884 
L 685.868404 232.855108 
L 686.190099 220.100801 
L 686.447455 198.118742 
L 686.640472 158.221427 
L 687.026506 52.165717 
L 687.219523 39.957534 
L 687.283862 39.648978 
L 687.41254 42.994726 
L 687.669896 61.926066 
L 688.120269 118.951515 
L 688.827998 204.387766 
L 689.407049 248.705692 
L 689.921761 273.615854 
L 690.436473 288.168324 
L 690.951185 296.380903 
L 691.401558 300.496855 
L 691.851931 302.842855 
L 692.302304 304.059017 
L 692.688338 304.50168 
L 693.010033 304.579019 
L 693.396067 304.419526 
L 693.84644 303.977665 
L 694.554169 302.924511 
L 695.583593 300.939833 
L 696.42 299.110997 
L 696.42 299.110997 
" clip-path="url(#p49c4779087)" style="fill: none; stroke: #1f77b4; stroke-width: 1.5; stroke-linecap: square"/>
   </g>
   <g id="patch_3">
    <path d="M 53.03 318.04 
L 53.03 25.44 
" style="fill: none; stroke: #000000; stroke-width: 0.8; stroke-linejoin: miter; stroke-linecap: square"/>
   </g>
   <g id="patch_4">
    <path d="M 696.42 318.04 
L 696.42 25.44 
" style="fill: none; stroke: #000000; stroke-width: 0.8; stroke-linejoin: miter; stroke-linecap: square"/>
   </g>
   <g id="patch_5">
    <path d="M 53.03 318.04 
L 696.42 318.04 
" style="fill: none; stroke: #000000; stroke-width: 0.8; stroke-linejoin: miter; stroke-linecap: square"/>
   </g>
   <g id="patch_6">
    <path d="M 53.03 25.44 
L 696.42 25.44 
" style="fill: none; stroke: #000000; stroke-width: 0.8; stroke-linejoin: miter; stroke-linecap: square"/>
   </g>
   <g id="text_14">
    <!-- Fast Spiking -->
    <g transform="translate(338.722188 19.44) scale(0.12 -0.12)">
     <defs>
      <path id="DejaVuSans-46" d="M 628 4666 
L 3309 4666 
L 3309 4134 
L 1259 4134 
L 1259 2759 
L 3109 2759 
L 3109 2228 
L 1259 2228 
L 1259 0 
L 628 0 
L 628 4666 
z
" transform="scale(0.015625)"/>
      <path id="DejaVuSans-53" d="M 3425 4513 
L 3425 3897 
Q 3066 4069 2747 4153 
Q 2428 4238 2131 4238 
Q 1616 4238 1336 4038 
Q 1056 3838 1056 3469 
Q 1056 3159 1242 3001 
Q 1428 2844 1947 2747 
L 2328 2669 
Q 3034 2534 3370 2195 
Q 3706 1856 3706 1288 
Q 3706 609 3251 259 
Q 2797 -91 1919 -91 
Q 1588 -91 1214 -16 
Q 841 59 441 206 
L 441 856 
Q 825 641 1194 531 
Q 1563 422 1919 422 
Q 2459 422 2753 634 
Q 3047 847 3047 1241 
Q 3047 1584 2836 1778 
Q 2625 1972 2144 2069 
L 1759 2144 
Q 1053 2284 737 2584 
Q 422 2884 422 3419 
Q 422 4038 858 4394 
Q 1294 4750 2059 4750 
Q 2388 4750 2728 4690 
Q 3069 4631 3425 4513 
z
" transform="scale(0.015625)"/>
      <path id="DejaVuSans-70" d="M 1159 525 
L 1159 -1331 
L 581 -1331 
L 581 3500 
L 1159 3500 
L 1159 2969 
Q 1341 3281 1617 3432 
Q 1894 3584 2278 3584 
Q 2916 3584 3314 3078 
Q 3713 2572 3713 1747 
Q 3713 922 3314 415 
Q 2916 -91 2278 -91 
Q 1894 -91 1617 61 
Q 1341 213 1159 525 
z
M 3116 1747 
Q 3116 2381 2855 2742 
Q 2594 3103 2138 3103 
Q 1681 3103 1420 2742 
Q 1159 2381 1159 1747 
Q 1159 1113 1420 752 
Q 1681 391 2138 391 
Q 2594 391 2855 752 
Q 3116 1113 3116 1747 
z
" transform="scale(0.015625)"/>
      <path id="DejaVuSans-6b" d="M 581 4863 
L 1159 4863 
L 1159 1991 
L 2875 3500 
L 3609 3500 
L 1753 1863 
L 3688 0 
L 2938 0 
L 1159 1709 
L 1159 0 
L 581 0 
L 581 4863 
z
" transform="scale(0.015625)"/>
      <path id="DejaVuSans-6e" d="M 3513 2113 
L 3513 0 
L 2938 0 
L 2938 2094 
Q 2938 2591 2744 2837 
Q 2550 3084 2163 3084 
Q 1697 3084 1428 2787 
Q 1159 2491 1159 1978 
L 1159 0 
L 581 0 
L 581 3500 
L 1159 3500 
L 1159 2956 
Q 1366 3272 1645 3428 
Q 1925 3584 2291 3584 
Q 2894 3584 3203 3211 
Q 3513 2838 3513 2113 
z
" transform="scale(0.015625)"/>
     </defs>
     <use xlink:href="#DejaVuSans-46"/>
     <use xlink:href="#DejaVuSans-61" transform="translate(48.394531 0)"/>
     <use xlink:href="#DejaVuSans-73" transform="translate(109.673828 0)"/>
     <use xlink:href="#DejaVuSans-74" transform="translate(161.773438 0)"/>
     <use xlink:href="#DejaVuSans-20" transform="translate(200.982422 0)"/>
     <use xlink:href="#DejaVuSans-53" transform="translate(232.769531 0)"/>
     <use xlink:href="#DejaVuSans-70" transform="translate(296.246094 0)"/>
     <use xlink:href="#DejaVuSans-69" transform="translate(359.722656 0)"/>
     <use xlink:href="#DejaVuSans-6b" transform="translate(387.505859 0)"/>
     <use xlink:href="#DejaVuSans-69" transform="translate(445.416016 0)"/>
     <use xlink:href="#DejaVuSans-6e" transform="translate(473.199219 0)"/>
     <use xlink:href="#DejaVuSans-67" transform="translate(536.578125 0)"/>
    </g>
   </g>
   <g id="legend_1">
    <g id="patch_7">
     <path d="M 650.579375 180.579063 
L 689.42 180.579063 
Q 691.42 180.579063 691.42 178.579063 
L 691.42 164.900938 
Q 691.42 162.900938 689.42 162.900938 
L 650.579375 162.900938 
Q 648.579375 162.900938 648.579375 164.900938 
L 648.579375 178.579063 
Q 648.579375 180.579063 650.579375 180.579063 
z
" style="fill: #ffffff; opacity: 0.8; stroke: #cccccc; stroke-linejoin: miter"/>
    </g>
    <g id="line2d_13">
     <path d="M 652.579375 170.999375 
L 662.579375 170.999375 
L 672.579375 170.999375 
" style="fill: none; stroke: #1f77b4; stroke-width: 1.5; stroke-linecap: square"/>
    </g>
    <g id="text_15">
     <!-- V -->
     <g transform="translate(680.579375 174.499375) scale(0.1 -0.1)">
      <use xlink:href="#DejaVuSans-56"/>
     </g>
    </g>
   </g>
  </g>
 </g>
 <defs>
  <clipPath id="p49c4779087">
   <rect x="53.03" y="25.44" width="643.39" height="292.6"/>
  </clipPath>
 </defs>
</svg>
