<?xml version="1.0" encoding="utf-8" standalone="no"?>
<!DOCTYPE svg PUBLIC "-//W3C//DTD SVG 1.1//EN"
  "http://www.w3.org/Graphics/SVG/1.1/DTD/svg11.dtd">
<svg xmlns:xlink="http://www.w3.org/1999/xlink" width="864pt" height="288pt" viewBox="0 0 864 288" xmlns="http://www.w3.org/2000/svg" version="1.1">
 <metadata>
  <rdf:RDF xmlns:dc="http://purl.org/dc/elements/1.1/" xmlns:cc="http://creativecommons.org/ns#" xmlns:rdf="http://www.w3.org/1999/02/22-rdf-syntax-ns#">
   <cc:Work>
    <dc:type rdf:resource="http://purl.org/dc/dcmitype/StillImage"/>
    <dc:date>2025-03-26T16:32:35.181986</dc:date>
    <dc:format>image/svg+xml</dc:format>
    <dc:creator>
     <cc:Agent>
      <dc:title>Matplotlib v3.10.0, https://matplotlib.org/</dc:title>
     </cc:Agent>
    </dc:creator>
   </cc:Work>
  </rdf:RDF>
 </metadata>
 <defs>
  <style type="text/css">*{stroke-linejoin: round; stroke-linecap: butt}</style>
 </defs>
 <g id="figure_1">
  <g id="patch_1">
   <path d="M 0 288 
L 864 288 
L 864 0 
L 0 0 
z
" style="fill: #ffffff"/>
  </g>
  <g id="axes_1">
   <g id="patch_2">
    <path d="M 24.98125 107.44 
L 426.6 107.44 
L 426.6 10.8 
L 24.98125 10.8 
z
" style="fill: #ffffff"/>
   </g>
   <g id="matplotlib.axis_1">
    <g id="xtick_1">
     <g id="line2d_1">
      <defs>
       <path id="m4ccdb7a186" d="M 0 0 
L 0 3.5 
" style="stroke: #000000; stroke-width: 0.8"/>
      </defs>
      <g>
       <use xlink:href="#m4ccdb7a186" x="65.143125" y="107.44" style="stroke: #000000; stroke-width: 0.8"/>
      </g>
     </g>
     <g id="text_1">
      <!-- −54 -->
      <g transform="translate(54.590781 122.038437) scale(0.1 -0.1)">
       <defs>
        <path id="DejaVuSans-2212" d="M 678 2272 
L 4684 2272 
L 4684 1741 
L 678 1741 
L 678 2272 
z
" transform="scale(0.015625)"/>
        <path id="DejaVuSans-35" d="M 691 4666 
L 3169 4666 
L 3169 4134 
L 1269 4134 
L 1269 2991 
Q 1406 3038 1543 3061 
Q 1681 3084 1819 3084 
Q 2600 3084 3056 2656 
Q 3513 2228 3513 1497 
Q 3513 744 3044 326 
Q 2575 -91 1722 -91 
Q 1428 -91 1123 -41 
Q 819 9 494 109 
L 494 744 
Q 775 591 1075 516 
Q 1375 441 1709 441 
Q 2250 441 2565 725 
Q 2881 1009 2881 1497 
Q 2881 1984 2565 2268 
Q 2250 2553 1709 2553 
Q 1456 2553 1204 2497 
Q 953 2441 691 2322 
L 691 4666 
z
" transform="scale(0.015625)"/>
        <path id="DejaVuSans-34" d="M 2419 4116 
L 825 1625 
L 2419 1625 
L 2419 4116 
z
M 2253 4666 
L 3047 4666 
L 3047 1625 
L 3713 1625 
L 3713 1100 
L 3047 1100 
L 3047 0 
L 2419 0 
L 2419 1100 
L 313 1100 
L 313 1709 
L 2253 4666 
z
" transform="scale(0.015625)"/>
       </defs>
       <use xlink:href="#DejaVuSans-2212"/>
       <use xlink:href="#DejaVuSans-35" transform="translate(83.789062 0)"/>
       <use xlink:href="#DejaVuSans-34" transform="translate(147.412109 0)"/>
      </g>
     </g>
    </g>
    <g id="xtick_2">
     <g id="line2d_2">
      <g>
       <use xlink:href="#m4ccdb7a186" x="145.466875" y="107.44" style="stroke: #000000; stroke-width: 0.8"/>
      </g>
     </g>
     <g id="text_2">
      <!-- −52 -->
      <g transform="translate(134.914531 122.038437) scale(0.1 -0.1)">
       <defs>
        <path id="DejaVuSans-32" d="M 1228 531 
L 3431 531 
L 3431 0 
L 469 0 
L 469 531 
Q 828 903 1448 1529 
Q 2069 2156 2228 2338 
Q 2531 2678 2651 2914 
Q 2772 3150 2772 3378 
Q 2772 3750 2511 3984 
Q 2250 4219 1831 4219 
Q 1534 4219 1204 4116 
Q 875 4013 500 3803 
L 500 4441 
Q 881 4594 1212 4672 
Q 1544 4750 1819 4750 
Q 2544 4750 2975 4387 
Q 3406 4025 3406 3419 
Q 3406 3131 3298 2873 
Q 3191 2616 2906 2266 
Q 2828 2175 2409 1742 
Q 1991 1309 1228 531 
z
" transform="scale(0.015625)"/>
       </defs>
       <use xlink:href="#DejaVuSans-2212"/>
       <use xlink:href="#DejaVuSans-35" transform="translate(83.789062 0)"/>
       <use xlink:href="#DejaVuSans-32" transform="translate(147.412109 0)"/>
      </g>
     </g>
    </g>
    <g id="xtick_3">
     <g id="line2d_3">
      <g>
       <use xlink:href="#m4ccdb7a186" x="225.790625" y="107.44" style="stroke: #000000; stroke-width: 0.8"/>
      </g>
     </g>
     <g id="text_3">
      <!-- −50 -->
      <g transform="translate(215.238281 122.038437) scale(0.1 -0.1)">
       <defs>
        <path id="DejaVuSans-30" d="M 2034 4250 
Q 1547 4250 1301 3770 
Q 1056 3291 1056 2328 
Q 1056 1369 1301 889 
Q 1547 409 2034 409 
Q 2525 409 2770 889 
Q 3016 1369 3016 2328 
Q 3016 3291 2770 3770 
Q 2525 4250 2034 4250 
z
M 2034 4750 
Q 2819 4750 3233 4129 
Q 3647 3509 3647 2328 
Q 3647 1150 3233 529 
Q 2819 -91 2034 -91 
Q 1250 -91 836 529 
Q 422 1150 422 2328 
Q 422 3509 836 4129 
Q 1250 4750 2034 4750 
z
" transform="scale(0.015625)"/>
       </defs>
       <use xlink:href="#DejaVuSans-2212"/>
       <use xlink:href="#DejaVuSans-35" transform="translate(83.789062 0)"/>
       <use xlink:href="#DejaVuSans-30" transform="translate(147.412109 0)"/>
      </g>
     </g>
    </g>
    <g id="xtick_4">
     <g id="line2d_4">
      <g>
       <use xlink:href="#m4ccdb7a186" x="306.114375" y="107.44" style="stroke: #000000; stroke-width: 0.8"/>
      </g>
     </g>
     <g id="text_4">
      <!-- −48 -->
      <g transform="translate(295.562031 122.038437) scale(0.1 -0.1)">
       <defs>
        <path id="DejaVuSans-38" d="M 2034 2216 
Q 1584 2216 1326 1975 
Q 1069 1734 1069 1313 
Q 1069 891 1326 650 
Q 1584 409 2034 409 
Q 2484 409 2743 651 
Q 3003 894 3003 1313 
Q 3003 1734 2745 1975 
Q 2488 2216 2034 2216 
z
M 1403 2484 
Q 997 2584 770 2862 
Q 544 3141 544 3541 
Q 544 4100 942 4425 
Q 1341 4750 2034 4750 
Q 2731 4750 3128 4425 
Q 3525 4100 3525 3541 
Q 3525 3141 3298 2862 
Q 3072 2584 2669 2484 
Q 3125 2378 3379 2068 
Q 3634 1759 3634 1313 
Q 3634 634 3220 271 
Q 2806 -91 2034 -91 
Q 1263 -91 848 271 
Q 434 634 434 1313 
Q 434 1759 690 2068 
Q 947 2378 1403 2484 
z
M 1172 3481 
Q 1172 3119 1398 2916 
Q 1625 2713 2034 2713 
Q 2441 2713 2670 2916 
Q 2900 3119 2900 3481 
Q 2900 3844 2670 4047 
Q 2441 4250 2034 4250 
Q 1625 4250 1398 4047 
Q 1172 3844 1172 3481 
z
" transform="scale(0.015625)"/>
       </defs>
       <use xlink:href="#DejaVuSans-2212"/>
       <use xlink:href="#DejaVuSans-34" transform="translate(83.789062 0)"/>
       <use xlink:href="#DejaVuSans-38" transform="translate(147.412109 0)"/>
      </g>
     </g>
    </g>
    <g id="xtick_5">
     <g id="line2d_5">
      <g>
       <use xlink:href="#m4ccdb7a186" x="386.438125" y="107.44" style="stroke: #000000; stroke-width: 0.8"/>
      </g>
     </g>
     <g id="text_5">
      <!-- −46 -->
      <g transform="translate(375.885781 122.038437) scale(0.1 -0.1)">
       <defs>
        <path id="DejaVuSans-36" d="M 2113 2584 
Q 1688 2584 1439 2293 
Q 1191 2003 1191 1497 
Q 1191 994 1439 701 
Q 1688 409 2113 409 
Q 2538 409 2786 701 
Q 3034 994 3034 1497 
Q 3034 2003 2786 2293 
Q 2538 2584 2113 2584 
z
M 3366 4563 
L 3366 3988 
Q 3128 4100 2886 4159 
Q 2644 4219 2406 4219 
Q 1781 4219 1451 3797 
Q 1122 3375 1075 2522 
Q 1259 2794 1537 2939 
Q 1816 3084 2150 3084 
Q 2853 3084 3261 2657 
Q 3669 2231 3669 1497 
Q 3669 778 3244 343 
Q 2819 -91 2113 -91 
Q 1303 -91 875 529 
Q 447 1150 447 2328 
Q 447 3434 972 4092 
Q 1497 4750 2381 4750 
Q 2619 4750 2861 4703 
Q 3103 4656 3366 4563 
z
" transform="scale(0.015625)"/>
       </defs>
       <use xlink:href="#DejaVuSans-2212"/>
       <use xlink:href="#DejaVuSans-34" transform="translate(83.789062 0)"/>
       <use xlink:href="#DejaVuSans-36" transform="translate(147.412109 0)"/>
      </g>
     </g>
    </g>
    <g id="text_6">
     <!-- V (mV) -->
     <g transform="translate(208.589062 135.716562) scale(0.1 -0.1)">
      <defs>
       <path id="DejaVuSans-56" d="M 1831 0 
L 50 4666 
L 709 4666 
L 2188 738 
L 3669 4666 
L 4325 4666 
L 2547 0 
L 1831 0 
z
" transform="scale(0.015625)"/>
       <path id="DejaVuSans-20" transform="scale(0.015625)"/>
       <path id="DejaVuSans-28" d="M 1984 4856 
Q 1566 4138 1362 3434 
Q 1159 2731 1159 2009 
Q 1159 1288 1364 580 
Q 1569 -128 1984 -844 
L 1484 -844 
Q 1016 -109 783 600 
Q 550 1309 550 2009 
Q 550 2706 781 3412 
Q 1013 4119 1484 4856 
L 1984 4856 
z
" transform="scale(0.015625)"/>
       <path id="DejaVuSans-6d" d="M 3328 2828 
Q 3544 3216 3844 3400 
Q 4144 3584 4550 3584 
Q 5097 3584 5394 3201 
Q 5691 2819 5691 2113 
L 5691 0 
L 5113 0 
L 5113 2094 
Q 5113 2597 4934 2840 
Q 4756 3084 4391 3084 
Q 3944 3084 3684 2787 
Q 3425 2491 3425 1978 
L 3425 0 
L 2847 0 
L 2847 2094 
Q 2847 2600 2669 2842 
Q 2491 3084 2119 3084 
Q 1678 3084 1418 2786 
Q 1159 2488 1159 1978 
L 1159 0 
L 581 0 
L 581 3500 
L 1159 3500 
L 1159 2956 
Q 1356 3278 1631 3431 
Q 1906 3584 2284 3584 
Q 2666 3584 2933 3390 
Q 3200 3197 3328 2828 
z
" transform="scale(0.015625)"/>
       <path id="DejaVuSans-29" d="M 513 4856 
L 1013 4856 
Q 1481 4119 1714 3412 
Q 1947 2706 1947 2009 
Q 1947 1309 1714 600 
Q 1481 -109 1013 -844 
L 513 -844 
Q 928 -128 1133 580 
Q 1338 1288 1338 2009 
Q 1338 2731 1133 3434 
Q 928 4138 513 4856 
z
" transform="scale(0.015625)"/>
      </defs>
      <use xlink:href="#DejaVuSans-56"/>
      <use xlink:href="#DejaVuSans-20" transform="translate(68.408203 0)"/>
      <use xlink:href="#DejaVuSans-28" transform="translate(100.195312 0)"/>
      <use xlink:href="#DejaVuSans-6d" transform="translate(139.208984 0)"/>
      <use xlink:href="#DejaVuSans-56" transform="translate(236.621094 0)"/>
      <use xlink:href="#DejaVuSans-29" transform="translate(305.029297 0)"/>
     </g>
    </g>
   </g>
   <g id="matplotlib.axis_2">
    <g id="text_7">
     <!-- g_f (mS/cm^2) -->
     <g transform="translate(18.623437 96.764531) rotate(-90) scale(0.1 -0.1)">
      <defs>
       <path id="DejaVuSans-67" d="M 2906 1791 
Q 2906 2416 2648 2759 
Q 2391 3103 1925 3103 
Q 1463 3103 1205 2759 
Q 947 2416 947 1791 
Q 947 1169 1205 825 
Q 1463 481 1925 481 
Q 2391 481 2648 825 
Q 2906 1169 2906 1791 
z
M 3481 434 
Q 3481 -459 3084 -895 
Q 2688 -1331 1869 -1331 
Q 1566 -1331 1297 -1286 
Q 1028 -1241 775 -1147 
L 775 -588 
Q 1028 -725 1275 -790 
Q 1522 -856 1778 -856 
Q 2344 -856 2625 -561 
Q 2906 -266 2906 331 
L 2906 616 
Q 2728 306 2450 153 
Q 2172 0 1784 0 
Q 1141 0 747 490 
Q 353 981 353 1791 
Q 353 2603 747 3093 
Q 1141 3584 1784 3584 
Q 2172 3584 2450 3431 
Q 2728 3278 2906 2969 
L 2906 3500 
L 3481 3500 
L 3481 434 
z
" transform="scale(0.015625)"/>
       <path id="DejaVuSans-5f" d="M 3263 -1063 
L 3263 -1509 
L -63 -1509 
L -63 -1063 
L 3263 -1063 
z
" transform="scale(0.015625)"/>
       <path id="DejaVuSans-66" d="M 2375 4863 
L 2375 4384 
L 1825 4384 
Q 1516 4384 1395 4259 
Q 1275 4134 1275 3809 
L 1275 3500 
L 2222 3500 
L 2222 3053 
L 1275 3053 
L 1275 0 
L 697 0 
L 697 3053 
L 147 3053 
L 147 3500 
L 697 3500 
L 697 3744 
Q 697 4328 969 4595 
Q 1241 4863 1831 4863 
L 2375 4863 
z
" transform="scale(0.015625)"/>
       <path id="DejaVuSans-53" d="M 3425 4513 
L 3425 3897 
Q 3066 4069 2747 4153 
Q 2428 4238 2131 4238 
Q 1616 4238 1336 4038 
Q 1056 3838 1056 3469 
Q 1056 3159 1242 3001 
Q 1428 2844 1947 2747 
L 2328 2669 
Q 3034 2534 3370 2195 
Q 3706 1856 3706 1288 
Q 3706 609 3251 259 
Q 2797 -91 1919 -91 
Q 1588 -91 1214 -16 
Q 841 59 441 206 
L 441 856 
Q 825 641 1194 531 
Q 1563 422 1919 422 
Q 2459 422 2753 634 
Q 3047 847 3047 1241 
Q 3047 1584 2836 1778 
Q 2625 1972 2144 2069 
L 1759 2144 
Q 1053 2284 737 2584 
Q 422 2884 422 3419 
Q 422 4038 858 4394 
Q 1294 4750 2059 4750 
Q 2388 4750 2728 4690 
Q 3069 4631 3425 4513 
z
" transform="scale(0.015625)"/>
       <path id="DejaVuSans-2f" d="M 1625 4666 
L 2156 4666 
L 531 -594 
L 0 -594 
L 1625 4666 
z
" transform="scale(0.015625)"/>
       <path id="DejaVuSans-63" d="M 3122 3366 
L 3122 2828 
Q 2878 2963 2633 3030 
Q 2388 3097 2138 3097 
Q 1578 3097 1268 2742 
Q 959 2388 959 1747 
Q 959 1106 1268 751 
Q 1578 397 2138 397 
Q 2388 397 2633 464 
Q 2878 531 3122 666 
L 3122 134 
Q 2881 22 2623 -34 
Q 2366 -91 2075 -91 
Q 1284 -91 818 406 
Q 353 903 353 1747 
Q 353 2603 823 3093 
Q 1294 3584 2113 3584 
Q 2378 3584 2631 3529 
Q 2884 3475 3122 3366 
z
" transform="scale(0.015625)"/>
       <path id="DejaVuSans-5e" d="M 2988 4666 
L 4684 2925 
L 4056 2925 
L 2681 4159 
L 1306 2925 
L 678 2925 
L 2375 4666 
L 2988 4666 
z
" transform="scale(0.015625)"/>
      </defs>
      <use xlink:href="#DejaVuSans-67"/>
      <use xlink:href="#DejaVuSans-5f" transform="translate(63.476562 0)"/>
      <use xlink:href="#DejaVuSans-66" transform="translate(113.476562 0)"/>
      <use xlink:href="#DejaVuSans-20" transform="translate(148.681641 0)"/>
      <use xlink:href="#DejaVuSans-28" transform="translate(180.46875 0)"/>
      <use xlink:href="#DejaVuSans-6d" transform="translate(219.482422 0)"/>
      <use xlink:href="#DejaVuSans-53" transform="translate(316.894531 0)"/>
      <use xlink:href="#DejaVuSans-2f" transform="translate(380.371094 0)"/>
      <use xlink:href="#DejaVuSans-63" transform="translate(414.0625 0)"/>
      <use xlink:href="#DejaVuSans-6d" transform="translate(469.042969 0)"/>
      <use xlink:href="#DejaVuSans-5e" transform="translate(566.455078 0)"/>
      <use xlink:href="#DejaVuSans-32" transform="translate(650.244141 0)"/>
      <use xlink:href="#DejaVuSans-29" transform="translate(713.867188 0)"/>
     </g>
    </g>
   </g>
   <g id="line2d_6">
    <path d="M 24.98125 15.646221 
L 67.193431 16.336966 
L 99.757113 17.085233 
L 126.692505 17.92032 
L 150.00971 18.862124 
L 170.512769 19.90974 
L 189.005724 21.076291 
L 205.488576 22.332399 
L 220.765365 23.714033 
L 234.836092 25.203567 
L 248.102778 26.82844 
L 260.565422 28.577744 
L 272.224024 30.43559 
L 283.480606 32.457515 
L 293.933146 34.558717 
L 303.983665 36.804113 
L 313.632163 39.18816 
L 322.878641 41.702971 
L 331.723098 44.338268 
L 340.165534 47.081378 
L 348.20595 49.917274 
L 356.246365 52.988054 
L 363.88476 56.139043 
L 371.523154 59.534298 
L 378.759528 62.991803 
L 385.995902 66.699583 
L 392.830255 70.446009 
L 399.664608 74.445005 
L 406.498961 78.712009 
L 412.931294 82.987388 
L 419.363626 87.528821 
L 425.795958 92.351258 
L 426.6 92.974593 
L 426.6 92.974593 
" clip-path="url(#pa6f4749a56)" style="fill: none; stroke: #1f77b4; stroke-width: 1.5; stroke-linecap: square"/>
   </g>
   <g id="line2d_7">
    <path d="M 24.98125 15.474618 
L 66.389389 16.163965 
L 98.14903 16.905459 
L 124.682401 17.740317 
L 147.597585 18.679323 
L 167.698624 19.720119 
L 185.789558 20.874581 
L 202.27241 22.145475 
L 217.549199 23.546097 
L 231.619926 25.058669 
L 244.886612 26.711148 
L 256.947235 28.431325 
L 268.605837 30.317494 
L 279.460398 32.2949 
L 289.912938 34.423785 
L 299.963457 36.700974 
L 309.611956 39.120977 
L 318.858433 41.675891 
L 327.70289 44.355352 
L 336.145327 47.146525 
L 344.185742 50.03414 
L 352.226157 53.163044 
L 359.864552 56.375772 
L 367.100926 59.650873 
L 374.3373 63.166657 
L 381.573674 66.939241 
L 388.408027 70.753399 
L 395.24238 74.827022 
L 401.674712 78.912379 
L 408.107045 83.255819 
L 414.539377 87.87211 
L 420.971709 92.776757 
L 426.6 97.317638 
L 426.6 97.317638 
" clip-path="url(#pa6f4749a56)" style="fill: none; stroke: #ff7f0e; stroke-width: 1.5; stroke-linecap: square"/>
   </g>
   <g id="line2d_8">
    <path d="M 24.98125 15.192727 
L 65.183327 15.871403 
L 96.540947 16.616118 
L 122.270277 17.441112 
L 144.78344 18.381194 
L 164.482457 19.421196 
L 182.171371 20.571666 
L 198.252202 21.833903 
L 213.126971 23.219932 
L 226.795677 24.710219 
L 239.660342 26.33166 
L 251.720965 28.071661 
L 262.977546 29.912593 
L 273.832107 31.910083 
L 284.284647 34.063263 
L 293.933146 36.272064 
L 303.179623 38.607952 
L 312.02408 41.061577 
L 320.868537 43.748748 
L 329.310973 46.550296 
L 337.351389 49.450861 
L 344.989784 52.432692 
L 352.628178 55.651372 
L 359.864552 58.934635 
L 367.100926 62.461305 
L 373.935279 66.030312 
L 380.769632 69.845662 
L 387.603985 73.922779 
L 394.036318 78.013752 
L 400.46865 82.365299 
L 406.900982 86.992435 
L 412.931294 91.594681 
L 418.961605 96.466624 
L 424.991917 101.622522 
L 426.6 103.047273 
L 426.6 103.047273 
" clip-path="url(#pa6f4749a56)" style="fill: none; stroke: #2ca02c; stroke-width: 1.5; stroke-linecap: square"/>
   </g>
   <g id="line2d_9">
    <path d="M 24.98125 17.041272 
L 426.6 17.041272 
" clip-path="url(#pa6f4749a56)" style="fill: none; stroke: #000000; stroke-width: 0.5; stroke-linecap: square"/>
   </g>
   <g id="line2d_10">
    <path d="M 185.62875 107.44 
L 185.62875 10.8 
" clip-path="url(#pa6f4749a56)" style="fill: none; stroke: #ff0000; stroke-width: 0.5; stroke-linecap: square"/>
   </g>
   <g id="patch_3">
    <path d="M 24.98125 107.44 
L 24.98125 10.8 
" style="fill: none; stroke: #000000; stroke-width: 0.8; stroke-linejoin: miter; stroke-linecap: square"/>
   </g>
   <g id="patch_4">
    <path d="M 426.6 107.44 
L 426.6 10.8 
" style="fill: none; stroke: #000000; stroke-width: 0.8; stroke-linejoin: miter; stroke-linecap: square"/>
   </g>
   <g id="patch_5">
    <path d="M 24.98125 107.44 
L 426.6 107.44 
" style="fill: none; stroke: #000000; stroke-width: 0.8; stroke-linejoin: miter; stroke-linecap: square"/>
   </g>
   <g id="patch_6">
    <path d="M 24.98125 10.8 
L 426.6 10.8 
" style="fill: none; stroke: #000000; stroke-width: 0.8; stroke-linejoin: miter; stroke-linecap: square"/>
   </g>
   <g id="legend_1">
    <g id="patch_7">
     <path d="M 31.98125 102.44 
L 90.2125 102.44 
Q 92.2125 102.44 92.2125 100.44 
L 92.2125 56.57125 
Q 92.2125 54.57125 90.2125 54.57125 
L 31.98125 54.57125 
Q 29.98125 54.57125 29.98125 56.57125 
L 29.98125 100.44 
Q 29.98125 102.44 31.98125 102.44 
z
" style="fill: #ffffff; opacity: 0.8; stroke: #cccccc; stroke-linejoin: miter"/>
    </g>
    <g id="line2d_11">
     <path d="M 33.98125 62.669687 
L 43.98125 62.669687 
L 53.98125 62.669687 
" style="fill: none; stroke: #1f77b4; stroke-width: 1.5; stroke-linecap: square"/>
    </g>
    <g id="text_8">
     <!-- g_f_0 -->
     <g transform="translate(61.98125 66.169687) scale(0.1 -0.1)">
      <use xlink:href="#DejaVuSans-67"/>
      <use xlink:href="#DejaVuSans-5f" transform="translate(63.476562 0)"/>
      <use xlink:href="#DejaVuSans-66" transform="translate(113.476562 0)"/>
      <use xlink:href="#DejaVuSans-5f" transform="translate(148.681641 0)"/>
      <use xlink:href="#DejaVuSans-30" transform="translate(198.681641 0)"/>
     </g>
    </g>
    <g id="line2d_12">
     <path d="M 33.98125 77.625937 
L 43.98125 77.625937 
L 53.98125 77.625937 
" style="fill: none; stroke: #ff7f0e; stroke-width: 1.5; stroke-linecap: square"/>
    </g>
    <g id="text_9">
     <!-- g_f_1 -->
     <g transform="translate(61.98125 81.125937) scale(0.1 -0.1)">
      <defs>
       <path id="DejaVuSans-31" d="M 794 531 
L 1825 531 
L 1825 4091 
L 703 3866 
L 703 4441 
L 1819 4666 
L 2450 4666 
L 2450 531 
L 3481 531 
L 3481 0 
L 794 0 
L 794 531 
z
" transform="scale(0.015625)"/>
      </defs>
      <use xlink:href="#DejaVuSans-67"/>
      <use xlink:href="#DejaVuSans-5f" transform="translate(63.476562 0)"/>
      <use xlink:href="#DejaVuSans-66" transform="translate(113.476562 0)"/>
      <use xlink:href="#DejaVuSans-5f" transform="translate(148.681641 0)"/>
      <use xlink:href="#DejaVuSans-31" transform="translate(198.681641 0)"/>
     </g>
    </g>
    <g id="line2d_13">
     <path d="M 33.98125 92.582187 
L 43.98125 92.582187 
L 53.98125 92.582187 
" style="fill: none; stroke: #2ca02c; stroke-width: 1.5; stroke-linecap: square"/>
    </g>
    <g id="text_10">
     <!-- g_f_2 -->
     <g transform="translate(61.98125 96.082187) scale(0.1 -0.1)">
      <use xlink:href="#DejaVuSans-67"/>
      <use xlink:href="#DejaVuSans-5f" transform="translate(63.476562 0)"/>
      <use xlink:href="#DejaVuSans-66" transform="translate(113.476562 0)"/>
      <use xlink:href="#DejaVuSans-5f" transform="translate(148.681641 0)"/>
      <use xlink:href="#DejaVuSans-32" transform="translate(198.681641 0)"/>
     </g>
    </g>
   </g>
  </g>
  <g id="axes_2">
   <g id="patch_8">
    <path d="M 451.58125 107.44 
L 853.2 107.44 
L 853.2 10.8 
L 451.58125 10.8 
z
" style="fill: #ffffff"/>
   </g>
   <g id="matplotlib.axis_3">
    <g id="xtick_6">
     <g id="line2d_14">
      <g>
       <use xlink:href="#m4ccdb7a186" x="491.743125" y="107.44" style="stroke: #000000; stroke-width: 0.8"/>
      </g>
     </g>
     <g id="text_11">
      <!-- −54 -->
      <g transform="translate(481.190781 122.038437) scale(0.1 -0.1)">
       <use xlink:href="#DejaVuSans-2212"/>
       <use xlink:href="#DejaVuSans-35" transform="translate(83.789062 0)"/>
       <use xlink:href="#DejaVuSans-34" transform="translate(147.412109 0)"/>
      </g>
     </g>
    </g>
    <g id="xtick_7">
     <g id="line2d_15">
      <g>
       <use xlink:href="#m4ccdb7a186" x="572.066875" y="107.44" style="stroke: #000000; stroke-width: 0.8"/>
      </g>
     </g>
     <g id="text_12">
      <!-- −52 -->
      <g transform="translate(561.514531 122.038437) scale(0.1 -0.1)">
       <use xlink:href="#DejaVuSans-2212"/>
       <use xlink:href="#DejaVuSans-35" transform="translate(83.789062 0)"/>
       <use xlink:href="#DejaVuSans-32" transform="translate(147.412109 0)"/>
      </g>
     </g>
    </g>
    <g id="xtick_8">
     <g id="line2d_16">
      <g>
       <use xlink:href="#m4ccdb7a186" x="652.390625" y="107.44" style="stroke: #000000; stroke-width: 0.8"/>
      </g>
     </g>
     <g id="text_13">
      <!-- −50 -->
      <g transform="translate(641.838281 122.038437) scale(0.1 -0.1)">
       <use xlink:href="#DejaVuSans-2212"/>
       <use xlink:href="#DejaVuSans-35" transform="translate(83.789062 0)"/>
       <use xlink:href="#DejaVuSans-30" transform="translate(147.412109 0)"/>
      </g>
     </g>
    </g>
    <g id="xtick_9">
     <g id="line2d_17">
      <g>
       <use xlink:href="#m4ccdb7a186" x="732.714375" y="107.44" style="stroke: #000000; stroke-width: 0.8"/>
      </g>
     </g>
     <g id="text_14">
      <!-- −48 -->
      <g transform="translate(722.162031 122.038437) scale(0.1 -0.1)">
       <use xlink:href="#DejaVuSans-2212"/>
       <use xlink:href="#DejaVuSans-34" transform="translate(83.789062 0)"/>
       <use xlink:href="#DejaVuSans-38" transform="translate(147.412109 0)"/>
      </g>
     </g>
    </g>
    <g id="xtick_10">
     <g id="line2d_18">
      <g>
       <use xlink:href="#m4ccdb7a186" x="813.038125" y="107.44" style="stroke: #000000; stroke-width: 0.8"/>
      </g>
     </g>
     <g id="text_15">
      <!-- −46 -->
      <g transform="translate(802.485781 122.038437) scale(0.1 -0.1)">
       <use xlink:href="#DejaVuSans-2212"/>
       <use xlink:href="#DejaVuSans-34" transform="translate(83.789062 0)"/>
       <use xlink:href="#DejaVuSans-36" transform="translate(147.412109 0)"/>
      </g>
     </g>
    </g>
    <g id="text_16">
     <!-- V (mV) -->
     <g transform="translate(635.189062 135.716562) scale(0.1 -0.1)">
      <use xlink:href="#DejaVuSans-56"/>
      <use xlink:href="#DejaVuSans-20" transform="translate(68.408203 0)"/>
      <use xlink:href="#DejaVuSans-28" transform="translate(100.195312 0)"/>
      <use xlink:href="#DejaVuSans-6d" transform="translate(139.208984 0)"/>
      <use xlink:href="#DejaVuSans-56" transform="translate(236.621094 0)"/>
      <use xlink:href="#DejaVuSans-29" transform="translate(305.029297 0)"/>
     </g>
    </g>
   </g>
   <g id="matplotlib.axis_4">
    <g id="text_17">
     <!-- g_s (mS/cm^2) -->
     <g transform="translate(445.223437 97.609062) rotate(-90) scale(0.1 -0.1)">
      <defs>
       <path id="DejaVuSans-73" d="M 2834 3397 
L 2834 2853 
Q 2591 2978 2328 3040 
Q 2066 3103 1784 3103 
Q 1356 3103 1142 2972 
Q 928 2841 928 2578 
Q 928 2378 1081 2264 
Q 1234 2150 1697 2047 
L 1894 2003 
Q 2506 1872 2764 1633 
Q 3022 1394 3022 966 
Q 3022 478 2636 193 
Q 2250 -91 1575 -91 
Q 1294 -91 989 -36 
Q 684 19 347 128 
L 347 722 
Q 666 556 975 473 
Q 1284 391 1588 391 
Q 1994 391 2212 530 
Q 2431 669 2431 922 
Q 2431 1156 2273 1281 
Q 2116 1406 1581 1522 
L 1381 1569 
Q 847 1681 609 1914 
Q 372 2147 372 2553 
Q 372 3047 722 3315 
Q 1072 3584 1716 3584 
Q 2034 3584 2315 3537 
Q 2597 3491 2834 3397 
z
" transform="scale(0.015625)"/>
      </defs>
      <use xlink:href="#DejaVuSans-67"/>
      <use xlink:href="#DejaVuSans-5f" transform="translate(63.476562 0)"/>
      <use xlink:href="#DejaVuSans-73" transform="translate(113.476562 0)"/>
      <use xlink:href="#DejaVuSans-20" transform="translate(165.576172 0)"/>
      <use xlink:href="#DejaVuSans-28" transform="translate(197.363281 0)"/>
      <use xlink:href="#DejaVuSans-6d" transform="translate(236.376953 0)"/>
      <use xlink:href="#DejaVuSans-53" transform="translate(333.789062 0)"/>
      <use xlink:href="#DejaVuSans-2f" transform="translate(397.265625 0)"/>
      <use xlink:href="#DejaVuSans-63" transform="translate(430.957031 0)"/>
      <use xlink:href="#DejaVuSans-6d" transform="translate(485.9375 0)"/>
      <use xlink:href="#DejaVuSans-5e" transform="translate(583.349609 0)"/>
      <use xlink:href="#DejaVuSans-32" transform="translate(667.138672 0)"/>
      <use xlink:href="#DejaVuSans-29" transform="translate(730.761719 0)"/>
     </g>
    </g>
   </g>
   <g id="line2d_19">
    <path d="M 451.58125 96.527369 
L 498.61768 98.127545 
L 567.363232 100.727631 
L 607.163288 102.11852 
L 631.284535 102.744702 
L 649.77749 103.012202 
L 665.4563 103.023094 
L 679.125006 102.813456 
L 691.185629 102.411018 
L 702.04019 101.833547 
L 712.090709 101.080261 
L 721.337187 100.168575 
L 730.181644 99.068873 
L 738.22206 97.847905 
L 745.860454 96.466833 
L 753.096828 94.935477 
L 759.931181 93.267456 
L 766.363514 91.480131 
L 772.795846 89.461036 
L 778.826157 87.337892 
L 784.856469 84.97175 
L 790.48476 82.525376 
L 796.113051 79.830284 
L 801.339321 77.087704 
L 806.565591 74.096713 
L 811.791861 70.839375 
L 816.61611 67.57975 
L 821.440359 64.061123 
L 826.264608 60.266773 
L 831.088858 56.179071 
L 835.913107 51.77944 
L 840.335335 47.455731 
L 844.757564 42.837659 
L 849.179792 37.908648 
L 853.2 33.14332 
L 853.2 33.14332 
" clip-path="url(#pe15cf45e19)" style="fill: none; stroke: #1f77b4; stroke-width: 1.5; stroke-linecap: square"/>
   </g>
   <g id="line2d_20">
    <path d="M 451.58125 97.028359 
L 505.452033 98.813879 
L 596.308727 101.871404 
L 621.234015 102.449945 
L 640.933033 102.691907 
L 657.415885 102.677837 
L 671.888632 102.445638 
L 684.753297 102.018435 
L 696.411899 101.409801 
L 706.864439 100.649324 
L 716.512938 99.73564 
L 725.759416 98.639526 
L 734.201852 97.423573 
L 742.242267 96.049759 
L 749.880662 94.526395 
L 757.117036 92.865248 
L 763.951389 91.081515 
L 770.785742 89.06857 
L 777.218074 86.94519 
L 783.650407 84.579961 
L 789.680718 82.124234 
L 795.71103 79.418915 
L 801.339321 76.651277 
L 806.967611 73.631755 
L 812.193881 70.586426 
L 817.420151 67.292677 
L 822.646421 63.73413 
L 827.872691 59.893485 
L 832.696941 56.082112 
L 837.52119 51.999691 
L 842.345439 47.630333 
L 847.169688 42.957355 
L 851.993938 37.963248 
L 853.2 36.662412 
L 853.2 36.662412 
" clip-path="url(#pe15cf45e19)" style="fill: none; stroke: #ff7f0e; stroke-width: 1.5; stroke-linecap: square"/>
   </g>
   <g id="line2d_21">
    <path d="M 451.58125 97.149875 
L 502.235867 98.780025 
L 599.122873 101.974133 
L 621.234015 102.42331 
L 638.922929 102.570205 
L 653.797698 102.481815 
L 667.064383 102.185173 
L 678.722985 101.70984 
L 689.577546 101.046207 
L 699.628066 100.204649 
L 708.874543 99.204232 
L 717.316979 98.072477 
L 725.357395 96.774151 
L 732.99579 95.316461 
L 740.232163 93.710409 
L 747.066517 91.970777 
L 753.498849 90.116013 
L 759.931181 88.030507 
L 765.961493 85.847179 
L 771.991804 83.424161 
L 777.620095 80.929019 
L 783.248386 78.190786 
L 788.876677 75.19131 
L 794.102947 72.155345 
L 799.329217 68.861219 
L 804.555487 65.291727 
L 809.379736 61.736732 
L 814.203985 57.916661 
L 819.028234 53.815784 
L 823.852484 49.417614 
L 828.676733 44.704881 
L 833.500982 39.659502 
L 837.923211 34.726208 
L 842.345439 29.482296 
L 846.767668 23.911922 
L 851.189896 17.998594 
L 853.2 15.192727 
L 853.2 15.192727 
" clip-path="url(#pe15cf45e19)" style="fill: none; stroke: #2ca02c; stroke-width: 1.5; stroke-linecap: square"/>
   </g>
   <g id="line2d_22">
    <path d="M 451.58125 89.355568 
L 853.2 89.355568 
" clip-path="url(#pe15cf45e19)" style="fill: none; stroke: #000000; stroke-width: 0.5; stroke-linecap: square"/>
   </g>
   <g id="line2d_23">
    <path d="M 612.22875 107.44 
L 612.22875 10.8 
" clip-path="url(#pe15cf45e19)" style="fill: none; stroke: #ff0000; stroke-width: 0.5; stroke-linecap: square"/>
   </g>
   <g id="patch_9">
    <path d="M 451.58125 107.44 
L 451.58125 10.8 
" style="fill: none; stroke: #000000; stroke-width: 0.8; stroke-linejoin: miter; stroke-linecap: square"/>
   </g>
   <g id="patch_10">
    <path d="M 853.2 107.44 
L 853.2 10.8 
" style="fill: none; stroke: #000000; stroke-width: 0.8; stroke-linejoin: miter; stroke-linecap: square"/>
   </g>
   <g id="patch_11">
    <path d="M 451.58125 107.44 
L 853.2 107.44 
" style="fill: none; stroke: #000000; stroke-width: 0.8; stroke-linejoin: miter; stroke-linecap: square"/>
   </g>
   <g id="patch_12">
    <path d="M 451.58125 10.8 
L 853.2 10.8 
" style="fill: none; stroke: #000000; stroke-width: 0.8; stroke-linejoin: miter; stroke-linecap: square"/>
   </g>
   <g id="legend_2">
    <g id="patch_13">
     <path d="M 458.58125 63.66875 
L 518.501562 63.66875 
Q 520.501562 63.66875 520.501562 61.66875 
L 520.501562 17.8 
Q 520.501562 15.8 518.501562 15.8 
L 458.58125 15.8 
Q 456.58125 15.8 456.58125 17.8 
L 456.58125 61.66875 
Q 456.58125 63.66875 458.58125 63.66875 
z
" style="fill: #ffffff; opacity: 0.8; stroke: #cccccc; stroke-linejoin: miter"/>
    </g>
    <g id="line2d_24">
     <path d="M 460.58125 23.898438 
L 470.58125 23.898438 
L 480.58125 23.898438 
" style="fill: none; stroke: #1f77b4; stroke-width: 1.5; stroke-linecap: square"/>
    </g>
    <g id="text_18">
     <!-- g_s_0 -->
     <g transform="translate(488.58125 27.398438) scale(0.1 -0.1)">
      <use xlink:href="#DejaVuSans-67"/>
      <use xlink:href="#DejaVuSans-5f" transform="translate(63.476562 0)"/>
      <use xlink:href="#DejaVuSans-73" transform="translate(113.476562 0)"/>
      <use xlink:href="#DejaVuSans-5f" transform="translate(165.576172 0)"/>
      <use xlink:href="#DejaVuSans-30" transform="translate(215.576172 0)"/>
     </g>
    </g>
    <g id="line2d_25">
     <path d="M 460.58125 38.854688 
L 470.58125 38.854688 
L 480.58125 38.854688 
" style="fill: none; stroke: #ff7f0e; stroke-width: 1.5; stroke-linecap: square"/>
    </g>
    <g id="text_19">
     <!-- g_s_1 -->
     <g transform="translate(488.58125 42.354688) scale(0.1 -0.1)">
      <use xlink:href="#DejaVuSans-67"/>
      <use xlink:href="#DejaVuSans-5f" transform="translate(63.476562 0)"/>
      <use xlink:href="#DejaVuSans-73" transform="translate(113.476562 0)"/>
      <use xlink:href="#DejaVuSans-5f" transform="translate(165.576172 0)"/>
      <use xlink:href="#DejaVuSans-31" transform="translate(215.576172 0)"/>
     </g>
    </g>
    <g id="line2d_26">
     <path d="M 460.58125 53.810937 
L 470.58125 53.810937 
L 480.58125 53.810937 
" style="fill: none; stroke: #2ca02c; stroke-width: 1.5; stroke-linecap: square"/>
    </g>
    <g id="text_20">
     <!-- g_s_2 -->
     <g transform="translate(488.58125 57.310937) scale(0.1 -0.1)">
      <use xlink:href="#DejaVuSans-67"/>
      <use xlink:href="#DejaVuSans-5f" transform="translate(63.476562 0)"/>
      <use xlink:href="#DejaVuSans-73" transform="translate(113.476562 0)"/>
      <use xlink:href="#DejaVuSans-5f" transform="translate(165.576172 0)"/>
      <use xlink:href="#DejaVuSans-32" transform="translate(215.576172 0)"/>
     </g>
    </g>
   </g>
  </g>
  <g id="axes_3">
   <g id="patch_14">
    <path d="M 24.98125 246.04 
L 426.6 246.04 
L 426.6 149.4 
L 24.98125 149.4 
z
" style="fill: #ffffff"/>
   </g>
   <g id="matplotlib.axis_5">
    <g id="xtick_11">
     <g id="line2d_27">
      <g>
       <use xlink:href="#m4ccdb7a186" x="65.143125" y="246.04" style="stroke: #000000; stroke-width: 0.8"/>
      </g>
     </g>
     <g id="text_21">
      <!-- −54 -->
      <g transform="translate(54.590781 260.638438) scale(0.1 -0.1)">
       <use xlink:href="#DejaVuSans-2212"/>
       <use xlink:href="#DejaVuSans-35" transform="translate(83.789062 0)"/>
       <use xlink:href="#DejaVuSans-34" transform="translate(147.412109 0)"/>
      </g>
     </g>
    </g>
    <g id="xtick_12">
     <g id="line2d_28">
      <g>
       <use xlink:href="#m4ccdb7a186" x="145.466875" y="246.04" style="stroke: #000000; stroke-width: 0.8"/>
      </g>
     </g>
     <g id="text_22">
      <!-- −52 -->
      <g transform="translate(134.914531 260.638438) scale(0.1 -0.1)">
       <use xlink:href="#DejaVuSans-2212"/>
       <use xlink:href="#DejaVuSans-35" transform="translate(83.789062 0)"/>
       <use xlink:href="#DejaVuSans-32" transform="translate(147.412109 0)"/>
      </g>
     </g>
    </g>
    <g id="xtick_13">
     <g id="line2d_29">
      <g>
       <use xlink:href="#m4ccdb7a186" x="225.790625" y="246.04" style="stroke: #000000; stroke-width: 0.8"/>
      </g>
     </g>
     <g id="text_23">
      <!-- −50 -->
      <g transform="translate(215.238281 260.638438) scale(0.1 -0.1)">
       <use xlink:href="#DejaVuSans-2212"/>
       <use xlink:href="#DejaVuSans-35" transform="translate(83.789062 0)"/>
       <use xlink:href="#DejaVuSans-30" transform="translate(147.412109 0)"/>
      </g>
     </g>
    </g>
    <g id="xtick_14">
     <g id="line2d_30">
      <g>
       <use xlink:href="#m4ccdb7a186" x="306.114375" y="246.04" style="stroke: #000000; stroke-width: 0.8"/>
      </g>
     </g>
     <g id="text_24">
      <!-- −48 -->
      <g transform="translate(295.562031 260.638438) scale(0.1 -0.1)">
       <use xlink:href="#DejaVuSans-2212"/>
       <use xlink:href="#DejaVuSans-34" transform="translate(83.789062 0)"/>
       <use xlink:href="#DejaVuSans-38" transform="translate(147.412109 0)"/>
      </g>
     </g>
    </g>
    <g id="xtick_15">
     <g id="line2d_31">
      <g>
       <use xlink:href="#m4ccdb7a186" x="386.438125" y="246.04" style="stroke: #000000; stroke-width: 0.8"/>
      </g>
     </g>
     <g id="text_25">
      <!-- −46 -->
      <g transform="translate(375.885781 260.638438) scale(0.1 -0.1)">
       <use xlink:href="#DejaVuSans-2212"/>
       <use xlink:href="#DejaVuSans-34" transform="translate(83.789062 0)"/>
       <use xlink:href="#DejaVuSans-36" transform="translate(147.412109 0)"/>
      </g>
     </g>
    </g>
    <g id="text_26">
     <!-- V (mV) -->
     <g transform="translate(208.589062 274.316562) scale(0.1 -0.1)">
      <use xlink:href="#DejaVuSans-56"/>
      <use xlink:href="#DejaVuSans-20" transform="translate(68.408203 0)"/>
      <use xlink:href="#DejaVuSans-28" transform="translate(100.195312 0)"/>
      <use xlink:href="#DejaVuSans-6d" transform="translate(139.208984 0)"/>
      <use xlink:href="#DejaVuSans-56" transform="translate(236.621094 0)"/>
      <use xlink:href="#DejaVuSans-29" transform="translate(305.029297 0)"/>
     </g>
    </g>
   </g>
   <g id="matplotlib.axis_6">
    <g id="text_27">
     <!-- g_u (mS/cm^2) -->
     <g transform="translate(18.623437 236.773125) rotate(-90) scale(0.1 -0.1)">
      <defs>
       <path id="DejaVuSans-75" d="M 544 1381 
L 544 3500 
L 1119 3500 
L 1119 1403 
Q 1119 906 1312 657 
Q 1506 409 1894 409 
Q 2359 409 2629 706 
Q 2900 1003 2900 1516 
L 2900 3500 
L 3475 3500 
L 3475 0 
L 2900 0 
L 2900 538 
Q 2691 219 2414 64 
Q 2138 -91 1772 -91 
Q 1169 -91 856 284 
Q 544 659 544 1381 
z
M 1991 3584 
L 1991 3584 
z
" transform="scale(0.015625)"/>
      </defs>
      <use xlink:href="#DejaVuSans-67"/>
      <use xlink:href="#DejaVuSans-5f" transform="translate(63.476562 0)"/>
      <use xlink:href="#DejaVuSans-75" transform="translate(113.476562 0)"/>
      <use xlink:href="#DejaVuSans-20" transform="translate(176.855469 0)"/>
      <use xlink:href="#DejaVuSans-28" transform="translate(208.642578 0)"/>
      <use xlink:href="#DejaVuSans-6d" transform="translate(247.65625 0)"/>
      <use xlink:href="#DejaVuSans-53" transform="translate(345.068359 0)"/>
      <use xlink:href="#DejaVuSans-2f" transform="translate(408.544922 0)"/>
      <use xlink:href="#DejaVuSans-63" transform="translate(442.236328 0)"/>
      <use xlink:href="#DejaVuSans-6d" transform="translate(497.216797 0)"/>
      <use xlink:href="#DejaVuSans-5e" transform="translate(594.628906 0)"/>
      <use xlink:href="#DejaVuSans-32" transform="translate(678.417969 0)"/>
      <use xlink:href="#DejaVuSans-29" transform="translate(742.041016 0)"/>
     </g>
    </g>
   </g>
   <g id="line2d_32">
    <path d="M 24.98125 164.645913 
L 39.856019 169.751456 
L 55.132808 174.756778 
L 70.409597 179.530499 
L 86.088407 184.199158 
L 102.169238 188.755098 
L 118.65209 193.190817 
L 135.134941 197.398505 
L 152.019814 201.479654 
L 168.904686 205.33329 
L 185.789558 208.959844 
L 202.27241 212.27644 
L 218.353241 215.289011 
L 233.63003 217.931246 
L 248.102778 220.216721 
L 261.771484 222.1568 
L 274.636149 223.762255 
L 286.696772 225.044849 
L 297.953353 226.018789 
L 308.405893 226.701948 
L 318.054392 227.116758 
L 327.30087 227.293521 
L 335.743306 227.242018 
L 343.783721 226.981044 
L 351.422116 226.519671 
L 358.65849 225.869846 
L 365.492843 225.046494 
L 372.327196 223.999364 
L 378.759528 222.790064 
L 384.78984 221.441488 
L 390.820151 219.867114 
L 396.448442 218.177358 
L 402.076733 216.258021 
L 407.705024 214.09149 
L 412.931294 211.841939 
L 418.157564 209.346985 
L 423.383834 206.589599 
L 426.6 204.754528 
L 426.6 204.754528 
" clip-path="url(#pbf85afc6e1)" style="fill: none; stroke: #1f77b4; stroke-width: 1.5; stroke-linecap: square"/>
   </g>
   <g id="line2d_33">
    <path d="M 24.98125 160.182203 
L 39.856019 165.702526 
L 55.132808 171.128827 
L 70.409597 176.319892 
L 86.088407 181.414691 
L 102.169238 186.407199 
L 118.65209 191.291976 
L 135.536962 196.063688 
L 152.823855 200.716393 
L 170.512769 205.242533 
L 188.201683 209.536596 
L 205.890597 213.599207 
L 223.17749 217.340656 
L 240.062362 220.765071 
L 256.143193 223.797406 
L 271.017962 226.38167 
L 285.088689 228.606156 
L 298.355374 230.480307 
L 310.818018 232.014862 
L 322.47662 233.223219 
L 333.331181 234.122542 
L 343.3817 234.734554 
L 353.030199 235.096238 
L 361.874656 235.209362 
L 370.317092 235.099563 
L 378.357508 234.775369 
L 385.995902 234.248058 
L 393.232276 233.531766 
L 400.066629 232.643488 
L 406.900982 231.531013 
L 413.333315 230.261615 
L 419.765647 228.758597 
L 425.795958 227.120492 
L 426.6 226.884419 
L 426.6 226.884419 
" clip-path="url(#pbf85afc6e1)" style="fill: none; stroke: #ff7f0e; stroke-width: 1.5; stroke-linecap: square"/>
   </g>
   <g id="line2d_34">
    <path d="M 24.98125 153.792727 
L 39.856019 159.936985 
L 54.730787 165.841167 
L 70.007576 171.667089 
L 85.686386 177.408091 
L 101.767217 183.057903 
L 118.250069 188.609942 
L 134.73292 193.929381 
L 151.617793 199.143731 
L 168.502665 204.122188 
L 184.985517 208.75052 
L 201.066348 213.034957 
L 216.343137 216.877373 
L 230.815885 220.291405 
L 244.484591 223.288595 
L 257.349256 225.880252 
L 269.409879 228.07916 
L 280.66646 229.901043 
L 291.119 231.365691 
L 300.767499 232.497684 
L 310.013976 233.359231 
L 318.858433 233.954162 
L 326.898849 234.278456 
L 334.537243 234.37517 
L 342.175638 234.245178 
L 349.412012 233.892678 
L 356.246365 233.335907 
L 362.678697 232.596049 
L 369.11103 231.629653 
L 375.141341 230.501821 
L 381.171653 229.143035 
L 386.799944 227.651518 
L 392.428234 225.929424 
L 398.056525 223.961287 
L 403.282795 221.899153 
L 408.509065 219.597006 
L 413.735335 217.04037 
L 418.559585 214.44139 
L 423.383834 211.600116 
L 426.6 209.564896 
L 426.6 209.564896 
" clip-path="url(#pbf85afc6e1)" style="fill: none; stroke: #2ca02c; stroke-width: 1.5; stroke-linecap: square"/>
   </g>
   <g id="line2d_35">
    <path d="M 24.98125 241.647273 
L 426.6 241.647273 
" clip-path="url(#pbf85afc6e1)" style="fill: none; stroke: #000000; stroke-width: 0.5; stroke-linecap: square"/>
   </g>
   <g id="line2d_36">
    <path d="M 185.62875 246.04 
L 185.62875 149.4 
" clip-path="url(#pbf85afc6e1)" style="fill: none; stroke: #ff0000; stroke-width: 0.5; stroke-linecap: square"/>
   </g>
   <g id="patch_15">
    <path d="M 24.98125 246.04 
L 24.98125 149.4 
" style="fill: none; stroke: #000000; stroke-width: 0.8; stroke-linejoin: miter; stroke-linecap: square"/>
   </g>
   <g id="patch_16">
    <path d="M 426.6 246.04 
L 426.6 149.4 
" style="fill: none; stroke: #000000; stroke-width: 0.8; stroke-linejoin: miter; stroke-linecap: square"/>
   </g>
   <g id="patch_17">
    <path d="M 24.98125 246.04 
L 426.6 246.04 
" style="fill: none; stroke: #000000; stroke-width: 0.8; stroke-linejoin: miter; stroke-linecap: square"/>
   </g>
   <g id="patch_18">
    <path d="M 24.98125 149.4 
L 426.6 149.4 
" style="fill: none; stroke: #000000; stroke-width: 0.8; stroke-linejoin: miter; stroke-linecap: square"/>
   </g>
   <g id="legend_3">
    <g id="patch_19">
     <path d="M 358.551562 202.26875 
L 419.6 202.26875 
Q 421.6 202.26875 421.6 200.26875 
L 421.6 156.4 
Q 421.6 154.4 419.6 154.4 
L 358.551562 154.4 
Q 356.551562 154.4 356.551562 156.4 
L 356.551562 200.26875 
Q 356.551562 202.26875 358.551562 202.26875 
z
" style="fill: #ffffff; opacity: 0.8; stroke: #cccccc; stroke-linejoin: miter"/>
    </g>
    <g id="line2d_37">
     <path d="M 360.551562 162.498437 
L 370.551562 162.498437 
L 380.551562 162.498437 
" style="fill: none; stroke: #1f77b4; stroke-width: 1.5; stroke-linecap: square"/>
    </g>
    <g id="text_28">
     <!-- g_u_0 -->
     <g transform="translate(388.551562 165.998437) scale(0.1 -0.1)">
      <use xlink:href="#DejaVuSans-67"/>
      <use xlink:href="#DejaVuSans-5f" transform="translate(63.476562 0)"/>
      <use xlink:href="#DejaVuSans-75" transform="translate(113.476562 0)"/>
      <use xlink:href="#DejaVuSans-5f" transform="translate(176.855469 0)"/>
      <use xlink:href="#DejaVuSans-30" transform="translate(226.855469 0)"/>
     </g>
    </g>
    <g id="line2d_38">
     <path d="M 360.551562 177.454687 
L 370.551562 177.454687 
L 380.551562 177.454687 
" style="fill: none; stroke: #ff7f0e; stroke-width: 1.5; stroke-linecap: square"/>
    </g>
    <g id="text_29">
     <!-- g_u_1 -->
     <g transform="translate(388.551562 180.954687) scale(0.1 -0.1)">
      <use xlink:href="#DejaVuSans-67"/>
      <use xlink:href="#DejaVuSans-5f" transform="translate(63.476562 0)"/>
      <use xlink:href="#DejaVuSans-75" transform="translate(113.476562 0)"/>
      <use xlink:href="#DejaVuSans-5f" transform="translate(176.855469 0)"/>
      <use xlink:href="#DejaVuSans-31" transform="translate(226.855469 0)"/>
     </g>
    </g>
    <g id="line2d_39">
     <path d="M 360.551562 192.410937 
L 370.551562 192.410937 
L 380.551562 192.410937 
" style="fill: none; stroke: #2ca02c; stroke-width: 1.5; stroke-linecap: square"/>
    </g>
    <g id="text_30">
     <!-- g_u_2 -->
     <g transform="translate(388.551562 195.910937) scale(0.1 -0.1)">
      <use xlink:href="#DejaVuSans-67"/>
      <use xlink:href="#DejaVuSans-5f" transform="translate(63.476562 0)"/>
      <use xlink:href="#DejaVuSans-75" transform="translate(113.476562 0)"/>
      <use xlink:href="#DejaVuSans-5f" transform="translate(176.855469 0)"/>
      <use xlink:href="#DejaVuSans-32" transform="translate(226.855469 0)"/>
     </g>
    </g>
   </g>
  </g>
  <g id="axes_4">
   <g id="patch_20">
    <path d="M 451.58125 246.04 
L 853.2 246.04 
L 853.2 149.4 
L 451.58125 149.4 
z
" style="fill: #ffffff"/>
   </g>
   <g id="matplotlib.axis_7">
    <g id="xtick_16">
     <g id="line2d_40">
      <g>
       <use xlink:href="#m4ccdb7a186" x="491.743125" y="246.04" style="stroke: #000000; stroke-width: 0.8"/>
      </g>
     </g>
     <g id="text_31">
      <!-- −54 -->
      <g transform="translate(481.190781 260.638438) scale(0.1 -0.1)">
       <use xlink:href="#DejaVuSans-2212"/>
       <use xlink:href="#DejaVuSans-35" transform="translate(83.789062 0)"/>
       <use xlink:href="#DejaVuSans-34" transform="translate(147.412109 0)"/>
      </g>
     </g>
    </g>
    <g id="xtick_17">
     <g id="line2d_41">
      <g>
       <use xlink:href="#m4ccdb7a186" x="572.066875" y="246.04" style="stroke: #000000; stroke-width: 0.8"/>
      </g>
     </g>
     <g id="text_32">
      <!-- −52 -->
      <g transform="translate(561.514531 260.638438) scale(0.1 -0.1)">
       <use xlink:href="#DejaVuSans-2212"/>
       <use xlink:href="#DejaVuSans-35" transform="translate(83.789062 0)"/>
       <use xlink:href="#DejaVuSans-32" transform="translate(147.412109 0)"/>
      </g>
     </g>
    </g>
    <g id="xtick_18">
     <g id="line2d_42">
      <g>
       <use xlink:href="#m4ccdb7a186" x="652.390625" y="246.04" style="stroke: #000000; stroke-width: 0.8"/>
      </g>
     </g>
     <g id="text_33">
      <!-- −50 -->
      <g transform="translate(641.838281 260.638438) scale(0.1 -0.1)">
       <use xlink:href="#DejaVuSans-2212"/>
       <use xlink:href="#DejaVuSans-35" transform="translate(83.789062 0)"/>
       <use xlink:href="#DejaVuSans-30" transform="translate(147.412109 0)"/>
      </g>
     </g>
    </g>
    <g id="xtick_19">
     <g id="line2d_43">
      <g>
       <use xlink:href="#m4ccdb7a186" x="732.714375" y="246.04" style="stroke: #000000; stroke-width: 0.8"/>
      </g>
     </g>
     <g id="text_34">
      <!-- −48 -->
      <g transform="translate(722.162031 260.638438) scale(0.1 -0.1)">
       <use xlink:href="#DejaVuSans-2212"/>
       <use xlink:href="#DejaVuSans-34" transform="translate(83.789062 0)"/>
       <use xlink:href="#DejaVuSans-38" transform="translate(147.412109 0)"/>
      </g>
     </g>
    </g>
    <g id="xtick_20">
     <g id="line2d_44">
      <g>
       <use xlink:href="#m4ccdb7a186" x="813.038125" y="246.04" style="stroke: #000000; stroke-width: 0.8"/>
      </g>
     </g>
     <g id="text_35">
      <!-- −46 -->
      <g transform="translate(802.485781 260.638438) scale(0.1 -0.1)">
       <use xlink:href="#DejaVuSans-2212"/>
       <use xlink:href="#DejaVuSans-34" transform="translate(83.789062 0)"/>
       <use xlink:href="#DejaVuSans-36" transform="translate(147.412109 0)"/>
      </g>
     </g>
    </g>
    <g id="text_36">
     <!-- V (mV) -->
     <g transform="translate(635.189062 274.316562) scale(0.1 -0.1)">
      <use xlink:href="#DejaVuSans-56"/>
      <use xlink:href="#DejaVuSans-20" transform="translate(68.408203 0)"/>
      <use xlink:href="#DejaVuSans-28" transform="translate(100.195312 0)"/>
      <use xlink:href="#DejaVuSans-6d" transform="translate(139.208984 0)"/>
      <use xlink:href="#DejaVuSans-56" transform="translate(236.621094 0)"/>
      <use xlink:href="#DejaVuSans-29" transform="translate(305.029297 0)"/>
     </g>
    </g>
   </g>
   <g id="matplotlib.axis_8">
    <g id="text_37">
     <!-- g_t (mS/cm^2) -->
     <g transform="translate(445.223437 235.564531) rotate(-90) scale(0.1 -0.1)">
      <defs>
       <path id="DejaVuSans-74" d="M 1172 4494 
L 1172 3500 
L 2356 3500 
L 2356 3053 
L 1172 3053 
L 1172 1153 
Q 1172 725 1289 603 
Q 1406 481 1766 481 
L 2356 481 
L 2356 0 
L 1766 0 
Q 1100 0 847 248 
Q 594 497 594 1153 
L 594 3053 
L 172 3053 
L 172 3500 
L 594 3500 
L 594 4494 
L 1172 4494 
z
" transform="scale(0.015625)"/>
      </defs>
      <use xlink:href="#DejaVuSans-67"/>
      <use xlink:href="#DejaVuSans-5f" transform="translate(63.476562 0)"/>
      <use xlink:href="#DejaVuSans-74" transform="translate(113.476562 0)"/>
      <use xlink:href="#DejaVuSans-20" transform="translate(152.685547 0)"/>
      <use xlink:href="#DejaVuSans-28" transform="translate(184.472656 0)"/>
      <use xlink:href="#DejaVuSans-6d" transform="translate(223.486328 0)"/>
      <use xlink:href="#DejaVuSans-53" transform="translate(320.898438 0)"/>
      <use xlink:href="#DejaVuSans-2f" transform="translate(384.375 0)"/>
      <use xlink:href="#DejaVuSans-63" transform="translate(418.066406 0)"/>
      <use xlink:href="#DejaVuSans-6d" transform="translate(473.046875 0)"/>
      <use xlink:href="#DejaVuSans-5e" transform="translate(570.458984 0)"/>
      <use xlink:href="#DejaVuSans-32" transform="translate(654.248047 0)"/>
      <use xlink:href="#DejaVuSans-29" transform="translate(717.871094 0)"/>
     </g>
    </g>
   </g>
   <g id="line2d_45">
    <path d="M 451.58125 155.277587 
L 508.668199 158.67901 
L 541.633903 160.863774 
L 567.765253 162.811696 
L 590.278416 164.709013 
L 609.977434 166.586103 
L 628.068368 168.531132 
L 644.55122 170.52424 
L 659.828009 172.591677 
L 674.300757 174.774754 
L 687.969463 177.063638 
L 700.834128 179.443375 
L 712.894751 181.894163 
L 724.553353 184.484961 
L 735.809935 187.211474 
L 746.664496 190.067062 
L 757.117036 193.042773 
L 767.167555 196.127427 
L 777.218074 199.445091 
L 786.866573 202.862233 
L 796.515071 206.51941 
L 805.761549 210.260902 
L 815.008027 214.245 
L 823.852484 218.292657 
L 832.696941 222.581 
L 841.541398 227.118743 
L 850.385855 231.914209 
L 853.2 233.495374 
L 853.2 233.495374 
" clip-path="url(#p9cc4e76ec8)" style="fill: none; stroke: #1f77b4; stroke-width: 1.5; stroke-linecap: square"/>
   </g>
   <g id="line2d_46">
    <path d="M 451.58125 154.734105 
L 508.668199 158.306394 
L 540.829861 160.537137 
L 566.55919 162.537045 
L 588.670333 164.474787 
L 607.96733 166.382363 
L 625.656244 168.35148 
L 641.737075 170.361796 
L 656.611843 172.440826 
L 670.68257 174.63166 
L 683.949256 176.92472 
L 696.411899 179.305315 
L 708.070502 181.753811 
L 719.327083 184.342485 
L 730.181644 187.06819 
L 740.634184 189.925519 
L 750.684703 192.906783 
L 760.333202 196.002017 
L 769.57968 199.199028 
L 778.424137 202.483489 
L 787.268594 206.004445 
L 795.71103 209.600254 
L 804.153466 213.439842 
L 812.193881 217.33669 
L 820.234297 221.481207 
L 827.872691 225.660376 
L 835.511086 230.087587 
L 843.149481 234.775396 
L 850.385855 239.468597 
L 853.2 241.362462 
L 853.2 241.362462 
" clip-path="url(#p9cc4e76ec8)" style="fill: none; stroke: #ff7f0e; stroke-width: 1.5; stroke-linecap: square"/>
   </g>
   <g id="line2d_47">
    <path d="M 451.58125 153.792727 
L 506.256075 157.451618 
L 538.015716 159.798362 
L 563.343024 161.887837 
L 585.052146 163.89718 
L 604.349143 165.902444 
L 622.038057 167.964019 
L 638.118888 170.05944 
L 652.993656 172.21632 
L 667.064383 174.47792 
L 680.331069 176.832767 
L 692.793712 179.26449 
L 704.854336 181.841842 
L 716.512938 184.56335 
L 727.76952 187.425325 
L 738.22206 190.306496 
L 748.6746 193.420129 
L 758.725119 196.649559 
L 768.373617 199.982443 
L 777.620095 203.40447 
L 786.866573 207.063724 
L 795.71103 210.799166 
L 804.555487 214.777988 
L 812.997923 218.815507 
L 821.440359 223.099485 
L 829.480775 227.420238 
L 837.52119 231.98745 
L 845.561605 236.812878 
L 853.2 241.647273 
L 853.2 241.647273 
" clip-path="url(#p9cc4e76ec8)" style="fill: none; stroke: #2ca02c; stroke-width: 1.5; stroke-linecap: square"/>
   </g>
   <g id="line2d_48">
    <path d="M 451.58125 163.190742 
L 853.2 163.190742 
" clip-path="url(#p9cc4e76ec8)" style="fill: none; stroke: #000000; stroke-width: 0.5; stroke-linecap: square"/>
   </g>
   <g id="line2d_49">
    <path d="M 612.22875 246.04 
L 612.22875 149.4 
" clip-path="url(#p9cc4e76ec8)" style="fill: none; stroke: #ff0000; stroke-width: 0.5; stroke-linecap: square"/>
   </g>
   <g id="patch_21">
    <path d="M 451.58125 246.04 
L 451.58125 149.4 
" style="fill: none; stroke: #000000; stroke-width: 0.8; stroke-linejoin: miter; stroke-linecap: square"/>
   </g>
   <g id="patch_22">
    <path d="M 853.2 246.04 
L 853.2 149.4 
" style="fill: none; stroke: #000000; stroke-width: 0.8; stroke-linejoin: miter; stroke-linecap: square"/>
   </g>
   <g id="patch_23">
    <path d="M 451.58125 246.04 
L 853.2 246.04 
" style="fill: none; stroke: #000000; stroke-width: 0.8; stroke-linejoin: miter; stroke-linecap: square"/>
   </g>
   <g id="patch_24">
    <path d="M 451.58125 149.4 
L 853.2 149.4 
" style="fill: none; stroke: #000000; stroke-width: 0.8; stroke-linejoin: miter; stroke-linecap: square"/>
   </g>
   <g id="legend_4">
    <g id="patch_25">
     <path d="M 458.58125 241.04 
L 517.2125 241.04 
Q 519.2125 241.04 519.2125 239.04 
L 519.2125 195.17125 
Q 519.2125 193.17125 517.2125 193.17125 
L 458.58125 193.17125 
Q 456.58125 193.17125 456.58125 195.17125 
L 456.58125 239.04 
Q 456.58125 241.04 458.58125 241.04 
z
" style="fill: #ffffff; opacity: 0.8; stroke: #cccccc; stroke-linejoin: miter"/>
    </g>
    <g id="line2d_50">
     <path d="M 460.58125 201.269687 
L 470.58125 201.269687 
L 480.58125 201.269687 
" style="fill: none; stroke: #1f77b4; stroke-width: 1.5; stroke-linecap: square"/>
    </g>
    <g id="text_38">
     <!-- g_t_0 -->
     <g transform="translate(488.58125 204.769687) scale(0.1 -0.1)">
      <use xlink:href="#DejaVuSans-67"/>
      <use xlink:href="#DejaVuSans-5f" transform="translate(63.476562 0)"/>
      <use xlink:href="#DejaVuSans-74" transform="translate(113.476562 0)"/>
      <use xlink:href="#DejaVuSans-5f" transform="translate(152.685547 0)"/>
      <use xlink:href="#DejaVuSans-30" transform="translate(202.685547 0)"/>
     </g>
    </g>
    <g id="line2d_51">
     <path d="M 460.58125 216.225937 
L 470.58125 216.225937 
L 480.58125 216.225937 
" style="fill: none; stroke: #ff7f0e; stroke-width: 1.5; stroke-linecap: square"/>
    </g>
    <g id="text_39">
     <!-- g_t_1 -->
     <g transform="translate(488.58125 219.725937) scale(0.1 -0.1)">
      <use xlink:href="#DejaVuSans-67"/>
      <use xlink:href="#DejaVuSans-5f" transform="translate(63.476562 0)"/>
      <use xlink:href="#DejaVuSans-74" transform="translate(113.476562 0)"/>
      <use xlink:href="#DejaVuSans-5f" transform="translate(152.685547 0)"/>
      <use xlink:href="#DejaVuSans-31" transform="translate(202.685547 0)"/>
     </g>
    </g>
    <g id="line2d_52">
     <path d="M 460.58125 231.182187 
L 470.58125 231.182187 
L 480.58125 231.182187 
" style="fill: none; stroke: #2ca02c; stroke-width: 1.5; stroke-linecap: square"/>
    </g>
    <g id="text_40">
     <!-- g_t_2 -->
     <g transform="translate(488.58125 234.682187) scale(0.1 -0.1)">
      <use xlink:href="#DejaVuSans-67"/>
      <use xlink:href="#DejaVuSans-5f" transform="translate(63.476562 0)"/>
      <use xlink:href="#DejaVuSans-74" transform="translate(113.476562 0)"/>
      <use xlink:href="#DejaVuSans-5f" transform="translate(152.685547 0)"/>
      <use xlink:href="#DejaVuSans-32" transform="translate(202.685547 0)"/>
     </g>
    </g>
   </g>
  </g>
 </g>
 <defs>
  <clipPath id="pa6f4749a56">
   <rect x="24.98125" y="10.8" width="401.61875" height="96.64"/>
  </clipPath>
  <clipPath id="pe15cf45e19">
   <rect x="451.58125" y="10.8" width="401.61875" height="96.64"/>
  </clipPath>
  <clipPath id="pbf85afc6e1">
   <rect x="24.98125" y="149.4" width="401.61875" height="96.64"/>
  </clipPath>
  <clipPath id="p9cc4e76ec8">
   <rect x="451.58125" y="149.4" width="401.61875" height="96.64"/>
  </clipPath>
 </defs>
</svg>
