<?xml version="1.0" encoding="utf-8" standalone="no"?>
<!DOCTYPE svg PUBLIC "-//W3C//DTD SVG 1.1//EN"
  "http://www.w3.org/Graphics/SVG/1.1/DTD/svg11.dtd">
<svg xmlns:xlink="http://www.w3.org/1999/xlink" width="432pt" height="576pt" viewBox="0 0 432 576" xmlns="http://www.w3.org/2000/svg" version="1.1">
 <metadata>
  <rdf:RDF xmlns:dc="http://purl.org/dc/elements/1.1/" xmlns:cc="http://creativecommons.org/ns#" xmlns:rdf="http://www.w3.org/1999/02/22-rdf-syntax-ns#">
   <cc:Work>
    <dc:type rdf:resource="http://purl.org/dc/dcmitype/StillImage"/>
    <dc:date>2025-03-26T16:32:34.453884</dc:date>
    <dc:format>image/svg+xml</dc:format>
    <dc:creator>
     <cc:Agent>
      <dc:title>Matplotlib v3.10.0, https://matplotlib.org/</dc:title>
     </cc:Agent>
    </dc:creator>
   </cc:Work>
  </rdf:RDF>
 </metadata>
 <defs>
  <style type="text/css">*{stroke-linejoin: round; stroke-linecap: butt}</style>
 </defs>
 <g id="figure_1">
  <g id="patch_1">
   <path d="M 0 576 
L 432 576 
L 432 0 
L 0 0 
z
" style="fill: #ffffff"/>
  </g>
  <g id="axes_1">
   <g id="patch_2">
    <path d="M 53.03 157.24 
L 421.2 157.24 
L 421.2 10.8 
L 53.03 10.8 
z
" style="fill: #ffffff"/>
   </g>
   <g id="matplotlib.axis_1">
    <g id="xtick_1">
     <g id="line2d_1">
      <defs>
       <path id="mee6ea76bb0" d="M 0 0 
L 0 3.5 
" style="stroke: #000000; stroke-width: 0.8"/>
      </defs>
      <g>
       <use xlink:href="#mee6ea76bb0" x="69.765" y="157.24" style="stroke: #000000; stroke-width: 0.8"/>
      </g>
     </g>
     <g id="text_1">
      <!-- 3000 -->
      <g transform="translate(57.04 171.838437) scale(0.1 -0.1)">
       <defs>
        <path id="DejaVuSans-33" d="M 2597 2516 
Q 3050 2419 3304 2112 
Q 3559 1806 3559 1356 
Q 3559 666 3084 287 
Q 2609 -91 1734 -91 
Q 1441 -91 1130 -33 
Q 819 25 488 141 
L 488 750 
Q 750 597 1062 519 
Q 1375 441 1716 441 
Q 2309 441 2620 675 
Q 2931 909 2931 1356 
Q 2931 1769 2642 2001 
Q 2353 2234 1838 2234 
L 1294 2234 
L 1294 2753 
L 1863 2753 
Q 2328 2753 2575 2939 
Q 2822 3125 2822 3475 
Q 2822 3834 2567 4026 
Q 2313 4219 1838 4219 
Q 1578 4219 1281 4162 
Q 984 4106 628 3988 
L 628 4550 
Q 988 4650 1302 4700 
Q 1616 4750 1894 4750 
Q 2613 4750 3031 4423 
Q 3450 4097 3450 3541 
Q 3450 3153 3228 2886 
Q 3006 2619 2597 2516 
z
" transform="scale(0.015625)"/>
        <path id="DejaVuSans-30" d="M 2034 4250 
Q 1547 4250 1301 3770 
Q 1056 3291 1056 2328 
Q 1056 1369 1301 889 
Q 1547 409 2034 409 
Q 2525 409 2770 889 
Q 3016 1369 3016 2328 
Q 3016 3291 2770 3770 
Q 2525 4250 2034 4250 
z
M 2034 4750 
Q 2819 4750 3233 4129 
Q 3647 3509 3647 2328 
Q 3647 1150 3233 529 
Q 2819 -91 2034 -91 
Q 1250 -91 836 529 
Q 422 1150 422 2328 
Q 422 3509 836 4129 
Q 1250 4750 2034 4750 
z
" transform="scale(0.015625)"/>
       </defs>
       <use xlink:href="#DejaVuSans-33"/>
       <use xlink:href="#DejaVuSans-30" transform="translate(63.623047 0)"/>
       <use xlink:href="#DejaVuSans-30" transform="translate(127.246094 0)"/>
       <use xlink:href="#DejaVuSans-30" transform="translate(190.869141 0)"/>
      </g>
     </g>
    </g>
    <g id="xtick_2">
     <g id="line2d_2">
      <g>
       <use xlink:href="#mee6ea76bb0" x="136.708347" y="157.24" style="stroke: #000000; stroke-width: 0.8"/>
      </g>
     </g>
     <g id="text_2">
      <!-- 3200 -->
      <g transform="translate(123.983347 171.838437) scale(0.1 -0.1)">
       <defs>
        <path id="DejaVuSans-32" d="M 1228 531 
L 3431 531 
L 3431 0 
L 469 0 
L 469 531 
Q 828 903 1448 1529 
Q 2069 2156 2228 2338 
Q 2531 2678 2651 2914 
Q 2772 3150 2772 3378 
Q 2772 3750 2511 3984 
Q 2250 4219 1831 4219 
Q 1534 4219 1204 4116 
Q 875 4013 500 3803 
L 500 4441 
Q 881 4594 1212 4672 
Q 1544 4750 1819 4750 
Q 2544 4750 2975 4387 
Q 3406 4025 3406 3419 
Q 3406 3131 3298 2873 
Q 3191 2616 2906 2266 
Q 2828 2175 2409 1742 
Q 1991 1309 1228 531 
z
" transform="scale(0.015625)"/>
       </defs>
       <use xlink:href="#DejaVuSans-33"/>
       <use xlink:href="#DejaVuSans-32" transform="translate(63.623047 0)"/>
       <use xlink:href="#DejaVuSans-30" transform="translate(127.246094 0)"/>
       <use xlink:href="#DejaVuSans-30" transform="translate(190.869141 0)"/>
      </g>
     </g>
    </g>
    <g id="xtick_3">
     <g id="line2d_3">
      <g>
       <use xlink:href="#mee6ea76bb0" x="203.651694" y="157.24" style="stroke: #000000; stroke-width: 0.8"/>
      </g>
     </g>
     <g id="text_3">
      <!-- 3400 -->
      <g transform="translate(190.926694 171.838437) scale(0.1 -0.1)">
       <defs>
        <path id="DejaVuSans-34" d="M 2419 4116 
L 825 1625 
L 2419 1625 
L 2419 4116 
z
M 2253 4666 
L 3047 4666 
L 3047 1625 
L 3713 1625 
L 3713 1100 
L 3047 1100 
L 3047 0 
L 2419 0 
L 2419 1100 
L 313 1100 
L 313 1709 
L 2253 4666 
z
" transform="scale(0.015625)"/>
       </defs>
       <use xlink:href="#DejaVuSans-33"/>
       <use xlink:href="#DejaVuSans-34" transform="translate(63.623047 0)"/>
       <use xlink:href="#DejaVuSans-30" transform="translate(127.246094 0)"/>
       <use xlink:href="#DejaVuSans-30" transform="translate(190.869141 0)"/>
      </g>
     </g>
    </g>
    <g id="xtick_4">
     <g id="line2d_4">
      <g>
       <use xlink:href="#mee6ea76bb0" x="270.595042" y="157.24" style="stroke: #000000; stroke-width: 0.8"/>
      </g>
     </g>
     <g id="text_4">
      <!-- 3600 -->
      <g transform="translate(257.870042 171.838437) scale(0.1 -0.1)">
       <defs>
        <path id="DejaVuSans-36" d="M 2113 2584 
Q 1688 2584 1439 2293 
Q 1191 2003 1191 1497 
Q 1191 994 1439 701 
Q 1688 409 2113 409 
Q 2538 409 2786 701 
Q 3034 994 3034 1497 
Q 3034 2003 2786 2293 
Q 2538 2584 2113 2584 
z
M 3366 4563 
L 3366 3988 
Q 3128 4100 2886 4159 
Q 2644 4219 2406 4219 
Q 1781 4219 1451 3797 
Q 1122 3375 1075 2522 
Q 1259 2794 1537 2939 
Q 1816 3084 2150 3084 
Q 2853 3084 3261 2657 
Q 3669 2231 3669 1497 
Q 3669 778 3244 343 
Q 2819 -91 2113 -91 
Q 1303 -91 875 529 
Q 447 1150 447 2328 
Q 447 3434 972 4092 
Q 1497 4750 2381 4750 
Q 2619 4750 2861 4703 
Q 3103 4656 3366 4563 
z
" transform="scale(0.015625)"/>
       </defs>
       <use xlink:href="#DejaVuSans-33"/>
       <use xlink:href="#DejaVuSans-36" transform="translate(63.623047 0)"/>
       <use xlink:href="#DejaVuSans-30" transform="translate(127.246094 0)"/>
       <use xlink:href="#DejaVuSans-30" transform="translate(190.869141 0)"/>
      </g>
     </g>
    </g>
    <g id="xtick_5">
     <g id="line2d_5">
      <g>
       <use xlink:href="#mee6ea76bb0" x="337.538389" y="157.24" style="stroke: #000000; stroke-width: 0.8"/>
      </g>
     </g>
     <g id="text_5">
      <!-- 3800 -->
      <g transform="translate(324.813389 171.838437) scale(0.1 -0.1)">
       <defs>
        <path id="DejaVuSans-38" d="M 2034 2216 
Q 1584 2216 1326 1975 
Q 1069 1734 1069 1313 
Q 1069 891 1326 650 
Q 1584 409 2034 409 
Q 2484 409 2743 651 
Q 3003 894 3003 1313 
Q 3003 1734 2745 1975 
Q 2488 2216 2034 2216 
z
M 1403 2484 
Q 997 2584 770 2862 
Q 544 3141 544 3541 
Q 544 4100 942 4425 
Q 1341 4750 2034 4750 
Q 2731 4750 3128 4425 
Q 3525 4100 3525 3541 
Q 3525 3141 3298 2862 
Q 3072 2584 2669 2484 
Q 3125 2378 3379 2068 
Q 3634 1759 3634 1313 
Q 3634 634 3220 271 
Q 2806 -91 2034 -91 
Q 1263 -91 848 271 
Q 434 634 434 1313 
Q 434 1759 690 2068 
Q 947 2378 1403 2484 
z
M 1172 3481 
Q 1172 3119 1398 2916 
Q 1625 2713 2034 2713 
Q 2441 2713 2670 2916 
Q 2900 3119 2900 3481 
Q 2900 3844 2670 4047 
Q 2441 4250 2034 4250 
Q 1625 4250 1398 4047 
Q 1172 3844 1172 3481 
z
" transform="scale(0.015625)"/>
       </defs>
       <use xlink:href="#DejaVuSans-33"/>
       <use xlink:href="#DejaVuSans-38" transform="translate(63.623047 0)"/>
       <use xlink:href="#DejaVuSans-30" transform="translate(127.246094 0)"/>
       <use xlink:href="#DejaVuSans-30" transform="translate(190.869141 0)"/>
      </g>
     </g>
    </g>
    <g id="xtick_6">
     <g id="line2d_6">
      <g>
       <use xlink:href="#mee6ea76bb0" x="404.481736" y="157.24" style="stroke: #000000; stroke-width: 0.8"/>
      </g>
     </g>
     <g id="text_6">
      <!-- 4000 -->
      <g transform="translate(391.756736 171.838437) scale(0.1 -0.1)">
       <use xlink:href="#DejaVuSans-34"/>
       <use xlink:href="#DejaVuSans-30" transform="translate(63.623047 0)"/>
       <use xlink:href="#DejaVuSans-30" transform="translate(127.246094 0)"/>
       <use xlink:href="#DejaVuSans-30" transform="translate(190.869141 0)"/>
      </g>
     </g>
    </g>
    <g id="text_7">
     <!-- Time (ms) -->
     <g transform="translate(211.915781 185.516563) scale(0.1 -0.1)">
      <defs>
       <path id="DejaVuSans-54" d="M -19 4666 
L 3928 4666 
L 3928 4134 
L 2272 4134 
L 2272 0 
L 1638 0 
L 1638 4134 
L -19 4134 
L -19 4666 
z
" transform="scale(0.015625)"/>
       <path id="DejaVuSans-69" d="M 603 3500 
L 1178 3500 
L 1178 0 
L 603 0 
L 603 3500 
z
M 603 4863 
L 1178 4863 
L 1178 4134 
L 603 4134 
L 603 4863 
z
" transform="scale(0.015625)"/>
       <path id="DejaVuSans-6d" d="M 3328 2828 
Q 3544 3216 3844 3400 
Q 4144 3584 4550 3584 
Q 5097 3584 5394 3201 
Q 5691 2819 5691 2113 
L 5691 0 
L 5113 0 
L 5113 2094 
Q 5113 2597 4934 2840 
Q 4756 3084 4391 3084 
Q 3944 3084 3684 2787 
Q 3425 2491 3425 1978 
L 3425 0 
L 2847 0 
L 2847 2094 
Q 2847 2600 2669 2842 
Q 2491 3084 2119 3084 
Q 1678 3084 1418 2786 
Q 1159 2488 1159 1978 
L 1159 0 
L 581 0 
L 581 3500 
L 1159 3500 
L 1159 2956 
Q 1356 3278 1631 3431 
Q 1906 3584 2284 3584 
Q 2666 3584 2933 3390 
Q 3200 3197 3328 2828 
z
" transform="scale(0.015625)"/>
       <path id="DejaVuSans-65" d="M 3597 1894 
L 3597 1613 
L 953 1613 
Q 991 1019 1311 708 
Q 1631 397 2203 397 
Q 2534 397 2845 478 
Q 3156 559 3463 722 
L 3463 178 
Q 3153 47 2828 -22 
Q 2503 -91 2169 -91 
Q 1331 -91 842 396 
Q 353 884 353 1716 
Q 353 2575 817 3079 
Q 1281 3584 2069 3584 
Q 2775 3584 3186 3129 
Q 3597 2675 3597 1894 
z
M 3022 2063 
Q 3016 2534 2758 2815 
Q 2500 3097 2075 3097 
Q 1594 3097 1305 2825 
Q 1016 2553 972 2059 
L 3022 2063 
z
" transform="scale(0.015625)"/>
       <path id="DejaVuSans-20" transform="scale(0.015625)"/>
       <path id="DejaVuSans-28" d="M 1984 4856 
Q 1566 4138 1362 3434 
Q 1159 2731 1159 2009 
Q 1159 1288 1364 580 
Q 1569 -128 1984 -844 
L 1484 -844 
Q 1016 -109 783 600 
Q 550 1309 550 2009 
Q 550 2706 781 3412 
Q 1013 4119 1484 4856 
L 1984 4856 
z
" transform="scale(0.015625)"/>
       <path id="DejaVuSans-73" d="M 2834 3397 
L 2834 2853 
Q 2591 2978 2328 3040 
Q 2066 3103 1784 3103 
Q 1356 3103 1142 2972 
Q 928 2841 928 2578 
Q 928 2378 1081 2264 
Q 1234 2150 1697 2047 
L 1894 2003 
Q 2506 1872 2764 1633 
Q 3022 1394 3022 966 
Q 3022 478 2636 193 
Q 2250 -91 1575 -91 
Q 1294 -91 989 -36 
Q 684 19 347 128 
L 347 722 
Q 666 556 975 473 
Q 1284 391 1588 391 
Q 1994 391 2212 530 
Q 2431 669 2431 922 
Q 2431 1156 2273 1281 
Q 2116 1406 1581 1522 
L 1381 1569 
Q 847 1681 609 1914 
Q 372 2147 372 2553 
Q 372 3047 722 3315 
Q 1072 3584 1716 3584 
Q 2034 3584 2315 3537 
Q 2597 3491 2834 3397 
z
" transform="scale(0.015625)"/>
       <path id="DejaVuSans-29" d="M 513 4856 
L 1013 4856 
Q 1481 4119 1714 3412 
Q 1947 2706 1947 2009 
Q 1947 1309 1714 600 
Q 1481 -109 1013 -844 
L 513 -844 
Q 928 -128 1133 580 
Q 1338 1288 1338 2009 
Q 1338 2731 1133 3434 
Q 928 4138 513 4856 
z
" transform="scale(0.015625)"/>
      </defs>
      <use xlink:href="#DejaVuSans-54"/>
      <use xlink:href="#DejaVuSans-69" transform="translate(57.958984 0)"/>
      <use xlink:href="#DejaVuSans-6d" transform="translate(85.742188 0)"/>
      <use xlink:href="#DejaVuSans-65" transform="translate(183.154297 0)"/>
      <use xlink:href="#DejaVuSans-20" transform="translate(244.677734 0)"/>
      <use xlink:href="#DejaVuSans-28" transform="translate(276.464844 0)"/>
      <use xlink:href="#DejaVuSans-6d" transform="translate(315.478516 0)"/>
      <use xlink:href="#DejaVuSans-73" transform="translate(412.890625 0)"/>
      <use xlink:href="#DejaVuSans-29" transform="translate(464.990234 0)"/>
     </g>
    </g>
   </g>
   <g id="matplotlib.axis_2">
    <g id="ytick_1">
     <g id="line2d_7">
      <defs>
       <path id="m274e418b6a" d="M 0 0 
L -3.5 0 
" style="stroke: #000000; stroke-width: 0.8"/>
      </defs>
      <g>
       <use xlink:href="#m274e418b6a" x="53.03" y="154.273135" style="stroke: #000000; stroke-width: 0.8"/>
      </g>
     </g>
     <g id="text_8">
      <!-- −80 -->
      <g transform="translate(24.925313 158.072354) scale(0.1 -0.1)">
       <defs>
        <path id="DejaVuSans-2212" d="M 678 2272 
L 4684 2272 
L 4684 1741 
L 678 1741 
L 678 2272 
z
" transform="scale(0.015625)"/>
       </defs>
       <use xlink:href="#DejaVuSans-2212"/>
       <use xlink:href="#DejaVuSans-38" transform="translate(83.789062 0)"/>
       <use xlink:href="#DejaVuSans-30" transform="translate(147.412109 0)"/>
      </g>
     </g>
    </g>
    <g id="ytick_2">
     <g id="line2d_8">
      <g>
       <use xlink:href="#m274e418b6a" x="53.03" y="133.219577" style="stroke: #000000; stroke-width: 0.8"/>
      </g>
     </g>
     <g id="text_9">
      <!-- −60 -->
      <g transform="translate(24.925313 137.018796) scale(0.1 -0.1)">
       <use xlink:href="#DejaVuSans-2212"/>
       <use xlink:href="#DejaVuSans-36" transform="translate(83.789062 0)"/>
       <use xlink:href="#DejaVuSans-30" transform="translate(147.412109 0)"/>
      </g>
     </g>
    </g>
    <g id="ytick_3">
     <g id="line2d_9">
      <g>
       <use xlink:href="#m274e418b6a" x="53.03" y="112.166019" style="stroke: #000000; stroke-width: 0.8"/>
      </g>
     </g>
     <g id="text_10">
      <!-- −40 -->
      <g transform="translate(24.925313 115.965238) scale(0.1 -0.1)">
       <use xlink:href="#DejaVuSans-2212"/>
       <use xlink:href="#DejaVuSans-34" transform="translate(83.789062 0)"/>
       <use xlink:href="#DejaVuSans-30" transform="translate(147.412109 0)"/>
      </g>
     </g>
    </g>
    <g id="ytick_4">
     <g id="line2d_10">
      <g>
       <use xlink:href="#m274e418b6a" x="53.03" y="91.112462" style="stroke: #000000; stroke-width: 0.8"/>
      </g>
     </g>
     <g id="text_11">
      <!-- −20 -->
      <g transform="translate(24.925313 94.91168) scale(0.1 -0.1)">
       <use xlink:href="#DejaVuSans-2212"/>
       <use xlink:href="#DejaVuSans-32" transform="translate(83.789062 0)"/>
       <use xlink:href="#DejaVuSans-30" transform="translate(147.412109 0)"/>
      </g>
     </g>
    </g>
    <g id="ytick_5">
     <g id="line2d_11">
      <g>
       <use xlink:href="#m274e418b6a" x="53.03" y="70.058904" style="stroke: #000000; stroke-width: 0.8"/>
      </g>
     </g>
     <g id="text_12">
      <!-- 0 -->
      <g transform="translate(39.6675 73.858123) scale(0.1 -0.1)">
       <use xlink:href="#DejaVuSans-30"/>
      </g>
     </g>
    </g>
    <g id="ytick_6">
     <g id="line2d_12">
      <g>
       <use xlink:href="#m274e418b6a" x="53.03" y="49.005346" style="stroke: #000000; stroke-width: 0.8"/>
      </g>
     </g>
     <g id="text_13">
      <!-- 20 -->
      <g transform="translate(33.305 52.804565) scale(0.1 -0.1)">
       <use xlink:href="#DejaVuSans-32"/>
       <use xlink:href="#DejaVuSans-30" transform="translate(63.623047 0)"/>
      </g>
     </g>
    </g>
    <g id="ytick_7">
     <g id="line2d_13">
      <g>
       <use xlink:href="#m274e418b6a" x="53.03" y="27.951788" style="stroke: #000000; stroke-width: 0.8"/>
      </g>
     </g>
     <g id="text_14">
      <!-- 40 -->
      <g transform="translate(33.305 31.751007) scale(0.1 -0.1)">
       <use xlink:href="#DejaVuSans-34"/>
       <use xlink:href="#DejaVuSans-30" transform="translate(63.623047 0)"/>
      </g>
     </g>
    </g>
    <g id="text_15">
     <!-- V (mV) -->
     <g transform="translate(18.845625 101.221563) rotate(-90) scale(0.1 -0.1)">
      <defs>
       <path id="DejaVuSans-56" d="M 1831 0 
L 50 4666 
L 709 4666 
L 2188 738 
L 3669 4666 
L 4325 4666 
L 2547 0 
L 1831 0 
z
" transform="scale(0.015625)"/>
      </defs>
      <use xlink:href="#DejaVuSans-56"/>
      <use xlink:href="#DejaVuSans-20" transform="translate(68.408203 0)"/>
      <use xlink:href="#DejaVuSans-28" transform="translate(100.195312 0)"/>
      <use xlink:href="#DejaVuSans-6d" transform="translate(139.208984 0)"/>
      <use xlink:href="#DejaVuSans-56" transform="translate(236.621094 0)"/>
      <use xlink:href="#DejaVuSans-29" transform="translate(305.029297 0)"/>
     </g>
    </g>
   </g>
   <g id="line2d_14">
    <path d="M 69.765 124.771205 
L 71.990866 121.598806 
L 72.6603 120.249332 
L 73.078696 118.909062 
L 73.346469 117.229761 
L 73.497092 114.840136 
L 73.580771 109.697335 
L 73.597507 105.307779 
L 73.647714 17.478017 
L 73.731393 17.810047 
L 73.848544 20.001239 
L 74.015903 28.489587 
L 74.451034 67.580712 
L 74.651864 90.420784 
L 74.819223 136.152632 
L 74.886166 135.761767 
L 75.75643 126.294198 
L 76.392391 116.633191 
L 76.576486 111.592741 
L 76.626693 102.52148 
L 76.676901 18.444861 
L 76.743844 18.997231 
L 76.894466 23.010622 
L 77.128768 36.100953 
L 77.714522 85.004195 
L 77.898617 135.614663 
L 78.032503 134.540444 
L 78.735409 126.268829 
L 79.438314 115.294986 
L 79.588936 110.63694 
L 79.622408 105.811873 
L 79.689351 18.606144 
L 79.77303 19.65006 
L 79.957125 25.913736 
L 80.25837 46.327518 
L 80.726973 87.954284 
L 80.911067 136.233095 
L 80.944539 136.060333 
L 81.530293 130.568076 
L 83.387971 111.356704 
L 83.438179 107.545555 
L 83.454914 100.964224 
L 83.505122 18.526944 
L 83.572065 19.092243 
L 83.705952 23.015219 
L 83.940254 38.225516 
L 84.475801 88.083828 
L 84.659895 136.809934 
L 84.676631 136.777756 
L 84.877461 135.304088 
L 85.697517 129.808958 
L 86.300007 127.243666 
L 86.751874 126.234242 
L 87.086591 125.938339 
L 87.3711 125.961963 
L 87.689081 126.252927 
L 88.090741 126.981954 
L 88.609552 128.436427 
L 89.26225 130.999042 
L 90.048834 135.071911 
L 91.454644 143.906517 
L 92.191021 147.642525 
L 92.709832 149.278532 
L 93.178436 150.09617 
L 93.647039 150.478685 
L 94.082171 150.582104 
L 94.651189 150.496257 
L 95.65534 150.06126 
L 96.893791 149.303238 
L 98.885356 147.744287 
L 99.889506 146.831749 
L 101.814127 144.726787 
L 103.57139 142.540239 
L 105.8642 139.283296 
L 108.726028 134.831422 
L 112.960195 128.290405 
L 115.721608 124.486304 
L 117.629493 121.763982 
L 118.332398 120.388784 
L 118.784266 119.030591 
L 119.052039 117.509991 
L 119.219398 115.285467 
L 119.303077 111.732269 
L 119.336549 105.668545 
L 119.37002 17.488238 
L 119.470435 17.807924 
L 119.57085 19.502059 
L 119.738209 27.308231 
L 120.089661 58.6116 
L 120.390906 90.592793 
L 120.558265 136.141717 
L 120.608472 135.901776 
L 121.160755 130.327324 
L 121.830188 121.622633 
L 122.282056 113.10151 
L 122.348999 108.684966 
L 122.365735 103.806664 
L 122.432678 18.439818 
L 122.482886 18.965643 
L 122.633508 22.931298 
L 122.86781 35.972812 
L 123.453564 84.81849 
L 123.520508 123.332675 
L 123.637659 135.623393 
L 123.67113 135.489274 
L 123.855225 133.681383 
L 124.574865 124.88946 
L 125.227563 114.222237 
L 125.344714 109.04197 
L 125.36145 105.668894 
L 125.428393 18.602032 
L 125.512072 19.665378 
L 125.696167 25.926311 
L 125.980676 45.026596 
L 126.466015 88.309811 
L 126.650109 136.225796 
L 126.666845 136.162515 
L 126.834203 134.708128 
L 128.959655 114.15142 
L 129.110277 111.574738 
L 129.177221 104.683824 
L 129.244164 18.509883 
L 129.311107 19.273991 
L 129.46173 24.238629 
L 129.712767 41.943366 
L 130.214842 91.919452 
L 130.365465 136.721198 
L 130.382201 136.823077 
L 130.432408 136.648253 
L 131.721068 128.381363 
L 132.223143 126.727087 
L 132.624803 126.06941 
L 132.942784 125.925164 
L 133.227293 126.048516 
L 133.56201 126.466805 
L 133.997142 127.402786 
L 134.56616 129.216888 
L 135.252329 132.199741 
L 136.089121 136.898779 
L 137.946799 147.726775 
L 138.46561 149.319429 
L 138.934213 150.111375 
L 139.402817 150.483355 
L 139.87142 150.572863 
L 140.540854 150.431455 
L 141.528268 150.010399 
L 143.335739 148.77107 
L 144.925643 147.478373 
L 147.486226 144.809666 
L 149.276961 142.559894 
L 151.452619 139.500541 
L 154.414862 134.891125 
L 158.76618 128.181786 
L 161.544329 124.36131 
L 163.435479 121.636772 
L 164.121648 120.236632 
L 164.540044 118.907846 
L 164.807817 117.240805 
L 164.95844 114.921628 
L 165.042119 110.148555 
L 165.075591 80.990805 
L 165.109062 17.472934 
L 165.192741 17.786249 
L 165.293156 19.44245 
L 165.460515 27.172191 
L 165.811967 58.483445 
L 166.113212 90.02329 
L 166.280571 136.158054 
L 166.347514 135.793003 
L 167.552494 121.66227 
L 168.004362 113.157787 
L 168.071305 109.017008 
L 168.088041 104.967131 
L 168.154984 18.428998 
L 168.221928 19.196347 
L 168.389286 24.20135 
L 168.65706 40.863424 
L 169.192606 87.844222 
L 169.359965 135.603183 
L 169.410172 135.389699 
L 169.979191 129.12063 
L 170.682096 119.121764 
L 171.033548 111.722047 
L 171.083756 106.859274 
L 171.150699 18.598514 
L 171.284586 20.750415 
L 171.485416 29.26042 
L 171.87034 58.551148 
L 172.205057 93.44915 
L 172.35568 136.19079 
L 172.372415 136.229551 
L 172.405887 136.076483 
L 172.824283 132.207288 
L 174.832583 111.643691 
L 174.899527 105.480014 
L 174.96647 18.508701 
L 175.050149 19.562755 
L 175.217508 25.849975 
L 175.502017 47.72285 
L 175.937149 91.029352 
L 176.104507 136.80673 
L 176.137979 136.757333 
L 176.539639 133.737474 
L 177.292751 129.068564 
L 177.828298 127.016949 
L 178.246694 126.163433 
L 178.581411 125.907643 
L 178.86592 125.959433 
L 179.183901 126.279418 
L 179.585561 127.03376 
L 180.121108 128.573076 
L 180.773805 131.187383 
L 181.577126 135.413847 
L 183.903407 148.510129 
L 184.388746 149.703076 
L 184.840614 150.288063 
L 185.309217 150.535508 
L 185.8615 150.550574 
L 186.564405 150.326753 
L 187.735914 149.701472 
L 189.15846 148.711339 
L 191.417798 146.772012 
L 192.589306 145.516512 
L 195.216833 142.288062 
L 197.208397 139.451724 
L 200.589036 134.186036 
L 204.505222 128.160099 
L 207.316843 124.280882 
L 209.224728 121.536577 
L 209.877426 120.202069 
L 210.279086 118.913617 
L 210.530123 117.334378 
L 210.680746 115.171577 
L 210.764425 111.234352 
L 210.797897 102.513899 
L 210.831368 17.456364 
L 210.915048 17.718785 
L 211.015463 19.209531 
L 211.166085 25.517454 
L 211.450594 49.549508 
L 211.852254 93.615226 
L 212.002877 136.168809 
L 212.036349 136.097818 
L 212.253914 134.132832 
L 213.258065 122.075336 
L 213.726668 113.544217 
L 213.810347 108.03202 
L 213.827083 100.655752 
L 213.877291 18.429881 
L 213.944234 19.02438 
L 214.094856 23.088134 
L 214.345894 37.463684 
L 214.914912 85.535 
L 215.099007 135.632717 
L 215.199422 134.85364 
L 215.751704 128.643399 
L 216.471345 118.224525 
L 216.77259 111.472586 
L 216.822798 105.067158 
L 216.889741 18.595907 
L 216.956685 19.375435 
L 217.124043 24.453282 
L 217.391816 41.130681 
L 217.927363 88.811511 
L 218.094721 136.239655 
L 218.111457 136.226849 
L 218.228608 135.320068 
L 220.588361 110.95625 
L 220.638569 104.933772 
L 220.705512 18.503134 
L 220.772455 19.265531 
L 220.923078 24.216288 
L 221.174115 41.889823 
L 221.676191 91.543996 
L 221.826813 136.695436 
L 221.860285 136.82495 
L 221.910492 136.552941 
L 223.115473 128.683995 
L 223.634283 126.855458 
L 224.035944 126.126968 
L 224.353924 125.934123 
L 224.638434 126.018299 
L 224.956415 126.368267 
L 225.37481 127.194179 
L 225.910357 128.789784 
L 226.579791 131.544445 
L 227.366375 135.774908 
L 229.575506 148.316932 
L 230.077581 149.626022 
L 230.546184 150.268531 
L 230.998052 150.526247 
L 231.533598 150.556781 
L 232.269975 150.348877 
L 233.290861 149.813984 
L 234.930973 148.687405 
L 236.604557 147.251286 
L 238.345084 145.489422 
L 240.236234 143.222619 
L 242.278006 140.43335 
L 244.972475 136.328528 
L 250.813282 127.341388 
L 255.432373 120.607798 
L 255.917713 119.276792 
L 256.202222 117.825655 
L 256.386316 115.757196 
L 256.486731 112.109876 
L 256.520203 107.38009 
L 256.57041 17.478688 
L 256.737769 18.964416 
L 256.888391 24.920259 
L 257.156165 46.927534 
L 257.591296 97.987118 
L 257.725183 136.006045 
L 257.741919 136.150787 
L 257.808862 135.817339 
L 258.310937 130.733035 
L 259.06405 120.945695 
L 259.46571 113.276645 
L 259.532653 109.347067 
L 259.549389 105.905606 
L 259.616333 18.424891 
L 259.700012 19.456462 
L 259.884106 25.591369 
L 260.168615 44.589253 
L 260.67069 93.52775 
L 260.821313 135.615974 
L 260.854784 135.528128 
L 261.038879 133.738221 
L 261.808727 124.259284 
L 262.444689 113.54773 
L 262.528368 109.669475 
L 262.56184 96.772447 
L 262.612047 18.59742 
L 262.678991 19.25121 
L 262.846349 24.149106 
L 263.097387 39.266139 
L 263.649669 86.712174 
L 263.833763 136.242466 
L 263.900707 135.835942 
L 264.77097 127.47043 
L 266.327403 110.883975 
L 266.377611 104.124004 
L 266.444554 18.508999 
L 266.511497 19.297495 
L 266.66212 24.309727 
L 266.929893 43.59611 
L 267.415233 93.071672 
L 267.565855 136.739238 
L 267.582591 136.812919 
L 267.632798 136.617497 
L 268.821043 128.796457 
L 269.339854 126.89987 
L 269.75825 126.102919 
L 270.076231 125.890071 
L 270.36074 125.95742 
L 270.678721 126.291889 
L 271.097117 127.103851 
L 271.632663 128.682955 
L 272.302097 131.404468 
L 273.088681 135.604701 
L 275.348019 148.400124 
L 275.833358 149.650136 
L 276.26849 150.253547 
L 276.753829 150.530307 
L 277.27264 150.557294 
L 277.95881 150.363254 
L 279.096847 149.775766 
L 280.385506 148.882611 
L 283.06324 146.642905 
L 284.335164 145.208256 
L 287.381086 141.341281 
L 290.05882 137.344462 
L 297.405852 126.156281 
L 300.786491 121.361815 
L 301.439189 119.914878 
L 301.807377 118.577297 
L 302.041679 116.845751 
L 302.175566 114.290023 
L 302.242509 109.454466 
L 302.259245 104.504443 
L 302.309452 17.481235 
L 302.393131 17.822139 
L 302.510282 20.051004 
L 302.677641 28.623429 
L 303.146244 70.617074 
L 303.313602 91.726176 
L 303.464225 136.099885 
L 303.480961 136.152426 
L 303.514432 136.01608 
L 303.949564 131.761539 
L 304.652469 123.077402 
L 305.17128 114.055634 
L 305.271695 108.282699 
L 305.288431 101.96454 
L 305.338639 18.432974 
L 305.405582 19.005538 
L 305.556205 23.040366 
L 305.807242 37.368079 
L 306.392996 89.334742 
L 306.560355 135.623141 
L 306.577091 135.585173 
L 306.777921 133.660997 
L 307.480826 125.109785 
L 308.150259 114.199141 
L 308.26741 108.960893 
L 308.284146 105.497021 
L 308.351089 18.619919 
L 308.418033 19.355306 
L 308.585391 24.411106 
L 308.853164 41.0391 
L 309.388711 88.41603 
L 309.572805 136.233174 
L 309.589541 136.162677 
L 309.907522 133.29565 
L 311.999502 112.571186 
L 312.083181 109.425065 
L 312.116653 99.314846 
L 312.16686 18.534723 
L 312.233803 19.123772 
L 312.384426 23.842692 
L 312.635464 41.260791 
L 313.137539 89.01898 
L 313.321633 136.825154 
L 313.422048 136.205737 
L 314.292311 130.150589 
L 314.86133 127.553374 
L 315.313197 126.375685 
L 315.681386 125.948183 
L 315.965895 125.911642 
L 316.250404 126.105441 
L 316.618593 126.660976 
L 317.087196 127.808246 
L 317.689686 129.925026 
L 318.426063 133.398291 
L 319.36327 139.008943 
L 320.702137 146.928055 
L 321.287891 149.022124 
L 321.756495 149.961261 
L 322.191626 150.396262 
L 322.66023 150.560985 
L 323.26272 150.511479 
L 324.116248 150.170803 
L 325.321228 149.455121 
L 326.860925 148.300037 
L 329.053319 146.324086 
L 330.375451 144.835469 
L 332.718468 141.873701 
L 334.910862 138.688429 
L 338.559275 132.955619 
L 341.856235 127.938329 
L 344.751534 123.974323 
L 346.425118 121.534648 
L 347.094551 120.15147 
L 347.496212 118.828877 
L 347.747249 117.218439 
L 347.897872 114.854093 
L 347.981551 109.790625 
L 347.998287 105.511418 
L 348.048494 17.47763 
L 348.132173 17.80651 
L 348.249324 19.984644 
L 348.416683 28.466934 
L 348.851814 67.586891 
L 349.052644 90.703078 
L 349.220003 136.154693 
L 349.286946 135.772027 
L 350.508662 121.349909 
L 350.943794 113.04595 
L 351.010737 108.2934 
L 351.027473 102.113278 
L 351.077681 18.436605 
L 351.144624 19.001808 
L 351.295247 23.024948 
L 351.529548 36.119781 
L 352.115303 85.066347 
L 352.299397 135.64438 
L 352.433283 134.526197 
L 353.019038 127.796286 
L 353.738679 117.092741 
L 353.97298 111.438048 
L 354.023188 104.839825 
L 354.090131 18.605366 
L 354.157075 19.385875 
L 354.324433 24.493821 
L 354.592206 41.165982 
L 355.127753 88.876967 
L 355.295112 136.239839 
L 355.311847 136.224811 
L 355.412262 135.478321 
L 357.772015 111.683485 
L 357.838959 106.262545 
L 357.905902 18.510621 
L 358.039789 20.786338 
L 358.223883 29.77567 
L 358.692486 69.423581 
L 358.876581 90.213579 
L 359.043939 136.799983 
L 359.060675 136.823683 
L 359.077411 136.75186 
L 359.378656 134.484375 
L 360.181976 129.321926 
L 360.717523 127.164461 
L 361.152654 126.211392 
L 361.487371 125.924273 
L 361.77188 125.951134 
L 362.073125 126.22072 
L 362.474785 126.922943 
L 362.976861 128.295179 
L 363.612822 130.742446 
L 364.399407 134.7371 
L 365.503972 141.671024 
L 366.441179 146.965941 
L 367.010197 148.998975 
L 367.478801 149.941712 
L 367.930668 150.395639 
L 368.416008 150.563513 
L 369.001762 150.508962 
L 369.821818 150.17924 
L 371.311307 149.292734 
L 372.800797 148.133462 
L 374.876041 146.238995 
L 376.482681 144.385255 
L 378.65834 141.603982 
L 380.984621 138.183343 
L 389.603577 125.171991 
L 392.030273 121.759566 
L 392.749914 120.362802 
L 393.185046 119.03591 
L 393.452819 117.50364 
L 393.620178 115.177334 
L 393.703857 111.223759 
L 393.737329 102.549102 
L 393.787536 17.470565 
L 393.854479 17.717918 
L 393.954894 19.202806 
L 394.105517 25.516586 
L 394.390026 49.519842 
L 394.791686 92.963855 
L 394.942309 136.104243 
L 394.959045 136.154372 
L 394.992516 135.992263 
L 395.444384 131.54995 
L 396.113817 123.269393 
L 396.632628 114.403808 
L 396.733043 110.071471 
L 396.766515 98.962777 
L 396.816723 18.426017 
L 396.883666 19.045884 
L 397.051024 23.807793 
L 397.302062 38.811566 
L 397.87108 89.944228 
L 398.038439 135.604891 
L 398.105382 135.165302 
L 398.724608 128.188644 
L 399.494456 116.739957 
L 399.712022 111.322288 
L 399.76223 103.624899 
L 399.829173 18.61351 
L 399.879381 19.149229 
L 400.030003 23.22701 
L 400.281041 37.574587 
L 400.850059 85.462309 
L 401.034153 136.229958 
L 401.151304 135.442959 
L 403.393906 113.756624 
L 403.527793 111.071586 
L 403.578001 105.735508 
L 403.644944 18.510848 
L 403.745359 19.921997 
L 403.912717 26.759746 
L 404.213962 50.736687 
L 404.465 72.234603 
L 404.465 72.234603 
" clip-path="url(#pc4145fc3d6)" style="fill: none; stroke: #1f77b4; stroke-width: 1.5; stroke-linecap: square"/>
   </g>
   <g id="patch_3">
    <path d="M 53.03 157.24 
L 53.03 10.8 
" style="fill: none; stroke: #000000; stroke-width: 0.8; stroke-linejoin: miter; stroke-linecap: square"/>
   </g>
   <g id="patch_4">
    <path d="M 421.2 157.24 
L 421.2 10.8 
" style="fill: none; stroke: #000000; stroke-width: 0.8; stroke-linejoin: miter; stroke-linecap: square"/>
   </g>
   <g id="patch_5">
    <path d="M 53.03 157.24 
L 421.2 157.24 
" style="fill: none; stroke: #000000; stroke-width: 0.8; stroke-linejoin: miter; stroke-linecap: square"/>
   </g>
   <g id="patch_6">
    <path d="M 53.03 10.8 
L 421.2 10.8 
" style="fill: none; stroke: #000000; stroke-width: 0.8; stroke-linejoin: miter; stroke-linecap: square"/>
   </g>
   <g id="legend_1">
    <g id="patch_7">
     <path d="M 363.996875 92.998125 
L 414.2 92.998125 
Q 416.2 92.998125 416.2 90.998125 
L 416.2 77.041875 
Q 416.2 75.041875 414.2 75.041875 
L 363.996875 75.041875 
Q 361.996875 75.041875 361.996875 77.041875 
L 361.996875 90.998125 
Q 361.996875 92.998125 363.996875 92.998125 
z
" style="fill: #ffffff; opacity: 0.8; stroke: #cccccc; stroke-linejoin: miter"/>
    </g>
    <g id="line2d_15">
     <path d="M 365.996875 83.140312 
L 375.996875 83.140312 
L 385.996875 83.140312 
" style="fill: none; stroke: #1f77b4; stroke-width: 1.5; stroke-linecap: square"/>
    </g>
    <g id="text_16">
     <!-- V_0 -->
     <g transform="translate(393.996875 86.640312) scale(0.1 -0.1)">
      <defs>
       <path id="DejaVuSans-5f" d="M 3263 -1063 
L 3263 -1509 
L -63 -1509 
L -63 -1063 
L 3263 -1063 
z
" transform="scale(0.015625)"/>
      </defs>
      <use xlink:href="#DejaVuSans-56"/>
      <use xlink:href="#DejaVuSans-5f" transform="translate(68.408203 0)"/>
      <use xlink:href="#DejaVuSans-30" transform="translate(118.408203 0)"/>
     </g>
    </g>
   </g>
  </g>
  <g id="axes_2">
   <g id="patch_8">
    <path d="M 53.03 345.64 
L 421.2 345.64 
L 421.2 199.2 
L 53.03 199.2 
z
" style="fill: #ffffff"/>
   </g>
   <g id="matplotlib.axis_3">
    <g id="xtick_7">
     <g id="line2d_16">
      <g>
       <use xlink:href="#mee6ea76bb0" x="69.765" y="345.64" style="stroke: #000000; stroke-width: 0.8"/>
      </g>
     </g>
     <g id="text_17">
      <!-- 3000 -->
      <g transform="translate(57.04 360.238437) scale(0.1 -0.1)">
       <use xlink:href="#DejaVuSans-33"/>
       <use xlink:href="#DejaVuSans-30" transform="translate(63.623047 0)"/>
       <use xlink:href="#DejaVuSans-30" transform="translate(127.246094 0)"/>
       <use xlink:href="#DejaVuSans-30" transform="translate(190.869141 0)"/>
      </g>
     </g>
    </g>
    <g id="xtick_8">
     <g id="line2d_17">
      <g>
       <use xlink:href="#mee6ea76bb0" x="136.708347" y="345.64" style="stroke: #000000; stroke-width: 0.8"/>
      </g>
     </g>
     <g id="text_18">
      <!-- 3200 -->
      <g transform="translate(123.983347 360.238437) scale(0.1 -0.1)">
       <use xlink:href="#DejaVuSans-33"/>
       <use xlink:href="#DejaVuSans-32" transform="translate(63.623047 0)"/>
       <use xlink:href="#DejaVuSans-30" transform="translate(127.246094 0)"/>
       <use xlink:href="#DejaVuSans-30" transform="translate(190.869141 0)"/>
      </g>
     </g>
    </g>
    <g id="xtick_9">
     <g id="line2d_18">
      <g>
       <use xlink:href="#mee6ea76bb0" x="203.651694" y="345.64" style="stroke: #000000; stroke-width: 0.8"/>
      </g>
     </g>
     <g id="text_19">
      <!-- 3400 -->
      <g transform="translate(190.926694 360.238437) scale(0.1 -0.1)">
       <use xlink:href="#DejaVuSans-33"/>
       <use xlink:href="#DejaVuSans-34" transform="translate(63.623047 0)"/>
       <use xlink:href="#DejaVuSans-30" transform="translate(127.246094 0)"/>
       <use xlink:href="#DejaVuSans-30" transform="translate(190.869141 0)"/>
      </g>
     </g>
    </g>
    <g id="xtick_10">
     <g id="line2d_19">
      <g>
       <use xlink:href="#mee6ea76bb0" x="270.595042" y="345.64" style="stroke: #000000; stroke-width: 0.8"/>
      </g>
     </g>
     <g id="text_20">
      <!-- 3600 -->
      <g transform="translate(257.870042 360.238437) scale(0.1 -0.1)">
       <use xlink:href="#DejaVuSans-33"/>
       <use xlink:href="#DejaVuSans-36" transform="translate(63.623047 0)"/>
       <use xlink:href="#DejaVuSans-30" transform="translate(127.246094 0)"/>
       <use xlink:href="#DejaVuSans-30" transform="translate(190.869141 0)"/>
      </g>
     </g>
    </g>
    <g id="xtick_11">
     <g id="line2d_20">
      <g>
       <use xlink:href="#mee6ea76bb0" x="337.538389" y="345.64" style="stroke: #000000; stroke-width: 0.8"/>
      </g>
     </g>
     <g id="text_21">
      <!-- 3800 -->
      <g transform="translate(324.813389 360.238437) scale(0.1 -0.1)">
       <use xlink:href="#DejaVuSans-33"/>
       <use xlink:href="#DejaVuSans-38" transform="translate(63.623047 0)"/>
       <use xlink:href="#DejaVuSans-30" transform="translate(127.246094 0)"/>
       <use xlink:href="#DejaVuSans-30" transform="translate(190.869141 0)"/>
      </g>
     </g>
    </g>
    <g id="xtick_12">
     <g id="line2d_21">
      <g>
       <use xlink:href="#mee6ea76bb0" x="404.481736" y="345.64" style="stroke: #000000; stroke-width: 0.8"/>
      </g>
     </g>
     <g id="text_22">
      <!-- 4000 -->
      <g transform="translate(391.756736 360.238437) scale(0.1 -0.1)">
       <use xlink:href="#DejaVuSans-34"/>
       <use xlink:href="#DejaVuSans-30" transform="translate(63.623047 0)"/>
       <use xlink:href="#DejaVuSans-30" transform="translate(127.246094 0)"/>
       <use xlink:href="#DejaVuSans-30" transform="translate(190.869141 0)"/>
      </g>
     </g>
    </g>
    <g id="text_23">
     <!-- Time (ms) -->
     <g transform="translate(211.915781 373.916562) scale(0.1 -0.1)">
      <use xlink:href="#DejaVuSans-54"/>
      <use xlink:href="#DejaVuSans-69" transform="translate(57.958984 0)"/>
      <use xlink:href="#DejaVuSans-6d" transform="translate(85.742188 0)"/>
      <use xlink:href="#DejaVuSans-65" transform="translate(183.154297 0)"/>
      <use xlink:href="#DejaVuSans-20" transform="translate(244.677734 0)"/>
      <use xlink:href="#DejaVuSans-28" transform="translate(276.464844 0)"/>
      <use xlink:href="#DejaVuSans-6d" transform="translate(315.478516 0)"/>
      <use xlink:href="#DejaVuSans-73" transform="translate(412.890625 0)"/>
      <use xlink:href="#DejaVuSans-29" transform="translate(464.990234 0)"/>
     </g>
    </g>
   </g>
   <g id="matplotlib.axis_4">
    <g id="ytick_8">
     <g id="line2d_22">
      <g>
       <use xlink:href="#m274e418b6a" x="53.03" y="343.699043" style="stroke: #000000; stroke-width: 0.8"/>
      </g>
     </g>
     <g id="text_24">
      <!-- −80 -->
      <g transform="translate(24.925313 347.498262) scale(0.1 -0.1)">
       <use xlink:href="#DejaVuSans-2212"/>
       <use xlink:href="#DejaVuSans-38" transform="translate(83.789062 0)"/>
       <use xlink:href="#DejaVuSans-30" transform="translate(147.412109 0)"/>
      </g>
     </g>
    </g>
    <g id="ytick_9">
     <g id="line2d_23">
      <g>
       <use xlink:href="#m274e418b6a" x="53.03" y="322.486705" style="stroke: #000000; stroke-width: 0.8"/>
      </g>
     </g>
     <g id="text_25">
      <!-- −60 -->
      <g transform="translate(24.925313 326.285924) scale(0.1 -0.1)">
       <use xlink:href="#DejaVuSans-2212"/>
       <use xlink:href="#DejaVuSans-36" transform="translate(83.789062 0)"/>
       <use xlink:href="#DejaVuSans-30" transform="translate(147.412109 0)"/>
      </g>
     </g>
    </g>
    <g id="ytick_10">
     <g id="line2d_24">
      <g>
       <use xlink:href="#m274e418b6a" x="53.03" y="301.274367" style="stroke: #000000; stroke-width: 0.8"/>
      </g>
     </g>
     <g id="text_26">
      <!-- −40 -->
      <g transform="translate(24.925313 305.073586) scale(0.1 -0.1)">
       <use xlink:href="#DejaVuSans-2212"/>
       <use xlink:href="#DejaVuSans-34" transform="translate(83.789062 0)"/>
       <use xlink:href="#DejaVuSans-30" transform="translate(147.412109 0)"/>
      </g>
     </g>
    </g>
    <g id="ytick_11">
     <g id="line2d_25">
      <g>
       <use xlink:href="#m274e418b6a" x="53.03" y="280.062029" style="stroke: #000000; stroke-width: 0.8"/>
      </g>
     </g>
     <g id="text_27">
      <!-- −20 -->
      <g transform="translate(24.925313 283.861248) scale(0.1 -0.1)">
       <use xlink:href="#DejaVuSans-2212"/>
       <use xlink:href="#DejaVuSans-32" transform="translate(83.789062 0)"/>
       <use xlink:href="#DejaVuSans-30" transform="translate(147.412109 0)"/>
      </g>
     </g>
    </g>
    <g id="ytick_12">
     <g id="line2d_26">
      <g>
       <use xlink:href="#m274e418b6a" x="53.03" y="258.849691" style="stroke: #000000; stroke-width: 0.8"/>
      </g>
     </g>
     <g id="text_28">
      <!-- 0 -->
      <g transform="translate(39.6675 262.64891) scale(0.1 -0.1)">
       <use xlink:href="#DejaVuSans-30"/>
      </g>
     </g>
    </g>
    <g id="ytick_13">
     <g id="line2d_27">
      <g>
       <use xlink:href="#m274e418b6a" x="53.03" y="237.637353" style="stroke: #000000; stroke-width: 0.8"/>
      </g>
     </g>
     <g id="text_29">
      <!-- 20 -->
      <g transform="translate(33.305 241.436572) scale(0.1 -0.1)">
       <use xlink:href="#DejaVuSans-32"/>
       <use xlink:href="#DejaVuSans-30" transform="translate(63.623047 0)"/>
      </g>
     </g>
    </g>
    <g id="ytick_14">
     <g id="line2d_28">
      <g>
       <use xlink:href="#m274e418b6a" x="53.03" y="216.425015" style="stroke: #000000; stroke-width: 0.8"/>
      </g>
     </g>
     <g id="text_30">
      <!-- 40 -->
      <g transform="translate(33.305 220.224233) scale(0.1 -0.1)">
       <use xlink:href="#DejaVuSans-34"/>
       <use xlink:href="#DejaVuSans-30" transform="translate(63.623047 0)"/>
      </g>
     </g>
    </g>
    <g id="text_31">
     <!-- V (mV) -->
     <g transform="translate(18.845625 289.621562) rotate(-90) scale(0.1 -0.1)">
      <use xlink:href="#DejaVuSans-56"/>
      <use xlink:href="#DejaVuSans-20" transform="translate(68.408203 0)"/>
      <use xlink:href="#DejaVuSans-28" transform="translate(100.195312 0)"/>
      <use xlink:href="#DejaVuSans-6d" transform="translate(139.208984 0)"/>
      <use xlink:href="#DejaVuSans-56" transform="translate(236.621094 0)"/>
      <use xlink:href="#DejaVuSans-29" transform="translate(305.029297 0)"/>
     </g>
    </g>
   </g>
   <g id="line2d_29">
    <path d="M 69.765 213.42432 
L 70.032773 231.516585 
L 70.518113 277.634859 
L 70.702207 326.188912 
L 70.718943 326.171544 
L 71.020188 324.082491 
L 71.7733 317.698428 
L 72.375791 310.537357 
L 72.844394 302.792038 
L 72.944809 297.623443 
L 72.961545 293.573539 
L 73.028488 206.848434 
L 73.095432 207.570327 
L 73.26279 212.535921 
L 73.513827 228.178115 
L 74.049374 278.571184 
L 74.233468 326.240198 
L 74.300412 325.930673 
L 75.973995 313.173521 
L 76.978146 302.89101 
L 77.095297 299.834998 
L 77.145504 291.363634 
L 77.212447 206.79153 
L 77.262655 207.296242 
L 77.396542 210.869062 
L 77.614107 223.874585 
L 78.16639 274.71724 
L 78.36722 326.704633 
L 78.450899 326.362578 
L 79.588936 320.787143 
L 80.358785 318.201893 
L 81.011482 316.709411 
L 81.480086 316.10704 
L 81.848274 315.952779 
L 82.166255 316.042841 
L 82.517708 316.387606 
L 82.952839 317.170136 
L 83.488386 318.635143 
L 84.15782 321.156165 
L 84.977876 325.182035 
L 87.187006 336.618572 
L 87.722553 337.99064 
L 88.191156 338.64362 
L 88.626288 338.913177 
L 89.111627 338.962186 
L 89.730853 338.788683 
L 90.617853 338.286073 
L 92.006927 337.207317 
L 93.56336 335.739486 
L 95.404302 333.693692 
L 97.345659 331.204659 
L 99.75562 327.719637 
L 103.65507 321.628695 
L 106.918558 316.71498 
L 109.947744 312.59411 
L 111.554384 310.255375 
L 112.223818 308.892589 
L 112.65895 307.490848 
L 112.926723 305.841277 
L 113.094081 303.188138 
L 113.177761 297.627978 
L 113.194496 292.389265 
L 113.244704 205.888209 
L 113.328383 206.32462 
L 113.445534 208.8762 
L 113.629628 219.595468 
L 114.165175 271.267553 
L 114.215383 289.276516 
L 114.349269 326.9929 
L 114.382741 327.259904 
L 114.449684 327.026754 
L 115.236269 321.937484 
L 115.87223 316.572163 
L 116.441249 309.688079 
L 116.826173 302.706637 
L 116.909852 297.266626 
L 116.926588 291.536497 
L 116.976796 206.602853 
L 117.043739 207.103684 
L 117.194361 210.900442 
L 117.428663 224.166246 
L 117.980946 272.179133 
L 118.031153 295.283367 
L 118.16504 326.084502 
L 118.198512 326.184162 
L 118.248719 325.940356 
L 118.918153 320.852457 
L 119.554114 314.489681 
L 120.190076 305.620243 
L 120.390906 300.814485 
L 120.441114 296.120887 
L 120.45785 286.966409 
L 120.508057 206.852734 
L 120.575001 207.442336 
L 120.725623 211.524181 
L 120.959925 225.032924 
L 121.512207 272.902667 
L 121.562415 300.103928 
L 121.696302 326.145732 
L 121.713037 326.232463 
L 121.763245 326.076014 
L 122.432678 321.490347 
L 123.353149 314.144512 
L 124.424243 303.446732 
L 124.574865 300.034226 
L 124.625073 293.757724 
L 124.692016 206.779921 
L 124.775696 207.788354 
L 124.943054 213.681735 
L 125.210827 233.360348 
L 125.662695 277.743341 
L 125.846789 326.69754 
L 125.863525 326.69349 
L 126.014147 325.909965 
L 126.917883 321.408768 
L 127.704467 318.602531 
L 128.3739 316.925471 
L 128.892711 316.150454 
L 129.277636 315.920172 
L 129.595617 315.968947 
L 129.930333 316.248638 
L 130.348729 316.926453 
L 130.86754 318.237742 
L 131.503502 320.495544 
L 132.290086 324.171727 
L 133.645689 331.849541 
L 134.482481 335.872235 
L 135.051499 337.625955 
L 135.536839 338.475252 
L 135.988706 338.852461 
L 136.474045 338.960822 
L 137.043064 338.854236 
L 137.812912 338.473388 
L 139.034628 337.588353 
L 140.658005 336.136807 
L 142.549154 334.1032 
L 144.45704 331.733171 
L 146.682906 328.563402 
L 150.113752 323.256545 
L 154.130353 317.112374 
L 157.042389 313.125968 
L 159.017218 310.30339 
L 159.703387 308.922441 
L 160.138519 307.526736 
L 160.406292 305.880208 
L 160.57365 303.326324 
L 160.65733 298.398625 
L 160.690801 271.079164 
L 160.724273 205.89067 
L 160.807952 206.273214 
L 160.925103 208.714565 
L 161.092461 217.899803 
L 161.594536 265.064836 
L 161.694951 285.213567 
L 161.828838 326.906766 
L 161.879046 327.274335 
L 161.929253 327.071708 
L 162.732573 321.87444 
L 163.301592 317.15449 
L 163.853874 310.745619 
L 164.289006 303.456902 
L 164.389421 298.558531 
L 164.422893 278.82135 
L 164.4731 206.582635 
L 164.540044 207.214213 
L 164.690666 211.195572 
L 164.924968 224.73604 
L 165.477251 273.3863 
L 165.544194 312.80161 
L 165.678081 326.190273 
L 165.694816 326.154336 
L 165.862175 325.059066 
L 166.698967 318.191145 
L 167.301457 311.205626 
L 167.820268 302.790803 
L 167.920683 297.71569 
L 167.937419 293.936054 
L 168.004362 206.837085 
L 168.088041 207.857953 
L 168.2554 213.249448 
L 168.523173 230.821677 
L 169.025248 278.610412 
L 169.209342 326.240644 
L 169.326493 325.620095 
L 169.945719 321.319837 
L 170.882926 313.777339 
L 171.920548 303.356713 
L 172.07117 299.650692 
L 172.121378 289.34256 
L 172.171585 206.790594 
L 172.238529 207.336834 
L 172.389151 211.664813 
L 172.623453 226.779686 
L 173.159 280.563864 
L 173.326358 326.667092 
L 173.343094 326.706021 
L 173.376566 326.616789 
L 175.100357 318.900628 
L 175.803262 317.06257 
L 176.338809 316.216751 
L 176.740469 315.952631 
L 177.075186 315.992843 
L 177.409902 316.271426 
L 177.811562 316.910913 
L 178.330373 318.202753 
L 178.966335 320.437102 
L 179.736184 324.010228 
L 180.991371 331.120711 
L 181.895107 335.636305 
L 182.480861 337.520962 
L 182.9662 338.417527 
L 183.434803 338.836065 
L 183.903407 338.961693 
L 184.472425 338.881591 
L 185.25901 338.506525 
L 186.514197 337.617613 
L 187.836329 336.432926 
L 190.329968 333.798767 
L 191.919873 331.746523 
L 194.547399 328.006381 
L 198.011717 322.604242 
L 201.643394 317.079765 
L 204.47175 313.208986 
L 206.312692 310.607953 
L 207.049069 309.227516 
L 207.517673 307.891398 
L 207.835654 306.249075 
L 208.019748 303.972873 
L 208.120163 299.7275 
L 208.153634 291.990434 
L 208.203842 205.893719 
L 208.270785 206.179994 
L 208.3712 207.868622 
L 208.538559 215.921105 
L 208.890011 248.592446 
L 209.157785 279.036591 
L 209.325143 327.24277 
L 209.341879 327.274764 
L 209.392086 327.140877 
L 210.245614 321.595859 
L 210.881576 316.103156 
L 211.450594 309.03682 
L 211.802047 302.344434 
L 211.86899 298.128209 
L 211.885726 294.406401 
L 211.952669 206.593353 
L 212.036349 207.540221 
L 212.203707 212.740608 
L 212.47148 230.274479 
L 212.973555 278.350926 
L 213.15765 326.189841 
L 213.241329 325.745431 
L 213.977706 320.036008 
L 214.596932 313.562644 
L 215.216158 304.554302 
L 215.383516 299.30954 
L 215.416988 293.523194 
L 215.483931 206.842444 
L 215.550874 207.577549 
L 215.718233 212.555343 
L 215.96927 228.229587 
L 216.504817 279.161625 
L 216.672175 326.216387 
L 216.688911 326.241047 
L 216.722383 326.123465 
L 217.508967 320.705531 
L 218.412702 313.297594 
L 219.433588 302.804013 
L 219.550739 299.365665 
L 219.584211 295.249195 
L 219.651154 206.780446 
L 219.801777 209.35649 
L 219.985871 218.324384 
L 220.404267 254.024367 
L 220.621833 276.483896 
L 220.822663 326.713346 
L 220.839399 326.68875 
L 221.023493 325.659055 
L 221.860285 321.514731 
L 222.646869 318.67675 
L 223.333038 316.944981 
L 223.851849 316.168189 
L 224.236774 315.934822 
L 224.554754 315.979035 
L 224.889471 316.261491 
L 225.307867 316.941725 
L 225.843414 318.295683 
L 226.496112 320.619217 
L 227.26596 324.250921 
L 229.826543 337.149485 
L 230.328618 338.233799 
L 230.797222 338.760114 
L 231.249089 338.950249 
L 231.784636 338.917932 
L 232.504277 338.625256 
L 233.575371 337.9204 
L 235.031388 336.694696 
L 236.788651 334.900954 
L 238.796952 332.55568 
L 240.872195 329.69177 
L 243.817703 325.237136 
L 249.507887 316.517859 
L 252.687696 312.20612 
L 254.043299 310.175635 
L 254.712732 308.784344 
L 255.131128 307.359539 
L 255.382166 305.702459 
L 255.532788 303.269 
L 255.616468 298.161213 
L 255.633203 294.051953 
L 255.683411 205.883883 
L 255.783826 206.47764 
L 255.900977 209.371246 
L 256.085071 220.698936 
L 256.620618 273.542364 
L 256.821448 327.272466 
L 256.938599 326.764261 
L 258.076636 318.825227 
L 258.645654 312.893676 
L 259.181201 304.912377 
L 259.331823 299.975276 
L 259.365295 295.046101 
L 259.432238 206.598069 
L 259.532653 207.82334 
L 259.700012 213.427962 
L 259.967785 231.509997 
L 260.453124 277.921032 
L 260.637219 326.197295 
L 260.720898 325.7559 
L 261.457275 320.03324 
L 262.076501 313.557914 
L 262.695727 304.52918 
L 262.846349 300.245498 
L 262.896557 292.443553 
L 262.9635 206.850407 
L 263.030443 207.61438 
L 263.197802 212.648513 
L 263.448839 228.390056 
L 263.984386 279.599909 
L 264.151744 326.2099 
L 264.16848 326.231693 
L 264.201952 326.108771 
L 264.854649 321.655587 
L 265.808592 314.044047 
L 266.86295 303.514239 
L 267.013572 300.19162 
L 267.06378 295.01923 
L 267.130723 206.781333 
L 267.26461 208.89416 
L 267.448704 217.312869 
L 267.816893 248.25576 
L 268.118138 283.876042 
L 268.26876 326.592232 
L 268.302232 326.70566 
L 268.352439 326.518467 
L 269.172495 322.231119 
L 269.942344 319.242651 
L 270.661985 317.255955 
L 271.214267 316.301726 
L 271.632663 315.975095 
L 271.96738 315.972037 
L 272.302097 316.205934 
L 272.687021 316.767478 
L 273.189096 317.938476 
L 273.808322 320.006998 
L 274.561435 323.363907 
L 275.632528 329.314224 
L 276.770565 335.31451 
L 277.373055 337.396347 
L 277.875131 338.396187 
L 278.293526 338.809994 
L 278.745394 338.972979 
L 279.297677 338.915233 
L 280.017318 338.623479 
L 281.088411 337.880693 
L 282.929353 336.311031 
L 285.021333 334.069313 
L 286.828803 331.801146 
L 289.238764 328.392788 
L 292.435309 323.432533 
L 296.468645 317.258237 
L 299.26353 313.416164 
L 301.405717 310.372832 
L 302.125358 308.924622 
L 302.56049 307.562384 
L 302.828263 305.94592 
L 302.995622 303.575623 
L 303.079301 299.607758 
L 303.112772 291.407995 
L 303.146244 205.88619 
L 303.229923 206.183935 
L 303.330338 207.888191 
L 303.497697 215.980957 
L 303.849149 248.654455 
L 304.116923 279.29728 
L 304.284281 327.223084 
L 304.301017 327.27746 
L 304.351224 327.141024 
L 305.288431 320.962659 
L 305.890921 315.55307 
L 306.45994 308.246756 
L 306.761185 302.263794 
L 306.828128 297.89699 
L 306.844864 293.76573 
L 306.911807 206.598945 
L 306.978751 207.286469 
L 307.129373 211.396514 
L 307.363675 225.139912 
L 307.915958 274.568384 
L 308.116788 326.185385 
L 308.200467 325.730207 
L 308.970315 319.70291 
L 309.589541 313.09165 
L 310.192031 304.131708 
L 310.342654 298.791262 
L 310.376126 289.879311 
L 310.426333 206.854647 
L 310.493276 207.405968 
L 310.643899 211.430842 
L 310.878201 224.850256 
L 311.430483 272.677028 
L 311.480691 298.035162 
L 311.614577 326.120418 
L 311.648049 326.234533 
L 311.698257 325.989336 
L 312.133388 323.026702 
L 313.204482 314.741439 
L 314.275576 304.262299 
L 314.476406 300.598627 
L 314.526613 296.971248 
L 314.543349 292.330982 
L 314.610292 206.793404 
L 314.677236 207.53699 
L 314.827858 212.212071 
L 315.078896 229.232706 
L 315.580971 278.739772 
L 315.765065 326.697562 
L 315.815273 326.551148 
L 317.120668 320.260627 
L 317.890516 317.807085 
L 318.509742 316.503371 
L 318.978346 315.980663 
L 319.329798 315.884462 
L 319.647779 316.023481 
L 320.015968 316.457762 
L 320.484571 317.385908 
L 321.053589 319.068847 
L 321.756495 321.909871 
L 322.643494 326.503099 
L 324.417493 335.922378 
L 324.969775 337.618189 
L 325.455115 338.464142 
L 325.923718 338.851618 
L 326.35885 338.947605 
L 326.927868 338.860456 
L 327.680981 338.500605 
L 328.885961 337.640427 
L 330.308507 336.384461 
L 332.584581 333.969285 
L 334.224693 331.901297 
L 336.701597 328.416892 
L 339.797727 323.613885 
L 343.96495 317.234595 
L 346.776571 313.368606 
L 348.818343 310.485862 
L 349.554719 309.072253 
L 350.006587 307.744622 
L 350.291096 306.204789 
L 350.475191 303.890067 
L 350.575606 299.311468 
L 350.609077 288.831025 
L 350.642549 205.877475 
L 350.726228 206.211177 
L 350.826643 207.97599 
L 350.994001 216.18158 
L 351.36219 250.541682 
L 351.613227 280.469206 
L 351.76385 327.10392 
L 351.797322 327.260462 
L 351.847529 327.097566 
L 352.851679 320.399786 
L 353.437434 314.930502 
L 354.023188 307.122299 
L 354.25749 301.986746 
L 354.324433 296.343422 
L 354.341169 287.016195 
L 354.391376 206.589089 
L 354.45832 207.163674 
L 354.608942 211.061545 
L 354.843244 224.471502 
L 355.395527 272.866393 
L 355.445734 300.447469 
L 355.579621 326.115571 
L 355.613092 326.176507 
L 355.646564 326.004045 
L 356.215583 321.781154 
L 356.86828 315.58531 
L 357.487506 307.409562 
L 357.788751 301.31316 
L 357.855695 294.873801 
L 357.922638 206.838947 
L 358.023053 208.146353 
L 358.207147 214.751368 
L 358.508392 236.198745 
L 358.943524 277.498683 
L 359.127618 326.223541 
L 359.144354 326.209538 
L 359.428863 324.360244 
L 360.650579 315.12079 
L 361.738409 304.571054 
L 361.955975 300.956198 
L 362.022918 295.562559 
L 362.089861 206.782382 
L 362.273955 210.450569 
L 362.491521 223.009382 
L 363.043804 272.719327 
L 363.094011 298.217456 
L 363.227898 326.554485 
L 363.26137 326.706988 
L 363.311577 326.524122 
L 364.483086 320.769489 
L 365.252934 318.198195 
L 365.888896 316.759886 
L 366.374235 316.144537 
L 366.742424 315.993294 
L 367.060405 316.093191 
L 367.411857 316.459971 
L 367.846989 317.251255 
L 368.382536 318.724447 
L 369.051969 321.275964 
L 369.888761 325.420487 
L 372.014212 336.502491 
L 372.549759 337.93707 
L 373.018363 338.623684 
L 373.486966 338.928068 
L 374.005777 338.975028 
L 374.658475 338.778958 
L 375.545474 338.258979 
L 377.051699 337.0762 
L 378.65834 335.522583 
L 380.633168 333.287654 
L 382.47411 330.877822 
L 385.135109 326.979111 
L 393.402612 314.5162 
L 396.398327 310.321052 
L 397.134703 308.830994 
L 397.553099 307.464854 
L 397.820873 305.800871 
L 397.971495 303.54453 
L 398.055175 299.460234 
L 398.088646 290.141263 
L 398.122118 205.856364 
L 398.205797 206.198214 
L 398.306212 207.934004 
L 398.47357 216.087349 
L 398.841759 250.411885 
L 399.092796 279.93977 
L 399.260155 327.24017 
L 399.310362 327.239801 
L 399.327098 327.153936 
L 399.728758 324.628197 
L 400.532078 318.747652 
L 401.101097 312.777201 
L 401.636644 304.70207 
L 401.77053 300.382929 
L 401.820738 288.37808 
L 401.870945 206.588628 
L 401.937889 207.150535 
L 402.088511 211.03117 
L 402.322813 224.414842 
L 402.875096 272.725582 
L 402.925303 299.799254 
L 403.05919 326.112331 
L 403.075926 326.187438 
L 403.126133 326.029096 
L 404.046604 318.699847 
L 404.465 314.223827 
L 404.465 314.223827 
" clip-path="url(#p506a4217be)" style="fill: none; stroke: #1f77b4; stroke-width: 1.5; stroke-linecap: square"/>
   </g>
   <g id="patch_9">
    <path d="M 53.03 345.64 
L 53.03 199.2 
" style="fill: none; stroke: #000000; stroke-width: 0.8; stroke-linejoin: miter; stroke-linecap: square"/>
   </g>
   <g id="patch_10">
    <path d="M 421.2 345.64 
L 421.2 199.2 
" style="fill: none; stroke: #000000; stroke-width: 0.8; stroke-linejoin: miter; stroke-linecap: square"/>
   </g>
   <g id="patch_11">
    <path d="M 53.03 345.64 
L 421.2 345.64 
" style="fill: none; stroke: #000000; stroke-width: 0.8; stroke-linejoin: miter; stroke-linecap: square"/>
   </g>
   <g id="patch_12">
    <path d="M 53.03 199.2 
L 421.2 199.2 
" style="fill: none; stroke: #000000; stroke-width: 0.8; stroke-linejoin: miter; stroke-linecap: square"/>
   </g>
   <g id="legend_2">
    <g id="patch_13">
     <path d="M 363.996875 281.398125 
L 414.2 281.398125 
Q 416.2 281.398125 416.2 279.398125 
L 416.2 265.441875 
Q 416.2 263.441875 414.2 263.441875 
L 363.996875 263.441875 
Q 361.996875 263.441875 361.996875 265.441875 
L 361.996875 279.398125 
Q 361.996875 281.398125 363.996875 281.398125 
z
" style="fill: #ffffff; opacity: 0.8; stroke: #cccccc; stroke-linejoin: miter"/>
    </g>
    <g id="line2d_30">
     <path d="M 365.996875 271.540312 
L 375.996875 271.540312 
L 385.996875 271.540312 
" style="fill: none; stroke: #1f77b4; stroke-width: 1.5; stroke-linecap: square"/>
    </g>
    <g id="text_32">
     <!-- V_1 -->
     <g transform="translate(393.996875 275.040312) scale(0.1 -0.1)">
      <defs>
       <path id="DejaVuSans-31" d="M 794 531 
L 1825 531 
L 1825 4091 
L 703 3866 
L 703 4441 
L 1819 4666 
L 2450 4666 
L 2450 531 
L 3481 531 
L 3481 0 
L 794 0 
L 794 531 
z
" transform="scale(0.015625)"/>
      </defs>
      <use xlink:href="#DejaVuSans-56"/>
      <use xlink:href="#DejaVuSans-5f" transform="translate(68.408203 0)"/>
      <use xlink:href="#DejaVuSans-31" transform="translate(118.408203 0)"/>
     </g>
    </g>
   </g>
  </g>
  <g id="axes_3">
   <g id="patch_14">
    <path d="M 53.03 534.04 
L 421.2 534.04 
L 421.2 387.6 
L 53.03 387.6 
z
" style="fill: #ffffff"/>
   </g>
   <g id="matplotlib.axis_5">
    <g id="xtick_13">
     <g id="line2d_31">
      <g>
       <use xlink:href="#mee6ea76bb0" x="69.765" y="534.04" style="stroke: #000000; stroke-width: 0.8"/>
      </g>
     </g>
     <g id="text_33">
      <!-- 3000 -->
      <g transform="translate(57.04 548.638438) scale(0.1 -0.1)">
       <use xlink:href="#DejaVuSans-33"/>
       <use xlink:href="#DejaVuSans-30" transform="translate(63.623047 0)"/>
       <use xlink:href="#DejaVuSans-30" transform="translate(127.246094 0)"/>
       <use xlink:href="#DejaVuSans-30" transform="translate(190.869141 0)"/>
      </g>
     </g>
    </g>
    <g id="xtick_14">
     <g id="line2d_32">
      <g>
       <use xlink:href="#mee6ea76bb0" x="136.708347" y="534.04" style="stroke: #000000; stroke-width: 0.8"/>
      </g>
     </g>
     <g id="text_34">
      <!-- 3200 -->
      <g transform="translate(123.983347 548.638438) scale(0.1 -0.1)">
       <use xlink:href="#DejaVuSans-33"/>
       <use xlink:href="#DejaVuSans-32" transform="translate(63.623047 0)"/>
       <use xlink:href="#DejaVuSans-30" transform="translate(127.246094 0)"/>
       <use xlink:href="#DejaVuSans-30" transform="translate(190.869141 0)"/>
      </g>
     </g>
    </g>
    <g id="xtick_15">
     <g id="line2d_33">
      <g>
       <use xlink:href="#mee6ea76bb0" x="203.651694" y="534.04" style="stroke: #000000; stroke-width: 0.8"/>
      </g>
     </g>
     <g id="text_35">
      <!-- 3400 -->
      <g transform="translate(190.926694 548.638438) scale(0.1 -0.1)">
       <use xlink:href="#DejaVuSans-33"/>
       <use xlink:href="#DejaVuSans-34" transform="translate(63.623047 0)"/>
       <use xlink:href="#DejaVuSans-30" transform="translate(127.246094 0)"/>
       <use xlink:href="#DejaVuSans-30" transform="translate(190.869141 0)"/>
      </g>
     </g>
    </g>
    <g id="xtick_16">
     <g id="line2d_34">
      <g>
       <use xlink:href="#mee6ea76bb0" x="270.595042" y="534.04" style="stroke: #000000; stroke-width: 0.8"/>
      </g>
     </g>
     <g id="text_36">
      <!-- 3600 -->
      <g transform="translate(257.870042 548.638438) scale(0.1 -0.1)">
       <use xlink:href="#DejaVuSans-33"/>
       <use xlink:href="#DejaVuSans-36" transform="translate(63.623047 0)"/>
       <use xlink:href="#DejaVuSans-30" transform="translate(127.246094 0)"/>
       <use xlink:href="#DejaVuSans-30" transform="translate(190.869141 0)"/>
      </g>
     </g>
    </g>
    <g id="xtick_17">
     <g id="line2d_35">
      <g>
       <use xlink:href="#mee6ea76bb0" x="337.538389" y="534.04" style="stroke: #000000; stroke-width: 0.8"/>
      </g>
     </g>
     <g id="text_37">
      <!-- 3800 -->
      <g transform="translate(324.813389 548.638438) scale(0.1 -0.1)">
       <use xlink:href="#DejaVuSans-33"/>
       <use xlink:href="#DejaVuSans-38" transform="translate(63.623047 0)"/>
       <use xlink:href="#DejaVuSans-30" transform="translate(127.246094 0)"/>
       <use xlink:href="#DejaVuSans-30" transform="translate(190.869141 0)"/>
      </g>
     </g>
    </g>
    <g id="xtick_18">
     <g id="line2d_36">
      <g>
       <use xlink:href="#mee6ea76bb0" x="404.481736" y="534.04" style="stroke: #000000; stroke-width: 0.8"/>
      </g>
     </g>
     <g id="text_38">
      <!-- 4000 -->
      <g transform="translate(391.756736 548.638438) scale(0.1 -0.1)">
       <use xlink:href="#DejaVuSans-34"/>
       <use xlink:href="#DejaVuSans-30" transform="translate(63.623047 0)"/>
       <use xlink:href="#DejaVuSans-30" transform="translate(127.246094 0)"/>
       <use xlink:href="#DejaVuSans-30" transform="translate(190.869141 0)"/>
      </g>
     </g>
    </g>
    <g id="text_39">
     <!-- Time (ms) -->
     <g transform="translate(211.915781 562.316562) scale(0.1 -0.1)">
      <use xlink:href="#DejaVuSans-54"/>
      <use xlink:href="#DejaVuSans-69" transform="translate(57.958984 0)"/>
      <use xlink:href="#DejaVuSans-6d" transform="translate(85.742188 0)"/>
      <use xlink:href="#DejaVuSans-65" transform="translate(183.154297 0)"/>
      <use xlink:href="#DejaVuSans-20" transform="translate(244.677734 0)"/>
      <use xlink:href="#DejaVuSans-28" transform="translate(276.464844 0)"/>
      <use xlink:href="#DejaVuSans-6d" transform="translate(315.478516 0)"/>
      <use xlink:href="#DejaVuSans-73" transform="translate(412.890625 0)"/>
      <use xlink:href="#DejaVuSans-29" transform="translate(464.990234 0)"/>
     </g>
    </g>
   </g>
   <g id="matplotlib.axis_6">
    <g id="ytick_15">
     <g id="line2d_37">
      <g>
       <use xlink:href="#m274e418b6a" x="53.03" y="512.592196" style="stroke: #000000; stroke-width: 0.8"/>
      </g>
     </g>
     <g id="text_40">
      <!-- −60 -->
      <g transform="translate(24.925313 516.391415) scale(0.1 -0.1)">
       <use xlink:href="#DejaVuSans-2212"/>
       <use xlink:href="#DejaVuSans-36" transform="translate(83.789062 0)"/>
       <use xlink:href="#DejaVuSans-30" transform="translate(147.412109 0)"/>
      </g>
     </g>
    </g>
    <g id="ytick_16">
     <g id="line2d_38">
      <g>
       <use xlink:href="#m274e418b6a" x="53.03" y="491.067737" style="stroke: #000000; stroke-width: 0.8"/>
      </g>
     </g>
     <g id="text_41">
      <!-- −40 -->
      <g transform="translate(24.925313 494.866956) scale(0.1 -0.1)">
       <use xlink:href="#DejaVuSans-2212"/>
       <use xlink:href="#DejaVuSans-34" transform="translate(83.789062 0)"/>
       <use xlink:href="#DejaVuSans-30" transform="translate(147.412109 0)"/>
      </g>
     </g>
    </g>
    <g id="ytick_17">
     <g id="line2d_39">
      <g>
       <use xlink:href="#m274e418b6a" x="53.03" y="469.543278" style="stroke: #000000; stroke-width: 0.8"/>
      </g>
     </g>
     <g id="text_42">
      <!-- −20 -->
      <g transform="translate(24.925313 473.342497) scale(0.1 -0.1)">
       <use xlink:href="#DejaVuSans-2212"/>
       <use xlink:href="#DejaVuSans-32" transform="translate(83.789062 0)"/>
       <use xlink:href="#DejaVuSans-30" transform="translate(147.412109 0)"/>
      </g>
     </g>
    </g>
    <g id="ytick_18">
     <g id="line2d_40">
      <g>
       <use xlink:href="#m274e418b6a" x="53.03" y="448.018819" style="stroke: #000000; stroke-width: 0.8"/>
      </g>
     </g>
     <g id="text_43">
      <!-- 0 -->
      <g transform="translate(39.6675 451.818038) scale(0.1 -0.1)">
       <use xlink:href="#DejaVuSans-30"/>
      </g>
     </g>
    </g>
    <g id="ytick_19">
     <g id="line2d_41">
      <g>
       <use xlink:href="#m274e418b6a" x="53.03" y="426.49436" style="stroke: #000000; stroke-width: 0.8"/>
      </g>
     </g>
     <g id="text_44">
      <!-- 20 -->
      <g transform="translate(33.305 430.293579) scale(0.1 -0.1)">
       <use xlink:href="#DejaVuSans-32"/>
       <use xlink:href="#DejaVuSans-30" transform="translate(63.623047 0)"/>
      </g>
     </g>
    </g>
    <g id="ytick_20">
     <g id="line2d_42">
      <g>
       <use xlink:href="#m274e418b6a" x="53.03" y="404.969902" style="stroke: #000000; stroke-width: 0.8"/>
      </g>
     </g>
     <g id="text_45">
      <!-- 40 -->
      <g transform="translate(33.305 408.76912) scale(0.1 -0.1)">
       <use xlink:href="#DejaVuSans-34"/>
       <use xlink:href="#DejaVuSans-30" transform="translate(63.623047 0)"/>
      </g>
     </g>
    </g>
    <g id="text_46">
     <!-- V (mV) -->
     <g transform="translate(18.845625 478.021562) rotate(-90) scale(0.1 -0.1)">
      <use xlink:href="#DejaVuSans-56"/>
      <use xlink:href="#DejaVuSans-20" transform="translate(68.408203 0)"/>
      <use xlink:href="#DejaVuSans-28" transform="translate(100.195312 0)"/>
      <use xlink:href="#DejaVuSans-6d" transform="translate(139.208984 0)"/>
      <use xlink:href="#DejaVuSans-56" transform="translate(236.621094 0)"/>
      <use xlink:href="#DejaVuSans-29" transform="translate(305.029297 0)"/>
     </g>
    </g>
   </g>
   <g id="line2d_43">
    <path d="M 69.765 511.393869 
L 72.442734 507.434715 
L 74.501242 504.777029 
L 76.660165 502.364923 
L 78.718673 500.022858 
L 79.404842 498.905284 
L 79.839974 497.780155 
L 80.124483 496.411609 
L 80.308577 494.348672 
L 80.408992 490.721591 
L 80.442464 486.097516 
L 80.492671 394.261082 
L 80.676766 396.472392 
L 80.844124 404.46952 
L 81.178841 435.316647 
L 81.46335 469.991253 
L 81.613972 515.663402 
L 81.647444 515.824709 
L 81.714387 515.609235 
L 82.919368 509.897409 
L 83.454914 506.109082 
L 83.990461 500.557672 
L 84.442329 493.67374 
L 84.55948 488.446252 
L 84.592951 465.85975 
L 84.643159 395.015088 
L 84.710102 395.65334 
L 84.860725 399.609669 
L 85.095027 412.977218 
L 85.630573 461.287814 
L 85.680781 484.40377 
L 85.814667 514.748781 
L 85.848139 514.85586 
L 85.898347 514.665218 
L 86.484101 511.559455 
L 87.136799 507.228907 
L 87.672345 502.069967 
L 88.241364 494.344359 
L 88.408722 489.370547 
L 88.442194 483.818489 
L 88.509137 395.253145 
L 88.576081 395.987263 
L 88.743439 400.818101 
L 88.994476 416.087162 
L 89.513287 463.81809 
L 89.714117 514.644901 
L 89.797797 514.311756 
L 91.06972 507.358013 
L 91.705682 502.327363 
L 92.475531 494.324658 
L 92.659625 490.811279 
L 92.726568 483.718459 
L 92.793511 395.208574 
L 92.860455 395.909053 
L 93.011077 400.160284 
L 93.245379 414.337542 
L 93.780926 465.061841 
L 93.981756 514.979323 
L 94.015228 514.899283 
L 95.186736 510.506492 
L 96.592546 505.388559 
L 97.713847 501.464625 
L 98.249394 500.311087 
L 98.66779 499.866678 
L 99.019243 499.804179 
L 99.370695 499.990811 
L 99.805827 500.503397 
L 100.391581 501.574439 
L 101.16143 503.484269 
L 102.081901 506.397557 
L 103.069315 510.290082 
L 104.207352 515.746907 
L 105.897672 523.857345 
L 106.533633 525.818486 
L 107.052444 526.77621 
L 107.521048 527.217073 
L 107.989651 527.355186 
L 108.508462 527.262862 
L 109.177896 526.897409 
L 110.131838 526.098935 
L 111.520913 524.622267 
L 113.294911 522.397851 
L 115.570985 519.15269 
L 118.5667 514.468925 
L 122.499622 508.406315 
L 124.658545 505.49345 
L 126.717053 503.098236 
L 129.679296 499.729824 
L 130.298522 498.62131 
L 130.683446 497.501085 
L 130.934483 496.099166 
L 131.101842 493.857431 
L 131.185521 490.234588 
L 131.218993 484.064683 
L 131.2692 394.291113 
L 131.352879 394.723579 
L 131.47003 397.173883 
L 131.654124 407.342798 
L 132.122728 452.131056 
L 132.239879 473.98168 
L 132.373765 515.506681 
L 132.423973 515.802825 
L 132.490916 515.596166 
L 132.942784 513.579953 
L 133.746104 509.536656 
L 134.281651 505.586345 
L 134.817198 499.801951 
L 135.235594 493.050966 
L 135.336009 487.14544 
L 135.352744 481.04351 
L 135.402952 395.015957 
L 135.469895 395.537906 
L 135.620518 399.307876 
L 135.854819 412.384894 
L 136.390366 460.06123 
L 136.440574 475.216491 
L 136.57446 514.660269 
L 136.607932 514.855648 
L 136.674875 514.617836 
L 137.294101 511.302791 
L 137.846384 507.673487 
L 138.381931 502.705985 
L 138.967685 495.020578 
L 139.151779 490.665432 
L 139.201987 485.741962 
L 139.26893 395.273778 
L 139.436289 398.189157 
L 139.653854 408.497905 
L 140.088986 444.291482 
L 140.289816 466.407178 
L 140.47391 514.646458 
L 140.490646 514.636575 
L 140.808627 513.070795 
L 141.846249 507.289805 
L 142.482211 502.240754 
L 143.252059 494.210987 
L 143.436154 490.455258 
L 143.486361 485.887455 
L 143.503097 476.478145 
L 143.553304 395.224642 
L 143.620248 395.796679 
L 143.77087 399.871341 
L 144.005172 413.769746 
L 144.540719 463.276665 
L 144.741549 514.984172 
L 144.841964 514.662889 
L 145.427718 512.329198 
L 148.925508 500.569552 
L 149.36064 500.037674 
L 149.712092 499.922407 
L 150.046809 500.049073 
L 150.465205 500.480166 
L 151.017488 501.415293 
L 151.753864 503.147731 
L 152.640864 505.840163 
L 153.611542 509.523616 
L 154.699372 514.590982 
L 156.724408 524.267191 
L 157.326898 526.017916 
L 157.828973 526.882416 
L 158.297577 527.273469 
L 158.749444 527.376861 
L 159.301727 527.258915 
L 160.004632 526.854928 
L 160.958575 526.027789 
L 162.448064 524.425681 
L 164.171855 522.230167 
L 166.56508 518.78725 
L 170.046134 513.311578 
L 173.410037 508.181364 
L 175.535489 505.339648 
L 177.593996 502.962423 
L 180.338674 499.856843 
L 180.991371 498.742082 
L 181.393031 497.627404 
L 181.660805 496.256946 
L 181.828163 494.208588 
L 181.928578 490.127001 
L 181.96205 483.353258 
L 181.995522 394.282985 
L 182.095937 394.738458 
L 182.213087 397.21947 
L 182.397182 407.409683 
L 182.882521 453.925518 
L 182.982936 474.862695 
L 183.116823 515.537179 
L 183.16703 515.798173 
L 183.217238 515.639546 
L 184.472425 509.618118 
L 185.007972 505.69755 
L 185.543519 499.947608 
L 185.961915 493.334869 
L 186.06233 488.71687 
L 186.095802 473.066371 
L 186.146009 395.00795 
L 186.212952 395.625536 
L 186.363575 399.535647 
L 186.597877 412.819505 
L 187.133423 460.870905 
L 187.183631 480.897129 
L 187.317518 514.709935 
L 187.350989 514.83428 
L 187.401197 514.655404 
L 188.221253 510.145854 
L 188.807007 505.759459 
L 189.35929 499.784252 
L 189.827893 492.466346 
L 189.911572 488.78836 
L 189.945044 479.741744 
L 189.995252 395.280952 
L 190.062195 395.833173 
L 190.212817 399.762819 
L 190.447119 412.82509 
L 190.982666 459.533269 
L 191.032873 471.534546 
L 191.183496 514.551789 
L 191.216968 514.624359 
L 191.267175 514.425564 
L 192.355005 508.662023 
L 192.990966 504.100769 
L 193.744079 496.843409 
L 194.112267 491.802371 
L 194.195947 487.688145 
L 194.212682 484.266178 
L 194.279626 395.224813 
L 194.363305 396.184343 
L 194.530663 401.568005 
L 194.798437 419.692591 
L 195.283776 470.208309 
L 195.434398 514.832727 
L 195.46787 514.955871 
L 195.518078 514.812846 
L 196.47202 511.142059 
L 198.128868 505.060977 
L 199.199962 501.305619 
L 199.735509 500.137673 
L 200.137169 499.718199 
L 200.488621 499.646939 
L 200.840074 499.819733 
L 201.25847 500.297518 
L 201.844224 501.349233 
L 202.597337 503.186142 
L 203.517808 506.047624 
L 204.505222 509.869785 
L 205.626523 515.168568 
L 207.484201 524.061805 
L 208.103427 525.918332 
L 208.605502 526.816083 
L 209.05737 527.21854 
L 209.525973 527.35275 
L 210.06152 527.257098 
L 210.714217 526.902357 
L 211.601217 526.155144 
L 213.023763 524.665802 
L 214.580196 522.713556 
L 217.023628 519.275602 
L 220.454474 513.895083 
L 224.136359 508.251242 
L 226.26181 505.402109 
L 228.286846 503.055718 
L 231.198882 499.723827 
L 231.834843 498.579187 
L 232.219768 497.409997 
L 232.470805 495.933775 
L 232.621428 493.797527 
L 232.705107 490.021457 
L 232.738579 482.792963 
L 232.788786 394.274483 
L 232.872465 394.754731 
L 232.989616 397.265423 
L 233.17371 407.522334 
L 233.65905 454.02981 
L 233.759465 476.054269 
L 233.893351 515.545407 
L 233.943559 515.818527 
L 233.993766 515.653154 
L 235.081596 510.611351 
L 235.650614 506.882814 
L 236.169425 501.871354 
L 236.688236 494.598501 
L 236.838859 489.46481 
L 236.87233 482.318611 
L 236.922538 395.018116 
L 236.989481 395.511976 
L 237.140104 399.245367 
L 237.374405 412.249874 
L 237.909952 459.837337 
L 237.96016 473.620171 
L 238.094046 514.614781 
L 238.127518 514.861765 
L 238.194461 514.642055 
L 239.031253 510.039126 
L 239.617008 505.621441 
L 240.16929 499.611309 
L 240.621158 492.552381 
L 240.721573 487.293505 
L 240.738309 482.710667 
L 240.805252 395.268411 
L 240.872195 396.023731 
L 241.039554 400.914376 
L 241.290591 416.282781 
L 241.809402 464.480602 
L 242.010232 514.650702 
L 242.06044 514.467376 
L 243.198477 508.439191 
L 243.834438 503.816235 
L 244.604287 496.327449 
L 244.939004 491.425367 
L 245.005947 487.82452 
L 245.039419 465.489986 
L 245.089626 395.199301 
L 245.15657 395.86122 
L 245.307192 400.037892 
L 245.541494 414.094704 
L 246.077041 464.133327 
L 246.277871 514.994189 
L 246.344814 514.779578 
L 247.315493 511.105029 
L 249.039284 504.893925 
L 250.043434 501.485276 
L 250.578981 500.384019 
L 250.997377 499.98495 
L 251.332093 499.947153 
L 251.683546 500.142265 
L 252.135414 500.686297 
L 252.737904 501.811328 
L 253.507752 503.763986 
L 254.411487 506.671879 
L 255.398902 510.623456 
L 256.57041 516.315425 
L 258.110107 523.706647 
L 258.762805 525.783018 
L 259.315088 526.821072 
L 259.783691 527.257813 
L 260.235559 527.383449 
L 260.771105 527.282721 
L 261.47401 526.896614 
L 262.411217 526.105747 
L 263.850499 524.563671 
L 265.65797 522.286805 
L 267.8671 519.121794 
L 271.097117 514.072187 
L 274.779001 508.405771 
L 276.921188 505.520602 
L 278.979696 503.126343 
L 281.941939 499.760996 
L 282.544429 498.69224 
L 282.946089 497.519586 
L 283.197127 496.104285 
L 283.364485 493.895207 
L 283.448164 490.386741 
L 283.481636 484.694148 
L 283.531843 394.284922 
L 283.648994 395.130103 
L 283.782881 399.052988 
L 284.000447 414.183049 
L 284.485786 465.373854 
L 284.686616 515.815976 
L 284.703352 515.783755 
L 285.205427 513.596588 
L 286.025483 509.463445 
L 286.56103 505.479375 
L 287.079841 499.839765 
L 287.498237 493.116648 
L 287.598652 487.578339 
L 287.615388 482.795868 
L 287.682331 395.024931 
L 287.732538 395.501032 
L 287.883161 399.217762 
L 288.117463 412.190158 
L 288.653009 459.716791 
L 288.703217 472.970483 
L 288.837104 514.608723 
L 288.870575 514.840433 
L 288.937519 514.623172 
L 289.77431 510.007293 
L 290.343329 505.713621 
L 290.895612 499.71901 
L 291.347479 492.752003 
L 291.447894 488.182222 
L 291.481366 470.028031 
L 291.531573 395.260554 
L 291.598517 395.915326 
L 291.765875 400.625408 
L 292.016913 415.724102 
L 292.535724 463.022452 
L 292.736554 514.632992 
L 292.853704 514.151144 
L 294.142364 507.008913 
L 294.778326 501.847566 
L 295.531438 493.814832 
L 295.698797 489.884004 
L 295.749004 481.774752 
L 295.815948 395.223298 
L 295.866155 395.714968 
L 296.016778 399.661664 
L 296.251079 413.354292 
L 296.786626 462.278568 
L 296.836834 490.332891 
L 296.97072 514.878648 
L 297.004192 514.965816 
L 297.054399 514.800709 
L 298.158965 510.645092 
L 299.481096 505.862918 
L 300.736284 501.402505 
L 301.27183 500.256973 
L 301.690226 499.821753 
L 302.024943 499.757927 
L 302.393131 499.952026 
L 302.844999 500.494166 
L 303.430753 501.578345 
L 304.200602 503.503437 
L 305.104337 506.371383 
L 306.091751 510.26326 
L 307.229788 515.72679 
L 308.936844 523.90682 
L 309.572805 525.858694 
L 310.091616 526.808374 
L 310.56022 527.231383 
L 311.012087 527.357485 
L 311.56437 527.256259 
L 312.267275 526.866023 
L 313.204482 526.065797 
L 314.710707 524.453291 
L 316.434498 522.263753 
L 318.810987 518.849373 
L 322.17489 513.56313 
L 325.639209 508.264463 
L 327.781396 505.390878 
L 329.839904 503.005382 
L 332.66826 499.790996 
L 333.287486 498.710117 
L 333.689146 497.593079 
L 333.940184 496.267475 
L 334.124278 493.889175 
L 334.207957 490.329969 
L 334.241429 484.248748 
L 334.2749 394.287857 
L 334.392051 394.91081 
L 334.509202 397.742232 
L 334.710032 409.927877 
L 335.228843 462.06618 
L 335.279051 491.96923 
L 335.429673 515.802099 
L 335.446409 515.81352 
L 335.479881 515.720733 
L 336.36688 511.732923 
L 336.986106 508.129803 
L 337.504917 503.686539 
L 338.0572 496.851278 
L 338.291501 492.116395 
L 338.358445 487.477679 
L 338.375181 482.343483 
L 338.425388 395.019649 
L 338.492331 395.5131 
L 338.642954 399.246845 
L 338.877256 412.268234 
L 339.412802 459.77331 
L 339.46301 473.363996 
L 339.596897 514.614595 
L 339.630368 514.851636 
L 339.697312 514.672889 
L 340.232858 511.800238 
L 340.902292 507.429981 
L 341.437839 502.356607 
L 342.006857 494.77579 
L 342.190951 489.950577 
L 342.241159 479.439881 
L 342.291366 395.270672 
L 342.35831 395.831959 
L 342.508932 399.767616 
L 342.743234 412.845216 
L 343.278781 459.740283 
L 343.328988 473.06363 
L 343.479611 514.615862 
L 343.496347 514.650426 
L 343.546554 514.515801 
L 344.785006 507.844006 
L 345.420968 502.99089 
L 346.207552 495.01775 
L 346.441854 491.022125 
L 346.508797 485.711955 
L 346.575741 395.223789 
L 346.759835 398.665007 
L 346.977401 410.122417 
L 347.496212 454.951058 
L 347.579891 467.744495 
L 347.763985 514.972954 
L 347.814192 514.853422 
L 348.918758 510.688456 
L 350.441719 505.134486 
L 351.512812 501.402897 
L 352.048359 500.269163 
L 352.450019 499.857501 
L 352.784736 499.791754 
L 353.119453 499.950496 
L 353.537849 500.410715 
L 354.106867 501.403556 
L 354.843244 503.170691 
L 355.746979 505.95383 
L 356.734393 509.73324 
L 357.805487 514.759413 
L 359.780316 524.207164 
L 360.399542 526.001222 
L 360.918353 526.879367 
L 361.386956 527.262603 
L 361.822088 527.354747 
L 362.357635 527.241515 
L 363.077276 526.832223 
L 364.031218 526.007564 
L 365.520708 524.385836 
L 367.227763 522.22112 
L 369.503837 518.954494 
L 372.599967 514.103988 
L 376.1647 508.604229 
L 378.340359 505.652055 
L 380.382131 503.254235 
L 383.545204 499.620318 
L 384.147694 498.474467 
L 384.515883 497.286973 
L 384.76692 495.592309 
L 384.917543 492.74171 
L 384.984486 487.215009 
L 385.001222 480.402367 
L 385.034693 394.256364 
L 385.118373 394.620381 
L 385.235524 396.818848 
L 385.402882 405.289141 
L 385.77107 439.759581 
L 386.005372 467.690795 
L 386.189466 515.824382 
L 386.25641 515.647909 
L 387.411182 510.228695 
L 387.946729 506.593495 
L 388.46554 501.456435 
L 388.967615 494.220177 
L 389.101502 489.304991 
L 389.134973 481.270646 
L 389.185181 395.010835 
L 389.252124 395.533143 
L 389.402747 399.295718 
L 389.637049 412.373053 
L 390.172595 460.0824 
L 390.222803 475.682372 
L 390.35669 514.655704 
L 390.390161 514.869076 
L 390.457105 514.621929 
L 390.925708 512.168105 
L 391.645349 507.56275 
L 392.180896 502.55385 
L 392.76665 494.782665 
L 392.950744 489.926302 
L 393.000952 478.400997 
L 393.051159 395.268157 
L 393.118103 395.847451 
L 393.268725 399.801664 
L 393.503027 412.900643 
L 394.038574 459.808145 
L 394.088781 472.952226 
L 394.239404 514.6005 
L 394.25614 514.66013 
L 394.306347 514.539912 
L 394.590856 513.091651 
L 395.628478 507.322821 
L 396.26444 502.282068 
L 397.034288 494.269165 
L 397.218383 490.663394 
L 397.26859 486.987925 
L 397.285326 482.241134 
L 397.352269 395.216811 
L 397.402477 395.698696 
L 397.553099 399.613438 
L 397.787401 413.304428 
L 398.322948 462.395591 
L 398.373155 491.439652 
L 398.523778 514.989447 
L 398.590721 514.836156 
L 398.942174 513.353306 
L 399.996532 509.654113 
L 401.335399 504.687649 
L 402.306077 501.394507 
L 402.841624 500.289502 
L 403.243284 499.898583 
L 403.578001 499.848933 
L 403.929453 500.034028 
L 404.364585 500.546479 
L 404.465 500.700217 
L 404.465 500.700217 
" clip-path="url(#p9ae8da0c7d)" style="fill: none; stroke: #1f77b4; stroke-width: 1.5; stroke-linecap: square"/>
   </g>
   <g id="patch_15">
    <path d="M 53.03 534.04 
L 53.03 387.6 
" style="fill: none; stroke: #000000; stroke-width: 0.8; stroke-linejoin: miter; stroke-linecap: square"/>
   </g>
   <g id="patch_16">
    <path d="M 421.2 534.04 
L 421.2 387.6 
" style="fill: none; stroke: #000000; stroke-width: 0.8; stroke-linejoin: miter; stroke-linecap: square"/>
   </g>
   <g id="patch_17">
    <path d="M 53.03 534.04 
L 421.2 534.04 
" style="fill: none; stroke: #000000; stroke-width: 0.8; stroke-linejoin: miter; stroke-linecap: square"/>
   </g>
   <g id="patch_18">
    <path d="M 53.03 387.6 
L 421.2 387.6 
" style="fill: none; stroke: #000000; stroke-width: 0.8; stroke-linejoin: miter; stroke-linecap: square"/>
   </g>
   <g id="legend_3">
    <g id="patch_19">
     <path d="M 363.996875 469.798125 
L 414.2 469.798125 
Q 416.2 469.798125 416.2 467.798125 
L 416.2 453.841875 
Q 416.2 451.841875 414.2 451.841875 
L 363.996875 451.841875 
Q 361.996875 451.841875 361.996875 453.841875 
L 361.996875 467.798125 
Q 361.996875 469.798125 363.996875 469.798125 
z
" style="fill: #ffffff; opacity: 0.8; stroke: #cccccc; stroke-linejoin: miter"/>
    </g>
    <g id="line2d_44">
     <path d="M 365.996875 459.940313 
L 375.996875 459.940313 
L 385.996875 459.940313 
" style="fill: none; stroke: #1f77b4; stroke-width: 1.5; stroke-linecap: square"/>
    </g>
    <g id="text_47">
     <!-- V_2 -->
     <g transform="translate(393.996875 463.440313) scale(0.1 -0.1)">
      <use xlink:href="#DejaVuSans-56"/>
      <use xlink:href="#DejaVuSans-5f" transform="translate(68.408203 0)"/>
      <use xlink:href="#DejaVuSans-32" transform="translate(118.408203 0)"/>
     </g>
    </g>
   </g>
  </g>
 </g>
 <defs>
  <clipPath id="pc4145fc3d6">
   <rect x="53.03" y="10.8" width="368.17" height="146.44"/>
  </clipPath>
  <clipPath id="p506a4217be">
   <rect x="53.03" y="199.2" width="368.17" height="146.44"/>
  </clipPath>
  <clipPath id="p9ae8da0c7d">
   <rect x="53.03" y="387.6" width="368.17" height="146.44"/>
  </clipPath>
 </defs>
</svg>
