<?xml version="1.0" encoding="utf-8" standalone="no"?>
<!DOCTYPE svg PUBLIC "-//W3C//DTD SVG 1.1//EN"
  "http://www.w3.org/Graphics/SVG/1.1/DTD/svg11.dtd">
<svg xmlns:xlink="http://www.w3.org/1999/xlink" width="864pt" height="288pt" viewBox="0 0 864 288" xmlns="http://www.w3.org/2000/svg" version="1.1">
 <metadata>
  <rdf:RDF xmlns:dc="http://purl.org/dc/elements/1.1/" xmlns:cc="http://creativecommons.org/ns#" xmlns:rdf="http://www.w3.org/1999/02/22-rdf-syntax-ns#">
   <cc:Work>
    <dc:type rdf:resource="http://purl.org/dc/dcmitype/StillImage"/>
    <dc:date>2025-03-26T16:32:34.921238</dc:date>
    <dc:format>image/svg+xml</dc:format>
    <dc:creator>
     <cc:Agent>
      <dc:title>Matplotlib v3.10.0, https://matplotlib.org/</dc:title>
     </cc:Agent>
    </dc:creator>
   </cc:Work>
  </rdf:RDF>
 </metadata>
 <defs>
  <style type="text/css">*{stroke-linejoin: round; stroke-linecap: butt}</style>
 </defs>
 <g id="figure_1">
  <g id="patch_1">
   <path d="M 0 288 
L 864 288 
L 864 0 
L 0 0 
z
" style="fill: #ffffff"/>
  </g>
  <g id="axes_1">
   <g id="patch_2">
    <path d="M 24.98125 107.44 
L 426.6 107.44 
L 426.6 10.8 
L 24.98125 10.8 
z
" style="fill: #ffffff"/>
   </g>
   <g id="matplotlib.axis_1">
    <g id="xtick_1">
     <g id="line2d_1">
      <defs>
       <path id="ma6bf2d135b" d="M 0 0 
L 0 3.5 
" style="stroke: #000000; stroke-width: 0.8"/>
      </defs>
      <g>
       <use xlink:href="#ma6bf2d135b" x="24.98125" y="107.44" style="stroke: #000000; stroke-width: 0.8"/>
      </g>
     </g>
     <g id="text_1">
      <!-- −80 -->
      <g transform="translate(14.428906 122.038437) scale(0.1 -0.1)">
       <defs>
        <path id="DejaVuSans-2212" d="M 678 2272 
L 4684 2272 
L 4684 1741 
L 678 1741 
L 678 2272 
z
" transform="scale(0.015625)"/>
        <path id="DejaVuSans-38" d="M 2034 2216 
Q 1584 2216 1326 1975 
Q 1069 1734 1069 1313 
Q 1069 891 1326 650 
Q 1584 409 2034 409 
Q 2484 409 2743 651 
Q 3003 894 3003 1313 
Q 3003 1734 2745 1975 
Q 2488 2216 2034 2216 
z
M 1403 2484 
Q 997 2584 770 2862 
Q 544 3141 544 3541 
Q 544 4100 942 4425 
Q 1341 4750 2034 4750 
Q 2731 4750 3128 4425 
Q 3525 4100 3525 3541 
Q 3525 3141 3298 2862 
Q 3072 2584 2669 2484 
Q 3125 2378 3379 2068 
Q 3634 1759 3634 1313 
Q 3634 634 3220 271 
Q 2806 -91 2034 -91 
Q 1263 -91 848 271 
Q 434 634 434 1313 
Q 434 1759 690 2068 
Q 947 2378 1403 2484 
z
M 1172 3481 
Q 1172 3119 1398 2916 
Q 1625 2713 2034 2713 
Q 2441 2713 2670 2916 
Q 2900 3119 2900 3481 
Q 2900 3844 2670 4047 
Q 2441 4250 2034 4250 
Q 1625 4250 1398 4047 
Q 1172 3844 1172 3481 
z
" transform="scale(0.015625)"/>
        <path id="DejaVuSans-30" d="M 2034 4250 
Q 1547 4250 1301 3770 
Q 1056 3291 1056 2328 
Q 1056 1369 1301 889 
Q 1547 409 2034 409 
Q 2525 409 2770 889 
Q 3016 1369 3016 2328 
Q 3016 3291 2770 3770 
Q 2525 4250 2034 4250 
z
M 2034 4750 
Q 2819 4750 3233 4129 
Q 3647 3509 3647 2328 
Q 3647 1150 3233 529 
Q 2819 -91 2034 -91 
Q 1250 -91 836 529 
Q 422 1150 422 2328 
Q 422 3509 836 4129 
Q 1250 4750 2034 4750 
z
" transform="scale(0.015625)"/>
       </defs>
       <use xlink:href="#DejaVuSans-2212"/>
       <use xlink:href="#DejaVuSans-38" transform="translate(83.789062 0)"/>
       <use xlink:href="#DejaVuSans-30" transform="translate(147.412109 0)"/>
      </g>
     </g>
    </g>
    <g id="xtick_2">
     <g id="line2d_2">
      <g>
       <use xlink:href="#ma6bf2d135b" x="86.76875" y="107.44" style="stroke: #000000; stroke-width: 0.8"/>
      </g>
     </g>
     <g id="text_2">
      <!-- −60 -->
      <g transform="translate(76.216406 122.038437) scale(0.1 -0.1)">
       <defs>
        <path id="DejaVuSans-36" d="M 2113 2584 
Q 1688 2584 1439 2293 
Q 1191 2003 1191 1497 
Q 1191 994 1439 701 
Q 1688 409 2113 409 
Q 2538 409 2786 701 
Q 3034 994 3034 1497 
Q 3034 2003 2786 2293 
Q 2538 2584 2113 2584 
z
M 3366 4563 
L 3366 3988 
Q 3128 4100 2886 4159 
Q 2644 4219 2406 4219 
Q 1781 4219 1451 3797 
Q 1122 3375 1075 2522 
Q 1259 2794 1537 2939 
Q 1816 3084 2150 3084 
Q 2853 3084 3261 2657 
Q 3669 2231 3669 1497 
Q 3669 778 3244 343 
Q 2819 -91 2113 -91 
Q 1303 -91 875 529 
Q 447 1150 447 2328 
Q 447 3434 972 4092 
Q 1497 4750 2381 4750 
Q 2619 4750 2861 4703 
Q 3103 4656 3366 4563 
z
" transform="scale(0.015625)"/>
       </defs>
       <use xlink:href="#DejaVuSans-2212"/>
       <use xlink:href="#DejaVuSans-36" transform="translate(83.789062 0)"/>
       <use xlink:href="#DejaVuSans-30" transform="translate(147.412109 0)"/>
      </g>
     </g>
    </g>
    <g id="xtick_3">
     <g id="line2d_3">
      <g>
       <use xlink:href="#ma6bf2d135b" x="148.55625" y="107.44" style="stroke: #000000; stroke-width: 0.8"/>
      </g>
     </g>
     <g id="text_3">
      <!-- −40 -->
      <g transform="translate(138.003906 122.038437) scale(0.1 -0.1)">
       <defs>
        <path id="DejaVuSans-34" d="M 2419 4116 
L 825 1625 
L 2419 1625 
L 2419 4116 
z
M 2253 4666 
L 3047 4666 
L 3047 1625 
L 3713 1625 
L 3713 1100 
L 3047 1100 
L 3047 0 
L 2419 0 
L 2419 1100 
L 313 1100 
L 313 1709 
L 2253 4666 
z
" transform="scale(0.015625)"/>
       </defs>
       <use xlink:href="#DejaVuSans-2212"/>
       <use xlink:href="#DejaVuSans-34" transform="translate(83.789062 0)"/>
       <use xlink:href="#DejaVuSans-30" transform="translate(147.412109 0)"/>
      </g>
     </g>
    </g>
    <g id="xtick_4">
     <g id="line2d_4">
      <g>
       <use xlink:href="#ma6bf2d135b" x="210.34375" y="107.44" style="stroke: #000000; stroke-width: 0.8"/>
      </g>
     </g>
     <g id="text_4">
      <!-- −20 -->
      <g transform="translate(199.791406 122.038437) scale(0.1 -0.1)">
       <defs>
        <path id="DejaVuSans-32" d="M 1228 531 
L 3431 531 
L 3431 0 
L 469 0 
L 469 531 
Q 828 903 1448 1529 
Q 2069 2156 2228 2338 
Q 2531 2678 2651 2914 
Q 2772 3150 2772 3378 
Q 2772 3750 2511 3984 
Q 2250 4219 1831 4219 
Q 1534 4219 1204 4116 
Q 875 4013 500 3803 
L 500 4441 
Q 881 4594 1212 4672 
Q 1544 4750 1819 4750 
Q 2544 4750 2975 4387 
Q 3406 4025 3406 3419 
Q 3406 3131 3298 2873 
Q 3191 2616 2906 2266 
Q 2828 2175 2409 1742 
Q 1991 1309 1228 531 
z
" transform="scale(0.015625)"/>
       </defs>
       <use xlink:href="#DejaVuSans-2212"/>
       <use xlink:href="#DejaVuSans-32" transform="translate(83.789062 0)"/>
       <use xlink:href="#DejaVuSans-30" transform="translate(147.412109 0)"/>
      </g>
     </g>
    </g>
    <g id="xtick_5">
     <g id="line2d_5">
      <g>
       <use xlink:href="#ma6bf2d135b" x="272.13125" y="107.44" style="stroke: #000000; stroke-width: 0.8"/>
      </g>
     </g>
     <g id="text_5">
      <!-- 0 -->
      <g transform="translate(268.95 122.038437) scale(0.1 -0.1)">
       <use xlink:href="#DejaVuSans-30"/>
      </g>
     </g>
    </g>
    <g id="xtick_6">
     <g id="line2d_6">
      <g>
       <use xlink:href="#ma6bf2d135b" x="333.91875" y="107.44" style="stroke: #000000; stroke-width: 0.8"/>
      </g>
     </g>
     <g id="text_6">
      <!-- 20 -->
      <g transform="translate(327.55625 122.038437) scale(0.1 -0.1)">
       <use xlink:href="#DejaVuSans-32"/>
       <use xlink:href="#DejaVuSans-30" transform="translate(63.623047 0)"/>
      </g>
     </g>
    </g>
    <g id="xtick_7">
     <g id="line2d_7">
      <g>
       <use xlink:href="#ma6bf2d135b" x="395.70625" y="107.44" style="stroke: #000000; stroke-width: 0.8"/>
      </g>
     </g>
     <g id="text_7">
      <!-- 40 -->
      <g transform="translate(389.34375 122.038437) scale(0.1 -0.1)">
       <use xlink:href="#DejaVuSans-34"/>
       <use xlink:href="#DejaVuSans-30" transform="translate(63.623047 0)"/>
      </g>
     </g>
    </g>
    <g id="text_8">
     <!-- V (mV) -->
     <g transform="translate(208.589062 135.716562) scale(0.1 -0.1)">
      <defs>
       <path id="DejaVuSans-56" d="M 1831 0 
L 50 4666 
L 709 4666 
L 2188 738 
L 3669 4666 
L 4325 4666 
L 2547 0 
L 1831 0 
z
" transform="scale(0.015625)"/>
       <path id="DejaVuSans-20" transform="scale(0.015625)"/>
       <path id="DejaVuSans-28" d="M 1984 4856 
Q 1566 4138 1362 3434 
Q 1159 2731 1159 2009 
Q 1159 1288 1364 580 
Q 1569 -128 1984 -844 
L 1484 -844 
Q 1016 -109 783 600 
Q 550 1309 550 2009 
Q 550 2706 781 3412 
Q 1013 4119 1484 4856 
L 1984 4856 
z
" transform="scale(0.015625)"/>
       <path id="DejaVuSans-6d" d="M 3328 2828 
Q 3544 3216 3844 3400 
Q 4144 3584 4550 3584 
Q 5097 3584 5394 3201 
Q 5691 2819 5691 2113 
L 5691 0 
L 5113 0 
L 5113 2094 
Q 5113 2597 4934 2840 
Q 4756 3084 4391 3084 
Q 3944 3084 3684 2787 
Q 3425 2491 3425 1978 
L 3425 0 
L 2847 0 
L 2847 2094 
Q 2847 2600 2669 2842 
Q 2491 3084 2119 3084 
Q 1678 3084 1418 2786 
Q 1159 2488 1159 1978 
L 1159 0 
L 581 0 
L 581 3500 
L 1159 3500 
L 1159 2956 
Q 1356 3278 1631 3431 
Q 1906 3584 2284 3584 
Q 2666 3584 2933 3390 
Q 3200 3197 3328 2828 
z
" transform="scale(0.015625)"/>
       <path id="DejaVuSans-29" d="M 513 4856 
L 1013 4856 
Q 1481 4119 1714 3412 
Q 1947 2706 1947 2009 
Q 1947 1309 1714 600 
Q 1481 -109 1013 -844 
L 513 -844 
Q 928 -128 1133 580 
Q 1338 1288 1338 2009 
Q 1338 2731 1133 3434 
Q 928 4138 513 4856 
z
" transform="scale(0.015625)"/>
      </defs>
      <use xlink:href="#DejaVuSans-56"/>
      <use xlink:href="#DejaVuSans-20" transform="translate(68.408203 0)"/>
      <use xlink:href="#DejaVuSans-28" transform="translate(100.195312 0)"/>
      <use xlink:href="#DejaVuSans-6d" transform="translate(139.208984 0)"/>
      <use xlink:href="#DejaVuSans-56" transform="translate(236.621094 0)"/>
      <use xlink:href="#DejaVuSans-29" transform="translate(305.029297 0)"/>
     </g>
    </g>
   </g>
   <g id="matplotlib.axis_2">
    <g id="text_9">
     <!-- g_f (mS/cm^2) -->
     <g transform="translate(18.623437 96.764531) rotate(-90) scale(0.1 -0.1)">
      <defs>
       <path id="DejaVuSans-67" d="M 2906 1791 
Q 2906 2416 2648 2759 
Q 2391 3103 1925 3103 
Q 1463 3103 1205 2759 
Q 947 2416 947 1791 
Q 947 1169 1205 825 
Q 1463 481 1925 481 
Q 2391 481 2648 825 
Q 2906 1169 2906 1791 
z
M 3481 434 
Q 3481 -459 3084 -895 
Q 2688 -1331 1869 -1331 
Q 1566 -1331 1297 -1286 
Q 1028 -1241 775 -1147 
L 775 -588 
Q 1028 -725 1275 -790 
Q 1522 -856 1778 -856 
Q 2344 -856 2625 -561 
Q 2906 -266 2906 331 
L 2906 616 
Q 2728 306 2450 153 
Q 2172 0 1784 0 
Q 1141 0 747 490 
Q 353 981 353 1791 
Q 353 2603 747 3093 
Q 1141 3584 1784 3584 
Q 2172 3584 2450 3431 
Q 2728 3278 2906 2969 
L 2906 3500 
L 3481 3500 
L 3481 434 
z
" transform="scale(0.015625)"/>
       <path id="DejaVuSans-5f" d="M 3263 -1063 
L 3263 -1509 
L -63 -1509 
L -63 -1063 
L 3263 -1063 
z
" transform="scale(0.015625)"/>
       <path id="DejaVuSans-66" d="M 2375 4863 
L 2375 4384 
L 1825 4384 
Q 1516 4384 1395 4259 
Q 1275 4134 1275 3809 
L 1275 3500 
L 2222 3500 
L 2222 3053 
L 1275 3053 
L 1275 0 
L 697 0 
L 697 3053 
L 147 3053 
L 147 3500 
L 697 3500 
L 697 3744 
Q 697 4328 969 4595 
Q 1241 4863 1831 4863 
L 2375 4863 
z
" transform="scale(0.015625)"/>
       <path id="DejaVuSans-53" d="M 3425 4513 
L 3425 3897 
Q 3066 4069 2747 4153 
Q 2428 4238 2131 4238 
Q 1616 4238 1336 4038 
Q 1056 3838 1056 3469 
Q 1056 3159 1242 3001 
Q 1428 2844 1947 2747 
L 2328 2669 
Q 3034 2534 3370 2195 
Q 3706 1856 3706 1288 
Q 3706 609 3251 259 
Q 2797 -91 1919 -91 
Q 1588 -91 1214 -16 
Q 841 59 441 206 
L 441 856 
Q 825 641 1194 531 
Q 1563 422 1919 422 
Q 2459 422 2753 634 
Q 3047 847 3047 1241 
Q 3047 1584 2836 1778 
Q 2625 1972 2144 2069 
L 1759 2144 
Q 1053 2284 737 2584 
Q 422 2884 422 3419 
Q 422 4038 858 4394 
Q 1294 4750 2059 4750 
Q 2388 4750 2728 4690 
Q 3069 4631 3425 4513 
z
" transform="scale(0.015625)"/>
       <path id="DejaVuSans-2f" d="M 1625 4666 
L 2156 4666 
L 531 -594 
L 0 -594 
L 1625 4666 
z
" transform="scale(0.015625)"/>
       <path id="DejaVuSans-63" d="M 3122 3366 
L 3122 2828 
Q 2878 2963 2633 3030 
Q 2388 3097 2138 3097 
Q 1578 3097 1268 2742 
Q 959 2388 959 1747 
Q 959 1106 1268 751 
Q 1578 397 2138 397 
Q 2388 397 2633 464 
Q 2878 531 3122 666 
L 3122 134 
Q 2881 22 2623 -34 
Q 2366 -91 2075 -91 
Q 1284 -91 818 406 
Q 353 903 353 1747 
Q 353 2603 823 3093 
Q 1294 3584 2113 3584 
Q 2378 3584 2631 3529 
Q 2884 3475 3122 3366 
z
" transform="scale(0.015625)"/>
       <path id="DejaVuSans-5e" d="M 2988 4666 
L 4684 2925 
L 4056 2925 
L 2681 4159 
L 1306 2925 
L 678 2925 
L 2375 4666 
L 2988 4666 
z
" transform="scale(0.015625)"/>
      </defs>
      <use xlink:href="#DejaVuSans-67"/>
      <use xlink:href="#DejaVuSans-5f" transform="translate(63.476562 0)"/>
      <use xlink:href="#DejaVuSans-66" transform="translate(113.476562 0)"/>
      <use xlink:href="#DejaVuSans-20" transform="translate(148.681641 0)"/>
      <use xlink:href="#DejaVuSans-28" transform="translate(180.46875 0)"/>
      <use xlink:href="#DejaVuSans-6d" transform="translate(219.482422 0)"/>
      <use xlink:href="#DejaVuSans-53" transform="translate(316.894531 0)"/>
      <use xlink:href="#DejaVuSans-2f" transform="translate(380.371094 0)"/>
      <use xlink:href="#DejaVuSans-63" transform="translate(414.0625 0)"/>
      <use xlink:href="#DejaVuSans-6d" transform="translate(469.042969 0)"/>
      <use xlink:href="#DejaVuSans-5e" transform="translate(566.455078 0)"/>
      <use xlink:href="#DejaVuSans-32" transform="translate(650.244141 0)"/>
      <use xlink:href="#DejaVuSans-29" transform="translate(713.867188 0)"/>
     </g>
    </g>
   </g>
   <g id="line2d_8">
    <path d="M 24.98125 54.539883 
L 122.270277 54.718294 
L 131.114733 54.960516 
L 136.743024 55.327491 
L 141.165253 55.839836 
L 144.78344 56.489027 
L 147.999606 57.310252 
L 150.813751 58.275416 
L 153.225876 59.329297 
L 155.638001 60.631332 
L 158.050125 62.218457 
L 160.46225 64.124172 
L 162.874374 66.373849 
L 165.286499 68.978692 
L 167.698624 71.928612 
L 170.512769 75.752381 
L 174.532977 81.672537 
L 178.553184 87.54262 
L 180.965309 90.67107 
L 182.573392 92.456343 
L 184.181475 93.924384 
L 185.387538 94.780161 
L 186.5936 95.399963 
L 187.799662 95.764239 
L 189.005724 95.857592 
L 190.211787 95.669418 
L 191.417849 95.194398 
L 192.623911 94.432806 
L 193.829974 93.390619 
L 195.036036 92.079412 
L 196.644119 89.942504 
L 198.252202 87.410739 
L 200.262306 83.790611 
L 202.674431 78.971045 
L 211.518888 60.807615 
L 213.931012 56.595837 
L 215.941116 53.493684 
L 217.95122 50.784768 
L 219.961324 48.469696 
L 221.971428 46.534074 
L 223.981532 44.952954 
L 225.991635 43.694834 
L 228.001739 42.724967 
L 230.011843 42.007858 
L 232.021947 41.508988 
L 234.434072 41.15279 
L 236.846196 41.012587 
L 239.660342 41.060195 
L 243.278529 41.354284 
L 249.710861 42.160969 
L 254.937131 42.726614 
L 258.555318 42.918193 
L 262.173505 42.879643 
L 265.389671 42.631988 
L 269.007858 42.117193 
L 272.626045 41.378722 
L 277.048273 40.233082 
L 282.676564 38.511576 
L 291.923042 35.392732 
L 305.189727 30.951815 
L 313.632163 28.372684 
L 321.270558 26.269776 
L 328.908953 24.403592 
L 336.547347 22.774126 
L 344.185742 21.370236 
L 352.226157 20.116331 
L 360.668594 19.019766 
L 369.915071 18.041839 
L 380.367611 17.170191 
L 392.026214 16.432032 
L 405.292899 15.821136 
L 420.971709 15.325899 
L 426.6 15.192727 
L 426.6 15.192727 
" clip-path="url(#p01b290a520)" style="fill: none; stroke: #1f77b4; stroke-width: 1.5; stroke-linecap: square"/>
   </g>
   <g id="line2d_9">
    <path d="M 24.98125 54.534453 
L 121.868256 54.716033 
L 130.310692 54.941852 
L 135.938983 55.296695 
L 140.361211 55.796345 
L 143.979398 56.43359 
L 147.195564 57.244839 
L 150.00971 58.203708 
L 152.421834 59.256042 
L 154.833959 60.562528 
L 157.246084 62.163245 
L 159.256187 63.749246 
L 161.266291 65.584126 
L 163.276395 67.680517 
L 165.68852 70.546473 
L 168.100644 73.778981 
L 170.91479 77.948163 
L 175.337018 85.002082 
L 178.955205 90.635479 
L 180.965309 93.429571 
L 182.573392 95.374397 
L 184.181475 96.985595 
L 185.387538 97.93588 
L 186.5936 98.637736 
L 187.799662 99.070557 
L 189.005724 99.218151 
L 190.211787 99.069421 
L 191.417849 98.618887 
L 192.623911 97.867006 
L 193.829974 96.820294 
L 195.036036 95.49121 
L 196.644119 93.311832 
L 198.252202 90.719709 
L 200.262306 87.005725 
L 202.674431 82.05934 
L 210.714846 65.078056 
L 213.126971 60.68241 
L 215.137075 57.447722 
L 217.147178 54.635303 
L 219.157282 52.251575 
L 220.765365 50.645578 
L 222.373448 49.293598 
L 223.981532 48.178615 
L 225.991635 47.087687 
L 228.001739 46.293474 
L 230.011843 45.752067 
L 232.021947 45.420045 
L 234.434072 45.239667 
L 237.248217 45.246397 
L 241.670445 45.51809 
L 249.30884 46.020919 
L 253.329048 46.042953 
L 256.947235 45.84988 
L 260.565422 45.448908 
L 264.585629 44.779573 
L 269.007858 43.816779 
L 274.234128 42.451234 
L 281.470502 40.307009 
L 310.818018 31.324412 
L 318.858433 29.221648 
L 326.496828 27.443047 
L 334.135223 25.88238 
L 342.175638 24.466831 
L 350.618074 23.212491 
L 359.462531 22.125526 
L 369.11103 21.167705 
L 379.56357 20.352963 
L 391.624193 19.642226 
L 405.69492 19.048089 
L 422.579792 18.571594 
L 426.6 18.486305 
L 426.6 18.486305 
" clip-path="url(#p01b290a520)" style="fill: none; stroke: #ff7f0e; stroke-width: 1.5; stroke-linecap: square"/>
   </g>
   <g id="line2d_10">
    <path d="M 24.98125 54.526555 
L 121.466235 54.714291 
L 129.908671 54.944874 
L 135.536962 55.309167 
L 139.95919 55.823727 
L 143.577377 56.481772 
L 146.391523 57.200986 
L 149.205668 58.157747 
L 151.617793 59.212521 
L 154.029917 60.528181 
L 156.040021 61.855485 
L 158.050125 63.419305 
L 160.060229 65.242247 
L 162.070333 67.342382 
L 164.080437 69.730487 
L 166.492561 72.975755 
L 168.904686 76.608476 
L 171.718831 81.247858 
L 180.161268 95.558586 
L 182.171371 98.351116 
L 183.779454 100.205422 
L 184.985517 101.326724 
L 186.191579 102.186185 
L 187.397641 102.75984 
L 188.603704 103.028247 
L 189.809766 102.977265 
L 191.015828 102.598688 
L 192.221891 101.890666 
L 193.427953 100.857917 
L 194.634015 99.511686 
L 195.840078 97.869461 
L 197.448161 95.260266 
L 199.056244 92.235203 
L 201.066348 87.992352 
L 203.880493 81.501928 
L 209.910805 67.435147 
L 212.322929 62.395786 
L 214.333033 58.627291 
L 216.343137 55.298613 
L 218.353241 52.426983 
L 220.363345 50.008019 
L 221.971428 48.385217 
L 223.579511 47.022954 
L 225.187594 45.902029 
L 226.795677 45.001414 
L 228.805781 44.152238 
L 230.815885 43.570904 
L 232.825988 43.216833 
L 235.238113 43.038872 
L 238.052259 43.097314 
L 241.268425 43.41391 
L 245.690653 44.097135 
L 254.53511 45.504894 
L 258.555318 45.884046 
L 262.173505 46.004699 
L 265.791692 45.904955 
L 269.811899 45.553285 
L 274.234128 44.923119 
L 279.460398 43.941253 
L 287.098793 42.246189 
L 311.220039 36.728283 
L 320.466517 34.91123 
L 329.310973 33.396113 
L 338.15543 32.101166 
L 347.401908 30.969139 
L 357.452427 29.968583 
L 368.306988 29.117366 
L 380.367611 28.398646 
L 394.438338 27.792768 
L 410.92119 27.312857 
L 426.6 27.014111 
L 426.6 27.014111 
" clip-path="url(#p01b290a520)" style="fill: none; stroke: #2ca02c; stroke-width: 1.5; stroke-linecap: square"/>
   </g>
   <g id="line2d_11">
    <path d="M 24.98125 54.627303 
L 426.6 54.627303 
" clip-path="url(#p01b290a520)" style="fill: none; stroke: #000000; stroke-width: 0.5; stroke-linecap: square"/>
   </g>
   <g id="line2d_12">
    <path d="M 114.573125 107.44 
L 114.573125 10.8 
" clip-path="url(#p01b290a520)" style="fill: none; stroke: #ff0000; stroke-width: 0.5; stroke-linecap: square"/>
   </g>
   <g id="patch_3">
    <path d="M 24.98125 107.44 
L 24.98125 10.8 
" style="fill: none; stroke: #000000; stroke-width: 0.8; stroke-linejoin: miter; stroke-linecap: square"/>
   </g>
   <g id="patch_4">
    <path d="M 426.6 107.44 
L 426.6 10.8 
" style="fill: none; stroke: #000000; stroke-width: 0.8; stroke-linejoin: miter; stroke-linecap: square"/>
   </g>
   <g id="patch_5">
    <path d="M 24.98125 107.44 
L 426.6 107.44 
" style="fill: none; stroke: #000000; stroke-width: 0.8; stroke-linejoin: miter; stroke-linecap: square"/>
   </g>
   <g id="patch_6">
    <path d="M 24.98125 10.8 
L 426.6 10.8 
" style="fill: none; stroke: #000000; stroke-width: 0.8; stroke-linejoin: miter; stroke-linecap: square"/>
   </g>
   <g id="legend_1">
    <g id="patch_7">
     <path d="M 361.36875 102.44 
L 419.6 102.44 
Q 421.6 102.44 421.6 100.44 
L 421.6 56.57125 
Q 421.6 54.57125 419.6 54.57125 
L 361.36875 54.57125 
Q 359.36875 54.57125 359.36875 56.57125 
L 359.36875 100.44 
Q 359.36875 102.44 361.36875 102.44 
z
" style="fill: #ffffff; opacity: 0.8; stroke: #cccccc; stroke-linejoin: miter"/>
    </g>
    <g id="line2d_13">
     <path d="M 363.36875 62.669687 
L 373.36875 62.669687 
L 383.36875 62.669687 
" style="fill: none; stroke: #1f77b4; stroke-width: 1.5; stroke-linecap: square"/>
    </g>
    <g id="text_10">
     <!-- g_f_0 -->
     <g transform="translate(391.36875 66.169687) scale(0.1 -0.1)">
      <use xlink:href="#DejaVuSans-67"/>
      <use xlink:href="#DejaVuSans-5f" transform="translate(63.476562 0)"/>
      <use xlink:href="#DejaVuSans-66" transform="translate(113.476562 0)"/>
      <use xlink:href="#DejaVuSans-5f" transform="translate(148.681641 0)"/>
      <use xlink:href="#DejaVuSans-30" transform="translate(198.681641 0)"/>
     </g>
    </g>
    <g id="line2d_14">
     <path d="M 363.36875 77.625937 
L 373.36875 77.625937 
L 383.36875 77.625937 
" style="fill: none; stroke: #ff7f0e; stroke-width: 1.5; stroke-linecap: square"/>
    </g>
    <g id="text_11">
     <!-- g_f_1 -->
     <g transform="translate(391.36875 81.125937) scale(0.1 -0.1)">
      <defs>
       <path id="DejaVuSans-31" d="M 794 531 
L 1825 531 
L 1825 4091 
L 703 3866 
L 703 4441 
L 1819 4666 
L 2450 4666 
L 2450 531 
L 3481 531 
L 3481 0 
L 794 0 
L 794 531 
z
" transform="scale(0.015625)"/>
      </defs>
      <use xlink:href="#DejaVuSans-67"/>
      <use xlink:href="#DejaVuSans-5f" transform="translate(63.476562 0)"/>
      <use xlink:href="#DejaVuSans-66" transform="translate(113.476562 0)"/>
      <use xlink:href="#DejaVuSans-5f" transform="translate(148.681641 0)"/>
      <use xlink:href="#DejaVuSans-31" transform="translate(198.681641 0)"/>
     </g>
    </g>
    <g id="line2d_15">
     <path d="M 363.36875 92.582187 
L 373.36875 92.582187 
L 383.36875 92.582187 
" style="fill: none; stroke: #2ca02c; stroke-width: 1.5; stroke-linecap: square"/>
    </g>
    <g id="text_12">
     <!-- g_f_2 -->
     <g transform="translate(391.36875 96.082187) scale(0.1 -0.1)">
      <use xlink:href="#DejaVuSans-67"/>
      <use xlink:href="#DejaVuSans-5f" transform="translate(63.476562 0)"/>
      <use xlink:href="#DejaVuSans-66" transform="translate(113.476562 0)"/>
      <use xlink:href="#DejaVuSans-5f" transform="translate(148.681641 0)"/>
      <use xlink:href="#DejaVuSans-32" transform="translate(198.681641 0)"/>
     </g>
    </g>
   </g>
  </g>
  <g id="axes_2">
   <g id="patch_8">
    <path d="M 451.58125 107.44 
L 853.2 107.44 
L 853.2 10.8 
L 451.58125 10.8 
z
" style="fill: #ffffff"/>
   </g>
   <g id="matplotlib.axis_3">
    <g id="xtick_8">
     <g id="line2d_16">
      <g>
       <use xlink:href="#ma6bf2d135b" x="451.58125" y="107.44" style="stroke: #000000; stroke-width: 0.8"/>
      </g>
     </g>
     <g id="text_13">
      <!-- −80 -->
      <g transform="translate(441.028906 122.038437) scale(0.1 -0.1)">
       <use xlink:href="#DejaVuSans-2212"/>
       <use xlink:href="#DejaVuSans-38" transform="translate(83.789062 0)"/>
       <use xlink:href="#DejaVuSans-30" transform="translate(147.412109 0)"/>
      </g>
     </g>
    </g>
    <g id="xtick_9">
     <g id="line2d_17">
      <g>
       <use xlink:href="#ma6bf2d135b" x="513.36875" y="107.44" style="stroke: #000000; stroke-width: 0.8"/>
      </g>
     </g>
     <g id="text_14">
      <!-- −60 -->
      <g transform="translate(502.816406 122.038437) scale(0.1 -0.1)">
       <use xlink:href="#DejaVuSans-2212"/>
       <use xlink:href="#DejaVuSans-36" transform="translate(83.789062 0)"/>
       <use xlink:href="#DejaVuSans-30" transform="translate(147.412109 0)"/>
      </g>
     </g>
    </g>
    <g id="xtick_10">
     <g id="line2d_18">
      <g>
       <use xlink:href="#ma6bf2d135b" x="575.15625" y="107.44" style="stroke: #000000; stroke-width: 0.8"/>
      </g>
     </g>
     <g id="text_15">
      <!-- −40 -->
      <g transform="translate(564.603906 122.038437) scale(0.1 -0.1)">
       <use xlink:href="#DejaVuSans-2212"/>
       <use xlink:href="#DejaVuSans-34" transform="translate(83.789062 0)"/>
       <use xlink:href="#DejaVuSans-30" transform="translate(147.412109 0)"/>
      </g>
     </g>
    </g>
    <g id="xtick_11">
     <g id="line2d_19">
      <g>
       <use xlink:href="#ma6bf2d135b" x="636.94375" y="107.44" style="stroke: #000000; stroke-width: 0.8"/>
      </g>
     </g>
     <g id="text_16">
      <!-- −20 -->
      <g transform="translate(626.391406 122.038437) scale(0.1 -0.1)">
       <use xlink:href="#DejaVuSans-2212"/>
       <use xlink:href="#DejaVuSans-32" transform="translate(83.789062 0)"/>
       <use xlink:href="#DejaVuSans-30" transform="translate(147.412109 0)"/>
      </g>
     </g>
    </g>
    <g id="xtick_12">
     <g id="line2d_20">
      <g>
       <use xlink:href="#ma6bf2d135b" x="698.73125" y="107.44" style="stroke: #000000; stroke-width: 0.8"/>
      </g>
     </g>
     <g id="text_17">
      <!-- 0 -->
      <g transform="translate(695.55 122.038437) scale(0.1 -0.1)">
       <use xlink:href="#DejaVuSans-30"/>
      </g>
     </g>
    </g>
    <g id="xtick_13">
     <g id="line2d_21">
      <g>
       <use xlink:href="#ma6bf2d135b" x="760.51875" y="107.44" style="stroke: #000000; stroke-width: 0.8"/>
      </g>
     </g>
     <g id="text_18">
      <!-- 20 -->
      <g transform="translate(754.15625 122.038437) scale(0.1 -0.1)">
       <use xlink:href="#DejaVuSans-32"/>
       <use xlink:href="#DejaVuSans-30" transform="translate(63.623047 0)"/>
      </g>
     </g>
    </g>
    <g id="xtick_14">
     <g id="line2d_22">
      <g>
       <use xlink:href="#ma6bf2d135b" x="822.30625" y="107.44" style="stroke: #000000; stroke-width: 0.8"/>
      </g>
     </g>
     <g id="text_19">
      <!-- 40 -->
      <g transform="translate(815.94375 122.038437) scale(0.1 -0.1)">
       <use xlink:href="#DejaVuSans-34"/>
       <use xlink:href="#DejaVuSans-30" transform="translate(63.623047 0)"/>
      </g>
     </g>
    </g>
    <g id="text_20">
     <!-- V (mV) -->
     <g transform="translate(635.189062 135.716562) scale(0.1 -0.1)">
      <use xlink:href="#DejaVuSans-56"/>
      <use xlink:href="#DejaVuSans-20" transform="translate(68.408203 0)"/>
      <use xlink:href="#DejaVuSans-28" transform="translate(100.195312 0)"/>
      <use xlink:href="#DejaVuSans-6d" transform="translate(139.208984 0)"/>
      <use xlink:href="#DejaVuSans-56" transform="translate(236.621094 0)"/>
      <use xlink:href="#DejaVuSans-29" transform="translate(305.029297 0)"/>
     </g>
    </g>
   </g>
   <g id="matplotlib.axis_4">
    <g id="text_21">
     <!-- g_s (mS/cm^2) -->
     <g transform="translate(445.223437 97.609062) rotate(-90) scale(0.1 -0.1)">
      <defs>
       <path id="DejaVuSans-73" d="M 2834 3397 
L 2834 2853 
Q 2591 2978 2328 3040 
Q 2066 3103 1784 3103 
Q 1356 3103 1142 2972 
Q 928 2841 928 2578 
Q 928 2378 1081 2264 
Q 1234 2150 1697 2047 
L 1894 2003 
Q 2506 1872 2764 1633 
Q 3022 1394 3022 966 
Q 3022 478 2636 193 
Q 2250 -91 1575 -91 
Q 1294 -91 989 -36 
Q 684 19 347 128 
L 347 722 
Q 666 556 975 473 
Q 1284 391 1588 391 
Q 1994 391 2212 530 
Q 2431 669 2431 922 
Q 2431 1156 2273 1281 
Q 2116 1406 1581 1522 
L 1381 1569 
Q 847 1681 609 1914 
Q 372 2147 372 2553 
Q 372 3047 722 3315 
Q 1072 3584 1716 3584 
Q 2034 3584 2315 3537 
Q 2597 3491 2834 3397 
z
" transform="scale(0.015625)"/>
      </defs>
      <use xlink:href="#DejaVuSans-67"/>
      <use xlink:href="#DejaVuSans-5f" transform="translate(63.476562 0)"/>
      <use xlink:href="#DejaVuSans-73" transform="translate(113.476562 0)"/>
      <use xlink:href="#DejaVuSans-20" transform="translate(165.576172 0)"/>
      <use xlink:href="#DejaVuSans-28" transform="translate(197.363281 0)"/>
      <use xlink:href="#DejaVuSans-6d" transform="translate(236.376953 0)"/>
      <use xlink:href="#DejaVuSans-53" transform="translate(333.789062 0)"/>
      <use xlink:href="#DejaVuSans-2f" transform="translate(397.265625 0)"/>
      <use xlink:href="#DejaVuSans-63" transform="translate(430.957031 0)"/>
      <use xlink:href="#DejaVuSans-6d" transform="translate(485.9375 0)"/>
      <use xlink:href="#DejaVuSans-5e" transform="translate(583.349609 0)"/>
      <use xlink:href="#DejaVuSans-32" transform="translate(667.138672 0)"/>
      <use xlink:href="#DejaVuSans-29" transform="translate(730.761719 0)"/>
     </g>
    </g>
   </g>
   <g id="line2d_23">
    <path d="M 451.58125 103.033965 
L 562.136962 102.932112 
L 568.167274 102.684338 
L 572.589502 102.292512 
L 576.207689 101.754348 
L 579.423855 101.04827 
L 582.238001 100.210444 
L 585.052146 99.130419 
L 587.464271 97.986828 
L 589.876395 96.621651 
L 592.28852 95.016932 
L 594.700644 93.156549 
L 597.112769 91.027367 
L 599.524894 88.621297 
L 602.339039 85.464685 
L 605.153184 81.951353 
L 608.369351 77.562491 
L 613.1936 70.514659 
L 618.41987 62.950023 
L 621.234015 59.259907 
L 623.64614 56.471623 
L 625.656244 54.481447 
L 627.666348 52.840436 
L 629.274431 51.801633 
L 630.882514 51.020024 
L 632.490597 50.503904 
L 634.09868 50.257813 
L 635.706763 50.282949 
L 637.314846 50.577644 
L 638.922929 51.137844 
L 640.531012 51.957545 
L 642.139095 53.029114 
L 643.747178 54.343473 
L 645.757282 56.31167 
L 647.767386 58.618475 
L 650.179511 61.791775 
L 652.591635 65.345569 
L 655.807802 70.526092 
L 663.446196 83.119126 
L 665.4563 85.957333 
L 667.064383 87.910526 
L 668.672466 89.503876 
L 669.878529 90.420572 
L 671.084591 91.067795 
L 672.290653 91.420388 
L 673.496715 91.456582 
L 674.300757 91.296077 
L 675.506819 90.768445 
L 676.712882 89.889218 
L 677.918944 88.655764 
L 679.125006 87.071983 
L 680.331069 85.148513 
L 681.939152 82.086416 
L 683.547235 78.510744 
L 685.557339 73.437026 
L 687.969463 66.703101 
L 696.81392 41.312178 
L 699.226045 35.445779 
L 701.236149 31.146669 
L 703.246253 27.417028 
L 704.854336 24.844472 
L 706.462419 22.626971 
L 708.070502 20.747887 
L 709.678585 19.186376 
L 711.286668 17.91934 
L 712.894751 16.922988 
L 714.502834 16.173986 
L 716.110917 15.650236 
L 717.719 15.33133 
L 719.729104 15.192727 
L 721.739208 15.313379 
L 723.749312 15.66554 
L 725.759416 16.225141 
L 728.17154 17.14102 
L 730.583665 18.2935 
L 733.39781 19.899557 
L 736.613976 22.030859 
L 740.232163 24.740929 
L 744.252371 28.057531 
L 749.07662 32.342839 
L 755.910973 38.739412 
L 769.57968 51.593296 
L 776.012012 57.29343 
L 781.640303 61.979768 
L 786.866573 66.043997 
L 792.092843 69.814938 
L 796.917092 73.030909 
L 801.741341 75.994753 
L 806.565591 78.713181 
L 811.791861 81.392796 
L 817.018131 83.811638 
L 822.244401 85.987079 
L 827.872691 88.078623 
L 833.500982 89.932126 
L 839.531294 91.679506 
L 845.963626 93.300596 
L 852.797979 94.781227 
L 853.2 94.861263 
L 853.2 94.861263 
" clip-path="url(#pd24e018df8)" style="fill: none; stroke: #1f77b4; stroke-width: 1.5; stroke-linecap: square"/>
   </g>
   <g id="line2d_24">
    <path d="M 451.58125 103.033967 
L 562.941004 102.923318 
L 569.373336 102.66125 
L 573.795564 102.27815 
L 577.413751 101.757374 
L 580.629917 101.070718 
L 583.444063 100.245379 
L 586.258208 99.163572 
L 588.670333 97.998963 
L 591.082457 96.58882 
L 593.494582 94.912372 
L 595.906707 92.954712 
L 598.318831 90.708638 
L 600.730956 88.176805 
L 603.545101 84.882654 
L 606.761268 80.732978 
L 611.183496 74.594851 
L 616.409766 67.36059 
L 619.223911 63.83915 
L 621.234015 61.619695 
L 623.244119 59.719415 
L 624.852202 58.46721 
L 626.460285 57.479972 
L 628.068368 56.777353 
L 629.676451 56.373782 
L 630.882514 56.27294 
L 632.088576 56.347171 
L 633.294638 56.596437 
L 634.902721 57.197802 
L 636.510805 58.098304 
L 638.118888 59.284169 
L 639.726971 60.736806 
L 641.737075 62.891913 
L 643.747178 65.37185 
L 646.159303 68.68236 
L 650.179511 74.647295 
L 654.199718 80.495928 
L 656.611843 83.579543 
L 658.219926 85.332339 
L 659.828009 86.773773 
L 661.034072 87.617219 
L 662.240134 88.233482 
L 663.446196 88.604188 
L 664.652259 88.714145 
L 665.858321 88.551891 
L 667.064383 88.110159 
L 668.270445 87.386256 
L 669.476508 86.382299 
L 670.68257 85.105323 
L 672.290653 82.999193 
L 673.898736 80.470073 
L 675.90884 76.796251 
L 678.320965 71.804534 
L 681.537131 64.560407 
L 687.165422 51.822538 
L 689.979567 46.029395 
L 692.391692 41.55385 
L 694.803816 37.581984 
L 696.81392 34.665576 
L 698.824024 32.099844 
L 700.834128 29.870132 
L 702.844232 27.95785 
L 704.854336 26.343123 
L 706.864439 25.006527 
L 708.874543 23.930053 
L 710.884647 23.097475 
L 712.894751 22.494318 
L 714.904855 22.107602 
L 716.914959 21.925495 
L 718.925063 21.936946 
L 721.337187 22.191307 
L 723.749312 22.691276 
L 726.161436 23.419025 
L 728.975582 24.531959 
L 731.789727 25.901563 
L 735.005893 27.743766 
L 738.22206 29.839868 
L 741.840246 32.448624 
L 746.262475 35.91605 
L 751.890766 40.627568 
L 774.80595 60.157452 
L 780.43424 64.511943 
L 785.660511 68.297249 
L 790.886781 71.816102 
L 796.113051 75.061758 
L 801.339321 78.035501 
L 806.565591 80.744562 
L 811.791861 83.200381 
L 817.018131 85.417199 
L 822.646421 87.555545 
L 828.274712 89.456113 
L 834.305024 91.252558 
L 840.737356 92.923158 
L 847.571709 94.45231 
L 853.2 95.543906 
L 853.2 95.543906 
" clip-path="url(#pd24e018df8)" style="fill: none; stroke: #ff7f0e; stroke-width: 1.5; stroke-linecap: square"/>
   </g>
   <g id="line2d_25">
    <path d="M 451.58125 103.033971 
L 561.33292 102.928376 
L 567.765253 102.668959 
L 572.187481 102.292241 
L 575.805668 101.786608 
L 579.021834 101.128323 
L 581.83598 100.345468 
L 584.650125 99.327614 
L 587.06225 98.237151 
L 589.474374 96.918771 
L 591.886499 95.348657 
L 594.298624 93.505586 
L 596.710748 91.372594 
L 599.122873 88.939313 
L 601.534997 86.20499 
L 604.349143 82.651879 
L 607.565309 78.175118 
L 611.987538 71.542322 
L 617.615828 63.117374 
L 620.429974 59.325584 
L 622.440078 56.931595 
L 624.450181 54.870005 
L 626.058265 53.495774 
L 627.666348 52.390134 
L 629.274431 51.570157 
L 630.882514 51.047877 
L 632.088576 50.855982 
L 633.294638 50.836905 
L 634.500701 50.990561 
L 636.108784 51.461689 
L 637.716867 52.231323 
L 639.32495 53.290437 
L 640.933033 54.627571 
L 642.541116 56.229194 
L 644.55122 58.579554 
L 646.561324 61.284912 
L 648.973448 64.944428 
L 651.787594 69.681136 
L 655.405781 76.26367 
L 661.436092 87.286216 
L 663.848217 91.200765 
L 665.858321 94.021236 
L 667.466404 95.899951 
L 668.672466 97.049117 
L 669.878529 97.949629 
L 671.084591 98.580947 
L 672.290653 98.925866 
L 673.496715 98.971205 
L 674.702778 98.708423 
L 675.90884 98.134143 
L 677.114902 97.250501 
L 678.320965 96.065339 
L 679.527027 94.592202 
L 681.13511 92.213692 
L 682.743193 89.416475 
L 684.753297 85.44181 
L 687.567442 79.276029 
L 694.401796 63.978475 
L 696.81392 59.217705 
L 698.824024 55.682068 
L 700.834128 52.576906 
L 702.844232 49.910674 
L 704.854336 47.671966 
L 706.864439 45.835715 
L 708.874543 44.368887 
L 710.884647 43.235148 
L 712.894751 42.398276 
L 714.904855 41.824357 
L 716.914959 41.482942 
L 718.925063 41.347437 
L 721.337187 41.424676 
L 723.749312 41.732338 
L 726.563457 42.345613 
L 729.377603 43.19759 
L 732.593769 44.422854 
L 736.211956 46.072277 
L 740.232163 48.179002 
L 744.654392 50.752877 
L 750.282683 54.295458 
L 759.931181 60.686016 
L 770.383721 67.522282 
L 777.218074 71.724949 
L 783.248386 75.183191 
L 789.278697 78.377081 
L 794.906988 81.108492 
L 800.535279 83.59816 
L 806.16357 85.852025 
L 812.193881 88.017231 
L 818.224193 89.940543 
L 824.656525 91.746733 
L 831.088858 93.323172 
L 837.923211 94.773128 
L 845.159585 96.085633 
L 853.2 97.311419 
L 853.2 97.311419 
" clip-path="url(#pd24e018df8)" style="fill: none; stroke: #2ca02c; stroke-width: 1.5; stroke-linecap: square"/>
   </g>
   <g id="line2d_26">
    <path d="M 451.58125 103.033957 
L 853.2 103.033957 
" clip-path="url(#pd24e018df8)" style="fill: none; stroke: #000000; stroke-width: 0.5; stroke-linecap: square"/>
   </g>
   <g id="line2d_27">
    <path d="M 541.173125 107.44 
L 541.173125 10.8 
" clip-path="url(#pd24e018df8)" style="fill: none; stroke: #ff0000; stroke-width: 0.5; stroke-linecap: square"/>
   </g>
   <g id="patch_9">
    <path d="M 451.58125 107.44 
L 451.58125 10.8 
" style="fill: none; stroke: #000000; stroke-width: 0.8; stroke-linejoin: miter; stroke-linecap: square"/>
   </g>
   <g id="patch_10">
    <path d="M 853.2 107.44 
L 853.2 10.8 
" style="fill: none; stroke: #000000; stroke-width: 0.8; stroke-linejoin: miter; stroke-linecap: square"/>
   </g>
   <g id="patch_11">
    <path d="M 451.58125 107.44 
L 853.2 107.44 
" style="fill: none; stroke: #000000; stroke-width: 0.8; stroke-linejoin: miter; stroke-linecap: square"/>
   </g>
   <g id="patch_12">
    <path d="M 451.58125 10.8 
L 853.2 10.8 
" style="fill: none; stroke: #000000; stroke-width: 0.8; stroke-linejoin: miter; stroke-linecap: square"/>
   </g>
   <g id="legend_2">
    <g id="patch_13">
     <path d="M 786.279688 63.66875 
L 846.2 63.66875 
Q 848.2 63.66875 848.2 61.66875 
L 848.2 17.8 
Q 848.2 15.8 846.2 15.8 
L 786.279688 15.8 
Q 784.279688 15.8 784.279688 17.8 
L 784.279688 61.66875 
Q 784.279688 63.66875 786.279688 63.66875 
z
" style="fill: #ffffff; opacity: 0.8; stroke: #cccccc; stroke-linejoin: miter"/>
    </g>
    <g id="line2d_28">
     <path d="M 788.279688 23.898438 
L 798.279688 23.898438 
L 808.279688 23.898438 
" style="fill: none; stroke: #1f77b4; stroke-width: 1.5; stroke-linecap: square"/>
    </g>
    <g id="text_22">
     <!-- g_s_0 -->
     <g transform="translate(816.279688 27.398438) scale(0.1 -0.1)">
      <use xlink:href="#DejaVuSans-67"/>
      <use xlink:href="#DejaVuSans-5f" transform="translate(63.476562 0)"/>
      <use xlink:href="#DejaVuSans-73" transform="translate(113.476562 0)"/>
      <use xlink:href="#DejaVuSans-5f" transform="translate(165.576172 0)"/>
      <use xlink:href="#DejaVuSans-30" transform="translate(215.576172 0)"/>
     </g>
    </g>
    <g id="line2d_29">
     <path d="M 788.279688 38.854688 
L 798.279688 38.854688 
L 808.279688 38.854688 
" style="fill: none; stroke: #ff7f0e; stroke-width: 1.5; stroke-linecap: square"/>
    </g>
    <g id="text_23">
     <!-- g_s_1 -->
     <g transform="translate(816.279688 42.354688) scale(0.1 -0.1)">
      <use xlink:href="#DejaVuSans-67"/>
      <use xlink:href="#DejaVuSans-5f" transform="translate(63.476562 0)"/>
      <use xlink:href="#DejaVuSans-73" transform="translate(113.476562 0)"/>
      <use xlink:href="#DejaVuSans-5f" transform="translate(165.576172 0)"/>
      <use xlink:href="#DejaVuSans-31" transform="translate(215.576172 0)"/>
     </g>
    </g>
    <g id="line2d_30">
     <path d="M 788.279688 53.810937 
L 798.279688 53.810937 
L 808.279688 53.810937 
" style="fill: none; stroke: #2ca02c; stroke-width: 1.5; stroke-linecap: square"/>
    </g>
    <g id="text_24">
     <!-- g_s_2 -->
     <g transform="translate(816.279688 57.310937) scale(0.1 -0.1)">
      <use xlink:href="#DejaVuSans-67"/>
      <use xlink:href="#DejaVuSans-5f" transform="translate(63.476562 0)"/>
      <use xlink:href="#DejaVuSans-73" transform="translate(113.476562 0)"/>
      <use xlink:href="#DejaVuSans-5f" transform="translate(165.576172 0)"/>
      <use xlink:href="#DejaVuSans-32" transform="translate(215.576172 0)"/>
     </g>
    </g>
   </g>
  </g>
  <g id="axes_3">
   <g id="patch_14">
    <path d="M 24.98125 246.04 
L 426.6 246.04 
L 426.6 149.4 
L 24.98125 149.4 
z
" style="fill: #ffffff"/>
   </g>
   <g id="matplotlib.axis_5">
    <g id="xtick_15">
     <g id="line2d_31">
      <g>
       <use xlink:href="#ma6bf2d135b" x="24.98125" y="246.04" style="stroke: #000000; stroke-width: 0.8"/>
      </g>
     </g>
     <g id="text_25">
      <!-- −80 -->
      <g transform="translate(14.428906 260.638438) scale(0.1 -0.1)">
       <use xlink:href="#DejaVuSans-2212"/>
       <use xlink:href="#DejaVuSans-38" transform="translate(83.789062 0)"/>
       <use xlink:href="#DejaVuSans-30" transform="translate(147.412109 0)"/>
      </g>
     </g>
    </g>
    <g id="xtick_16">
     <g id="line2d_32">
      <g>
       <use xlink:href="#ma6bf2d135b" x="86.76875" y="246.04" style="stroke: #000000; stroke-width: 0.8"/>
      </g>
     </g>
     <g id="text_26">
      <!-- −60 -->
      <g transform="translate(76.216406 260.638438) scale(0.1 -0.1)">
       <use xlink:href="#DejaVuSans-2212"/>
       <use xlink:href="#DejaVuSans-36" transform="translate(83.789062 0)"/>
       <use xlink:href="#DejaVuSans-30" transform="translate(147.412109 0)"/>
      </g>
     </g>
    </g>
    <g id="xtick_17">
     <g id="line2d_33">
      <g>
       <use xlink:href="#ma6bf2d135b" x="148.55625" y="246.04" style="stroke: #000000; stroke-width: 0.8"/>
      </g>
     </g>
     <g id="text_27">
      <!-- −40 -->
      <g transform="translate(138.003906 260.638438) scale(0.1 -0.1)">
       <use xlink:href="#DejaVuSans-2212"/>
       <use xlink:href="#DejaVuSans-34" transform="translate(83.789062 0)"/>
       <use xlink:href="#DejaVuSans-30" transform="translate(147.412109 0)"/>
      </g>
     </g>
    </g>
    <g id="xtick_18">
     <g id="line2d_34">
      <g>
       <use xlink:href="#ma6bf2d135b" x="210.34375" y="246.04" style="stroke: #000000; stroke-width: 0.8"/>
      </g>
     </g>
     <g id="text_28">
      <!-- −20 -->
      <g transform="translate(199.791406 260.638438) scale(0.1 -0.1)">
       <use xlink:href="#DejaVuSans-2212"/>
       <use xlink:href="#DejaVuSans-32" transform="translate(83.789062 0)"/>
       <use xlink:href="#DejaVuSans-30" transform="translate(147.412109 0)"/>
      </g>
     </g>
    </g>
    <g id="xtick_19">
     <g id="line2d_35">
      <g>
       <use xlink:href="#ma6bf2d135b" x="272.13125" y="246.04" style="stroke: #000000; stroke-width: 0.8"/>
      </g>
     </g>
     <g id="text_29">
      <!-- 0 -->
      <g transform="translate(268.95 260.638438) scale(0.1 -0.1)">
       <use xlink:href="#DejaVuSans-30"/>
      </g>
     </g>
    </g>
    <g id="xtick_20">
     <g id="line2d_36">
      <g>
       <use xlink:href="#ma6bf2d135b" x="333.91875" y="246.04" style="stroke: #000000; stroke-width: 0.8"/>
      </g>
     </g>
     <g id="text_30">
      <!-- 20 -->
      <g transform="translate(327.55625 260.638438) scale(0.1 -0.1)">
       <use xlink:href="#DejaVuSans-32"/>
       <use xlink:href="#DejaVuSans-30" transform="translate(63.623047 0)"/>
      </g>
     </g>
    </g>
    <g id="xtick_21">
     <g id="line2d_37">
      <g>
       <use xlink:href="#ma6bf2d135b" x="395.70625" y="246.04" style="stroke: #000000; stroke-width: 0.8"/>
      </g>
     </g>
     <g id="text_31">
      <!-- 40 -->
      <g transform="translate(389.34375 260.638438) scale(0.1 -0.1)">
       <use xlink:href="#DejaVuSans-34"/>
       <use xlink:href="#DejaVuSans-30" transform="translate(63.623047 0)"/>
      </g>
     </g>
    </g>
    <g id="text_32">
     <!-- V (mV) -->
     <g transform="translate(208.589062 274.316562) scale(0.1 -0.1)">
      <use xlink:href="#DejaVuSans-56"/>
      <use xlink:href="#DejaVuSans-20" transform="translate(68.408203 0)"/>
      <use xlink:href="#DejaVuSans-28" transform="translate(100.195312 0)"/>
      <use xlink:href="#DejaVuSans-6d" transform="translate(139.208984 0)"/>
      <use xlink:href="#DejaVuSans-56" transform="translate(236.621094 0)"/>
      <use xlink:href="#DejaVuSans-29" transform="translate(305.029297 0)"/>
     </g>
    </g>
   </g>
   <g id="matplotlib.axis_6">
    <g id="text_33">
     <!-- g_u (mS/cm^2) -->
     <g transform="translate(18.623437 236.773125) rotate(-90) scale(0.1 -0.1)">
      <defs>
       <path id="DejaVuSans-75" d="M 544 1381 
L 544 3500 
L 1119 3500 
L 1119 1403 
Q 1119 906 1312 657 
Q 1506 409 1894 409 
Q 2359 409 2629 706 
Q 2900 1003 2900 1516 
L 2900 3500 
L 3475 3500 
L 3475 0 
L 2900 0 
L 2900 538 
Q 2691 219 2414 64 
Q 2138 -91 1772 -91 
Q 1169 -91 856 284 
Q 544 659 544 1381 
z
M 1991 3584 
L 1991 3584 
z
" transform="scale(0.015625)"/>
      </defs>
      <use xlink:href="#DejaVuSans-67"/>
      <use xlink:href="#DejaVuSans-5f" transform="translate(63.476562 0)"/>
      <use xlink:href="#DejaVuSans-75" transform="translate(113.476562 0)"/>
      <use xlink:href="#DejaVuSans-20" transform="translate(176.855469 0)"/>
      <use xlink:href="#DejaVuSans-28" transform="translate(208.642578 0)"/>
      <use xlink:href="#DejaVuSans-6d" transform="translate(247.65625 0)"/>
      <use xlink:href="#DejaVuSans-53" transform="translate(345.068359 0)"/>
      <use xlink:href="#DejaVuSans-2f" transform="translate(408.544922 0)"/>
      <use xlink:href="#DejaVuSans-63" transform="translate(442.236328 0)"/>
      <use xlink:href="#DejaVuSans-6d" transform="translate(497.216797 0)"/>
      <use xlink:href="#DejaVuSans-5e" transform="translate(594.628906 0)"/>
      <use xlink:href="#DejaVuSans-32" transform="translate(678.417969 0)"/>
      <use xlink:href="#DejaVuSans-29" transform="translate(742.041016 0)"/>
     </g>
    </g>
   </g>
   <g id="line2d_38">
    <path d="M 24.98125 189.288243 
L 53.524725 189.090233 
L 72.01768 189.232767 
L 110.209653 189.570792 
L 134.3309 189.568328 
L 141.567274 189.357463 
L 146.391523 188.997432 
L 150.00971 188.525934 
L 153.225876 187.908528 
L 156.442042 187.065227 
L 159.658208 185.968353 
L 162.874374 184.603081 
L 166.090541 182.967074 
L 169.306707 181.067948 
L 172.522873 178.920734 
L 176.14106 176.235721 
L 180.161268 172.968706 
L 185.387538 168.413324 
L 193.829974 161.031829 
L 197.04614 158.528794 
L 199.458265 156.887691 
L 201.870389 155.52209 
L 203.880493 154.646497 
L 205.488576 154.149734 
L 207.096659 153.859785 
L 208.704742 153.801084 
L 210.312825 153.998404 
L 211.920908 154.476499 
L 213.528991 155.259651 
L 215.137075 156.371118 
L 216.745158 157.832474 
L 218.353241 159.662819 
L 219.961324 161.877877 
L 221.569407 164.488967 
L 223.17749 167.501868 
L 225.187594 171.830787 
L 227.197698 176.765446 
L 229.207802 182.262403 
L 231.619926 189.499764 
L 234.836092 199.931494 
L 241.268425 221.022338 
L 243.278529 226.861322 
L 244.886612 231.014199 
L 246.494695 234.593131 
L 247.700757 236.844977 
L 248.906819 238.68981 
L 250.112882 240.102142 
L 250.916923 240.794353 
L 251.720965 241.283195 
L 252.525006 241.567333 
L 253.329048 241.647273 
L 254.133089 241.525381 
L 254.937131 241.205878 
L 255.741172 240.694794 
L 256.947235 239.586406 
L 258.153297 238.097833 
L 259.359359 236.269283 
L 260.967442 233.382677 
L 262.977546 229.224594 
L 266.193712 221.883702 
L 270.21392 212.76891 
L 272.626045 207.870038 
L 274.636149 204.278701 
L 276.646253 201.182179 
L 278.254336 199.064804 
L 279.862419 197.254688 
L 281.470502 195.730507 
L 283.078585 194.46513 
L 285.088689 193.201295 
L 287.098793 192.234514 
L 289.108896 191.507653 
L 291.521021 190.880755 
L 294.335166 190.396025 
L 297.953353 190.029245 
L 302.777603 189.79281 
L 310.818018 189.664966 
L 332.92916 189.631205 
L 426.6 189.631735 
L 426.6 189.631735 
" clip-path="url(#p9537c2965b)" style="fill: none; stroke: #1f77b4; stroke-width: 1.5; stroke-linecap: square"/>
   </g>
   <g id="line2d_39">
    <path d="M 24.98125 189.266046 
L 52.720683 189.054137 
L 70.007576 189.182311 
L 111.415716 189.574374 
L 136.743024 189.581531 
L 144.381419 189.377406 
L 149.607689 189.016169 
L 153.627897 188.518718 
L 157.246084 187.839049 
L 160.46225 187.005337 
L 163.678416 185.925116 
L 166.894582 184.583309 
L 170.110748 182.98199 
L 173.326914 181.141072 
L 177.347122 178.560345 
L 182.975413 174.624037 
L 189.407745 170.161226 
L 192.623911 168.192202 
L 195.036036 166.935685 
L 197.448161 165.93703 
L 199.458265 165.349878 
L 201.468368 165.028281 
L 203.076451 164.989498 
L 204.684535 165.167191 
L 206.292618 165.581125 
L 207.900701 166.249748 
L 209.508784 167.189533 
L 211.116867 168.41423 
L 212.72495 169.934031 
L 214.333033 171.754667 
L 215.941116 173.876452 
L 217.95122 176.942249 
L 219.961324 180.440432 
L 222.373448 185.139251 
L 225.187594 191.148151 
L 233.228009 208.711527 
L 235.238113 212.432753 
L 236.846196 215.011484 
L 238.454279 217.166254 
L 239.660342 218.472337 
L 240.866404 219.494051 
L 242.072466 220.220487 
L 243.278529 220.646658 
L 244.484591 220.773755 
L 245.690653 220.609185 
L 246.896715 220.166375 
L 248.102778 219.464349 
L 249.30884 218.527079 
L 250.916923 216.960487 
L 252.927027 214.599456 
L 255.339152 211.38296 
L 261.771484 202.603235 
L 264.183609 199.771781 
L 266.193712 197.725139 
L 268.203816 195.980133 
L 270.21392 194.530244 
L 272.224024 193.353716 
L 274.234128 192.419462 
L 276.646253 191.568328 
L 279.058377 190.953916 
L 281.872523 190.462321 
L 285.490709 190.076254 
L 290.314959 189.816938 
L 297.953353 189.673647 
L 316.446309 189.630912 
L 426.6 189.631736 
L 426.6 189.631736 
" clip-path="url(#p9537c2965b)" style="fill: none; stroke: #ff7f0e; stroke-width: 1.5; stroke-linecap: square"/>
   </g>
   <g id="line2d_40">
    <path d="M 24.98125 189.233766 
L 51.916642 189.002552 
L 68.399493 189.121975 
L 113.82784 189.584634 
L 134.3309 189.573291 
L 141.567274 189.357029 
L 146.793544 188.978561 
L 150.813751 188.474561 
L 154.431938 187.804307 
L 157.648104 186.998795 
L 160.864271 185.969878 
L 164.080437 184.701946 
L 167.296603 183.189863 
L 170.512769 181.438828 
L 174.130956 179.202151 
L 178.151164 176.428285 
L 182.975413 172.800712 
L 193.829974 164.496892 
L 197.04614 162.388769 
L 199.458265 161.047825 
L 201.468368 160.136909 
L 203.478472 159.454513 
L 205.488576 159.040913 
L 207.096659 158.931549 
L 208.704742 159.042573 
L 210.312825 159.395632 
L 211.920908 160.011926 
L 213.528991 160.911716 
L 215.137075 162.113735 
L 216.745158 163.634493 
L 218.353241 165.487479 
L 219.961324 167.682257 
L 221.569407 170.223477 
L 223.579511 173.884501 
L 225.589615 178.065805 
L 227.599718 182.728407 
L 230.011843 188.869181 
L 233.228009 197.714477 
L 239.258321 214.491714 
L 241.670445 220.438452 
L 243.278529 223.915238 
L 244.886612 226.899656 
L 246.092674 228.768927 
L 247.298736 230.292278 
L 248.504799 231.449433 
L 249.710861 232.226857 
L 250.514902 232.530821 
L 251.318944 232.663202 
L 252.122985 232.625643 
L 252.927027 232.421339 
L 254.133089 231.812972 
L 255.339152 230.862442 
L 256.545214 229.598534 
L 258.153297 227.486322 
L 259.76138 224.973258 
L 261.771484 221.425886 
L 266.595733 212.227472 
L 269.409879 207.157397 
L 271.822003 203.304251 
L 273.832107 200.52375 
L 275.842211 198.156809 
L 277.852315 196.193694 
L 279.862419 194.604009 
L 281.872523 193.344709 
L 283.882626 192.367029 
L 285.89273 191.621824 
L 288.304855 190.970244 
L 291.119 190.459045 
L 294.737187 190.066262 
L 299.561436 189.808986 
L 307.199831 189.670937 
L 326.496828 189.630979 
L 426.6 189.631735 
L 426.6 189.631735 
" clip-path="url(#p9537c2965b)" style="fill: none; stroke: #2ca02c; stroke-width: 1.5; stroke-linecap: square"/>
   </g>
   <g id="line2d_41">
    <path d="M 24.98125 189.631739 
L 426.6 189.631739 
" clip-path="url(#p9537c2965b)" style="fill: none; stroke: #000000; stroke-width: 0.5; stroke-linecap: square"/>
   </g>
   <g id="line2d_42">
    <path d="M 114.573125 246.04 
L 114.573125 149.4 
" clip-path="url(#p9537c2965b)" style="fill: none; stroke: #ff0000; stroke-width: 0.5; stroke-linecap: square"/>
   </g>
   <g id="patch_15">
    <path d="M 24.98125 246.04 
L 24.98125 149.4 
" style="fill: none; stroke: #000000; stroke-width: 0.8; stroke-linejoin: miter; stroke-linecap: square"/>
   </g>
   <g id="patch_16">
    <path d="M 426.6 246.04 
L 426.6 149.4 
" style="fill: none; stroke: #000000; stroke-width: 0.8; stroke-linejoin: miter; stroke-linecap: square"/>
   </g>
   <g id="patch_17">
    <path d="M 24.98125 246.04 
L 426.6 246.04 
" style="fill: none; stroke: #000000; stroke-width: 0.8; stroke-linejoin: miter; stroke-linecap: square"/>
   </g>
   <g id="patch_18">
    <path d="M 24.98125 149.4 
L 426.6 149.4 
" style="fill: none; stroke: #000000; stroke-width: 0.8; stroke-linejoin: miter; stroke-linecap: square"/>
   </g>
   <g id="legend_3">
    <g id="patch_19">
     <path d="M 31.98125 241.04 
L 93.029687 241.04 
Q 95.029687 241.04 95.029687 239.04 
L 95.029687 195.17125 
Q 95.029687 193.17125 93.029687 193.17125 
L 31.98125 193.17125 
Q 29.98125 193.17125 29.98125 195.17125 
L 29.98125 239.04 
Q 29.98125 241.04 31.98125 241.04 
z
" style="fill: #ffffff; opacity: 0.8; stroke: #cccccc; stroke-linejoin: miter"/>
    </g>
    <g id="line2d_43">
     <path d="M 33.98125 201.269687 
L 43.98125 201.269687 
L 53.98125 201.269687 
" style="fill: none; stroke: #1f77b4; stroke-width: 1.5; stroke-linecap: square"/>
    </g>
    <g id="text_34">
     <!-- g_u_0 -->
     <g transform="translate(61.98125 204.769687) scale(0.1 -0.1)">
      <use xlink:href="#DejaVuSans-67"/>
      <use xlink:href="#DejaVuSans-5f" transform="translate(63.476562 0)"/>
      <use xlink:href="#DejaVuSans-75" transform="translate(113.476562 0)"/>
      <use xlink:href="#DejaVuSans-5f" transform="translate(176.855469 0)"/>
      <use xlink:href="#DejaVuSans-30" transform="translate(226.855469 0)"/>
     </g>
    </g>
    <g id="line2d_44">
     <path d="M 33.98125 216.225937 
L 43.98125 216.225937 
L 53.98125 216.225937 
" style="fill: none; stroke: #ff7f0e; stroke-width: 1.5; stroke-linecap: square"/>
    </g>
    <g id="text_35">
     <!-- g_u_1 -->
     <g transform="translate(61.98125 219.725937) scale(0.1 -0.1)">
      <use xlink:href="#DejaVuSans-67"/>
      <use xlink:href="#DejaVuSans-5f" transform="translate(63.476562 0)"/>
      <use xlink:href="#DejaVuSans-75" transform="translate(113.476562 0)"/>
      <use xlink:href="#DejaVuSans-5f" transform="translate(176.855469 0)"/>
      <use xlink:href="#DejaVuSans-31" transform="translate(226.855469 0)"/>
     </g>
    </g>
    <g id="line2d_45">
     <path d="M 33.98125 231.182187 
L 43.98125 231.182187 
L 53.98125 231.182187 
" style="fill: none; stroke: #2ca02c; stroke-width: 1.5; stroke-linecap: square"/>
    </g>
    <g id="text_36">
     <!-- g_u_2 -->
     <g transform="translate(61.98125 234.682187) scale(0.1 -0.1)">
      <use xlink:href="#DejaVuSans-67"/>
      <use xlink:href="#DejaVuSans-5f" transform="translate(63.476562 0)"/>
      <use xlink:href="#DejaVuSans-75" transform="translate(113.476562 0)"/>
      <use xlink:href="#DejaVuSans-5f" transform="translate(176.855469 0)"/>
      <use xlink:href="#DejaVuSans-32" transform="translate(226.855469 0)"/>
     </g>
    </g>
   </g>
  </g>
  <g id="axes_4">
   <g id="patch_20">
    <path d="M 451.58125 246.04 
L 853.2 246.04 
L 853.2 149.4 
L 451.58125 149.4 
z
" style="fill: #ffffff"/>
   </g>
   <g id="matplotlib.axis_7">
    <g id="xtick_22">
     <g id="line2d_46">
      <g>
       <use xlink:href="#ma6bf2d135b" x="451.58125" y="246.04" style="stroke: #000000; stroke-width: 0.8"/>
      </g>
     </g>
     <g id="text_37">
      <!-- −80 -->
      <g transform="translate(441.028906 260.638438) scale(0.1 -0.1)">
       <use xlink:href="#DejaVuSans-2212"/>
       <use xlink:href="#DejaVuSans-38" transform="translate(83.789062 0)"/>
       <use xlink:href="#DejaVuSans-30" transform="translate(147.412109 0)"/>
      </g>
     </g>
    </g>
    <g id="xtick_23">
     <g id="line2d_47">
      <g>
       <use xlink:href="#ma6bf2d135b" x="513.36875" y="246.04" style="stroke: #000000; stroke-width: 0.8"/>
      </g>
     </g>
     <g id="text_38">
      <!-- −60 -->
      <g transform="translate(502.816406 260.638438) scale(0.1 -0.1)">
       <use xlink:href="#DejaVuSans-2212"/>
       <use xlink:href="#DejaVuSans-36" transform="translate(83.789062 0)"/>
       <use xlink:href="#DejaVuSans-30" transform="translate(147.412109 0)"/>
      </g>
     </g>
    </g>
    <g id="xtick_24">
     <g id="line2d_48">
      <g>
       <use xlink:href="#ma6bf2d135b" x="575.15625" y="246.04" style="stroke: #000000; stroke-width: 0.8"/>
      </g>
     </g>
     <g id="text_39">
      <!-- −40 -->
      <g transform="translate(564.603906 260.638438) scale(0.1 -0.1)">
       <use xlink:href="#DejaVuSans-2212"/>
       <use xlink:href="#DejaVuSans-34" transform="translate(83.789062 0)"/>
       <use xlink:href="#DejaVuSans-30" transform="translate(147.412109 0)"/>
      </g>
     </g>
    </g>
    <g id="xtick_25">
     <g id="line2d_49">
      <g>
       <use xlink:href="#ma6bf2d135b" x="636.94375" y="246.04" style="stroke: #000000; stroke-width: 0.8"/>
      </g>
     </g>
     <g id="text_40">
      <!-- −20 -->
      <g transform="translate(626.391406 260.638438) scale(0.1 -0.1)">
       <use xlink:href="#DejaVuSans-2212"/>
       <use xlink:href="#DejaVuSans-32" transform="translate(83.789062 0)"/>
       <use xlink:href="#DejaVuSans-30" transform="translate(147.412109 0)"/>
      </g>
     </g>
    </g>
    <g id="xtick_26">
     <g id="line2d_50">
      <g>
       <use xlink:href="#ma6bf2d135b" x="698.73125" y="246.04" style="stroke: #000000; stroke-width: 0.8"/>
      </g>
     </g>
     <g id="text_41">
      <!-- 0 -->
      <g transform="translate(695.55 260.638438) scale(0.1 -0.1)">
       <use xlink:href="#DejaVuSans-30"/>
      </g>
     </g>
    </g>
    <g id="xtick_27">
     <g id="line2d_51">
      <g>
       <use xlink:href="#ma6bf2d135b" x="760.51875" y="246.04" style="stroke: #000000; stroke-width: 0.8"/>
      </g>
     </g>
     <g id="text_42">
      <!-- 20 -->
      <g transform="translate(754.15625 260.638438) scale(0.1 -0.1)">
       <use xlink:href="#DejaVuSans-32"/>
       <use xlink:href="#DejaVuSans-30" transform="translate(63.623047 0)"/>
      </g>
     </g>
    </g>
    <g id="xtick_28">
     <g id="line2d_52">
      <g>
       <use xlink:href="#ma6bf2d135b" x="822.30625" y="246.04" style="stroke: #000000; stroke-width: 0.8"/>
      </g>
     </g>
     <g id="text_43">
      <!-- 40 -->
      <g transform="translate(815.94375 260.638438) scale(0.1 -0.1)">
       <use xlink:href="#DejaVuSans-34"/>
       <use xlink:href="#DejaVuSans-30" transform="translate(63.623047 0)"/>
      </g>
     </g>
    </g>
    <g id="text_44">
     <!-- V (mV) -->
     <g transform="translate(635.189062 274.316562) scale(0.1 -0.1)">
      <use xlink:href="#DejaVuSans-56"/>
      <use xlink:href="#DejaVuSans-20" transform="translate(68.408203 0)"/>
      <use xlink:href="#DejaVuSans-28" transform="translate(100.195312 0)"/>
      <use xlink:href="#DejaVuSans-6d" transform="translate(139.208984 0)"/>
      <use xlink:href="#DejaVuSans-56" transform="translate(236.621094 0)"/>
      <use xlink:href="#DejaVuSans-29" transform="translate(305.029297 0)"/>
     </g>
    </g>
   </g>
   <g id="matplotlib.axis_8">
    <g id="text_45">
     <!-- g_t (mS/cm^2) -->
     <g transform="translate(445.223437 235.564531) rotate(-90) scale(0.1 -0.1)">
      <defs>
       <path id="DejaVuSans-74" d="M 1172 4494 
L 1172 3500 
L 2356 3500 
L 2356 3053 
L 1172 3053 
L 1172 1153 
Q 1172 725 1289 603 
Q 1406 481 1766 481 
L 2356 481 
L 2356 0 
L 1766 0 
Q 1100 0 847 248 
Q 594 497 594 1153 
L 594 3053 
L 172 3053 
L 172 3500 
L 594 3500 
L 594 4494 
L 1172 4494 
z
" transform="scale(0.015625)"/>
      </defs>
      <use xlink:href="#DejaVuSans-67"/>
      <use xlink:href="#DejaVuSans-5f" transform="translate(63.476562 0)"/>
      <use xlink:href="#DejaVuSans-74" transform="translate(113.476562 0)"/>
      <use xlink:href="#DejaVuSans-20" transform="translate(152.685547 0)"/>
      <use xlink:href="#DejaVuSans-28" transform="translate(184.472656 0)"/>
      <use xlink:href="#DejaVuSans-6d" transform="translate(223.486328 0)"/>
      <use xlink:href="#DejaVuSans-53" transform="translate(320.898438 0)"/>
      <use xlink:href="#DejaVuSans-2f" transform="translate(384.375 0)"/>
      <use xlink:href="#DejaVuSans-63" transform="translate(418.066406 0)"/>
      <use xlink:href="#DejaVuSans-6d" transform="translate(473.046875 0)"/>
      <use xlink:href="#DejaVuSans-5e" transform="translate(570.458984 0)"/>
      <use xlink:href="#DejaVuSans-32" transform="translate(654.248047 0)"/>
      <use xlink:href="#DejaVuSans-29" transform="translate(717.871094 0)"/>
     </g>
    </g>
   </g>
   <g id="line2d_53">
    <path d="M 451.58125 234.403755 
L 494.195452 234.410162 
L 557.714733 234.761495 
L 567.765253 235.094498 
L 577.413751 235.633575 
L 585.052146 236.261742 
L 591.082457 236.974391 
L 598.720852 237.901325 
L 601.534997 237.982436 
L 603.545101 237.830658 
L 605.555205 237.43029 
L 607.163288 236.884929 
L 608.771371 236.102528 
L 610.379454 235.05235 
L 611.987538 233.709272 
L 613.595621 232.056058 
L 615.203704 230.085417 
L 616.811787 227.801635 
L 618.821891 224.533505 
L 621.234015 220.090168 
L 624.048161 214.395675 
L 630.480493 201.130102 
L 632.892618 196.765893 
L 634.902721 193.628597 
L 636.510805 191.515445 
L 638.118888 189.79686 
L 639.32495 188.784487 
L 640.531012 188.019117 
L 641.737075 187.50667 
L 642.943137 187.250424 
L 644.149199 187.251179 
L 645.355262 187.50741 
L 646.561324 188.015411 
L 647.767386 188.769405 
L 648.973448 189.761614 
L 650.581532 191.437999 
L 652.189615 193.491788 
L 653.797698 195.887995 
L 655.807802 199.300466 
L 658.219926 203.876197 
L 662.240134 212.117369 
L 665.4563 218.575229 
L 667.466404 222.210045 
L 669.074487 224.748153 
L 670.68257 226.859338 
L 671.888632 228.111485 
L 673.094695 229.043896 
L 674.300757 229.628906 
L 675.104799 229.814597 
L 675.90884 229.830635 
L 676.712882 229.673173 
L 677.516923 229.339767 
L 678.320965 228.829445 
L 679.527027 227.733872 
L 680.733089 226.250226 
L 681.939152 224.394677 
L 683.547235 221.38395 
L 685.155318 217.829479 
L 687.165422 212.763749 
L 689.577546 206.047434 
L 697.215941 184.205143 
L 699.628066 178.182617 
L 701.638169 173.712163 
L 703.648273 169.776975 
L 705.658377 166.378359 
L 707.668481 163.494341 
L 709.276564 161.532984 
L 710.884647 159.854322 
L 712.49273 158.433983 
L 714.502834 156.984943 
L 716.512938 155.856921 
L 718.523042 155.009646 
L 720.533146 154.408067 
L 722.543249 154.02232 
L 724.955374 153.809161 
L 727.367499 153.834676 
L 729.779623 154.069182 
L 732.593769 154.573838 
L 735.407914 155.295254 
L 738.62408 156.347329 
L 742.242267 157.774208 
L 746.262475 159.602595 
L 751.086724 162.049362 
L 757.519057 165.585898 
L 780.03222 178.200949 
L 786.866573 181.645223 
L 792.896884 184.445973 
L 798.927196 187.009336 
L 804.957508 189.333334 
L 810.987819 191.423803 
L 817.420151 193.408845 
L 823.852484 195.158492 
L 830.686837 196.781807 
L 837.923211 198.262943 
L 845.561605 199.592543 
L 853.2 200.713579 
L 853.2 200.713579 
" clip-path="url(#pc1f2e08f9d)" style="fill: none; stroke: #1f77b4; stroke-width: 1.5; stroke-linecap: square"/>
   </g>
   <g id="line2d_54">
    <path d="M 451.58125 234.393894 
L 492.989389 234.395992 
L 556.508671 234.751186 
L 564.951107 235.051256 
L 571.38344 235.483974 
L 577.01173 236.077207 
L 582.238001 236.855724 
L 587.06225 237.792977 
L 593.092561 239.214445 
L 598.720852 240.501368 
L 601.534997 240.909671 
L 603.545101 240.999805 
L 605.555205 240.850664 
L 607.163288 240.514483 
L 608.771371 239.949815 
L 610.379454 239.127198 
L 611.987538 238.022983 
L 613.595621 236.62172 
L 615.203704 234.918319 
L 616.811787 232.919764 
L 618.821891 230.038436 
L 621.234015 226.113617 
L 624.450181 220.386071 
L 628.87241 212.527364 
L 631.284535 208.740882 
L 632.892618 206.562512 
L 634.500701 204.726606 
L 636.108784 203.277296 
L 637.314846 202.46369 
L 638.520908 201.894476 
L 639.726971 201.574246 
L 640.933033 201.503487 
L 642.139095 201.678673 
L 643.345158 202.092397 
L 644.55122 202.733537 
L 645.757282 203.587443 
L 647.365365 205.025454 
L 648.973448 206.758387 
L 650.983552 209.247456 
L 654.199718 213.655081 
L 657.817905 218.556554 
L 659.828009 220.927321 
L 661.436092 222.509919 
L 663.044175 223.736648 
L 664.250238 224.386212 
L 665.4563 224.780129 
L 666.662362 224.901897 
L 667.868425 224.740102 
L 669.074487 224.288798 
L 670.280549 223.547722 
L 671.486612 222.522347 
L 672.692674 221.223731 
L 674.300757 219.09608 
L 675.90884 216.563616 
L 677.918944 212.926055 
L 680.331069 208.056165 
L 685.557339 196.766999 
L 689.175526 189.282429 
L 691.989671 184.016136 
L 694.401796 179.982507 
L 696.81392 176.413924 
L 699.226045 173.2998 
L 701.638169 170.611942 
L 704.050294 168.314281 
L 706.462419 166.3697 
L 708.874543 164.744021 
L 711.286668 163.407712 
L 713.698793 162.336071 
L 716.110917 161.508558 
L 718.523042 160.907787 
L 720.935166 160.518511 
L 723.749312 160.313082 
L 726.563457 160.355455 
L 729.377603 160.624936 
L 732.191748 161.10082 
L 735.407914 161.870739 
L 739.026101 162.988049 
L 743.046309 164.490471 
L 747.468537 166.394344 
L 752.694807 168.889749 
L 760.333202 172.811922 
L 776.816054 181.340661 
L 784.052427 184.794924 
L 790.48476 187.630297 
L 796.917092 190.222038 
L 803.349424 192.563886 
L 809.781757 194.660011 
L 816.214089 196.521605 
L 823.048442 198.260021 
L 829.882795 199.772812 
L 837.119169 201.153858 
L 845.159585 202.453854 
L 853.2 203.540374 
L 853.2 203.540374 
" clip-path="url(#pc1f2e08f9d)" style="fill: none; stroke: #ff7f0e; stroke-width: 1.5; stroke-linecap: square"/>
   </g>
   <g id="line2d_55">
    <path d="M 451.58125 234.379553 
L 491.783327 234.376846 
L 556.10665 234.746136 
L 565.353128 235.057664 
L 572.187481 235.496343 
L 577.815772 236.073697 
L 582.640021 236.796026 
L 587.06225 237.698273 
L 591.484478 238.84224 
L 600.328935 241.24656 
L 602.74106 241.592928 
L 604.751164 241.628262 
L 606.359247 241.434937 
L 607.96733 241.001311 
L 609.575413 240.289834 
L 611.183496 239.267939 
L 612.791579 237.910689 
L 614.399662 236.203279 
L 616.007745 234.143185 
L 617.615828 231.741701 
L 619.625932 228.300566 
L 622.038057 223.639496 
L 625.254223 216.861481 
L 630.078472 206.717684 
L 632.490597 202.230607 
L 634.500701 199.019798 
L 636.108784 196.874996 
L 637.716867 195.153175 
L 638.922929 194.158296 
L 640.128991 193.427712 
L 641.335054 192.966903 
L 642.541116 192.778143 
L 643.747178 192.860706 
L 644.953241 193.21107 
L 646.159303 193.823119 
L 647.365365 194.688317 
L 648.571428 195.795858 
L 650.179511 197.626841 
L 651.787594 199.82887 
L 653.797698 203.037164 
L 656.209822 207.42414 
L 659.425988 213.851129 
L 664.250238 223.563903 
L 666.260342 227.191868 
L 667.868425 229.752868 
L 669.476508 231.924446 
L 670.68257 233.253985 
L 671.888632 234.297345 
L 673.094695 235.032248 
L 674.300757 235.441406 
L 675.104799 235.527214 
L 675.90884 235.461011 
L 676.712882 235.242134 
L 677.918944 234.629331 
L 679.125006 233.682526 
L 680.331069 232.416046 
L 681.537131 230.850466 
L 683.145214 228.343859 
L 684.753297 225.428077 
L 686.763401 221.340498 
L 689.979567 214.207051 
L 694.803816 203.511901 
L 697.215941 198.673867 
L 699.628066 194.368043 
L 701.638169 191.231062 
L 703.648273 188.510623 
L 705.658377 186.191518 
L 707.668481 184.245359 
L 709.678585 182.636571 
L 711.688689 181.327162 
L 713.698793 180.280117 
L 715.708896 179.461498 
L 718.121021 178.738977 
L 720.533146 178.259353 
L 722.94527 177.987629 
L 725.759416 177.896261 
L 728.573561 178.014408 
L 731.789727 178.369677 
L 735.407914 179.008549 
L 739.428122 179.965749 
L 743.85035 181.260251 
L 749.07662 183.035645 
L 755.910973 185.619065 
L 783.650407 196.395251 
L 790.886781 198.832602 
L 798.123154 201.033734 
L 805.359528 202.993416 
L 812.595902 204.718339 
L 820.234297 206.300166 
L 827.872691 207.657986 
L 836.315128 208.926923 
L 845.159585 210.029447 
L 853.2 210.859574 
L 853.2 210.859574 
" clip-path="url(#pc1f2e08f9d)" style="fill: none; stroke: #2ca02c; stroke-width: 1.5; stroke-linecap: square"/>
   </g>
   <g id="line2d_56">
    <path d="M 451.58125 234.558746 
L 853.2 234.558746 
" clip-path="url(#pc1f2e08f9d)" style="fill: none; stroke: #000000; stroke-width: 0.5; stroke-linecap: square"/>
   </g>
   <g id="line2d_57">
    <path d="M 541.173125 246.04 
L 541.173125 149.4 
" clip-path="url(#pc1f2e08f9d)" style="fill: none; stroke: #ff0000; stroke-width: 0.5; stroke-linecap: square"/>
   </g>
   <g id="patch_21">
    <path d="M 451.58125 246.04 
L 451.58125 149.4 
" style="fill: none; stroke: #000000; stroke-width: 0.8; stroke-linejoin: miter; stroke-linecap: square"/>
   </g>
   <g id="patch_22">
    <path d="M 853.2 246.04 
L 853.2 149.4 
" style="fill: none; stroke: #000000; stroke-width: 0.8; stroke-linejoin: miter; stroke-linecap: square"/>
   </g>
   <g id="patch_23">
    <path d="M 451.58125 246.04 
L 853.2 246.04 
" style="fill: none; stroke: #000000; stroke-width: 0.8; stroke-linejoin: miter; stroke-linecap: square"/>
   </g>
   <g id="patch_24">
    <path d="M 451.58125 149.4 
L 853.2 149.4 
" style="fill: none; stroke: #000000; stroke-width: 0.8; stroke-linejoin: miter; stroke-linecap: square"/>
   </g>
   <g id="legend_4">
    <g id="patch_25">
     <path d="M 458.58125 202.26875 
L 517.2125 202.26875 
Q 519.2125 202.26875 519.2125 200.26875 
L 519.2125 156.4 
Q 519.2125 154.4 517.2125 154.4 
L 458.58125 154.4 
Q 456.58125 154.4 456.58125 156.4 
L 456.58125 200.26875 
Q 456.58125 202.26875 458.58125 202.26875 
z
" style="fill: #ffffff; opacity: 0.8; stroke: #cccccc; stroke-linejoin: miter"/>
    </g>
    <g id="line2d_58">
     <path d="M 460.58125 162.498437 
L 470.58125 162.498437 
L 480.58125 162.498437 
" style="fill: none; stroke: #1f77b4; stroke-width: 1.5; stroke-linecap: square"/>
    </g>
    <g id="text_46">
     <!-- g_t_0 -->
     <g transform="translate(488.58125 165.998437) scale(0.1 -0.1)">
      <use xlink:href="#DejaVuSans-67"/>
      <use xlink:href="#DejaVuSans-5f" transform="translate(63.476562 0)"/>
      <use xlink:href="#DejaVuSans-74" transform="translate(113.476562 0)"/>
      <use xlink:href="#DejaVuSans-5f" transform="translate(152.685547 0)"/>
      <use xlink:href="#DejaVuSans-30" transform="translate(202.685547 0)"/>
     </g>
    </g>
    <g id="line2d_59">
     <path d="M 460.58125 177.454687 
L 470.58125 177.454687 
L 480.58125 177.454687 
" style="fill: none; stroke: #ff7f0e; stroke-width: 1.5; stroke-linecap: square"/>
    </g>
    <g id="text_47">
     <!-- g_t_1 -->
     <g transform="translate(488.58125 180.954687) scale(0.1 -0.1)">
      <use xlink:href="#DejaVuSans-67"/>
      <use xlink:href="#DejaVuSans-5f" transform="translate(63.476562 0)"/>
      <use xlink:href="#DejaVuSans-74" transform="translate(113.476562 0)"/>
      <use xlink:href="#DejaVuSans-5f" transform="translate(152.685547 0)"/>
      <use xlink:href="#DejaVuSans-31" transform="translate(202.685547 0)"/>
     </g>
    </g>
    <g id="line2d_60">
     <path d="M 460.58125 192.410937 
L 470.58125 192.410937 
L 480.58125 192.410937 
" style="fill: none; stroke: #2ca02c; stroke-width: 1.5; stroke-linecap: square"/>
    </g>
    <g id="text_48">
     <!-- g_t_2 -->
     <g transform="translate(488.58125 195.910937) scale(0.1 -0.1)">
      <use xlink:href="#DejaVuSans-67"/>
      <use xlink:href="#DejaVuSans-5f" transform="translate(63.476562 0)"/>
      <use xlink:href="#DejaVuSans-74" transform="translate(113.476562 0)"/>
      <use xlink:href="#DejaVuSans-5f" transform="translate(152.685547 0)"/>
      <use xlink:href="#DejaVuSans-32" transform="translate(202.685547 0)"/>
     </g>
    </g>
   </g>
  </g>
 </g>
 <defs>
  <clipPath id="p01b290a520">
   <rect x="24.98125" y="10.8" width="401.61875" height="96.64"/>
  </clipPath>
  <clipPath id="pd24e018df8">
   <rect x="451.58125" y="10.8" width="401.61875" height="96.64"/>
  </clipPath>
  <clipPath id="p9537c2965b">
   <rect x="24.98125" y="149.4" width="401.61875" height="96.64"/>
  </clipPath>
  <clipPath id="pc1f2e08f9d">
   <rect x="451.58125" y="149.4" width="401.61875" height="96.64"/>
  </clipPath>
 </defs>
</svg>
