<?xml version="1.0" encoding="utf-8" standalone="no"?>
<!DOCTYPE svg PUBLIC "-//W3C//DTD SVG 1.1//EN"
  "http://www.w3.org/Graphics/SVG/1.1/DTD/svg11.dtd">
<svg xmlns:xlink="http://www.w3.org/1999/xlink" width="432pt" height="576pt" viewBox="0 0 432 576" xmlns="http://www.w3.org/2000/svg" version="1.1">
 <metadata>
  <rdf:RDF xmlns:dc="http://purl.org/dc/elements/1.1/" xmlns:cc="http://creativecommons.org/ns#" xmlns:rdf="http://www.w3.org/1999/02/22-rdf-syntax-ns#">
   <cc:Work>
    <dc:type rdf:resource="http://purl.org/dc/dcmitype/StillImage"/>
    <dc:date>2025-03-26T16:32:29.441161</dc:date>
    <dc:format>image/svg+xml</dc:format>
    <dc:creator>
     <cc:Agent>
      <dc:title>Matplotlib v3.10.0, https://matplotlib.org/</dc:title>
     </cc:Agent>
    </dc:creator>
   </cc:Work>
  </rdf:RDF>
 </metadata>
 <defs>
  <style type="text/css">*{stroke-linejoin: round; stroke-linecap: butt}</style>
 </defs>
 <g id="figure_1">
  <g id="patch_1">
   <path d="M 0 576 
L 432 576 
L 432 0 
L 0 0 
z
" style="fill: #ffffff"/>
  </g>
  <g id="axes_1">
   <g id="patch_2">
    <path d="M 53.03 251.44 
L 421.2 251.44 
L 421.2 10.8 
L 53.03 10.8 
z
" style="fill: #ffffff"/>
   </g>
   <g id="matplotlib.axis_1">
    <g id="xtick_1">
     <g id="line2d_1">
      <defs>
       <path id="md2abb2bf6a" d="M 0 0 
L 0 3.5 
" style="stroke: #000000; stroke-width: 0.8"/>
      </defs>
      <g>
       <use xlink:href="#md2abb2bf6a" x="93.673851" y="251.44" style="stroke: #000000; stroke-width: 0.8"/>
      </g>
     </g>
     <g id="text_1">
      <!-- 3100 -->
      <g transform="translate(80.948851 266.038437) scale(0.1 -0.1)">
       <defs>
        <path id="DejaVuSans-33" d="M 2597 2516 
Q 3050 2419 3304 2112 
Q 3559 1806 3559 1356 
Q 3559 666 3084 287 
Q 2609 -91 1734 -91 
Q 1441 -91 1130 -33 
Q 819 25 488 141 
L 488 750 
Q 750 597 1062 519 
Q 1375 441 1716 441 
Q 2309 441 2620 675 
Q 2931 909 2931 1356 
Q 2931 1769 2642 2001 
Q 2353 2234 1838 2234 
L 1294 2234 
L 1294 2753 
L 1863 2753 
Q 2328 2753 2575 2939 
Q 2822 3125 2822 3475 
Q 2822 3834 2567 4026 
Q 2313 4219 1838 4219 
Q 1578 4219 1281 4162 
Q 984 4106 628 3988 
L 628 4550 
Q 988 4650 1302 4700 
Q 1616 4750 1894 4750 
Q 2613 4750 3031 4423 
Q 3450 4097 3450 3541 
Q 3450 3153 3228 2886 
Q 3006 2619 2597 2516 
z
" transform="scale(0.015625)"/>
        <path id="DejaVuSans-31" d="M 794 531 
L 1825 531 
L 1825 4091 
L 703 3866 
L 703 4441 
L 1819 4666 
L 2450 4666 
L 2450 531 
L 3481 531 
L 3481 0 
L 794 0 
L 794 531 
z
" transform="scale(0.015625)"/>
        <path id="DejaVuSans-30" d="M 2034 4250 
Q 1547 4250 1301 3770 
Q 1056 3291 1056 2328 
Q 1056 1369 1301 889 
Q 1547 409 2034 409 
Q 2525 409 2770 889 
Q 3016 1369 3016 2328 
Q 3016 3291 2770 3770 
Q 2525 4250 2034 4250 
z
M 2034 4750 
Q 2819 4750 3233 4129 
Q 3647 3509 3647 2328 
Q 3647 1150 3233 529 
Q 2819 -91 2034 -91 
Q 1250 -91 836 529 
Q 422 1150 422 2328 
Q 422 3509 836 4129 
Q 1250 4750 2034 4750 
z
" transform="scale(0.015625)"/>
       </defs>
       <use xlink:href="#DejaVuSans-33"/>
       <use xlink:href="#DejaVuSans-31" transform="translate(63.623047 0)"/>
       <use xlink:href="#DejaVuSans-30" transform="translate(127.246094 0)"/>
       <use xlink:href="#DejaVuSans-30" transform="translate(190.869141 0)"/>
      </g>
     </g>
    </g>
    <g id="xtick_2">
     <g id="line2d_2">
      <g>
       <use xlink:href="#md2abb2bf6a" x="141.491552" y="251.44" style="stroke: #000000; stroke-width: 0.8"/>
      </g>
     </g>
     <g id="text_2">
      <!-- 3200 -->
      <g transform="translate(128.766552 266.038437) scale(0.1 -0.1)">
       <defs>
        <path id="DejaVuSans-32" d="M 1228 531 
L 3431 531 
L 3431 0 
L 469 0 
L 469 531 
Q 828 903 1448 1529 
Q 2069 2156 2228 2338 
Q 2531 2678 2651 2914 
Q 2772 3150 2772 3378 
Q 2772 3750 2511 3984 
Q 2250 4219 1831 4219 
Q 1534 4219 1204 4116 
Q 875 4013 500 3803 
L 500 4441 
Q 881 4594 1212 4672 
Q 1544 4750 1819 4750 
Q 2544 4750 2975 4387 
Q 3406 4025 3406 3419 
Q 3406 3131 3298 2873 
Q 3191 2616 2906 2266 
Q 2828 2175 2409 1742 
Q 1991 1309 1228 531 
z
" transform="scale(0.015625)"/>
       </defs>
       <use xlink:href="#DejaVuSans-33"/>
       <use xlink:href="#DejaVuSans-32" transform="translate(63.623047 0)"/>
       <use xlink:href="#DejaVuSans-30" transform="translate(127.246094 0)"/>
       <use xlink:href="#DejaVuSans-30" transform="translate(190.869141 0)"/>
      </g>
     </g>
    </g>
    <g id="xtick_3">
     <g id="line2d_3">
      <g>
       <use xlink:href="#md2abb2bf6a" x="189.309253" y="251.44" style="stroke: #000000; stroke-width: 0.8"/>
      </g>
     </g>
     <g id="text_3">
      <!-- 3300 -->
      <g transform="translate(176.584253 266.038437) scale(0.1 -0.1)">
       <use xlink:href="#DejaVuSans-33"/>
       <use xlink:href="#DejaVuSans-33" transform="translate(63.623047 0)"/>
       <use xlink:href="#DejaVuSans-30" transform="translate(127.246094 0)"/>
       <use xlink:href="#DejaVuSans-30" transform="translate(190.869141 0)"/>
      </g>
     </g>
    </g>
    <g id="xtick_4">
     <g id="line2d_4">
      <g>
       <use xlink:href="#md2abb2bf6a" x="237.126954" y="251.44" style="stroke: #000000; stroke-width: 0.8"/>
      </g>
     </g>
     <g id="text_4">
      <!-- 3400 -->
      <g transform="translate(224.401954 266.038437) scale(0.1 -0.1)">
       <defs>
        <path id="DejaVuSans-34" d="M 2419 4116 
L 825 1625 
L 2419 1625 
L 2419 4116 
z
M 2253 4666 
L 3047 4666 
L 3047 1625 
L 3713 1625 
L 3713 1100 
L 3047 1100 
L 3047 0 
L 2419 0 
L 2419 1100 
L 313 1100 
L 313 1709 
L 2253 4666 
z
" transform="scale(0.015625)"/>
       </defs>
       <use xlink:href="#DejaVuSans-33"/>
       <use xlink:href="#DejaVuSans-34" transform="translate(63.623047 0)"/>
       <use xlink:href="#DejaVuSans-30" transform="translate(127.246094 0)"/>
       <use xlink:href="#DejaVuSans-30" transform="translate(190.869141 0)"/>
      </g>
     </g>
    </g>
    <g id="xtick_5">
     <g id="line2d_5">
      <g>
       <use xlink:href="#md2abb2bf6a" x="284.944656" y="251.44" style="stroke: #000000; stroke-width: 0.8"/>
      </g>
     </g>
     <g id="text_5">
      <!-- 3500 -->
      <g transform="translate(272.219656 266.038437) scale(0.1 -0.1)">
       <defs>
        <path id="DejaVuSans-35" d="M 691 4666 
L 3169 4666 
L 3169 4134 
L 1269 4134 
L 1269 2991 
Q 1406 3038 1543 3061 
Q 1681 3084 1819 3084 
Q 2600 3084 3056 2656 
Q 3513 2228 3513 1497 
Q 3513 744 3044 326 
Q 2575 -91 1722 -91 
Q 1428 -91 1123 -41 
Q 819 9 494 109 
L 494 744 
Q 775 591 1075 516 
Q 1375 441 1709 441 
Q 2250 441 2565 725 
Q 2881 1009 2881 1497 
Q 2881 1984 2565 2268 
Q 2250 2553 1709 2553 
Q 1456 2553 1204 2497 
Q 953 2441 691 2322 
L 691 4666 
z
" transform="scale(0.015625)"/>
       </defs>
       <use xlink:href="#DejaVuSans-33"/>
       <use xlink:href="#DejaVuSans-35" transform="translate(63.623047 0)"/>
       <use xlink:href="#DejaVuSans-30" transform="translate(127.246094 0)"/>
       <use xlink:href="#DejaVuSans-30" transform="translate(190.869141 0)"/>
      </g>
     </g>
    </g>
    <g id="xtick_6">
     <g id="line2d_6">
      <g>
       <use xlink:href="#md2abb2bf6a" x="332.762357" y="251.44" style="stroke: #000000; stroke-width: 0.8"/>
      </g>
     </g>
     <g id="text_6">
      <!-- 3600 -->
      <g transform="translate(320.037357 266.038437) scale(0.1 -0.1)">
       <defs>
        <path id="DejaVuSans-36" d="M 2113 2584 
Q 1688 2584 1439 2293 
Q 1191 2003 1191 1497 
Q 1191 994 1439 701 
Q 1688 409 2113 409 
Q 2538 409 2786 701 
Q 3034 994 3034 1497 
Q 3034 2003 2786 2293 
Q 2538 2584 2113 2584 
z
M 3366 4563 
L 3366 3988 
Q 3128 4100 2886 4159 
Q 2644 4219 2406 4219 
Q 1781 4219 1451 3797 
Q 1122 3375 1075 2522 
Q 1259 2794 1537 2939 
Q 1816 3084 2150 3084 
Q 2853 3084 3261 2657 
Q 3669 2231 3669 1497 
Q 3669 778 3244 343 
Q 2819 -91 2113 -91 
Q 1303 -91 875 529 
Q 447 1150 447 2328 
Q 447 3434 972 4092 
Q 1497 4750 2381 4750 
Q 2619 4750 2861 4703 
Q 3103 4656 3366 4563 
z
" transform="scale(0.015625)"/>
       </defs>
       <use xlink:href="#DejaVuSans-33"/>
       <use xlink:href="#DejaVuSans-36" transform="translate(63.623047 0)"/>
       <use xlink:href="#DejaVuSans-30" transform="translate(127.246094 0)"/>
       <use xlink:href="#DejaVuSans-30" transform="translate(190.869141 0)"/>
      </g>
     </g>
    </g>
    <g id="xtick_7">
     <g id="line2d_7">
      <g>
       <use xlink:href="#md2abb2bf6a" x="380.580058" y="251.44" style="stroke: #000000; stroke-width: 0.8"/>
      </g>
     </g>
     <g id="text_7">
      <!-- 3700 -->
      <g transform="translate(367.855058 266.038437) scale(0.1 -0.1)">
       <defs>
        <path id="DejaVuSans-37" d="M 525 4666 
L 3525 4666 
L 3525 4397 
L 1831 0 
L 1172 0 
L 2766 4134 
L 525 4134 
L 525 4666 
z
" transform="scale(0.015625)"/>
       </defs>
       <use xlink:href="#DejaVuSans-33"/>
       <use xlink:href="#DejaVuSans-37" transform="translate(63.623047 0)"/>
       <use xlink:href="#DejaVuSans-30" transform="translate(127.246094 0)"/>
       <use xlink:href="#DejaVuSans-30" transform="translate(190.869141 0)"/>
      </g>
     </g>
    </g>
    <g id="text_8">
     <!-- Time (ms) -->
     <g transform="translate(211.915781 279.716563) scale(0.1 -0.1)">
      <defs>
       <path id="DejaVuSans-54" d="M -19 4666 
L 3928 4666 
L 3928 4134 
L 2272 4134 
L 2272 0 
L 1638 0 
L 1638 4134 
L -19 4134 
L -19 4666 
z
" transform="scale(0.015625)"/>
       <path id="DejaVuSans-69" d="M 603 3500 
L 1178 3500 
L 1178 0 
L 603 0 
L 603 3500 
z
M 603 4863 
L 1178 4863 
L 1178 4134 
L 603 4134 
L 603 4863 
z
" transform="scale(0.015625)"/>
       <path id="DejaVuSans-6d" d="M 3328 2828 
Q 3544 3216 3844 3400 
Q 4144 3584 4550 3584 
Q 5097 3584 5394 3201 
Q 5691 2819 5691 2113 
L 5691 0 
L 5113 0 
L 5113 2094 
Q 5113 2597 4934 2840 
Q 4756 3084 4391 3084 
Q 3944 3084 3684 2787 
Q 3425 2491 3425 1978 
L 3425 0 
L 2847 0 
L 2847 2094 
Q 2847 2600 2669 2842 
Q 2491 3084 2119 3084 
Q 1678 3084 1418 2786 
Q 1159 2488 1159 1978 
L 1159 0 
L 581 0 
L 581 3500 
L 1159 3500 
L 1159 2956 
Q 1356 3278 1631 3431 
Q 1906 3584 2284 3584 
Q 2666 3584 2933 3390 
Q 3200 3197 3328 2828 
z
" transform="scale(0.015625)"/>
       <path id="DejaVuSans-65" d="M 3597 1894 
L 3597 1613 
L 953 1613 
Q 991 1019 1311 708 
Q 1631 397 2203 397 
Q 2534 397 2845 478 
Q 3156 559 3463 722 
L 3463 178 
Q 3153 47 2828 -22 
Q 2503 -91 2169 -91 
Q 1331 -91 842 396 
Q 353 884 353 1716 
Q 353 2575 817 3079 
Q 1281 3584 2069 3584 
Q 2775 3584 3186 3129 
Q 3597 2675 3597 1894 
z
M 3022 2063 
Q 3016 2534 2758 2815 
Q 2500 3097 2075 3097 
Q 1594 3097 1305 2825 
Q 1016 2553 972 2059 
L 3022 2063 
z
" transform="scale(0.015625)"/>
       <path id="DejaVuSans-20" transform="scale(0.015625)"/>
       <path id="DejaVuSans-28" d="M 1984 4856 
Q 1566 4138 1362 3434 
Q 1159 2731 1159 2009 
Q 1159 1288 1364 580 
Q 1569 -128 1984 -844 
L 1484 -844 
Q 1016 -109 783 600 
Q 550 1309 550 2009 
Q 550 2706 781 3412 
Q 1013 4119 1484 4856 
L 1984 4856 
z
" transform="scale(0.015625)"/>
       <path id="DejaVuSans-73" d="M 2834 3397 
L 2834 2853 
Q 2591 2978 2328 3040 
Q 2066 3103 1784 3103 
Q 1356 3103 1142 2972 
Q 928 2841 928 2578 
Q 928 2378 1081 2264 
Q 1234 2150 1697 2047 
L 1894 2003 
Q 2506 1872 2764 1633 
Q 3022 1394 3022 966 
Q 3022 478 2636 193 
Q 2250 -91 1575 -91 
Q 1294 -91 989 -36 
Q 684 19 347 128 
L 347 722 
Q 666 556 975 473 
Q 1284 391 1588 391 
Q 1994 391 2212 530 
Q 2431 669 2431 922 
Q 2431 1156 2273 1281 
Q 2116 1406 1581 1522 
L 1381 1569 
Q 847 1681 609 1914 
Q 372 2147 372 2553 
Q 372 3047 722 3315 
Q 1072 3584 1716 3584 
Q 2034 3584 2315 3537 
Q 2597 3491 2834 3397 
z
" transform="scale(0.015625)"/>
       <path id="DejaVuSans-29" d="M 513 4856 
L 1013 4856 
Q 1481 4119 1714 3412 
Q 1947 2706 1947 2009 
Q 1947 1309 1714 600 
Q 1481 -109 1013 -844 
L 513 -844 
Q 928 -128 1133 580 
Q 1338 1288 1338 2009 
Q 1338 2731 1133 3434 
Q 928 4138 513 4856 
z
" transform="scale(0.015625)"/>
      </defs>
      <use xlink:href="#DejaVuSans-54"/>
      <use xlink:href="#DejaVuSans-69" transform="translate(57.958984 0)"/>
      <use xlink:href="#DejaVuSans-6d" transform="translate(85.742188 0)"/>
      <use xlink:href="#DejaVuSans-65" transform="translate(183.154297 0)"/>
      <use xlink:href="#DejaVuSans-20" transform="translate(244.677734 0)"/>
      <use xlink:href="#DejaVuSans-28" transform="translate(276.464844 0)"/>
      <use xlink:href="#DejaVuSans-6d" transform="translate(315.478516 0)"/>
      <use xlink:href="#DejaVuSans-73" transform="translate(412.890625 0)"/>
      <use xlink:href="#DejaVuSans-29" transform="translate(464.990234 0)"/>
     </g>
    </g>
   </g>
   <g id="matplotlib.axis_2">
    <g id="ytick_1">
     <g id="line2d_8">
      <defs>
       <path id="mc35e264ac1" d="M 0 0 
L -3.5 0 
" style="stroke: #000000; stroke-width: 0.8"/>
      </defs>
      <g>
       <use xlink:href="#mc35e264ac1" x="53.03" y="218.487004" style="stroke: #000000; stroke-width: 0.8"/>
      </g>
     </g>
     <g id="text_9">
      <!-- −60 -->
      <g transform="translate(24.925313 222.286223) scale(0.1 -0.1)">
       <defs>
        <path id="DejaVuSans-2212" d="M 678 2272 
L 4684 2272 
L 4684 1741 
L 678 1741 
L 678 2272 
z
" transform="scale(0.015625)"/>
       </defs>
       <use xlink:href="#DejaVuSans-2212"/>
       <use xlink:href="#DejaVuSans-36" transform="translate(83.789062 0)"/>
       <use xlink:href="#DejaVuSans-30" transform="translate(147.412109 0)"/>
      </g>
     </g>
    </g>
    <g id="ytick_2">
     <g id="line2d_9">
      <g>
       <use xlink:href="#mc35e264ac1" x="53.03" y="182.69158" style="stroke: #000000; stroke-width: 0.8"/>
      </g>
     </g>
     <g id="text_10">
      <!-- −40 -->
      <g transform="translate(24.925313 186.490799) scale(0.1 -0.1)">
       <use xlink:href="#DejaVuSans-2212"/>
       <use xlink:href="#DejaVuSans-34" transform="translate(83.789062 0)"/>
       <use xlink:href="#DejaVuSans-30" transform="translate(147.412109 0)"/>
      </g>
     </g>
    </g>
    <g id="ytick_3">
     <g id="line2d_10">
      <g>
       <use xlink:href="#mc35e264ac1" x="53.03" y="146.896156" style="stroke: #000000; stroke-width: 0.8"/>
      </g>
     </g>
     <g id="text_11">
      <!-- −20 -->
      <g transform="translate(24.925313 150.695375) scale(0.1 -0.1)">
       <use xlink:href="#DejaVuSans-2212"/>
       <use xlink:href="#DejaVuSans-32" transform="translate(83.789062 0)"/>
       <use xlink:href="#DejaVuSans-30" transform="translate(147.412109 0)"/>
      </g>
     </g>
    </g>
    <g id="ytick_4">
     <g id="line2d_11">
      <g>
       <use xlink:href="#mc35e264ac1" x="53.03" y="111.100732" style="stroke: #000000; stroke-width: 0.8"/>
      </g>
     </g>
     <g id="text_12">
      <!-- 0 -->
      <g transform="translate(39.6675 114.899951) scale(0.1 -0.1)">
       <use xlink:href="#DejaVuSans-30"/>
      </g>
     </g>
    </g>
    <g id="ytick_5">
     <g id="line2d_12">
      <g>
       <use xlink:href="#mc35e264ac1" x="53.03" y="75.305308" style="stroke: #000000; stroke-width: 0.8"/>
      </g>
     </g>
     <g id="text_13">
      <!-- 20 -->
      <g transform="translate(33.305 79.104527) scale(0.1 -0.1)">
       <use xlink:href="#DejaVuSans-32"/>
       <use xlink:href="#DejaVuSans-30" transform="translate(63.623047 0)"/>
      </g>
     </g>
    </g>
    <g id="ytick_6">
     <g id="line2d_13">
      <g>
       <use xlink:href="#mc35e264ac1" x="53.03" y="39.509884" style="stroke: #000000; stroke-width: 0.8"/>
      </g>
     </g>
     <g id="text_14">
      <!-- 40 -->
      <g transform="translate(33.305 43.309103) scale(0.1 -0.1)">
       <use xlink:href="#DejaVuSans-34"/>
       <use xlink:href="#DejaVuSans-30" transform="translate(63.623047 0)"/>
      </g>
     </g>
    </g>
    <g id="text_15">
     <!-- V (mV) -->
     <g transform="translate(18.845625 148.321563) rotate(-90) scale(0.1 -0.1)">
      <defs>
       <path id="DejaVuSans-56" d="M 1831 0 
L 50 4666 
L 709 4666 
L 2188 738 
L 3669 4666 
L 4325 4666 
L 2547 0 
L 1831 0 
z
" transform="scale(0.015625)"/>
      </defs>
      <use xlink:href="#DejaVuSans-56"/>
      <use xlink:href="#DejaVuSans-20" transform="translate(68.408203 0)"/>
      <use xlink:href="#DejaVuSans-28" transform="translate(100.195312 0)"/>
      <use xlink:href="#DejaVuSans-6d" transform="translate(139.208984 0)"/>
      <use xlink:href="#DejaVuSans-56" transform="translate(236.621094 0)"/>
      <use xlink:href="#DejaVuSans-29" transform="translate(305.029297 0)"/>
     </g>
    </g>
   </g>
   <g id="line2d_14">
    <path d="M 69.765 239.47747 
L 70.553992 239.655656 
L 73.399145 240.100649 
L 73.757778 240.098245 
L 73.949049 239.666509 
L 74.164229 238.56459 
L 74.738041 235.331819 
L 75.718304 231.327338 
L 80.500074 213.480346 
L 81.791152 209.798985 
L 82.986594 207.023345 
L 84.134219 204.891181 
L 85.257935 203.249304 
L 86.381651 201.992056 
L 87.505367 201.064527 
L 88.70081 200.371298 
L 90.087523 199.834679 
L 93.865121 198.506657 
L 95.060564 197.759814 
L 96.160371 196.804162 
L 97.044999 195.74949 
L 97.714446 194.600807 
L 98.192623 193.330933 
L 98.575165 191.624686 
L 98.814254 189.578839 
L 99.005524 185.929685 
L 99.10116 180.335821 
L 99.148977 168.674299 
L 99.220704 21.775359 
L 99.292431 22.117667 
L 99.411975 24.167484 
L 99.579337 31.876362 
L 99.842334 56.529166 
L 100.487873 139.794843 
L 100.774779 235.742809 
L 100.894324 235.989971 
L 100.918232 235.976484 
L 101.133412 235.637495 
L 101.898495 235.296893 
L 102.783123 236.029514 
L 103.691659 237.325369 
L 105.221825 239.503188 
L 105.867364 240.034387 
L 106.393359 240.205113 
L 106.943263 240.123762 
L 107.540984 239.789388 
L 109.429783 238.286827 
L 109.716689 237.649268 
L 110.266593 236.018061 
L 113.279108 225.596859 
L 115.885173 215.825351 
L 117.295795 211.429291 
L 118.586873 208.134486 
L 119.758407 205.737246 
L 120.882123 203.914837 
L 122.005839 202.494525 
L 123.129555 201.422802 
L 124.277179 200.632525 
L 125.544349 200.033742 
L 127.504874 199.403592 
L 129.4654 198.707649 
L 130.732569 198.022079 
L 131.856285 197.158879 
L 132.836548 196.128255 
L 133.529905 195.096823 
L 134.103717 193.846733 
L 134.510168 192.437975 
L 134.797074 190.645078 
L 135.012253 188.003667 
L 135.155706 183.281784 
L 135.227433 173.77346 
L 135.251342 154.334241 
L 135.29916 21.766311 
L 135.370886 22.027463 
L 135.49043 23.860477 
L 135.657792 31.121034 
L 135.92079 55.220565 
L 136.590238 144.91233 
L 136.781508 233.267518 
L 136.924961 236.002209 
L 137.140141 235.787803 
L 137.355321 235.510774 
L 137.809589 235.315669 
L 138.287766 235.444064 
L 138.909396 236.078547 
L 139.746206 237.274898 
L 141.32419 239.518095 
L 141.969729 240.039933 
L 142.495724 240.201707 
L 143.045627 240.115603 
L 143.667257 239.764778 
L 145.556057 238.260467 
L 145.914689 237.37791 
L 146.799317 234.59359 
L 148.735934 228.06989 
L 152.489623 214.154222 
L 153.80461 210.308775 
L 155.023961 207.393442 
L 156.195495 205.15097 
L 157.34312 203.423953 
L 158.466836 202.124899 
L 159.590552 201.154033 
L 160.762086 200.433906 
L 162.100981 199.875978 
L 166.428483 198.273755 
L 167.600017 197.468457 
L 168.652006 196.472634 
L 169.440998 195.429029 
L 170.062628 194.236771 
L 170.492988 192.950555 
L 170.827712 191.258851 
L 171.0668 188.909313 
L 171.234162 184.787567 
L 171.329797 175.564874 
L 171.353706 164.003764 
L 171.401524 21.746971 
L 171.473251 21.981438 
L 171.592795 23.703559 
L 171.760157 30.726951 
L 172.023154 54.479359 
L 172.692602 142.206997 
L 172.907782 234.304132 
L 173.051235 235.986112 
L 173.170779 235.859082 
L 173.625047 235.399441 
L 174.007589 235.305768 
L 174.677037 235.700657 
L 175.346484 236.518775 
L 177.474372 239.475515 
L 178.000367 239.773519 
L 179.865257 240.147209 
L 180.295616 239.850495 
L 180.821611 239.235888 
L 181.538877 237.979696 
L 182.399595 236.00634 
L 183.379858 233.194177 
L 184.575301 229.038607 
L 189.1658 212.398712 
L 190.456878 208.92341 
L 191.652321 206.322408 
L 192.799945 204.33808 
L 193.923661 202.821735 
L 195.047377 201.667178 
L 196.195002 200.806545 
L 197.414354 200.173491 
L 198.992338 199.622536 
L 201.717947 198.686852 
L 202.985116 197.99095 
L 204.108832 197.120735 
L 205.089095 196.086154 
L 205.80636 195.016963 
L 206.356264 193.788377 
L 206.762714 192.292961 
L 207.04962 190.401365 
L 207.2648 187.382333 
L 207.384344 182.916551 
L 207.456071 172.045299 
L 207.503888 21.738182 
L 207.67125 22.937771 
L 207.814704 27.461107 
L 208.029883 42.996822 
L 208.579787 108.051037 
L 208.818875 147.762186 
L 208.986237 231.737309 
L 209.12969 235.962997 
L 209.201417 235.977078 
L 209.225326 235.947919 
L 209.703503 235.423322 
L 210.157771 235.292581 
L 210.372951 235.360584 
L 211.807482 237.047967 
L 213.146377 238.977626 
L 213.887552 239.655132 
L 214.580908 240.008515 
L 215.298174 240.132 
L 216.087166 240.034872 
L 216.82834 239.731021 
L 217.44997 239.257512 
L 218.047692 238.517855 
L 218.597595 237.463076 
L 219.147499 235.909383 
L 219.721311 233.575309 
L 220.821118 228.779373 
L 223.642363 217.800155 
L 225.100803 212.907316 
L 226.415789 209.236212 
L 227.635141 206.508465 
L 228.758857 204.518975 
L 229.882573 202.96686 
L 231.006289 201.788806 
L 232.106096 200.937588 
L 233.325447 200.272046 
L 234.807796 199.728437 
L 237.987673 198.626246 
L 239.230933 197.909204 
L 240.235105 197.08222 
L 241.215368 195.980773 
L 241.932633 194.876343 
L 242.458628 193.665742 
L 242.865079 192.08064 
L 243.151985 190.021635 
L 243.343256 186.931773 
L 243.4628 181.398345 
L 243.510618 173.27097 
L 243.582344 21.757465 
L 243.773615 23.899831 
L 243.940977 31.233683 
L 244.203974 55.371697 
L 244.873422 145.572274 
L 245.064693 233.369743 
L 245.208146 235.997663 
L 245.303781 235.926358 
L 245.781958 235.420227 
L 246.188409 235.265286 
L 247.264307 236.181164 
L 248.077208 237.401123 
L 249.296559 239.17887 
L 249.91819 239.690073 
L 250.348549 239.783644 
L 250.635455 239.879312 
L 251.878715 240.248773 
L 252.309075 240.00648 
L 252.81116 239.489287 
L 253.480608 238.422488 
L 254.317418 236.649856 
L 255.249863 234.142911 
L 256.325761 230.584983 
L 258.095016 223.861932 
L 260.342448 215.565008 
L 261.753071 211.216401 
L 262.996331 208.076341 
L 264.191773 205.646118 
L 265.339398 203.802814 
L 266.463114 202.405535 
L 267.58683 201.358403 
L 268.734455 200.59103 
L 270.001624 200.014081 
L 271.986059 199.391842 
L 273.850949 198.729042 
L 275.094209 198.056852 
L 276.194016 197.208946 
L 277.174279 196.174417 
L 277.891545 195.099601 
L 278.465357 193.787683 
L 278.871808 192.347854 
L 279.158714 190.52662 
L 279.373893 187.67858 
L 279.517347 182.155062 
L 279.589073 164.906299 
L 279.636891 21.744154 
L 279.708617 21.975108 
L 279.828162 23.67923 
L 279.995524 30.684564 
L 280.258521 54.384819 
L 280.927969 141.585889 
L 281.167057 235.023389 
L 281.262693 235.993474 
L 281.31051 235.976306 
L 282.242956 235.316739 
L 282.625497 235.466766 
L 283.103674 235.904339 
L 283.82094 236.916812 
L 285.135926 238.773733 
L 285.757557 239.267471 
L 286.355278 239.461984 
L 286.92909 239.411845 
L 287.622447 239.132927 
L 289.654699 238.208727 
L 290.443691 238.049366 
L 290.658871 237.473829 
L 293.575751 226.177078 
L 296.612175 214.893047 
L 297.974979 210.777493 
L 299.194331 207.777418 
L 300.365864 205.464036 
L 301.513489 203.671734 
L 302.637205 202.310312 
L 303.760921 201.289345 
L 304.932455 200.527966 
L 306.223533 199.960703 
L 308.327512 199.318019 
L 310.096767 198.673322 
L 311.340027 197.979177 
L 312.463743 197.09205 
L 313.396188 196.082215 
L 314.113453 194.984389 
L 314.639448 193.770137 
L 315.045899 192.218005 
L 315.332805 190.283198 
L 315.547984 187.112616 
L 315.667529 181.9088 
L 315.715346 175.050843 
L 315.739255 161.644721 
L 315.787073 21.778433 
L 315.8588 22.002328 
L 315.978344 23.747002 
L 316.145706 30.838563 
L 316.408703 54.647842 
L 317.078151 142.525418 
L 317.293331 234.266976 
L 317.436784 236.004516 
L 317.556328 235.846349 
L 317.843234 235.517285 
L 318.249685 235.313958 
L 318.656135 235.393484 
L 319.636398 236.38805 
L 321.907739 239.59483 
L 322.601095 240.161938 
L 323.198817 240.390936 
L 323.772629 240.363705 
L 324.322533 240.099944 
L 324.920254 239.547024 
L 325.589702 238.594018 
L 326.354785 237.080224 
L 327.215504 234.85291 
L 328.267493 231.459434 
L 330.060657 224.782681 
L 332.69063 215.123009 
L 334.053435 210.977785 
L 335.296695 207.885289 
L 336.468229 205.545871 
L 337.639762 203.701618 
L 338.763478 202.338008 
L 339.887194 201.309477 
L 341.034819 200.553945 
L 342.325897 199.974276 
L 344.477694 199.300885 
L 346.22304 198.6434 
L 347.490209 197.924 
L 348.566107 197.064673 
L 349.474644 196.029384 
L 350.263636 194.796925 
L 350.78963 193.553618 
L 351.172172 192.047716 
L 351.459078 189.966774 
L 351.650349 186.942843 
L 351.769893 181.499459 
L 351.817711 173.655966 
L 351.84162 153.38736 
L 351.913346 21.797623 
L 351.961164 22.030396 
L 352.080708 23.875547 
L 352.24807 31.161382 
L 352.511068 55.298009 
L 353.180515 145.67066 
L 353.371786 233.35707 
L 353.515239 236.010225 
L 353.586966 235.953746 
L 353.897781 235.564635 
L 354.304231 235.329165 
L 354.710682 235.387999 
L 355.069315 235.619837 
L 355.595309 236.213893 
L 356.886387 238.115957 
L 357.962286 239.613826 
L 358.560007 240.080824 
L 359.014275 240.170735 
L 359.516361 240.001755 
L 360.472715 239.502751 
L 360.974801 239.431537 
L 361.381251 239.085967 
L 361.835519 238.44381 
L 362.504967 236.996949 
L 363.48523 234.316785 
L 364.776308 230.032668 
L 366.736834 222.595098 
L 368.769086 215.187912 
L 370.13189 211.037768 
L 371.375151 207.933604 
L 372.546684 205.574479 
L 373.694309 203.744341 
L 374.818025 202.3601 
L 375.941741 201.324824 
L 377.089366 200.568269 
L 378.380444 199.989178 
L 380.508332 199.326298 
L 382.253678 198.676065 
L 383.496938 197.981336 
L 384.620654 197.102169 
L 385.577008 196.083274 
L 386.294274 195.00638 
L 386.820268 193.830467 
L 387.226719 192.340249 
L 387.537534 190.298161 
L 387.728805 187.592813 
L 387.872258 181.878 
L 387.920075 174.96462 
L 387.943984 161.266147 
L 387.991802 21.754343 
L 388.063528 22.004514 
L 388.183073 23.758296 
L 388.350435 30.875488 
L 388.613432 54.705433 
L 389.28288 142.833795 
L 389.49806 234.324111 
L 389.641513 235.99697 
L 389.784966 235.836061 
L 390.358778 235.366723 
L 390.669593 235.340504 
L 391.052135 235.52403 
L 391.554221 236.028766 
L 392.486666 237.370977 
L 393.753835 239.085341 
L 394.68628 239.96109 
L 395.499181 240.479213 
L 395.905631 240.460359 
L 396.598988 240.061448 
L 397.220618 239.398012 
L 397.985701 238.240667 
L 398.774694 236.588632 
L 399.659321 234.174552 
L 400.783037 230.4217 
L 402.79138 222.774244 
L 404.465 216.584228 
L 404.465 216.584228 
" clip-path="url(#p34e13d7c36)" style="fill: none; stroke: #1f77b4; stroke-width: 1.5; stroke-linecap: square"/>
   </g>
   <g id="patch_3">
    <path d="M 53.03 251.44 
L 53.03 10.8 
" style="fill: none; stroke: #000000; stroke-width: 0.8; stroke-linejoin: miter; stroke-linecap: square"/>
   </g>
   <g id="patch_4">
    <path d="M 421.2 251.44 
L 421.2 10.8 
" style="fill: none; stroke: #000000; stroke-width: 0.8; stroke-linejoin: miter; stroke-linecap: square"/>
   </g>
   <g id="patch_5">
    <path d="M 53.03 251.44 
L 421.2 251.44 
" style="fill: none; stroke: #000000; stroke-width: 0.8; stroke-linejoin: miter; stroke-linecap: square"/>
   </g>
   <g id="patch_6">
    <path d="M 53.03 10.8 
L 421.2 10.8 
" style="fill: none; stroke: #000000; stroke-width: 0.8; stroke-linejoin: miter; stroke-linecap: square"/>
   </g>
   <g id="legend_1">
    <g id="patch_7">
     <path d="M 328.7875 139.959063 
L 414.2 139.959063 
Q 416.2 139.959063 416.2 137.959063 
L 416.2 124.280938 
Q 416.2 122.280938 414.2 122.280938 
L 328.7875 122.280938 
Q 326.7875 122.280938 326.7875 124.280938 
L 326.7875 137.959063 
Q 326.7875 139.959063 328.7875 139.959063 
z
" style="fill: #ffffff; opacity: 0.8; stroke: #cccccc; stroke-linejoin: miter"/>
    </g>
    <g id="line2d_15">
     <path d="M 330.7875 130.379375 
L 340.7875 130.379375 
L 350.7875 130.379375 
" style="fill: none; stroke: #1f77b4; stroke-width: 1.5; stroke-linecap: square"/>
    </g>
    <g id="text_16">
     <!-- V (spiking) -->
     <g transform="translate(358.7875 133.879375) scale(0.1 -0.1)">
      <defs>
       <path id="DejaVuSans-70" d="M 1159 525 
L 1159 -1331 
L 581 -1331 
L 581 3500 
L 1159 3500 
L 1159 2969 
Q 1341 3281 1617 3432 
Q 1894 3584 2278 3584 
Q 2916 3584 3314 3078 
Q 3713 2572 3713 1747 
Q 3713 922 3314 415 
Q 2916 -91 2278 -91 
Q 1894 -91 1617 61 
Q 1341 213 1159 525 
z
M 3116 1747 
Q 3116 2381 2855 2742 
Q 2594 3103 2138 3103 
Q 1681 3103 1420 2742 
Q 1159 2381 1159 1747 
Q 1159 1113 1420 752 
Q 1681 391 2138 391 
Q 2594 391 2855 752 
Q 3116 1113 3116 1747 
z
" transform="scale(0.015625)"/>
       <path id="DejaVuSans-6b" d="M 581 4863 
L 1159 4863 
L 1159 1991 
L 2875 3500 
L 3609 3500 
L 1753 1863 
L 3688 0 
L 2938 0 
L 1159 1709 
L 1159 0 
L 581 0 
L 581 4863 
z
" transform="scale(0.015625)"/>
       <path id="DejaVuSans-6e" d="M 3513 2113 
L 3513 0 
L 2938 0 
L 2938 2094 
Q 2938 2591 2744 2837 
Q 2550 3084 2163 3084 
Q 1697 3084 1428 2787 
Q 1159 2491 1159 1978 
L 1159 0 
L 581 0 
L 581 3500 
L 1159 3500 
L 1159 2956 
Q 1366 3272 1645 3428 
Q 1925 3584 2291 3584 
Q 2894 3584 3203 3211 
Q 3513 2838 3513 2113 
z
" transform="scale(0.015625)"/>
       <path id="DejaVuSans-67" d="M 2906 1791 
Q 2906 2416 2648 2759 
Q 2391 3103 1925 3103 
Q 1463 3103 1205 2759 
Q 947 2416 947 1791 
Q 947 1169 1205 825 
Q 1463 481 1925 481 
Q 2391 481 2648 825 
Q 2906 1169 2906 1791 
z
M 3481 434 
Q 3481 -459 3084 -895 
Q 2688 -1331 1869 -1331 
Q 1566 -1331 1297 -1286 
Q 1028 -1241 775 -1147 
L 775 -588 
Q 1028 -725 1275 -790 
Q 1522 -856 1778 -856 
Q 2344 -856 2625 -561 
Q 2906 -266 2906 331 
L 2906 616 
Q 2728 306 2450 153 
Q 2172 0 1784 0 
Q 1141 0 747 490 
Q 353 981 353 1791 
Q 353 2603 747 3093 
Q 1141 3584 1784 3584 
Q 2172 3584 2450 3431 
Q 2728 3278 2906 2969 
L 2906 3500 
L 3481 3500 
L 3481 434 
z
" transform="scale(0.015625)"/>
      </defs>
      <use xlink:href="#DejaVuSans-56"/>
      <use xlink:href="#DejaVuSans-20" transform="translate(68.408203 0)"/>
      <use xlink:href="#DejaVuSans-28" transform="translate(100.195312 0)"/>
      <use xlink:href="#DejaVuSans-73" transform="translate(139.208984 0)"/>
      <use xlink:href="#DejaVuSans-70" transform="translate(191.308594 0)"/>
      <use xlink:href="#DejaVuSans-69" transform="translate(254.785156 0)"/>
      <use xlink:href="#DejaVuSans-6b" transform="translate(282.568359 0)"/>
      <use xlink:href="#DejaVuSans-69" transform="translate(340.478516 0)"/>
      <use xlink:href="#DejaVuSans-6e" transform="translate(368.261719 0)"/>
      <use xlink:href="#DejaVuSans-67" transform="translate(431.640625 0)"/>
      <use xlink:href="#DejaVuSans-29" transform="translate(495.117188 0)"/>
     </g>
    </g>
   </g>
  </g>
  <g id="axes_2">
   <g id="patch_8">
    <path d="M 53.03 534.04 
L 421.2 534.04 
L 421.2 293.4 
L 53.03 293.4 
z
" style="fill: #ffffff"/>
   </g>
   <g id="matplotlib.axis_3">
    <g id="xtick_8">
     <g id="line2d_16">
      <g>
       <use xlink:href="#md2abb2bf6a" x="93.673851" y="534.04" style="stroke: #000000; stroke-width: 0.8"/>
      </g>
     </g>
     <g id="text_17">
      <!-- 3100 -->
      <g transform="translate(80.948851 548.638438) scale(0.1 -0.1)">
       <use xlink:href="#DejaVuSans-33"/>
       <use xlink:href="#DejaVuSans-31" transform="translate(63.623047 0)"/>
       <use xlink:href="#DejaVuSans-30" transform="translate(127.246094 0)"/>
       <use xlink:href="#DejaVuSans-30" transform="translate(190.869141 0)"/>
      </g>
     </g>
    </g>
    <g id="xtick_9">
     <g id="line2d_17">
      <g>
       <use xlink:href="#md2abb2bf6a" x="141.491552" y="534.04" style="stroke: #000000; stroke-width: 0.8"/>
      </g>
     </g>
     <g id="text_18">
      <!-- 3200 -->
      <g transform="translate(128.766552 548.638438) scale(0.1 -0.1)">
       <use xlink:href="#DejaVuSans-33"/>
       <use xlink:href="#DejaVuSans-32" transform="translate(63.623047 0)"/>
       <use xlink:href="#DejaVuSans-30" transform="translate(127.246094 0)"/>
       <use xlink:href="#DejaVuSans-30" transform="translate(190.869141 0)"/>
      </g>
     </g>
    </g>
    <g id="xtick_10">
     <g id="line2d_18">
      <g>
       <use xlink:href="#md2abb2bf6a" x="189.309253" y="534.04" style="stroke: #000000; stroke-width: 0.8"/>
      </g>
     </g>
     <g id="text_19">
      <!-- 3300 -->
      <g transform="translate(176.584253 548.638438) scale(0.1 -0.1)">
       <use xlink:href="#DejaVuSans-33"/>
       <use xlink:href="#DejaVuSans-33" transform="translate(63.623047 0)"/>
       <use xlink:href="#DejaVuSans-30" transform="translate(127.246094 0)"/>
       <use xlink:href="#DejaVuSans-30" transform="translate(190.869141 0)"/>
      </g>
     </g>
    </g>
    <g id="xtick_11">
     <g id="line2d_19">
      <g>
       <use xlink:href="#md2abb2bf6a" x="237.126954" y="534.04" style="stroke: #000000; stroke-width: 0.8"/>
      </g>
     </g>
     <g id="text_20">
      <!-- 3400 -->
      <g transform="translate(224.401954 548.638438) scale(0.1 -0.1)">
       <use xlink:href="#DejaVuSans-33"/>
       <use xlink:href="#DejaVuSans-34" transform="translate(63.623047 0)"/>
       <use xlink:href="#DejaVuSans-30" transform="translate(127.246094 0)"/>
       <use xlink:href="#DejaVuSans-30" transform="translate(190.869141 0)"/>
      </g>
     </g>
    </g>
    <g id="xtick_12">
     <g id="line2d_20">
      <g>
       <use xlink:href="#md2abb2bf6a" x="284.944656" y="534.04" style="stroke: #000000; stroke-width: 0.8"/>
      </g>
     </g>
     <g id="text_21">
      <!-- 3500 -->
      <g transform="translate(272.219656 548.638438) scale(0.1 -0.1)">
       <use xlink:href="#DejaVuSans-33"/>
       <use xlink:href="#DejaVuSans-35" transform="translate(63.623047 0)"/>
       <use xlink:href="#DejaVuSans-30" transform="translate(127.246094 0)"/>
       <use xlink:href="#DejaVuSans-30" transform="translate(190.869141 0)"/>
      </g>
     </g>
    </g>
    <g id="xtick_13">
     <g id="line2d_21">
      <g>
       <use xlink:href="#md2abb2bf6a" x="332.762357" y="534.04" style="stroke: #000000; stroke-width: 0.8"/>
      </g>
     </g>
     <g id="text_22">
      <!-- 3600 -->
      <g transform="translate(320.037357 548.638438) scale(0.1 -0.1)">
       <use xlink:href="#DejaVuSans-33"/>
       <use xlink:href="#DejaVuSans-36" transform="translate(63.623047 0)"/>
       <use xlink:href="#DejaVuSans-30" transform="translate(127.246094 0)"/>
       <use xlink:href="#DejaVuSans-30" transform="translate(190.869141 0)"/>
      </g>
     </g>
    </g>
    <g id="xtick_14">
     <g id="line2d_22">
      <g>
       <use xlink:href="#md2abb2bf6a" x="380.580058" y="534.04" style="stroke: #000000; stroke-width: 0.8"/>
      </g>
     </g>
     <g id="text_23">
      <!-- 3700 -->
      <g transform="translate(367.855058 548.638438) scale(0.1 -0.1)">
       <use xlink:href="#DejaVuSans-33"/>
       <use xlink:href="#DejaVuSans-37" transform="translate(63.623047 0)"/>
       <use xlink:href="#DejaVuSans-30" transform="translate(127.246094 0)"/>
       <use xlink:href="#DejaVuSans-30" transform="translate(190.869141 0)"/>
      </g>
     </g>
    </g>
    <g id="text_24">
     <!-- Time (ms) -->
     <g transform="translate(211.915781 562.316562) scale(0.1 -0.1)">
      <use xlink:href="#DejaVuSans-54"/>
      <use xlink:href="#DejaVuSans-69" transform="translate(57.958984 0)"/>
      <use xlink:href="#DejaVuSans-6d" transform="translate(85.742188 0)"/>
      <use xlink:href="#DejaVuSans-65" transform="translate(183.154297 0)"/>
      <use xlink:href="#DejaVuSans-20" transform="translate(244.677734 0)"/>
      <use xlink:href="#DejaVuSans-28" transform="translate(276.464844 0)"/>
      <use xlink:href="#DejaVuSans-6d" transform="translate(315.478516 0)"/>
      <use xlink:href="#DejaVuSans-73" transform="translate(412.890625 0)"/>
      <use xlink:href="#DejaVuSans-29" transform="translate(464.990234 0)"/>
     </g>
    </g>
   </g>
   <g id="matplotlib.axis_4">
    <g id="ytick_7">
     <g id="line2d_23">
      <g>
       <use xlink:href="#mc35e264ac1" x="53.03" y="504.19098" style="stroke: #000000; stroke-width: 0.8"/>
      </g>
     </g>
     <g id="text_25">
      <!-- −60 -->
      <g transform="translate(24.925313 507.990199) scale(0.1 -0.1)">
       <use xlink:href="#DejaVuSans-2212"/>
       <use xlink:href="#DejaVuSans-36" transform="translate(83.789062 0)"/>
       <use xlink:href="#DejaVuSans-30" transform="translate(147.412109 0)"/>
      </g>
     </g>
    </g>
    <g id="ytick_8">
     <g id="line2d_24">
      <g>
       <use xlink:href="#mc35e264ac1" x="53.03" y="467.818789" style="stroke: #000000; stroke-width: 0.8"/>
      </g>
     </g>
     <g id="text_26">
      <!-- −40 -->
      <g transform="translate(24.925313 471.618008) scale(0.1 -0.1)">
       <use xlink:href="#DejaVuSans-2212"/>
       <use xlink:href="#DejaVuSans-34" transform="translate(83.789062 0)"/>
       <use xlink:href="#DejaVuSans-30" transform="translate(147.412109 0)"/>
      </g>
     </g>
    </g>
    <g id="ytick_9">
     <g id="line2d_25">
      <g>
       <use xlink:href="#mc35e264ac1" x="53.03" y="431.446598" style="stroke: #000000; stroke-width: 0.8"/>
      </g>
     </g>
     <g id="text_27">
      <!-- −20 -->
      <g transform="translate(24.925313 435.245817) scale(0.1 -0.1)">
       <use xlink:href="#DejaVuSans-2212"/>
       <use xlink:href="#DejaVuSans-32" transform="translate(83.789062 0)"/>
       <use xlink:href="#DejaVuSans-30" transform="translate(147.412109 0)"/>
      </g>
     </g>
    </g>
    <g id="ytick_10">
     <g id="line2d_26">
      <g>
       <use xlink:href="#mc35e264ac1" x="53.03" y="395.074407" style="stroke: #000000; stroke-width: 0.8"/>
      </g>
     </g>
     <g id="text_28">
      <!-- 0 -->
      <g transform="translate(39.6675 398.873626) scale(0.1 -0.1)">
       <use xlink:href="#DejaVuSans-30"/>
      </g>
     </g>
    </g>
    <g id="ytick_11">
     <g id="line2d_27">
      <g>
       <use xlink:href="#mc35e264ac1" x="53.03" y="358.702216" style="stroke: #000000; stroke-width: 0.8"/>
      </g>
     </g>
     <g id="text_29">
      <!-- 20 -->
      <g transform="translate(33.305 362.501434) scale(0.1 -0.1)">
       <use xlink:href="#DejaVuSans-32"/>
       <use xlink:href="#DejaVuSans-30" transform="translate(63.623047 0)"/>
      </g>
     </g>
    </g>
    <g id="ytick_12">
     <g id="line2d_28">
      <g>
       <use xlink:href="#mc35e264ac1" x="53.03" y="322.330025" style="stroke: #000000; stroke-width: 0.8"/>
      </g>
     </g>
     <g id="text_30">
      <!-- 40 -->
      <g transform="translate(33.305 326.129243) scale(0.1 -0.1)">
       <use xlink:href="#DejaVuSans-34"/>
       <use xlink:href="#DejaVuSans-30" transform="translate(63.623047 0)"/>
      </g>
     </g>
    </g>
    <g id="text_31">
     <!-- V (mV) -->
     <g transform="translate(18.845625 430.921562) rotate(-90) scale(0.1 -0.1)">
      <use xlink:href="#DejaVuSans-56"/>
      <use xlink:href="#DejaVuSans-20" transform="translate(68.408203 0)"/>
      <use xlink:href="#DejaVuSans-28" transform="translate(100.195312 0)"/>
      <use xlink:href="#DejaVuSans-6d" transform="translate(139.208984 0)"/>
      <use xlink:href="#DejaVuSans-56" transform="translate(236.621094 0)"/>
      <use xlink:href="#DejaVuSans-29" transform="translate(305.029297 0)"/>
     </g>
    </g>
   </g>
   <g id="line2d_29">
    <path d="M 69.765 522.851213 
L 70.553992 522.272457 
L 71.534255 521.235357 
L 72.753606 519.599207 
L 74.427226 516.956263 
L 76.961564 512.507501 
L 81.289066 504.368683 
L 85.473115 496.697875 
L 88.294359 491.979627 
L 90.996059 487.895656 
L 96.088645 480.36852 
L 96.949363 478.550654 
L 97.570993 476.705949 
L 98.001353 474.712982 
L 98.288259 472.379065 
L 98.503438 468.675682 
L 98.622983 462.673242 
L 98.6708 453.901574 
L 98.742527 304.385243 
L 98.933798 308.882493 
L 99.10116 324.698728 
L 99.818425 435.287311 
L 99.985787 505.322617 
L 100.033605 505.937496 
L 100.081423 505.654698 
L 100.655235 498.271378 
L 102.735305 469.582906 
L 102.902667 463.705847 
L 102.974394 451.743475 
L 103.04612 306.982107 
L 103.141755 309.087646 
L 103.309117 320.800226 
L 103.691659 369.35556 
L 104.169836 443.054281 
L 104.313289 506.608606 
L 104.385016 507.841153 
L 104.432833 507.502622 
L 105.054464 499.473722 
L 106.728083 475.529763 
L 107.134534 467.421374 
L 107.254078 461.074542 
L 107.301895 449.061473 
L 107.373622 307.288818 
L 107.445349 308.600818 
L 107.612711 319.050578 
L 107.947434 359.413861 
L 108.497338 435.942563 
L 108.6647 508.503047 
L 108.712518 509.253917 
L 108.784244 508.826152 
L 109.716689 497.38244 
L 112.107574 466.710099 
L 112.227119 460.492172 
L 112.274936 446.867619 
L 112.346663 306.992984 
L 112.41839 308.36349 
L 112.585751 319.239661 
L 112.920475 362.405365 
L 113.422561 431.686392 
L 113.613832 509.466497 
L 113.66165 509.856581 
L 113.709467 509.577254 
L 114.355006 502.266523 
L 115.478722 490.99763 
L 116.36335 484.213585 
L 117.152342 479.724749 
L 117.845699 476.95119 
L 118.395602 475.569211 
L 118.802053 475.057716 
L 119.136777 474.951748 
L 119.447592 475.09494 
L 119.830133 475.543773 
L 120.380037 476.596443 
L 121.216847 478.765188 
L 122.460107 482.660148 
L 124.157635 488.760689 
L 125.879072 495.782728 
L 127.79178 504.583761 
L 130.254392 515.871779 
L 131.210746 519.214706 
L 131.975829 521.148958 
L 132.621368 522.241711 
L 133.195181 522.818983 
L 133.745084 523.07305 
L 134.24717 523.080605 
L 134.8688 522.861972 
L 135.514339 522.410573 
L 136.446784 521.479679 
L 137.618318 519.964455 
L 139.196302 517.536887 
L 141.443734 513.654217 
L 145.173515 506.709351 
L 150.385644 497.062308 
L 153.278615 492.191718 
L 155.956407 488.115752 
L 161.240263 480.256638 
L 162.12489 478.334625 
L 162.722611 476.476882 
L 163.129062 474.404312 
L 163.415968 471.783778 
L 163.607239 467.770299 
L 163.702874 461.945503 
L 163.750692 450.372251 
L 163.822418 304.38478 
L 163.918054 305.478554 
L 164.037598 310.898047 
L 164.228869 332.413081 
L 164.898317 441.497884 
L 165.04177 504.688894 
L 165.113496 506.025923 
L 165.161314 505.648373 
L 165.87858 496.394813 
L 167.791288 470.235193 
L 167.982558 463.971312 
L 168.054285 454.05289 
L 168.14992 306.960235 
L 168.293373 312.64055 
L 168.532462 336.508327 
L 169.249727 438.732594 
L 169.393181 506.372377 
L 169.464907 507.849559 
L 169.512725 507.545971 
L 170.062628 500.491152 
L 171.736248 476.767917 
L 172.214425 467.607493 
L 172.333969 461.714521 
L 172.381787 452.307685 
L 172.477422 307.318333 
L 172.573058 310.377503 
L 172.764329 325.446295 
L 173.529412 418.326692 
L 173.601138 454.456363 
L 173.744591 508.257377 
L 173.792409 509.279159 
L 173.864136 508.86811 
L 174.342313 503.082577 
L 177.211375 466.192042 
L 177.30701 461.113636 
L 177.354828 450.86489 
L 177.426554 307.057651 
L 177.52219 309.062186 
L 177.689552 320.97074 
L 178.072093 371.481792 
L 178.526362 446.239191 
L 178.669815 508.371105 
L 178.741541 509.874401 
L 178.789359 509.618477 
L 179.291445 503.952991 
L 180.462978 491.912109 
L 181.371515 484.751273 
L 182.184416 479.993381 
L 182.877772 477.156189 
L 183.451585 475.667675 
L 183.881944 475.093707 
L 184.216668 474.975288 
L 184.527483 475.106742 
L 184.910025 475.544261 
L 185.436019 476.531413 
L 186.24892 478.608943 
L 187.492181 482.485417 
L 189.141891 488.384788 
L 190.887237 495.482454 
L 192.823854 504.341961 
L 195.40601 516.13262 
L 196.362364 519.403255 
L 197.127447 521.278311 
L 197.772986 522.318143 
L 198.346799 522.85864 
L 198.872793 523.073005 
L 199.422697 523.062671 
L 200.044327 522.807073 
L 200.785501 522.25112 
L 201.741855 521.227863 
L 203.032933 519.477615 
L 204.850006 516.591464 
L 207.384344 512.10713 
L 212.548656 502.386325 
L 216.182801 495.814648 
L 218.932319 491.288235 
L 221.681837 487.198613 
L 225.889795 481.05167 
L 226.917875 479.066911 
L 227.563414 477.355802 
L 228.041591 475.487169 
L 228.400224 473.091727 
L 228.615404 470.268101 
L 228.758857 465.746937 
L 228.830583 458.754844 
L 228.854492 451.714533 
L 228.926219 304.381917 
L 229.045763 306.04272 
L 229.189216 314.593237 
L 229.452213 350.977726 
L 230.002117 439.297406 
L 230.14557 504.564991 
L 230.217297 505.985095 
L 230.265114 505.648533 
L 232.130005 481.602652 
L 232.895088 470.210196 
L 233.086359 463.889831 
L 233.158085 453.444124 
L 233.253721 306.969397 
L 233.373265 311.273765 
L 233.588445 330.757737 
L 234.329619 426.547516 
L 234.568707 507.851894 
L 234.592616 507.731936 
L 234.855614 504.547357 
L 236.529233 481.441691 
L 237.270408 468.863099 
L 237.413861 463.371827 
L 237.485587 450.214326 
L 237.557314 307.286472 
L 237.62904 308.537104 
L 237.796402 318.849707 
L 238.131126 359.158132 
L 238.68103 435.264166 
L 238.848392 508.479567 
L 238.896209 509.267786 
L 238.967936 508.850914 
L 239.828655 498.320603 
L 242.291266 466.693748 
L 242.41081 460.613164 
L 242.458628 447.991228 
L 242.530355 307.006592 
L 242.602081 308.326754 
L 242.769443 319.119122 
L 243.104167 362.247039 
L 243.630162 451.105435 
L 243.773615 508.562352 
L 243.845341 509.841657 
L 243.893159 509.556408 
L 244.514789 502.532765 
L 245.638505 491.205326 
L 246.547042 484.207584 
L 247.359942 479.604074 
L 248.02939 476.948192 
L 248.579294 475.570523 
L 249.009653 475.031265 
L 249.344377 474.934682 
L 249.655192 475.087237 
L 250.037734 475.552559 
L 250.587637 476.637293 
L 251.472265 478.948282 
L 252.691616 482.805046 
L 254.436962 489.107733 
L 256.1584 496.175575 
L 258.118925 505.230262 
L 260.461993 515.902571 
L 261.418347 519.237919 
L 262.255156 521.351097 
L 262.876787 522.345306 
L 263.450599 522.877032 
L 263.976594 523.080329 
L 264.526497 523.052562 
L 265.148127 522.798475 
L 265.937119 522.20508 
L 266.893473 521.17892 
L 268.136734 519.487766 
L 269.929897 516.624379 
L 272.535962 512.012214 
L 278.106724 501.539532 
L 281.573508 495.326227 
L 284.299117 490.880023 
L 287.024726 486.84942 
L 291.160957 480.744681 
L 292.14122 478.76629 
L 292.786759 476.944086 
L 293.193209 475.158541 
L 293.504024 472.935321 
L 293.719204 469.891431 
L 293.862657 464.599243 
L 293.934384 453.578939 
L 294.00611 304.338182 
L 294.173472 307.688827 
L 294.340834 321.79306 
L 295.0581 425.209075 
L 295.297188 505.99567 
L 295.345006 505.706519 
L 295.918818 498.339502 
L 297.998888 469.852643 
L 298.16625 464.453665 
L 298.237977 456.14471 
L 298.261885 442.631015 
L 298.333612 306.920464 
L 298.38143 307.768504 
L 298.548792 317.50303 
L 298.859607 354.875802 
L 299.433419 433.670282 
L 299.600781 507.073389 
L 299.648599 507.847995 
L 299.720325 507.3625 
L 300.485409 497.381861 
L 302.039484 474.963976 
L 302.422026 467.041095 
L 302.54157 459.806183 
L 302.589387 436.761831 
L 302.661114 307.255436 
L 302.708932 308.162674 
L 302.852385 315.968159 
L 303.139291 347.979613 
L 303.78483 446.051829 
L 303.928283 507.960138 
L 304.00001 509.272642 
L 304.047827 508.994209 
L 304.908546 498.461233 
L 307.395066 466.510374 
L 307.514611 459.687055 
L 307.562428 439.706654 
L 307.634155 306.97993 
L 307.681973 307.785666 
L 307.825426 315.619121 
L 308.088423 346.43099 
L 308.710053 436.069972 
L 308.877415 508.94374 
L 308.925233 509.831477 
L 308.996959 509.482725 
L 310.144584 496.799677 
L 311.077029 488.333891 
L 311.913839 482.512154 
L 312.678922 478.61469 
L 313.324461 476.376864 
L 313.826547 475.344038 
L 314.209089 474.989063 
L 314.519904 474.972316 
L 314.854628 475.202787 
L 315.261078 475.785172 
L 315.882708 477.125567 
L 316.862971 479.835043 
L 318.201867 484.244478 
L 319.971122 490.8376 
L 321.716468 498.238493 
L 324.107353 509.512435 
L 325.613611 516.133326 
L 326.546056 519.341333 
L 327.382866 521.419877 
L 327.980587 522.360105 
L 328.554399 522.884871 
L 329.080394 523.083108 
L 329.630298 523.049455 
L 330.251928 522.791594 
L 331.04092 522.194069 
L 331.997274 521.164852 
L 333.240534 519.47088 
L 335.033698 516.605123 
L 337.639762 511.99102 
L 343.425704 501.118828 
L 346.820761 495.061738 
L 349.522461 490.67716 
L 352.271979 486.628495 
L 356.216939 480.808574 
L 357.197202 478.848363 
L 357.86665 476.995481 
L 358.320918 475.047604 
L 358.631733 472.673052 
L 358.846913 469.367561 
L 358.966457 464.720411 
L 359.038184 454.368264 
L 359.062093 433.964814 
L 359.10991 304.383438 
L 359.181637 304.872702 
L 359.277272 307.585262 
L 359.444634 321.499109 
L 360.1619 424.657642 
L 360.400988 505.978351 
L 360.448806 505.709072 
L 360.974801 498.966896 
L 363.102688 469.804467 
L 363.27005 464.233232 
L 363.341777 454.997243 
L 363.365686 436.162641 
L 363.437412 306.945644 
L 363.48523 307.899322 
L 363.652592 317.853576 
L 363.963407 355.360894 
L 364.537219 436.087692 
L 364.704581 507.253543 
L 364.752399 507.86083 
L 364.800217 507.588511 
L 365.278394 501.497304 
L 366.952013 477.943341 
L 367.478008 468.393323 
L 367.621461 462.12361 
L 367.669279 454.298354 
L 367.764914 307.300092 
L 367.908367 312.772206 
L 368.147456 335.907246 
L 368.864721 429.908059 
L 369.055992 508.880103 
L 369.10381 509.278808 
L 369.151628 508.901137 
L 369.534169 504.309035 
L 372.498867 466.312617 
L 372.618411 458.76674 
L 372.666229 424.127733 
L 372.737955 307.044526 
L 372.785773 308.010839 
L 372.929226 316.170965 
L 373.192223 347.301098 
L 373.813853 442.496164 
L 373.957307 508.199409 
L 374.029033 509.885576 
L 374.076851 509.658518 
L 374.531119 504.543987 
L 375.726562 492.166719 
L 376.635098 484.952814 
L 377.447999 480.15558 
L 378.141355 477.262262 
L 378.715168 475.718331 
L 379.145527 475.108571 
L 379.480251 474.970485 
L 379.791066 475.087617 
L 380.173608 475.513103 
L 380.699602 476.488074 
L 381.488595 478.473415 
L 382.660128 482.072645 
L 384.333748 488.001726 
L 386.055185 494.913238 
L 387.896167 503.272212 
L 390.693502 516.063911 
L 391.649856 519.348736 
L 392.39103 521.178818 
L 393.036569 522.254236 
L 393.634291 522.835807 
L 394.160285 523.060866 
L 394.710189 523.058305 
L 395.30791 522.822672 
L 396.049085 522.274569 
L 397.005439 521.260547 
L 398.248699 519.595222 
L 399.946227 516.920236 
L 402.408839 512.588041 
L 404.465 508.758297 
L 404.465 508.758297 
" clip-path="url(#p21822b285d)" style="fill: none; stroke: #1f77b4; stroke-width: 1.5; stroke-linecap: square"/>
   </g>
   <g id="patch_9">
    <path d="M 53.03 534.04 
L 53.03 293.4 
" style="fill: none; stroke: #000000; stroke-width: 0.8; stroke-linejoin: miter; stroke-linecap: square"/>
   </g>
   <g id="patch_10">
    <path d="M 421.2 534.04 
L 421.2 293.4 
" style="fill: none; stroke: #000000; stroke-width: 0.8; stroke-linejoin: miter; stroke-linecap: square"/>
   </g>
   <g id="patch_11">
    <path d="M 53.03 534.04 
L 421.2 534.04 
" style="fill: none; stroke: #000000; stroke-width: 0.8; stroke-linejoin: miter; stroke-linecap: square"/>
   </g>
   <g id="patch_12">
    <path d="M 53.03 293.4 
L 421.2 293.4 
" style="fill: none; stroke: #000000; stroke-width: 0.8; stroke-linejoin: miter; stroke-linecap: square"/>
   </g>
   <g id="legend_2">
    <g id="patch_13">
     <path d="M 322.9875 422.559062 
L 414.2 422.559062 
Q 416.2 422.559062 416.2 420.559062 
L 416.2 406.880937 
Q 416.2 404.880937 414.2 404.880937 
L 322.9875 404.880937 
Q 320.9875 404.880937 320.9875 406.880937 
L 320.9875 420.559062 
Q 320.9875 422.559062 322.9875 422.559062 
z
" style="fill: #ffffff; opacity: 0.8; stroke: #cccccc; stroke-linejoin: miter"/>
    </g>
    <g id="line2d_30">
     <path d="M 324.9875 412.979375 
L 334.9875 412.979375 
L 344.9875 412.979375 
" style="fill: none; stroke: #1f77b4; stroke-width: 1.5; stroke-linecap: square"/>
    </g>
    <g id="text_32">
     <!-- V (bursting) -->
     <g transform="translate(352.9875 416.479375) scale(0.1 -0.1)">
      <defs>
       <path id="DejaVuSans-62" d="M 3116 1747 
Q 3116 2381 2855 2742 
Q 2594 3103 2138 3103 
Q 1681 3103 1420 2742 
Q 1159 2381 1159 1747 
Q 1159 1113 1420 752 
Q 1681 391 2138 391 
Q 2594 391 2855 752 
Q 3116 1113 3116 1747 
z
M 1159 2969 
Q 1341 3281 1617 3432 
Q 1894 3584 2278 3584 
Q 2916 3584 3314 3078 
Q 3713 2572 3713 1747 
Q 3713 922 3314 415 
Q 2916 -91 2278 -91 
Q 1894 -91 1617 61 
Q 1341 213 1159 525 
L 1159 0 
L 581 0 
L 581 4863 
L 1159 4863 
L 1159 2969 
z
" transform="scale(0.015625)"/>
       <path id="DejaVuSans-75" d="M 544 1381 
L 544 3500 
L 1119 3500 
L 1119 1403 
Q 1119 906 1312 657 
Q 1506 409 1894 409 
Q 2359 409 2629 706 
Q 2900 1003 2900 1516 
L 2900 3500 
L 3475 3500 
L 3475 0 
L 2900 0 
L 2900 538 
Q 2691 219 2414 64 
Q 2138 -91 1772 -91 
Q 1169 -91 856 284 
Q 544 659 544 1381 
z
M 1991 3584 
L 1991 3584 
z
" transform="scale(0.015625)"/>
       <path id="DejaVuSans-72" d="M 2631 2963 
Q 2534 3019 2420 3045 
Q 2306 3072 2169 3072 
Q 1681 3072 1420 2755 
Q 1159 2438 1159 1844 
L 1159 0 
L 581 0 
L 581 3500 
L 1159 3500 
L 1159 2956 
Q 1341 3275 1631 3429 
Q 1922 3584 2338 3584 
Q 2397 3584 2469 3576 
Q 2541 3569 2628 3553 
L 2631 2963 
z
" transform="scale(0.015625)"/>
       <path id="DejaVuSans-74" d="M 1172 4494 
L 1172 3500 
L 2356 3500 
L 2356 3053 
L 1172 3053 
L 1172 1153 
Q 1172 725 1289 603 
Q 1406 481 1766 481 
L 2356 481 
L 2356 0 
L 1766 0 
Q 1100 0 847 248 
Q 594 497 594 1153 
L 594 3053 
L 172 3053 
L 172 3500 
L 594 3500 
L 594 4494 
L 1172 4494 
z
" transform="scale(0.015625)"/>
      </defs>
      <use xlink:href="#DejaVuSans-56"/>
      <use xlink:href="#DejaVuSans-20" transform="translate(68.408203 0)"/>
      <use xlink:href="#DejaVuSans-28" transform="translate(100.195312 0)"/>
      <use xlink:href="#DejaVuSans-62" transform="translate(139.208984 0)"/>
      <use xlink:href="#DejaVuSans-75" transform="translate(202.685547 0)"/>
      <use xlink:href="#DejaVuSans-72" transform="translate(266.064453 0)"/>
      <use xlink:href="#DejaVuSans-73" transform="translate(307.177734 0)"/>
      <use xlink:href="#DejaVuSans-74" transform="translate(359.277344 0)"/>
      <use xlink:href="#DejaVuSans-69" transform="translate(398.486328 0)"/>
      <use xlink:href="#DejaVuSans-6e" transform="translate(426.269531 0)"/>
      <use xlink:href="#DejaVuSans-67" transform="translate(489.648438 0)"/>
      <use xlink:href="#DejaVuSans-29" transform="translate(553.125 0)"/>
     </g>
    </g>
   </g>
  </g>
 </g>
 <defs>
  <clipPath id="p34e13d7c36">
   <rect x="53.03" y="10.8" width="368.17" height="240.64"/>
  </clipPath>
  <clipPath id="p21822b285d">
   <rect x="53.03" y="293.4" width="368.17" height="240.64"/>
  </clipPath>
 </defs>
</svg>
