<?xml version="1.0" encoding="utf-8" standalone="no"?>
<!DOCTYPE svg PUBLIC "-//W3C//DTD SVG 1.1//EN"
  "http://www.w3.org/Graphics/SVG/1.1/DTD/svg11.dtd">
<svg xmlns:xlink="http://www.w3.org/1999/xlink" width="2160pt" height="360pt" viewBox="0 0 2160 360" xmlns="http://www.w3.org/2000/svg" version="1.1">
 <metadata>
  <rdf:RDF xmlns:dc="http://purl.org/dc/elements/1.1/" xmlns:cc="http://creativecommons.org/ns#" xmlns:rdf="http://www.w3.org/1999/02/22-rdf-syntax-ns#">
   <cc:Work>
    <dc:type rdf:resource="http://purl.org/dc/dcmitype/StillImage"/>
    <dc:date>2025-03-07T07:57:14.814436</dc:date>
    <dc:format>image/svg+xml</dc:format>
    <dc:creator>
     <cc:Agent>
      <dc:title>Matplotlib v3.10.0, https://matplotlib.org/</dc:title>
     </cc:Agent>
    </dc:creator>
   </cc:Work>
  </rdf:RDF>
 </metadata>
 <defs>
  <style type="text/css">*{stroke-linejoin: round; stroke-linecap: butt}</style>
 </defs>
 <g id="figure_1">
  <g id="patch_1">
   <path d="M 0 360 
L 2160 360 
L 2160 0 
L 0 0 
z
" style="fill: #ffffff"/>
  </g>
  <g id="axes_1">
   <g id="patch_2">
    <path d="M 53.03 318.04 
L 716.4 318.04 
L 716.4 25.44 
L 53.03 25.44 
z
" style="fill: #ffffff"/>
   </g>
   <g id="matplotlib.axis_1">
    <g id="xtick_1">
     <g id="line2d_1">
      <defs>
       <path id="m3a5b93a840" d="M 0 0 
L 0 3.5 
" style="stroke: #000000; stroke-width: 0.8"/>
      </defs>
      <g>
       <use xlink:href="#m3a5b93a840" x="83.183182" y="318.04" style="stroke: #000000; stroke-width: 0.8"/>
      </g>
     </g>
     <g id="text_1">
      <!-- 3000 -->
      <g transform="translate(70.458182 332.638438) scale(0.1 -0.1)">
       <defs>
        <path id="DejaVuSans-33" d="M 2597 2516 
Q 3050 2419 3304 2112 
Q 3559 1806 3559 1356 
Q 3559 666 3084 287 
Q 2609 -91 1734 -91 
Q 1441 -91 1130 -33 
Q 819 25 488 141 
L 488 750 
Q 750 597 1062 519 
Q 1375 441 1716 441 
Q 2309 441 2620 675 
Q 2931 909 2931 1356 
Q 2931 1769 2642 2001 
Q 2353 2234 1838 2234 
L 1294 2234 
L 1294 2753 
L 1863 2753 
Q 2328 2753 2575 2939 
Q 2822 3125 2822 3475 
Q 2822 3834 2567 4026 
Q 2313 4219 1838 4219 
Q 1578 4219 1281 4162 
Q 984 4106 628 3988 
L 628 4550 
Q 988 4650 1302 4700 
Q 1616 4750 1894 4750 
Q 2613 4750 3031 4423 
Q 3450 4097 3450 3541 
Q 3450 3153 3228 2886 
Q 3006 2619 2597 2516 
z
" transform="scale(0.015625)"/>
        <path id="DejaVuSans-30" d="M 2034 4250 
Q 1547 4250 1301 3770 
Q 1056 3291 1056 2328 
Q 1056 1369 1301 889 
Q 1547 409 2034 409 
Q 2525 409 2770 889 
Q 3016 1369 3016 2328 
Q 3016 3291 2770 3770 
Q 2525 4250 2034 4250 
z
M 2034 4750 
Q 2819 4750 3233 4129 
Q 3647 3509 3647 2328 
Q 3647 1150 3233 529 
Q 2819 -91 2034 -91 
Q 1250 -91 836 529 
Q 422 1150 422 2328 
Q 422 3509 836 4129 
Q 1250 4750 2034 4750 
z
" transform="scale(0.015625)"/>
       </defs>
       <use xlink:href="#DejaVuSans-33"/>
       <use xlink:href="#DejaVuSans-30" transform="translate(63.623047 0)"/>
       <use xlink:href="#DejaVuSans-30" transform="translate(127.246094 0)"/>
       <use xlink:href="#DejaVuSans-30" transform="translate(190.869141 0)"/>
      </g>
     </g>
    </g>
    <g id="xtick_2">
     <g id="line2d_2">
      <g>
       <use xlink:href="#m3a5b93a840" x="203.80194" y="318.04" style="stroke: #000000; stroke-width: 0.8"/>
      </g>
     </g>
     <g id="text_2">
      <!-- 3200 -->
      <g transform="translate(191.07694 332.638438) scale(0.1 -0.1)">
       <defs>
        <path id="DejaVuSans-32" d="M 1228 531 
L 3431 531 
L 3431 0 
L 469 0 
L 469 531 
Q 828 903 1448 1529 
Q 2069 2156 2228 2338 
Q 2531 2678 2651 2914 
Q 2772 3150 2772 3378 
Q 2772 3750 2511 3984 
Q 2250 4219 1831 4219 
Q 1534 4219 1204 4116 
Q 875 4013 500 3803 
L 500 4441 
Q 881 4594 1212 4672 
Q 1544 4750 1819 4750 
Q 2544 4750 2975 4387 
Q 3406 4025 3406 3419 
Q 3406 3131 3298 2873 
Q 3191 2616 2906 2266 
Q 2828 2175 2409 1742 
Q 1991 1309 1228 531 
z
" transform="scale(0.015625)"/>
       </defs>
       <use xlink:href="#DejaVuSans-33"/>
       <use xlink:href="#DejaVuSans-32" transform="translate(63.623047 0)"/>
       <use xlink:href="#DejaVuSans-30" transform="translate(127.246094 0)"/>
       <use xlink:href="#DejaVuSans-30" transform="translate(190.869141 0)"/>
      </g>
     </g>
    </g>
    <g id="xtick_3">
     <g id="line2d_3">
      <g>
       <use xlink:href="#m3a5b93a840" x="324.420698" y="318.04" style="stroke: #000000; stroke-width: 0.8"/>
      </g>
     </g>
     <g id="text_3">
      <!-- 3400 -->
      <g transform="translate(311.695698 332.638438) scale(0.1 -0.1)">
       <defs>
        <path id="DejaVuSans-34" d="M 2419 4116 
L 825 1625 
L 2419 1625 
L 2419 4116 
z
M 2253 4666 
L 3047 4666 
L 3047 1625 
L 3713 1625 
L 3713 1100 
L 3047 1100 
L 3047 0 
L 2419 0 
L 2419 1100 
L 313 1100 
L 313 1709 
L 2253 4666 
z
" transform="scale(0.015625)"/>
       </defs>
       <use xlink:href="#DejaVuSans-33"/>
       <use xlink:href="#DejaVuSans-34" transform="translate(63.623047 0)"/>
       <use xlink:href="#DejaVuSans-30" transform="translate(127.246094 0)"/>
       <use xlink:href="#DejaVuSans-30" transform="translate(190.869141 0)"/>
      </g>
     </g>
    </g>
    <g id="xtick_4">
     <g id="line2d_4">
      <g>
       <use xlink:href="#m3a5b93a840" x="445.039456" y="318.04" style="stroke: #000000; stroke-width: 0.8"/>
      </g>
     </g>
     <g id="text_4">
      <!-- 3600 -->
      <g transform="translate(432.314456 332.638438) scale(0.1 -0.1)">
       <defs>
        <path id="DejaVuSans-36" d="M 2113 2584 
Q 1688 2584 1439 2293 
Q 1191 2003 1191 1497 
Q 1191 994 1439 701 
Q 1688 409 2113 409 
Q 2538 409 2786 701 
Q 3034 994 3034 1497 
Q 3034 2003 2786 2293 
Q 2538 2584 2113 2584 
z
M 3366 4563 
L 3366 3988 
Q 3128 4100 2886 4159 
Q 2644 4219 2406 4219 
Q 1781 4219 1451 3797 
Q 1122 3375 1075 2522 
Q 1259 2794 1537 2939 
Q 1816 3084 2150 3084 
Q 2853 3084 3261 2657 
Q 3669 2231 3669 1497 
Q 3669 778 3244 343 
Q 2819 -91 2113 -91 
Q 1303 -91 875 529 
Q 447 1150 447 2328 
Q 447 3434 972 4092 
Q 1497 4750 2381 4750 
Q 2619 4750 2861 4703 
Q 3103 4656 3366 4563 
z
" transform="scale(0.015625)"/>
       </defs>
       <use xlink:href="#DejaVuSans-33"/>
       <use xlink:href="#DejaVuSans-36" transform="translate(63.623047 0)"/>
       <use xlink:href="#DejaVuSans-30" transform="translate(127.246094 0)"/>
       <use xlink:href="#DejaVuSans-30" transform="translate(190.869141 0)"/>
      </g>
     </g>
    </g>
    <g id="xtick_5">
     <g id="line2d_5">
      <g>
       <use xlink:href="#m3a5b93a840" x="565.658215" y="318.04" style="stroke: #000000; stroke-width: 0.8"/>
      </g>
     </g>
     <g id="text_5">
      <!-- 3800 -->
      <g transform="translate(552.933215 332.638438) scale(0.1 -0.1)">
       <defs>
        <path id="DejaVuSans-38" d="M 2034 2216 
Q 1584 2216 1326 1975 
Q 1069 1734 1069 1313 
Q 1069 891 1326 650 
Q 1584 409 2034 409 
Q 2484 409 2743 651 
Q 3003 894 3003 1313 
Q 3003 1734 2745 1975 
Q 2488 2216 2034 2216 
z
M 1403 2484 
Q 997 2584 770 2862 
Q 544 3141 544 3541 
Q 544 4100 942 4425 
Q 1341 4750 2034 4750 
Q 2731 4750 3128 4425 
Q 3525 4100 3525 3541 
Q 3525 3141 3298 2862 
Q 3072 2584 2669 2484 
Q 3125 2378 3379 2068 
Q 3634 1759 3634 1313 
Q 3634 634 3220 271 
Q 2806 -91 2034 -91 
Q 1263 -91 848 271 
Q 434 634 434 1313 
Q 434 1759 690 2068 
Q 947 2378 1403 2484 
z
M 1172 3481 
Q 1172 3119 1398 2916 
Q 1625 2713 2034 2713 
Q 2441 2713 2670 2916 
Q 2900 3119 2900 3481 
Q 2900 3844 2670 4047 
Q 2441 4250 2034 4250 
Q 1625 4250 1398 4047 
Q 1172 3844 1172 3481 
z
" transform="scale(0.015625)"/>
       </defs>
       <use xlink:href="#DejaVuSans-33"/>
       <use xlink:href="#DejaVuSans-38" transform="translate(63.623047 0)"/>
       <use xlink:href="#DejaVuSans-30" transform="translate(127.246094 0)"/>
       <use xlink:href="#DejaVuSans-30" transform="translate(190.869141 0)"/>
      </g>
     </g>
    </g>
    <g id="xtick_6">
     <g id="line2d_6">
      <g>
       <use xlink:href="#m3a5b93a840" x="686.276973" y="318.04" style="stroke: #000000; stroke-width: 0.8"/>
      </g>
     </g>
     <g id="text_6">
      <!-- 4000 -->
      <g transform="translate(673.551973 332.638438) scale(0.1 -0.1)">
       <use xlink:href="#DejaVuSans-34"/>
       <use xlink:href="#DejaVuSans-30" transform="translate(63.623047 0)"/>
       <use xlink:href="#DejaVuSans-30" transform="translate(127.246094 0)"/>
       <use xlink:href="#DejaVuSans-30" transform="translate(190.869141 0)"/>
      </g>
     </g>
    </g>
    <g id="text_7">
     <!-- Time (ms) -->
     <g transform="translate(359.515781 346.316563) scale(0.1 -0.1)">
      <defs>
       <path id="DejaVuSans-54" d="M -19 4666 
L 3928 4666 
L 3928 4134 
L 2272 4134 
L 2272 0 
L 1638 0 
L 1638 4134 
L -19 4134 
L -19 4666 
z
" transform="scale(0.015625)"/>
       <path id="DejaVuSans-69" d="M 603 3500 
L 1178 3500 
L 1178 0 
L 603 0 
L 603 3500 
z
M 603 4863 
L 1178 4863 
L 1178 4134 
L 603 4134 
L 603 4863 
z
" transform="scale(0.015625)"/>
       <path id="DejaVuSans-6d" d="M 3328 2828 
Q 3544 3216 3844 3400 
Q 4144 3584 4550 3584 
Q 5097 3584 5394 3201 
Q 5691 2819 5691 2113 
L 5691 0 
L 5113 0 
L 5113 2094 
Q 5113 2597 4934 2840 
Q 4756 3084 4391 3084 
Q 3944 3084 3684 2787 
Q 3425 2491 3425 1978 
L 3425 0 
L 2847 0 
L 2847 2094 
Q 2847 2600 2669 2842 
Q 2491 3084 2119 3084 
Q 1678 3084 1418 2786 
Q 1159 2488 1159 1978 
L 1159 0 
L 581 0 
L 581 3500 
L 1159 3500 
L 1159 2956 
Q 1356 3278 1631 3431 
Q 1906 3584 2284 3584 
Q 2666 3584 2933 3390 
Q 3200 3197 3328 2828 
z
" transform="scale(0.015625)"/>
       <path id="DejaVuSans-65" d="M 3597 1894 
L 3597 1613 
L 953 1613 
Q 991 1019 1311 708 
Q 1631 397 2203 397 
Q 2534 397 2845 478 
Q 3156 559 3463 722 
L 3463 178 
Q 3153 47 2828 -22 
Q 2503 -91 2169 -91 
Q 1331 -91 842 396 
Q 353 884 353 1716 
Q 353 2575 817 3079 
Q 1281 3584 2069 3584 
Q 2775 3584 3186 3129 
Q 3597 2675 3597 1894 
z
M 3022 2063 
Q 3016 2534 2758 2815 
Q 2500 3097 2075 3097 
Q 1594 3097 1305 2825 
Q 1016 2553 972 2059 
L 3022 2063 
z
" transform="scale(0.015625)"/>
       <path id="DejaVuSans-20" transform="scale(0.015625)"/>
       <path id="DejaVuSans-28" d="M 1984 4856 
Q 1566 4138 1362 3434 
Q 1159 2731 1159 2009 
Q 1159 1288 1364 580 
Q 1569 -128 1984 -844 
L 1484 -844 
Q 1016 -109 783 600 
Q 550 1309 550 2009 
Q 550 2706 781 3412 
Q 1013 4119 1484 4856 
L 1984 4856 
z
" transform="scale(0.015625)"/>
       <path id="DejaVuSans-73" d="M 2834 3397 
L 2834 2853 
Q 2591 2978 2328 3040 
Q 2066 3103 1784 3103 
Q 1356 3103 1142 2972 
Q 928 2841 928 2578 
Q 928 2378 1081 2264 
Q 1234 2150 1697 2047 
L 1894 2003 
Q 2506 1872 2764 1633 
Q 3022 1394 3022 966 
Q 3022 478 2636 193 
Q 2250 -91 1575 -91 
Q 1294 -91 989 -36 
Q 684 19 347 128 
L 347 722 
Q 666 556 975 473 
Q 1284 391 1588 391 
Q 1994 391 2212 530 
Q 2431 669 2431 922 
Q 2431 1156 2273 1281 
Q 2116 1406 1581 1522 
L 1381 1569 
Q 847 1681 609 1914 
Q 372 2147 372 2553 
Q 372 3047 722 3315 
Q 1072 3584 1716 3584 
Q 2034 3584 2315 3537 
Q 2597 3491 2834 3397 
z
" transform="scale(0.015625)"/>
       <path id="DejaVuSans-29" d="M 513 4856 
L 1013 4856 
Q 1481 4119 1714 3412 
Q 1947 2706 1947 2009 
Q 1947 1309 1714 600 
Q 1481 -109 1013 -844 
L 513 -844 
Q 928 -128 1133 580 
Q 1338 1288 1338 2009 
Q 1338 2731 1133 3434 
Q 928 4138 513 4856 
z
" transform="scale(0.015625)"/>
      </defs>
      <use xlink:href="#DejaVuSans-54"/>
      <use xlink:href="#DejaVuSans-69" transform="translate(57.958984 0)"/>
      <use xlink:href="#DejaVuSans-6d" transform="translate(85.742188 0)"/>
      <use xlink:href="#DejaVuSans-65" transform="translate(183.154297 0)"/>
      <use xlink:href="#DejaVuSans-20" transform="translate(244.677734 0)"/>
      <use xlink:href="#DejaVuSans-28" transform="translate(276.464844 0)"/>
      <use xlink:href="#DejaVuSans-6d" transform="translate(315.478516 0)"/>
      <use xlink:href="#DejaVuSans-73" transform="translate(412.890625 0)"/>
      <use xlink:href="#DejaVuSans-29" transform="translate(464.990234 0)"/>
     </g>
    </g>
   </g>
   <g id="matplotlib.axis_2">
    <g id="ytick_1">
     <g id="line2d_7">
      <defs>
       <path id="m1162b7d1ad" d="M 0 0 
L -3.5 0 
" style="stroke: #000000; stroke-width: 0.8"/>
      </defs>
      <g>
       <use xlink:href="#m1162b7d1ad" x="53.03" y="314.474533" style="stroke: #000000; stroke-width: 0.8"/>
      </g>
     </g>
     <g id="text_8">
      <!-- −80 -->
      <g transform="translate(24.925313 318.273752) scale(0.1 -0.1)">
       <defs>
        <path id="DejaVuSans-2212" d="M 678 2272 
L 4684 2272 
L 4684 1741 
L 678 1741 
L 678 2272 
z
" transform="scale(0.015625)"/>
       </defs>
       <use xlink:href="#DejaVuSans-2212"/>
       <use xlink:href="#DejaVuSans-38" transform="translate(83.789062 0)"/>
       <use xlink:href="#DejaVuSans-30" transform="translate(147.412109 0)"/>
      </g>
     </g>
    </g>
    <g id="ytick_2">
     <g id="line2d_8">
      <g>
       <use xlink:href="#m1162b7d1ad" x="53.03" y="272.02478" style="stroke: #000000; stroke-width: 0.8"/>
      </g>
     </g>
     <g id="text_9">
      <!-- −60 -->
      <g transform="translate(24.925313 275.823999) scale(0.1 -0.1)">
       <use xlink:href="#DejaVuSans-2212"/>
       <use xlink:href="#DejaVuSans-36" transform="translate(83.789062 0)"/>
       <use xlink:href="#DejaVuSans-30" transform="translate(147.412109 0)"/>
      </g>
     </g>
    </g>
    <g id="ytick_3">
     <g id="line2d_9">
      <g>
       <use xlink:href="#m1162b7d1ad" x="53.03" y="229.575028" style="stroke: #000000; stroke-width: 0.8"/>
      </g>
     </g>
     <g id="text_10">
      <!-- −40 -->
      <g transform="translate(24.925313 233.374247) scale(0.1 -0.1)">
       <use xlink:href="#DejaVuSans-2212"/>
       <use xlink:href="#DejaVuSans-34" transform="translate(83.789062 0)"/>
       <use xlink:href="#DejaVuSans-30" transform="translate(147.412109 0)"/>
      </g>
     </g>
    </g>
    <g id="ytick_4">
     <g id="line2d_10">
      <g>
       <use xlink:href="#m1162b7d1ad" x="53.03" y="187.125276" style="stroke: #000000; stroke-width: 0.8"/>
      </g>
     </g>
     <g id="text_11">
      <!-- −20 -->
      <g transform="translate(24.925313 190.924495) scale(0.1 -0.1)">
       <use xlink:href="#DejaVuSans-2212"/>
       <use xlink:href="#DejaVuSans-32" transform="translate(83.789062 0)"/>
       <use xlink:href="#DejaVuSans-30" transform="translate(147.412109 0)"/>
      </g>
     </g>
    </g>
    <g id="ytick_5">
     <g id="line2d_11">
      <g>
       <use xlink:href="#m1162b7d1ad" x="53.03" y="144.675524" style="stroke: #000000; stroke-width: 0.8"/>
      </g>
     </g>
     <g id="text_12">
      <!-- 0 -->
      <g transform="translate(39.6675 148.474742) scale(0.1 -0.1)">
       <use xlink:href="#DejaVuSans-30"/>
      </g>
     </g>
    </g>
    <g id="ytick_6">
     <g id="line2d_12">
      <g>
       <use xlink:href="#m1162b7d1ad" x="53.03" y="102.225771" style="stroke: #000000; stroke-width: 0.8"/>
      </g>
     </g>
     <g id="text_13">
      <!-- 20 -->
      <g transform="translate(33.305 106.02499) scale(0.1 -0.1)">
       <use xlink:href="#DejaVuSans-32"/>
       <use xlink:href="#DejaVuSans-30" transform="translate(63.623047 0)"/>
      </g>
     </g>
    </g>
    <g id="ytick_7">
     <g id="line2d_13">
      <g>
       <use xlink:href="#m1162b7d1ad" x="53.03" y="59.776019" style="stroke: #000000; stroke-width: 0.8"/>
      </g>
     </g>
     <g id="text_14">
      <!-- 40 -->
      <g transform="translate(33.305 63.575238) scale(0.1 -0.1)">
       <use xlink:href="#DejaVuSans-34"/>
       <use xlink:href="#DejaVuSans-30" transform="translate(63.623047 0)"/>
      </g>
     </g>
    </g>
    <g id="text_15">
     <!-- Voltage (mV) -->
     <g transform="translate(18.845625 204.2775) rotate(-90) scale(0.1 -0.1)">
      <defs>
       <path id="DejaVuSans-56" d="M 1831 0 
L 50 4666 
L 709 4666 
L 2188 738 
L 3669 4666 
L 4325 4666 
L 2547 0 
L 1831 0 
z
" transform="scale(0.015625)"/>
       <path id="DejaVuSans-6f" d="M 1959 3097 
Q 1497 3097 1228 2736 
Q 959 2375 959 1747 
Q 959 1119 1226 758 
Q 1494 397 1959 397 
Q 2419 397 2687 759 
Q 2956 1122 2956 1747 
Q 2956 2369 2687 2733 
Q 2419 3097 1959 3097 
z
M 1959 3584 
Q 2709 3584 3137 3096 
Q 3566 2609 3566 1747 
Q 3566 888 3137 398 
Q 2709 -91 1959 -91 
Q 1206 -91 779 398 
Q 353 888 353 1747 
Q 353 2609 779 3096 
Q 1206 3584 1959 3584 
z
" transform="scale(0.015625)"/>
       <path id="DejaVuSans-6c" d="M 603 4863 
L 1178 4863 
L 1178 0 
L 603 0 
L 603 4863 
z
" transform="scale(0.015625)"/>
       <path id="DejaVuSans-74" d="M 1172 4494 
L 1172 3500 
L 2356 3500 
L 2356 3053 
L 1172 3053 
L 1172 1153 
Q 1172 725 1289 603 
Q 1406 481 1766 481 
L 2356 481 
L 2356 0 
L 1766 0 
Q 1100 0 847 248 
Q 594 497 594 1153 
L 594 3053 
L 172 3053 
L 172 3500 
L 594 3500 
L 594 4494 
L 1172 4494 
z
" transform="scale(0.015625)"/>
       <path id="DejaVuSans-61" d="M 2194 1759 
Q 1497 1759 1228 1600 
Q 959 1441 959 1056 
Q 959 750 1161 570 
Q 1363 391 1709 391 
Q 2188 391 2477 730 
Q 2766 1069 2766 1631 
L 2766 1759 
L 2194 1759 
z
M 3341 1997 
L 3341 0 
L 2766 0 
L 2766 531 
Q 2569 213 2275 61 
Q 1981 -91 1556 -91 
Q 1019 -91 701 211 
Q 384 513 384 1019 
Q 384 1609 779 1909 
Q 1175 2209 1959 2209 
L 2766 2209 
L 2766 2266 
Q 2766 2663 2505 2880 
Q 2244 3097 1772 3097 
Q 1472 3097 1187 3025 
Q 903 2953 641 2809 
L 641 3341 
Q 956 3463 1253 3523 
Q 1550 3584 1831 3584 
Q 2591 3584 2966 3190 
Q 3341 2797 3341 1997 
z
" transform="scale(0.015625)"/>
       <path id="DejaVuSans-67" d="M 2906 1791 
Q 2906 2416 2648 2759 
Q 2391 3103 1925 3103 
Q 1463 3103 1205 2759 
Q 947 2416 947 1791 
Q 947 1169 1205 825 
Q 1463 481 1925 481 
Q 2391 481 2648 825 
Q 2906 1169 2906 1791 
z
M 3481 434 
Q 3481 -459 3084 -895 
Q 2688 -1331 1869 -1331 
Q 1566 -1331 1297 -1286 
Q 1028 -1241 775 -1147 
L 775 -588 
Q 1028 -725 1275 -790 
Q 1522 -856 1778 -856 
Q 2344 -856 2625 -561 
Q 2906 -266 2906 331 
L 2906 616 
Q 2728 306 2450 153 
Q 2172 0 1784 0 
Q 1141 0 747 490 
Q 353 981 353 1791 
Q 353 2603 747 3093 
Q 1141 3584 1784 3584 
Q 2172 3584 2450 3431 
Q 2728 3278 2906 2969 
L 2906 3500 
L 3481 3500 
L 3481 434 
z
" transform="scale(0.015625)"/>
      </defs>
      <use xlink:href="#DejaVuSans-56"/>
      <use xlink:href="#DejaVuSans-6f" transform="translate(60.658203 0)"/>
      <use xlink:href="#DejaVuSans-6c" transform="translate(121.839844 0)"/>
      <use xlink:href="#DejaVuSans-74" transform="translate(149.623047 0)"/>
      <use xlink:href="#DejaVuSans-61" transform="translate(188.832031 0)"/>
      <use xlink:href="#DejaVuSans-67" transform="translate(250.111328 0)"/>
      <use xlink:href="#DejaVuSans-65" transform="translate(313.587891 0)"/>
      <use xlink:href="#DejaVuSans-20" transform="translate(375.111328 0)"/>
      <use xlink:href="#DejaVuSans-28" transform="translate(406.898438 0)"/>
      <use xlink:href="#DejaVuSans-6d" transform="translate(445.912109 0)"/>
      <use xlink:href="#DejaVuSans-56" transform="translate(543.324219 0)"/>
      <use xlink:href="#DejaVuSans-29" transform="translate(611.732422 0)"/>
     </g>
    </g>
   </g>
   <g id="line2d_14">
    <path d="M 83.183182 291.226248 
L 86.77159 282.890577 
L 89.575976 277.12501 
L 92.350207 271.905553 
L 95.00382 267.380199 
L 97.566969 263.436488 
L 99.979344 260.12349 
L 102.2711 257.344594 
L 104.623166 254.850148 
L 107.216469 252.437699 
L 112.94586 247.24476 
L 114.272667 245.649008 
L 115.177307 244.220369 
L 115.90102 242.622979 
L 116.41365 240.997117 
L 116.805661 238.985037 
L 117.107208 236.063849 
L 117.288136 232.197825 
L 117.408754 224.855253 
L 117.469064 204.668099 
L 117.529373 38.778162 
L 117.589683 38.889541 
L 117.710301 40.100724 
L 117.861075 44.250745 
L 118.102312 59.13675 
L 118.524478 104.667221 
L 119.127572 178.934912 
L 119.429119 283.974716 
L 119.519583 284.389841 
L 119.549737 284.348504 
L 119.941748 282.831962 
L 122.293814 273.247675 
L 123.047681 268.933212 
L 123.741239 263.645584 
L 124.434797 256.568683 
L 125.248974 245.694004 
L 125.821913 235.522281 
L 126.002841 228.903388 
L 126.093305 214.561336 
L 126.183769 39.755753 
L 126.244078 39.996124 
L 126.394852 42.558394 
L 126.605935 50.53605 
L 126.907482 71.613483 
L 127.661349 147.953302 
L 127.872432 174.6009 
L 127.932741 207.16691 
L 128.083515 277.987304 
L 128.234288 283.936003 
L 128.264443 283.983194 
L 128.294597 283.939305 
L 128.56599 283.006766 
L 129.953105 278.314652 
L 131.40053 273.284714 
L 132.244862 269.478458 
L 133.059038 264.720764 
L 133.873215 258.582018 
L 134.928629 248.719408 
L 136.074507 236.129935 
L 136.315745 231.185367 
L 136.436364 224.086904 
L 136.496673 198.952615 
L 136.587137 39.764675 
L 136.617292 39.907742 
L 136.768065 42.432576 
L 136.979148 51.022287 
L 137.280695 74.524001 
L 138.125026 166.59526 
L 138.21549 193.27843 
L 138.366264 277.023342 
L 138.547192 285.420116 
L 138.607501 285.454427 
L 138.637656 285.404808 
L 139.964462 282.779245 
L 140.537401 282.257044 
L 141.050031 282.080002 
L 141.532506 282.143758 
L 142.045136 282.44052 
L 142.618075 283.046838 
L 143.221169 284.019482 
L 143.914727 285.601008 
L 144.668594 287.915005 
L 145.54308 291.344785 
L 146.598494 295.503377 
L 148.468085 301.689164 
L 149.191797 303.262041 
L 149.825046 304.109838 
L 150.397985 304.508012 
L 150.970924 304.643884 
L 151.634327 304.567185 
L 152.418349 304.247265 
L 153.413454 303.586255 
L 154.499023 302.567622 
L 155.855984 300.94203 
L 159.022226 297.021243 
L 160.982281 294.648449 
L 163.123264 291.375113 
L 171.445958 277.799719 
L 177.476896 267.623379 
L 180.703448 262.619123 
L 183.387215 258.854427 
L 185.950364 255.638798 
L 188.634131 252.630119 
L 194.152439 246.554636 
L 195.238008 244.935988 
L 196.052185 243.324428 
L 196.655279 241.629307 
L 197.077444 239.769569 
L 197.409146 237.210321 
L 197.620229 233.956056 
L 197.771002 227.841997 
L 197.831311 219.965697 
L 197.861466 205.583044 
L 197.921776 38.800865 
L 197.982085 38.917845 
L 198.102704 40.18331 
L 198.253477 44.499053 
L 198.494715 59.905724 
L 198.91688 106.420423 
L 199.519974 188.339776 
L 199.700902 278.74082 
L 199.851676 284.016984 
L 199.88183 284.043881 
L 199.911985 283.995508 
L 200.213532 282.825444 
L 202.565598 272.295739 
L 203.28931 267.529493 
L 203.982868 261.363011 
L 204.706581 252.694772 
L 205.490603 240.485413 
L 205.852459 231.876321 
L 205.973078 223.582966 
L 206.003232 216.784715 
L 206.123851 39.952291 
L 206.214315 40.903541 
L 206.395243 45.575385 
L 206.666636 60.093583 
L 207.088801 98.335759 
L 207.812514 183.63971 
L 208.023597 279.614312 
L 208.17437 282.431168 
L 208.325143 281.881771 
L 210.315353 272.188525 
L 211.099375 267.028253 
L 211.823087 260.730561 
L 212.576955 252.123534 
L 213.51175 238.700218 
L 213.873606 231.02659 
L 213.994225 224.261592 
L 214.054534 203.825588 
L 214.144999 40.447586 
L 214.175153 40.547868 
L 214.295772 42.504887 
L 214.506855 50.186773 
L 214.808402 71.04655 
L 215.50196 141.452339 
L 215.803506 182.24021 
L 216.044744 281.137019 
L 216.195517 282.735578 
L 216.255827 282.482565 
L 216.768457 280.484284 
L 218.39681 274.812754 
L 219.783925 269.708916 
L 220.83934 264.996577 
L 222.105837 258.200387 
L 223.975427 248.219086 
L 224.789604 245.064972 
L 225.453007 243.288133 
L 226.025946 242.358835 
L 226.478267 242.008341 
L 226.900432 241.946152 
L 227.322598 242.127911 
L 227.835228 242.597979 
L 228.528785 243.574472 
L 229.52389 245.397978 
L 230.790387 248.193408 
L 232.328276 252.157838 
L 234.047094 257.228808 
L 235.796066 263.09087 
L 237.846585 270.798934 
L 240.952518 282.500388 
L 242.12855 286.025685 
L 243.063346 288.182819 
L 243.847368 289.46875 
L 244.540926 290.240772 
L 245.144019 290.612873 
L 245.777268 290.775826 
L 246.410516 290.706058 
L 247.194538 290.363051 
L 248.099179 289.700153 
L 249.245057 288.534414 
L 250.662328 286.776319 
L 252.592228 284.013916 
L 255.487078 279.401429 
L 265.649208 262.872436 
L 268.453594 258.910675 
L 271.107207 255.543834 
L 274.032212 252.20303 
L 278.525261 247.115629 
L 279.761603 245.334543 
L 280.605934 243.720556 
L 281.239183 242.055897 
L 281.691503 240.250178 
L 282.023205 238.025333 
L 282.264442 234.936032 
L 282.415216 230.56984 
L 282.50568 223.23477 
L 282.535834 216.132179 
L 282.626299 38.748647 
L 282.777072 39.823497 
L 282.927845 43.583265 
L 283.138928 55.414122 
L 283.500785 92.080494 
L 284.224497 188.369906 
L 284.405425 280.433025 
L 284.556199 286.533534 
L 284.616508 286.641046 
L 284.646663 286.5932 
L 286.667027 282.221074 
L 287.903369 280.476736 
L 289.019093 278.797466 
L 289.803115 277.190326 
L 290.858529 274.372722 
L 291.612396 271.633578 
L 292.426573 267.767916 
L 293.331213 262.30398 
L 294.446937 254.09517 
L 295.834053 242.315976 
L 296.256218 237.059582 
L 296.467301 231.593699 
L 296.557765 224.933642 
L 296.618074 197.909438 
L 296.678384 39.006906 
L 296.738693 39.179055 
L 296.859312 40.577408 
L 297.04024 46.023736 
L 297.281478 61.192896 
L 297.703643 104.938693 
L 298.306737 180.351324 
L 298.578129 287.071565 
L 298.728903 288.54675 
L 298.879676 288.372573 
L 299.48277 287.642671 
L 299.965245 287.378649 
L 300.508029 287.373728 
L 300.990504 287.593646 
L 301.472979 288.071741 
L 302.015764 288.948339 
L 303.644117 292.424126 
L 306.629431 299.804459 
L 307.383299 300.926978 
L 307.986392 301.46157 
L 308.559332 301.660304 
L 309.041807 301.587393 
L 309.584591 301.254771 
L 310.187685 300.626797 
L 311.001861 299.410254 
L 312.177894 297.208753 
L 315.253673 290.821159 
L 319.565793 281.19868 
L 322.30987 275.80114 
L 325.26503 270.458059 
L 327.948797 266.048541 
L 330.481791 262.303048 
L 332.864011 259.168448 
L 335.155768 256.512662 
L 337.598298 254.0363 
L 340.523302 251.419011 
L 344.473567 247.885802 
L 345.981301 246.210114 
L 347.036715 244.724565 
L 347.790583 243.296813 
L 348.363522 241.741611 
L 348.815842 239.818744 
L 349.117389 237.623249 
L 349.358626 234.133885 
L 349.5094 228.378697 
L 349.599864 211.521327 
L 349.660173 38.763061 
L 349.750637 39.018048 
L 349.871256 40.481926 
L 350.052184 46.520216 
L 350.293422 63.595661 
L 350.836206 124.853046 
L 351.288527 186.775765 
L 351.469455 278.438107 
L 351.620228 284.297296 
L 351.650383 284.36519 
L 351.710692 284.235539 
L 354.002449 275.091508 
L 354.816625 270.952569 
L 355.540338 266.068434 
L 356.233896 259.765896 
L 356.957608 251.041716 
L 357.74163 238.930666 
L 358.043177 231.135196 
L 358.133641 224.788814 
L 358.193951 199.446048 
L 358.284415 39.759562 
L 358.314569 39.907599 
L 358.465343 42.264093 
L 358.676426 49.903648 
L 358.977972 70.51189 
L 359.67153 140.664061 
L 359.973077 178.997521 
L 360.274624 283.490888 
L 360.365088 283.872186 
L 360.395243 283.802368 
L 360.968182 281.719904 
L 363.320248 273.524755 
L 364.194734 269.5632 
L 364.978756 264.925657 
L 365.792932 258.679076 
L 366.818192 248.909849 
L 367.933915 236.268246 
L 368.175153 231.397884 
L 368.295772 224.84762 
L 368.356081 207.128855 
L 368.446545 39.81005 
L 368.4767 39.906906 
L 368.597318 41.613357 
L 368.808401 49.091784 
L 369.109948 70.867874 
L 369.924125 157.517165 
L 370.074898 186.344573 
L 370.255826 279.428796 
L 370.4066 285.256439 
L 370.466909 285.347362 
L 370.497064 285.30711 
L 371.552478 282.964858 
L 372.698356 281.845364 
L 373.180831 281.767578 
L 373.663306 281.913402 
L 374.175936 282.298283 
L 374.77903 283.046201 
L 375.472588 284.296868 
L 376.25661 286.20229 
L 377.131096 288.939381 
L 378.1262 292.805777 
L 379.965636 300.127768 
L 381.262288 303.140597 
L 381.835227 303.987829 
L 382.408166 304.426094 
L 382.920796 304.556564 
L 383.554044 304.498677 
L 384.368221 304.181448 
L 385.272862 303.571285 
L 386.479049 302.454733 
L 388.408949 300.305888 
L 391.092717 297.035096 
L 393.414628 293.845566 
L 397.123655 288.345353 
L 400.591444 282.714425 
L 412.170845 263.485171 
L 414.914922 259.551701 
L 417.47807 256.267826 
L 420.161838 253.19904 
L 426.524477 246.136388 
L 427.549737 244.50627 
L 428.303604 242.874692 
L 428.876543 241.068657 
L 429.268554 239.072813 
L 429.539946 236.532498 
L 429.751029 232.321898 
L 429.871648 225.112337 
L 429.931957 206.216163 
L 429.992266 38.774732 
L 430.052576 38.901505 
L 430.173195 40.149227 
L 430.323968 44.471364 
L 430.565205 59.789621 
L 430.987371 106.237836 
L 431.590465 186.102113 
L 431.801548 280.915439 
L 431.952321 283.983326 
L 432.07294 283.640174 
L 434.636089 272.119005 
L 435.359801 267.258813 
L 436.053359 260.977097 
L 436.746917 252.578615 
L 437.530939 240.278145 
L 437.892795 231.476402 
L 438.013414 221.876121 
L 438.043568 211.816023 
L 438.134033 39.942161 
L 438.194342 40.255778 
L 438.37527 43.93474 
L 438.616508 54.853176 
L 438.978364 84.152453 
L 439.822695 177.041191 
L 440.184551 282.374271 
L 440.275016 282.159197 
L 440.998728 278.845246 
L 442.506463 271.008343 
L 443.26033 265.686873 
L 443.984042 258.915627 
L 444.798219 248.965478 
L 445.64255 236.018842 
L 445.883788 229.8141 
L 445.974252 223.884206 
L 446.034561 199.630431 
L 446.125025 40.458411 
L 446.15518 40.589589 
L 446.305953 43.370527 
L 446.547191 53.635551 
L 446.878893 79.494301 
L 447.723224 168.641408 
L 447.813688 203.281046 
L 447.964461 276.693418 
L 448.115235 282.593559 
L 448.145389 282.625809 
L 448.175544 282.579726 
L 448.416782 281.68524 
L 450.316527 274.795906 
L 451.733798 269.465637 
L 452.789212 264.566198 
L 454.025554 257.659298 
L 455.955454 246.990536 
L 456.769631 243.780027 
L 457.433034 242.005154 
L 457.975818 241.126665 
L 458.428139 240.778523 
L 458.850304 240.742531 
L 459.27247 240.955236 
L 459.7851 241.474872 
L 460.538967 242.606527 
L 461.624536 244.699108 
L 463.041806 247.944949 
L 464.700314 252.33213 
L 466.449286 257.602312 
L 468.228413 263.67641 
L 470.45986 272.159023 
L 473.053163 281.978163 
L 474.289505 285.805301 
L 475.254455 288.118145 
L 476.038477 289.463143 
L 476.76219 290.310677 
L 477.395438 290.721027 
L 478.028687 290.894067 
L 478.661935 290.830133 
L 479.445957 290.495676 
L 480.320443 289.864819 
L 481.436167 288.744395 
L 482.823282 287.043814 
L 484.753183 284.3054 
L 487.497259 279.956346 
L 498.533876 262.065209 
L 501.277952 258.247813 
L 504.112493 254.710204 
L 507.580283 250.817077 
L 510.354514 247.676465 
L 511.74163 245.799348 
L 512.70658 244.074667 
L 513.369983 242.489806 
L 513.852458 240.777063 
L 514.214314 238.665963 
L 514.485706 235.780121 
L 514.666635 231.320507 
L 514.757099 225.37555 
L 514.817408 208.864674 
L 514.877717 38.74 
L 514.938027 38.872616 
L 515.058646 40.026487 
L 515.209419 44.09697 
L 515.420502 56.45785 
L 515.782358 93.69142 
L 516.475916 180.632499 
L 516.747308 285.404639 
L 516.867927 286.729284 
L 516.898082 286.714956 
L 517.139319 286.099806 
L 518.104269 283.84791 
L 518.224888 283.681226 
L 518.647054 282.90998 
L 519.823087 281.280945 
L 521.572059 278.916337 
L 522.41639 277.338312 
L 523.230566 275.316879 
L 524.044743 272.657304 
L 524.85892 269.20932 
L 525.733406 264.494884 
L 526.849129 257.147096 
L 528.628256 243.73941 
L 529.140886 238.623663 
L 529.412278 233.522604 
L 529.532897 227.560912 
L 529.593206 217.755163 
L 529.623361 186.988354 
L 529.68367 38.969437 
L 529.743979 39.165924 
L 529.864598 40.618857 
L 530.045526 46.238551 
L 530.286764 61.873381 
L 530.739084 109.919608 
L 531.312023 188.461439 
L 531.492951 282.303326 
L 531.643725 288.58198 
L 531.734189 288.804095 
L 531.764344 288.779274 
L 532.035736 288.362758 
L 532.729294 287.759333 
L 533.241923 287.679592 
L 533.60378 287.801146 
L 534.086255 288.182017 
L 534.719503 288.978722 
L 535.443216 290.289937 
L 536.347856 292.415219 
L 539.423635 300.039575 
L 540.087038 300.983063 
L 540.659977 301.427751 
L 541.112297 301.522953 
L 541.534463 301.394386 
L 542.016938 301.017018 
L 542.650187 300.199728 
L 543.434208 299.357512 
L 544.338849 298.674366 
L 544.791169 297.948741 
L 545.75612 295.907331 
L 548.379578 289.920892 
L 551.937831 281.897624 
L 554.591444 276.514172 
L 557.425984 271.260454 
L 560.109752 266.743912 
L 562.612591 262.952491 
L 564.994811 259.737472 
L 567.286568 257.011778 
L 569.638634 254.560125 
L 572.352556 252.070644 
L 577.418544 247.509528 
L 578.835814 245.857276 
L 579.800764 244.392999 
L 580.524477 242.85964 
L 581.067261 241.235713 
L 581.459272 239.385859 
L 581.760819 236.79176 
L 581.971902 232.998893 
L 582.09252 227.409898 
L 582.15283 218.386587 
L 582.182985 197.781517 
L 582.243294 38.754433 
L 582.303603 38.907332 
L 582.424222 40.181167 
L 582.60515 45.743309 
L 582.846388 62.144849 
L 583.328863 115.999438 
L 583.841492 180.082127 
L 584.112885 283.374645 
L 584.233503 284.40077 
L 584.263658 284.344306 
L 585.469846 279.683848 
L 586.947425 273.524097 
L 587.701293 269.322136 
L 588.394851 264.14647 
L 589.088408 257.236122 
L 589.87243 247.012546 
L 590.505679 236.187569 
L 590.716762 228.768677 
L 590.807226 213.913183 
L 590.89769 39.751417 
L 590.957999 40.013046 
L 591.108773 42.59705 
L 591.319855 50.61697 
L 591.621402 71.791851 
L 592.345115 145.071823 
L 592.586352 174.9022 
L 592.646662 209.062968 
L 592.797435 278.159984 
L 592.948209 283.943466 
L 592.978363 283.992214 
L 593.038673 283.889574 
L 593.702076 281.528076 
L 596.777854 270.491536 
L 597.561876 266.222463 
L 598.406208 260.271739 
L 599.341003 251.989351 
L 600.697964 237.830282 
L 600.999511 232.971803 
L 601.150284 227.208805 
L 601.210594 219.738275 
L 601.240748 204.349487 
L 601.331212 39.750445 
L 601.361367 39.884266 
L 601.481986 41.617423 
L 601.662914 47.702639 
L 601.934306 65.886468 
L 602.477091 123.14613 
L 602.929411 178.350648 
L 603.261113 285.298541 
L 603.321422 285.516925 
L 603.381731 285.463434 
L 604.708538 282.854483 
L 605.311631 282.327165 
L 605.794106 282.179691 
L 606.276581 282.26218 
L 606.789211 282.58058 
L 607.36215 283.207821 
L 607.995399 284.252484 
L 608.688957 285.868375 
L 609.442824 288.217123 
L 610.347465 291.839248 
L 611.161641 294.997186 
L 611.493343 296.183355 
L 612.820149 300.828167 
L 613.604171 302.750388 
L 614.297729 303.893782 
L 614.870668 304.470518 
L 615.383298 304.694569 
L 615.956237 304.724157 
L 616.61964 304.513607 
L 617.58459 303.951679 
L 618.971706 302.838825 
L 620.177893 301.575141 
L 621.685628 299.618482 
L 623.856765 296.773436 
L 626.058058 293.988112 
L 627.897494 291.282405 
L 631.938222 284.940197 
L 635.948796 278.195466 
L 642.673292 266.881262 
L 645.779225 262.119929 
L 648.432837 258.447478 
L 650.995986 255.278419 
L 653.9813 251.970006 
L 658.504504 247.025034 
L 659.650382 245.410158 
L 660.615332 243.642771 
L 661.248581 242.025182 
L 661.700901 240.256218 
L 662.062757 237.861591 
L 662.303995 234.736472 
L 662.454768 230.086361 
L 662.545232 221.408809 
L 662.575387 211.280498 
L 662.635696 38.775555 
L 662.72616 39.044647 
L 662.846779 40.606215 
L 663.027707 46.95827 
L 663.299099 67.645496 
L 664.113276 160.712635 
L 664.233895 184.957273 
L 664.444978 280.730888 
L 664.595751 284.007559 
L 664.686215 283.861343 
L 665.108381 282.081864 
L 666.797043 274.814382 
L 667.61122 270.212942 
L 668.304778 264.962824 
L 668.998336 257.893131 
L 669.752203 247.701533 
L 670.415606 235.833001 
L 670.626689 228.145326 
L 670.686998 221.194136 
L 670.717153 209.078718 
L 670.807617 39.934065 
L 670.837772 40.030569 
L 670.958391 41.717249 
L 671.169473 48.647813 
L 671.47102 68.121549 
L 672.043959 125.262855 
L 672.49628 178.699846 
L 672.827981 282.327373 
L 672.858136 282.396269 
L 672.918445 282.279677 
L 673.431075 279.986564 
L 674.757881 273.532595 
L 675.602213 268.325114 
L 676.325925 262.426753 
L 677.079793 254.29753 
L 677.984433 241.858457 
L 678.497063 232.425495 
L 678.647836 225.955337 
L 678.708146 215.987787 
L 678.828765 40.461146 
L 678.919229 41.52174 
L 679.100157 46.698728 
L 679.371549 62.277798 
L 679.823869 105.031707 
L 680.457118 176.299779 
L 680.849129 282.666682 
L 680.879283 282.709703 
L 680.909438 282.576324 
L 681.210985 281.314684 
L 682.929802 275.168206 
L 684.407382 269.712213 
L 685.462796 264.921005 
L 686.246818 260.749384 
L 686.246818 260.749384 
" clip-path="url(#pfb669c9804)" style="fill: none; stroke: #1f77b4; stroke-width: 1.5; stroke-linecap: square"/>
   </g>
   <g id="patch_3">
    <path d="M 53.03 318.04 
L 53.03 25.44 
" style="fill: none; stroke: #000000; stroke-width: 0.8; stroke-linejoin: miter; stroke-linecap: square"/>
   </g>
   <g id="patch_4">
    <path d="M 716.4 318.04 
L 716.4 25.44 
" style="fill: none; stroke: #000000; stroke-width: 0.8; stroke-linejoin: miter; stroke-linecap: square"/>
   </g>
   <g id="patch_5">
    <path d="M 53.03 318.04 
L 716.4 318.04 
" style="fill: none; stroke: #000000; stroke-width: 0.8; stroke-linejoin: miter; stroke-linecap: square"/>
   </g>
   <g id="patch_6">
    <path d="M 53.03 25.44 
L 716.4 25.44 
" style="fill: none; stroke: #000000; stroke-width: 0.8; stroke-linejoin: miter; stroke-linecap: square"/>
   </g>
   <g id="text_16">
    <!-- Slighty Aperiodic -->
    <g transform="translate(333.965312 19.44) scale(0.12 -0.12)">
     <defs>
      <path id="DejaVuSans-53" d="M 3425 4513 
L 3425 3897 
Q 3066 4069 2747 4153 
Q 2428 4238 2131 4238 
Q 1616 4238 1336 4038 
Q 1056 3838 1056 3469 
Q 1056 3159 1242 3001 
Q 1428 2844 1947 2747 
L 2328 2669 
Q 3034 2534 3370 2195 
Q 3706 1856 3706 1288 
Q 3706 609 3251 259 
Q 2797 -91 1919 -91 
Q 1588 -91 1214 -16 
Q 841 59 441 206 
L 441 856 
Q 825 641 1194 531 
Q 1563 422 1919 422 
Q 2459 422 2753 634 
Q 3047 847 3047 1241 
Q 3047 1584 2836 1778 
Q 2625 1972 2144 2069 
L 1759 2144 
Q 1053 2284 737 2584 
Q 422 2884 422 3419 
Q 422 4038 858 4394 
Q 1294 4750 2059 4750 
Q 2388 4750 2728 4690 
Q 3069 4631 3425 4513 
z
" transform="scale(0.015625)"/>
      <path id="DejaVuSans-68" d="M 3513 2113 
L 3513 0 
L 2938 0 
L 2938 2094 
Q 2938 2591 2744 2837 
Q 2550 3084 2163 3084 
Q 1697 3084 1428 2787 
Q 1159 2491 1159 1978 
L 1159 0 
L 581 0 
L 581 4863 
L 1159 4863 
L 1159 2956 
Q 1366 3272 1645 3428 
Q 1925 3584 2291 3584 
Q 2894 3584 3203 3211 
Q 3513 2838 3513 2113 
z
" transform="scale(0.015625)"/>
      <path id="DejaVuSans-79" d="M 2059 -325 
Q 1816 -950 1584 -1140 
Q 1353 -1331 966 -1331 
L 506 -1331 
L 506 -850 
L 844 -850 
Q 1081 -850 1212 -737 
Q 1344 -625 1503 -206 
L 1606 56 
L 191 3500 
L 800 3500 
L 1894 763 
L 2988 3500 
L 3597 3500 
L 2059 -325 
z
" transform="scale(0.015625)"/>
      <path id="DejaVuSans-41" d="M 2188 4044 
L 1331 1722 
L 3047 1722 
L 2188 4044 
z
M 1831 4666 
L 2547 4666 
L 4325 0 
L 3669 0 
L 3244 1197 
L 1141 1197 
L 716 0 
L 50 0 
L 1831 4666 
z
" transform="scale(0.015625)"/>
      <path id="DejaVuSans-70" d="M 1159 525 
L 1159 -1331 
L 581 -1331 
L 581 3500 
L 1159 3500 
L 1159 2969 
Q 1341 3281 1617 3432 
Q 1894 3584 2278 3584 
Q 2916 3584 3314 3078 
Q 3713 2572 3713 1747 
Q 3713 922 3314 415 
Q 2916 -91 2278 -91 
Q 1894 -91 1617 61 
Q 1341 213 1159 525 
z
M 3116 1747 
Q 3116 2381 2855 2742 
Q 2594 3103 2138 3103 
Q 1681 3103 1420 2742 
Q 1159 2381 1159 1747 
Q 1159 1113 1420 752 
Q 1681 391 2138 391 
Q 2594 391 2855 752 
Q 3116 1113 3116 1747 
z
" transform="scale(0.015625)"/>
      <path id="DejaVuSans-72" d="M 2631 2963 
Q 2534 3019 2420 3045 
Q 2306 3072 2169 3072 
Q 1681 3072 1420 2755 
Q 1159 2438 1159 1844 
L 1159 0 
L 581 0 
L 581 3500 
L 1159 3500 
L 1159 2956 
Q 1341 3275 1631 3429 
Q 1922 3584 2338 3584 
Q 2397 3584 2469 3576 
Q 2541 3569 2628 3553 
L 2631 2963 
z
" transform="scale(0.015625)"/>
      <path id="DejaVuSans-64" d="M 2906 2969 
L 2906 4863 
L 3481 4863 
L 3481 0 
L 2906 0 
L 2906 525 
Q 2725 213 2448 61 
Q 2172 -91 1784 -91 
Q 1150 -91 751 415 
Q 353 922 353 1747 
Q 353 2572 751 3078 
Q 1150 3584 1784 3584 
Q 2172 3584 2448 3432 
Q 2725 3281 2906 2969 
z
M 947 1747 
Q 947 1113 1208 752 
Q 1469 391 1925 391 
Q 2381 391 2643 752 
Q 2906 1113 2906 1747 
Q 2906 2381 2643 2742 
Q 2381 3103 1925 3103 
Q 1469 3103 1208 2742 
Q 947 2381 947 1747 
z
" transform="scale(0.015625)"/>
      <path id="DejaVuSans-63" d="M 3122 3366 
L 3122 2828 
Q 2878 2963 2633 3030 
Q 2388 3097 2138 3097 
Q 1578 3097 1268 2742 
Q 959 2388 959 1747 
Q 959 1106 1268 751 
Q 1578 397 2138 397 
Q 2388 397 2633 464 
Q 2878 531 3122 666 
L 3122 134 
Q 2881 22 2623 -34 
Q 2366 -91 2075 -91 
Q 1284 -91 818 406 
Q 353 903 353 1747 
Q 353 2603 823 3093 
Q 1294 3584 2113 3584 
Q 2378 3584 2631 3529 
Q 2884 3475 3122 3366 
z
" transform="scale(0.015625)"/>
     </defs>
     <use xlink:href="#DejaVuSans-53"/>
     <use xlink:href="#DejaVuSans-6c" transform="translate(63.476562 0)"/>
     <use xlink:href="#DejaVuSans-69" transform="translate(91.259766 0)"/>
     <use xlink:href="#DejaVuSans-67" transform="translate(119.042969 0)"/>
     <use xlink:href="#DejaVuSans-68" transform="translate(182.519531 0)"/>
     <use xlink:href="#DejaVuSans-74" transform="translate(245.898438 0)"/>
     <use xlink:href="#DejaVuSans-79" transform="translate(285.107422 0)"/>
     <use xlink:href="#DejaVuSans-20" transform="translate(344.287109 0)"/>
     <use xlink:href="#DejaVuSans-41" transform="translate(376.074219 0)"/>
     <use xlink:href="#DejaVuSans-70" transform="translate(444.482422 0)"/>
     <use xlink:href="#DejaVuSans-65" transform="translate(507.958984 0)"/>
     <use xlink:href="#DejaVuSans-72" transform="translate(569.482422 0)"/>
     <use xlink:href="#DejaVuSans-69" transform="translate(610.595703 0)"/>
     <use xlink:href="#DejaVuSans-6f" transform="translate(638.378906 0)"/>
     <use xlink:href="#DejaVuSans-64" transform="translate(699.560547 0)"/>
     <use xlink:href="#DejaVuSans-69" transform="translate(763.037109 0)"/>
     <use xlink:href="#DejaVuSans-63" transform="translate(790.820312 0)"/>
    </g>
   </g>
   <g id="legend_1">
    <g id="patch_7">
     <path d="M 60.03 48.118125 
L 98.870625 48.118125 
Q 100.870625 48.118125 100.870625 46.118125 
L 100.870625 32.44 
Q 100.870625 30.44 98.870625 30.44 
L 60.03 30.44 
Q 58.03 30.44 58.03 32.44 
L 58.03 46.118125 
Q 58.03 48.118125 60.03 48.118125 
z
" style="fill: #ffffff; opacity: 0.8; stroke: #cccccc; stroke-linejoin: miter"/>
    </g>
    <g id="line2d_15">
     <path d="M 62.03 38.538438 
L 72.03 38.538438 
L 82.03 38.538438 
" style="fill: none; stroke: #1f77b4; stroke-width: 1.5; stroke-linecap: square"/>
    </g>
    <g id="text_17">
     <!-- V -->
     <g transform="translate(90.03 42.038438) scale(0.1 -0.1)">
      <use xlink:href="#DejaVuSans-56"/>
     </g>
    </g>
   </g>
  </g>
  <g id="axes_2">
   <g id="patch_8">
    <path d="M 769.43 318.04 
L 1432.8 318.04 
L 1432.8 25.44 
L 769.43 25.44 
z
" style="fill: #ffffff"/>
   </g>
   <g id="matplotlib.axis_3">
    <g id="xtick_7">
     <g id="line2d_16">
      <g>
       <use xlink:href="#m3a5b93a840" x="799.583182" y="318.04" style="stroke: #000000; stroke-width: 0.8"/>
      </g>
     </g>
     <g id="text_18">
      <!-- 3000 -->
      <g transform="translate(786.858182 332.638438) scale(0.1 -0.1)">
       <use xlink:href="#DejaVuSans-33"/>
       <use xlink:href="#DejaVuSans-30" transform="translate(63.623047 0)"/>
       <use xlink:href="#DejaVuSans-30" transform="translate(127.246094 0)"/>
       <use xlink:href="#DejaVuSans-30" transform="translate(190.869141 0)"/>
      </g>
     </g>
    </g>
    <g id="xtick_8">
     <g id="line2d_17">
      <g>
       <use xlink:href="#m3a5b93a840" x="920.20194" y="318.04" style="stroke: #000000; stroke-width: 0.8"/>
      </g>
     </g>
     <g id="text_19">
      <!-- 3200 -->
      <g transform="translate(907.47694 332.638438) scale(0.1 -0.1)">
       <use xlink:href="#DejaVuSans-33"/>
       <use xlink:href="#DejaVuSans-32" transform="translate(63.623047 0)"/>
       <use xlink:href="#DejaVuSans-30" transform="translate(127.246094 0)"/>
       <use xlink:href="#DejaVuSans-30" transform="translate(190.869141 0)"/>
      </g>
     </g>
    </g>
    <g id="xtick_9">
     <g id="line2d_18">
      <g>
       <use xlink:href="#m3a5b93a840" x="1040.820698" y="318.04" style="stroke: #000000; stroke-width: 0.8"/>
      </g>
     </g>
     <g id="text_20">
      <!-- 3400 -->
      <g transform="translate(1028.095698 332.638438) scale(0.1 -0.1)">
       <use xlink:href="#DejaVuSans-33"/>
       <use xlink:href="#DejaVuSans-34" transform="translate(63.623047 0)"/>
       <use xlink:href="#DejaVuSans-30" transform="translate(127.246094 0)"/>
       <use xlink:href="#DejaVuSans-30" transform="translate(190.869141 0)"/>
      </g>
     </g>
    </g>
    <g id="xtick_10">
     <g id="line2d_19">
      <g>
       <use xlink:href="#m3a5b93a840" x="1161.439456" y="318.04" style="stroke: #000000; stroke-width: 0.8"/>
      </g>
     </g>
     <g id="text_21">
      <!-- 3600 -->
      <g transform="translate(1148.714456 332.638438) scale(0.1 -0.1)">
       <use xlink:href="#DejaVuSans-33"/>
       <use xlink:href="#DejaVuSans-36" transform="translate(63.623047 0)"/>
       <use xlink:href="#DejaVuSans-30" transform="translate(127.246094 0)"/>
       <use xlink:href="#DejaVuSans-30" transform="translate(190.869141 0)"/>
      </g>
     </g>
    </g>
    <g id="xtick_11">
     <g id="line2d_20">
      <g>
       <use xlink:href="#m3a5b93a840" x="1282.058215" y="318.04" style="stroke: #000000; stroke-width: 0.8"/>
      </g>
     </g>
     <g id="text_22">
      <!-- 3800 -->
      <g transform="translate(1269.333215 332.638438) scale(0.1 -0.1)">
       <use xlink:href="#DejaVuSans-33"/>
       <use xlink:href="#DejaVuSans-38" transform="translate(63.623047 0)"/>
       <use xlink:href="#DejaVuSans-30" transform="translate(127.246094 0)"/>
       <use xlink:href="#DejaVuSans-30" transform="translate(190.869141 0)"/>
      </g>
     </g>
    </g>
    <g id="xtick_12">
     <g id="line2d_21">
      <g>
       <use xlink:href="#m3a5b93a840" x="1402.676973" y="318.04" style="stroke: #000000; stroke-width: 0.8"/>
      </g>
     </g>
     <g id="text_23">
      <!-- 4000 -->
      <g transform="translate(1389.951973 332.638438) scale(0.1 -0.1)">
       <use xlink:href="#DejaVuSans-34"/>
       <use xlink:href="#DejaVuSans-30" transform="translate(63.623047 0)"/>
       <use xlink:href="#DejaVuSans-30" transform="translate(127.246094 0)"/>
       <use xlink:href="#DejaVuSans-30" transform="translate(190.869141 0)"/>
      </g>
     </g>
    </g>
    <g id="text_24">
     <!-- Time (ms) -->
     <g transform="translate(1075.915781 346.316563) scale(0.1 -0.1)">
      <use xlink:href="#DejaVuSans-54"/>
      <use xlink:href="#DejaVuSans-69" transform="translate(57.958984 0)"/>
      <use xlink:href="#DejaVuSans-6d" transform="translate(85.742188 0)"/>
      <use xlink:href="#DejaVuSans-65" transform="translate(183.154297 0)"/>
      <use xlink:href="#DejaVuSans-20" transform="translate(244.677734 0)"/>
      <use xlink:href="#DejaVuSans-28" transform="translate(276.464844 0)"/>
      <use xlink:href="#DejaVuSans-6d" transform="translate(315.478516 0)"/>
      <use xlink:href="#DejaVuSans-73" transform="translate(412.890625 0)"/>
      <use xlink:href="#DejaVuSans-29" transform="translate(464.990234 0)"/>
     </g>
    </g>
   </g>
   <g id="matplotlib.axis_4">
    <g id="ytick_8">
     <g id="line2d_22">
      <g>
       <use xlink:href="#m1162b7d1ad" x="769.43" y="311.156129" style="stroke: #000000; stroke-width: 0.8"/>
      </g>
     </g>
     <g id="text_25">
      <!-- −80 -->
      <g transform="translate(741.325313 314.955348) scale(0.1 -0.1)">
       <use xlink:href="#DejaVuSans-2212"/>
       <use xlink:href="#DejaVuSans-38" transform="translate(83.789062 0)"/>
       <use xlink:href="#DejaVuSans-30" transform="translate(147.412109 0)"/>
      </g>
     </g>
    </g>
    <g id="ytick_9">
     <g id="line2d_23">
      <g>
       <use xlink:href="#m1162b7d1ad" x="769.43" y="269.220377" style="stroke: #000000; stroke-width: 0.8"/>
      </g>
     </g>
     <g id="text_26">
      <!-- −60 -->
      <g transform="translate(741.325313 273.019596) scale(0.1 -0.1)">
       <use xlink:href="#DejaVuSans-2212"/>
       <use xlink:href="#DejaVuSans-36" transform="translate(83.789062 0)"/>
       <use xlink:href="#DejaVuSans-30" transform="translate(147.412109 0)"/>
      </g>
     </g>
    </g>
    <g id="ytick_10">
     <g id="line2d_24">
      <g>
       <use xlink:href="#m1162b7d1ad" x="769.43" y="227.284625" style="stroke: #000000; stroke-width: 0.8"/>
      </g>
     </g>
     <g id="text_27">
      <!-- −40 -->
      <g transform="translate(741.325313 231.083843) scale(0.1 -0.1)">
       <use xlink:href="#DejaVuSans-2212"/>
       <use xlink:href="#DejaVuSans-34" transform="translate(83.789062 0)"/>
       <use xlink:href="#DejaVuSans-30" transform="translate(147.412109 0)"/>
      </g>
     </g>
    </g>
    <g id="ytick_11">
     <g id="line2d_25">
      <g>
       <use xlink:href="#m1162b7d1ad" x="769.43" y="185.348873" style="stroke: #000000; stroke-width: 0.8"/>
      </g>
     </g>
     <g id="text_28">
      <!-- −20 -->
      <g transform="translate(741.325313 189.148091) scale(0.1 -0.1)">
       <use xlink:href="#DejaVuSans-2212"/>
       <use xlink:href="#DejaVuSans-32" transform="translate(83.789062 0)"/>
       <use xlink:href="#DejaVuSans-30" transform="translate(147.412109 0)"/>
      </g>
     </g>
    </g>
    <g id="ytick_12">
     <g id="line2d_26">
      <g>
       <use xlink:href="#m1162b7d1ad" x="769.43" y="143.41312" style="stroke: #000000; stroke-width: 0.8"/>
      </g>
     </g>
     <g id="text_29">
      <!-- 0 -->
      <g transform="translate(756.0675 147.212339) scale(0.1 -0.1)">
       <use xlink:href="#DejaVuSans-30"/>
      </g>
     </g>
    </g>
    <g id="ytick_13">
     <g id="line2d_27">
      <g>
       <use xlink:href="#m1162b7d1ad" x="769.43" y="101.477368" style="stroke: #000000; stroke-width: 0.8"/>
      </g>
     </g>
     <g id="text_30">
      <!-- 20 -->
      <g transform="translate(749.705 105.276587) scale(0.1 -0.1)">
       <use xlink:href="#DejaVuSans-32"/>
       <use xlink:href="#DejaVuSans-30" transform="translate(63.623047 0)"/>
      </g>
     </g>
    </g>
    <g id="ytick_14">
     <g id="line2d_28">
      <g>
       <use xlink:href="#m1162b7d1ad" x="769.43" y="59.541616" style="stroke: #000000; stroke-width: 0.8"/>
      </g>
     </g>
     <g id="text_31">
      <!-- 40 -->
      <g transform="translate(749.705 63.340835) scale(0.1 -0.1)">
       <use xlink:href="#DejaVuSans-34"/>
       <use xlink:href="#DejaVuSans-30" transform="translate(63.623047 0)"/>
      </g>
     </g>
    </g>
    <g id="text_32">
     <!-- Voltage (mV) -->
     <g transform="translate(735.245625 204.2775) rotate(-90) scale(0.1 -0.1)">
      <use xlink:href="#DejaVuSans-56"/>
      <use xlink:href="#DejaVuSans-6f" transform="translate(60.658203 0)"/>
      <use xlink:href="#DejaVuSans-6c" transform="translate(121.839844 0)"/>
      <use xlink:href="#DejaVuSans-74" transform="translate(149.623047 0)"/>
      <use xlink:href="#DejaVuSans-61" transform="translate(188.832031 0)"/>
      <use xlink:href="#DejaVuSans-67" transform="translate(250.111328 0)"/>
      <use xlink:href="#DejaVuSans-65" transform="translate(313.587891 0)"/>
      <use xlink:href="#DejaVuSans-20" transform="translate(375.111328 0)"/>
      <use xlink:href="#DejaVuSans-28" transform="translate(406.898438 0)"/>
      <use xlink:href="#DejaVuSans-6d" transform="translate(445.912109 0)"/>
      <use xlink:href="#DejaVuSans-56" transform="translate(543.324219 0)"/>
      <use xlink:href="#DejaVuSans-29" transform="translate(611.732422 0)"/>
     </g>
    </g>
   </g>
   <g id="line2d_29">
    <path d="M 799.583182 262.468534 
L 800.940143 270.67492 
L 802.538341 281.862237 
L 804.347623 294.253336 
L 805.191954 298.55846 
L 805.945821 301.22484 
L 806.548915 302.58766 
L 807.152009 303.443702 
L 807.664639 303.850567 
L 808.328042 304.086221 
L 809.051754 304.083858 
L 809.865931 303.856289 
L 811.192737 303.22557 
L 812.730626 302.288049 
L 814.479598 300.940804 
L 817.495067 298.277536 
L 819.364658 296.360037 
L 821.324713 293.983854 
L 824.822657 289.386278 
L 827.114413 285.879293 
L 830.190192 280.699916 
L 833.567517 274.550431 
L 839.266753 263.607887 
L 844.00104 254.766848 
L 849.760585 244.090529 
L 850.846154 241.453017 
L 851.509557 239.280374 
L 851.992032 237.021503 
L 852.353889 234.127904 
L 852.595126 230.333081 
L 852.745899 223.800463 
L 852.806209 214.722111 
L 852.836364 193.667911 
L 852.896673 38.765964 
L 852.956982 38.817122 
L 853.077601 39.55415 
L 853.228375 42.178046 
L 853.439457 50.326588 
L 853.771159 74.19181 
L 855.037656 191.568018 
L 855.218584 225.229056 
L 855.248739 225.100194 
L 855.429667 221.468828 
L 855.701059 212.47603 
L 855.791523 203.170946 
L 855.851833 140.2674 
L 855.942297 78.907853 
L 855.972451 79.723238 
L 856.213689 102.900225 
L 856.816783 155.476118 
L 857.329412 197.832604 
L 857.480186 207.844319 
L 857.51034 207.814814 
L 857.600805 205.616536 
L 857.721423 195.196449 
L 857.902351 126.157057 
L 858.02297 134.84955 
L 858.505445 168.796421 
L 858.806992 179.437399 
L 858.927611 180.17992 
L 858.957766 180.063729 
L 859.078384 178.434382 
L 859.379931 174.856184 
L 859.50055 174.985058 
L 859.711633 175.136847 
L 859.862406 174.89777 
L 860.435345 173.870372 
L 861.159058 173.230073 
L 861.762152 173.00305 
L 862.485864 173.003718 
L 863.300041 173.24789 
L 864.3253 173.819443 
L 865.742571 174.879467 
L 867.401079 176.405712 
L 869.873763 179.040459 
L 873.58279 183.354414 
L 875.934856 186.386279 
L 876.085629 186.930755 
L 876.206248 188.32007 
L 876.326867 193.461486 
L 876.47764 216.570739 
L 876.658568 229.641945 
L 876.899806 231.41438 
L 883.80523 264.68143 
L 885.162191 273.304779 
L 887.242864 288.307635 
L 888.418897 295.826157 
L 889.202919 299.530455 
L 889.956786 301.940483 
L 890.529726 303.077462 
L 891.132819 303.811362 
L 891.675604 304.178294 
L 892.308852 304.335804 
L 893.032565 304.270756 
L 894.027669 303.931587 
L 895.776641 303.053695 
L 897.163757 302.158766 
L 899.003193 300.702018 
L 902.440828 297.713909 
L 903.767634 296.208198 
L 907.205269 291.928572 
L 909.497025 288.721622 
L 911.939555 284.902287 
L 914.894715 279.861014 
L 918.302195 273.588744 
L 930.725927 250.243416 
L 933.530313 244.965664 
L 934.676191 242.345642 
L 935.520522 239.836334 
L 936.063307 237.538659 
L 936.455318 234.853309 
L 936.72671 231.254631 
L 936.877483 226.490847 
L 936.967947 217.672969 
L 936.998102 207.230489 
L 937.088566 38.772481 
L 937.148876 38.893551 
L 937.269494 39.760185 
L 937.450422 43.533779 
L 937.69166 54.867872 
L 938.083671 87.112 
L 939.048621 169.266561 
L 939.199394 189.532012 
L 939.380323 225.221956 
L 939.410477 225.185961 
L 939.561251 222.425824 
L 939.862798 213.024237 
L 939.953262 204.916412 
L 940.013571 160.699846 
L 940.104035 79.01944 
L 940.13419 79.290335 
L 940.315118 95.560011 
L 941.008676 156.933265 
L 941.491151 196.502942 
L 941.672079 207.800625 
L 941.762543 205.951945 
L 941.883162 196.966247 
L 941.973626 155.810242 
L 942.06409 126.420658 
L 942.124399 129.000799 
L 942.787803 173.941423 
L 943.02904 179.958371 
L 943.089349 180.124088 
L 943.119504 179.999837 
L 943.270278 177.905358 
L 943.511515 174.911633 
L 943.571824 174.893869 
L 943.601979 174.940736 
L 943.752753 175.18179 
L 943.782907 175.166608 
L 943.933681 174.956566 
L 944.687548 173.79603 
L 945.290642 173.243267 
L 945.893736 172.982133 
L 946.526984 172.959221 
L 947.341161 173.187316 
L 948.426729 173.745557 
L 949.723381 174.691056 
L 951.472353 176.275578 
L 953.884728 178.801425 
L 956.990661 182.387212 
L 959.644274 185.709519 
L 960.579069 187.086336 
L 960.699688 187.898011 
L 960.820307 191.101921 
L 960.940926 204.478934 
L 961.182163 230.61992 
L 961.393246 232.266677 
L 963.805621 243.659731 
L 966.881399 258.084352 
L 968.29867 265.986292 
L 969.685786 275.058618 
L 972.972647 297.361063 
L 973.756669 300.640207 
L 974.389917 302.389913 
L 974.993011 303.460875 
L 975.535795 304.031337 
L 976.199199 304.395886 
L 976.802292 304.475007 
L 977.586314 304.363158 
L 978.702038 303.938271 
L 980.481164 302.979858 
L 982.260291 301.74411 
L 984.883749 299.609515 
L 986.69303 297.890308 
L 988.803859 295.537239 
L 991.728864 291.986942 
L 993.839692 289.021411 
L 996.46315 284.946382 
L 999.207227 280.287636 
L 1002.524243 274.200329 
L 1019.049012 242.712682 
L 1019.953653 240.139507 
L 1020.526592 237.827892 
L 1020.918603 235.309706 
L 1021.189995 232.170906 
L 1021.370923 227.503136 
L 1021.461388 221.224449 
L 1021.521697 200.57549 
L 1021.612161 38.788157 
L 1021.642316 38.823102 
L 1021.762934 39.52102 
L 1021.913708 42.067053 
L 1022.124791 50.132 
L 1022.456492 73.908831 
L 1023.722989 191.209439 
L 1023.903917 225.222333 
L 1023.934072 225.099552 
L 1024.115 221.52295 
L 1024.386392 212.574286 
L 1024.476857 203.733708 
L 1024.537166 146.667809 
L 1024.62763 79.053999 
L 1024.657785 79.669984 
L 1024.868867 99.579244 
L 1025.532271 157.676215 
L 1026.014746 197.817623 
L 1026.165519 207.713605 
L 1026.195674 207.649691 
L 1026.286138 205.44307 
L 1026.406757 194.862771 
L 1026.587685 126.68753 
L 1026.708304 135.321802 
L 1027.190779 169.090523 
L 1027.492325 179.525559 
L 1027.58279 180.081097 
L 1027.612944 180.008518 
L 1027.733563 178.693105 
L 1028.065265 175.030181 
L 1028.185883 175.03804 
L 1028.396966 175.093973 
L 1028.608049 174.703299 
L 1029.090524 173.869714 
L 1029.784082 173.231602 
L 1030.357021 172.980029 
L 1031.020424 172.938275 
L 1031.834601 173.134999 
L 1032.799551 173.627113 
L 1034.156512 174.593948 
L 1035.75471 176.006394 
L 1037.865539 178.190484 
L 1041.333328 182.152365 
L 1044.288488 185.830444 
L 1045.072509 187.023964 
L 1045.193128 187.80722 
L 1045.313747 191.063754 
L 1045.434366 204.082231 
L 1045.675603 230.308699 
L 1045.886686 232.011064 
L 1048.479989 244.204961 
L 1051.37484 257.746803 
L 1052.79211 265.582208 
L 1054.149071 274.367568 
L 1057.61686 297.706546 
L 1058.370728 300.777591 
L 1059.034131 302.557405 
L 1059.576915 303.476737 
L 1060.210164 304.084428 
L 1060.843412 304.383432 
L 1061.53697 304.440936 
L 1062.351147 304.27349 
L 1063.46687 303.802583 
L 1065.306306 302.763995 
L 1066.934659 301.599175 
L 1070.191366 298.87809 
L 1071.75941 297.324797 
L 1075.016116 293.518366 
L 1076.915862 291.045797 
L 1079.177463 287.723983 
L 1082.072314 283.084719 
L 1084.906854 278.111118 
L 1088.676191 271.008052 
L 1096.848111 255.466228 
L 1102.969513 244.060833 
L 1104.024928 241.466685 
L 1104.74864 239.079835 
L 1105.231115 236.711824 
L 1105.562817 233.958862 
L 1105.804054 229.886497 
L 1105.954828 222.483119 
L 1106.015137 209.115773 
L 1106.075446 38.74 
L 1106.165911 38.884873 
L 1106.286529 39.720647 
L 1106.467457 43.436749 
L 1106.708695 54.66361 
L 1107.100706 86.774237 
L 1108.065656 168.990598 
L 1108.216429 188.703715 
L 1108.427512 225.203847 
L 1108.457667 224.886556 
L 1108.729059 218.620016 
L 1108.909987 211.331928 
L 1109.000451 197.526471 
L 1109.151225 79.255465 
L 1109.211534 83.342669 
L 1110.658959 207.556868 
L 1110.689114 207.714554 
L 1110.719269 207.428693 
L 1110.839887 202.875189 
L 1110.930351 190.435465 
L 1111.081125 126.748164 
L 1111.171589 131.797634 
L 1111.714373 169.950812 
L 1112.01592 179.658891 
L 1112.07623 180.0305 
L 1112.136539 179.899141 
L 1112.257158 178.330349 
L 1112.558705 174.908182 
L 1112.709478 175.085683 
L 1112.890406 175.135016 
L 1113.101489 174.768956 
L 1113.644274 173.795742 
L 1114.307677 173.225768 
L 1114.91077 172.972181 
L 1115.574174 172.945086 
L 1116.358196 173.147396 
L 1117.3533 173.664128 
L 1118.710261 174.63972 
L 1120.30846 176.057 
L 1122.358979 178.181103 
L 1125.495067 181.747286 
L 1128.631154 185.62263 
L 1129.50564 186.904112 
L 1129.626259 187.550978 
L 1129.716723 189.193237 
L 1129.837342 196.795963 
L 1130.169043 230.717615 
L 1130.440436 232.350811 
L 1134.692247 252.039682 
L 1136.380909 260.468563 
L 1137.73787 268.39463 
L 1139.185296 278.255417 
L 1141.65798 295.377488 
L 1142.442002 299.197798 
L 1143.13556 301.575222 
L 1143.738654 302.915952 
L 1144.341747 303.752732 
L 1144.914687 304.171707 
L 1145.57809 304.383954 
L 1146.362112 304.354721 
L 1147.357216 304.053449 
L 1148.834796 303.309769 
L 1150.794851 302.037875 
L 1152.84537 300.427627 
L 1155.167281 298.321013 
L 1157.278109 296.111139 
L 1159.569866 293.370361 
L 1162.193324 289.892572 
L 1164.243843 286.815418 
L 1167.37993 281.568407 
L 1170.84772 275.335109 
L 1175.340768 266.728279 
L 1180.889231 256.198499 
L 1187.462954 243.955784 
L 1188.488213 241.421543 
L 1189.181771 239.123747 
L 1189.664246 236.793227 
L 1189.995947 234.134186 
L 1190.237185 230.16624 
L 1190.387958 223.243889 
L 1190.448268 212.825067 
L 1190.538732 38.774075 
L 1190.689505 39.338635 
L 1190.840279 41.607667 
L 1191.051362 49.111464 
L 1191.352908 69.553216 
L 1192.64956 186.633172 
L 1192.860643 225.246702 
L 1192.890798 225.008237 
L 1193.132035 219.698615 
L 1193.343118 211.886573 
L 1193.433582 200.651394 
L 1193.584356 79.086893 
L 1193.704974 88.247253 
L 1194.519151 160.367478 
L 1194.941317 195.36228 
L 1195.122245 207.699941 
L 1195.152399 207.529399 
L 1195.242863 204.978147 
L 1195.333328 197.879853 
L 1195.393637 181.618212 
L 1195.514256 126.934217 
L 1195.574565 128.831746 
L 1196.268123 175.048689 
L 1196.50936 180.032723 
L 1196.56967 179.842083 
L 1196.720443 177.654986 
L 1196.961681 175.064682 
L 1197.052145 175.174871 
L 1197.172764 175.262254 
L 1197.202918 175.237512 
L 1197.564775 174.649246 
L 1198.167868 173.725254 
L 1198.770962 173.208586 
L 1199.374056 172.963007 
L 1200.007304 172.953845 
L 1200.851636 173.187879 
L 1201.90705 173.733446 
L 1203.203701 174.686809 
L 1204.982828 176.293435 
L 1207.365049 178.808648 
L 1210.862993 182.856167 
L 1213.54676 186.27562 
L 1213.697533 186.796871 
L 1213.848307 188.585056 
L 1213.968926 194.533959 
L 1214.391091 230.336977 
L 1214.873566 232.741148 
L 1217.91919 246.83794 
L 1220.150637 257.288683 
L 1221.598062 265.184483 
L 1222.955023 273.89142 
L 1226.543431 297.908288 
L 1227.267144 300.734926 
L 1227.900392 302.393439 
L 1228.503486 303.382905 
L 1229.076425 303.933922 
L 1229.679519 304.216035 
L 1230.373077 304.276439 
L 1231.217408 304.106233 
L 1232.363286 303.626774 
L 1233.961485 302.696722 
L 1236.253241 301.019944 
L 1238.605307 298.97066 
L 1240.897063 296.710102 
L 1242.977737 294.293993 
L 1245.601195 290.885499 
L 1247.923106 287.498749 
L 1250.516409 283.310164 
L 1253.622342 277.862125 
L 1257.421833 270.71391 
L 1265.925456 254.58657 
L 1271.323145 244.628603 
L 1272.438869 242.033887 
L 1273.222891 239.626107 
L 1273.73552 237.345895 
L 1274.127531 234.47945 
L 1274.368769 231.062625 
L 1274.519542 226.097883 
L 1274.610006 215.939641 
L 1274.640161 200.2417 
L 1274.730625 38.777499 
L 1274.76078 38.827431 
L 1274.881399 39.519859 
L 1275.032172 42.059839 
L 1275.243255 50.130167 
L 1275.574956 73.859744 
L 1276.841453 190.703299 
L 1277.022382 225.184475 
L 1277.052536 225.098738 
L 1277.233464 221.507737 
L 1277.504857 212.571921 
L 1277.595321 203.584879 
L 1277.65563 145.230724 
L 1277.746094 79.05497 
L 1277.776249 79.77496 
L 1278.017486 102.861162 
L 1278.62058 155.43649 
L 1279.13321 197.349882 
L 1279.314138 207.650649 
L 1279.404602 205.553934 
L 1279.525221 195.401694 
L 1279.615685 149.28614 
L 1279.706149 126.784217 
L 1279.736304 127.93304 
L 1280.55048 178.223041 
L 1280.701254 180.034203 
L 1280.731408 179.949698 
L 1280.852027 178.566418 
L 1281.153574 175.032126 
L 1281.244038 175.088978 
L 1281.394811 175.213178 
L 1281.666204 174.737802 
L 1282.420071 173.652744 
L 1283.023165 173.153985 
L 1283.596104 172.950498 
L 1284.229352 172.975451 
L 1285.133993 173.253958 
L 1286.038634 173.726326 
L 1287.274976 174.625308 
L 1289.023948 176.19004 
L 1291.164931 178.417697 
L 1294.662875 182.451194 
L 1297.437106 185.939134 
L 1298.854377 188.003012 
L 1298.974995 188.630658 
L 1299.06546 190.335741 
L 1299.155924 196.592311 
L 1299.51778 233.557736 
L 1299.909791 235.634074 
L 1305.729646 264.207555 
L 1307.086607 272.840566 
L 1309.016507 286.863025 
L 1310.283004 295.306931 
L 1311.097181 299.385814 
L 1311.790739 301.766695 
L 1312.423987 303.224347 
L 1312.996926 304.039197 
L 1313.569865 304.498289 
L 1314.172959 304.706322 
L 1314.896672 304.717853 
L 1315.831467 304.488372 
L 1317.128119 303.911774 
L 1318.9374 302.847604 
L 1320.897455 301.440269 
L 1323.370139 299.377985 
L 1325.330194 297.471728 
L 1327.561641 294.946752 
L 1330.245409 291.619486 
L 1332.416546 288.516568 
L 1335.070159 284.34016 
L 1337.965009 279.360223 
L 1341.432798 272.913911 
L 1352.89158 251.238467 
L 1356.329215 244.766578 
L 1357.444939 242.16691 
L 1358.22896 239.789397 
L 1358.74159 237.529607 
L 1359.133601 234.806753 
L 1359.374839 231.681816 
L 1359.555767 226.001875 
L 1359.646231 215.548326 
L 1359.676386 198.364191 
L 1359.76685 38.782195 
L 1359.797004 38.831748 
L 1359.917623 39.53662 
L 1360.068397 42.111081 
L 1360.279479 50.21836 
L 1360.611181 74.044035 
L 1361.877678 192.220364 
L 1362.058606 225.385694 
L 1362.088761 225.186242 
L 1362.299844 220.748425 
L 1362.541081 212.469066 
L 1362.631545 202.989686 
L 1362.691855 138.054832 
L 1362.782319 78.856574 
L 1362.812473 79.722768 
L 1363.053711 102.896727 
L 1363.686959 157.678729 
L 1364.13928 194.765448 
L 1364.320208 208.049723 
L 1364.350362 207.95688 
L 1364.440827 205.653933 
L 1364.561445 195.19213 
L 1364.651909 146.698523 
L 1364.742373 125.943801 
L 1364.772528 127.227133 
L 1365.55655 177.495219 
L 1365.737478 180.251838 
L 1365.767633 180.245745 
L 1365.858097 179.416795 
L 1366.219953 174.70545 
L 1366.280263 174.778134 
L 1366.491345 175.280471 
L 1366.5215 175.271368 
L 1366.702428 174.933827 
L 1367.124594 174.061269 
L 1367.697533 173.451387 
L 1368.391091 173.030338 
L 1368.96403 172.944794 
L 1369.748052 173.069892 
L 1370.562228 173.397786 
L 1371.677952 174.094178 
L 1373.245996 175.364228 
L 1375.055277 177.129166 
L 1377.739045 180.069055 
L 1381.448071 184.478527 
L 1383.408126 187.127839 
L 1383.679518 187.655198 
L 1383.800137 188.476154 
L 1383.920756 192.410698 
L 1384.041375 209.278325 
L 1384.252458 231.451562 
L 1384.46354 233.175889 
L 1387.026689 245.243923 
L 1389.680302 257.800398 
L 1391.097572 265.677441 
L 1392.454533 274.525051 
L 1395.862013 297.672913 
L 1396.585726 300.661286 
L 1397.218974 302.444791 
L 1397.822068 303.531024 
L 1398.395007 304.142405 
L 1399.028255 304.488509 
L 1399.691659 304.576818 
L 1400.475681 304.456582 
L 1401.561249 304.051419 
L 1402.646818 303.514082 
L 1402.646818 303.514082 
" clip-path="url(#p3d00e87276)" style="fill: none; stroke: #1f77b4; stroke-width: 1.5; stroke-linecap: square"/>
   </g>
   <g id="patch_9">
    <path d="M 769.43 318.04 
L 769.43 25.44 
" style="fill: none; stroke: #000000; stroke-width: 0.8; stroke-linejoin: miter; stroke-linecap: square"/>
   </g>
   <g id="patch_10">
    <path d="M 1432.8 318.04 
L 1432.8 25.44 
" style="fill: none; stroke: #000000; stroke-width: 0.8; stroke-linejoin: miter; stroke-linecap: square"/>
   </g>
   <g id="patch_11">
    <path d="M 769.43 318.04 
L 1432.8 318.04 
" style="fill: none; stroke: #000000; stroke-width: 0.8; stroke-linejoin: miter; stroke-linecap: square"/>
   </g>
   <g id="patch_12">
    <path d="M 769.43 25.44 
L 1432.8 25.44 
" style="fill: none; stroke: #000000; stroke-width: 0.8; stroke-linejoin: miter; stroke-linecap: square"/>
   </g>
   <g id="text_33">
    <!-- One Spike Burster -->
    <g transform="translate(1046.828125 19.44) scale(0.12 -0.12)">
     <defs>
      <path id="DejaVuSans-4f" d="M 2522 4238 
Q 1834 4238 1429 3725 
Q 1025 3213 1025 2328 
Q 1025 1447 1429 934 
Q 1834 422 2522 422 
Q 3209 422 3611 934 
Q 4013 1447 4013 2328 
Q 4013 3213 3611 3725 
Q 3209 4238 2522 4238 
z
M 2522 4750 
Q 3503 4750 4090 4092 
Q 4678 3434 4678 2328 
Q 4678 1225 4090 567 
Q 3503 -91 2522 -91 
Q 1538 -91 948 565 
Q 359 1222 359 2328 
Q 359 3434 948 4092 
Q 1538 4750 2522 4750 
z
" transform="scale(0.015625)"/>
      <path id="DejaVuSans-6e" d="M 3513 2113 
L 3513 0 
L 2938 0 
L 2938 2094 
Q 2938 2591 2744 2837 
Q 2550 3084 2163 3084 
Q 1697 3084 1428 2787 
Q 1159 2491 1159 1978 
L 1159 0 
L 581 0 
L 581 3500 
L 1159 3500 
L 1159 2956 
Q 1366 3272 1645 3428 
Q 1925 3584 2291 3584 
Q 2894 3584 3203 3211 
Q 3513 2838 3513 2113 
z
" transform="scale(0.015625)"/>
      <path id="DejaVuSans-6b" d="M 581 4863 
L 1159 4863 
L 1159 1991 
L 2875 3500 
L 3609 3500 
L 1753 1863 
L 3688 0 
L 2938 0 
L 1159 1709 
L 1159 0 
L 581 0 
L 581 4863 
z
" transform="scale(0.015625)"/>
      <path id="DejaVuSans-42" d="M 1259 2228 
L 1259 519 
L 2272 519 
Q 2781 519 3026 730 
Q 3272 941 3272 1375 
Q 3272 1813 3026 2020 
Q 2781 2228 2272 2228 
L 1259 2228 
z
M 1259 4147 
L 1259 2741 
L 2194 2741 
Q 2656 2741 2882 2914 
Q 3109 3088 3109 3444 
Q 3109 3797 2882 3972 
Q 2656 4147 2194 4147 
L 1259 4147 
z
M 628 4666 
L 2241 4666 
Q 2963 4666 3353 4366 
Q 3744 4066 3744 3513 
Q 3744 3084 3544 2831 
Q 3344 2578 2956 2516 
Q 3422 2416 3680 2098 
Q 3938 1781 3938 1306 
Q 3938 681 3513 340 
Q 3088 0 2303 0 
L 628 0 
L 628 4666 
z
" transform="scale(0.015625)"/>
      <path id="DejaVuSans-75" d="M 544 1381 
L 544 3500 
L 1119 3500 
L 1119 1403 
Q 1119 906 1312 657 
Q 1506 409 1894 409 
Q 2359 409 2629 706 
Q 2900 1003 2900 1516 
L 2900 3500 
L 3475 3500 
L 3475 0 
L 2900 0 
L 2900 538 
Q 2691 219 2414 64 
Q 2138 -91 1772 -91 
Q 1169 -91 856 284 
Q 544 659 544 1381 
z
M 1991 3584 
L 1991 3584 
z
" transform="scale(0.015625)"/>
     </defs>
     <use xlink:href="#DejaVuSans-4f"/>
     <use xlink:href="#DejaVuSans-6e" transform="translate(78.710938 0)"/>
     <use xlink:href="#DejaVuSans-65" transform="translate(142.089844 0)"/>
     <use xlink:href="#DejaVuSans-20" transform="translate(203.613281 0)"/>
     <use xlink:href="#DejaVuSans-53" transform="translate(235.400391 0)"/>
     <use xlink:href="#DejaVuSans-70" transform="translate(298.876953 0)"/>
     <use xlink:href="#DejaVuSans-69" transform="translate(362.353516 0)"/>
     <use xlink:href="#DejaVuSans-6b" transform="translate(390.136719 0)"/>
     <use xlink:href="#DejaVuSans-65" transform="translate(444.421875 0)"/>
     <use xlink:href="#DejaVuSans-20" transform="translate(505.945312 0)"/>
     <use xlink:href="#DejaVuSans-42" transform="translate(537.732422 0)"/>
     <use xlink:href="#DejaVuSans-75" transform="translate(606.335938 0)"/>
     <use xlink:href="#DejaVuSans-72" transform="translate(669.714844 0)"/>
     <use xlink:href="#DejaVuSans-73" transform="translate(710.828125 0)"/>
     <use xlink:href="#DejaVuSans-74" transform="translate(762.927734 0)"/>
     <use xlink:href="#DejaVuSans-65" transform="translate(802.136719 0)"/>
     <use xlink:href="#DejaVuSans-72" transform="translate(863.660156 0)"/>
    </g>
   </g>
   <g id="legend_2">
    <g id="patch_13">
     <path d="M 1386.959375 48.118125 
L 1425.8 48.118125 
Q 1427.8 48.118125 1427.8 46.118125 
L 1427.8 32.44 
Q 1427.8 30.44 1425.8 30.44 
L 1386.959375 30.44 
Q 1384.959375 30.44 1384.959375 32.44 
L 1384.959375 46.118125 
Q 1384.959375 48.118125 1386.959375 48.118125 
z
" style="fill: #ffffff; opacity: 0.8; stroke: #cccccc; stroke-linejoin: miter"/>
    </g>
    <g id="line2d_30">
     <path d="M 1388.959375 38.538438 
L 1398.959375 38.538438 
L 1408.959375 38.538438 
" style="fill: none; stroke: #1f77b4; stroke-width: 1.5; stroke-linecap: square"/>
    </g>
    <g id="text_34">
     <!-- V -->
     <g transform="translate(1416.959375 42.038438) scale(0.1 -0.1)">
      <use xlink:href="#DejaVuSans-56"/>
     </g>
    </g>
   </g>
  </g>
  <g id="axes_3">
   <g id="patch_14">
    <path d="M 1485.83 318.04 
L 2149.2 318.04 
L 2149.2 25.44 
L 1485.83 25.44 
z
" style="fill: #ffffff"/>
   </g>
   <g id="matplotlib.axis_5">
    <g id="xtick_13">
     <g id="line2d_31">
      <g>
       <use xlink:href="#m3a5b93a840" x="1515.983182" y="318.04" style="stroke: #000000; stroke-width: 0.8"/>
      </g>
     </g>
     <g id="text_35">
      <!-- 3000 -->
      <g transform="translate(1503.258182 332.638438) scale(0.1 -0.1)">
       <use xlink:href="#DejaVuSans-33"/>
       <use xlink:href="#DejaVuSans-30" transform="translate(63.623047 0)"/>
       <use xlink:href="#DejaVuSans-30" transform="translate(127.246094 0)"/>
       <use xlink:href="#DejaVuSans-30" transform="translate(190.869141 0)"/>
      </g>
     </g>
    </g>
    <g id="xtick_14">
     <g id="line2d_32">
      <g>
       <use xlink:href="#m3a5b93a840" x="1636.60194" y="318.04" style="stroke: #000000; stroke-width: 0.8"/>
      </g>
     </g>
     <g id="text_36">
      <!-- 3200 -->
      <g transform="translate(1623.87694 332.638438) scale(0.1 -0.1)">
       <use xlink:href="#DejaVuSans-33"/>
       <use xlink:href="#DejaVuSans-32" transform="translate(63.623047 0)"/>
       <use xlink:href="#DejaVuSans-30" transform="translate(127.246094 0)"/>
       <use xlink:href="#DejaVuSans-30" transform="translate(190.869141 0)"/>
      </g>
     </g>
    </g>
    <g id="xtick_15">
     <g id="line2d_33">
      <g>
       <use xlink:href="#m3a5b93a840" x="1757.220698" y="318.04" style="stroke: #000000; stroke-width: 0.8"/>
      </g>
     </g>
     <g id="text_37">
      <!-- 3400 -->
      <g transform="translate(1744.495698 332.638438) scale(0.1 -0.1)">
       <use xlink:href="#DejaVuSans-33"/>
       <use xlink:href="#DejaVuSans-34" transform="translate(63.623047 0)"/>
       <use xlink:href="#DejaVuSans-30" transform="translate(127.246094 0)"/>
       <use xlink:href="#DejaVuSans-30" transform="translate(190.869141 0)"/>
      </g>
     </g>
    </g>
    <g id="xtick_16">
     <g id="line2d_34">
      <g>
       <use xlink:href="#m3a5b93a840" x="1877.839456" y="318.04" style="stroke: #000000; stroke-width: 0.8"/>
      </g>
     </g>
     <g id="text_38">
      <!-- 3600 -->
      <g transform="translate(1865.114456 332.638438) scale(0.1 -0.1)">
       <use xlink:href="#DejaVuSans-33"/>
       <use xlink:href="#DejaVuSans-36" transform="translate(63.623047 0)"/>
       <use xlink:href="#DejaVuSans-30" transform="translate(127.246094 0)"/>
       <use xlink:href="#DejaVuSans-30" transform="translate(190.869141 0)"/>
      </g>
     </g>
    </g>
    <g id="xtick_17">
     <g id="line2d_35">
      <g>
       <use xlink:href="#m3a5b93a840" x="1998.458215" y="318.04" style="stroke: #000000; stroke-width: 0.8"/>
      </g>
     </g>
     <g id="text_39">
      <!-- 3800 -->
      <g transform="translate(1985.733215 332.638438) scale(0.1 -0.1)">
       <use xlink:href="#DejaVuSans-33"/>
       <use xlink:href="#DejaVuSans-38" transform="translate(63.623047 0)"/>
       <use xlink:href="#DejaVuSans-30" transform="translate(127.246094 0)"/>
       <use xlink:href="#DejaVuSans-30" transform="translate(190.869141 0)"/>
      </g>
     </g>
    </g>
    <g id="xtick_18">
     <g id="line2d_36">
      <g>
       <use xlink:href="#m3a5b93a840" x="2119.076973" y="318.04" style="stroke: #000000; stroke-width: 0.8"/>
      </g>
     </g>
     <g id="text_40">
      <!-- 4000 -->
      <g transform="translate(2106.351973 332.638438) scale(0.1 -0.1)">
       <use xlink:href="#DejaVuSans-34"/>
       <use xlink:href="#DejaVuSans-30" transform="translate(63.623047 0)"/>
       <use xlink:href="#DejaVuSans-30" transform="translate(127.246094 0)"/>
       <use xlink:href="#DejaVuSans-30" transform="translate(190.869141 0)"/>
      </g>
     </g>
    </g>
    <g id="text_41">
     <!-- Time (ms) -->
     <g transform="translate(1792.315781 346.316563) scale(0.1 -0.1)">
      <use xlink:href="#DejaVuSans-54"/>
      <use xlink:href="#DejaVuSans-69" transform="translate(57.958984 0)"/>
      <use xlink:href="#DejaVuSans-6d" transform="translate(85.742188 0)"/>
      <use xlink:href="#DejaVuSans-65" transform="translate(183.154297 0)"/>
      <use xlink:href="#DejaVuSans-20" transform="translate(244.677734 0)"/>
      <use xlink:href="#DejaVuSans-28" transform="translate(276.464844 0)"/>
      <use xlink:href="#DejaVuSans-6d" transform="translate(315.478516 0)"/>
      <use xlink:href="#DejaVuSans-73" transform="translate(412.890625 0)"/>
      <use xlink:href="#DejaVuSans-29" transform="translate(464.990234 0)"/>
     </g>
    </g>
   </g>
   <g id="matplotlib.axis_6">
    <g id="ytick_15">
     <g id="line2d_37">
      <g>
       <use xlink:href="#m1162b7d1ad" x="1485.83" y="307.149768" style="stroke: #000000; stroke-width: 0.8"/>
      </g>
     </g>
     <g id="text_42">
      <!-- −80 -->
      <g transform="translate(1457.725313 310.948986) scale(0.1 -0.1)">
       <use xlink:href="#DejaVuSans-2212"/>
       <use xlink:href="#DejaVuSans-38" transform="translate(83.789062 0)"/>
       <use xlink:href="#DejaVuSans-30" transform="translate(147.412109 0)"/>
      </g>
     </g>
    </g>
    <g id="ytick_16">
     <g id="line2d_38">
      <g>
       <use xlink:href="#m1162b7d1ad" x="1485.83" y="265.861702" style="stroke: #000000; stroke-width: 0.8"/>
      </g>
     </g>
     <g id="text_43">
      <!-- −60 -->
      <g transform="translate(1457.725313 269.660921) scale(0.1 -0.1)">
       <use xlink:href="#DejaVuSans-2212"/>
       <use xlink:href="#DejaVuSans-36" transform="translate(83.789062 0)"/>
       <use xlink:href="#DejaVuSans-30" transform="translate(147.412109 0)"/>
      </g>
     </g>
    </g>
    <g id="ytick_17">
     <g id="line2d_39">
      <g>
       <use xlink:href="#m1162b7d1ad" x="1485.83" y="224.573636" style="stroke: #000000; stroke-width: 0.8"/>
      </g>
     </g>
     <g id="text_44">
      <!-- −40 -->
      <g transform="translate(1457.725313 228.372855) scale(0.1 -0.1)">
       <use xlink:href="#DejaVuSans-2212"/>
       <use xlink:href="#DejaVuSans-34" transform="translate(83.789062 0)"/>
       <use xlink:href="#DejaVuSans-30" transform="translate(147.412109 0)"/>
      </g>
     </g>
    </g>
    <g id="ytick_18">
     <g id="line2d_40">
      <g>
       <use xlink:href="#m1162b7d1ad" x="1485.83" y="183.285571" style="stroke: #000000; stroke-width: 0.8"/>
      </g>
     </g>
     <g id="text_45">
      <!-- −20 -->
      <g transform="translate(1457.725313 187.08479) scale(0.1 -0.1)">
       <use xlink:href="#DejaVuSans-2212"/>
       <use xlink:href="#DejaVuSans-32" transform="translate(83.789062 0)"/>
       <use xlink:href="#DejaVuSans-30" transform="translate(147.412109 0)"/>
      </g>
     </g>
    </g>
    <g id="ytick_19">
     <g id="line2d_41">
      <g>
       <use xlink:href="#m1162b7d1ad" x="1485.83" y="141.997505" style="stroke: #000000; stroke-width: 0.8"/>
      </g>
     </g>
     <g id="text_46">
      <!-- 0 -->
      <g transform="translate(1472.4675 145.796724) scale(0.1 -0.1)">
       <use xlink:href="#DejaVuSans-30"/>
      </g>
     </g>
    </g>
    <g id="ytick_20">
     <g id="line2d_42">
      <g>
       <use xlink:href="#m1162b7d1ad" x="1485.83" y="100.70944" style="stroke: #000000; stroke-width: 0.8"/>
      </g>
     </g>
     <g id="text_47">
      <!-- 20 -->
      <g transform="translate(1466.105 104.508658) scale(0.1 -0.1)">
       <use xlink:href="#DejaVuSans-32"/>
       <use xlink:href="#DejaVuSans-30" transform="translate(63.623047 0)"/>
      </g>
     </g>
    </g>
    <g id="ytick_21">
     <g id="line2d_43">
      <g>
       <use xlink:href="#m1162b7d1ad" x="1485.83" y="59.421374" style="stroke: #000000; stroke-width: 0.8"/>
      </g>
     </g>
     <g id="text_48">
      <!-- 40 -->
      <g transform="translate(1466.105 63.220593) scale(0.1 -0.1)">
       <use xlink:href="#DejaVuSans-34"/>
       <use xlink:href="#DejaVuSans-30" transform="translate(63.623047 0)"/>
      </g>
     </g>
    </g>
    <g id="text_49">
     <!-- Voltage (mV) -->
     <g transform="translate(1451.645625 204.2775) rotate(-90) scale(0.1 -0.1)">
      <use xlink:href="#DejaVuSans-56"/>
      <use xlink:href="#DejaVuSans-6f" transform="translate(60.658203 0)"/>
      <use xlink:href="#DejaVuSans-6c" transform="translate(121.839844 0)"/>
      <use xlink:href="#DejaVuSans-74" transform="translate(149.623047 0)"/>
      <use xlink:href="#DejaVuSans-61" transform="translate(188.832031 0)"/>
      <use xlink:href="#DejaVuSans-67" transform="translate(250.111328 0)"/>
      <use xlink:href="#DejaVuSans-65" transform="translate(313.587891 0)"/>
      <use xlink:href="#DejaVuSans-20" transform="translate(375.111328 0)"/>
      <use xlink:href="#DejaVuSans-28" transform="translate(406.898438 0)"/>
      <use xlink:href="#DejaVuSans-6d" transform="translate(445.912109 0)"/>
      <use xlink:href="#DejaVuSans-56" transform="translate(543.324219 0)"/>
      <use xlink:href="#DejaVuSans-29" transform="translate(611.732422 0)"/>
     </g>
    </g>
   </g>
   <g id="line2d_44">
    <path d="M 1515.983182 280.943257 
L 1518.847877 276.339581 
L 1522.375976 270.218282 
L 1527.170572 261.448724 
L 1532.296869 251.596623 
L 1534.769553 246.434524 
L 1536.126514 243.089529 
L 1537.001 240.353404 
L 1537.604094 237.73158 
L 1538.02626 234.916399 
L 1538.327807 231.41203 
L 1538.508735 226.895181 
L 1538.629354 217.27141 
L 1538.659508 208.342846 
L 1538.749972 38.833926 
L 1538.810282 38.875075 
L 1538.930901 39.226534 
L 1539.081674 40.489608 
L 1539.292757 44.562769 
L 1539.564149 54.713199 
L 1539.95616 79.213117 
L 1541.132193 175.103035 
L 1541.222657 199.562148 
L 1541.403585 241.246061 
L 1541.43374 241.434157 
L 1541.463894 241.180919 
L 1541.705132 235.849776 
L 1542.217762 220.321235 
L 1542.308226 213.044086 
L 1542.33838 205.801093 
L 1542.458999 44.830972 
L 1542.549463 45.893614 
L 1542.820856 54.761892 
L 1543.212866 76.056752 
L 1544.087352 141.961285 
L 1544.569828 182.52553 
L 1544.811065 236.705914 
L 1544.871374 236.272968 
L 1545.172921 228.392867 
L 1545.474468 216.8264 
L 1545.564932 201.992374 
L 1545.685551 47.079038 
L 1545.74586 47.772528 
L 1545.987098 56.804686 
L 1546.379109 80.665396 
L 1547.615451 179.321858 
L 1547.886843 238.437307 
L 1548.007462 236.716072 
L 1548.580401 220.510548 
L 1548.70102 211.176664 
L 1548.731175 202.063825 
L 1548.851793 45.613855 
L 1548.881948 45.77011 
L 1549.032722 49.614204 
L 1549.364423 64.738023 
L 1549.846898 98.881825 
L 1550.842003 186.042405 
L 1551.08324 244.978522 
L 1551.113395 245.053348 
L 1551.264169 242.692429 
L 1552.289428 220.119903 
L 1552.379892 211.771756 
L 1552.410047 199.309805 
L 1552.530666 43.002283 
L 1552.62113 43.998402 
L 1552.862367 50.001104 
L 1553.194069 64.186075 
L 1553.646389 94.274919 
L 1554.611339 175.876994 
L 1554.701803 212.377047 
L 1554.852577 251.576449 
L 1554.943041 253.661224 
L 1554.973195 253.509995 
L 1555.335052 248.877744 
L 1556.088919 240.521954 
L 1556.661858 236.386755 
L 1557.144333 234.372289 
L 1557.506189 233.704173 
L 1557.777582 233.586851 
L 1558.048974 233.737611 
L 1558.41083 234.273046 
L 1558.953614 235.571811 
L 1559.858255 238.419213 
L 1561.335835 243.889691 
L 1563.084807 251.183985 
L 1564.562387 258.324306 
L 1565.919348 266.026123 
L 1567.396928 275.813401 
L 1569.869612 292.277518 
L 1570.683789 296.146276 
L 1571.437656 298.634488 
L 1572.101059 300.035103 
L 1572.704153 300.805604 
L 1573.307247 301.242123 
L 1574.000805 301.456616 
L 1574.694362 301.449979 
L 1575.659312 301.202303 
L 1577.31782 300.503852 
L 1579.127102 299.522719 
L 1581.23793 298.106873 
L 1583.982007 296.030028 
L 1585.821443 294.307513 
L 1589.681243 290.293593 
L 1591.852381 287.594348 
L 1594.80754 283.535191 
L 1597.551617 279.38863 
L 1600.687705 274.215406 
L 1604.668124 267.200037 
L 1611.000609 255.530775 
L 1614.73979 248.271091 
L 1616.458607 244.467818 
L 1617.483867 241.669377 
L 1618.177425 239.157964 
L 1618.720209 236.29225 
L 1619.051911 233.429399 
L 1619.293148 229.563948 
L 1619.443922 223.789215 
L 1619.534386 208.109718 
L 1619.62485 38.822908 
L 1619.685159 38.871155 
L 1619.835933 39.403111 
L 1620.016861 41.373092 
L 1620.258098 47.365241 
L 1620.5898 62.898703 
L 1621.072275 98.215058 
L 1622.278462 205.132682 
L 1622.429236 223.540065 
L 1622.489545 222.752299 
L 1622.730783 214.393603 
L 1622.851402 202.449864 
L 1622.911711 118.986227 
L 1623.002175 63.538158 
L 1623.03233 64.308736 
L 1623.243413 79.765519 
L 1624.298827 162.625886 
L 1624.751147 182.794646 
L 1624.811456 181.867189 
L 1624.932075 172.196633 
L 1625.082849 161.497396 
L 1625.113003 161.663542 
L 1625.263777 165.819861 
L 1625.505014 170.605042 
L 1625.565324 170.779641 
L 1625.625633 170.635508 
L 1626.138263 168.49134 
L 1626.3795 167.934358 
L 1626.711202 167.432094 
L 1627.977699 166.51396 
L 1628.641102 166.44309 
L 1629.425124 166.584016 
L 1630.420229 167.002123 
L 1631.867654 167.886285 
L 1633.948327 169.430084 
L 1637.295498 172.250552 
L 1641.306072 175.518454 
L 1644.200922 177.598772 
L 1646.975153 179.329517 
L 1649.809694 180.837566 
L 1652.704544 182.119594 
L 1655.418466 183.093516 
L 1658.343471 183.905122 
L 1661.660487 184.593867 
L 1665.550442 185.166153 
L 1668.957922 185.435783 
L 1672.727258 185.812863 
L 1673.812827 186.169281 
L 1674.657158 186.675337 
L 1675.411025 187.393001 
L 1676.134738 188.395065 
L 1676.587058 189.319703 
L 1676.647368 190.372772 
L 1676.707677 196.613277 
L 1677.069533 276.903716 
L 1677.310771 279.72379 
L 1678.697887 290.02448 
L 1679.662837 295.759324 
L 1680.446859 299.175437 
L 1681.140416 301.280149 
L 1681.80382 302.625665 
L 1682.467223 303.500496 
L 1683.190935 304.087784 
L 1684.065421 304.481769 
L 1685.15099 304.687822 
L 1686.568261 304.699711 
L 1688.890172 304.481713 
L 1691.332702 304.020739 
L 1694.348171 303.256809 
L 1696.278071 302.482595 
L 1700.921893 300.447743 
L 1703.515196 298.905264 
L 1705.746643 297.34291 
L 1707.947936 295.51674 
L 1710.330156 293.239203 
L 1712.86315 290.500204 
L 1715.064442 287.775213 
L 1717.416508 284.509846 
L 1720.039966 280.475815 
L 1722.814197 275.78996 
L 1725.769357 270.351172 
L 1729.056218 263.828412 
L 1732.765245 255.962749 
L 1735.660095 249.34319 
L 1737.258294 245.19852 
L 1738.313708 241.909247 
L 1739.03742 238.916383 
L 1739.489741 236.158152 
L 1739.821442 232.940031 
L 1740.06268 228.121058 
L 1740.183299 221.577145 
L 1740.243608 209.437506 
L 1740.303917 38.74 
L 1740.424536 38.924513 
L 1740.57531 39.611955 
L 1740.756238 41.909129 
L 1740.997475 48.481352 
L 1741.329177 64.93301 
L 1741.871961 106.177057 
L 1742.927375 197.874349 
L 1743.108304 224.800932 
L 1743.228922 222.123389 
L 1743.47016 212.032868 
L 1743.560624 197.490232 
L 1743.681243 62.826896 
L 1743.771707 65.812537 
L 1744.163718 98.396159 
L 1744.88743 154.788026 
L 1745.490524 185.831208 
L 1745.520679 185.8511 
L 1745.580988 183.945263 
L 1745.701607 168.047058 
L 1745.822226 156.932647 
L 1745.85238 157.130902 
L 1746.033308 164.052144 
L 1746.304701 170.864737 
L 1746.36501 171.086164 
L 1746.425319 170.925867 
L 1746.937949 168.569291 
L 1747.149032 168.130616 
L 1747.510888 167.476548 
L 1748.415529 166.602656 
L 1748.958313 166.368462 
L 1749.712181 166.295847 
L 1750.556512 166.445002 
L 1751.642081 166.879108 
L 1753.029196 167.6865 
L 1755.019406 169.130975 
L 1758.396731 171.916257 
L 1762.739006 175.440335 
L 1765.664011 177.534976 
L 1768.498552 179.294754 
L 1771.393402 180.825136 
L 1774.227943 182.064908 
L 1777.092639 183.077823 
L 1780.108108 183.907199 
L 1783.334659 184.560341 
L 1787.13415 185.094724 
L 1791.597044 185.502269 
L 1797.778756 185.953042 
L 1798.894479 186.258795 
L 1799.768965 186.738822 
L 1800.492678 187.393571 
L 1801.337009 188.465372 
L 1802.332114 190.076912 
L 1804.442942 193.398644 
L 1805.679284 194.885145 
L 1806.915627 196.017597 
L 1808.393206 197.064079 
L 1810.47388 198.245594 
L 1813.549658 199.724517 
L 1817.831624 201.546714 
L 1822.867457 203.447829 
L 1829.139633 205.573888 
L 1837.130626 208.034984 
L 1847.624458 211.011001 
L 1881.005699 220.311805 
L 1889.539476 223.017417 
L 1896.113198 225.333756 
L 1901.450578 227.448926 
L 1905.611926 229.320234 
L 1908.928941 231.058602 
L 1911.49209 232.384056 
L 1911.884101 232.335493 
L 1912.155493 232.101038 
L 1912.426885 231.546669 
L 1912.668123 230.515435 
L 1912.879206 228.596559 
L 1913.060134 224.439016 
L 1913.150598 218.01068 
L 1913.210907 191.786844 
L 1913.301371 38.884967 
L 1913.331526 38.88876 
L 1913.452145 39.139198 
L 1913.602918 40.204249 
L 1913.814001 43.925069 
L 1914.085393 53.526809 
L 1914.477404 77.254678 
L 1915.86452 186.775012 
L 1916.196222 252.439606 
L 1916.226376 252.392244 
L 1916.37715 250.356843 
L 1917.553183 228.653422 
L 1917.734111 220.631662 
L 1917.79442 209.451829 
L 1917.915039 39.859592 
L 1917.975348 40.099814 
L 1918.186431 42.338629 
L 1918.457823 47.899664 
L 1918.81968 60.894592 
L 1919.241845 85.211167 
L 1920.357569 169.684055 
L 1920.478187 195.714053 
L 1920.68927 263.430852 
L 1920.809889 267.249693 
L 1920.840044 267.204786 
L 1921.020972 265.596752 
L 1921.804994 258.634099 
L 1922.377933 255.354178 
L 1922.830253 253.89949 
L 1923.19211 253.363082 
L 1923.493656 253.277054 
L 1923.795203 253.463627 
L 1924.187214 254.022398 
L 1924.760153 255.278495 
L 1925.664794 257.867726 
L 1927.413766 263.668427 
L 1929.253202 270.553788 
L 1933.80656 288.040206 
L 1934.711201 290.344655 
L 1935.495223 291.770197 
L 1936.188781 292.602975 
L 1936.852184 293.059747 
L 1937.515587 293.250722 
L 1938.148836 293.222629 
L 1938.963012 292.964956 
L 1939.958117 292.386211 
L 1941.194459 291.380473 
L 1942.792658 289.752136 
L 1944.843177 287.311612 
L 1947.225397 284.113544 
L 1949.87901 280.165761 
L 1953.015098 275.083039 
L 1956.784434 268.53177 
L 1962.272587 258.495971 
L 1967.037028 249.414801 
L 1969.027238 245.167353 
L 1970.142961 242.28212 
L 1970.896828 239.748957 
L 1971.469768 237.017418 
L 1971.861778 234.023622 
L 1972.133171 230.124711 
L 1972.283944 225.132991 
L 1972.374408 215.837466 
L 1972.404563 203.425009 
L 1972.495027 38.835353 
L 1972.525182 38.861859 
L 1972.615646 39.016755 
L 1972.766419 39.904533 
L 1972.947347 42.565619 
L 1973.188585 49.738186 
L 1973.520286 66.921645 
L 1974.093226 111.694455 
L 1974.937557 190.099442 
L 1975.14864 242.524269 
L 1975.178794 242.640442 
L 1975.208949 242.368521 
L 1975.480341 236.410768 
L 1975.992971 221.424428 
L 1976.11359 210.65833 
L 1976.143744 196.629012 
L 1976.264363 44.18236 
L 1976.354827 45.522307 
L 1976.626219 54.043155 
L 1977.01823 74.703187 
L 1977.711788 126.691513 
L 1978.405346 185.214256 
L 1978.646584 238.649919 
L 1978.676738 238.490193 
L 1978.887821 233.618185 
L 1979.340141 218.755772 
L 1979.430606 209.382975 
L 1979.46076 195.246902 
L 1979.581379 45.807475 
L 1979.611534 46.129958 
L 1979.792462 51.318863 
L 1980.154318 69.329567 
L 1980.727257 112.075978 
L 1981.601743 187.543985 
L 1981.842981 240.798253 
L 1981.90329 240.258903 
L 1982.295301 231.015263 
L 1982.657157 219.778036 
L 1982.747621 211.931937 
L 1982.777776 202.96513 
L 1982.898395 44.440425 
L 1982.92855 44.594453 
L 1983.079323 47.914544 
L 1983.411025 61.204756 
L 1983.863345 90.533465 
L 1984.918759 177.877106 
L 1985.039378 227.477861 
L 1985.220306 247.822224 
L 1985.280615 247.355953 
L 1985.8234 237.574238 
L 1986.637576 221.469228 
L 1986.72804 215.695182 
L 1986.78835 188.641288 
L 1986.908969 42.306978 
L 1987.029587 43.764907 
L 1987.30098 50.545463 
L 1987.632681 64.865083 
L 1988.115156 97.386249 
L 1989.049952 179.366089 
L 1989.381653 256.075206 
L 1989.532427 254.584871 
L 1990.376758 245.738845 
L 1990.949697 241.859619 
L 1991.432172 239.947989 
L 1991.824183 239.236234 
L 1992.095575 239.102181 
L 1992.366967 239.19694 
L 1992.728824 239.635352 
L 1993.241453 240.709869 
L 1994.025475 242.973297 
L 1995.141199 246.944638 
L 1996.49816 252.691939 
L 1997.824966 259.22406 
L 1999.121618 266.768662 
L 2000.538888 276.395107 
L 2002.921109 292.760362 
L 2003.76544 296.897446 
L 2004.458998 299.232861 
L 2005.062092 300.581648 
L 2005.665185 301.412452 
L 2006.358743 301.985405 
L 2006.931682 302.196271 
L 2007.62524 302.223621 
L 2008.801273 301.991468 
L 2010.158234 301.514195 
L 2012.05798 300.598281 
L 2014.379891 299.259524 
L 2016.671647 297.673636 
L 2019.144332 295.695531 
L 2021.285315 293.698203 
L 2023.788154 291.045336 
L 2026.411612 287.944402 
L 2028.58275 285.030205 
L 2031.688683 280.382401 
L 2035.035853 274.946806 
L 2038.684571 268.585206 
L 2043.901332 258.99593 
L 2048.756237 249.680588 
L 2050.686137 245.554245 
L 2051.86217 242.524871 
L 2052.646192 239.906937 
L 2053.219131 237.233181 
L 2053.611142 234.413324 
L 2053.882534 230.872548 
L 2054.063462 225.490926 
L 2054.153926 217.169245 
L 2054.184081 207.914986 
L 2054.24439 38.849789 
L 2054.334854 38.876031 
L 2054.455473 39.239513 
L 2054.606247 40.517095 
L 2054.817329 44.639733 
L 2055.088722 54.834257 
L 2055.480733 79.233906 
L 2056.867848 188.212505 
L 2057.078931 222.771104 
L 2057.109086 222.636155 
L 2057.259859 218.680744 
L 2057.440787 209.642649 
L 2057.501097 200.036092 
L 2057.65187 65.026309 
L 2057.772489 72.148136 
L 2059.159605 175.226161 
L 2059.340533 180.81691 
L 2059.370688 180.815906 
L 2059.461152 178.038084 
L 2059.702389 164.248637 
L 2059.762699 164.833747 
L 2060.154709 170.441857 
L 2060.275328 169.939452 
L 2060.637185 168.316572 
L 2062.054455 166.575978 
L 2062.717858 166.279305 
L 2063.381261 166.24983 
L 2064.225593 166.451828 
L 2065.341316 166.948271 
L 2066.728432 167.817588 
L 2068.718641 169.341045 
L 2078.699844 177.361134 
L 2081.413766 179.090718 
L 2084.157842 180.585733 
L 2087.052693 181.902025 
L 2089.947543 182.977465 
L 2092.782084 183.805887 
L 2095.918171 184.471314 
L 2099.597043 185.062624 
L 2101.677717 185.159427 
L 2102.702976 185.019696 
L 2103.275916 184.727613 
L 2103.728236 184.210227 
L 2104.120247 183.533014 
L 2104.150402 183.572135 
L 2104.210711 184.105158 
L 2104.27102 186.744749 
L 2104.361484 208.709047 
L 2104.572567 266.347815 
L 2104.753495 272.323711 
L 2105.23597 276.370023 
L 2107.196025 291.200341 
L 2108.130821 296.619036 
L 2108.884688 299.775294 
L 2109.578246 301.756354 
L 2110.211494 302.941354 
L 2110.874897 303.735933 
L 2111.59861 304.257871 
L 2112.412786 304.557237 
L 2113.468201 304.696546 
L 2115.51872 304.715514 
L 2116.93599 304.482656 
L 2118.956354 304.130018 
L 2119.046818 304.131603 
L 2119.046818 304.131603 
" clip-path="url(#p71c1b09df9)" style="fill: none; stroke: #1f77b4; stroke-width: 1.5; stroke-linecap: square"/>
   </g>
   <g id="patch_15">
    <path d="M 1485.83 318.04 
L 1485.83 25.44 
" style="fill: none; stroke: #000000; stroke-width: 0.8; stroke-linejoin: miter; stroke-linecap: square"/>
   </g>
   <g id="patch_16">
    <path d="M 2149.2 318.04 
L 2149.2 25.44 
" style="fill: none; stroke: #000000; stroke-width: 0.8; stroke-linejoin: miter; stroke-linecap: square"/>
   </g>
   <g id="patch_17">
    <path d="M 1485.83 318.04 
L 2149.2 318.04 
" style="fill: none; stroke: #000000; stroke-width: 0.8; stroke-linejoin: miter; stroke-linecap: square"/>
   </g>
   <g id="patch_18">
    <path d="M 1485.83 25.44 
L 2149.2 25.44 
" style="fill: none; stroke: #000000; stroke-width: 0.8; stroke-linejoin: miter; stroke-linecap: square"/>
   </g>
   <g id="text_50">
    <!-- Irregular -->
    <g transform="translate(1791.938125 19.44) scale(0.12 -0.12)">
     <defs>
      <path id="DejaVuSans-49" d="M 628 4666 
L 1259 4666 
L 1259 0 
L 628 0 
L 628 4666 
z
" transform="scale(0.015625)"/>
     </defs>
     <use xlink:href="#DejaVuSans-49"/>
     <use xlink:href="#DejaVuSans-72" transform="translate(29.492188 0)"/>
     <use xlink:href="#DejaVuSans-72" transform="translate(68.855469 0)"/>
     <use xlink:href="#DejaVuSans-65" transform="translate(107.71875 0)"/>
     <use xlink:href="#DejaVuSans-67" transform="translate(169.242188 0)"/>
     <use xlink:href="#DejaVuSans-75" transform="translate(232.71875 0)"/>
     <use xlink:href="#DejaVuSans-6c" transform="translate(296.097656 0)"/>
     <use xlink:href="#DejaVuSans-61" transform="translate(323.880859 0)"/>
     <use xlink:href="#DejaVuSans-72" transform="translate(385.160156 0)"/>
    </g>
   </g>
   <g id="legend_3">
    <g id="patch_19">
     <path d="M 2103.359375 48.118125 
L 2142.2 48.118125 
Q 2144.2 48.118125 2144.2 46.118125 
L 2144.2 32.44 
Q 2144.2 30.44 2142.2 30.44 
L 2103.359375 30.44 
Q 2101.359375 30.44 2101.359375 32.44 
L 2101.359375 46.118125 
Q 2101.359375 48.118125 2103.359375 48.118125 
z
" style="fill: #ffffff; opacity: 0.8; stroke: #cccccc; stroke-linejoin: miter"/>
    </g>
    <g id="line2d_45">
     <path d="M 2105.359375 38.538438 
L 2115.359375 38.538438 
L 2125.359375 38.538438 
" style="fill: none; stroke: #1f77b4; stroke-width: 1.5; stroke-linecap: square"/>
    </g>
    <g id="text_51">
     <!-- V -->
     <g transform="translate(2133.359375 42.038438) scale(0.1 -0.1)">
      <use xlink:href="#DejaVuSans-56"/>
     </g>
    </g>
   </g>
  </g>
 </g>
 <defs>
  <clipPath id="pfb669c9804">
   <rect x="53.03" y="25.44" width="663.37" height="292.6"/>
  </clipPath>
  <clipPath id="p3d00e87276">
   <rect x="769.43" y="25.44" width="663.37" height="292.6"/>
  </clipPath>
  <clipPath id="p71c1b09df9">
   <rect x="1485.83" y="25.44" width="663.37" height="292.6"/>
  </clipPath>
 </defs>
</svg>
