<?xml version="1.0" encoding="utf-8" standalone="no"?>
<!DOCTYPE svg PUBLIC "-//W3C//DTD SVG 1.1//EN"
  "http://www.w3.org/Graphics/SVG/1.1/DTD/svg11.dtd">
<svg xmlns:xlink="http://www.w3.org/1999/xlink" width="1440pt" height="360pt" viewBox="0 0 1440 360" xmlns="http://www.w3.org/2000/svg" version="1.1">
 <metadata>
  <rdf:RDF xmlns:dc="http://purl.org/dc/elements/1.1/" xmlns:cc="http://creativecommons.org/ns#" xmlns:rdf="http://www.w3.org/1999/02/22-rdf-syntax-ns#">
   <cc:Work>
    <dc:type rdf:resource="http://purl.org/dc/dcmitype/StillImage"/>
    <dc:date>2025-03-07T07:57:10.524095</dc:date>
    <dc:format>image/svg+xml</dc:format>
    <dc:creator>
     <cc:Agent>
      <dc:title>Matplotlib v3.10.0, https://matplotlib.org/</dc:title>
     </cc:Agent>
    </dc:creator>
   </cc:Work>
  </rdf:RDF>
 </metadata>
 <defs>
  <style type="text/css">*{stroke-linejoin: round; stroke-linecap: butt}</style>
 </defs>
 <g id="figure_1">
  <g id="patch_1">
   <path d="M 0 360 
L 1440 360 
L 1440 0 
L 0 0 
z
" style="fill: #ffffff"/>
  </g>
  <g id="axes_1">
   <g id="patch_2">
    <path d="M 53.03 318.04 
L 714.6 318.04 
L 714.6 25.44 
L 53.03 25.44 
z
" style="fill: #ffffff"/>
   </g>
   <g id="matplotlib.axis_1">
    <g id="xtick_1">
     <g id="line2d_1">
      <defs>
       <path id="mfdabe5506d" d="M 0 0 
L 0 3.5 
" style="stroke: #000000; stroke-width: 0.8"/>
      </defs>
      <g>
       <use xlink:href="#mfdabe5506d" x="83.101364" y="318.04" style="stroke: #000000; stroke-width: 0.8"/>
      </g>
     </g>
     <g id="text_1">
      <!-- 3000 -->
      <g transform="translate(70.376364 332.638438) scale(0.1 -0.1)">
       <defs>
        <path id="DejaVuSans-33" d="M 2597 2516 
Q 3050 2419 3304 2112 
Q 3559 1806 3559 1356 
Q 3559 666 3084 287 
Q 2609 -91 1734 -91 
Q 1441 -91 1130 -33 
Q 819 25 488 141 
L 488 750 
Q 750 597 1062 519 
Q 1375 441 1716 441 
Q 2309 441 2620 675 
Q 2931 909 2931 1356 
Q 2931 1769 2642 2001 
Q 2353 2234 1838 2234 
L 1294 2234 
L 1294 2753 
L 1863 2753 
Q 2328 2753 2575 2939 
Q 2822 3125 2822 3475 
Q 2822 3834 2567 4026 
Q 2313 4219 1838 4219 
Q 1578 4219 1281 4162 
Q 984 4106 628 3988 
L 628 4550 
Q 988 4650 1302 4700 
Q 1616 4750 1894 4750 
Q 2613 4750 3031 4423 
Q 3450 4097 3450 3541 
Q 3450 3153 3228 2886 
Q 3006 2619 2597 2516 
z
" transform="scale(0.015625)"/>
        <path id="DejaVuSans-30" d="M 2034 4250 
Q 1547 4250 1301 3770 
Q 1056 3291 1056 2328 
Q 1056 1369 1301 889 
Q 1547 409 2034 409 
Q 2525 409 2770 889 
Q 3016 1369 3016 2328 
Q 3016 3291 2770 3770 
Q 2525 4250 2034 4250 
z
M 2034 4750 
Q 2819 4750 3233 4129 
Q 3647 3509 3647 2328 
Q 3647 1150 3233 529 
Q 2819 -91 2034 -91 
Q 1250 -91 836 529 
Q 422 1150 422 2328 
Q 422 3509 836 4129 
Q 1250 4750 2034 4750 
z
" transform="scale(0.015625)"/>
       </defs>
       <use xlink:href="#DejaVuSans-33"/>
       <use xlink:href="#DejaVuSans-30" transform="translate(63.623047 0)"/>
       <use xlink:href="#DejaVuSans-30" transform="translate(127.246094 0)"/>
       <use xlink:href="#DejaVuSans-30" transform="translate(190.869141 0)"/>
      </g>
     </g>
    </g>
    <g id="xtick_2">
     <g id="line2d_2">
      <g>
       <use xlink:href="#mfdabe5506d" x="203.392833" y="318.04" style="stroke: #000000; stroke-width: 0.8"/>
      </g>
     </g>
     <g id="text_2">
      <!-- 3200 -->
      <g transform="translate(190.667833 332.638438) scale(0.1 -0.1)">
       <defs>
        <path id="DejaVuSans-32" d="M 1228 531 
L 3431 531 
L 3431 0 
L 469 0 
L 469 531 
Q 828 903 1448 1529 
Q 2069 2156 2228 2338 
Q 2531 2678 2651 2914 
Q 2772 3150 2772 3378 
Q 2772 3750 2511 3984 
Q 2250 4219 1831 4219 
Q 1534 4219 1204 4116 
Q 875 4013 500 3803 
L 500 4441 
Q 881 4594 1212 4672 
Q 1544 4750 1819 4750 
Q 2544 4750 2975 4387 
Q 3406 4025 3406 3419 
Q 3406 3131 3298 2873 
Q 3191 2616 2906 2266 
Q 2828 2175 2409 1742 
Q 1991 1309 1228 531 
z
" transform="scale(0.015625)"/>
       </defs>
       <use xlink:href="#DejaVuSans-33"/>
       <use xlink:href="#DejaVuSans-32" transform="translate(63.623047 0)"/>
       <use xlink:href="#DejaVuSans-30" transform="translate(127.246094 0)"/>
       <use xlink:href="#DejaVuSans-30" transform="translate(190.869141 0)"/>
      </g>
     </g>
    </g>
    <g id="xtick_3">
     <g id="line2d_3">
      <g>
       <use xlink:href="#mfdabe5506d" x="323.684302" y="318.04" style="stroke: #000000; stroke-width: 0.8"/>
      </g>
     </g>
     <g id="text_3">
      <!-- 3400 -->
      <g transform="translate(310.959302 332.638438) scale(0.1 -0.1)">
       <defs>
        <path id="DejaVuSans-34" d="M 2419 4116 
L 825 1625 
L 2419 1625 
L 2419 4116 
z
M 2253 4666 
L 3047 4666 
L 3047 1625 
L 3713 1625 
L 3713 1100 
L 3047 1100 
L 3047 0 
L 2419 0 
L 2419 1100 
L 313 1100 
L 313 1709 
L 2253 4666 
z
" transform="scale(0.015625)"/>
       </defs>
       <use xlink:href="#DejaVuSans-33"/>
       <use xlink:href="#DejaVuSans-34" transform="translate(63.623047 0)"/>
       <use xlink:href="#DejaVuSans-30" transform="translate(127.246094 0)"/>
       <use xlink:href="#DejaVuSans-30" transform="translate(190.869141 0)"/>
      </g>
     </g>
    </g>
    <g id="xtick_4">
     <g id="line2d_4">
      <g>
       <use xlink:href="#mfdabe5506d" x="443.975771" y="318.04" style="stroke: #000000; stroke-width: 0.8"/>
      </g>
     </g>
     <g id="text_4">
      <!-- 3600 -->
      <g transform="translate(431.250771 332.638438) scale(0.1 -0.1)">
       <defs>
        <path id="DejaVuSans-36" d="M 2113 2584 
Q 1688 2584 1439 2293 
Q 1191 2003 1191 1497 
Q 1191 994 1439 701 
Q 1688 409 2113 409 
Q 2538 409 2786 701 
Q 3034 994 3034 1497 
Q 3034 2003 2786 2293 
Q 2538 2584 2113 2584 
z
M 3366 4563 
L 3366 3988 
Q 3128 4100 2886 4159 
Q 2644 4219 2406 4219 
Q 1781 4219 1451 3797 
Q 1122 3375 1075 2522 
Q 1259 2794 1537 2939 
Q 1816 3084 2150 3084 
Q 2853 3084 3261 2657 
Q 3669 2231 3669 1497 
Q 3669 778 3244 343 
Q 2819 -91 2113 -91 
Q 1303 -91 875 529 
Q 447 1150 447 2328 
Q 447 3434 972 4092 
Q 1497 4750 2381 4750 
Q 2619 4750 2861 4703 
Q 3103 4656 3366 4563 
z
" transform="scale(0.015625)"/>
       </defs>
       <use xlink:href="#DejaVuSans-33"/>
       <use xlink:href="#DejaVuSans-36" transform="translate(63.623047 0)"/>
       <use xlink:href="#DejaVuSans-30" transform="translate(127.246094 0)"/>
       <use xlink:href="#DejaVuSans-30" transform="translate(190.869141 0)"/>
      </g>
     </g>
    </g>
    <g id="xtick_5">
     <g id="line2d_5">
      <g>
       <use xlink:href="#mfdabe5506d" x="564.26724" y="318.04" style="stroke: #000000; stroke-width: 0.8"/>
      </g>
     </g>
     <g id="text_5">
      <!-- 3800 -->
      <g transform="translate(551.54224 332.638438) scale(0.1 -0.1)">
       <defs>
        <path id="DejaVuSans-38" d="M 2034 2216 
Q 1584 2216 1326 1975 
Q 1069 1734 1069 1313 
Q 1069 891 1326 650 
Q 1584 409 2034 409 
Q 2484 409 2743 651 
Q 3003 894 3003 1313 
Q 3003 1734 2745 1975 
Q 2488 2216 2034 2216 
z
M 1403 2484 
Q 997 2584 770 2862 
Q 544 3141 544 3541 
Q 544 4100 942 4425 
Q 1341 4750 2034 4750 
Q 2731 4750 3128 4425 
Q 3525 4100 3525 3541 
Q 3525 3141 3298 2862 
Q 3072 2584 2669 2484 
Q 3125 2378 3379 2068 
Q 3634 1759 3634 1313 
Q 3634 634 3220 271 
Q 2806 -91 2034 -91 
Q 1263 -91 848 271 
Q 434 634 434 1313 
Q 434 1759 690 2068 
Q 947 2378 1403 2484 
z
M 1172 3481 
Q 1172 3119 1398 2916 
Q 1625 2713 2034 2713 
Q 2441 2713 2670 2916 
Q 2900 3119 2900 3481 
Q 2900 3844 2670 4047 
Q 2441 4250 2034 4250 
Q 1625 4250 1398 4047 
Q 1172 3844 1172 3481 
z
" transform="scale(0.015625)"/>
       </defs>
       <use xlink:href="#DejaVuSans-33"/>
       <use xlink:href="#DejaVuSans-38" transform="translate(63.623047 0)"/>
       <use xlink:href="#DejaVuSans-30" transform="translate(127.246094 0)"/>
       <use xlink:href="#DejaVuSans-30" transform="translate(190.869141 0)"/>
      </g>
     </g>
    </g>
    <g id="xtick_6">
     <g id="line2d_6">
      <g>
       <use xlink:href="#mfdabe5506d" x="684.558709" y="318.04" style="stroke: #000000; stroke-width: 0.8"/>
      </g>
     </g>
     <g id="text_6">
      <!-- 4000 -->
      <g transform="translate(671.833709 332.638438) scale(0.1 -0.1)">
       <use xlink:href="#DejaVuSans-34"/>
       <use xlink:href="#DejaVuSans-30" transform="translate(63.623047 0)"/>
       <use xlink:href="#DejaVuSans-30" transform="translate(127.246094 0)"/>
       <use xlink:href="#DejaVuSans-30" transform="translate(190.869141 0)"/>
      </g>
     </g>
    </g>
    <g id="text_7">
     <!-- Time (ms) -->
     <g transform="translate(358.615781 346.316563) scale(0.1 -0.1)">
      <defs>
       <path id="DejaVuSans-54" d="M -19 4666 
L 3928 4666 
L 3928 4134 
L 2272 4134 
L 2272 0 
L 1638 0 
L 1638 4134 
L -19 4134 
L -19 4666 
z
" transform="scale(0.015625)"/>
       <path id="DejaVuSans-69" d="M 603 3500 
L 1178 3500 
L 1178 0 
L 603 0 
L 603 3500 
z
M 603 4863 
L 1178 4863 
L 1178 4134 
L 603 4134 
L 603 4863 
z
" transform="scale(0.015625)"/>
       <path id="DejaVuSans-6d" d="M 3328 2828 
Q 3544 3216 3844 3400 
Q 4144 3584 4550 3584 
Q 5097 3584 5394 3201 
Q 5691 2819 5691 2113 
L 5691 0 
L 5113 0 
L 5113 2094 
Q 5113 2597 4934 2840 
Q 4756 3084 4391 3084 
Q 3944 3084 3684 2787 
Q 3425 2491 3425 1978 
L 3425 0 
L 2847 0 
L 2847 2094 
Q 2847 2600 2669 2842 
Q 2491 3084 2119 3084 
Q 1678 3084 1418 2786 
Q 1159 2488 1159 1978 
L 1159 0 
L 581 0 
L 581 3500 
L 1159 3500 
L 1159 2956 
Q 1356 3278 1631 3431 
Q 1906 3584 2284 3584 
Q 2666 3584 2933 3390 
Q 3200 3197 3328 2828 
z
" transform="scale(0.015625)"/>
       <path id="DejaVuSans-65" d="M 3597 1894 
L 3597 1613 
L 953 1613 
Q 991 1019 1311 708 
Q 1631 397 2203 397 
Q 2534 397 2845 478 
Q 3156 559 3463 722 
L 3463 178 
Q 3153 47 2828 -22 
Q 2503 -91 2169 -91 
Q 1331 -91 842 396 
Q 353 884 353 1716 
Q 353 2575 817 3079 
Q 1281 3584 2069 3584 
Q 2775 3584 3186 3129 
Q 3597 2675 3597 1894 
z
M 3022 2063 
Q 3016 2534 2758 2815 
Q 2500 3097 2075 3097 
Q 1594 3097 1305 2825 
Q 1016 2553 972 2059 
L 3022 2063 
z
" transform="scale(0.015625)"/>
       <path id="DejaVuSans-20" transform="scale(0.015625)"/>
       <path id="DejaVuSans-28" d="M 1984 4856 
Q 1566 4138 1362 3434 
Q 1159 2731 1159 2009 
Q 1159 1288 1364 580 
Q 1569 -128 1984 -844 
L 1484 -844 
Q 1016 -109 783 600 
Q 550 1309 550 2009 
Q 550 2706 781 3412 
Q 1013 4119 1484 4856 
L 1984 4856 
z
" transform="scale(0.015625)"/>
       <path id="DejaVuSans-73" d="M 2834 3397 
L 2834 2853 
Q 2591 2978 2328 3040 
Q 2066 3103 1784 3103 
Q 1356 3103 1142 2972 
Q 928 2841 928 2578 
Q 928 2378 1081 2264 
Q 1234 2150 1697 2047 
L 1894 2003 
Q 2506 1872 2764 1633 
Q 3022 1394 3022 966 
Q 3022 478 2636 193 
Q 2250 -91 1575 -91 
Q 1294 -91 989 -36 
Q 684 19 347 128 
L 347 722 
Q 666 556 975 473 
Q 1284 391 1588 391 
Q 1994 391 2212 530 
Q 2431 669 2431 922 
Q 2431 1156 2273 1281 
Q 2116 1406 1581 1522 
L 1381 1569 
Q 847 1681 609 1914 
Q 372 2147 372 2553 
Q 372 3047 722 3315 
Q 1072 3584 1716 3584 
Q 2034 3584 2315 3537 
Q 2597 3491 2834 3397 
z
" transform="scale(0.015625)"/>
       <path id="DejaVuSans-29" d="M 513 4856 
L 1013 4856 
Q 1481 4119 1714 3412 
Q 1947 2706 1947 2009 
Q 1947 1309 1714 600 
Q 1481 -109 1013 -844 
L 513 -844 
Q 928 -128 1133 580 
Q 1338 1288 1338 2009 
Q 1338 2731 1133 3434 
Q 928 4138 513 4856 
z
" transform="scale(0.015625)"/>
      </defs>
      <use xlink:href="#DejaVuSans-54"/>
      <use xlink:href="#DejaVuSans-69" transform="translate(57.958984 0)"/>
      <use xlink:href="#DejaVuSans-6d" transform="translate(85.742188 0)"/>
      <use xlink:href="#DejaVuSans-65" transform="translate(183.154297 0)"/>
      <use xlink:href="#DejaVuSans-20" transform="translate(244.677734 0)"/>
      <use xlink:href="#DejaVuSans-28" transform="translate(276.464844 0)"/>
      <use xlink:href="#DejaVuSans-6d" transform="translate(315.478516 0)"/>
      <use xlink:href="#DejaVuSans-73" transform="translate(412.890625 0)"/>
      <use xlink:href="#DejaVuSans-29" transform="translate(464.990234 0)"/>
     </g>
    </g>
   </g>
   <g id="matplotlib.axis_2">
    <g id="ytick_1">
     <g id="line2d_7">
      <defs>
       <path id="m1f6b9e9073" d="M 0 0 
L -3.5 0 
" style="stroke: #000000; stroke-width: 0.8"/>
      </defs>
      <g>
       <use xlink:href="#m1f6b9e9073" x="53.03" y="280.757261" style="stroke: #000000; stroke-width: 0.8"/>
      </g>
     </g>
     <g id="text_8">
      <!-- −60 -->
      <g transform="translate(24.925313 284.55648) scale(0.1 -0.1)">
       <defs>
        <path id="DejaVuSans-2212" d="M 678 2272 
L 4684 2272 
L 4684 1741 
L 678 1741 
L 678 2272 
z
" transform="scale(0.015625)"/>
       </defs>
       <use xlink:href="#DejaVuSans-2212"/>
       <use xlink:href="#DejaVuSans-36" transform="translate(83.789062 0)"/>
       <use xlink:href="#DejaVuSans-30" transform="translate(147.412109 0)"/>
      </g>
     </g>
    </g>
    <g id="ytick_2">
     <g id="line2d_8">
      <g>
       <use xlink:href="#m1f6b9e9073" x="53.03" y="236.700133" style="stroke: #000000; stroke-width: 0.8"/>
      </g>
     </g>
     <g id="text_9">
      <!-- −40 -->
      <g transform="translate(24.925313 240.499351) scale(0.1 -0.1)">
       <use xlink:href="#DejaVuSans-2212"/>
       <use xlink:href="#DejaVuSans-34" transform="translate(83.789062 0)"/>
       <use xlink:href="#DejaVuSans-30" transform="translate(147.412109 0)"/>
      </g>
     </g>
    </g>
    <g id="ytick_3">
     <g id="line2d_9">
      <g>
       <use xlink:href="#m1f6b9e9073" x="53.03" y="192.643004" style="stroke: #000000; stroke-width: 0.8"/>
      </g>
     </g>
     <g id="text_10">
      <!-- −20 -->
      <g transform="translate(24.925313 196.442223) scale(0.1 -0.1)">
       <use xlink:href="#DejaVuSans-2212"/>
       <use xlink:href="#DejaVuSans-32" transform="translate(83.789062 0)"/>
       <use xlink:href="#DejaVuSans-30" transform="translate(147.412109 0)"/>
      </g>
     </g>
    </g>
    <g id="ytick_4">
     <g id="line2d_10">
      <g>
       <use xlink:href="#m1f6b9e9073" x="53.03" y="148.585875" style="stroke: #000000; stroke-width: 0.8"/>
      </g>
     </g>
     <g id="text_11">
      <!-- 0 -->
      <g transform="translate(39.6675 152.385094) scale(0.1 -0.1)">
       <use xlink:href="#DejaVuSans-30"/>
      </g>
     </g>
    </g>
    <g id="ytick_5">
     <g id="line2d_11">
      <g>
       <use xlink:href="#m1f6b9e9073" x="53.03" y="104.528747" style="stroke: #000000; stroke-width: 0.8"/>
      </g>
     </g>
     <g id="text_12">
      <!-- 20 -->
      <g transform="translate(33.305 108.327965) scale(0.1 -0.1)">
       <use xlink:href="#DejaVuSans-32"/>
       <use xlink:href="#DejaVuSans-30" transform="translate(63.623047 0)"/>
      </g>
     </g>
    </g>
    <g id="ytick_6">
     <g id="line2d_12">
      <g>
       <use xlink:href="#m1f6b9e9073" x="53.03" y="60.471618" style="stroke: #000000; stroke-width: 0.8"/>
      </g>
     </g>
     <g id="text_13">
      <!-- 40 -->
      <g transform="translate(33.305 64.270837) scale(0.1 -0.1)">
       <use xlink:href="#DejaVuSans-34"/>
       <use xlink:href="#DejaVuSans-30" transform="translate(63.623047 0)"/>
      </g>
     </g>
    </g>
    <g id="text_14">
     <!-- Voltage (mV) -->
     <g transform="translate(18.845625 204.2775) rotate(-90) scale(0.1 -0.1)">
      <defs>
       <path id="DejaVuSans-56" d="M 1831 0 
L 50 4666 
L 709 4666 
L 2188 738 
L 3669 4666 
L 4325 4666 
L 2547 0 
L 1831 0 
z
" transform="scale(0.015625)"/>
       <path id="DejaVuSans-6f" d="M 1959 3097 
Q 1497 3097 1228 2736 
Q 959 2375 959 1747 
Q 959 1119 1226 758 
Q 1494 397 1959 397 
Q 2419 397 2687 759 
Q 2956 1122 2956 1747 
Q 2956 2369 2687 2733 
Q 2419 3097 1959 3097 
z
M 1959 3584 
Q 2709 3584 3137 3096 
Q 3566 2609 3566 1747 
Q 3566 888 3137 398 
Q 2709 -91 1959 -91 
Q 1206 -91 779 398 
Q 353 888 353 1747 
Q 353 2609 779 3096 
Q 1206 3584 1959 3584 
z
" transform="scale(0.015625)"/>
       <path id="DejaVuSans-6c" d="M 603 4863 
L 1178 4863 
L 1178 0 
L 603 0 
L 603 4863 
z
" transform="scale(0.015625)"/>
       <path id="DejaVuSans-74" d="M 1172 4494 
L 1172 3500 
L 2356 3500 
L 2356 3053 
L 1172 3053 
L 1172 1153 
Q 1172 725 1289 603 
Q 1406 481 1766 481 
L 2356 481 
L 2356 0 
L 1766 0 
Q 1100 0 847 248 
Q 594 497 594 1153 
L 594 3053 
L 172 3053 
L 172 3500 
L 594 3500 
L 594 4494 
L 1172 4494 
z
" transform="scale(0.015625)"/>
       <path id="DejaVuSans-61" d="M 2194 1759 
Q 1497 1759 1228 1600 
Q 959 1441 959 1056 
Q 959 750 1161 570 
Q 1363 391 1709 391 
Q 2188 391 2477 730 
Q 2766 1069 2766 1631 
L 2766 1759 
L 2194 1759 
z
M 3341 1997 
L 3341 0 
L 2766 0 
L 2766 531 
Q 2569 213 2275 61 
Q 1981 -91 1556 -91 
Q 1019 -91 701 211 
Q 384 513 384 1019 
Q 384 1609 779 1909 
Q 1175 2209 1959 2209 
L 2766 2209 
L 2766 2266 
Q 2766 2663 2505 2880 
Q 2244 3097 1772 3097 
Q 1472 3097 1187 3025 
Q 903 2953 641 2809 
L 641 3341 
Q 956 3463 1253 3523 
Q 1550 3584 1831 3584 
Q 2591 3584 2966 3190 
Q 3341 2797 3341 1997 
z
" transform="scale(0.015625)"/>
       <path id="DejaVuSans-67" d="M 2906 1791 
Q 2906 2416 2648 2759 
Q 2391 3103 1925 3103 
Q 1463 3103 1205 2759 
Q 947 2416 947 1791 
Q 947 1169 1205 825 
Q 1463 481 1925 481 
Q 2391 481 2648 825 
Q 2906 1169 2906 1791 
z
M 3481 434 
Q 3481 -459 3084 -895 
Q 2688 -1331 1869 -1331 
Q 1566 -1331 1297 -1286 
Q 1028 -1241 775 -1147 
L 775 -588 
Q 1028 -725 1275 -790 
Q 1522 -856 1778 -856 
Q 2344 -856 2625 -561 
Q 2906 -266 2906 331 
L 2906 616 
Q 2728 306 2450 153 
Q 2172 0 1784 0 
Q 1141 0 747 490 
Q 353 981 353 1791 
Q 353 2603 747 3093 
Q 1141 3584 1784 3584 
Q 2172 3584 2450 3431 
Q 2728 3278 2906 2969 
L 2906 3500 
L 3481 3500 
L 3481 434 
z
" transform="scale(0.015625)"/>
      </defs>
      <use xlink:href="#DejaVuSans-56"/>
      <use xlink:href="#DejaVuSans-6f" transform="translate(60.658203 0)"/>
      <use xlink:href="#DejaVuSans-6c" transform="translate(121.839844 0)"/>
      <use xlink:href="#DejaVuSans-74" transform="translate(149.623047 0)"/>
      <use xlink:href="#DejaVuSans-61" transform="translate(188.832031 0)"/>
      <use xlink:href="#DejaVuSans-67" transform="translate(250.111328 0)"/>
      <use xlink:href="#DejaVuSans-65" transform="translate(313.587891 0)"/>
      <use xlink:href="#DejaVuSans-20" transform="translate(375.111328 0)"/>
      <use xlink:href="#DejaVuSans-28" transform="translate(406.898438 0)"/>
      <use xlink:href="#DejaVuSans-6d" transform="translate(445.912109 0)"/>
      <use xlink:href="#DejaVuSans-56" transform="translate(543.324219 0)"/>
      <use xlink:href="#DejaVuSans-29" transform="translate(611.732422 0)"/>
     </g>
    </g>
   </g>
   <g id="line2d_13">
    <path d="M 83.101364 301.457505 
L 83.702821 301.841175 
L 86.10865 303.626096 
L 86.710108 303.643935 
L 88.033314 303.457228 
L 88.544553 303.579441 
L 88.965573 303.394583 
L 89.506884 302.834625 
L 90.018123 301.946437 
L 90.800018 300.197016 
L 91.792422 297.379532 
L 92.935191 293.352369 
L 94.28847 287.686867 
L 99.310639 265.798735 
L 100.543627 261.919768 
L 101.62625 259.199269 
L 102.648727 257.193208 
L 103.580986 255.835196 
L 104.423027 254.991579 
L 105.204921 254.520519 
L 105.92667 254.341106 
L 106.858929 254.381852 
L 108.061843 254.72063 
L 109.38505 255.014955 
L 110.22709 254.982136 
L 111.039057 254.733247 
L 111.91117 254.228508 
L 112.903575 253.389744 
L 114.016271 252.158123 
L 114.94853 250.827175 
L 115.820643 249.203741 
L 116.452173 247.524164 
L 116.873194 245.750754 
L 117.173922 243.448374 
L 117.384432 240.202933 
L 117.534797 234.248774 
L 117.594942 226.901619 
L 117.625015 215.247823 
L 117.685161 38.74 
L 117.77538 39.4258 
L 117.895671 42.915877 
L 118.076108 57.30829 
L 118.436983 111.795834 
L 118.948221 203.695292 
L 119.098586 294.790267 
L 119.279023 304.548445 
L 119.339169 304.664021 
L 119.399314 304.596231 
L 120.09099 302.925256 
L 120.451865 302.268655 
L 120.842812 301.75619 
L 121.263832 301.415604 
L 121.805144 301.300137 
L 122.406601 301.464658 
L 123.12835 301.944297 
L 125.714617 303.927623 
L 126.316074 304.010864 
L 126.887458 303.889972 
L 127.518989 303.507787 
L 128.240737 302.7942 
L 129.203069 301.486844 
L 129.864672 300.305183 
L 130.586421 298.5471 
L 131.608899 295.29847 
L 132.751668 290.71972 
L 134.646258 282.077219 
L 137.142306 270.870321 
L 138.555731 265.505625 
L 139.788718 261.671701 
L 140.871342 258.993837 
L 141.863746 257.086181 
L 142.796005 255.758084 
L 143.607973 254.964582 
L 144.359794 254.521993 
L 145.081543 254.338852 
L 145.893511 254.377084 
L 147.006207 254.670385 
L 148.449704 255.020676 
L 149.291745 254.99791 
L 150.163858 254.724176 
L 151.035971 254.204449 
L 152.088521 253.302206 
L 153.261363 251.981531 
L 154.343986 250.41379 
L 155.095808 248.932972 
L 155.667192 247.317417 
L 156.05814 245.546306 
L 156.358868 243.145788 
L 156.569378 239.58469 
L 156.719743 231.901519 
L 156.779888 217.543682 
L 156.840034 38.814192 
L 156.930253 39.367737 
L 157.050544 42.765549 
L 157.230981 56.908194 
L 157.591856 111.255604 
L 158.103095 199.551761 
L 158.253459 294.192045 
L 158.433896 304.492913 
L 158.524115 304.686547 
L 158.554188 304.632656 
L 159.185718 303.038734 
L 160.117977 301.641559 
L 160.478851 301.405031 
L 161.020163 301.302472 
L 161.561474 301.46529 
L 162.25315 301.930989 
L 164.779271 303.859102 
L 165.470947 304.005877 
L 166.162623 303.924259 
L 166.944518 303.589908 
L 167.455756 303.185483 
L 168.057214 302.411063 
L 168.778963 301.05556 
L 169.560857 299.094028 
L 170.523189 296.049662 
L 171.696031 291.574182 
L 173.289893 284.544682 
L 176.718199 269.184232 
L 178.041406 264.409834 
L 179.214247 260.967158 
L 180.296871 258.448732 
L 181.289275 256.675225 
L 182.191461 255.499305 
L 183.003429 254.795904 
L 183.725178 254.449595 
L 184.446926 254.33679 
L 185.288967 254.442914 
L 188.175962 255.020377 
L 188.987929 254.826948 
L 189.890115 254.369257 
L 190.942666 253.55413 
L 192.115508 252.358056 
L 193.228204 250.916595 
L 194.070244 249.467844 
L 194.701774 247.954465 
L 195.152867 246.29204 
L 195.483669 244.259621 
L 195.724252 241.503476 
L 195.904689 236.473638 
L 195.994907 228.454617 
L 196.02498 220.16861 
L 196.085126 38.826643 
L 196.23549 40.454234 
L 196.385855 47.960347 
L 196.626438 76.577064 
L 197.348186 196.608605 
L 197.528624 297.827163 
L 197.709061 304.592424 
L 197.769207 304.602011 
L 197.799279 304.553331 
L 198.130081 303.734511 
L 198.85183 302.222794 
L 199.393141 301.558772 
L 199.874307 301.274772 
L 200.3254 301.245092 
L 200.836639 301.432596 
L 201.588461 301.970304 
L 203.242468 303.209323 
L 205.317496 304.088409 
L 205.798662 303.957059 
L 206.279828 303.618621 
L 207.001577 302.7549 
L 207.753399 301.484037 
L 208.565366 299.663326 
L 209.497625 296.97571 
L 210.550175 293.209839 
L 211.993673 287.055776 
L 216.414384 267.463146 
L 217.677445 263.180662 
L 218.820214 260.054701 
L 219.872764 257.791522 
L 220.835096 256.223823 
L 221.707209 255.213559 
L 222.489103 254.634915 
L 223.210852 254.368242 
L 223.962674 254.321092 
L 224.894933 254.507645 
L 227.090252 255.027497 
L 227.90222 254.95259 
L 228.74426 254.635436 
L 229.646446 254.048336 
L 230.729069 253.054005 
L 231.901911 251.650383 
L 232.864243 250.196185 
L 233.585992 248.723477 
L 234.157376 247.020915 
L 234.548323 245.106387 
L 234.788906 242.896697 
L 234.999416 239.07356 
L 235.119708 233.075285 
L 235.179853 223.183159 
L 235.209926 196.606439 
L 235.270072 38.784068 
L 235.330218 39.209578 
L 235.450509 42.214193 
L 235.630946 55.533641 
L 235.961748 104.334974 
L 236.50306 190.313384 
L 236.71357 300.00155 
L 236.863934 304.586847 
L 236.954153 304.647507 
L 236.984226 304.597602 
L 237.826266 302.640256 
L 238.18714 302.032371 
L 238.698379 301.497221 
L 239.149472 301.309524 
L 239.630638 301.341402 
L 240.232095 301.614275 
L 241.134281 302.291713 
L 243.540111 304.223819 
L 244.201714 304.416628 
L 244.743025 304.3541 
L 245.254264 304.069833 
L 245.795576 303.490943 
L 246.36696 302.524294 
L 247.509729 299.921402 
L 248.562279 297.128362 
L 249.61483 293.630002 
L 250.697453 289.223029 
L 252.411606 281.2484 
L 254.636999 271.185486 
L 256.050423 265.800765 
L 257.283411 261.935183 
L 258.396107 259.141791 
L 259.418584 257.149543 
L 260.320771 255.844923 
L 261.162811 255.001003 
L 261.914632 254.54982 
L 262.666454 254.358305 
L 263.448349 254.392359 
L 264.741482 254.741115 
L 266.034615 255.015135 
L 266.906728 254.969131 
L 267.778842 254.689697 
L 268.7111 254.148248 
L 269.763651 253.272571 
L 270.876347 252.054065 
L 271.868752 250.647328 
L 272.650646 249.146105 
L 273.252103 247.534056 
L 273.673124 245.766023 
L 273.973852 243.517424 
L 274.184362 240.44854 
L 274.334727 235.098439 
L 274.424945 221.936656 
L 274.515164 38.777106 
L 274.665528 41.208407 
L 274.815893 50.036384 
L 275.056475 80.42054 
L 275.748151 192.850539 
L 275.928589 297.309955 
L 276.109026 304.596544 
L 276.169172 304.654236 
L 276.199244 304.620507 
L 276.409755 304.086238 
L 276.68041 303.395328 
L 277.041285 302.637402 
L 277.672815 301.721102 
L 278.184054 301.354957 
L 278.635147 301.280055 
L 279.146385 301.433121 
L 279.807989 301.8904 
L 281.822871 303.435842 
L 282.394255 303.533453 
L 282.815275 303.609402 
L 283.416733 303.932275 
L 283.687388 304.025395 
L 284.138481 303.999744 
L 284.679793 303.695237 
L 285.160959 303.158027 
L 285.852635 302.099868 
L 286.664602 300.429923 
L 287.506643 298.201122 
L 288.52912 294.829085 
L 289.732035 290.031331 
L 291.506334 281.943679 
L 294.0926 270.320639 
L 295.475952 265.144916 
L 296.678867 261.474793 
L 297.791563 258.774765 
L 298.783968 256.921112 
L 299.686154 255.675286 
L 300.498121 254.908228 
L 301.249943 254.488928 
L 301.971692 254.327611 
L 302.813732 254.386389 
L 304.076792 254.734446 
L 305.369926 255.020603 
L 306.181893 254.98403 
L 306.993861 254.73641 
L 307.865974 254.220296 
L 308.888451 253.341519 
L 310.03122 252.04157 
L 311.113843 250.448317 
L 311.895738 248.909293 
L 312.467122 247.269668 
L 312.85807 245.476844 
L 313.158798 243.027085 
L 313.369308 239.328103 
L 313.4896 233.980889 
L 313.549746 225.868342 
L 313.579818 211.61168 
L 313.639964 38.809361 
L 313.70011 39.112904 
L 313.820401 41.832099 
L 313.970766 51.582672 
L 314.241422 87.96989 
L 314.903025 209.508294 
L 315.053389 295.479905 
L 315.233826 304.544818 
L 315.293972 304.74 
L 315.354118 304.6014 
L 315.745065 303.603557 
L 316.436741 302.250957 
L 316.978052 301.590434 
L 317.699801 301.324251 
L 318.21104 301.418755 
L 318.812497 301.788514 
L 319.865048 302.772428 
L 320.827379 303.530834 
L 321.428837 303.748864 
L 322.30095 303.953883 
L 322.962553 304.08911 
L 323.473792 303.93289 
L 324.045176 303.489473 
L 324.646634 302.695772 
L 325.398455 301.353612 
L 326.240496 299.372586 
L 327.172754 296.577476 
L 328.255378 292.58938 
L 329.668802 286.484234 
L 333.848931 267.900195 
L 335.142064 263.449533 
L 336.284833 260.275461 
L 337.337384 257.968648 
L 338.299715 256.36609 
L 339.171829 255.325562 
L 339.953723 254.717176 
L 340.675472 254.417132 
L 341.457366 254.338243 
L 342.299407 254.474149 
L 344.705236 255.056781 
L 345.547276 254.982012 
L 346.329171 254.707123 
L 347.201284 254.14341 
L 348.193689 253.228551 
L 349.336458 251.831109 
L 350.419081 250.177098 
L 351.14083 248.671809 
L 351.652068 247.106277 
L 352.043016 245.116613 
L 352.313672 242.674089 
L 352.494109 239.280715 
L 352.6144 233.779272 
L 352.674546 225.549618 
L 352.704619 210.289196 
L 352.794837 38.913981 
L 352.82491 39.116517 
L 352.945202 41.881554 
L 353.095566 51.69103 
L 353.366222 88.218274 
L 354.027825 211.777705 
L 354.178189 295.88621 
L 354.358626 304.565076 
L 354.418772 304.678879 
L 354.478918 304.596925 
L 355.772051 301.970124 
L 356.523873 301.361558 
L 357.005039 301.336308 
L 357.54635 301.5235 
L 358.238026 302.022426 
L 360.493491 303.865872 
L 361.064876 303.96743 
L 362.598592 303.753762 
L 363.169977 303.393044 
L 363.741361 302.756708 
L 364.372891 301.707118 
L 365.184859 299.846186 
L 366.117118 297.127189 
L 367.199741 293.260792 
L 368.583093 287.414036 
L 373.364679 266.424094 
L 374.657812 262.218178 
L 375.800581 259.275187 
L 376.792985 257.293871 
L 377.725244 255.900225 
L 378.567285 255.028179 
L 379.319106 254.553987 
L 380.040855 254.34195 
L 380.82275 254.35388 
L 381.785081 254.581672 
L 383.469162 255.031717 
L 384.311202 255.040477 
L 385.183315 254.805279 
L 386.025356 254.333084 
L 387.01776 253.508665 
L 388.160529 252.242016 
L 389.092788 250.928117 
L 389.994974 249.318074 
L 390.566359 247.860017 
L 391.017452 246.131602 
L 391.348253 243.971927 
L 391.588836 240.840068 
L 391.739201 236.051709 
L 391.829419 226.869756 
L 391.859492 215.037749 
L 391.919638 38.814617 
L 392.009856 39.428703 
L 392.130148 42.955939 
L 392.310585 57.378619 
L 392.701532 116.78389 
L 393.182698 204.320661 
L 393.333062 295.001766 
L 393.5135 304.532003 
L 393.573645 304.696051 
L 393.603718 304.63542 
L 394.746487 302.185103 
L 395.287799 301.570428 
L 395.768965 301.334145 
L 396.250131 301.342742 
L 396.821515 301.58867 
L 397.693628 302.251835 
L 399.317563 303.500835 
L 400.039312 303.770417 
L 400.640769 303.777878 
L 401.212154 303.563877 
L 401.813611 303.097451 
L 402.505287 302.24368 
L 403.287182 300.894483 
L 404.249513 298.760636 
L 405.662938 295.021894 
L 406.685416 291.6439 
L 407.918403 286.616094 
L 412.459406 266.628985 
L 413.722467 262.538572 
L 414.895308 259.481374 
L 415.947859 257.340543 
L 416.880118 255.919673 
L 417.722158 255.020335 
L 418.47398 254.524192 
L 419.195728 254.301344 
L 419.977623 254.302607 
L 420.970028 254.541607 
L 422.804472 255.007788 
L 423.586367 254.967515 
L 424.368262 254.72432 
L 425.240375 254.210198 
L 426.262852 253.339183 
L 427.435694 252.030599 
L 428.428099 250.602055 
L 429.270139 248.996385 
L 429.811451 247.488668 
L 430.262544 245.457696 
L 430.563272 243.016284 
L 430.773782 239.29837 
L 430.894074 233.698896 
L 430.954219 225.237819 
L 430.984292 208.94752 
L 431.044438 38.834066 
L 431.104584 39.134077 
L 431.224875 41.922645 
L 431.405312 54.72764 
L 431.736114 103.167372 
L 432.307498 212.013367 
L 432.457863 295.885434 
L 432.6383 304.558134 
L 432.698446 304.66682 
L 432.758591 304.586983 
L 434.051725 301.965465 
L 434.863692 301.332598 
L 435.374931 301.337404 
L 435.946315 301.581237 
L 436.758283 302.239816 
L 438.442363 303.682984 
L 439.073894 303.91431 
L 439.855788 303.89633 
L 440.908339 303.793764 
L 441.479723 303.409891 
L 442.051107 302.741501 
L 442.682638 301.644062 
L 443.524678 299.703726 
L 444.48701 296.867834 
L 445.569633 292.954639 
L 446.952985 287.065836 
L 451.493988 267.051568 
L 452.817194 262.651163 
L 453.959963 259.628559 
L 454.98244 257.525829 
L 455.914699 256.082075 
L 456.75674 255.164096 
L 457.538634 254.631782 
L 458.260383 254.393839 
L 459.042278 254.377064 
L 459.974536 254.580098 
L 462.049564 255.077352 
L 462.891605 255.008315 
L 463.703572 254.72416 
L 464.605758 254.148769 
L 465.628235 253.217991 
L 466.801077 251.822927 
L 467.8837 250.153352 
L 468.605449 248.636867 
L 469.146761 246.859544 
L 469.507635 245.02601 
L 469.778291 242.473422 
L 469.988801 237.717102 
L 470.109093 228.01432 
L 470.139166 218.741395 
L 470.199311 38.803243 
L 470.319603 39.839747 
L 470.439894 44.165495 
L 470.620331 60.180287 
L 471.281934 157.365907 
L 471.432299 182.72477 
L 471.7631 304.193221 
L 471.853319 304.693242 
L 471.913465 304.66177 
L 471.97361 304.552426 
L 472.244266 303.799061 
L 472.935942 302.365415 
L 473.507327 301.658436 
L 473.988493 301.394095 
L 474.469658 301.370813 
L 475.041043 301.575525 
L 475.822937 302.116668 
L 478.619714 304.271358 
L 479.221171 304.366149 
L 479.762483 304.228449 
L 480.303795 303.843795 
L 480.875179 303.132906 
L 481.476636 302.0101 
L 482.168312 300.203985 
L 482.920134 297.580808 
L 483.220863 296.83694 
L 483.461446 296.536908 
L 483.912539 295.402233 
L 484.754579 292.645033 
L 485.807129 288.400398 
L 487.641574 279.985952 
L 489.866966 270.099139 
L 491.220245 265.062755 
L 492.42316 261.406132 
L 493.505783 258.791138 
L 494.498188 256.935241 
L 495.400374 255.687436 
L 496.212341 254.920021 
L 496.964163 254.501558 
L 497.685912 254.349575 
L 498.497879 254.384288 
L 499.610575 254.68572 
L 501.114219 255.037905 
L 502.016405 254.995566 
L 502.798299 254.738851 
L 503.700485 254.207139 
L 504.662817 253.375111 
L 505.74544 252.150097 
L 506.737845 250.714832 
L 507.579885 249.109664 
L 508.121197 247.629097 
L 508.57229 245.702745 
L 508.873019 243.469082 
L 509.083529 240.317673 
L 509.233893 234.661888 
L 509.324112 219.237467 
L 509.41433 38.851747 
L 509.504549 39.819814 
L 509.62484 44.125848 
L 509.805277 60.0891 
L 510.406735 149.63584 
L 510.617245 182.456118 
L 510.978119 304.451511 
L 511.038265 304.728795 
L 511.098411 304.580634 
L 512.150961 302.288072 
L 512.692273 301.640991 
L 513.383949 301.254299 
L 513.835042 301.23717 
L 514.256062 301.467375 
L 515.218394 302.289923 
L 517.112984 303.866392 
L 517.80466 304.13798 
L 518.466263 304.166205 
L 519.097793 303.96712 
L 519.729324 303.516314 
L 520.390927 302.750467 
L 521.082603 301.58965 
L 521.864497 299.80746 
L 522.73661 297.221603 
L 523.879379 293.10388 
L 525.322877 286.957259 
L 529.833807 267.075749 
L 531.096868 262.868811 
L 532.239636 259.818452 
L 533.292187 257.622506 
L 534.254519 256.113083 
L 535.096559 255.179278 
L 535.878453 254.634736 
L 536.600202 254.395731 
L 537.352024 254.374856 
L 538.344429 254.596031 
L 540.239019 255.045017 
L 541.081059 254.991808 
L 541.953173 254.695184 
L 542.855359 254.141145 
L 543.907909 253.223978 
L 545.080751 251.888566 
L 546.133301 250.338527 
L 546.885123 248.861435 
L 547.456507 247.207732 
L 547.847455 245.392453 
L 548.148183 242.812706 
L 548.358693 238.898818 
L 548.478985 232.608549 
L 548.539131 221.071876 
L 548.629349 38.868275 
L 548.749641 40.402759 
L 548.900005 47.785624 
L 549.140588 76.12759 
L 549.862337 194.575598 
L 550.042774 297.515901 
L 550.223211 304.605493 
L 550.283357 304.653477 
L 550.343503 304.602246 
L 551.456199 302.136 
L 551.99751 301.533508 
L 552.478676 301.312408 
L 552.989915 301.330557 
L 553.591372 301.593225 
L 554.463485 302.249312 
L 556.71895 304.061071 
L 557.380554 304.268363 
L 557.951938 304.217448 
L 558.49325 303.933236 
L 559.034561 303.38432 
L 559.636019 302.431222 
L 560.297622 300.926107 
L 561.01937 298.708646 
L 561.680974 296.72278 
L 561.891484 296.429284 
L 562.342577 295.278857 
L 563.21469 292.390207 
L 564.297313 287.984079 
L 566.282122 278.845857 
L 568.327077 269.836122 
L 569.680356 264.837818 
L 570.853198 261.299808 
L 571.935821 258.700873 
L 572.928226 256.86003 
L 573.830412 255.627429 
L 574.642379 254.872225 
L 575.394201 254.467339 
L 576.11595 254.321729 
L 577.018136 254.395788 
L 578.341342 254.774102 
L 579.634475 255.042818 
L 580.446443 254.991733 
L 581.25841 254.747052 
L 582.070378 254.262826 
L 583.002636 253.461602 
L 584.08526 252.227604 
L 585.017519 250.860339 
L 585.889632 249.214177 
L 586.430943 247.744157 
L 586.851963 246.05692 
L 587.182765 243.697947 
L 587.393275 240.667229 
L 587.543639 235.568089 
L 587.633858 224.343964 
L 587.663931 203.531326 
L 587.724077 38.796632 
L 587.784222 39.172262 
L 587.904514 42.045513 
L 588.084951 55.073966 
L 588.415753 103.602795 
L 588.957064 188.243807 
L 589.167574 299.476472 
L 589.348011 304.693765 
L 589.43823 304.614723 
L 590.49078 302.296771 
L 591.062165 301.626649 
L 591.543331 301.378787 
L 592.024497 301.38551 
L 592.595881 301.648605 
L 593.467994 302.331798 
L 594.700982 303.254282 
L 595.362585 303.47826 
L 595.964042 303.457223 
L 596.535427 303.502999 
L 596.98652 303.734669 
L 597.40754 303.961714 
L 597.708269 303.869588 
L 598.069143 303.583564 
L 598.760819 302.601539 
L 599.813369 300.679568 
L 600.535118 298.890525 
L 601.49745 295.815458 
L 602.670292 291.255379 
L 604.384445 283.597818 
L 607.451878 269.839556 
L 608.835229 264.739401 
L 610.068217 261.055785 
L 611.15084 258.510814 
L 612.113172 256.770941 
L 613.015358 255.575595 
L 613.827325 254.854295 
L 614.549074 254.489436 
L 615.361042 254.341945 
L 616.142936 254.435751 
L 617.586434 254.860192 
L 618.69913 255.066016 
L 619.54117 255.000757 
L 620.353138 254.723122 
L 621.225251 254.202576 
L 622.277801 253.284681 
L 623.360424 252.032113 
L 624.292683 250.642256 
L 625.134723 248.976078 
L 625.736181 247.256868 
L 626.127128 245.481864 
L 626.397784 243.297219 
L 626.608294 239.823597 
L 626.758658 232.996615 
L 626.818804 222.566856 
L 626.848877 191.247922 
L 626.909023 38.821713 
L 626.969168 39.221762 
L 627.08946 42.296046 
L 627.269897 55.732057 
L 627.600699 104.592274 
L 628.14201 191.881019 
L 628.322447 297.035007 
L 628.502885 304.614759 
L 628.56303 304.68215 
L 628.593103 304.646816 
L 628.863759 303.965226 
L 629.435144 302.644829 
L 629.645654 302.343239 
L 629.946382 301.906895 
L 630.54784 301.402943 
L 630.96886 301.310995 
L 631.480098 301.448669 
L 632.141702 301.884949 
L 635.118915 304.117137 
L 635.750446 304.230852 
L 636.351903 304.094832 
L 636.983433 303.732128 
L 637.614963 303.099285 
L 638.306639 302.073884 
L 639.058461 300.534414 
L 639.900501 298.303841 
L 640.922979 294.90137 
L 642.155966 289.954695 
L 644.08063 281.164889 
L 646.486459 270.399222 
L 647.869811 265.219149 
L 649.072726 261.542386 
L 650.185422 258.838728 
L 651.207899 256.927127 
L 652.110085 255.686909 
L 652.922053 254.923963 
L 653.673875 254.513968 
L 654.395623 254.357079 
L 655.207591 254.419204 
L 656.410505 254.744855 
L 657.793857 255.043487 
L 658.665971 254.99765 
L 659.447865 254.754895 
L 660.410197 254.191846 
L 661.432674 253.299117 
L 662.515298 252.052905 
L 663.477629 250.625621 
L 664.31967 248.963128 
L 664.860981 247.397265 
L 665.312074 245.273269 
L 665.58273 242.988097 
L 665.79324 239.124755 
L 665.913532 233.335758 
L 665.973677 224.17521 
L 666.00375 203.26716 
L 666.063896 38.811902 
L 666.124042 39.175688 
L 666.244333 42.07757 
L 666.42477 55.089072 
L 666.755572 103.781693 
L 667.296883 188.96095 
L 667.507393 299.629035 
L 667.657758 304.589804 
L 667.778049 304.634106 
L 667.838195 304.508052 
L 668.048705 303.874397 
L 668.8306 302.263599 
L 669.401984 301.58434 
L 669.853077 301.355297 
L 670.30417 301.361336 
L 670.905627 301.613988 
L 672.800218 302.827109 
L 673.311457 303.447755 
L 673.942987 303.972021 
L 674.664736 304.190714 
L 675.536849 304.054414 
L 676.198452 303.673154 
L 676.829982 303.028026 
L 677.521658 301.986482 
L 678.27348 300.421593 
L 679.145593 298.04521 
L 680.137998 294.675266 
L 681.401058 289.563343 
L 683.446013 280.178213 
L 684.528636 275.188235 
L 684.528636 275.188235 
" clip-path="url(#pfc03487595)" style="fill: none; stroke: #1f77b4; stroke-width: 1.5; stroke-linecap: square"/>
   </g>
   <g id="patch_3">
    <path d="M 53.03 318.04 
L 53.03 25.44 
" style="fill: none; stroke: #000000; stroke-width: 0.8; stroke-linejoin: miter; stroke-linecap: square"/>
   </g>
   <g id="patch_4">
    <path d="M 714.6 318.04 
L 714.6 25.44 
" style="fill: none; stroke: #000000; stroke-width: 0.8; stroke-linejoin: miter; stroke-linecap: square"/>
   </g>
   <g id="patch_5">
    <path d="M 53.03 318.04 
L 714.6 318.04 
" style="fill: none; stroke: #000000; stroke-width: 0.8; stroke-linejoin: miter; stroke-linecap: square"/>
   </g>
   <g id="patch_6">
    <path d="M 53.03 25.44 
L 714.6 25.44 
" style="fill: none; stroke: #000000; stroke-width: 0.8; stroke-linejoin: miter; stroke-linecap: square"/>
   </g>
   <g id="text_15">
    <!-- Spiking -->
    <g transform="translate(361.777188 19.44) scale(0.12 -0.12)">
     <defs>
      <path id="DejaVuSans-53" d="M 3425 4513 
L 3425 3897 
Q 3066 4069 2747 4153 
Q 2428 4238 2131 4238 
Q 1616 4238 1336 4038 
Q 1056 3838 1056 3469 
Q 1056 3159 1242 3001 
Q 1428 2844 1947 2747 
L 2328 2669 
Q 3034 2534 3370 2195 
Q 3706 1856 3706 1288 
Q 3706 609 3251 259 
Q 2797 -91 1919 -91 
Q 1588 -91 1214 -16 
Q 841 59 441 206 
L 441 856 
Q 825 641 1194 531 
Q 1563 422 1919 422 
Q 2459 422 2753 634 
Q 3047 847 3047 1241 
Q 3047 1584 2836 1778 
Q 2625 1972 2144 2069 
L 1759 2144 
Q 1053 2284 737 2584 
Q 422 2884 422 3419 
Q 422 4038 858 4394 
Q 1294 4750 2059 4750 
Q 2388 4750 2728 4690 
Q 3069 4631 3425 4513 
z
" transform="scale(0.015625)"/>
      <path id="DejaVuSans-70" d="M 1159 525 
L 1159 -1331 
L 581 -1331 
L 581 3500 
L 1159 3500 
L 1159 2969 
Q 1341 3281 1617 3432 
Q 1894 3584 2278 3584 
Q 2916 3584 3314 3078 
Q 3713 2572 3713 1747 
Q 3713 922 3314 415 
Q 2916 -91 2278 -91 
Q 1894 -91 1617 61 
Q 1341 213 1159 525 
z
M 3116 1747 
Q 3116 2381 2855 2742 
Q 2594 3103 2138 3103 
Q 1681 3103 1420 2742 
Q 1159 2381 1159 1747 
Q 1159 1113 1420 752 
Q 1681 391 2138 391 
Q 2594 391 2855 752 
Q 3116 1113 3116 1747 
z
" transform="scale(0.015625)"/>
      <path id="DejaVuSans-6b" d="M 581 4863 
L 1159 4863 
L 1159 1991 
L 2875 3500 
L 3609 3500 
L 1753 1863 
L 3688 0 
L 2938 0 
L 1159 1709 
L 1159 0 
L 581 0 
L 581 4863 
z
" transform="scale(0.015625)"/>
      <path id="DejaVuSans-6e" d="M 3513 2113 
L 3513 0 
L 2938 0 
L 2938 2094 
Q 2938 2591 2744 2837 
Q 2550 3084 2163 3084 
Q 1697 3084 1428 2787 
Q 1159 2491 1159 1978 
L 1159 0 
L 581 0 
L 581 3500 
L 1159 3500 
L 1159 2956 
Q 1366 3272 1645 3428 
Q 1925 3584 2291 3584 
Q 2894 3584 3203 3211 
Q 3513 2838 3513 2113 
z
" transform="scale(0.015625)"/>
     </defs>
     <use xlink:href="#DejaVuSans-53"/>
     <use xlink:href="#DejaVuSans-70" transform="translate(63.476562 0)"/>
     <use xlink:href="#DejaVuSans-69" transform="translate(126.953125 0)"/>
     <use xlink:href="#DejaVuSans-6b" transform="translate(154.736328 0)"/>
     <use xlink:href="#DejaVuSans-69" transform="translate(212.646484 0)"/>
     <use xlink:href="#DejaVuSans-6e" transform="translate(240.429688 0)"/>
     <use xlink:href="#DejaVuSans-67" transform="translate(303.808594 0)"/>
    </g>
   </g>
   <g id="legend_1">
    <g id="patch_7">
     <path d="M 668.759375 48.118125 
L 707.6 48.118125 
Q 709.6 48.118125 709.6 46.118125 
L 709.6 32.44 
Q 709.6 30.44 707.6 30.44 
L 668.759375 30.44 
Q 666.759375 30.44 666.759375 32.44 
L 666.759375 46.118125 
Q 666.759375 48.118125 668.759375 48.118125 
z
" style="fill: #ffffff; opacity: 0.8; stroke: #cccccc; stroke-linejoin: miter"/>
    </g>
    <g id="line2d_14">
     <path d="M 670.759375 38.538438 
L 680.759375 38.538438 
L 690.759375 38.538438 
" style="fill: none; stroke: #1f77b4; stroke-width: 1.5; stroke-linecap: square"/>
    </g>
    <g id="text_16">
     <!-- V -->
     <g transform="translate(698.759375 42.038438) scale(0.1 -0.1)">
      <use xlink:href="#DejaVuSans-56"/>
     </g>
    </g>
   </g>
  </g>
  <g id="axes_2">
   <g id="patch_8">
    <path d="M 767.63 318.04 
L 1429.2 318.04 
L 1429.2 25.44 
L 767.63 25.44 
z
" style="fill: #ffffff"/>
   </g>
   <g id="matplotlib.axis_3">
    <g id="xtick_7">
     <g id="line2d_15">
      <g>
       <use xlink:href="#mfdabe5506d" x="797.701364" y="318.04" style="stroke: #000000; stroke-width: 0.8"/>
      </g>
     </g>
     <g id="text_17">
      <!-- 3000 -->
      <g transform="translate(784.976364 332.638438) scale(0.1 -0.1)">
       <use xlink:href="#DejaVuSans-33"/>
       <use xlink:href="#DejaVuSans-30" transform="translate(63.623047 0)"/>
       <use xlink:href="#DejaVuSans-30" transform="translate(127.246094 0)"/>
       <use xlink:href="#DejaVuSans-30" transform="translate(190.869141 0)"/>
      </g>
     </g>
    </g>
    <g id="xtick_8">
     <g id="line2d_16">
      <g>
       <use xlink:href="#mfdabe5506d" x="917.992833" y="318.04" style="stroke: #000000; stroke-width: 0.8"/>
      </g>
     </g>
     <g id="text_18">
      <!-- 3200 -->
      <g transform="translate(905.267833 332.638438) scale(0.1 -0.1)">
       <use xlink:href="#DejaVuSans-33"/>
       <use xlink:href="#DejaVuSans-32" transform="translate(63.623047 0)"/>
       <use xlink:href="#DejaVuSans-30" transform="translate(127.246094 0)"/>
       <use xlink:href="#DejaVuSans-30" transform="translate(190.869141 0)"/>
      </g>
     </g>
    </g>
    <g id="xtick_9">
     <g id="line2d_17">
      <g>
       <use xlink:href="#mfdabe5506d" x="1038.284302" y="318.04" style="stroke: #000000; stroke-width: 0.8"/>
      </g>
     </g>
     <g id="text_19">
      <!-- 3400 -->
      <g transform="translate(1025.559302 332.638438) scale(0.1 -0.1)">
       <use xlink:href="#DejaVuSans-33"/>
       <use xlink:href="#DejaVuSans-34" transform="translate(63.623047 0)"/>
       <use xlink:href="#DejaVuSans-30" transform="translate(127.246094 0)"/>
       <use xlink:href="#DejaVuSans-30" transform="translate(190.869141 0)"/>
      </g>
     </g>
    </g>
    <g id="xtick_10">
     <g id="line2d_18">
      <g>
       <use xlink:href="#mfdabe5506d" x="1158.575771" y="318.04" style="stroke: #000000; stroke-width: 0.8"/>
      </g>
     </g>
     <g id="text_20">
      <!-- 3600 -->
      <g transform="translate(1145.850771 332.638438) scale(0.1 -0.1)">
       <use xlink:href="#DejaVuSans-33"/>
       <use xlink:href="#DejaVuSans-36" transform="translate(63.623047 0)"/>
       <use xlink:href="#DejaVuSans-30" transform="translate(127.246094 0)"/>
       <use xlink:href="#DejaVuSans-30" transform="translate(190.869141 0)"/>
      </g>
     </g>
    </g>
    <g id="xtick_11">
     <g id="line2d_19">
      <g>
       <use xlink:href="#mfdabe5506d" x="1278.86724" y="318.04" style="stroke: #000000; stroke-width: 0.8"/>
      </g>
     </g>
     <g id="text_21">
      <!-- 3800 -->
      <g transform="translate(1266.14224 332.638438) scale(0.1 -0.1)">
       <use xlink:href="#DejaVuSans-33"/>
       <use xlink:href="#DejaVuSans-38" transform="translate(63.623047 0)"/>
       <use xlink:href="#DejaVuSans-30" transform="translate(127.246094 0)"/>
       <use xlink:href="#DejaVuSans-30" transform="translate(190.869141 0)"/>
      </g>
     </g>
    </g>
    <g id="xtick_12">
     <g id="line2d_20">
      <g>
       <use xlink:href="#mfdabe5506d" x="1399.158709" y="318.04" style="stroke: #000000; stroke-width: 0.8"/>
      </g>
     </g>
     <g id="text_22">
      <!-- 4000 -->
      <g transform="translate(1386.433709 332.638438) scale(0.1 -0.1)">
       <use xlink:href="#DejaVuSans-34"/>
       <use xlink:href="#DejaVuSans-30" transform="translate(63.623047 0)"/>
       <use xlink:href="#DejaVuSans-30" transform="translate(127.246094 0)"/>
       <use xlink:href="#DejaVuSans-30" transform="translate(190.869141 0)"/>
      </g>
     </g>
    </g>
    <g id="text_23">
     <!-- Time (ms) -->
     <g transform="translate(1073.215781 346.316563) scale(0.1 -0.1)">
      <use xlink:href="#DejaVuSans-54"/>
      <use xlink:href="#DejaVuSans-69" transform="translate(57.958984 0)"/>
      <use xlink:href="#DejaVuSans-6d" transform="translate(85.742188 0)"/>
      <use xlink:href="#DejaVuSans-65" transform="translate(183.154297 0)"/>
      <use xlink:href="#DejaVuSans-20" transform="translate(244.677734 0)"/>
      <use xlink:href="#DejaVuSans-28" transform="translate(276.464844 0)"/>
      <use xlink:href="#DejaVuSans-6d" transform="translate(315.478516 0)"/>
      <use xlink:href="#DejaVuSans-73" transform="translate(412.890625 0)"/>
      <use xlink:href="#DejaVuSans-29" transform="translate(464.990234 0)"/>
     </g>
    </g>
   </g>
   <g id="matplotlib.axis_4">
    <g id="ytick_7">
     <g id="line2d_21">
      <g>
       <use xlink:href="#m1f6b9e9073" x="767.63" y="275.966805" style="stroke: #000000; stroke-width: 0.8"/>
      </g>
     </g>
     <g id="text_24">
      <!-- −60 -->
      <g transform="translate(739.525313 279.766024) scale(0.1 -0.1)">
       <use xlink:href="#DejaVuSans-2212"/>
       <use xlink:href="#DejaVuSans-36" transform="translate(83.789062 0)"/>
       <use xlink:href="#DejaVuSans-30" transform="translate(147.412109 0)"/>
      </g>
     </g>
    </g>
    <g id="ytick_8">
     <g id="line2d_22">
      <g>
       <use xlink:href="#m1f6b9e9073" x="767.63" y="232.767846" style="stroke: #000000; stroke-width: 0.8"/>
      </g>
     </g>
     <g id="text_25">
      <!-- −40 -->
      <g transform="translate(739.525313 236.567064) scale(0.1 -0.1)">
       <use xlink:href="#DejaVuSans-2212"/>
       <use xlink:href="#DejaVuSans-34" transform="translate(83.789062 0)"/>
       <use xlink:href="#DejaVuSans-30" transform="translate(147.412109 0)"/>
      </g>
     </g>
    </g>
    <g id="ytick_9">
     <g id="line2d_23">
      <g>
       <use xlink:href="#m1f6b9e9073" x="767.63" y="189.568886" style="stroke: #000000; stroke-width: 0.8"/>
      </g>
     </g>
     <g id="text_26">
      <!-- −20 -->
      <g transform="translate(739.525313 193.368105) scale(0.1 -0.1)">
       <use xlink:href="#DejaVuSans-2212"/>
       <use xlink:href="#DejaVuSans-32" transform="translate(83.789062 0)"/>
       <use xlink:href="#DejaVuSans-30" transform="translate(147.412109 0)"/>
      </g>
     </g>
    </g>
    <g id="ytick_10">
     <g id="line2d_24">
      <g>
       <use xlink:href="#m1f6b9e9073" x="767.63" y="146.369926" style="stroke: #000000; stroke-width: 0.8"/>
      </g>
     </g>
     <g id="text_27">
      <!-- 0 -->
      <g transform="translate(754.2675 150.169145) scale(0.1 -0.1)">
       <use xlink:href="#DejaVuSans-30"/>
      </g>
     </g>
    </g>
    <g id="ytick_11">
     <g id="line2d_25">
      <g>
       <use xlink:href="#m1f6b9e9073" x="767.63" y="103.170966" style="stroke: #000000; stroke-width: 0.8"/>
      </g>
     </g>
     <g id="text_28">
      <!-- 20 -->
      <g transform="translate(747.905 106.970185) scale(0.1 -0.1)">
       <use xlink:href="#DejaVuSans-32"/>
       <use xlink:href="#DejaVuSans-30" transform="translate(63.623047 0)"/>
      </g>
     </g>
    </g>
    <g id="ytick_12">
     <g id="line2d_26">
      <g>
       <use xlink:href="#m1f6b9e9073" x="767.63" y="59.972007" style="stroke: #000000; stroke-width: 0.8"/>
      </g>
     </g>
     <g id="text_29">
      <!-- 40 -->
      <g transform="translate(747.905 63.771225) scale(0.1 -0.1)">
       <use xlink:href="#DejaVuSans-34"/>
       <use xlink:href="#DejaVuSans-30" transform="translate(63.623047 0)"/>
      </g>
     </g>
    </g>
    <g id="text_30">
     <!-- Voltage (mV) -->
     <g transform="translate(733.445625 204.2775) rotate(-90) scale(0.1 -0.1)">
      <use xlink:href="#DejaVuSans-56"/>
      <use xlink:href="#DejaVuSans-6f" transform="translate(60.658203 0)"/>
      <use xlink:href="#DejaVuSans-6c" transform="translate(121.839844 0)"/>
      <use xlink:href="#DejaVuSans-74" transform="translate(149.623047 0)"/>
      <use xlink:href="#DejaVuSans-61" transform="translate(188.832031 0)"/>
      <use xlink:href="#DejaVuSans-67" transform="translate(250.111328 0)"/>
      <use xlink:href="#DejaVuSans-65" transform="translate(313.587891 0)"/>
      <use xlink:href="#DejaVuSans-20" transform="translate(375.111328 0)"/>
      <use xlink:href="#DejaVuSans-28" transform="translate(406.898438 0)"/>
      <use xlink:href="#DejaVuSans-6d" transform="translate(445.912109 0)"/>
      <use xlink:href="#DejaVuSans-56" transform="translate(543.324219 0)"/>
      <use xlink:href="#DejaVuSans-29" transform="translate(611.732422 0)"/>
     </g>
    </g>
   </g>
   <g id="line2d_27">
    <path d="M 797.701364 276.509773 
L 802.362658 267.909416 
L 805.189508 263.152109 
L 807.565264 259.57219 
L 809.790656 256.609767 
L 812.016048 253.99965 
L 817.459237 247.82971 
L 818.511788 246.147677 
L 819.203464 244.622845 
L 819.744775 242.884951 
L 820.10565 240.986443 
L 820.406378 238.179731 
L 820.586816 234.511377 
L 820.707107 227.929368 
L 820.767253 214.847311 
L 820.857471 38.782031 
L 820.94769 39.6673 
L 821.067982 43.581304 
L 821.248419 58.07372 
L 821.699512 122.602459 
L 822.150605 185.262768 
L 822.391188 274.890056 
L 822.421261 275.0609 
L 822.451333 274.959611 
L 822.721989 271.98264 
L 823.864758 257.002425 
L 824.857163 240.89875 
L 825.278183 231.458103 
L 825.398474 225.186741 
L 825.45862 210.574435 
L 825.548839 44.197414 
L 825.608984 45.022899 
L 825.789422 55.28443 
L 826.120223 90.274117 
L 826.902118 188.798142 
L 827.082555 272.412091 
L 827.142701 273.66995 
L 827.202846 273.398302 
L 827.593794 268.129743 
L 828.465907 253.808012 
L 829.33802 235.632052 
L 829.608676 225.980409 
L 829.668822 218.544847 
L 829.698894 200.538903 
L 829.789113 46.011958 
L 829.819186 46.236546 
L 829.96955 53.633052 
L 830.270279 81.967885 
L 831.142392 184.386539 
L 831.382975 273.266035 
L 831.413048 273.336695 
L 831.443121 273.165038 
L 831.803995 268.076324 
L 832.646035 253.486755 
L 833.518149 234.437493 
L 833.758732 224.800481 
L 833.818877 213.975767 
L 833.939169 46.17067 
L 833.999314 47.815156 
L 834.209825 61.803551 
L 834.660918 111.206099 
L 835.322521 199.644249 
L 835.472885 272.040019 
L 835.563104 274.146564 
L 835.593176 273.971974 
L 835.773614 271.684971 
L 837.126893 248.441099 
L 837.908787 230.662504 
L 838.029079 224.529223 
L 838.089224 211.949905 
L 838.209516 45.832705 
L 838.239589 46.469872 
L 838.420026 56.496434 
L 838.7809 93.146433 
L 839.592868 198.70067 
L 839.743232 272.997681 
L 839.833451 275.502391 
L 839.893596 275.13819 
L 840.344689 269.095125 
L 841.337094 253.377475 
L 842.44979 232.305558 
L 842.630227 225.265614 
L 842.690373 216.386521 
L 842.810665 45.271858 
L 842.930956 49.272752 
L 843.171539 68.213181 
L 844.133871 177.009697 
L 844.194016 204.26011 
L 844.344381 274.447976 
L 844.434599 276.920225 
L 844.494745 276.599706 
L 844.85562 272.276453 
L 846.299117 252.424787 
L 847.742615 229.982076 
L 847.862906 225.076697 
L 847.923052 216.621388 
L 848.043343 44.78327 
L 848.193708 50.411042 
L 848.464364 75.10097 
L 849.36655 191.084796 
L 849.546987 275.860291 
L 849.637205 277.741008 
L 849.667278 277.622622 
L 849.937934 274.775547 
L 853.486532 235.712479 
L 854.027844 229.709457 
L 854.178208 225.835924 
L 854.268427 214.881027 
L 854.388718 44.645386 
L 854.50901 48.896031 
L 854.71952 67.801022 
L 855.591633 181.974243 
L 855.892362 276.797546 
L 856.012653 275.812522 
L 858.869576 245.897682 
L 859.741689 239.443134 
L 860.493511 235.375392 
L 861.094968 233.181152 
L 861.485915 232.422933 
L 861.726498 232.298816 
L 861.937008 232.443681 
L 862.237737 232.992201 
L 864.102255 237.432299 
L 865.726189 241.945857 
L 868.071873 249.156089 
L 870.176974 256.332484 
L 871.891127 262.959654 
L 873.454916 269.90401 
L 875.048778 278.063505 
L 878.928178 298.542644 
L 879.740146 301.327262 
L 880.431822 303.014651 
L 881.033279 303.954571 
L 881.604663 304.482592 
L 882.176048 304.721622 
L 882.777505 304.70267 
L 883.5594 304.434586 
L 884.461586 303.835589 
L 885.484063 302.891851 
L 886.987707 301.141027 
L 889.12288 298.27197 
L 891.378345 294.852072 
L 893.994685 290.446045 
L 897.964303 283.280078 
L 907.888349 264.988586 
L 910.41447 260.990004 
L 912.669935 257.810997 
L 915.045692 254.864811 
L 917.932687 251.682126 
L 921.120411 248.081781 
L 922.142888 246.546904 
L 922.924783 244.968499 
L 923.496167 243.335216 
L 923.887115 241.597606 
L 924.217916 238.895074 
L 924.428426 235.355811 
L 924.578791 227.650153 
L 924.638936 213.409234 
L 924.699082 38.74 
L 924.789301 39.225687 
L 924.939665 43.710926 
L 925.120102 58.340378 
L 925.571195 122.976189 
L 926.022288 186.185561 
L 926.232798 274.270492 
L 926.292944 275.022698 
L 926.35309 274.656335 
L 927.014693 266.698833 
L 928.097316 251.438123 
L 928.939356 236.598331 
L 929.210012 228.63317 
L 929.300231 219.430772 
L 929.330304 202.481738 
L 929.420522 44.129431 
L 929.450595 44.432 
L 929.60096 51.522343 
L 929.901688 80.323922 
L 930.773801 193.406367 
L 930.954239 272.786915 
L 931.014384 273.679789 
L 931.07453 273.35689 
L 931.856425 261.99667 
L 932.728538 246.009341 
L 933.360068 231.04675 
L 933.510432 222.124468 
L 933.540505 215.403535 
L 933.660797 45.999731 
L 933.751015 48.909141 
L 933.991598 67.140528 
L 934.95393 173.089994 
L 935.014076 187.857701 
L 935.224586 273.006713 
L 935.254659 273.325619 
L 935.314804 273.026559 
L 935.645606 268.35741 
L 936.487646 253.83024 
L 937.359759 234.863448 
L 937.600342 226.084723 
L 937.660488 219.324519 
L 937.690561 205.562065 
L 937.780779 46.353527 
L 937.810852 46.379232 
L 937.931144 51.564546 
L 938.2018 74.695965 
L 939.164131 189.435853 
L 939.344569 272.820606 
L 939.404714 274.107335 
L 939.46486 273.867305 
L 940.006172 265.987218 
L 940.878285 250.497663 
L 941.720325 232.017847 
L 941.870689 225.543994 
L 941.930835 217.250892 
L 941.960908 190.448257 
L 942.051127 45.810237 
L 942.081199 46.127024 
L 942.231564 53.414405 
L 942.532292 81.301324 
L 943.434478 190.676117 
L 943.614916 274.078874 
L 943.675061 275.473425 
L 943.735207 275.25517 
L 944.096082 270.542292 
L 945.088486 255.126443 
L 946.261328 233.296993 
L 946.471838 225.863604 
L 946.531984 218.820789 
L 946.562057 201.165277 
L 946.652275 45.268254 
L 946.682348 45.448221 
L 946.832712 52.334217 
L 947.133441 80.224393 
L 948.035627 195.783113 
L 948.185992 273.734766 
L 948.27621 276.925017 
L 948.336356 276.715082 
L 948.69723 272.433421 
L 950.050509 253.948975 
L 951.614298 229.638859 
L 951.73459 224.183108 
L 951.794736 210.963998 
L 951.915027 44.829508 
L 951.9451 45.440953 
L 952.095464 53.246467 
L 952.396193 83.848257 
L 953.238233 201.082261 
L 953.388598 274.719943 
L 953.478816 277.754785 
L 953.538962 277.526849 
L 953.779545 274.946504 
L 955.343334 256.731114 
L 956.846977 240.335349 
L 957.899528 229.35443 
L 958.049892 224.571948 
L 958.110038 217.293548 
L 958.140111 197.461463 
L 958.230329 44.652065 
L 958.260402 44.877151 
L 958.380694 50.279093 
L 958.621276 74.223858 
L 959.463317 190.730183 
L 959.643754 274.846369 
L 959.733973 276.864091 
L 959.764045 276.753495 
L 960.004628 274.280363 
L 962.380385 248.998283 
L 963.312644 241.40686 
L 964.124611 236.545805 
L 964.786214 233.819507 
L 965.237307 232.72283 
L 965.538036 232.466869 
L 965.748546 232.525799 
L 965.989129 232.861763 
L 966.560513 234.208033 
L 969.236999 241.005883 
L 971.462391 247.731135 
L 973.65771 255.036981 
L 975.432009 261.697564 
L 976.995798 268.4438 
L 978.559587 276.225144 
L 980.875198 289.179116 
L 982.288623 296.448381 
L 983.220882 300.170571 
L 984.002776 302.399649 
L 984.634307 303.596061 
L 985.235764 304.300322 
L 985.807148 304.646791 
L 986.408606 304.731459 
L 987.040136 304.600175 
L 987.852103 304.167385 
L 988.814435 303.376931 
L 990.107568 302.000541 
L 991.972086 299.639274 
L 994.167406 296.480415 
L 996.543162 292.651016 
L 1000.001542 286.622846 
L 1003.610286 279.849686 
L 1009.504568 268.837839 
L 1012.481782 263.757522 
L 1014.917684 260.023232 
L 1017.143076 257.007876 
L 1019.428614 254.27853 
L 1025.413115 247.414933 
L 1026.375446 245.725037 
L 1027.03705 244.158296 
L 1027.518215 242.461177 
L 1027.87909 240.332741 
L 1028.149746 237.331827 
L 1028.330183 232.403076 
L 1028.420401 224.674759 
L 1028.450474 216.9421 
L 1028.540693 38.745326 
L 1028.660984 40.184927 
L 1028.811349 46.883339 
L 1029.051932 72.759916 
L 1029.863899 201.322047 
L 1030.014263 272.550118 
L 1030.104482 275.043104 
L 1030.164628 274.742096 
L 1030.675866 268.706541 
L 1031.75849 253.89198 
L 1032.690749 238.055049 
L 1033.02155 229.225372 
L 1033.111769 221.722875 
L 1033.141842 212.364152 
L 1033.262133 44.227964 
L 1033.292206 44.935432 
L 1033.472643 55.061953 
L 1033.803445 89.940882 
L 1034.585339 187.873251 
L 1034.795849 273.385033 
L 1034.825922 273.691544 
L 1034.886068 273.433578 
L 1035.246942 268.59479 
L 1036.088983 254.948965 
L 1036.961096 237.119123 
L 1037.261824 227.849861 
L 1037.352043 218.697805 
L 1037.382116 201.772105 
L 1037.472334 45.985115 
L 1037.502407 46.190427 
L 1037.652772 53.574886 
L 1037.9535 81.859102 
L 1038.825613 183.606971 
L 1039.096269 273.354812 
L 1039.246634 271.655009 
L 1039.968382 260.193852 
L 1040.840496 242.945825 
L 1041.351734 229.776652 
L 1041.472026 221.505241 
L 1041.502099 214.064365 
L 1041.62239 46.214042 
L 1041.682536 47.822867 
L 1041.893046 61.786351 
L 1042.374212 114.756622 
L 1042.975669 183.785579 
L 1043.246325 274.12193 
L 1043.336544 273.305188 
L 1044.058292 262.301202 
L 1044.990551 244.759826 
L 1045.622081 229.494342 
L 1045.742373 220.803642 
L 1045.772446 211.517547 
L 1045.892737 45.843348 
L 1045.92281 46.495452 
L 1046.103247 56.58041 
L 1046.464122 93.220381 
L 1047.276089 199.184632 
L 1047.426454 272.940061 
L 1047.516672 275.474201 
L 1047.576818 275.118379 
L 1048.118129 267.765758 
L 1049.140607 251.226887 
L 1050.163084 231.419437 
L 1050.313449 224.855859 
L 1050.373595 214.126276 
L 1050.493886 45.265893 
L 1050.554032 46.757597 
L 1050.764542 60.265887 
L 1051.185562 107.105137 
L 1051.847165 187.338585 
L 1052.057675 276.215279 
L 1052.117821 276.968591 
L 1052.177967 276.582314 
L 1052.689205 270.334784 
L 1053.982339 252.405635 
L 1055.425836 229.96219 
L 1055.546128 225.086249 
L 1055.606273 216.657129 
L 1055.726565 44.786813 
L 1055.846856 48.701514 
L 1056.087439 68.421008 
L 1057.019698 180.194681 
L 1057.320427 277.733856 
L 1057.380573 277.397008 
L 1058.042176 269.95386 
L 1060.838952 238.743088 
L 1061.711065 229.633214 
L 1061.86143 225.569056 
L 1061.921576 220.635128 
L 1061.951648 213.375227 
L 1062.07194 44.637006 
L 1062.132086 46.143423 
L 1062.312523 58.559282 
L 1062.673397 105.091026 
L 1063.304927 198.934079 
L 1063.455292 273.496969 
L 1063.575583 276.797549 
L 1063.605656 276.627091 
L 1063.966531 272.751445 
L 1066.041558 250.483108 
L 1067.00389 242.286795 
L 1067.815858 237.157312 
L 1068.507533 234.092565 
L 1069.018772 232.706954 
L 1069.319501 232.38358 
L 1069.530011 232.397832 
L 1069.740521 232.637697 
L 1070.161541 233.597549 
L 1071.214092 236.030979 
L 1072.807954 240.249917 
L 1074.9732 246.713871 
L 1077.228665 254.115001 
L 1079.06311 260.887777 
L 1080.656972 267.64775 
L 1082.190688 275.158651 
L 1084.235643 286.491083 
L 1086.040015 296.063184 
L 1086.972274 299.881482 
L 1087.724096 302.165542 
L 1088.355626 303.435099 
L 1088.957083 304.201268 
L 1089.528468 304.586109 
L 1090.129925 304.717541 
L 1090.70131 304.643368 
L 1091.483204 304.295175 
L 1092.38539 303.620347 
L 1093.618378 302.373178 
L 1095.362604 300.230999 
L 1097.587996 297.108657 
L 1099.873534 293.49941 
L 1103.001112 288.113294 
L 1106.609856 281.463967 
L 1114.037855 267.592373 
L 1116.834631 262.918801 
L 1119.240461 259.320059 
L 1121.465853 256.382386 
L 1123.721318 253.749357 
L 1128.77356 248.08066 
L 1129.886256 246.356272 
L 1130.608004 244.893001 
L 1131.149316 243.327895 
L 1131.570336 241.410773 
L 1131.871065 239.067363 
L 1132.081575 235.608169 
L 1132.231939 228.905291 
L 1132.292085 218.611021 
L 1132.322158 188.348786 
L 1132.382304 38.755641 
L 1132.442449 39.119335 
L 1132.562741 41.879324 
L 1132.743178 54.010212 
L 1133.07398 99.109963 
L 1133.70551 196.908857 
L 1133.855874 272.164624 
L 1133.946093 275.000578 
L 1134.006238 274.78501 
L 1134.33704 270.989066 
L 1135.479809 255.770175 
L 1136.442141 239.9327 
L 1136.833088 230.631081 
L 1136.953379 222.441154 
L 1136.983452 214.613545 
L 1137.103744 44.169258 
L 1137.163889 45.840072 
L 1137.3744 59.741175 
L 1137.79542 108.140155 
L 1138.42695 185.849638 
L 1138.667533 273.638717 
L 1138.697606 273.665986 
L 1138.84797 272.026886 
L 1139.780229 257.710787 
L 1140.682415 239.978933 
L 1141.073362 229.415153 
L 1141.193654 219.804471 
L 1141.223727 207.025928 
L 1141.313945 46.099595 
L 1141.344018 46.165336 
L 1141.46431 51.344443 
L 1141.734965 74.70224 
L 1142.667224 182.625798 
L 1142.93788 273.378599 
L 1143.028099 272.53609 
L 1143.629556 263.37568 
L 1144.471596 247.541628 
L 1145.163272 231.018639 
L 1145.313637 222.236007 
L 1145.343709 216.105943 
L 1145.464001 46.173834 
L 1145.584292 50.482825 
L 1145.854948 72.751546 
L 1146.81728 182.208836 
L 1147.087936 274.179208 
L 1147.118009 274.037172 
L 1147.388664 270.425625 
L 1148.260778 256.055541 
L 1149.253182 235.770814 
L 1149.523838 227.072465 
L 1149.614057 215.414719 
L 1149.734348 45.811665 
L 1149.824567 48.552508 
L 1150.06515 66.198121 
L 1151.027481 170.345406 
L 1151.1177 194.280538 
L 1151.298137 274.314779 
L 1151.358283 275.475886 
L 1151.418429 275.202029 
L 1151.929667 268.3144 
L 1152.922072 252.425445 
L 1154.004695 231.639483 
L 1154.15506 225.531729 
L 1154.215205 217.33898 
L 1154.245278 191.333791 
L 1154.335497 45.227406 
L 1154.36557 45.547185 
L 1154.515934 52.663102 
L 1154.816663 80.823018 
L 1155.688776 183.481152 
L 1155.959432 276.920499 
L 1156.019577 276.65783 
L 1156.440597 271.586616 
L 1157.763804 253.421247 
L 1159.29752 229.404481 
L 1159.417811 223.397713 
L 1159.477957 204.428206 
L 1159.568176 44.826391 
L 1159.598248 44.919981 
L 1159.71854 49.815216 
L 1159.959123 70.586065 
L 1160.891382 187.049595 
L 1161.101892 276.912028 
L 1161.162038 277.766622 
L 1161.222183 277.520115 
L 1161.823641 270.79824 
L 1164.861 237.287094 
L 1165.582749 229.725684 
L 1165.733113 225.70579 
L 1165.823332 214.280442 
L 1165.943623 44.571132 
L 1166.033842 47.346947 
L 1166.244352 64.55763 
L 1167.116465 175.49536 
L 1167.176611 197.20479 
L 1167.326975 273.332433 
L 1167.447267 276.79299 
L 1167.47734 276.659027 
L 1167.808141 273.122396 
L 1169.883169 250.841546 
L 1170.875574 242.362632 
L 1171.687541 237.233617 
L 1172.379217 234.139678 
L 1172.890456 232.752804 
L 1173.191184 232.437744 
L 1173.401695 232.471667 
L 1173.642278 232.775005 
L 1174.153516 233.915789 
L 1176.07818 238.579209 
L 1177.942698 243.941688 
L 1180.3786 251.628968 
L 1182.303263 258.418927 
L 1183.957271 265.07065 
L 1185.490987 272.188332 
L 1187.175068 281.151444 
L 1190.03199 296.545393 
L 1190.964249 300.237472 
L 1191.685998 302.287013 
L 1192.347601 303.575389 
L 1192.918985 304.251033 
L 1193.49037 304.59888 
L 1194.1219 304.714378 
L 1194.783503 304.573817 
L 1195.565398 304.161011 
L 1196.437511 303.450971 
L 1197.670498 302.164962 
L 1199.504943 299.896404 
L 1201.369461 297.229316 
L 1204.045946 292.943906 
L 1207.083306 287.726569 
L 1210.752196 280.878717 
L 1217.608809 268.117777 
L 1220.465732 263.283561 
L 1222.811416 259.729441 
L 1225.006735 256.779622 
L 1227.532856 253.796441 
L 1232.915899 247.697294 
L 1233.908304 246.061213 
L 1234.630052 244.482854 
L 1235.141291 242.827993 
L 1235.532238 240.777442 
L 1235.802894 238.218334 
L 1235.983331 234.620986 
L 1236.103623 228.378688 
L 1236.163769 216.615257 
L 1236.253987 38.774356 
L 1236.374279 40.207557 
L 1236.524643 46.952044 
L 1236.765226 72.837257 
L 1237.577193 201.163173 
L 1237.727558 272.552504 
L 1237.817776 275.005133 
L 1237.877922 274.689958 
L 1238.298942 269.795552 
L 1239.441711 254.306648 
L 1240.37397 238.632529 
L 1240.704772 230.301165 
L 1240.825063 221.04641 
L 1240.855136 209.963241 
L 1240.945354 44.162363 
L 1241.0055 45.045157 
L 1241.185937 55.390154 
L 1241.516739 90.385886 
L 1242.298633 188.989616 
L 1242.479071 272.4552 
L 1242.539216 273.663914 
L 1242.599362 273.404621 
L 1243.20082 264.954527 
L 1244.072933 249.766565 
L 1244.854827 232.274538 
L 1245.035264 222.984943 
L 1245.09541 195.19483 
L 1245.185629 45.981927 
L 1245.215702 46.302354 
L 1245.366066 53.841008 
L 1245.666795 82.332443 
L 1246.538908 184.951217 
L 1246.779491 273.286045 
L 1246.809564 273.320593 
L 1246.959928 271.627731 
L 1247.92226 255.711064 
L 1248.824446 236.602348 
L 1249.125174 226.603173 
L 1249.18532 220.850022 
L 1249.215393 212.009824 
L 1249.335684 46.236224 
L 1249.365757 46.87867 
L 1249.546195 57.182842 
L 1249.907069 94.093326 
L 1250.688963 185.751897 
L 1250.929546 274.068899 
L 1250.959619 274.118364 
L 1251.109984 272.428158 
L 1252.01217 258.021052 
L 1253.004574 238.240891 
L 1253.365449 227.937882 
L 1253.455667 219.546982 
L 1253.48574 206.462085 
L 1253.575959 45.895521 
L 1253.606032 45.925226 
L 1253.726323 50.925653 
L 1253.996979 73.67751 
L 1254.959311 185.949953 
L 1255.199894 275.400356 
L 1255.229966 275.536726 
L 1255.260039 275.403867 
L 1255.681059 269.875908 
L 1256.673464 254.333107 
L 1257.816233 232.953051 
L 1257.99667 226.858928 
L 1258.086889 214.109137 
L 1258.20718 45.228633 
L 1258.267326 46.746328 
L 1258.477836 60.258611 
L 1258.898856 107.07572 
L 1259.560459 186.630152 
L 1259.770969 276.164073 
L 1259.831115 276.925329 
L 1259.891261 276.59378 
L 1260.432572 269.955364 
L 1261.725706 251.997018 
L 1263.169203 229.234899 
L 1263.289495 222.669213 
L 1263.349641 194.065418 
L 1263.439859 44.720951 
L 1263.469932 45.022518 
L 1263.620296 52.135815 
L 1263.890952 78.234993 
L 1264.763065 189.620753 
L 1264.943503 275.669963 
L 1265.033721 277.758909 
L 1265.063794 277.670614 
L 1265.304377 275.186074 
L 1268.973267 234.966628 
L 1269.42436 230.05567 
L 1269.574724 226.506907 
L 1269.664943 219.412528 
L 1269.695016 209.002963 
L 1269.815307 44.694973 
L 1269.84538 45.346865 
L 1269.995744 53.941393 
L 1270.2664 85.061319 
L 1271.048295 209.391135 
L 1271.198659 274.275332 
L 1271.288878 276.765327 
L 1271.349023 276.537052 
L 1271.770043 271.943002 
L 1273.995436 248.393627 
L 1274.927694 240.912172 
L 1275.709589 236.289591 
L 1276.371192 233.566995 
L 1276.822285 232.510342 
L 1277.092941 232.294505 
L 1277.303451 232.391391 
L 1277.574107 232.830899 
L 1278.927386 235.965119 
L 1280.280665 239.504004 
L 1282.355693 245.617996 
L 1284.731449 253.293082 
L 1286.595967 260.072621 
L 1288.189829 266.710456 
L 1289.723545 274.077222 
L 1291.648209 284.595448 
L 1293.753309 295.84942 
L 1294.685568 299.699527 
L 1295.467463 302.050799 
L 1296.129066 303.425982 
L 1296.730523 304.199003 
L 1297.301908 304.587784 
L 1297.843219 304.703143 
L 1298.504822 304.612217 
L 1299.286717 304.237584 
L 1300.188903 303.541155 
L 1301.451963 302.241111 
L 1303.256335 300.00781 
L 1305.391509 296.994257 
L 1307.677047 293.357318 
L 1311.225645 287.254682 
L 1314.353224 281.415718 
L 1320.939181 269.072971 
L 1324.006614 263.823835 
L 1326.442516 260.079603 
L 1328.667908 257.05708 
L 1330.923373 254.362028 
L 1336.998093 247.414227 
L 1337.870206 245.918414 
L 1338.561882 244.313408 
L 1339.043048 242.627834 
L 1339.433995 240.406758 
L 1339.704651 237.43952 
L 1339.885088 232.619528 
L 1339.975306 225.249018 
L 1340.035452 187.6578 
L 1340.095598 38.751493 
L 1340.155744 39.121104 
L 1340.276035 41.887617 
L 1340.456472 54.062931 
L 1340.787274 99.149785 
L 1341.418804 197.234646 
L 1341.569168 272.252981 
L 1341.659387 275.032399 
L 1341.719533 274.785511 
L 1342.080407 270.650735 
L 1343.253249 254.93666 
L 1344.215581 238.882617 
L 1344.576455 229.606976 
L 1344.666674 223.260503 
L 1344.696747 217.205289 
L 1344.817038 44.155553 
L 1344.93733 48.364925 
L 1345.177912 67.850943 
L 1346.110171 176.075583 
L 1346.170317 199.925009 
L 1346.320681 271.711319 
L 1346.4109 273.668339 
L 1346.440973 273.525409 
L 1346.681556 270.477683 
L 1347.704033 254.077185 
L 1348.576146 235.991366 
L 1348.846802 226.896574 
L 1348.937021 213.150706 
L 1349.057312 45.999679 
L 1349.087385 46.633315 
L 1349.267822 56.977591 
L 1349.628697 94.343339 
L 1350.410591 191.211088 
L 1350.591029 272.42743 
L 1350.651174 273.410377 
L 1350.71132 273.030289 
L 1351.162413 266.465175 
L 1352.004453 251.451226 
L 1352.846494 232.370927 
L 1353.026931 223.553661 
L 1353.087077 204.7771 
L 1353.177295 46.265565 
L 1353.207368 46.364501 
L 1353.327659 51.566392 
L 1353.628388 77.889559 
L 1354.560647 188.650192 
L 1354.771157 273.783154 
L 1354.831303 274.132029 
L 1354.861376 273.91181 
L 1355.372614 266.530106 
L 1356.244728 251.201585 
L 1357.116841 232.244102 
L 1357.297278 223.61663 
L 1357.357424 205.048961 
L 1357.447642 45.879785 
L 1357.477715 45.941605 
L 1357.598007 51.002979 
L 1357.868662 73.833612 
L 1358.830994 186.926553 
L 1359.041504 274.99116 
L 1359.10165 275.520725 
L 1359.131723 275.373153 
L 1359.492597 270.697054 
L 1360.545148 254.304771 
L 1361.687917 232.932254 
L 1361.868354 226.793019 
L 1361.958572 213.099982 
L 1362.078864 45.247717 
L 1362.108937 45.823773 
L 1362.289374 55.575368 
L 1362.620175 89.139569 
L 1363.432143 187.795201 
L 1363.642653 276.23778 
L 1363.702799 276.934237 
L 1363.762944 276.6493 
L 1364.394475 268.802877 
L 1365.898118 247.619364 
L 1367.040887 229.379663 
L 1367.161178 223.291474 
L 1367.221324 203.697249 
L 1367.311543 44.796428 
L 1367.341616 44.925019 
L 1367.461907 49.88056 
L 1367.70249 70.718699 
L 1368.634749 187.586216 
L 1368.845259 276.880309 
L 1368.905405 277.785059 
L 1368.96555 277.469351 
L 1369.416643 272.480952 
L 1372.724659 236.128714 
L 1373.326116 229.609683 
L 1373.476481 225.418069 
L 1373.536626 220.255682 
L 1373.566699 211.882847 
L 1373.686991 44.628796 
L 1373.717064 45.206359 
L 1373.867428 53.558108 
L 1374.138084 84.393079 
L 1374.919978 202.796734 
L 1375.070343 273.804491 
L 1375.160561 276.755463 
L 1375.220707 276.57618 
L 1375.641727 272.003137 
L 1377.806973 248.986057 
L 1378.739232 241.352204 
L 1379.5512 236.452153 
L 1380.212803 233.664064 
L 1380.663896 232.533108 
L 1380.964625 232.250025 
L 1381.175135 232.332126 
L 1381.44579 232.769874 
L 1382.859215 236.067627 
L 1384.362859 240.047394 
L 1386.528105 246.483934 
L 1388.753497 253.775279 
L 1390.648088 260.751234 
L 1392.24195 267.496733 
L 1393.775666 274.984037 
L 1395.700329 285.618273 
L 1397.59492 295.752733 
L 1398.557252 299.746415 
L 1399.128636 301.520633 
L 1399.128636 301.520633 
" clip-path="url(#pd53cc1a26a)" style="fill: none; stroke: #1f77b4; stroke-width: 1.5; stroke-linecap: square"/>
   </g>
   <g id="patch_9">
    <path d="M 767.63 318.04 
L 767.63 25.44 
" style="fill: none; stroke: #000000; stroke-width: 0.8; stroke-linejoin: miter; stroke-linecap: square"/>
   </g>
   <g id="patch_10">
    <path d="M 1429.2 318.04 
L 1429.2 25.44 
" style="fill: none; stroke: #000000; stroke-width: 0.8; stroke-linejoin: miter; stroke-linecap: square"/>
   </g>
   <g id="patch_11">
    <path d="M 767.63 318.04 
L 1429.2 318.04 
" style="fill: none; stroke: #000000; stroke-width: 0.8; stroke-linejoin: miter; stroke-linecap: square"/>
   </g>
   <g id="patch_12">
    <path d="M 767.63 25.44 
L 1429.2 25.44 
" style="fill: none; stroke: #000000; stroke-width: 0.8; stroke-linejoin: miter; stroke-linecap: square"/>
   </g>
   <g id="text_31">
    <!-- Bursting -->
    <g transform="translate(1073.273125 19.44) scale(0.12 -0.12)">
     <defs>
      <path id="DejaVuSans-42" d="M 1259 2228 
L 1259 519 
L 2272 519 
Q 2781 519 3026 730 
Q 3272 941 3272 1375 
Q 3272 1813 3026 2020 
Q 2781 2228 2272 2228 
L 1259 2228 
z
M 1259 4147 
L 1259 2741 
L 2194 2741 
Q 2656 2741 2882 2914 
Q 3109 3088 3109 3444 
Q 3109 3797 2882 3972 
Q 2656 4147 2194 4147 
L 1259 4147 
z
M 628 4666 
L 2241 4666 
Q 2963 4666 3353 4366 
Q 3744 4066 3744 3513 
Q 3744 3084 3544 2831 
Q 3344 2578 2956 2516 
Q 3422 2416 3680 2098 
Q 3938 1781 3938 1306 
Q 3938 681 3513 340 
Q 3088 0 2303 0 
L 628 0 
L 628 4666 
z
" transform="scale(0.015625)"/>
      <path id="DejaVuSans-75" d="M 544 1381 
L 544 3500 
L 1119 3500 
L 1119 1403 
Q 1119 906 1312 657 
Q 1506 409 1894 409 
Q 2359 409 2629 706 
Q 2900 1003 2900 1516 
L 2900 3500 
L 3475 3500 
L 3475 0 
L 2900 0 
L 2900 538 
Q 2691 219 2414 64 
Q 2138 -91 1772 -91 
Q 1169 -91 856 284 
Q 544 659 544 1381 
z
M 1991 3584 
L 1991 3584 
z
" transform="scale(0.015625)"/>
      <path id="DejaVuSans-72" d="M 2631 2963 
Q 2534 3019 2420 3045 
Q 2306 3072 2169 3072 
Q 1681 3072 1420 2755 
Q 1159 2438 1159 1844 
L 1159 0 
L 581 0 
L 581 3500 
L 1159 3500 
L 1159 2956 
Q 1341 3275 1631 3429 
Q 1922 3584 2338 3584 
Q 2397 3584 2469 3576 
Q 2541 3569 2628 3553 
L 2631 2963 
z
" transform="scale(0.015625)"/>
     </defs>
     <use xlink:href="#DejaVuSans-42"/>
     <use xlink:href="#DejaVuSans-75" transform="translate(68.603516 0)"/>
     <use xlink:href="#DejaVuSans-72" transform="translate(131.982422 0)"/>
     <use xlink:href="#DejaVuSans-73" transform="translate(173.095703 0)"/>
     <use xlink:href="#DejaVuSans-74" transform="translate(225.195312 0)"/>
     <use xlink:href="#DejaVuSans-69" transform="translate(264.404297 0)"/>
     <use xlink:href="#DejaVuSans-6e" transform="translate(292.1875 0)"/>
     <use xlink:href="#DejaVuSans-67" transform="translate(355.566406 0)"/>
    </g>
   </g>
   <g id="legend_2">
    <g id="patch_13">
     <path d="M 1383.359375 48.118125 
L 1422.2 48.118125 
Q 1424.2 48.118125 1424.2 46.118125 
L 1424.2 32.44 
Q 1424.2 30.44 1422.2 30.44 
L 1383.359375 30.44 
Q 1381.359375 30.44 1381.359375 32.44 
L 1381.359375 46.118125 
Q 1381.359375 48.118125 1383.359375 48.118125 
z
" style="fill: #ffffff; opacity: 0.8; stroke: #cccccc; stroke-linejoin: miter"/>
    </g>
    <g id="line2d_28">
     <path d="M 1385.359375 38.538438 
L 1395.359375 38.538438 
L 1405.359375 38.538438 
" style="fill: none; stroke: #1f77b4; stroke-width: 1.5; stroke-linecap: square"/>
    </g>
    <g id="text_32">
     <!-- V -->
     <g transform="translate(1413.359375 42.038438) scale(0.1 -0.1)">
      <use xlink:href="#DejaVuSans-56"/>
     </g>
    </g>
   </g>
  </g>
 </g>
 <defs>
  <clipPath id="pfc03487595">
   <rect x="53.03" y="25.44" width="661.57" height="292.6"/>
  </clipPath>
  <clipPath id="pd53cc1a26a">
   <rect x="767.63" y="25.44" width="661.57" height="292.6"/>
  </clipPath>
 </defs>
</svg>
