<?xml version="1.0" encoding="utf-8" standalone="no"?>
<!DOCTYPE svg PUBLIC "-//W3C//DTD SVG 1.1//EN"
  "http://www.w3.org/Graphics/SVG/1.1/DTD/svg11.dtd">
<svg xmlns:xlink="http://www.w3.org/1999/xlink" width="1440pt" height="576pt" viewBox="0 0 1440 576" xmlns="http://www.w3.org/2000/svg" version="1.1">
 <metadata>
  <rdf:RDF xmlns:dc="http://purl.org/dc/elements/1.1/" xmlns:cc="http://creativecommons.org/ns#" xmlns:rdf="http://www.w3.org/1999/02/22-rdf-syntax-ns#">
   <cc:Work>
    <dc:type rdf:resource="http://purl.org/dc/dcmitype/StillImage"/>
    <dc:date>2025-03-26T16:32:30.226311</dc:date>
    <dc:format>image/svg+xml</dc:format>
    <dc:creator>
     <cc:Agent>
      <dc:title>Matplotlib v3.10.0, https://matplotlib.org/</dc:title>
     </cc:Agent>
    </dc:creator>
   </cc:Work>
  </rdf:RDF>
 </metadata>
 <defs>
  <style type="text/css">*{stroke-linejoin: round; stroke-linecap: butt}</style>
 </defs>
 <g id="figure_1">
  <g id="patch_1">
   <path d="M 0 576 
L 1440 576 
L 1440 0 
L 0 0 
z
" style="fill: #ffffff"/>
  </g>
  <g id="axes_1">
   <g id="patch_2">
    <path d="M 59.52125 251.113184 
L 714.6 251.113184 
L 714.6 13.548479 
L 59.52125 13.548479 
z
" style="fill: #ffffff"/>
   </g>
   <g id="matplotlib.axis_1">
    <g id="xtick_1">
     <g id="line2d_1">
      <defs>
       <path id="mc642ee41e1" d="M 0 0 
L 0 3.5 
" style="stroke: #000000; stroke-width: 0.8"/>
      </defs>
      <g>
       <use xlink:href="#mc642ee41e1" x="125.029125" y="251.113184" style="stroke: #000000; stroke-width: 0.8"/>
      </g>
     </g>
     <g id="text_1">
      <!-- −54 -->
      <g transform="translate(114.476781 265.711621) scale(0.1 -0.1)">
       <defs>
        <path id="DejaVuSans-2212" d="M 678 2272 
L 4684 2272 
L 4684 1741 
L 678 1741 
L 678 2272 
z
" transform="scale(0.015625)"/>
        <path id="DejaVuSans-35" d="M 691 4666 
L 3169 4666 
L 3169 4134 
L 1269 4134 
L 1269 2991 
Q 1406 3038 1543 3061 
Q 1681 3084 1819 3084 
Q 2600 3084 3056 2656 
Q 3513 2228 3513 1497 
Q 3513 744 3044 326 
Q 2575 -91 1722 -91 
Q 1428 -91 1123 -41 
Q 819 9 494 109 
L 494 744 
Q 775 591 1075 516 
Q 1375 441 1709 441 
Q 2250 441 2565 725 
Q 2881 1009 2881 1497 
Q 2881 1984 2565 2268 
Q 2250 2553 1709 2553 
Q 1456 2553 1204 2497 
Q 953 2441 691 2322 
L 691 4666 
z
" transform="scale(0.015625)"/>
        <path id="DejaVuSans-34" d="M 2419 4116 
L 825 1625 
L 2419 1625 
L 2419 4116 
z
M 2253 4666 
L 3047 4666 
L 3047 1625 
L 3713 1625 
L 3713 1100 
L 3047 1100 
L 3047 0 
L 2419 0 
L 2419 1100 
L 313 1100 
L 313 1709 
L 2253 4666 
z
" transform="scale(0.015625)"/>
       </defs>
       <use xlink:href="#DejaVuSans-2212"/>
       <use xlink:href="#DejaVuSans-35" transform="translate(83.789062 0)"/>
       <use xlink:href="#DejaVuSans-34" transform="translate(147.412109 0)"/>
      </g>
     </g>
    </g>
    <g id="xtick_2">
     <g id="line2d_2">
      <g>
       <use xlink:href="#mc642ee41e1" x="256.044875" y="251.113184" style="stroke: #000000; stroke-width: 0.8"/>
      </g>
     </g>
     <g id="text_2">
      <!-- −52 -->
      <g transform="translate(245.492531 265.711621) scale(0.1 -0.1)">
       <defs>
        <path id="DejaVuSans-32" d="M 1228 531 
L 3431 531 
L 3431 0 
L 469 0 
L 469 531 
Q 828 903 1448 1529 
Q 2069 2156 2228 2338 
Q 2531 2678 2651 2914 
Q 2772 3150 2772 3378 
Q 2772 3750 2511 3984 
Q 2250 4219 1831 4219 
Q 1534 4219 1204 4116 
Q 875 4013 500 3803 
L 500 4441 
Q 881 4594 1212 4672 
Q 1544 4750 1819 4750 
Q 2544 4750 2975 4387 
Q 3406 4025 3406 3419 
Q 3406 3131 3298 2873 
Q 3191 2616 2906 2266 
Q 2828 2175 2409 1742 
Q 1991 1309 1228 531 
z
" transform="scale(0.015625)"/>
       </defs>
       <use xlink:href="#DejaVuSans-2212"/>
       <use xlink:href="#DejaVuSans-35" transform="translate(83.789062 0)"/>
       <use xlink:href="#DejaVuSans-32" transform="translate(147.412109 0)"/>
      </g>
     </g>
    </g>
    <g id="xtick_3">
     <g id="line2d_3">
      <g>
       <use xlink:href="#mc642ee41e1" x="387.060625" y="251.113184" style="stroke: #000000; stroke-width: 0.8"/>
      </g>
     </g>
     <g id="text_3">
      <!-- −50 -->
      <g transform="translate(376.508281 265.711621) scale(0.1 -0.1)">
       <defs>
        <path id="DejaVuSans-30" d="M 2034 4250 
Q 1547 4250 1301 3770 
Q 1056 3291 1056 2328 
Q 1056 1369 1301 889 
Q 1547 409 2034 409 
Q 2525 409 2770 889 
Q 3016 1369 3016 2328 
Q 3016 3291 2770 3770 
Q 2525 4250 2034 4250 
z
M 2034 4750 
Q 2819 4750 3233 4129 
Q 3647 3509 3647 2328 
Q 3647 1150 3233 529 
Q 2819 -91 2034 -91 
Q 1250 -91 836 529 
Q 422 1150 422 2328 
Q 422 3509 836 4129 
Q 1250 4750 2034 4750 
z
" transform="scale(0.015625)"/>
       </defs>
       <use xlink:href="#DejaVuSans-2212"/>
       <use xlink:href="#DejaVuSans-35" transform="translate(83.789062 0)"/>
       <use xlink:href="#DejaVuSans-30" transform="translate(147.412109 0)"/>
      </g>
     </g>
    </g>
    <g id="xtick_4">
     <g id="line2d_4">
      <g>
       <use xlink:href="#mc642ee41e1" x="518.076375" y="251.113184" style="stroke: #000000; stroke-width: 0.8"/>
      </g>
     </g>
     <g id="text_4">
      <!-- −48 -->
      <g transform="translate(507.524031 265.711621) scale(0.1 -0.1)">
       <defs>
        <path id="DejaVuSans-38" d="M 2034 2216 
Q 1584 2216 1326 1975 
Q 1069 1734 1069 1313 
Q 1069 891 1326 650 
Q 1584 409 2034 409 
Q 2484 409 2743 651 
Q 3003 894 3003 1313 
Q 3003 1734 2745 1975 
Q 2488 2216 2034 2216 
z
M 1403 2484 
Q 997 2584 770 2862 
Q 544 3141 544 3541 
Q 544 4100 942 4425 
Q 1341 4750 2034 4750 
Q 2731 4750 3128 4425 
Q 3525 4100 3525 3541 
Q 3525 3141 3298 2862 
Q 3072 2584 2669 2484 
Q 3125 2378 3379 2068 
Q 3634 1759 3634 1313 
Q 3634 634 3220 271 
Q 2806 -91 2034 -91 
Q 1263 -91 848 271 
Q 434 634 434 1313 
Q 434 1759 690 2068 
Q 947 2378 1403 2484 
z
M 1172 3481 
Q 1172 3119 1398 2916 
Q 1625 2713 2034 2713 
Q 2441 2713 2670 2916 
Q 2900 3119 2900 3481 
Q 2900 3844 2670 4047 
Q 2441 4250 2034 4250 
Q 1625 4250 1398 4047 
Q 1172 3844 1172 3481 
z
" transform="scale(0.015625)"/>
       </defs>
       <use xlink:href="#DejaVuSans-2212"/>
       <use xlink:href="#DejaVuSans-34" transform="translate(83.789062 0)"/>
       <use xlink:href="#DejaVuSans-38" transform="translate(147.412109 0)"/>
      </g>
     </g>
    </g>
    <g id="xtick_5">
     <g id="line2d_5">
      <g>
       <use xlink:href="#mc642ee41e1" x="649.092125" y="251.113184" style="stroke: #000000; stroke-width: 0.8"/>
      </g>
     </g>
     <g id="text_5">
      <!-- −46 -->
      <g transform="translate(638.539781 265.711621) scale(0.1 -0.1)">
       <defs>
        <path id="DejaVuSans-36" d="M 2113 2584 
Q 1688 2584 1439 2293 
Q 1191 2003 1191 1497 
Q 1191 994 1439 701 
Q 1688 409 2113 409 
Q 2538 409 2786 701 
Q 3034 994 3034 1497 
Q 3034 2003 2786 2293 
Q 2538 2584 2113 2584 
z
M 3366 4563 
L 3366 3988 
Q 3128 4100 2886 4159 
Q 2644 4219 2406 4219 
Q 1781 4219 1451 3797 
Q 1122 3375 1075 2522 
Q 1259 2794 1537 2939 
Q 1816 3084 2150 3084 
Q 2853 3084 3261 2657 
Q 3669 2231 3669 1497 
Q 3669 778 3244 343 
Q 2819 -91 2113 -91 
Q 1303 -91 875 529 
Q 447 1150 447 2328 
Q 447 3434 972 4092 
Q 1497 4750 2381 4750 
Q 2619 4750 2861 4703 
Q 3103 4656 3366 4563 
z
" transform="scale(0.015625)"/>
       </defs>
       <use xlink:href="#DejaVuSans-2212"/>
       <use xlink:href="#DejaVuSans-34" transform="translate(83.789062 0)"/>
       <use xlink:href="#DejaVuSans-36" transform="translate(147.412109 0)"/>
      </g>
     </g>
    </g>
    <g id="text_6">
     <!-- V (mV) -->
     <g transform="translate(369.859062 279.389746) scale(0.1 -0.1)">
      <defs>
       <path id="DejaVuSans-56" d="M 1831 0 
L 50 4666 
L 709 4666 
L 2188 738 
L 3669 4666 
L 4325 4666 
L 2547 0 
L 1831 0 
z
" transform="scale(0.015625)"/>
       <path id="DejaVuSans-20" transform="scale(0.015625)"/>
       <path id="DejaVuSans-28" d="M 1984 4856 
Q 1566 4138 1362 3434 
Q 1159 2731 1159 2009 
Q 1159 1288 1364 580 
Q 1569 -128 1984 -844 
L 1484 -844 
Q 1016 -109 783 600 
Q 550 1309 550 2009 
Q 550 2706 781 3412 
Q 1013 4119 1484 4856 
L 1984 4856 
z
" transform="scale(0.015625)"/>
       <path id="DejaVuSans-6d" d="M 3328 2828 
Q 3544 3216 3844 3400 
Q 4144 3584 4550 3584 
Q 5097 3584 5394 3201 
Q 5691 2819 5691 2113 
L 5691 0 
L 5113 0 
L 5113 2094 
Q 5113 2597 4934 2840 
Q 4756 3084 4391 3084 
Q 3944 3084 3684 2787 
Q 3425 2491 3425 1978 
L 3425 0 
L 2847 0 
L 2847 2094 
Q 2847 2600 2669 2842 
Q 2491 3084 2119 3084 
Q 1678 3084 1418 2786 
Q 1159 2488 1159 1978 
L 1159 0 
L 581 0 
L 581 3500 
L 1159 3500 
L 1159 2956 
Q 1356 3278 1631 3431 
Q 1906 3584 2284 3584 
Q 2666 3584 2933 3390 
Q 3200 3197 3328 2828 
z
" transform="scale(0.015625)"/>
       <path id="DejaVuSans-29" d="M 513 4856 
L 1013 4856 
Q 1481 4119 1714 3412 
Q 1947 2706 1947 2009 
Q 1947 1309 1714 600 
Q 1481 -109 1013 -844 
L 513 -844 
Q 928 -128 1133 580 
Q 1338 1288 1338 2009 
Q 1338 2731 1133 3434 
Q 928 4138 513 4856 
z
" transform="scale(0.015625)"/>
      </defs>
      <use xlink:href="#DejaVuSans-56"/>
      <use xlink:href="#DejaVuSans-20" transform="translate(68.408203 0)"/>
      <use xlink:href="#DejaVuSans-28" transform="translate(100.195312 0)"/>
      <use xlink:href="#DejaVuSans-6d" transform="translate(139.208984 0)"/>
      <use xlink:href="#DejaVuSans-56" transform="translate(236.621094 0)"/>
      <use xlink:href="#DejaVuSans-29" transform="translate(305.029297 0)"/>
     </g>
    </g>
   </g>
   <g id="matplotlib.axis_2">
    <g id="ytick_1">
     <g id="line2d_6">
      <defs>
       <path id="ma233775d14" d="M 0 0 
L -3.5 0 
" style="stroke: #000000; stroke-width: 0.8"/>
      </defs>
      <g>
       <use xlink:href="#ma233775d14" x="59.52125" y="234.653608" style="stroke: #000000; stroke-width: 0.8"/>
      </g>
     </g>
     <g id="text_7">
      <!-- −140 -->
      <g transform="translate(25.054062 238.452826) scale(0.1 -0.1)">
       <defs>
        <path id="DejaVuSans-31" d="M 794 531 
L 1825 531 
L 1825 4091 
L 703 3866 
L 703 4441 
L 1819 4666 
L 2450 4666 
L 2450 531 
L 3481 531 
L 3481 0 
L 794 0 
L 794 531 
z
" transform="scale(0.015625)"/>
       </defs>
       <use xlink:href="#DejaVuSans-2212"/>
       <use xlink:href="#DejaVuSans-31" transform="translate(83.789062 0)"/>
       <use xlink:href="#DejaVuSans-34" transform="translate(147.412109 0)"/>
       <use xlink:href="#DejaVuSans-30" transform="translate(211.035156 0)"/>
      </g>
     </g>
    </g>
    <g id="ytick_2">
     <g id="line2d_7">
      <g>
       <use xlink:href="#ma233775d14" x="59.52125" y="205.275627" style="stroke: #000000; stroke-width: 0.8"/>
      </g>
     </g>
     <g id="text_8">
      <!-- −120 -->
      <g transform="translate(25.054062 209.074846) scale(0.1 -0.1)">
       <use xlink:href="#DejaVuSans-2212"/>
       <use xlink:href="#DejaVuSans-31" transform="translate(83.789062 0)"/>
       <use xlink:href="#DejaVuSans-32" transform="translate(147.412109 0)"/>
       <use xlink:href="#DejaVuSans-30" transform="translate(211.035156 0)"/>
      </g>
     </g>
    </g>
    <g id="ytick_3">
     <g id="line2d_8">
      <g>
       <use xlink:href="#ma233775d14" x="59.52125" y="175.897647" style="stroke: #000000; stroke-width: 0.8"/>
      </g>
     </g>
     <g id="text_9">
      <!-- −100 -->
      <g transform="translate(25.054062 179.696865) scale(0.1 -0.1)">
       <use xlink:href="#DejaVuSans-2212"/>
       <use xlink:href="#DejaVuSans-31" transform="translate(83.789062 0)"/>
       <use xlink:href="#DejaVuSans-30" transform="translate(147.412109 0)"/>
       <use xlink:href="#DejaVuSans-30" transform="translate(211.035156 0)"/>
      </g>
     </g>
    </g>
    <g id="ytick_4">
     <g id="line2d_9">
      <g>
       <use xlink:href="#ma233775d14" x="59.52125" y="146.519666" style="stroke: #000000; stroke-width: 0.8"/>
      </g>
     </g>
     <g id="text_10">
      <!-- −80 -->
      <g transform="translate(31.416562 150.318885) scale(0.1 -0.1)">
       <use xlink:href="#DejaVuSans-2212"/>
       <use xlink:href="#DejaVuSans-38" transform="translate(83.789062 0)"/>
       <use xlink:href="#DejaVuSans-30" transform="translate(147.412109 0)"/>
      </g>
     </g>
    </g>
    <g id="ytick_5">
     <g id="line2d_10">
      <g>
       <use xlink:href="#ma233775d14" x="59.52125" y="117.141686" style="stroke: #000000; stroke-width: 0.8"/>
      </g>
     </g>
     <g id="text_11">
      <!-- −60 -->
      <g transform="translate(31.416562 120.940905) scale(0.1 -0.1)">
       <use xlink:href="#DejaVuSans-2212"/>
       <use xlink:href="#DejaVuSans-36" transform="translate(83.789062 0)"/>
       <use xlink:href="#DejaVuSans-30" transform="translate(147.412109 0)"/>
      </g>
     </g>
    </g>
    <g id="ytick_6">
     <g id="line2d_11">
      <g>
       <use xlink:href="#ma233775d14" x="59.52125" y="87.763705" style="stroke: #000000; stroke-width: 0.8"/>
      </g>
     </g>
     <g id="text_12">
      <!-- −40 -->
      <g transform="translate(31.416562 91.562924) scale(0.1 -0.1)">
       <use xlink:href="#DejaVuSans-2212"/>
       <use xlink:href="#DejaVuSans-34" transform="translate(83.789062 0)"/>
       <use xlink:href="#DejaVuSans-30" transform="translate(147.412109 0)"/>
      </g>
     </g>
    </g>
    <g id="ytick_7">
     <g id="line2d_12">
      <g>
       <use xlink:href="#ma233775d14" x="59.52125" y="58.385725" style="stroke: #000000; stroke-width: 0.8"/>
      </g>
     </g>
     <g id="text_13">
      <!-- −20 -->
      <g transform="translate(31.416562 62.184944) scale(0.1 -0.1)">
       <use xlink:href="#DejaVuSans-2212"/>
       <use xlink:href="#DejaVuSans-32" transform="translate(83.789062 0)"/>
       <use xlink:href="#DejaVuSans-30" transform="translate(147.412109 0)"/>
      </g>
     </g>
    </g>
    <g id="ytick_8">
     <g id="line2d_13">
      <g>
       <use xlink:href="#ma233775d14" x="59.52125" y="29.007744" style="stroke: #000000; stroke-width: 0.8"/>
      </g>
     </g>
     <g id="text_14">
      <!-- 0 -->
      <g transform="translate(46.15875 32.806963) scale(0.1 -0.1)">
       <use xlink:href="#DejaVuSans-30"/>
      </g>
     </g>
    </g>
    <g id="text_15">
     <!-- g_f (mS/cm^2) -->
     <g transform="translate(18.69625 169.975363) rotate(-90) scale(0.1 -0.1)">
      <defs>
       <path id="DejaVuSans-67" d="M 2906 1791 
Q 2906 2416 2648 2759 
Q 2391 3103 1925 3103 
Q 1463 3103 1205 2759 
Q 947 2416 947 1791 
Q 947 1169 1205 825 
Q 1463 481 1925 481 
Q 2391 481 2648 825 
Q 2906 1169 2906 1791 
z
M 3481 434 
Q 3481 -459 3084 -895 
Q 2688 -1331 1869 -1331 
Q 1566 -1331 1297 -1286 
Q 1028 -1241 775 -1147 
L 775 -588 
Q 1028 -725 1275 -790 
Q 1522 -856 1778 -856 
Q 2344 -856 2625 -561 
Q 2906 -266 2906 331 
L 2906 616 
Q 2728 306 2450 153 
Q 2172 0 1784 0 
Q 1141 0 747 490 
Q 353 981 353 1791 
Q 353 2603 747 3093 
Q 1141 3584 1784 3584 
Q 2172 3584 2450 3431 
Q 2728 3278 2906 2969 
L 2906 3500 
L 3481 3500 
L 3481 434 
z
" transform="scale(0.015625)"/>
       <path id="DejaVuSans-5f" d="M 3263 -1063 
L 3263 -1509 
L -63 -1509 
L -63 -1063 
L 3263 -1063 
z
" transform="scale(0.015625)"/>
       <path id="DejaVuSans-66" d="M 2375 4863 
L 2375 4384 
L 1825 4384 
Q 1516 4384 1395 4259 
Q 1275 4134 1275 3809 
L 1275 3500 
L 2222 3500 
L 2222 3053 
L 1275 3053 
L 1275 0 
L 697 0 
L 697 3053 
L 147 3053 
L 147 3500 
L 697 3500 
L 697 3744 
Q 697 4328 969 4595 
Q 1241 4863 1831 4863 
L 2375 4863 
z
" transform="scale(0.015625)"/>
       <path id="DejaVuSans-53" d="M 3425 4513 
L 3425 3897 
Q 3066 4069 2747 4153 
Q 2428 4238 2131 4238 
Q 1616 4238 1336 4038 
Q 1056 3838 1056 3469 
Q 1056 3159 1242 3001 
Q 1428 2844 1947 2747 
L 2328 2669 
Q 3034 2534 3370 2195 
Q 3706 1856 3706 1288 
Q 3706 609 3251 259 
Q 2797 -91 1919 -91 
Q 1588 -91 1214 -16 
Q 841 59 441 206 
L 441 856 
Q 825 641 1194 531 
Q 1563 422 1919 422 
Q 2459 422 2753 634 
Q 3047 847 3047 1241 
Q 3047 1584 2836 1778 
Q 2625 1972 2144 2069 
L 1759 2144 
Q 1053 2284 737 2584 
Q 422 2884 422 3419 
Q 422 4038 858 4394 
Q 1294 4750 2059 4750 
Q 2388 4750 2728 4690 
Q 3069 4631 3425 4513 
z
" transform="scale(0.015625)"/>
       <path id="DejaVuSans-2f" d="M 1625 4666 
L 2156 4666 
L 531 -594 
L 0 -594 
L 1625 4666 
z
" transform="scale(0.015625)"/>
       <path id="DejaVuSans-63" d="M 3122 3366 
L 3122 2828 
Q 2878 2963 2633 3030 
Q 2388 3097 2138 3097 
Q 1578 3097 1268 2742 
Q 959 2388 959 1747 
Q 959 1106 1268 751 
Q 1578 397 2138 397 
Q 2388 397 2633 464 
Q 2878 531 3122 666 
L 3122 134 
Q 2881 22 2623 -34 
Q 2366 -91 2075 -91 
Q 1284 -91 818 406 
Q 353 903 353 1747 
Q 353 2603 823 3093 
Q 1294 3584 2113 3584 
Q 2378 3584 2631 3529 
Q 2884 3475 3122 3366 
z
" transform="scale(0.015625)"/>
       <path id="DejaVuSans-5e" d="M 2988 4666 
L 4684 2925 
L 4056 2925 
L 2681 4159 
L 1306 2925 
L 678 2925 
L 2375 4666 
L 2988 4666 
z
" transform="scale(0.015625)"/>
      </defs>
      <use xlink:href="#DejaVuSans-67"/>
      <use xlink:href="#DejaVuSans-5f" transform="translate(63.476562 0)"/>
      <use xlink:href="#DejaVuSans-66" transform="translate(113.476562 0)"/>
      <use xlink:href="#DejaVuSans-20" transform="translate(148.681641 0)"/>
      <use xlink:href="#DejaVuSans-28" transform="translate(180.46875 0)"/>
      <use xlink:href="#DejaVuSans-6d" transform="translate(219.482422 0)"/>
      <use xlink:href="#DejaVuSans-53" transform="translate(316.894531 0)"/>
      <use xlink:href="#DejaVuSans-2f" transform="translate(380.371094 0)"/>
      <use xlink:href="#DejaVuSans-63" transform="translate(414.0625 0)"/>
      <use xlink:href="#DejaVuSans-6d" transform="translate(469.042969 0)"/>
      <use xlink:href="#DejaVuSans-5e" transform="translate(566.455078 0)"/>
      <use xlink:href="#DejaVuSans-32" transform="translate(650.244141 0)"/>
      <use xlink:href="#DejaVuSans-29" transform="translate(713.867188 0)"/>
     </g>
    </g>
   </g>
   <g id="line2d_14">
    <path d="M 59.52125 24.346875 
L 103.45546 25.379097 
L 140.176592 26.461848 
L 171.651847 27.607699 
L 199.84843 28.854159 
L 225.422075 30.207656 
L 248.372782 31.640251 
L 270.01202 33.214234 
L 289.684054 34.863651 
L 308.04462 36.618452 
L 325.749451 38.533948 
L 342.142813 40.527357 
L 357.88044 42.662918 
L 372.962334 44.93553 
L 387.388492 47.337514 
L 401.158916 49.858553 
L 414.273606 52.485683 
L 426.732561 55.203346 
L 439.191517 58.154964 
L 450.994737 61.183996 
L 462.142223 64.268294 
L 473.28971 67.585306 
L 483.781461 70.9343 
L 494.273213 74.518139 
L 504.10923 78.104758 
L 513.945248 81.924312 
L 523.781265 85.990708 
L 532.961548 90.021627 
L 542.141831 94.292841 
L 551.322113 98.81748 
L 559.846662 103.257875 
L 568.37121 107.940186 
L 576.895758 112.876467 
L 585.420307 118.079303 
L 593.28912 123.129862 
L 601.157934 128.429504 
L 609.026748 133.989431 
L 616.895562 139.821289 
L 624.764376 145.937189 
L 632.633189 152.349716 
L 640.502003 159.071949 
L 647.715083 165.517659 
L 654.928162 172.245873 
L 662.141241 179.267825 
L 669.354321 186.595143 
L 676.5674 194.239857 
L 683.780479 202.214414 
L 690.993559 210.531688 
L 698.206638 219.20499 
L 705.419717 228.248082 
L 712.632797 237.67519 
L 714.6 240.314788 
L 714.6 240.314788 
" clip-path="url(#pe3861eef80)" style="fill: none; stroke: #1f77b4; stroke-width: 1.5; stroke-linecap: square"/>
   </g>
   <g id="line2d_15">
    <path d="M 59.52125 25.297258 
L 104.766929 26.339659 
L 142.143795 27.414506 
L 174.930519 28.574733 
L 203.782837 29.812375 
L 230.012216 31.156193 
L 253.618657 32.580748 
L 275.91363 34.147804 
L 296.241399 35.79513 
L 315.257699 37.553116 
L 332.96253 39.403924 
L 350.011627 41.405755 
L 366.404989 43.557625 
L 381.486882 45.755511 
L 395.913041 48.073513 
L 409.683465 50.50163 
L 423.453889 53.159467 
L 436.568579 55.923042 
L 449.027534 58.775988 
L 460.830755 61.699449 
L 472.633975 64.853831 
L 483.781461 68.0603 
L 494.928948 71.503111 
L 505.420699 74.97376 
L 515.912451 78.682335 
L 525.748468 82.388607 
L 535.584486 86.33034 
L 545.420503 90.521327 
L 554.600786 94.670586 
L 563.781069 99.061993 
L 572.961351 103.708528 
L 581.4859 108.263491 
L 590.010448 113.061544 
L 598.534996 118.11457 
L 607.059545 123.434965 
L 615.584093 129.035661 
L 623.452907 134.465976 
L 631.32172 140.157652 
L 639.190534 146.122157 
L 647.059348 152.371405 
L 654.928162 158.917769 
L 662.796976 165.774091 
L 670.010055 172.342722 
L 677.223134 179.193642 
L 684.436214 186.337856 
L 691.649293 193.786743 
L 698.862372 201.552069 
L 706.075452 209.645995 
L 713.288531 218.081088 
L 714.6 219.652404 
L 714.6 219.652404 
" clip-path="url(#pe3861eef80)" style="fill: none; stroke-dasharray: 5.55,2.4; stroke-dashoffset: 0; stroke: #ff7f0e; stroke-width: 1.5"/>
   </g>
   <g id="line2d_16">
    <path d="M 59.52125 29.007744 
L 714.6 29.007744 
" clip-path="url(#pe3861eef80)" style="fill: none; stroke: #000000; stroke-width: 0.5; stroke-linecap: square"/>
   </g>
   <g id="patch_3">
    <path d="M 59.52125 251.113184 
L 59.52125 13.548479 
" style="fill: none; stroke: #000000; stroke-width: 0.8; stroke-linejoin: miter; stroke-linecap: square"/>
   </g>
   <g id="patch_4">
    <path d="M 714.6 251.113184 
L 714.6 13.548479 
" style="fill: none; stroke: #000000; stroke-width: 0.8; stroke-linejoin: miter; stroke-linecap: square"/>
   </g>
   <g id="patch_5">
    <path d="M 59.52125 251.113184 
L 714.6 251.113184 
" style="fill: none; stroke: #000000; stroke-width: 0.8; stroke-linejoin: miter; stroke-linecap: square"/>
   </g>
   <g id="patch_6">
    <path d="M 59.52125 13.548479 
L 714.6 13.548479 
" style="fill: none; stroke: #000000; stroke-width: 0.8; stroke-linejoin: miter; stroke-linecap: square"/>
   </g>
   <g id="legend_1">
    <g id="patch_7">
     <path d="M 66.52125 246.113184 
L 165.761875 246.113184 
Q 167.761875 246.113184 167.761875 244.113184 
L 167.761875 215.200684 
Q 167.761875 213.200684 165.761875 213.200684 
L 66.52125 213.200684 
Q 64.52125 213.200684 64.52125 215.200684 
L 64.52125 244.113184 
Q 64.52125 246.113184 66.52125 246.113184 
z
" style="fill: #ffffff; opacity: 0.8; stroke: #cccccc; stroke-linejoin: miter"/>
    </g>
    <g id="line2d_17">
     <path d="M 68.52125 221.299121 
L 78.52125 221.299121 
L 88.52125 221.299121 
" style="fill: none; stroke: #1f77b4; stroke-width: 1.5; stroke-linecap: square"/>
    </g>
    <g id="text_16">
     <!-- g_f (spiking) -->
     <g transform="translate(96.52125 224.799121) scale(0.1 -0.1)">
      <defs>
       <path id="DejaVuSans-73" d="M 2834 3397 
L 2834 2853 
Q 2591 2978 2328 3040 
Q 2066 3103 1784 3103 
Q 1356 3103 1142 2972 
Q 928 2841 928 2578 
Q 928 2378 1081 2264 
Q 1234 2150 1697 2047 
L 1894 2003 
Q 2506 1872 2764 1633 
Q 3022 1394 3022 966 
Q 3022 478 2636 193 
Q 2250 -91 1575 -91 
Q 1294 -91 989 -36 
Q 684 19 347 128 
L 347 722 
Q 666 556 975 473 
Q 1284 391 1588 391 
Q 1994 391 2212 530 
Q 2431 669 2431 922 
Q 2431 1156 2273 1281 
Q 2116 1406 1581 1522 
L 1381 1569 
Q 847 1681 609 1914 
Q 372 2147 372 2553 
Q 372 3047 722 3315 
Q 1072 3584 1716 3584 
Q 2034 3584 2315 3537 
Q 2597 3491 2834 3397 
z
" transform="scale(0.015625)"/>
       <path id="DejaVuSans-70" d="M 1159 525 
L 1159 -1331 
L 581 -1331 
L 581 3500 
L 1159 3500 
L 1159 2969 
Q 1341 3281 1617 3432 
Q 1894 3584 2278 3584 
Q 2916 3584 3314 3078 
Q 3713 2572 3713 1747 
Q 3713 922 3314 415 
Q 2916 -91 2278 -91 
Q 1894 -91 1617 61 
Q 1341 213 1159 525 
z
M 3116 1747 
Q 3116 2381 2855 2742 
Q 2594 3103 2138 3103 
Q 1681 3103 1420 2742 
Q 1159 2381 1159 1747 
Q 1159 1113 1420 752 
Q 1681 391 2138 391 
Q 2594 391 2855 752 
Q 3116 1113 3116 1747 
z
" transform="scale(0.015625)"/>
       <path id="DejaVuSans-69" d="M 603 3500 
L 1178 3500 
L 1178 0 
L 603 0 
L 603 3500 
z
M 603 4863 
L 1178 4863 
L 1178 4134 
L 603 4134 
L 603 4863 
z
" transform="scale(0.015625)"/>
       <path id="DejaVuSans-6b" d="M 581 4863 
L 1159 4863 
L 1159 1991 
L 2875 3500 
L 3609 3500 
L 1753 1863 
L 3688 0 
L 2938 0 
L 1159 1709 
L 1159 0 
L 581 0 
L 581 4863 
z
" transform="scale(0.015625)"/>
       <path id="DejaVuSans-6e" d="M 3513 2113 
L 3513 0 
L 2938 0 
L 2938 2094 
Q 2938 2591 2744 2837 
Q 2550 3084 2163 3084 
Q 1697 3084 1428 2787 
Q 1159 2491 1159 1978 
L 1159 0 
L 581 0 
L 581 3500 
L 1159 3500 
L 1159 2956 
Q 1366 3272 1645 3428 
Q 1925 3584 2291 3584 
Q 2894 3584 3203 3211 
Q 3513 2838 3513 2113 
z
" transform="scale(0.015625)"/>
      </defs>
      <use xlink:href="#DejaVuSans-67"/>
      <use xlink:href="#DejaVuSans-5f" transform="translate(63.476562 0)"/>
      <use xlink:href="#DejaVuSans-66" transform="translate(113.476562 0)"/>
      <use xlink:href="#DejaVuSans-20" transform="translate(148.681641 0)"/>
      <use xlink:href="#DejaVuSans-28" transform="translate(180.46875 0)"/>
      <use xlink:href="#DejaVuSans-73" transform="translate(219.482422 0)"/>
      <use xlink:href="#DejaVuSans-70" transform="translate(271.582031 0)"/>
      <use xlink:href="#DejaVuSans-69" transform="translate(335.058594 0)"/>
      <use xlink:href="#DejaVuSans-6b" transform="translate(362.841797 0)"/>
      <use xlink:href="#DejaVuSans-69" transform="translate(420.751953 0)"/>
      <use xlink:href="#DejaVuSans-6e" transform="translate(448.535156 0)"/>
      <use xlink:href="#DejaVuSans-67" transform="translate(511.914062 0)"/>
      <use xlink:href="#DejaVuSans-29" transform="translate(575.390625 0)"/>
     </g>
    </g>
    <g id="line2d_18">
     <path d="M 68.52125 236.255371 
L 78.52125 236.255371 
L 88.52125 236.255371 
" style="fill: none; stroke-dasharray: 5.55,2.4; stroke-dashoffset: 0; stroke: #ff7f0e; stroke-width: 1.5"/>
    </g>
    <g id="text_17">
     <!-- g_f (bursting) -->
     <g transform="translate(96.52125 239.755371) scale(0.1 -0.1)">
      <defs>
       <path id="DejaVuSans-62" d="M 3116 1747 
Q 3116 2381 2855 2742 
Q 2594 3103 2138 3103 
Q 1681 3103 1420 2742 
Q 1159 2381 1159 1747 
Q 1159 1113 1420 752 
Q 1681 391 2138 391 
Q 2594 391 2855 752 
Q 3116 1113 3116 1747 
z
M 1159 2969 
Q 1341 3281 1617 3432 
Q 1894 3584 2278 3584 
Q 2916 3584 3314 3078 
Q 3713 2572 3713 1747 
Q 3713 922 3314 415 
Q 2916 -91 2278 -91 
Q 1894 -91 1617 61 
Q 1341 213 1159 525 
L 1159 0 
L 581 0 
L 581 4863 
L 1159 4863 
L 1159 2969 
z
" transform="scale(0.015625)"/>
       <path id="DejaVuSans-75" d="M 544 1381 
L 544 3500 
L 1119 3500 
L 1119 1403 
Q 1119 906 1312 657 
Q 1506 409 1894 409 
Q 2359 409 2629 706 
Q 2900 1003 2900 1516 
L 2900 3500 
L 3475 3500 
L 3475 0 
L 2900 0 
L 2900 538 
Q 2691 219 2414 64 
Q 2138 -91 1772 -91 
Q 1169 -91 856 284 
Q 544 659 544 1381 
z
M 1991 3584 
L 1991 3584 
z
" transform="scale(0.015625)"/>
       <path id="DejaVuSans-72" d="M 2631 2963 
Q 2534 3019 2420 3045 
Q 2306 3072 2169 3072 
Q 1681 3072 1420 2755 
Q 1159 2438 1159 1844 
L 1159 0 
L 581 0 
L 581 3500 
L 1159 3500 
L 1159 2956 
Q 1341 3275 1631 3429 
Q 1922 3584 2338 3584 
Q 2397 3584 2469 3576 
Q 2541 3569 2628 3553 
L 2631 2963 
z
" transform="scale(0.015625)"/>
       <path id="DejaVuSans-74" d="M 1172 4494 
L 1172 3500 
L 2356 3500 
L 2356 3053 
L 1172 3053 
L 1172 1153 
Q 1172 725 1289 603 
Q 1406 481 1766 481 
L 2356 481 
L 2356 0 
L 1766 0 
Q 1100 0 847 248 
Q 594 497 594 1153 
L 594 3053 
L 172 3053 
L 172 3500 
L 594 3500 
L 594 4494 
L 1172 4494 
z
" transform="scale(0.015625)"/>
      </defs>
      <use xlink:href="#DejaVuSans-67"/>
      <use xlink:href="#DejaVuSans-5f" transform="translate(63.476562 0)"/>
      <use xlink:href="#DejaVuSans-66" transform="translate(113.476562 0)"/>
      <use xlink:href="#DejaVuSans-20" transform="translate(148.681641 0)"/>
      <use xlink:href="#DejaVuSans-28" transform="translate(180.46875 0)"/>
      <use xlink:href="#DejaVuSans-62" transform="translate(219.482422 0)"/>
      <use xlink:href="#DejaVuSans-75" transform="translate(282.958984 0)"/>
      <use xlink:href="#DejaVuSans-72" transform="translate(346.337891 0)"/>
      <use xlink:href="#DejaVuSans-73" transform="translate(387.451172 0)"/>
      <use xlink:href="#DejaVuSans-74" transform="translate(439.550781 0)"/>
      <use xlink:href="#DejaVuSans-69" transform="translate(478.759766 0)"/>
      <use xlink:href="#DejaVuSans-6e" transform="translate(506.542969 0)"/>
      <use xlink:href="#DejaVuSans-67" transform="translate(569.921875 0)"/>
      <use xlink:href="#DejaVuSans-29" transform="translate(633.398438 0)"/>
     </g>
    </g>
   </g>
  </g>
  <g id="axes_2">
   <g id="patch_8">
    <path d="M 774.12125 251.113184 
L 1429.2 251.113184 
L 1429.2 13.548479 
L 774.12125 13.548479 
z
" style="fill: #ffffff"/>
   </g>
   <g id="matplotlib.axis_3">
    <g id="xtick_6">
     <g id="line2d_19">
      <g>
       <use xlink:href="#mc642ee41e1" x="839.629125" y="251.113184" style="stroke: #000000; stroke-width: 0.8"/>
      </g>
     </g>
     <g id="text_18">
      <!-- −54 -->
      <g transform="translate(829.076781 265.711621) scale(0.1 -0.1)">
       <use xlink:href="#DejaVuSans-2212"/>
       <use xlink:href="#DejaVuSans-35" transform="translate(83.789062 0)"/>
       <use xlink:href="#DejaVuSans-34" transform="translate(147.412109 0)"/>
      </g>
     </g>
    </g>
    <g id="xtick_7">
     <g id="line2d_20">
      <g>
       <use xlink:href="#mc642ee41e1" x="970.644875" y="251.113184" style="stroke: #000000; stroke-width: 0.8"/>
      </g>
     </g>
     <g id="text_19">
      <!-- −52 -->
      <g transform="translate(960.092531 265.711621) scale(0.1 -0.1)">
       <use xlink:href="#DejaVuSans-2212"/>
       <use xlink:href="#DejaVuSans-35" transform="translate(83.789062 0)"/>
       <use xlink:href="#DejaVuSans-32" transform="translate(147.412109 0)"/>
      </g>
     </g>
    </g>
    <g id="xtick_8">
     <g id="line2d_21">
      <g>
       <use xlink:href="#mc642ee41e1" x="1101.660625" y="251.113184" style="stroke: #000000; stroke-width: 0.8"/>
      </g>
     </g>
     <g id="text_20">
      <!-- −50 -->
      <g transform="translate(1091.108281 265.711621) scale(0.1 -0.1)">
       <use xlink:href="#DejaVuSans-2212"/>
       <use xlink:href="#DejaVuSans-35" transform="translate(83.789062 0)"/>
       <use xlink:href="#DejaVuSans-30" transform="translate(147.412109 0)"/>
      </g>
     </g>
    </g>
    <g id="xtick_9">
     <g id="line2d_22">
      <g>
       <use xlink:href="#mc642ee41e1" x="1232.676375" y="251.113184" style="stroke: #000000; stroke-width: 0.8"/>
      </g>
     </g>
     <g id="text_21">
      <!-- −48 -->
      <g transform="translate(1222.124031 265.711621) scale(0.1 -0.1)">
       <use xlink:href="#DejaVuSans-2212"/>
       <use xlink:href="#DejaVuSans-34" transform="translate(83.789062 0)"/>
       <use xlink:href="#DejaVuSans-38" transform="translate(147.412109 0)"/>
      </g>
     </g>
    </g>
    <g id="xtick_10">
     <g id="line2d_23">
      <g>
       <use xlink:href="#mc642ee41e1" x="1363.692125" y="251.113184" style="stroke: #000000; stroke-width: 0.8"/>
      </g>
     </g>
     <g id="text_22">
      <!-- −46 -->
      <g transform="translate(1353.139781 265.711621) scale(0.1 -0.1)">
       <use xlink:href="#DejaVuSans-2212"/>
       <use xlink:href="#DejaVuSans-34" transform="translate(83.789062 0)"/>
       <use xlink:href="#DejaVuSans-36" transform="translate(147.412109 0)"/>
      </g>
     </g>
    </g>
    <g id="text_23">
     <!-- V (mV) -->
     <g transform="translate(1084.459063 279.389746) scale(0.1 -0.1)">
      <use xlink:href="#DejaVuSans-56"/>
      <use xlink:href="#DejaVuSans-20" transform="translate(68.408203 0)"/>
      <use xlink:href="#DejaVuSans-28" transform="translate(100.195312 0)"/>
      <use xlink:href="#DejaVuSans-6d" transform="translate(139.208984 0)"/>
      <use xlink:href="#DejaVuSans-56" transform="translate(236.621094 0)"/>
      <use xlink:href="#DejaVuSans-29" transform="translate(305.029297 0)"/>
     </g>
    </g>
   </g>
   <g id="matplotlib.axis_4">
    <g id="ytick_9">
     <g id="line2d_24">
      <g>
       <use xlink:href="#ma233775d14" x="774.12125" y="242.715461" style="stroke: #000000; stroke-width: 0.8"/>
      </g>
     </g>
     <g id="text_24">
      <!-- −5 -->
      <g transform="translate(752.379063 246.51468) scale(0.1 -0.1)">
       <use xlink:href="#DejaVuSans-2212"/>
       <use xlink:href="#DejaVuSans-35" transform="translate(83.789062 0)"/>
      </g>
     </g>
    </g>
    <g id="ytick_10">
     <g id="line2d_25">
      <g>
       <use xlink:href="#ma233775d14" x="774.12125" y="214.248045" style="stroke: #000000; stroke-width: 0.8"/>
      </g>
     </g>
     <g id="text_25">
      <!-- 0 -->
      <g transform="translate(760.75875 218.047264) scale(0.1 -0.1)">
       <use xlink:href="#DejaVuSans-30"/>
      </g>
     </g>
    </g>
    <g id="ytick_11">
     <g id="line2d_26">
      <g>
       <use xlink:href="#ma233775d14" x="774.12125" y="185.780629" style="stroke: #000000; stroke-width: 0.8"/>
      </g>
     </g>
     <g id="text_26">
      <!-- 5 -->
      <g transform="translate(760.75875 189.579847) scale(0.1 -0.1)">
       <use xlink:href="#DejaVuSans-35"/>
      </g>
     </g>
    </g>
    <g id="ytick_12">
     <g id="line2d_27">
      <g>
       <use xlink:href="#ma233775d14" x="774.12125" y="157.313212" style="stroke: #000000; stroke-width: 0.8"/>
      </g>
     </g>
     <g id="text_27">
      <!-- 10 -->
      <g transform="translate(754.39625 161.112431) scale(0.1 -0.1)">
       <use xlink:href="#DejaVuSans-31"/>
       <use xlink:href="#DejaVuSans-30" transform="translate(63.623047 0)"/>
      </g>
     </g>
    </g>
    <g id="ytick_13">
     <g id="line2d_28">
      <g>
       <use xlink:href="#ma233775d14" x="774.12125" y="128.845796" style="stroke: #000000; stroke-width: 0.8"/>
      </g>
     </g>
     <g id="text_28">
      <!-- 15 -->
      <g transform="translate(754.39625 132.645015) scale(0.1 -0.1)">
       <use xlink:href="#DejaVuSans-31"/>
       <use xlink:href="#DejaVuSans-35" transform="translate(63.623047 0)"/>
      </g>
     </g>
    </g>
    <g id="ytick_14">
     <g id="line2d_29">
      <g>
       <use xlink:href="#ma233775d14" x="774.12125" y="100.37838" style="stroke: #000000; stroke-width: 0.8"/>
      </g>
     </g>
     <g id="text_29">
      <!-- 20 -->
      <g transform="translate(754.39625 104.177598) scale(0.1 -0.1)">
       <use xlink:href="#DejaVuSans-32"/>
       <use xlink:href="#DejaVuSans-30" transform="translate(63.623047 0)"/>
      </g>
     </g>
    </g>
    <g id="ytick_15">
     <g id="line2d_30">
      <g>
       <use xlink:href="#ma233775d14" x="774.12125" y="71.910963" style="stroke: #000000; stroke-width: 0.8"/>
      </g>
     </g>
     <g id="text_30">
      <!-- 25 -->
      <g transform="translate(754.39625 75.710182) scale(0.1 -0.1)">
       <use xlink:href="#DejaVuSans-32"/>
       <use xlink:href="#DejaVuSans-35" transform="translate(63.623047 0)"/>
      </g>
     </g>
    </g>
    <g id="ytick_16">
     <g id="line2d_31">
      <g>
       <use xlink:href="#ma233775d14" x="774.12125" y="43.443547" style="stroke: #000000; stroke-width: 0.8"/>
      </g>
     </g>
     <g id="text_31">
      <!-- 30 -->
      <g transform="translate(754.39625 47.242766) scale(0.1 -0.1)">
       <defs>
        <path id="DejaVuSans-33" d="M 2597 2516 
Q 3050 2419 3304 2112 
Q 3559 1806 3559 1356 
Q 3559 666 3084 287 
Q 2609 -91 1734 -91 
Q 1441 -91 1130 -33 
Q 819 25 488 141 
L 488 750 
Q 750 597 1062 519 
Q 1375 441 1716 441 
Q 2309 441 2620 675 
Q 2931 909 2931 1356 
Q 2931 1769 2642 2001 
Q 2353 2234 1838 2234 
L 1294 2234 
L 1294 2753 
L 1863 2753 
Q 2328 2753 2575 2939 
Q 2822 3125 2822 3475 
Q 2822 3834 2567 4026 
Q 2313 4219 1838 4219 
Q 1578 4219 1281 4162 
Q 984 4106 628 3988 
L 628 4550 
Q 988 4650 1302 4700 
Q 1616 4750 1894 4750 
Q 2613 4750 3031 4423 
Q 3450 4097 3450 3541 
Q 3450 3153 3228 2886 
Q 3006 2619 2597 2516 
z
" transform="scale(0.015625)"/>
       </defs>
       <use xlink:href="#DejaVuSans-33"/>
       <use xlink:href="#DejaVuSans-30" transform="translate(63.623047 0)"/>
      </g>
     </g>
    </g>
    <g id="ytick_17">
     <g id="line2d_32">
      <g>
       <use xlink:href="#ma233775d14" x="774.12125" y="14.976131" style="stroke: #000000; stroke-width: 0.8"/>
      </g>
     </g>
     <g id="text_32">
      <!-- 35 -->
      <g transform="translate(754.39625 18.77535) scale(0.1 -0.1)">
       <use xlink:href="#DejaVuSans-33"/>
       <use xlink:href="#DejaVuSans-35" transform="translate(63.623047 0)"/>
      </g>
     </g>
    </g>
    <g id="text_33">
     <!-- g_s (mS/cm^2) -->
     <g transform="translate(746.02125 170.819894) rotate(-90) scale(0.1 -0.1)">
      <use xlink:href="#DejaVuSans-67"/>
      <use xlink:href="#DejaVuSans-5f" transform="translate(63.476562 0)"/>
      <use xlink:href="#DejaVuSans-73" transform="translate(113.476562 0)"/>
      <use xlink:href="#DejaVuSans-20" transform="translate(165.576172 0)"/>
      <use xlink:href="#DejaVuSans-28" transform="translate(197.363281 0)"/>
      <use xlink:href="#DejaVuSans-6d" transform="translate(236.376953 0)"/>
      <use xlink:href="#DejaVuSans-53" transform="translate(333.789062 0)"/>
      <use xlink:href="#DejaVuSans-2f" transform="translate(397.265625 0)"/>
      <use xlink:href="#DejaVuSans-63" transform="translate(430.957031 0)"/>
      <use xlink:href="#DejaVuSans-6d" transform="translate(485.9375 0)"/>
      <use xlink:href="#DejaVuSans-5e" transform="translate(583.349609 0)"/>
      <use xlink:href="#DejaVuSans-32" transform="translate(667.138672 0)"/>
      <use xlink:href="#DejaVuSans-29" transform="translate(730.761719 0)"/>
     </g>
    </g>
   </g>
   <g id="line2d_33">
    <path d="M 774.12125 206.092783 
L 820.678398 204.353461 
L 863.956874 202.518113 
L 903.300943 200.629242 
L 938.054871 198.744599 
L 969.530126 196.818877 
L 997.726709 194.873342 
L 1023.300354 192.885963 
L 1046.251061 190.882204 
L 1067.234565 188.830899 
L 1086.250865 186.757463 
L 1103.955696 184.61257 
L 1120.349058 182.41336 
L 1136.086685 180.081052 
L 1150.512844 177.727005 
L 1164.283268 175.262537 
L 1177.397958 172.694437 
L 1189.856913 170.032498 
L 1201.660134 167.289622 
L 1212.80762 164.481847 
L 1223.955106 161.442726 
L 1234.446858 158.351643 
L 1244.282875 155.232759 
L 1254.118893 151.88217 
L 1263.299175 148.529325 
L 1272.479458 144.941836 
L 1281.004007 141.385142 
L 1289.528555 137.595949 
L 1298.053103 133.558256 
L 1305.921917 129.595885 
L 1313.790731 125.393064 
L 1321.659545 120.934752 
L 1329.528358 116.205031 
L 1336.741438 111.616667 
L 1343.954517 106.772427 
L 1351.167596 101.657919 
L 1358.380676 96.257999 
L 1365.593755 90.556745 
L 1372.1511 85.098225 
L 1378.708445 79.363653 
L 1385.26579 73.339232 
L 1391.823134 67.010531 
L 1398.380479 60.362466 
L 1404.937824 53.379268 
L 1411.495169 46.044456 
L 1418.052514 38.340816 
L 1423.954124 31.077346 
L 1429.2 24.346875 
L 1429.2 24.346875 
" clip-path="url(#p820507d4ca)" style="fill: none; stroke: #1f77b4; stroke-width: 1.5; stroke-linecap: square"/>
   </g>
   <g id="line2d_34">
    <path d="M 774.12125 227.966245 
L 829.858681 230.097668 
L 892.153457 232.711452 
L 1021.333151 238.218286 
L 1052.808406 239.276566 
L 1078.382051 239.917844 
L 1100.021289 240.24207 
L 1119.037589 240.309483 
L 1136.086685 240.153178 
L 1151.824313 239.788207 
L 1166.250472 239.233074 
L 1179.365161 238.515477 
L 1191.824117 237.618559 
L 1203.627337 236.549832 
L 1214.774824 235.320883 
L 1225.266575 233.947349 
L 1235.102593 232.448776 
L 1244.93861 230.726108 
L 1254.118893 228.897454 
L 1263.299175 226.836649 
L 1271.823724 224.697835 
L 1280.348272 222.324735 
L 1288.217086 219.910582 
L 1296.0859 217.266228 
L 1303.954713 214.37563 
L 1311.167793 211.495105 
L 1318.380872 208.379592 
L 1325.593951 205.014549 
L 1332.807031 201.384675 
L 1339.364376 197.841452 
L 1345.92172 194.05339 
L 1352.479065 190.007223 
L 1359.03641 185.689081 
L 1365.593755 181.084464 
L 1371.495365 176.682866 
L 1377.396976 172.025454 
L 1383.298586 167.100262 
L 1389.200196 161.894858 
L 1395.101807 156.396325 
L 1401.003417 150.59125 
L 1406.905028 144.465706 
L 1412.806638 138.00524 
L 1418.708248 131.194858 
L 1424.609859 124.019007 
L 1429.2 118.174821 
L 1429.2 118.174821 
" clip-path="url(#p820507d4ca)" style="fill: none; stroke-dasharray: 5.55,2.4; stroke-dashoffset: 0; stroke: #ff7f0e; stroke-width: 1.5"/>
   </g>
   <g id="line2d_35">
    <path d="M 774.12125 214.248045 
L 1429.2 214.248045 
" clip-path="url(#p820507d4ca)" style="fill: none; stroke: #000000; stroke-width: 0.5; stroke-linecap: square"/>
   </g>
   <g id="patch_9">
    <path d="M 774.12125 251.113184 
L 774.12125 13.548479 
" style="fill: none; stroke: #000000; stroke-width: 0.8; stroke-linejoin: miter; stroke-linecap: square"/>
   </g>
   <g id="patch_10">
    <path d="M 1429.2 251.113184 
L 1429.2 13.548479 
" style="fill: none; stroke: #000000; stroke-width: 0.8; stroke-linejoin: miter; stroke-linecap: square"/>
   </g>
   <g id="patch_11">
    <path d="M 774.12125 251.113184 
L 1429.2 251.113184 
" style="fill: none; stroke: #000000; stroke-width: 0.8; stroke-linejoin: miter; stroke-linecap: square"/>
   </g>
   <g id="patch_12">
    <path d="M 774.12125 13.548479 
L 1429.2 13.548479 
" style="fill: none; stroke: #000000; stroke-width: 0.8; stroke-linejoin: miter; stroke-linecap: square"/>
   </g>
   <g id="legend_2">
    <g id="patch_13">
     <path d="M 781.12125 51.460979 
L 882.050938 51.460979 
Q 884.050938 51.460979 884.050938 49.460979 
L 884.050938 20.548479 
Q 884.050938 18.548479 882.050938 18.548479 
L 781.12125 18.548479 
Q 779.12125 18.548479 779.12125 20.548479 
L 779.12125 49.460979 
Q 779.12125 51.460979 781.12125 51.460979 
z
" style="fill: #ffffff; opacity: 0.8; stroke: #cccccc; stroke-linejoin: miter"/>
    </g>
    <g id="line2d_36">
     <path d="M 783.12125 26.646917 
L 793.12125 26.646917 
L 803.12125 26.646917 
" style="fill: none; stroke: #1f77b4; stroke-width: 1.5; stroke-linecap: square"/>
    </g>
    <g id="text_34">
     <!-- g_s (spiking) -->
     <g transform="translate(811.12125 30.146917) scale(0.1 -0.1)">
      <use xlink:href="#DejaVuSans-67"/>
      <use xlink:href="#DejaVuSans-5f" transform="translate(63.476562 0)"/>
      <use xlink:href="#DejaVuSans-73" transform="translate(113.476562 0)"/>
      <use xlink:href="#DejaVuSans-20" transform="translate(165.576172 0)"/>
      <use xlink:href="#DejaVuSans-28" transform="translate(197.363281 0)"/>
      <use xlink:href="#DejaVuSans-73" transform="translate(236.376953 0)"/>
      <use xlink:href="#DejaVuSans-70" transform="translate(288.476562 0)"/>
      <use xlink:href="#DejaVuSans-69" transform="translate(351.953125 0)"/>
      <use xlink:href="#DejaVuSans-6b" transform="translate(379.736328 0)"/>
      <use xlink:href="#DejaVuSans-69" transform="translate(437.646484 0)"/>
      <use xlink:href="#DejaVuSans-6e" transform="translate(465.429688 0)"/>
      <use xlink:href="#DejaVuSans-67" transform="translate(528.808594 0)"/>
      <use xlink:href="#DejaVuSans-29" transform="translate(592.285156 0)"/>
     </g>
    </g>
    <g id="line2d_37">
     <path d="M 783.12125 41.603167 
L 793.12125 41.603167 
L 803.12125 41.603167 
" style="fill: none; stroke-dasharray: 5.55,2.4; stroke-dashoffset: 0; stroke: #ff7f0e; stroke-width: 1.5"/>
    </g>
    <g id="text_35">
     <!-- g_s (bursting) -->
     <g transform="translate(811.12125 45.103167) scale(0.1 -0.1)">
      <use xlink:href="#DejaVuSans-67"/>
      <use xlink:href="#DejaVuSans-5f" transform="translate(63.476562 0)"/>
      <use xlink:href="#DejaVuSans-73" transform="translate(113.476562 0)"/>
      <use xlink:href="#DejaVuSans-20" transform="translate(165.576172 0)"/>
      <use xlink:href="#DejaVuSans-28" transform="translate(197.363281 0)"/>
      <use xlink:href="#DejaVuSans-62" transform="translate(236.376953 0)"/>
      <use xlink:href="#DejaVuSans-75" transform="translate(299.853516 0)"/>
      <use xlink:href="#DejaVuSans-72" transform="translate(363.232422 0)"/>
      <use xlink:href="#DejaVuSans-73" transform="translate(404.345703 0)"/>
      <use xlink:href="#DejaVuSans-74" transform="translate(456.445312 0)"/>
      <use xlink:href="#DejaVuSans-69" transform="translate(495.654297 0)"/>
      <use xlink:href="#DejaVuSans-6e" transform="translate(523.4375 0)"/>
      <use xlink:href="#DejaVuSans-67" transform="translate(586.816406 0)"/>
      <use xlink:href="#DejaVuSans-29" transform="translate(650.292969 0)"/>
     </g>
    </g>
   </g>
  </g>
  <g id="axes_3">
   <g id="patch_14">
    <path d="M 59.52125 534.04 
L 714.6 534.04 
L 714.6 296.475295 
L 59.52125 296.475295 
z
" style="fill: #ffffff"/>
   </g>
   <g id="matplotlib.axis_5">
    <g id="xtick_11">
     <g id="line2d_38">
      <g>
       <use xlink:href="#mc642ee41e1" x="125.029125" y="534.04" style="stroke: #000000; stroke-width: 0.8"/>
      </g>
     </g>
     <g id="text_36">
      <!-- −54 -->
      <g transform="translate(114.476781 548.638438) scale(0.1 -0.1)">
       <use xlink:href="#DejaVuSans-2212"/>
       <use xlink:href="#DejaVuSans-35" transform="translate(83.789062 0)"/>
       <use xlink:href="#DejaVuSans-34" transform="translate(147.412109 0)"/>
      </g>
     </g>
    </g>
    <g id="xtick_12">
     <g id="line2d_39">
      <g>
       <use xlink:href="#mc642ee41e1" x="256.044875" y="534.04" style="stroke: #000000; stroke-width: 0.8"/>
      </g>
     </g>
     <g id="text_37">
      <!-- −52 -->
      <g transform="translate(245.492531 548.638438) scale(0.1 -0.1)">
       <use xlink:href="#DejaVuSans-2212"/>
       <use xlink:href="#DejaVuSans-35" transform="translate(83.789062 0)"/>
       <use xlink:href="#DejaVuSans-32" transform="translate(147.412109 0)"/>
      </g>
     </g>
    </g>
    <g id="xtick_13">
     <g id="line2d_40">
      <g>
       <use xlink:href="#mc642ee41e1" x="387.060625" y="534.04" style="stroke: #000000; stroke-width: 0.8"/>
      </g>
     </g>
     <g id="text_38">
      <!-- −50 -->
      <g transform="translate(376.508281 548.638438) scale(0.1 -0.1)">
       <use xlink:href="#DejaVuSans-2212"/>
       <use xlink:href="#DejaVuSans-35" transform="translate(83.789062 0)"/>
       <use xlink:href="#DejaVuSans-30" transform="translate(147.412109 0)"/>
      </g>
     </g>
    </g>
    <g id="xtick_14">
     <g id="line2d_41">
      <g>
       <use xlink:href="#mc642ee41e1" x="518.076375" y="534.04" style="stroke: #000000; stroke-width: 0.8"/>
      </g>
     </g>
     <g id="text_39">
      <!-- −48 -->
      <g transform="translate(507.524031 548.638438) scale(0.1 -0.1)">
       <use xlink:href="#DejaVuSans-2212"/>
       <use xlink:href="#DejaVuSans-34" transform="translate(83.789062 0)"/>
       <use xlink:href="#DejaVuSans-38" transform="translate(147.412109 0)"/>
      </g>
     </g>
    </g>
    <g id="xtick_15">
     <g id="line2d_42">
      <g>
       <use xlink:href="#mc642ee41e1" x="649.092125" y="534.04" style="stroke: #000000; stroke-width: 0.8"/>
      </g>
     </g>
     <g id="text_40">
      <!-- −46 -->
      <g transform="translate(638.539781 548.638438) scale(0.1 -0.1)">
       <use xlink:href="#DejaVuSans-2212"/>
       <use xlink:href="#DejaVuSans-34" transform="translate(83.789062 0)"/>
       <use xlink:href="#DejaVuSans-36" transform="translate(147.412109 0)"/>
      </g>
     </g>
    </g>
    <g id="text_41">
     <!-- V (mV) -->
     <g transform="translate(369.859062 562.316563) scale(0.1 -0.1)">
      <use xlink:href="#DejaVuSans-56"/>
      <use xlink:href="#DejaVuSans-20" transform="translate(68.408203 0)"/>
      <use xlink:href="#DejaVuSans-28" transform="translate(100.195312 0)"/>
      <use xlink:href="#DejaVuSans-6d" transform="translate(139.208984 0)"/>
      <use xlink:href="#DejaVuSans-56" transform="translate(236.621094 0)"/>
      <use xlink:href="#DejaVuSans-29" transform="translate(305.029297 0)"/>
     </g>
    </g>
   </g>
   <g id="matplotlib.axis_6">
    <g id="ytick_18">
     <g id="line2d_43">
      <g>
       <use xlink:href="#ma233775d14" x="59.52125" y="532.739558" style="stroke: #000000; stroke-width: 0.8"/>
      </g>
     </g>
     <g id="text_42">
      <!-- −2 -->
      <g transform="translate(37.779062 536.538777) scale(0.1 -0.1)">
       <use xlink:href="#DejaVuSans-2212"/>
       <use xlink:href="#DejaVuSans-32" transform="translate(83.789062 0)"/>
      </g>
     </g>
    </g>
    <g id="ytick_19">
     <g id="line2d_44">
      <g>
       <use xlink:href="#ma233775d14" x="59.52125" y="503.288702" style="stroke: #000000; stroke-width: 0.8"/>
      </g>
     </g>
     <g id="text_43">
      <!-- 0 -->
      <g transform="translate(46.15875 507.087921) scale(0.1 -0.1)">
       <use xlink:href="#DejaVuSans-30"/>
      </g>
     </g>
    </g>
    <g id="ytick_20">
     <g id="line2d_45">
      <g>
       <use xlink:href="#ma233775d14" x="59.52125" y="473.837846" style="stroke: #000000; stroke-width: 0.8"/>
      </g>
     </g>
     <g id="text_44">
      <!-- 2 -->
      <g transform="translate(46.15875 477.637065) scale(0.1 -0.1)">
       <use xlink:href="#DejaVuSans-32"/>
      </g>
     </g>
    </g>
    <g id="ytick_21">
     <g id="line2d_46">
      <g>
       <use xlink:href="#ma233775d14" x="59.52125" y="444.38699" style="stroke: #000000; stroke-width: 0.8"/>
      </g>
     </g>
     <g id="text_45">
      <!-- 4 -->
      <g transform="translate(46.15875 448.186209) scale(0.1 -0.1)">
       <use xlink:href="#DejaVuSans-34"/>
      </g>
     </g>
    </g>
    <g id="ytick_22">
     <g id="line2d_47">
      <g>
       <use xlink:href="#ma233775d14" x="59.52125" y="414.936134" style="stroke: #000000; stroke-width: 0.8"/>
      </g>
     </g>
     <g id="text_46">
      <!-- 6 -->
      <g transform="translate(46.15875 418.735353) scale(0.1 -0.1)">
       <use xlink:href="#DejaVuSans-36"/>
      </g>
     </g>
    </g>
    <g id="ytick_23">
     <g id="line2d_48">
      <g>
       <use xlink:href="#ma233775d14" x="59.52125" y="385.485278" style="stroke: #000000; stroke-width: 0.8"/>
      </g>
     </g>
     <g id="text_47">
      <!-- 8 -->
      <g transform="translate(46.15875 389.284496) scale(0.1 -0.1)">
       <use xlink:href="#DejaVuSans-38"/>
      </g>
     </g>
    </g>
    <g id="ytick_24">
     <g id="line2d_49">
      <g>
       <use xlink:href="#ma233775d14" x="59.52125" y="356.034422" style="stroke: #000000; stroke-width: 0.8"/>
      </g>
     </g>
     <g id="text_48">
      <!-- 10 -->
      <g transform="translate(39.79625 359.83364) scale(0.1 -0.1)">
       <use xlink:href="#DejaVuSans-31"/>
       <use xlink:href="#DejaVuSans-30" transform="translate(63.623047 0)"/>
      </g>
     </g>
    </g>
    <g id="ytick_25">
     <g id="line2d_50">
      <g>
       <use xlink:href="#ma233775d14" x="59.52125" y="326.583565" style="stroke: #000000; stroke-width: 0.8"/>
      </g>
     </g>
     <g id="text_49">
      <!-- 12 -->
      <g transform="translate(39.79625 330.382784) scale(0.1 -0.1)">
       <use xlink:href="#DejaVuSans-31"/>
       <use xlink:href="#DejaVuSans-32" transform="translate(63.623047 0)"/>
      </g>
     </g>
    </g>
    <g id="ytick_26">
     <g id="line2d_51">
      <g>
       <use xlink:href="#ma233775d14" x="59.52125" y="297.132709" style="stroke: #000000; stroke-width: 0.8"/>
      </g>
     </g>
     <g id="text_50">
      <!-- 14 -->
      <g transform="translate(39.79625 300.931928) scale(0.1 -0.1)">
       <use xlink:href="#DejaVuSans-31"/>
       <use xlink:href="#DejaVuSans-34" transform="translate(63.623047 0)"/>
      </g>
     </g>
    </g>
    <g id="text_51">
     <!-- g_u (mS/cm^2) -->
     <g transform="translate(31.42125 454.310773) rotate(-90) scale(0.1 -0.1)">
      <use xlink:href="#DejaVuSans-67"/>
      <use xlink:href="#DejaVuSans-5f" transform="translate(63.476562 0)"/>
      <use xlink:href="#DejaVuSans-75" transform="translate(113.476562 0)"/>
      <use xlink:href="#DejaVuSans-20" transform="translate(176.855469 0)"/>
      <use xlink:href="#DejaVuSans-28" transform="translate(208.642578 0)"/>
      <use xlink:href="#DejaVuSans-6d" transform="translate(247.65625 0)"/>
      <use xlink:href="#DejaVuSans-53" transform="translate(345.068359 0)"/>
      <use xlink:href="#DejaVuSans-2f" transform="translate(408.544922 0)"/>
      <use xlink:href="#DejaVuSans-63" transform="translate(442.236328 0)"/>
      <use xlink:href="#DejaVuSans-6d" transform="translate(497.216797 0)"/>
      <use xlink:href="#DejaVuSans-5e" transform="translate(594.628906 0)"/>
      <use xlink:href="#DejaVuSans-32" transform="translate(678.417969 0)"/>
      <use xlink:href="#DejaVuSans-29" transform="translate(742.041016 0)"/>
     </g>
    </g>
   </g>
   <g id="line2d_52">
    <path d="M 59.52125 307.273691 
L 75.914612 316.464863 
L 92.963709 325.767926 
L 110.012805 334.82006 
L 127.717636 343.965507 
L 145.422467 352.862358 
L 163.783033 361.838001 
L 182.143599 370.570353 
L 201.159899 379.370683 
L 220.831933 388.226569 
L 241.159702 397.126676 
L 261.487471 405.785095 
L 282.470975 414.482328 
L 304.110213 423.207829 
L 325.749451 431.696632 
L 348.044423 440.20347 
L 370.339396 448.472506 
L 392.634368 456.504379 
L 414.273606 464.068874 
L 435.912844 471.395709 
L 456.240613 478.047297 
L 475.912648 484.251839 
L 494.273213 489.814484 
L 511.978044 494.944914 
L 528.371406 499.465266 
L 544.109034 503.569892 
L 558.535193 507.104592 
L 572.305617 510.249898 
L 585.420307 513.012654 
L 597.879262 515.40228 
L 609.682482 517.431131 
L 620.829969 519.114735 
L 631.32172 520.471919 
L 641.157738 521.524795 
L 650.993755 522.345713 
L 660.174038 522.884231 
L 668.698586 523.170995 
L 677.223134 523.23607 
L 685.091948 523.084606 
L 692.960762 522.715293 
L 700.829576 522.11277 
L 708.042655 521.341619 
L 714.6 520.447328 
L 714.6 520.447328 
" clip-path="url(#p16a3084009)" style="fill: none; stroke: #1f77b4; stroke-width: 1.5; stroke-linecap: square"/>
   </g>
   <g id="line2d_53">
    <path d="M 59.52125 328.622771 
L 75.914612 336.638437 
L 92.963709 344.72582 
L 110.012805 352.566781 
L 127.061902 360.168731 
L 144.766733 367.817883 
L 162.471564 375.22501 
L 180.176395 382.397604 
L 198.536961 389.595581 
L 216.897526 396.555862 
L 235.258092 403.284527 
L 254.274392 410.014559 
L 273.290692 416.505266 
L 292.306992 422.75857 
L 311.323292 428.774062 
L 329.683858 434.353521 
L 348.044423 439.702597 
L 365.749254 444.633974 
L 383.454085 449.331116 
L 400.503182 453.618468 
L 416.896544 457.505992 
L 432.634172 461.002821 
L 447.06033 463.987535 
L 460.830755 466.621298 
L 473.945444 468.91584 
L 487.060134 470.981841 
L 499.519089 472.712446 
L 511.32231 474.12331 
L 522.469796 475.232463 
L 532.961548 476.060434 
L 543.4533 476.660742 
L 553.289317 476.999297 
L 562.4696 477.103572 
L 571.649882 476.987482 
L 580.174431 476.667651 
L 588.698979 476.128773 
L 597.223527 475.355287 
L 605.092341 474.418683 
L 612.961155 473.254021 
L 620.174234 471.973401 
L 627.387314 470.47655 
L 634.600393 468.750665 
L 641.813472 466.782228 
L 648.370817 464.770281 
L 654.928162 462.534844 
L 661.485507 460.064108 
L 668.042852 457.345702 
L 674.600196 454.366667 
L 680.501807 451.451499 
L 686.403417 448.303921 
L 692.305028 444.913189 
L 698.206638 441.268123 
L 704.108248 437.357094 
L 710.009859 433.168012 
L 714.6 429.709579 
L 714.6 429.709579 
" clip-path="url(#p16a3084009)" style="fill: none; stroke-dasharray: 5.55,2.4; stroke-dashoffset: 0; stroke: #ff7f0e; stroke-width: 1.5"/>
   </g>
   <g id="line2d_54">
    <path d="M 59.52125 503.288702 
L 714.6 503.288702 
" clip-path="url(#p16a3084009)" style="fill: none; stroke: #000000; stroke-width: 0.5; stroke-linecap: square"/>
   </g>
   <g id="patch_15">
    <path d="M 59.52125 534.04 
L 59.52125 296.475295 
" style="fill: none; stroke: #000000; stroke-width: 0.8; stroke-linejoin: miter; stroke-linecap: square"/>
   </g>
   <g id="patch_16">
    <path d="M 714.6 534.04 
L 714.6 296.475295 
" style="fill: none; stroke: #000000; stroke-width: 0.8; stroke-linejoin: miter; stroke-linecap: square"/>
   </g>
   <g id="patch_17">
    <path d="M 59.52125 534.04 
L 714.6 534.04 
" style="fill: none; stroke: #000000; stroke-width: 0.8; stroke-linejoin: miter; stroke-linecap: square"/>
   </g>
   <g id="patch_18">
    <path d="M 59.52125 296.475295 
L 714.6 296.475295 
" style="fill: none; stroke: #000000; stroke-width: 0.8; stroke-linejoin: miter; stroke-linecap: square"/>
   </g>
   <g id="legend_3">
    <g id="patch_19">
     <path d="M 605.542187 334.387795 
L 707.6 334.387795 
Q 709.6 334.387795 709.6 332.387795 
L 709.6 303.475295 
Q 709.6 301.475295 707.6 301.475295 
L 605.542187 301.475295 
Q 603.542187 301.475295 603.542187 303.475295 
L 603.542187 332.387795 
Q 603.542187 334.387795 605.542187 334.387795 
z
" style="fill: #ffffff; opacity: 0.8; stroke: #cccccc; stroke-linejoin: miter"/>
    </g>
    <g id="line2d_55">
     <path d="M 607.542187 309.573733 
L 617.542187 309.573733 
L 627.542187 309.573733 
" style="fill: none; stroke: #1f77b4; stroke-width: 1.5; stroke-linecap: square"/>
    </g>
    <g id="text_52">
     <!-- g_u (spiking) -->
     <g transform="translate(635.542187 313.073733) scale(0.1 -0.1)">
      <use xlink:href="#DejaVuSans-67"/>
      <use xlink:href="#DejaVuSans-5f" transform="translate(63.476562 0)"/>
      <use xlink:href="#DejaVuSans-75" transform="translate(113.476562 0)"/>
      <use xlink:href="#DejaVuSans-20" transform="translate(176.855469 0)"/>
      <use xlink:href="#DejaVuSans-28" transform="translate(208.642578 0)"/>
      <use xlink:href="#DejaVuSans-73" transform="translate(247.65625 0)"/>
      <use xlink:href="#DejaVuSans-70" transform="translate(299.755859 0)"/>
      <use xlink:href="#DejaVuSans-69" transform="translate(363.232422 0)"/>
      <use xlink:href="#DejaVuSans-6b" transform="translate(391.015625 0)"/>
      <use xlink:href="#DejaVuSans-69" transform="translate(448.925781 0)"/>
      <use xlink:href="#DejaVuSans-6e" transform="translate(476.708984 0)"/>
      <use xlink:href="#DejaVuSans-67" transform="translate(540.087891 0)"/>
      <use xlink:href="#DejaVuSans-29" transform="translate(603.564453 0)"/>
     </g>
    </g>
    <g id="line2d_56">
     <path d="M 607.542187 324.529983 
L 617.542187 324.529983 
L 627.542187 324.529983 
" style="fill: none; stroke-dasharray: 5.55,2.4; stroke-dashoffset: 0; stroke: #ff7f0e; stroke-width: 1.5"/>
    </g>
    <g id="text_53">
     <!-- g_u (bursting) -->
     <g transform="translate(635.542187 328.029983) scale(0.1 -0.1)">
      <use xlink:href="#DejaVuSans-67"/>
      <use xlink:href="#DejaVuSans-5f" transform="translate(63.476562 0)"/>
      <use xlink:href="#DejaVuSans-75" transform="translate(113.476562 0)"/>
      <use xlink:href="#DejaVuSans-20" transform="translate(176.855469 0)"/>
      <use xlink:href="#DejaVuSans-28" transform="translate(208.642578 0)"/>
      <use xlink:href="#DejaVuSans-62" transform="translate(247.65625 0)"/>
      <use xlink:href="#DejaVuSans-75" transform="translate(311.132812 0)"/>
      <use xlink:href="#DejaVuSans-72" transform="translate(374.511719 0)"/>
      <use xlink:href="#DejaVuSans-73" transform="translate(415.625 0)"/>
      <use xlink:href="#DejaVuSans-74" transform="translate(467.724609 0)"/>
      <use xlink:href="#DejaVuSans-69" transform="translate(506.933594 0)"/>
      <use xlink:href="#DejaVuSans-6e" transform="translate(534.716797 0)"/>
      <use xlink:href="#DejaVuSans-67" transform="translate(598.095703 0)"/>
      <use xlink:href="#DejaVuSans-29" transform="translate(661.572266 0)"/>
     </g>
    </g>
   </g>
  </g>
  <g id="axes_4">
   <g id="patch_20">
    <path d="M 774.12125 534.04 
L 1429.2 534.04 
L 1429.2 296.475295 
L 774.12125 296.475295 
z
" style="fill: #ffffff"/>
   </g>
   <g id="matplotlib.axis_7">
    <g id="xtick_16">
     <g id="line2d_57">
      <g>
       <use xlink:href="#mc642ee41e1" x="839.629125" y="534.04" style="stroke: #000000; stroke-width: 0.8"/>
      </g>
     </g>
     <g id="text_54">
      <!-- −54 -->
      <g transform="translate(829.076781 548.638438) scale(0.1 -0.1)">
       <use xlink:href="#DejaVuSans-2212"/>
       <use xlink:href="#DejaVuSans-35" transform="translate(83.789062 0)"/>
       <use xlink:href="#DejaVuSans-34" transform="translate(147.412109 0)"/>
      </g>
     </g>
    </g>
    <g id="xtick_17">
     <g id="line2d_58">
      <g>
       <use xlink:href="#mc642ee41e1" x="970.644875" y="534.04" style="stroke: #000000; stroke-width: 0.8"/>
      </g>
     </g>
     <g id="text_55">
      <!-- −52 -->
      <g transform="translate(960.092531 548.638438) scale(0.1 -0.1)">
       <use xlink:href="#DejaVuSans-2212"/>
       <use xlink:href="#DejaVuSans-35" transform="translate(83.789062 0)"/>
       <use xlink:href="#DejaVuSans-32" transform="translate(147.412109 0)"/>
      </g>
     </g>
    </g>
    <g id="xtick_18">
     <g id="line2d_59">
      <g>
       <use xlink:href="#mc642ee41e1" x="1101.660625" y="534.04" style="stroke: #000000; stroke-width: 0.8"/>
      </g>
     </g>
     <g id="text_56">
      <!-- −50 -->
      <g transform="translate(1091.108281 548.638438) scale(0.1 -0.1)">
       <use xlink:href="#DejaVuSans-2212"/>
       <use xlink:href="#DejaVuSans-35" transform="translate(83.789062 0)"/>
       <use xlink:href="#DejaVuSans-30" transform="translate(147.412109 0)"/>
      </g>
     </g>
    </g>
    <g id="xtick_19">
     <g id="line2d_60">
      <g>
       <use xlink:href="#mc642ee41e1" x="1232.676375" y="534.04" style="stroke: #000000; stroke-width: 0.8"/>
      </g>
     </g>
     <g id="text_57">
      <!-- −48 -->
      <g transform="translate(1222.124031 548.638438) scale(0.1 -0.1)">
       <use xlink:href="#DejaVuSans-2212"/>
       <use xlink:href="#DejaVuSans-34" transform="translate(83.789062 0)"/>
       <use xlink:href="#DejaVuSans-38" transform="translate(147.412109 0)"/>
      </g>
     </g>
    </g>
    <g id="xtick_20">
     <g id="line2d_61">
      <g>
       <use xlink:href="#mc642ee41e1" x="1363.692125" y="534.04" style="stroke: #000000; stroke-width: 0.8"/>
      </g>
     </g>
     <g id="text_58">
      <!-- −46 -->
      <g transform="translate(1353.139781 548.638438) scale(0.1 -0.1)">
       <use xlink:href="#DejaVuSans-2212"/>
       <use xlink:href="#DejaVuSans-34" transform="translate(83.789062 0)"/>
       <use xlink:href="#DejaVuSans-36" transform="translate(147.412109 0)"/>
      </g>
     </g>
    </g>
    <g id="text_59">
     <!-- V (mV) -->
     <g transform="translate(1084.459063 562.316563) scale(0.1 -0.1)">
      <use xlink:href="#DejaVuSans-56"/>
      <use xlink:href="#DejaVuSans-20" transform="translate(68.408203 0)"/>
      <use xlink:href="#DejaVuSans-28" transform="translate(100.195312 0)"/>
      <use xlink:href="#DejaVuSans-6d" transform="translate(139.208984 0)"/>
      <use xlink:href="#DejaVuSans-56" transform="translate(236.621094 0)"/>
      <use xlink:href="#DejaVuSans-29" transform="translate(305.029297 0)"/>
     </g>
    </g>
   </g>
   <g id="matplotlib.axis_8">
    <g id="ytick_27">
     <g id="line2d_62">
      <g>
       <use xlink:href="#ma233775d14" x="774.12125" y="503.799876" style="stroke: #000000; stroke-width: 0.8"/>
      </g>
     </g>
     <g id="text_60">
      <!-- −100 -->
      <g transform="translate(739.654063 507.599095) scale(0.1 -0.1)">
       <use xlink:href="#DejaVuSans-2212"/>
       <use xlink:href="#DejaVuSans-31" transform="translate(83.789062 0)"/>
       <use xlink:href="#DejaVuSans-30" transform="translate(147.412109 0)"/>
       <use xlink:href="#DejaVuSans-30" transform="translate(211.035156 0)"/>
      </g>
     </g>
    </g>
    <g id="ytick_28">
     <g id="line2d_63">
      <g>
       <use xlink:href="#ma233775d14" x="774.12125" y="470.466837" style="stroke: #000000; stroke-width: 0.8"/>
      </g>
     </g>
     <g id="text_61">
      <!-- −80 -->
      <g transform="translate(746.016563 474.266055) scale(0.1 -0.1)">
       <use xlink:href="#DejaVuSans-2212"/>
       <use xlink:href="#DejaVuSans-38" transform="translate(83.789062 0)"/>
       <use xlink:href="#DejaVuSans-30" transform="translate(147.412109 0)"/>
      </g>
     </g>
    </g>
    <g id="ytick_29">
     <g id="line2d_64">
      <g>
       <use xlink:href="#ma233775d14" x="774.12125" y="437.133797" style="stroke: #000000; stroke-width: 0.8"/>
      </g>
     </g>
     <g id="text_62">
      <!-- −60 -->
      <g transform="translate(746.016563 440.933016) scale(0.1 -0.1)">
       <use xlink:href="#DejaVuSans-2212"/>
       <use xlink:href="#DejaVuSans-36" transform="translate(83.789062 0)"/>
       <use xlink:href="#DejaVuSans-30" transform="translate(147.412109 0)"/>
      </g>
     </g>
    </g>
    <g id="ytick_30">
     <g id="line2d_65">
      <g>
       <use xlink:href="#ma233775d14" x="774.12125" y="403.800757" style="stroke: #000000; stroke-width: 0.8"/>
      </g>
     </g>
     <g id="text_63">
      <!-- −40 -->
      <g transform="translate(746.016563 407.599976) scale(0.1 -0.1)">
       <use xlink:href="#DejaVuSans-2212"/>
       <use xlink:href="#DejaVuSans-34" transform="translate(83.789062 0)"/>
       <use xlink:href="#DejaVuSans-30" transform="translate(147.412109 0)"/>
      </g>
     </g>
    </g>
    <g id="ytick_31">
     <g id="line2d_66">
      <g>
       <use xlink:href="#ma233775d14" x="774.12125" y="370.467718" style="stroke: #000000; stroke-width: 0.8"/>
      </g>
     </g>
     <g id="text_64">
      <!-- −20 -->
      <g transform="translate(746.016563 374.266936) scale(0.1 -0.1)">
       <use xlink:href="#DejaVuSans-2212"/>
       <use xlink:href="#DejaVuSans-32" transform="translate(83.789062 0)"/>
       <use xlink:href="#DejaVuSans-30" transform="translate(147.412109 0)"/>
      </g>
     </g>
    </g>
    <g id="ytick_32">
     <g id="line2d_67">
      <g>
       <use xlink:href="#ma233775d14" x="774.12125" y="337.134678" style="stroke: #000000; stroke-width: 0.8"/>
      </g>
     </g>
     <g id="text_65">
      <!-- 0 -->
      <g transform="translate(760.75875 340.933897) scale(0.1 -0.1)">
       <use xlink:href="#DejaVuSans-30"/>
      </g>
     </g>
    </g>
    <g id="ytick_33">
     <g id="line2d_68">
      <g>
       <use xlink:href="#ma233775d14" x="774.12125" y="303.801638" style="stroke: #000000; stroke-width: 0.8"/>
      </g>
     </g>
     <g id="text_66">
      <!-- 20 -->
      <g transform="translate(754.39625 307.600857) scale(0.1 -0.1)">
       <use xlink:href="#DejaVuSans-32"/>
       <use xlink:href="#DejaVuSans-30" transform="translate(63.623047 0)"/>
      </g>
     </g>
    </g>
    <g id="text_67">
     <!-- g_t (mS/cm^2) -->
     <g transform="translate(733.29625 453.102179) rotate(-90) scale(0.1 -0.1)">
      <use xlink:href="#DejaVuSans-67"/>
      <use xlink:href="#DejaVuSans-5f" transform="translate(63.476562 0)"/>
      <use xlink:href="#DejaVuSans-74" transform="translate(113.476562 0)"/>
      <use xlink:href="#DejaVuSans-20" transform="translate(152.685547 0)"/>
      <use xlink:href="#DejaVuSans-28" transform="translate(184.472656 0)"/>
      <use xlink:href="#DejaVuSans-6d" transform="translate(223.486328 0)"/>
      <use xlink:href="#DejaVuSans-53" transform="translate(320.898438 0)"/>
      <use xlink:href="#DejaVuSans-2f" transform="translate(384.375 0)"/>
      <use xlink:href="#DejaVuSans-63" transform="translate(418.066406 0)"/>
      <use xlink:href="#DejaVuSans-6d" transform="translate(473.046875 0)"/>
      <use xlink:href="#DejaVuSans-5e" transform="translate(570.458984 0)"/>
      <use xlink:href="#DejaVuSans-32" transform="translate(654.248047 0)"/>
      <use xlink:href="#DejaVuSans-29" transform="translate(717.871094 0)"/>
     </g>
    </g>
   </g>
   <g id="line2d_69">
    <path d="M 774.12125 307.273691 
L 867.235547 314.629357 
L 904.612412 317.824608 
L 934.776199 320.619774 
L 961.005578 323.269348 
L 984.61202 325.876803 
L 1005.595523 328.410675 
L 1025.267558 331.004717 
L 1043.628123 333.646642 
L 1060.67722 336.317339 
L 1077.070582 339.107562 
L 1092.808209 342.014655 
L 1107.890103 345.033003 
L 1122.316261 348.154023 
L 1136.086685 351.366213 
L 1149.201375 354.655239 
L 1161.66033 358.004089 
L 1174.119286 361.588025 
L 1185.922506 365.215753 
L 1197.069992 368.863691 
L 1208.217479 372.7409 
L 1219.364965 376.861612 
L 1229.856717 380.975693 
L 1240.348468 385.33161 
L 1250.184486 389.646909 
L 1260.020503 394.198167 
L 1269.85652 398.997373 
L 1279.692538 404.056952 
L 1288.87282 409.025486 
L 1298.053103 414.242859 
L 1307.233386 419.720229 
L 1316.413669 425.469105 
L 1324.938217 431.060813 
L 1333.462765 436.906604 
L 1341.987314 443.016499 
L 1350.511862 449.400775 
L 1359.03641 456.069968 
L 1367.560958 463.034868 
L 1376.085507 470.306516 
L 1383.954321 477.300828 
L 1391.823134 484.575194 
L 1399.691948 492.138853 
L 1407.560762 500.001213 
L 1415.429576 508.171847 
L 1423.29839 516.660489 
L 1429.2 523.241604 
L 1429.2 523.241604 
" clip-path="url(#p6164faae89)" style="fill: none; stroke: #1f77b4; stroke-width: 1.5; stroke-linecap: square"/>
   </g>
   <g id="line2d_70">
    <path d="M 774.12125 317.171364 
L 838.383229 323.073899 
L 879.038768 327.028875 
L 911.825492 330.43689 
L 940.022075 333.584236 
L 965.595719 336.659715 
L 988.546426 339.637638 
L 1010.185664 342.668678 
L 1029.857699 345.641637 
L 1048.873999 348.739707 
L 1066.57883 351.846759 
L 1083.627927 355.064599 
L 1100.021289 358.389306 
L 1115.758916 361.814217 
L 1130.84081 365.329944 
L 1145.266968 368.924444 
L 1159.037392 372.583141 
L 1172.152082 376.289085 
L 1185.266772 380.225698 
L 1197.725727 384.192744 
L 1210.184682 388.39475 
L 1221.987903 392.604795 
L 1233.791124 397.05013 
L 1245.594344 401.743182 
L 1256.741831 406.414464 
L 1267.889317 411.32911 
L 1279.036803 416.498391 
L 1289.528555 421.606505 
L 1300.020307 426.960134 
L 1310.512058 432.569202 
L 1321.00381 438.443775 
L 1330.839827 444.201383 
L 1340.675845 450.209787 
L 1350.511862 456.477541 
L 1360.347879 463.013258 
L 1370.183896 469.825588 
L 1380.019914 476.923208 
L 1389.200196 483.812707 
L 1398.380479 490.965343 
L 1407.560762 498.388149 
L 1416.741045 506.088127 
L 1425.921328 514.072233 
L 1429.2 516.993873 
L 1429.2 516.993873 
" clip-path="url(#p6164faae89)" style="fill: none; stroke-dasharray: 5.55,2.4; stroke-dashoffset: 0; stroke: #ff7f0e; stroke-width: 1.5"/>
   </g>
   <g id="line2d_71">
    <path d="M 774.12125 337.134678 
L 1429.2 337.134678 
" clip-path="url(#p6164faae89)" style="fill: none; stroke: #000000; stroke-width: 0.5; stroke-linecap: square"/>
   </g>
   <g id="patch_21">
    <path d="M 774.12125 534.04 
L 774.12125 296.475295 
" style="fill: none; stroke: #000000; stroke-width: 0.8; stroke-linejoin: miter; stroke-linecap: square"/>
   </g>
   <g id="patch_22">
    <path d="M 1429.2 534.04 
L 1429.2 296.475295 
" style="fill: none; stroke: #000000; stroke-width: 0.8; stroke-linejoin: miter; stroke-linecap: square"/>
   </g>
   <g id="patch_23">
    <path d="M 774.12125 534.04 
L 1429.2 534.04 
" style="fill: none; stroke: #000000; stroke-width: 0.8; stroke-linejoin: miter; stroke-linecap: square"/>
   </g>
   <g id="patch_24">
    <path d="M 774.12125 296.475295 
L 1429.2 296.475295 
" style="fill: none; stroke: #000000; stroke-width: 0.8; stroke-linejoin: miter; stroke-linecap: square"/>
   </g>
   <g id="legend_4">
    <g id="patch_25">
     <path d="M 1322.559375 334.387795 
L 1422.2 334.387795 
Q 1424.2 334.387795 1424.2 332.387795 
L 1424.2 303.475295 
Q 1424.2 301.475295 1422.2 301.475295 
L 1322.559375 301.475295 
Q 1320.559375 301.475295 1320.559375 303.475295 
L 1320.559375 332.387795 
Q 1320.559375 334.387795 1322.559375 334.387795 
z
" style="fill: #ffffff; opacity: 0.8; stroke: #cccccc; stroke-linejoin: miter"/>
    </g>
    <g id="line2d_72">
     <path d="M 1324.559375 309.573733 
L 1334.559375 309.573733 
L 1344.559375 309.573733 
" style="fill: none; stroke: #1f77b4; stroke-width: 1.5; stroke-linecap: square"/>
    </g>
    <g id="text_68">
     <!-- g_t (spiking) -->
     <g transform="translate(1352.559375 313.073733) scale(0.1 -0.1)">
      <use xlink:href="#DejaVuSans-67"/>
      <use xlink:href="#DejaVuSans-5f" transform="translate(63.476562 0)"/>
      <use xlink:href="#DejaVuSans-74" transform="translate(113.476562 0)"/>
      <use xlink:href="#DejaVuSans-20" transform="translate(152.685547 0)"/>
      <use xlink:href="#DejaVuSans-28" transform="translate(184.472656 0)"/>
      <use xlink:href="#DejaVuSans-73" transform="translate(223.486328 0)"/>
      <use xlink:href="#DejaVuSans-70" transform="translate(275.585938 0)"/>
      <use xlink:href="#DejaVuSans-69" transform="translate(339.0625 0)"/>
      <use xlink:href="#DejaVuSans-6b" transform="translate(366.845703 0)"/>
      <use xlink:href="#DejaVuSans-69" transform="translate(424.755859 0)"/>
      <use xlink:href="#DejaVuSans-6e" transform="translate(452.539062 0)"/>
      <use xlink:href="#DejaVuSans-67" transform="translate(515.917969 0)"/>
      <use xlink:href="#DejaVuSans-29" transform="translate(579.394531 0)"/>
     </g>
    </g>
    <g id="line2d_73">
     <path d="M 1324.559375 324.529983 
L 1334.559375 324.529983 
L 1344.559375 324.529983 
" style="fill: none; stroke-dasharray: 5.55,2.4; stroke-dashoffset: 0; stroke: #ff7f0e; stroke-width: 1.5"/>
    </g>
    <g id="text_69">
     <!-- g_t (bursting) -->
     <g transform="translate(1352.559375 328.029983) scale(0.1 -0.1)">
      <use xlink:href="#DejaVuSans-67"/>
      <use xlink:href="#DejaVuSans-5f" transform="translate(63.476562 0)"/>
      <use xlink:href="#DejaVuSans-74" transform="translate(113.476562 0)"/>
      <use xlink:href="#DejaVuSans-20" transform="translate(152.685547 0)"/>
      <use xlink:href="#DejaVuSans-28" transform="translate(184.472656 0)"/>
      <use xlink:href="#DejaVuSans-62" transform="translate(223.486328 0)"/>
      <use xlink:href="#DejaVuSans-75" transform="translate(286.962891 0)"/>
      <use xlink:href="#DejaVuSans-72" transform="translate(350.341797 0)"/>
      <use xlink:href="#DejaVuSans-73" transform="translate(391.455078 0)"/>
      <use xlink:href="#DejaVuSans-74" transform="translate(443.554688 0)"/>
      <use xlink:href="#DejaVuSans-69" transform="translate(482.763672 0)"/>
      <use xlink:href="#DejaVuSans-6e" transform="translate(510.546875 0)"/>
      <use xlink:href="#DejaVuSans-67" transform="translate(573.925781 0)"/>
      <use xlink:href="#DejaVuSans-29" transform="translate(637.402344 0)"/>
     </g>
    </g>
   </g>
  </g>
 </g>
 <defs>
  <clipPath id="pe3861eef80">
   <rect x="59.52125" y="13.548479" width="655.07875" height="237.564705"/>
  </clipPath>
  <clipPath id="p820507d4ca">
   <rect x="774.12125" y="13.548479" width="655.07875" height="237.564705"/>
  </clipPath>
  <clipPath id="p16a3084009">
   <rect x="59.52125" y="296.475295" width="655.07875" height="237.564705"/>
  </clipPath>
  <clipPath id="p6164faae89">
   <rect x="774.12125" y="296.475295" width="655.07875" height="237.564705"/>
  </clipPath>
 </defs>
</svg>
