<?xml version="1.0" encoding="utf-8" standalone="no"?>
<!DOCTYPE svg PUBLIC "-//W3C//DTD SVG 1.1//EN"
  "http://www.w3.org/Graphics/SVG/1.1/DTD/svg11.dtd">
<svg xmlns:xlink="http://www.w3.org/1999/xlink" width="576pt" height="576pt" viewBox="0 0 576 576" xmlns="http://www.w3.org/2000/svg" version="1.1">
 <metadata>
  <rdf:RDF xmlns:dc="http://purl.org/dc/elements/1.1/" xmlns:cc="http://creativecommons.org/ns#" xmlns:rdf="http://www.w3.org/1999/02/22-rdf-syntax-ns#">
   <cc:Work>
    <dc:type rdf:resource="http://purl.org/dc/dcmitype/StillImage"/>
    <dc:date>2025-03-19T19:21:00.900294</dc:date>
    <dc:format>image/svg+xml</dc:format>
    <dc:creator>
     <cc:Agent>
      <dc:title>Matplotlib v3.10.0, https://matplotlib.org/</dc:title>
     </cc:Agent>
    </dc:creator>
   </cc:Work>
  </rdf:RDF>
 </metadata>
 <defs>
  <style type="text/css">*{stroke-linejoin: round; stroke-linecap: butt}</style>
 </defs>
 <g id="figure_1">
  <g id="patch_1">
   <path d="M 0 576 
L 576 576 
L 576 0 
L 0 0 
z
" style="fill: #ffffff"/>
  </g>
  <g id="axes_1">
   <g id="patch_2">
    <path d="M 72 512.64 
L 518.4 512.64 
L 518.4 69.12 
L 72 69.12 
z
" style="fill: #ffffff"/>
   </g>
   <g id="matplotlib.axis_1">
    <g id="xtick_1">
     <g id="line2d_1">
      <defs>
       <path id="mc9989d47d8" d="M 0 0 
L 0 3.5 
" style="stroke: #000000; stroke-width: 0.8"/>
      </defs>
      <g>
       <use xlink:href="#mc9989d47d8" x="72" y="512.64" style="stroke: #000000; stroke-width: 0.8"/>
      </g>
     </g>
     <g id="text_1">
      <!-- 3000 -->
      <g transform="translate(59.275 527.238438) scale(0.1 -0.1)">
       <defs>
        <path id="DejaVuSans-33" d="M 2597 2516 
Q 3050 2419 3304 2112 
Q 3559 1806 3559 1356 
Q 3559 666 3084 287 
Q 2609 -91 1734 -91 
Q 1441 -91 1130 -33 
Q 819 25 488 141 
L 488 750 
Q 750 597 1062 519 
Q 1375 441 1716 441 
Q 2309 441 2620 675 
Q 2931 909 2931 1356 
Q 2931 1769 2642 2001 
Q 2353 2234 1838 2234 
L 1294 2234 
L 1294 2753 
L 1863 2753 
Q 2328 2753 2575 2939 
Q 2822 3125 2822 3475 
Q 2822 3834 2567 4026 
Q 2313 4219 1838 4219 
Q 1578 4219 1281 4162 
Q 984 4106 628 3988 
L 628 4550 
Q 988 4650 1302 4700 
Q 1616 4750 1894 4750 
Q 2613 4750 3031 4423 
Q 3450 4097 3450 3541 
Q 3450 3153 3228 2886 
Q 3006 2619 2597 2516 
z
" transform="scale(0.015625)"/>
        <path id="DejaVuSans-30" d="M 2034 4250 
Q 1547 4250 1301 3770 
Q 1056 3291 1056 2328 
Q 1056 1369 1301 889 
Q 1547 409 2034 409 
Q 2525 409 2770 889 
Q 3016 1369 3016 2328 
Q 3016 3291 2770 3770 
Q 2525 4250 2034 4250 
z
M 2034 4750 
Q 2819 4750 3233 4129 
Q 3647 3509 3647 2328 
Q 3647 1150 3233 529 
Q 2819 -91 2034 -91 
Q 1250 -91 836 529 
Q 422 1150 422 2328 
Q 422 3509 836 4129 
Q 1250 4750 2034 4750 
z
" transform="scale(0.015625)"/>
       </defs>
       <use xlink:href="#DejaVuSans-33"/>
       <use xlink:href="#DejaVuSans-30" transform="translate(63.623047 0)"/>
       <use xlink:href="#DejaVuSans-30" transform="translate(127.246094 0)"/>
       <use xlink:href="#DejaVuSans-30" transform="translate(190.869141 0)"/>
      </g>
     </g>
    </g>
    <g id="xtick_2">
     <g id="line2d_2">
      <g>
       <use xlink:href="#mc9989d47d8" x="131.52" y="512.64" style="stroke: #000000; stroke-width: 0.8"/>
      </g>
     </g>
     <g id="text_2">
      <!-- 3100 -->
      <g transform="translate(118.795 527.238438) scale(0.1 -0.1)">
       <defs>
        <path id="DejaVuSans-31" d="M 794 531 
L 1825 531 
L 1825 4091 
L 703 3866 
L 703 4441 
L 1819 4666 
L 2450 4666 
L 2450 531 
L 3481 531 
L 3481 0 
L 794 0 
L 794 531 
z
" transform="scale(0.015625)"/>
       </defs>
       <use xlink:href="#DejaVuSans-33"/>
       <use xlink:href="#DejaVuSans-31" transform="translate(63.623047 0)"/>
       <use xlink:href="#DejaVuSans-30" transform="translate(127.246094 0)"/>
       <use xlink:href="#DejaVuSans-30" transform="translate(190.869141 0)"/>
      </g>
     </g>
    </g>
    <g id="xtick_3">
     <g id="line2d_3">
      <g>
       <use xlink:href="#mc9989d47d8" x="191.04" y="512.64" style="stroke: #000000; stroke-width: 0.8"/>
      </g>
     </g>
     <g id="text_3">
      <!-- 3200 -->
      <g transform="translate(178.315 527.238438) scale(0.1 -0.1)">
       <defs>
        <path id="DejaVuSans-32" d="M 1228 531 
L 3431 531 
L 3431 0 
L 469 0 
L 469 531 
Q 828 903 1448 1529 
Q 2069 2156 2228 2338 
Q 2531 2678 2651 2914 
Q 2772 3150 2772 3378 
Q 2772 3750 2511 3984 
Q 2250 4219 1831 4219 
Q 1534 4219 1204 4116 
Q 875 4013 500 3803 
L 500 4441 
Q 881 4594 1212 4672 
Q 1544 4750 1819 4750 
Q 2544 4750 2975 4387 
Q 3406 4025 3406 3419 
Q 3406 3131 3298 2873 
Q 3191 2616 2906 2266 
Q 2828 2175 2409 1742 
Q 1991 1309 1228 531 
z
" transform="scale(0.015625)"/>
       </defs>
       <use xlink:href="#DejaVuSans-33"/>
       <use xlink:href="#DejaVuSans-32" transform="translate(63.623047 0)"/>
       <use xlink:href="#DejaVuSans-30" transform="translate(127.246094 0)"/>
       <use xlink:href="#DejaVuSans-30" transform="translate(190.869141 0)"/>
      </g>
     </g>
    </g>
    <g id="xtick_4">
     <g id="line2d_4">
      <g>
       <use xlink:href="#mc9989d47d8" x="250.56" y="512.64" style="stroke: #000000; stroke-width: 0.8"/>
      </g>
     </g>
     <g id="text_4">
      <!-- 3300 -->
      <g transform="translate(237.835 527.238438) scale(0.1 -0.1)">
       <use xlink:href="#DejaVuSans-33"/>
       <use xlink:href="#DejaVuSans-33" transform="translate(63.623047 0)"/>
       <use xlink:href="#DejaVuSans-30" transform="translate(127.246094 0)"/>
       <use xlink:href="#DejaVuSans-30" transform="translate(190.869141 0)"/>
      </g>
     </g>
    </g>
    <g id="xtick_5">
     <g id="line2d_5">
      <g>
       <use xlink:href="#mc9989d47d8" x="310.08" y="512.64" style="stroke: #000000; stroke-width: 0.8"/>
      </g>
     </g>
     <g id="text_5">
      <!-- 3400 -->
      <g transform="translate(297.355 527.238438) scale(0.1 -0.1)">
       <defs>
        <path id="DejaVuSans-34" d="M 2419 4116 
L 825 1625 
L 2419 1625 
L 2419 4116 
z
M 2253 4666 
L 3047 4666 
L 3047 1625 
L 3713 1625 
L 3713 1100 
L 3047 1100 
L 3047 0 
L 2419 0 
L 2419 1100 
L 313 1100 
L 313 1709 
L 2253 4666 
z
" transform="scale(0.015625)"/>
       </defs>
       <use xlink:href="#DejaVuSans-33"/>
       <use xlink:href="#DejaVuSans-34" transform="translate(63.623047 0)"/>
       <use xlink:href="#DejaVuSans-30" transform="translate(127.246094 0)"/>
       <use xlink:href="#DejaVuSans-30" transform="translate(190.869141 0)"/>
      </g>
     </g>
    </g>
    <g id="xtick_6">
     <g id="line2d_6">
      <g>
       <use xlink:href="#mc9989d47d8" x="369.6" y="512.64" style="stroke: #000000; stroke-width: 0.8"/>
      </g>
     </g>
     <g id="text_6">
      <!-- 3500 -->
      <g transform="translate(356.875 527.238438) scale(0.1 -0.1)">
       <defs>
        <path id="DejaVuSans-35" d="M 691 4666 
L 3169 4666 
L 3169 4134 
L 1269 4134 
L 1269 2991 
Q 1406 3038 1543 3061 
Q 1681 3084 1819 3084 
Q 2600 3084 3056 2656 
Q 3513 2228 3513 1497 
Q 3513 744 3044 326 
Q 2575 -91 1722 -91 
Q 1428 -91 1123 -41 
Q 819 9 494 109 
L 494 744 
Q 775 591 1075 516 
Q 1375 441 1709 441 
Q 2250 441 2565 725 
Q 2881 1009 2881 1497 
Q 2881 1984 2565 2268 
Q 2250 2553 1709 2553 
Q 1456 2553 1204 2497 
Q 953 2441 691 2322 
L 691 4666 
z
" transform="scale(0.015625)"/>
       </defs>
       <use xlink:href="#DejaVuSans-33"/>
       <use xlink:href="#DejaVuSans-35" transform="translate(63.623047 0)"/>
       <use xlink:href="#DejaVuSans-30" transform="translate(127.246094 0)"/>
       <use xlink:href="#DejaVuSans-30" transform="translate(190.869141 0)"/>
      </g>
     </g>
    </g>
    <g id="xtick_7">
     <g id="line2d_7">
      <g>
       <use xlink:href="#mc9989d47d8" x="429.12" y="512.64" style="stroke: #000000; stroke-width: 0.8"/>
      </g>
     </g>
     <g id="text_7">
      <!-- 3600 -->
      <g transform="translate(416.395 527.238438) scale(0.1 -0.1)">
       <defs>
        <path id="DejaVuSans-36" d="M 2113 2584 
Q 1688 2584 1439 2293 
Q 1191 2003 1191 1497 
Q 1191 994 1439 701 
Q 1688 409 2113 409 
Q 2538 409 2786 701 
Q 3034 994 3034 1497 
Q 3034 2003 2786 2293 
Q 2538 2584 2113 2584 
z
M 3366 4563 
L 3366 3988 
Q 3128 4100 2886 4159 
Q 2644 4219 2406 4219 
Q 1781 4219 1451 3797 
Q 1122 3375 1075 2522 
Q 1259 2794 1537 2939 
Q 1816 3084 2150 3084 
Q 2853 3084 3261 2657 
Q 3669 2231 3669 1497 
Q 3669 778 3244 343 
Q 2819 -91 2113 -91 
Q 1303 -91 875 529 
Q 447 1150 447 2328 
Q 447 3434 972 4092 
Q 1497 4750 2381 4750 
Q 2619 4750 2861 4703 
Q 3103 4656 3366 4563 
z
" transform="scale(0.015625)"/>
       </defs>
       <use xlink:href="#DejaVuSans-33"/>
       <use xlink:href="#DejaVuSans-36" transform="translate(63.623047 0)"/>
       <use xlink:href="#DejaVuSans-30" transform="translate(127.246094 0)"/>
       <use xlink:href="#DejaVuSans-30" transform="translate(190.869141 0)"/>
      </g>
     </g>
    </g>
    <g id="xtick_8">
     <g id="line2d_8">
      <g>
       <use xlink:href="#mc9989d47d8" x="488.64" y="512.64" style="stroke: #000000; stroke-width: 0.8"/>
      </g>
     </g>
     <g id="text_8">
      <!-- 3700 -->
      <g transform="translate(475.915 527.238438) scale(0.1 -0.1)">
       <defs>
        <path id="DejaVuSans-37" d="M 525 4666 
L 3525 4666 
L 3525 4397 
L 1831 0 
L 1172 0 
L 2766 4134 
L 525 4134 
L 525 4666 
z
" transform="scale(0.015625)"/>
       </defs>
       <use xlink:href="#DejaVuSans-33"/>
       <use xlink:href="#DejaVuSans-37" transform="translate(63.623047 0)"/>
       <use xlink:href="#DejaVuSans-30" transform="translate(127.246094 0)"/>
       <use xlink:href="#DejaVuSans-30" transform="translate(190.869141 0)"/>
      </g>
     </g>
    </g>
    <g id="text_9">
     <!-- Time (ms) -->
     <g transform="translate(270.000781 540.916563) scale(0.1 -0.1)">
      <defs>
       <path id="DejaVuSans-54" d="M -19 4666 
L 3928 4666 
L 3928 4134 
L 2272 4134 
L 2272 0 
L 1638 0 
L 1638 4134 
L -19 4134 
L -19 4666 
z
" transform="scale(0.015625)"/>
       <path id="DejaVuSans-69" d="M 603 3500 
L 1178 3500 
L 1178 0 
L 603 0 
L 603 3500 
z
M 603 4863 
L 1178 4863 
L 1178 4134 
L 603 4134 
L 603 4863 
z
" transform="scale(0.015625)"/>
       <path id="DejaVuSans-6d" d="M 3328 2828 
Q 3544 3216 3844 3400 
Q 4144 3584 4550 3584 
Q 5097 3584 5394 3201 
Q 5691 2819 5691 2113 
L 5691 0 
L 5113 0 
L 5113 2094 
Q 5113 2597 4934 2840 
Q 4756 3084 4391 3084 
Q 3944 3084 3684 2787 
Q 3425 2491 3425 1978 
L 3425 0 
L 2847 0 
L 2847 2094 
Q 2847 2600 2669 2842 
Q 2491 3084 2119 3084 
Q 1678 3084 1418 2786 
Q 1159 2488 1159 1978 
L 1159 0 
L 581 0 
L 581 3500 
L 1159 3500 
L 1159 2956 
Q 1356 3278 1631 3431 
Q 1906 3584 2284 3584 
Q 2666 3584 2933 3390 
Q 3200 3197 3328 2828 
z
" transform="scale(0.015625)"/>
       <path id="DejaVuSans-65" d="M 3597 1894 
L 3597 1613 
L 953 1613 
Q 991 1019 1311 708 
Q 1631 397 2203 397 
Q 2534 397 2845 478 
Q 3156 559 3463 722 
L 3463 178 
Q 3153 47 2828 -22 
Q 2503 -91 2169 -91 
Q 1331 -91 842 396 
Q 353 884 353 1716 
Q 353 2575 817 3079 
Q 1281 3584 2069 3584 
Q 2775 3584 3186 3129 
Q 3597 2675 3597 1894 
z
M 3022 2063 
Q 3016 2534 2758 2815 
Q 2500 3097 2075 3097 
Q 1594 3097 1305 2825 
Q 1016 2553 972 2059 
L 3022 2063 
z
" transform="scale(0.015625)"/>
       <path id="DejaVuSans-20" transform="scale(0.015625)"/>
       <path id="DejaVuSans-28" d="M 1984 4856 
Q 1566 4138 1362 3434 
Q 1159 2731 1159 2009 
Q 1159 1288 1364 580 
Q 1569 -128 1984 -844 
L 1484 -844 
Q 1016 -109 783 600 
Q 550 1309 550 2009 
Q 550 2706 781 3412 
Q 1013 4119 1484 4856 
L 1984 4856 
z
" transform="scale(0.015625)"/>
       <path id="DejaVuSans-73" d="M 2834 3397 
L 2834 2853 
Q 2591 2978 2328 3040 
Q 2066 3103 1784 3103 
Q 1356 3103 1142 2972 
Q 928 2841 928 2578 
Q 928 2378 1081 2264 
Q 1234 2150 1697 2047 
L 1894 2003 
Q 2506 1872 2764 1633 
Q 3022 1394 3022 966 
Q 3022 478 2636 193 
Q 2250 -91 1575 -91 
Q 1294 -91 989 -36 
Q 684 19 347 128 
L 347 722 
Q 666 556 975 473 
Q 1284 391 1588 391 
Q 1994 391 2212 530 
Q 2431 669 2431 922 
Q 2431 1156 2273 1281 
Q 2116 1406 1581 1522 
L 1381 1569 
Q 847 1681 609 1914 
Q 372 2147 372 2553 
Q 372 3047 722 3315 
Q 1072 3584 1716 3584 
Q 2034 3584 2315 3537 
Q 2597 3491 2834 3397 
z
" transform="scale(0.015625)"/>
       <path id="DejaVuSans-29" d="M 513 4856 
L 1013 4856 
Q 1481 4119 1714 3412 
Q 1947 2706 1947 2009 
Q 1947 1309 1714 600 
Q 1481 -109 1013 -844 
L 513 -844 
Q 928 -128 1133 580 
Q 1338 1288 1338 2009 
Q 1338 2731 1133 3434 
Q 928 4138 513 4856 
z
" transform="scale(0.015625)"/>
      </defs>
      <use xlink:href="#DejaVuSans-54"/>
      <use xlink:href="#DejaVuSans-69" transform="translate(57.958984 0)"/>
      <use xlink:href="#DejaVuSans-6d" transform="translate(85.742188 0)"/>
      <use xlink:href="#DejaVuSans-65" transform="translate(183.154297 0)"/>
      <use xlink:href="#DejaVuSans-20" transform="translate(244.677734 0)"/>
      <use xlink:href="#DejaVuSans-28" transform="translate(276.464844 0)"/>
      <use xlink:href="#DejaVuSans-6d" transform="translate(315.478516 0)"/>
      <use xlink:href="#DejaVuSans-73" transform="translate(412.890625 0)"/>
      <use xlink:href="#DejaVuSans-29" transform="translate(464.990234 0)"/>
     </g>
    </g>
   </g>
   <g id="matplotlib.axis_2">
    <g id="ytick_1">
     <g id="line2d_9">
      <defs>
       <path id="mf02ab40bae" d="M 0 0 
L -3.5 0 
" style="stroke: #000000; stroke-width: 0.8"/>
      </defs>
      <g>
       <use xlink:href="#mf02ab40bae" x="72" y="505.610292" style="stroke: #000000; stroke-width: 0.8"/>
      </g>
     </g>
     <g id="text_10">
      <!-- −80 -->
      <g transform="translate(43.895313 509.40951) scale(0.1 -0.1)">
       <defs>
        <path id="DejaVuSans-2212" d="M 678 2272 
L 4684 2272 
L 4684 1741 
L 678 1741 
L 678 2272 
z
" transform="scale(0.015625)"/>
        <path id="DejaVuSans-38" d="M 2034 2216 
Q 1584 2216 1326 1975 
Q 1069 1734 1069 1313 
Q 1069 891 1326 650 
Q 1584 409 2034 409 
Q 2484 409 2743 651 
Q 3003 894 3003 1313 
Q 3003 1734 2745 1975 
Q 2488 2216 2034 2216 
z
M 1403 2484 
Q 997 2584 770 2862 
Q 544 3141 544 3541 
Q 544 4100 942 4425 
Q 1341 4750 2034 4750 
Q 2731 4750 3128 4425 
Q 3525 4100 3525 3541 
Q 3525 3141 3298 2862 
Q 3072 2584 2669 2484 
Q 3125 2378 3379 2068 
Q 3634 1759 3634 1313 
Q 3634 634 3220 271 
Q 2806 -91 2034 -91 
Q 1263 -91 848 271 
Q 434 634 434 1313 
Q 434 1759 690 2068 
Q 947 2378 1403 2484 
z
M 1172 3481 
Q 1172 3119 1398 2916 
Q 1625 2713 2034 2713 
Q 2441 2713 2670 2916 
Q 2900 3119 2900 3481 
Q 2900 3844 2670 4047 
Q 2441 4250 2034 4250 
Q 1625 4250 1398 4047 
Q 1172 3844 1172 3481 
z
" transform="scale(0.015625)"/>
       </defs>
       <use xlink:href="#DejaVuSans-2212"/>
       <use xlink:href="#DejaVuSans-38" transform="translate(83.789062 0)"/>
       <use xlink:href="#DejaVuSans-30" transform="translate(147.412109 0)"/>
      </g>
     </g>
    </g>
    <g id="ytick_2">
     <g id="line2d_10">
      <g>
       <use xlink:href="#mf02ab40bae" x="72" y="441.535152" style="stroke: #000000; stroke-width: 0.8"/>
      </g>
     </g>
     <g id="text_11">
      <!-- −60 -->
      <g transform="translate(43.895313 445.334371) scale(0.1 -0.1)">
       <use xlink:href="#DejaVuSans-2212"/>
       <use xlink:href="#DejaVuSans-36" transform="translate(83.789062 0)"/>
       <use xlink:href="#DejaVuSans-30" transform="translate(147.412109 0)"/>
      </g>
     </g>
    </g>
    <g id="ytick_3">
     <g id="line2d_11">
      <g>
       <use xlink:href="#mf02ab40bae" x="72" y="377.460013" style="stroke: #000000; stroke-width: 0.8"/>
      </g>
     </g>
     <g id="text_12">
      <!-- −40 -->
      <g transform="translate(43.895313 381.259232) scale(0.1 -0.1)">
       <use xlink:href="#DejaVuSans-2212"/>
       <use xlink:href="#DejaVuSans-34" transform="translate(83.789062 0)"/>
       <use xlink:href="#DejaVuSans-30" transform="translate(147.412109 0)"/>
      </g>
     </g>
    </g>
    <g id="ytick_4">
     <g id="line2d_12">
      <g>
       <use xlink:href="#mf02ab40bae" x="72" y="313.384874" style="stroke: #000000; stroke-width: 0.8"/>
      </g>
     </g>
     <g id="text_13">
      <!-- −20 -->
      <g transform="translate(43.895313 317.184093) scale(0.1 -0.1)">
       <use xlink:href="#DejaVuSans-2212"/>
       <use xlink:href="#DejaVuSans-32" transform="translate(83.789062 0)"/>
       <use xlink:href="#DejaVuSans-30" transform="translate(147.412109 0)"/>
      </g>
     </g>
    </g>
    <g id="ytick_5">
     <g id="line2d_13">
      <g>
       <use xlink:href="#mf02ab40bae" x="72" y="249.309734" style="stroke: #000000; stroke-width: 0.8"/>
      </g>
     </g>
     <g id="text_14">
      <!-- 0 -->
      <g transform="translate(58.6375 253.108953) scale(0.1 -0.1)">
       <use xlink:href="#DejaVuSans-30"/>
      </g>
     </g>
    </g>
    <g id="ytick_6">
     <g id="line2d_14">
      <g>
       <use xlink:href="#mf02ab40bae" x="72" y="185.234595" style="stroke: #000000; stroke-width: 0.8"/>
      </g>
     </g>
     <g id="text_15">
      <!-- 20 -->
      <g transform="translate(52.275 189.033814) scale(0.1 -0.1)">
       <use xlink:href="#DejaVuSans-32"/>
       <use xlink:href="#DejaVuSans-30" transform="translate(63.623047 0)"/>
      </g>
     </g>
    </g>
    <g id="ytick_7">
     <g id="line2d_15">
      <g>
       <use xlink:href="#mf02ab40bae" x="72" y="121.159456" style="stroke: #000000; stroke-width: 0.8"/>
      </g>
     </g>
     <g id="text_16">
      <!-- 40 -->
      <g transform="translate(52.275 124.958675) scale(0.1 -0.1)">
       <use xlink:href="#DejaVuSans-34"/>
       <use xlink:href="#DejaVuSans-30" transform="translate(63.623047 0)"/>
      </g>
     </g>
    </g>
    <g id="text_17">
     <!-- Voltage (mV) -->
     <g transform="translate(37.815625 323.4175) rotate(-90) scale(0.1 -0.1)">
      <defs>
       <path id="DejaVuSans-56" d="M 1831 0 
L 50 4666 
L 709 4666 
L 2188 738 
L 3669 4666 
L 4325 4666 
L 2547 0 
L 1831 0 
z
" transform="scale(0.015625)"/>
       <path id="DejaVuSans-6f" d="M 1959 3097 
Q 1497 3097 1228 2736 
Q 959 2375 959 1747 
Q 959 1119 1226 758 
Q 1494 397 1959 397 
Q 2419 397 2687 759 
Q 2956 1122 2956 1747 
Q 2956 2369 2687 2733 
Q 2419 3097 1959 3097 
z
M 1959 3584 
Q 2709 3584 3137 3096 
Q 3566 2609 3566 1747 
Q 3566 888 3137 398 
Q 2709 -91 1959 -91 
Q 1206 -91 779 398 
Q 353 888 353 1747 
Q 353 2609 779 3096 
Q 1206 3584 1959 3584 
z
" transform="scale(0.015625)"/>
       <path id="DejaVuSans-6c" d="M 603 4863 
L 1178 4863 
L 1178 0 
L 603 0 
L 603 4863 
z
" transform="scale(0.015625)"/>
       <path id="DejaVuSans-74" d="M 1172 4494 
L 1172 3500 
L 2356 3500 
L 2356 3053 
L 1172 3053 
L 1172 1153 
Q 1172 725 1289 603 
Q 1406 481 1766 481 
L 2356 481 
L 2356 0 
L 1766 0 
Q 1100 0 847 248 
Q 594 497 594 1153 
L 594 3053 
L 172 3053 
L 172 3500 
L 594 3500 
L 594 4494 
L 1172 4494 
z
" transform="scale(0.015625)"/>
       <path id="DejaVuSans-61" d="M 2194 1759 
Q 1497 1759 1228 1600 
Q 959 1441 959 1056 
Q 959 750 1161 570 
Q 1363 391 1709 391 
Q 2188 391 2477 730 
Q 2766 1069 2766 1631 
L 2766 1759 
L 2194 1759 
z
M 3341 1997 
L 3341 0 
L 2766 0 
L 2766 531 
Q 2569 213 2275 61 
Q 1981 -91 1556 -91 
Q 1019 -91 701 211 
Q 384 513 384 1019 
Q 384 1609 779 1909 
Q 1175 2209 1959 2209 
L 2766 2209 
L 2766 2266 
Q 2766 2663 2505 2880 
Q 2244 3097 1772 3097 
Q 1472 3097 1187 3025 
Q 903 2953 641 2809 
L 641 3341 
Q 956 3463 1253 3523 
Q 1550 3584 1831 3584 
Q 2591 3584 2966 3190 
Q 3341 2797 3341 1997 
z
" transform="scale(0.015625)"/>
       <path id="DejaVuSans-67" d="M 2906 1791 
Q 2906 2416 2648 2759 
Q 2391 3103 1925 3103 
Q 1463 3103 1205 2759 
Q 947 2416 947 1791 
Q 947 1169 1205 825 
Q 1463 481 1925 481 
Q 2391 481 2648 825 
Q 2906 1169 2906 1791 
z
M 3481 434 
Q 3481 -459 3084 -895 
Q 2688 -1331 1869 -1331 
Q 1566 -1331 1297 -1286 
Q 1028 -1241 775 -1147 
L 775 -588 
Q 1028 -725 1275 -790 
Q 1522 -856 1778 -856 
Q 2344 -856 2625 -561 
Q 2906 -266 2906 331 
L 2906 616 
Q 2728 306 2450 153 
Q 2172 0 1784 0 
Q 1141 0 747 490 
Q 353 981 353 1791 
Q 353 2603 747 3093 
Q 1141 3584 1784 3584 
Q 2172 3584 2450 3431 
Q 2728 3278 2906 2969 
L 2906 3500 
L 3481 3500 
L 3481 434 
z
" transform="scale(0.015625)"/>
      </defs>
      <use xlink:href="#DejaVuSans-56"/>
      <use xlink:href="#DejaVuSans-6f" transform="translate(60.658203 0)"/>
      <use xlink:href="#DejaVuSans-6c" transform="translate(121.839844 0)"/>
      <use xlink:href="#DejaVuSans-74" transform="translate(149.623047 0)"/>
      <use xlink:href="#DejaVuSans-61" transform="translate(188.832031 0)"/>
      <use xlink:href="#DejaVuSans-67" transform="translate(250.111328 0)"/>
      <use xlink:href="#DejaVuSans-65" transform="translate(313.587891 0)"/>
      <use xlink:href="#DejaVuSans-20" transform="translate(375.111328 0)"/>
      <use xlink:href="#DejaVuSans-28" transform="translate(406.898438 0)"/>
      <use xlink:href="#DejaVuSans-6d" transform="translate(445.912109 0)"/>
      <use xlink:href="#DejaVuSans-56" transform="translate(543.324219 0)"/>
      <use xlink:href="#DejaVuSans-29" transform="translate(611.732422 0)"/>
     </g>
    </g>
   </g>
   <g id="line2d_16">
    <path d="M 72 452.414352 
L 73.51776 432.173583 
L 74.85696 411.534489 
L 76.55328 381.867949 
L 76.73184 374.445102 
L 76.82112 358.461423 
L 76.94016 92.194641 
L 77.0592 94.439599 
L 77.26752 105.272303 
L 77.56512 136.193879 
L 78.42816 266.42851 
L 78.60672 309.124733 
L 78.81504 451.798079 
L 78.93408 456.288224 
L 78.96384 456.20934 
L 79.20192 453.8601 
L 80.4816 441.0653 
L 81.49344 433.123566 
L 82.38624 427.807921 
L 83.13024 424.580675 
L 83.7552 422.757071 
L 84.26112 421.900998 
L 84.648 421.633014 
L 84.97536 421.6661 
L 85.30272 421.940768 
L 85.71936 422.621336 
L 86.22528 423.945449 
L 86.85024 426.283372 
L 87.59424 430.008281 
L 88.45728 435.516432 
L 89.43936 443.264875 
L 90.65952 454.800507 
L 93.30816 480.468616 
L 94.14144 485.981273 
L 94.82592 489.050564 
L 95.42112 490.771232 
L 95.98656 491.759368 
L 96.46272 492.223179 
L 96.9984 492.439558 
L 97.47456 492.424558 
L 98.12928 492.178858 
L 98.9328 491.614302 
L 100.15296 490.416094 
L 101.81952 488.433516 
L 103.42656 486.211507 
L 105.39072 483.107883 
L 107.80128 478.871016 
L 109.944 474.679259 
L 112.23552 469.666385 
L 114.97344 463.220672 
L 118.21728 454.9989 
L 130.15104 424.15223 
L 133.42464 416.753565 
L 137.97792 406.488164 
L 139.07904 403.319581 
L 139.8528 400.375818 
L 140.41824 397.283736 
L 140.80512 393.848133 
L 141.07296 389.349816 
L 141.25152 382.874414 
L 141.37056 368.482599 
L 141.40032 354.330857 
L 141.4896 89.329618 
L 141.54912 89.564448 
L 141.69792 92.027415 
L 141.87648 100.828402 
L 142.14432 129.301886 
L 142.79904 237.606552 
L 143.15616 308.273204 
L 143.39424 454.735258 
L 143.48352 456.730897 
L 143.54304 456.434878 
L 143.92992 451.854494 
L 145.00128 437.351538 
L 145.86432 422.794008 
L 146.66784 405.228923 
L 147.32256 386.408647 
L 147.50112 376.591564 
L 147.5904 356.035696 
L 147.70944 91.758155 
L 147.7392 92.0461 
L 147.888 96.159396 
L 148.12608 110.323828 
L 148.45344 145.271359 
L 149.40576 285.354211 
L 149.49504 328.183021 
L 149.64384 445.112765 
L 149.79264 454.051565 
L 149.9712 452.176366 
L 151.48896 428.499825 
L 152.352 410.350133 
L 153.21504 387.338427 
L 153.45312 376.471497 
L 153.5424 363.138133 
L 153.57216 338.975514 
L 153.66144 92.470763 
L 153.6912 92.580504 
L 153.81024 95.396053 
L 154.04832 108.219335 
L 154.37568 141.273523 
L 155.26848 268.612177 
L 155.41728 299.570489 
L 155.74464 454.756047 
L 155.7744 454.729097 
L 155.95296 452.826693 
L 157.7088 429.11989 
L 159.07776 407.398069 
L 160.50624 382.004046 
L 160.6848 374.794514 
L 160.77408 360.837818 
L 160.80384 329.93428 
L 160.89312 92.231801 
L 160.92288 92.320852 
L 161.07168 96.459169 
L 161.28 109.540247 
L 161.60736 147.756438 
L 162.52992 293.988038 
L 162.58944 334.294814 
L 162.73824 446.444978 
L 162.88704 456.22216 
L 162.94656 455.979794 
L 163.33344 451.899446 
L 164.76192 438.156308 
L 165.71424 431.14931 
L 166.54752 426.51127 
L 167.26176 423.655211 
L 167.85696 422.089384 
L 168.33312 421.382042 
L 168.72 421.171182 
L 169.04736 421.251493 
L 169.40448 421.610483 
L 169.82112 422.382946 
L 170.32704 423.826777 
L 170.98176 426.395349 
L 171.75552 430.438975 
L 172.64832 436.403432 
L 173.68992 444.949264 
L 175.02912 457.943609 
L 177.14208 478.631438 
L 177.97536 484.623047 
L 178.65984 488.098945 
L 179.2848 490.21855 
L 179.85024 491.423898 
L 180.35616 492.058041 
L 180.86208 492.340936 
L 181.368 492.384557 
L 182.02272 492.181757 
L 182.73696 491.740997 
L 183.7488 490.846129 
L 185.05824 489.347693 
L 187.37952 486.283676 
L 189.16512 483.566624 
L 190.95072 480.3893 
L 194.81952 472.803585 
L 196.81344 468.383233 
L 199.6704 461.469853 
L 203.5392 451.538684 
L 212.70528 427.611092 
L 215.97888 419.95108 
L 222.4368 405.241561 
L 223.3296 402.461181 
L 223.98432 399.765581 
L 224.49024 396.787866 
L 224.84736 393.358494 
L 225.1152 388.28989 
L 225.29376 380.149084 
L 225.38304 365.144549 
L 225.4128 341.840591 
L 225.47232 89.282781 
L 225.53184 89.441041 
L 225.65088 90.834468 
L 225.79968 95.984597 
L 226.008 112.336794 
L 226.33536 158.627171 
L 227.16864 315.105184 
L 227.3472 449.535749 
L 227.496 456.709985 
L 227.6448 455.402698 
L 229.22208 433.976603 
L 230.05536 419.053163 
L 230.85888 400.416678 
L 231.3648 384.71029 
L 231.54336 371.931105 
L 231.60288 347.382591 
L 231.69216 91.745325 
L 231.72192 91.835143 
L 231.84096 94.374945 
L 232.04928 104.488247 
L 232.34688 131.787824 
L 232.88256 207.435608 
L 233.47776 308.696806 
L 233.68608 450.144783 
L 233.80512 453.963947 
L 233.83488 453.807314 
L 234.10272 450.410512 
L 235.11456 435.119909 
L 235.9776 418.7861 
L 236.8704 397.370261 
L 237.37632 381.172596 
L 237.52512 368.283015 
L 237.55488 358.823588 
L 237.67392 92.471223 
L 237.7632 93.924128 
L 237.97152 102.93916 
L 238.26912 128.526562 
L 238.77504 197.689554 
L 239.42976 302.831809 
L 239.72736 454.590806 
L 239.75712 454.763953 
L 239.78688 454.676338 
L 240.05472 451.562032 
L 241.75104 428.537639 
L 243.06048 407.722878 
L 244.51872 381.759991 
L 244.69728 374.068003 
L 244.78656 356.549551 
L 244.9056 92.245596 
L 244.96512 93.003416 
L 245.14368 99.790994 
L 245.38176 118.993355 
L 245.76864 171.803923 
L 246.57216 311.129016 
L 246.78048 452.08586 
L 246.89952 456.229793 
L 246.92928 456.13397 
L 247.19712 453.428593 
L 248.4768 440.655255 
L 249.45888 432.937754 
L 250.35168 427.559003 
L 251.12544 424.166052 
L 251.7504 422.347835 
L 252.22656 421.546367 
L 252.61344 421.273182 
L 252.91104 421.299769 
L 253.2384 421.560172 
L 253.62528 422.179994 
L 254.1312 423.484385 
L 254.75616 425.793827 
L 255.6192 429.895303 
L 256.33344 434.370363 
L 257.37504 442.476408 
L 258.53568 453.304141 
L 261.4224 481.151272 
L 262.19616 486.153772 
L 262.88064 489.193375 
L 263.41632 490.730361 
L 264.01152 491.772038 
L 264.5472 492.278969 
L 265.05312 492.446165 
L 265.61856 492.399238 
L 266.30304 492.084959 
L 267.10656 491.460734 
L 268.32672 490.213313 
L 270.23136 487.938686 
L 271.77888 485.749521 
L 273.38592 483.081842 
L 277.37376 475.909661 
L 279.21888 471.958257 
L 282.81984 463.603492 
L 285.85536 455.96147 
L 291.0336 442.198626 
L 295.6464 430.233426 
L 298.86048 422.503957 
L 302.1936 415.07526 
L 305.85408 406.829535 
L 306.98496 403.676454 
L 307.75872 400.851952 
L 308.32416 397.887121 
L 308.7408 394.514499 
L 309.0384 390.059873 
L 309.24672 382.974371 
L 309.36576 369.375832 
L 309.39552 357.187301 
L 309.4848 89.329729 
L 309.57408 89.8035 
L 309.69312 91.906655 
L 309.87168 100.567317 
L 310.13952 128.756086 
L 310.79424 236.832357 
L 311.15136 305.065798 
L 311.4192 455.887049 
L 311.47872 456.689977 
L 311.53824 456.515146 
L 312.04416 450.417007 
L 313.23456 433.757165 
L 314.06784 418.757131 
L 314.87136 400.034386 
L 315.37728 384.046257 
L 315.52608 373.891164 
L 315.5856 359.406659 
L 315.70464 91.762138 
L 315.79392 93.145757 
L 315.97248 100.056217 
L 316.24032 120.586227 
L 316.65696 173.870895 
L 317.46048 302.024469 
L 317.75808 453.829194 
L 317.78784 454.045033 
L 317.84736 453.665865 
L 318.38304 446.427882 
L 319.39488 430.205116 
L 320.22816 413.177963 
L 321.12096 390.230402 
L 321.41856 378.796495 
L 321.5376 364.097981 
L 321.56736 343.699333 
L 321.65664 92.527452 
L 321.6864 92.546574 
L 321.80544 95.315915 
L 322.01376 105.927487 
L 322.31136 133.764124 
L 322.8768 213.432515 
L 323.41248 297.865398 
L 323.472 357.778701 
L 323.6208 447.96458 
L 323.7696 454.712909 
L 323.88864 453.599227 
L 325.22784 435.953236 
L 326.5968 415.300174 
L 328.44192 383.500235 
L 328.65024 376.616225 
L 328.73952 368.487191 
L 328.79904 329.700777 
L 328.88832 92.244822 
L 328.91808 92.364771 
L 329.03712 95.289139 
L 329.24544 107.144969 
L 329.54304 139.452739 
L 330.49536 286.228333 
L 330.58464 333.904815 
L 330.73344 446.219794 
L 330.88224 456.216834 
L 330.94176 455.987911 
L 331.47744 450.314647 
L 332.6976 438.647041 
L 333.67968 431.325566 
L 334.54272 426.457847 
L 335.28672 423.443999 
L 335.88192 421.876878 
L 336.35808 421.182989 
L 336.7152 420.996263 
L 337.04256 421.073075 
L 337.39968 421.427946 
L 337.81632 422.183905 
L 338.352 423.687837 
L 338.97696 426.150239 
L 339.75072 430.175605 
L 340.64352 436.081111 
L 341.68512 444.574103 
L 342.99456 457.254039 
L 345.25632 479.301348 
L 346.11936 485.306448 
L 346.80384 488.572982 
L 347.39904 490.444728 
L 347.96448 491.524385 
L 348.50016 492.112571 
L 349.00608 492.32875 
L 349.57152 492.339435 
L 350.22624 492.089207 
L 351.02976 491.52559 
L 352.16064 490.405177 
L 353.976 488.24351 
L 355.55328 486.017957 
L 357.72576 482.475212 
L 359.98752 478.591695 
L 361.80288 474.952311 
L 364.71936 468.58491 
L 367.33824 462.363321 
L 370.73088 453.65943 
L 381.2064 426.416959 
L 384.36096 419.100206 
L 390.46176 405.235127 
L 391.38432 402.34938 
L 392.0688 399.503084 
L 392.54496 396.585454 
L 392.87232 393.207894 
L 393.14016 388.244716 
L 393.28896 381.936926 
L 393.37824 372.169379 
L 393.43776 337.110905 
L 393.49728 89.315532 
L 393.5568 89.467049 
L 393.67584 90.883096 
L 393.82464 96.123287 
L 394.03296 112.609516 
L 394.39008 164.147122 
L 395.1936 318.059505 
L 395.37216 449.931097 
L 395.52096 456.795429 
L 395.72928 454.602072 
L 396.77088 441.064762 
L 397.69344 426.490627 
L 398.52672 409.297452 
L 399.27072 389.24209 
L 399.5088 378.14031 
L 399.59808 365.359331 
L 399.62784 346.474376 
L 399.71712 91.746647 
L 399.74688 91.827372 
L 399.86592 94.395882 
L 400.07424 104.517087 
L 400.37184 131.843831 
L 400.90752 207.608433 
L 401.50272 310.148759 
L 401.71104 450.549242 
L 401.83008 454.015231 
L 401.85984 453.834993 
L 402.15744 450.032333 
L 403.25856 433.234578 
L 404.09184 416.977328 
L 404.98464 395.097997 
L 405.43104 380.031318 
L 405.55008 369.583402 
L 405.6096 331.911553 
L 405.69888 92.448766 
L 405.72864 92.605849 
L 405.87744 96.601265 
L 406.11552 110.755952 
L 406.44288 145.468285 
L 407.3952 284.088372 
L 407.48448 319.405268 
L 407.66304 448.801958 
L 407.81184 454.744332 
L 408.02016 452.41696 
L 409.65696 430.41694 
L 410.99616 409.419693 
L 412.57344 381.352473 
L 412.752 373.002634 
L 412.81152 363.52559 
L 412.84128 345.442338 
L 412.93056 92.255878 
L 412.96032 92.282809 
L 413.07936 95.004211 
L 413.28768 106.531325 
L 413.58528 138.421035 
L 414.50784 278.732628 
L 414.62688 322.684534 
L 414.80544 449.944906 
L 414.95424 456.217166 
L 415.01376 455.909456 
L 415.5792 449.807201 
L 416.68032 439.277101 
L 417.69216 431.653643 
L 418.5552 426.74625 
L 419.2992 423.692193 
L 419.8944 422.115083 
L 420.37056 421.405517 
L 420.75744 421.192416 
L 421.0848 421.267905 
L 421.44192 421.615329 
L 421.85856 422.367686 
L 422.36448 423.774262 
L 422.98944 426.204093 
L 423.73344 430.03169 
L 424.62624 435.881563 
L 425.66784 444.315938 
L 426.97728 456.939295 
L 429.2688 479.289324 
L 430.10208 485.131282 
L 430.84608 488.75007 
L 431.41152 490.497165 
L 431.9472 491.577502 
L 432.42336 492.094286 
L 432.92928 492.343841 
L 433.52448 492.378833 
L 434.20896 492.136373 
L 434.95296 491.640272 
L 435.9648 490.667058 
L 437.78016 488.520131 
L 439.47648 486.220977 
L 441.11328 483.616047 
L 444.11904 478.378512 
L 445.99392 474.640511 
L 448.64256 468.836238 
L 451.44 462.180766 
L 454.68384 453.878664 
L 465.2784 426.322949 
L 468.46272 418.951529 
L 474.41472 405.434315 
L 475.36704 402.519791 
L 476.05152 399.689613 
L 476.55744 396.603631 
L 476.91456 392.977751 
L 477.1824 387.672659 
L 477.3312 380.571046 
L 477.42048 367.317317 
L 477.45024 351.193917 
L 477.50976 89.323234 
L 477.59904 89.554987 
L 477.74784 92.126086 
L 477.9264 101.057306 
L 478.19424 129.723767 
L 478.93824 251.538443 
L 479.17632 295.382498 
L 479.23584 345.190698 
L 479.38464 448.252105 
L 479.53344 456.751828 
L 479.65248 455.821297 
L 480.36672 446.822006 
L 481.31904 433.167781 
L 482.15232 417.998848 
L 482.95584 399.02839 
L 483.432 383.765495 
L 483.5808 372.765868 
L 483.64032 353.226824 
L 483.75936 91.769491 
L 483.78912 92.131101 
L 483.93792 96.296166 
L 484.176 110.595011 
L 484.50336 145.719453 
L 485.45568 285.939114 
L 485.54496 331.226929 
L 485.69376 445.30762 
L 485.84256 454.023821 
L 485.9616 452.951303 
L 486.79488 441.014779 
L 487.77696 423.899135 
L 488.64 404.546484 
L 489.35424 384.180454 
L 489.5328 373.896807 
L 489.59232 363.338194 
L 489.62208 339.907599 
L 489.71136 92.469738 
L 489.74112 92.571523 
L 489.86016 95.386374 
L 490.06848 106.082312 
L 490.36608 134.04115 
L 490.96128 218.25864 
L 491.4672 299.028124 
L 491.82432 454.76321 
L 491.85408 454.538593 
L 492.41952 447.508406 
L 493.96704 426.046992 
L 495.45504 401.974473 
L 496.58592 381.31826 
L 496.76448 372.808192 
L 496.824 362.462075 
L 496.85376 340.507836 
L 496.94304 92.231171 
L 496.9728 92.317149 
L 497.09184 95.104647 
L 497.30016 106.763375 
L 497.59776 138.793563 
L 498.52032 279.250612 
L 498.6096 303.226972 
L 498.9072 456.061045 
L 498.93696 456.254246 
L 498.99648 456.156172 
L 499.11552 454.902918 
L 501.4368 433.55399 
L 502.3296 428.10347 
L 503.10336 424.637396 
L 503.72832 422.765338 
L 504.23424 421.869329 
L 504.62112 421.557629 
L 504.94848 421.550921 
L 505.27584 421.78145 
L 505.66272 422.352574 
L 506.13888 423.499428 
L 506.73408 425.573425 
L 507.44832 428.951969 
L 508.2816 434.035203 
L 509.26368 441.501033 
L 510.45408 452.429765 
L 513.57888 482.264788 
L 514.32288 486.757873 
L 514.9776 489.462227 
L 515.5728 491.036166 
L 516.13824 491.935932 
L 516.64416 492.344902 
L 517.12032 492.47744 
L 517.68576 492.404427 
L 518.4 492.051436 
L 518.4 492.051436 
" clip-path="url(#p3873a027b3)" style="fill: none; stroke: #000000; stroke-width: 1.5; stroke-linecap: square"/>
   </g>
   <g id="patch_3">
    <path d="M 72 512.64 
L 72 69.12 
" style="fill: none; stroke: #000000; stroke-width: 0.8; stroke-linejoin: miter; stroke-linecap: square"/>
   </g>
   <g id="patch_4">
    <path d="M 518.4 512.64 
L 518.4 69.12 
" style="fill: none; stroke: #000000; stroke-width: 0.8; stroke-linejoin: miter; stroke-linecap: square"/>
   </g>
   <g id="patch_5">
    <path d="M 72 512.64 
L 518.4 512.64 
" style="fill: none; stroke: #000000; stroke-width: 0.8; stroke-linejoin: miter; stroke-linecap: square"/>
   </g>
   <g id="patch_6">
    <path d="M 72 69.12 
L 518.4 69.12 
" style="fill: none; stroke: #000000; stroke-width: 0.8; stroke-linejoin: miter; stroke-linecap: square"/>
   </g>
  </g>
 </g>
 <defs>
  <clipPath id="p3873a027b3">
   <rect x="72" y="69.12" width="446.4" height="443.52"/>
  </clipPath>
 </defs>
</svg>
