<?xml version="1.0" encoding="utf-8" standalone="no"?>
<!DOCTYPE svg PUBLIC "-//W3C//DTD SVG 1.1//EN"
  "http://www.w3.org/Graphics/SVG/1.1/DTD/svg11.dtd">
<svg xmlns:xlink="http://www.w3.org/1999/xlink" width="576pt" height="576pt" viewBox="0 0 576 576" xmlns="http://www.w3.org/2000/svg" version="1.1">
 <metadata>
  <rdf:RDF xmlns:dc="http://purl.org/dc/elements/1.1/" xmlns:cc="http://creativecommons.org/ns#" xmlns:rdf="http://www.w3.org/1999/02/22-rdf-syntax-ns#">
   <cc:Work>
    <dc:type rdf:resource="http://purl.org/dc/dcmitype/StillImage"/>
    <dc:date>2025-03-19T19:21:09.059069</dc:date>
    <dc:format>image/svg+xml</dc:format>
    <dc:creator>
     <cc:Agent>
      <dc:title>Matplotlib v3.10.0, https://matplotlib.org/</dc:title>
     </cc:Agent>
    </dc:creator>
   </cc:Work>
  </rdf:RDF>
 </metadata>
 <defs>
  <style type="text/css">*{stroke-linejoin: round; stroke-linecap: butt}</style>
 </defs>
 <g id="figure_1">
  <g id="patch_1">
   <path d="M 0 576 
L 576 576 
L 576 0 
L 0 0 
z
" style="fill: #ffffff"/>
  </g>
  <g id="axes_1">
   <g id="patch_2">
    <path d="M 72 512.64 
L 518.4 512.64 
L 518.4 69.12 
L 72 69.12 
z
" style="fill: #ffffff"/>
   </g>
   <g id="matplotlib.axis_1">
    <g id="xtick_1">
     <g id="line2d_1">
      <defs>
       <path id="m92e61ef192" d="M 0 0 
L 0 3.5 
" style="stroke: #000000; stroke-width: 0.8"/>
      </defs>
      <g>
       <use xlink:href="#m92e61ef192" x="72" y="512.64" style="stroke: #000000; stroke-width: 0.8"/>
      </g>
     </g>
     <g id="text_1">
      <!-- 3000 -->
      <g transform="translate(59.275 527.238438) scale(0.1 -0.1)">
       <defs>
        <path id="DejaVuSans-33" d="M 2597 2516 
Q 3050 2419 3304 2112 
Q 3559 1806 3559 1356 
Q 3559 666 3084 287 
Q 2609 -91 1734 -91 
Q 1441 -91 1130 -33 
Q 819 25 488 141 
L 488 750 
Q 750 597 1062 519 
Q 1375 441 1716 441 
Q 2309 441 2620 675 
Q 2931 909 2931 1356 
Q 2931 1769 2642 2001 
Q 2353 2234 1838 2234 
L 1294 2234 
L 1294 2753 
L 1863 2753 
Q 2328 2753 2575 2939 
Q 2822 3125 2822 3475 
Q 2822 3834 2567 4026 
Q 2313 4219 1838 4219 
Q 1578 4219 1281 4162 
Q 984 4106 628 3988 
L 628 4550 
Q 988 4650 1302 4700 
Q 1616 4750 1894 4750 
Q 2613 4750 3031 4423 
Q 3450 4097 3450 3541 
Q 3450 3153 3228 2886 
Q 3006 2619 2597 2516 
z
" transform="scale(0.015625)"/>
        <path id="DejaVuSans-30" d="M 2034 4250 
Q 1547 4250 1301 3770 
Q 1056 3291 1056 2328 
Q 1056 1369 1301 889 
Q 1547 409 2034 409 
Q 2525 409 2770 889 
Q 3016 1369 3016 2328 
Q 3016 3291 2770 3770 
Q 2525 4250 2034 4250 
z
M 2034 4750 
Q 2819 4750 3233 4129 
Q 3647 3509 3647 2328 
Q 3647 1150 3233 529 
Q 2819 -91 2034 -91 
Q 1250 -91 836 529 
Q 422 1150 422 2328 
Q 422 3509 836 4129 
Q 1250 4750 2034 4750 
z
" transform="scale(0.015625)"/>
       </defs>
       <use xlink:href="#DejaVuSans-33"/>
       <use xlink:href="#DejaVuSans-30" transform="translate(63.623047 0)"/>
       <use xlink:href="#DejaVuSans-30" transform="translate(127.246094 0)"/>
       <use xlink:href="#DejaVuSans-30" transform="translate(190.869141 0)"/>
      </g>
     </g>
    </g>
    <g id="xtick_2">
     <g id="line2d_2">
      <g>
       <use xlink:href="#m92e61ef192" x="131.52" y="512.64" style="stroke: #000000; stroke-width: 0.8"/>
      </g>
     </g>
     <g id="text_2">
      <!-- 3100 -->
      <g transform="translate(118.795 527.238438) scale(0.1 -0.1)">
       <defs>
        <path id="DejaVuSans-31" d="M 794 531 
L 1825 531 
L 1825 4091 
L 703 3866 
L 703 4441 
L 1819 4666 
L 2450 4666 
L 2450 531 
L 3481 531 
L 3481 0 
L 794 0 
L 794 531 
z
" transform="scale(0.015625)"/>
       </defs>
       <use xlink:href="#DejaVuSans-33"/>
       <use xlink:href="#DejaVuSans-31" transform="translate(63.623047 0)"/>
       <use xlink:href="#DejaVuSans-30" transform="translate(127.246094 0)"/>
       <use xlink:href="#DejaVuSans-30" transform="translate(190.869141 0)"/>
      </g>
     </g>
    </g>
    <g id="xtick_3">
     <g id="line2d_3">
      <g>
       <use xlink:href="#m92e61ef192" x="191.04" y="512.64" style="stroke: #000000; stroke-width: 0.8"/>
      </g>
     </g>
     <g id="text_3">
      <!-- 3200 -->
      <g transform="translate(178.315 527.238438) scale(0.1 -0.1)">
       <defs>
        <path id="DejaVuSans-32" d="M 1228 531 
L 3431 531 
L 3431 0 
L 469 0 
L 469 531 
Q 828 903 1448 1529 
Q 2069 2156 2228 2338 
Q 2531 2678 2651 2914 
Q 2772 3150 2772 3378 
Q 2772 3750 2511 3984 
Q 2250 4219 1831 4219 
Q 1534 4219 1204 4116 
Q 875 4013 500 3803 
L 500 4441 
Q 881 4594 1212 4672 
Q 1544 4750 1819 4750 
Q 2544 4750 2975 4387 
Q 3406 4025 3406 3419 
Q 3406 3131 3298 2873 
Q 3191 2616 2906 2266 
Q 2828 2175 2409 1742 
Q 1991 1309 1228 531 
z
" transform="scale(0.015625)"/>
       </defs>
       <use xlink:href="#DejaVuSans-33"/>
       <use xlink:href="#DejaVuSans-32" transform="translate(63.623047 0)"/>
       <use xlink:href="#DejaVuSans-30" transform="translate(127.246094 0)"/>
       <use xlink:href="#DejaVuSans-30" transform="translate(190.869141 0)"/>
      </g>
     </g>
    </g>
    <g id="xtick_4">
     <g id="line2d_4">
      <g>
       <use xlink:href="#m92e61ef192" x="250.56" y="512.64" style="stroke: #000000; stroke-width: 0.8"/>
      </g>
     </g>
     <g id="text_4">
      <!-- 3300 -->
      <g transform="translate(237.835 527.238438) scale(0.1 -0.1)">
       <use xlink:href="#DejaVuSans-33"/>
       <use xlink:href="#DejaVuSans-33" transform="translate(63.623047 0)"/>
       <use xlink:href="#DejaVuSans-30" transform="translate(127.246094 0)"/>
       <use xlink:href="#DejaVuSans-30" transform="translate(190.869141 0)"/>
      </g>
     </g>
    </g>
    <g id="xtick_5">
     <g id="line2d_5">
      <g>
       <use xlink:href="#m92e61ef192" x="310.08" y="512.64" style="stroke: #000000; stroke-width: 0.8"/>
      </g>
     </g>
     <g id="text_5">
      <!-- 3400 -->
      <g transform="translate(297.355 527.238438) scale(0.1 -0.1)">
       <defs>
        <path id="DejaVuSans-34" d="M 2419 4116 
L 825 1625 
L 2419 1625 
L 2419 4116 
z
M 2253 4666 
L 3047 4666 
L 3047 1625 
L 3713 1625 
L 3713 1100 
L 3047 1100 
L 3047 0 
L 2419 0 
L 2419 1100 
L 313 1100 
L 313 1709 
L 2253 4666 
z
" transform="scale(0.015625)"/>
       </defs>
       <use xlink:href="#DejaVuSans-33"/>
       <use xlink:href="#DejaVuSans-34" transform="translate(63.623047 0)"/>
       <use xlink:href="#DejaVuSans-30" transform="translate(127.246094 0)"/>
       <use xlink:href="#DejaVuSans-30" transform="translate(190.869141 0)"/>
      </g>
     </g>
    </g>
    <g id="xtick_6">
     <g id="line2d_6">
      <g>
       <use xlink:href="#m92e61ef192" x="369.6" y="512.64" style="stroke: #000000; stroke-width: 0.8"/>
      </g>
     </g>
     <g id="text_6">
      <!-- 3500 -->
      <g transform="translate(356.875 527.238438) scale(0.1 -0.1)">
       <defs>
        <path id="DejaVuSans-35" d="M 691 4666 
L 3169 4666 
L 3169 4134 
L 1269 4134 
L 1269 2991 
Q 1406 3038 1543 3061 
Q 1681 3084 1819 3084 
Q 2600 3084 3056 2656 
Q 3513 2228 3513 1497 
Q 3513 744 3044 326 
Q 2575 -91 1722 -91 
Q 1428 -91 1123 -41 
Q 819 9 494 109 
L 494 744 
Q 775 591 1075 516 
Q 1375 441 1709 441 
Q 2250 441 2565 725 
Q 2881 1009 2881 1497 
Q 2881 1984 2565 2268 
Q 2250 2553 1709 2553 
Q 1456 2553 1204 2497 
Q 953 2441 691 2322 
L 691 4666 
z
" transform="scale(0.015625)"/>
       </defs>
       <use xlink:href="#DejaVuSans-33"/>
       <use xlink:href="#DejaVuSans-35" transform="translate(63.623047 0)"/>
       <use xlink:href="#DejaVuSans-30" transform="translate(127.246094 0)"/>
       <use xlink:href="#DejaVuSans-30" transform="translate(190.869141 0)"/>
      </g>
     </g>
    </g>
    <g id="xtick_7">
     <g id="line2d_7">
      <g>
       <use xlink:href="#m92e61ef192" x="429.12" y="512.64" style="stroke: #000000; stroke-width: 0.8"/>
      </g>
     </g>
     <g id="text_7">
      <!-- 3600 -->
      <g transform="translate(416.395 527.238438) scale(0.1 -0.1)">
       <defs>
        <path id="DejaVuSans-36" d="M 2113 2584 
Q 1688 2584 1439 2293 
Q 1191 2003 1191 1497 
Q 1191 994 1439 701 
Q 1688 409 2113 409 
Q 2538 409 2786 701 
Q 3034 994 3034 1497 
Q 3034 2003 2786 2293 
Q 2538 2584 2113 2584 
z
M 3366 4563 
L 3366 3988 
Q 3128 4100 2886 4159 
Q 2644 4219 2406 4219 
Q 1781 4219 1451 3797 
Q 1122 3375 1075 2522 
Q 1259 2794 1537 2939 
Q 1816 3084 2150 3084 
Q 2853 3084 3261 2657 
Q 3669 2231 3669 1497 
Q 3669 778 3244 343 
Q 2819 -91 2113 -91 
Q 1303 -91 875 529 
Q 447 1150 447 2328 
Q 447 3434 972 4092 
Q 1497 4750 2381 4750 
Q 2619 4750 2861 4703 
Q 3103 4656 3366 4563 
z
" transform="scale(0.015625)"/>
       </defs>
       <use xlink:href="#DejaVuSans-33"/>
       <use xlink:href="#DejaVuSans-36" transform="translate(63.623047 0)"/>
       <use xlink:href="#DejaVuSans-30" transform="translate(127.246094 0)"/>
       <use xlink:href="#DejaVuSans-30" transform="translate(190.869141 0)"/>
      </g>
     </g>
    </g>
    <g id="xtick_8">
     <g id="line2d_8">
      <g>
       <use xlink:href="#m92e61ef192" x="488.64" y="512.64" style="stroke: #000000; stroke-width: 0.8"/>
      </g>
     </g>
     <g id="text_8">
      <!-- 3700 -->
      <g transform="translate(475.915 527.238438) scale(0.1 -0.1)">
       <defs>
        <path id="DejaVuSans-37" d="M 525 4666 
L 3525 4666 
L 3525 4397 
L 1831 0 
L 1172 0 
L 2766 4134 
L 525 4134 
L 525 4666 
z
" transform="scale(0.015625)"/>
       </defs>
       <use xlink:href="#DejaVuSans-33"/>
       <use xlink:href="#DejaVuSans-37" transform="translate(63.623047 0)"/>
       <use xlink:href="#DejaVuSans-30" transform="translate(127.246094 0)"/>
       <use xlink:href="#DejaVuSans-30" transform="translate(190.869141 0)"/>
      </g>
     </g>
    </g>
    <g id="text_9">
     <!-- Time (ms) -->
     <g transform="translate(270.000781 540.916563) scale(0.1 -0.1)">
      <defs>
       <path id="DejaVuSans-54" d="M -19 4666 
L 3928 4666 
L 3928 4134 
L 2272 4134 
L 2272 0 
L 1638 0 
L 1638 4134 
L -19 4134 
L -19 4666 
z
" transform="scale(0.015625)"/>
       <path id="DejaVuSans-69" d="M 603 3500 
L 1178 3500 
L 1178 0 
L 603 0 
L 603 3500 
z
M 603 4863 
L 1178 4863 
L 1178 4134 
L 603 4134 
L 603 4863 
z
" transform="scale(0.015625)"/>
       <path id="DejaVuSans-6d" d="M 3328 2828 
Q 3544 3216 3844 3400 
Q 4144 3584 4550 3584 
Q 5097 3584 5394 3201 
Q 5691 2819 5691 2113 
L 5691 0 
L 5113 0 
L 5113 2094 
Q 5113 2597 4934 2840 
Q 4756 3084 4391 3084 
Q 3944 3084 3684 2787 
Q 3425 2491 3425 1978 
L 3425 0 
L 2847 0 
L 2847 2094 
Q 2847 2600 2669 2842 
Q 2491 3084 2119 3084 
Q 1678 3084 1418 2786 
Q 1159 2488 1159 1978 
L 1159 0 
L 581 0 
L 581 3500 
L 1159 3500 
L 1159 2956 
Q 1356 3278 1631 3431 
Q 1906 3584 2284 3584 
Q 2666 3584 2933 3390 
Q 3200 3197 3328 2828 
z
" transform="scale(0.015625)"/>
       <path id="DejaVuSans-65" d="M 3597 1894 
L 3597 1613 
L 953 1613 
Q 991 1019 1311 708 
Q 1631 397 2203 397 
Q 2534 397 2845 478 
Q 3156 559 3463 722 
L 3463 178 
Q 3153 47 2828 -22 
Q 2503 -91 2169 -91 
Q 1331 -91 842 396 
Q 353 884 353 1716 
Q 353 2575 817 3079 
Q 1281 3584 2069 3584 
Q 2775 3584 3186 3129 
Q 3597 2675 3597 1894 
z
M 3022 2063 
Q 3016 2534 2758 2815 
Q 2500 3097 2075 3097 
Q 1594 3097 1305 2825 
Q 1016 2553 972 2059 
L 3022 2063 
z
" transform="scale(0.015625)"/>
       <path id="DejaVuSans-20" transform="scale(0.015625)"/>
       <path id="DejaVuSans-28" d="M 1984 4856 
Q 1566 4138 1362 3434 
Q 1159 2731 1159 2009 
Q 1159 1288 1364 580 
Q 1569 -128 1984 -844 
L 1484 -844 
Q 1016 -109 783 600 
Q 550 1309 550 2009 
Q 550 2706 781 3412 
Q 1013 4119 1484 4856 
L 1984 4856 
z
" transform="scale(0.015625)"/>
       <path id="DejaVuSans-73" d="M 2834 3397 
L 2834 2853 
Q 2591 2978 2328 3040 
Q 2066 3103 1784 3103 
Q 1356 3103 1142 2972 
Q 928 2841 928 2578 
Q 928 2378 1081 2264 
Q 1234 2150 1697 2047 
L 1894 2003 
Q 2506 1872 2764 1633 
Q 3022 1394 3022 966 
Q 3022 478 2636 193 
Q 2250 -91 1575 -91 
Q 1294 -91 989 -36 
Q 684 19 347 128 
L 347 722 
Q 666 556 975 473 
Q 1284 391 1588 391 
Q 1994 391 2212 530 
Q 2431 669 2431 922 
Q 2431 1156 2273 1281 
Q 2116 1406 1581 1522 
L 1381 1569 
Q 847 1681 609 1914 
Q 372 2147 372 2553 
Q 372 3047 722 3315 
Q 1072 3584 1716 3584 
Q 2034 3584 2315 3537 
Q 2597 3491 2834 3397 
z
" transform="scale(0.015625)"/>
       <path id="DejaVuSans-29" d="M 513 4856 
L 1013 4856 
Q 1481 4119 1714 3412 
Q 1947 2706 1947 2009 
Q 1947 1309 1714 600 
Q 1481 -109 1013 -844 
L 513 -844 
Q 928 -128 1133 580 
Q 1338 1288 1338 2009 
Q 1338 2731 1133 3434 
Q 928 4138 513 4856 
z
" transform="scale(0.015625)"/>
      </defs>
      <use xlink:href="#DejaVuSans-54"/>
      <use xlink:href="#DejaVuSans-69" transform="translate(57.958984 0)"/>
      <use xlink:href="#DejaVuSans-6d" transform="translate(85.742188 0)"/>
      <use xlink:href="#DejaVuSans-65" transform="translate(183.154297 0)"/>
      <use xlink:href="#DejaVuSans-20" transform="translate(244.677734 0)"/>
      <use xlink:href="#DejaVuSans-28" transform="translate(276.464844 0)"/>
      <use xlink:href="#DejaVuSans-6d" transform="translate(315.478516 0)"/>
      <use xlink:href="#DejaVuSans-73" transform="translate(412.890625 0)"/>
      <use xlink:href="#DejaVuSans-29" transform="translate(464.990234 0)"/>
     </g>
    </g>
   </g>
   <g id="matplotlib.axis_2">
    <g id="ytick_1">
     <g id="line2d_9">
      <defs>
       <path id="md913b550db" d="M 0 0 
L -3.5 0 
" style="stroke: #000000; stroke-width: 0.8"/>
      </defs>
      <g>
       <use xlink:href="#md913b550db" x="72" y="508.103917" style="stroke: #000000; stroke-width: 0.8"/>
      </g>
     </g>
     <g id="text_10">
      <!-- −80 -->
      <g transform="translate(43.895313 511.903135) scale(0.1 -0.1)">
       <defs>
        <path id="DejaVuSans-2212" d="M 678 2272 
L 4684 2272 
L 4684 1741 
L 678 1741 
L 678 2272 
z
" transform="scale(0.015625)"/>
        <path id="DejaVuSans-38" d="M 2034 2216 
Q 1584 2216 1326 1975 
Q 1069 1734 1069 1313 
Q 1069 891 1326 650 
Q 1584 409 2034 409 
Q 2484 409 2743 651 
Q 3003 894 3003 1313 
Q 3003 1734 2745 1975 
Q 2488 2216 2034 2216 
z
M 1403 2484 
Q 997 2584 770 2862 
Q 544 3141 544 3541 
Q 544 4100 942 4425 
Q 1341 4750 2034 4750 
Q 2731 4750 3128 4425 
Q 3525 4100 3525 3541 
Q 3525 3141 3298 2862 
Q 3072 2584 2669 2484 
Q 3125 2378 3379 2068 
Q 3634 1759 3634 1313 
Q 3634 634 3220 271 
Q 2806 -91 2034 -91 
Q 1263 -91 848 271 
Q 434 634 434 1313 
Q 434 1759 690 2068 
Q 947 2378 1403 2484 
z
M 1172 3481 
Q 1172 3119 1398 2916 
Q 1625 2713 2034 2713 
Q 2441 2713 2670 2916 
Q 2900 3119 2900 3481 
Q 2900 3844 2670 4047 
Q 2441 4250 2034 4250 
Q 1625 4250 1398 4047 
Q 1172 3844 1172 3481 
z
" transform="scale(0.015625)"/>
       </defs>
       <use xlink:href="#DejaVuSans-2212"/>
       <use xlink:href="#DejaVuSans-38" transform="translate(83.789062 0)"/>
       <use xlink:href="#DejaVuSans-30" transform="translate(147.412109 0)"/>
      </g>
     </g>
    </g>
    <g id="ytick_2">
     <g id="line2d_10">
      <g>
       <use xlink:href="#md913b550db" x="72" y="443.64327" style="stroke: #000000; stroke-width: 0.8"/>
      </g>
     </g>
     <g id="text_11">
      <!-- −60 -->
      <g transform="translate(43.895313 447.442489) scale(0.1 -0.1)">
       <use xlink:href="#DejaVuSans-2212"/>
       <use xlink:href="#DejaVuSans-36" transform="translate(83.789062 0)"/>
       <use xlink:href="#DejaVuSans-30" transform="translate(147.412109 0)"/>
      </g>
     </g>
    </g>
    <g id="ytick_3">
     <g id="line2d_11">
      <g>
       <use xlink:href="#md913b550db" x="72" y="379.182624" style="stroke: #000000; stroke-width: 0.8"/>
      </g>
     </g>
     <g id="text_12">
      <!-- −40 -->
      <g transform="translate(43.895313 382.981842) scale(0.1 -0.1)">
       <use xlink:href="#DejaVuSans-2212"/>
       <use xlink:href="#DejaVuSans-34" transform="translate(83.789062 0)"/>
       <use xlink:href="#DejaVuSans-30" transform="translate(147.412109 0)"/>
      </g>
     </g>
    </g>
    <g id="ytick_4">
     <g id="line2d_12">
      <g>
       <use xlink:href="#md913b550db" x="72" y="314.721977" style="stroke: #000000; stroke-width: 0.8"/>
      </g>
     </g>
     <g id="text_13">
      <!-- −20 -->
      <g transform="translate(43.895313 318.521196) scale(0.1 -0.1)">
       <use xlink:href="#DejaVuSans-2212"/>
       <use xlink:href="#DejaVuSans-32" transform="translate(83.789062 0)"/>
       <use xlink:href="#DejaVuSans-30" transform="translate(147.412109 0)"/>
      </g>
     </g>
    </g>
    <g id="ytick_5">
     <g id="line2d_13">
      <g>
       <use xlink:href="#md913b550db" x="72" y="250.261331" style="stroke: #000000; stroke-width: 0.8"/>
      </g>
     </g>
     <g id="text_14">
      <!-- 0 -->
      <g transform="translate(58.6375 254.060549) scale(0.1 -0.1)">
       <use xlink:href="#DejaVuSans-30"/>
      </g>
     </g>
    </g>
    <g id="ytick_6">
     <g id="line2d_14">
      <g>
       <use xlink:href="#md913b550db" x="72" y="185.800684" style="stroke: #000000; stroke-width: 0.8"/>
      </g>
     </g>
     <g id="text_15">
      <!-- 20 -->
      <g transform="translate(52.275 189.599903) scale(0.1 -0.1)">
       <use xlink:href="#DejaVuSans-32"/>
       <use xlink:href="#DejaVuSans-30" transform="translate(63.623047 0)"/>
      </g>
     </g>
    </g>
    <g id="ytick_7">
     <g id="line2d_15">
      <g>
       <use xlink:href="#md913b550db" x="72" y="121.340038" style="stroke: #000000; stroke-width: 0.8"/>
      </g>
     </g>
     <g id="text_16">
      <!-- 40 -->
      <g transform="translate(52.275 125.139257) scale(0.1 -0.1)">
       <use xlink:href="#DejaVuSans-34"/>
       <use xlink:href="#DejaVuSans-30" transform="translate(63.623047 0)"/>
      </g>
     </g>
    </g>
    <g id="text_17">
     <!-- Voltage (mV) -->
     <g transform="translate(37.815625 323.4175) rotate(-90) scale(0.1 -0.1)">
      <defs>
       <path id="DejaVuSans-56" d="M 1831 0 
L 50 4666 
L 709 4666 
L 2188 738 
L 3669 4666 
L 4325 4666 
L 2547 0 
L 1831 0 
z
" transform="scale(0.015625)"/>
       <path id="DejaVuSans-6f" d="M 1959 3097 
Q 1497 3097 1228 2736 
Q 959 2375 959 1747 
Q 959 1119 1226 758 
Q 1494 397 1959 397 
Q 2419 397 2687 759 
Q 2956 1122 2956 1747 
Q 2956 2369 2687 2733 
Q 2419 3097 1959 3097 
z
M 1959 3584 
Q 2709 3584 3137 3096 
Q 3566 2609 3566 1747 
Q 3566 888 3137 398 
Q 2709 -91 1959 -91 
Q 1206 -91 779 398 
Q 353 888 353 1747 
Q 353 2609 779 3096 
Q 1206 3584 1959 3584 
z
" transform="scale(0.015625)"/>
       <path id="DejaVuSans-6c" d="M 603 4863 
L 1178 4863 
L 1178 0 
L 603 0 
L 603 4863 
z
" transform="scale(0.015625)"/>
       <path id="DejaVuSans-74" d="M 1172 4494 
L 1172 3500 
L 2356 3500 
L 2356 3053 
L 1172 3053 
L 1172 1153 
Q 1172 725 1289 603 
Q 1406 481 1766 481 
L 2356 481 
L 2356 0 
L 1766 0 
Q 1100 0 847 248 
Q 594 497 594 1153 
L 594 3053 
L 172 3053 
L 172 3500 
L 594 3500 
L 594 4494 
L 1172 4494 
z
" transform="scale(0.015625)"/>
       <path id="DejaVuSans-61" d="M 2194 1759 
Q 1497 1759 1228 1600 
Q 959 1441 959 1056 
Q 959 750 1161 570 
Q 1363 391 1709 391 
Q 2188 391 2477 730 
Q 2766 1069 2766 1631 
L 2766 1759 
L 2194 1759 
z
M 3341 1997 
L 3341 0 
L 2766 0 
L 2766 531 
Q 2569 213 2275 61 
Q 1981 -91 1556 -91 
Q 1019 -91 701 211 
Q 384 513 384 1019 
Q 384 1609 779 1909 
Q 1175 2209 1959 2209 
L 2766 2209 
L 2766 2266 
Q 2766 2663 2505 2880 
Q 2244 3097 1772 3097 
Q 1472 3097 1187 3025 
Q 903 2953 641 2809 
L 641 3341 
Q 956 3463 1253 3523 
Q 1550 3584 1831 3584 
Q 2591 3584 2966 3190 
Q 3341 2797 3341 1997 
z
" transform="scale(0.015625)"/>
       <path id="DejaVuSans-67" d="M 2906 1791 
Q 2906 2416 2648 2759 
Q 2391 3103 1925 3103 
Q 1463 3103 1205 2759 
Q 947 2416 947 1791 
Q 947 1169 1205 825 
Q 1463 481 1925 481 
Q 2391 481 2648 825 
Q 2906 1169 2906 1791 
z
M 3481 434 
Q 3481 -459 3084 -895 
Q 2688 -1331 1869 -1331 
Q 1566 -1331 1297 -1286 
Q 1028 -1241 775 -1147 
L 775 -588 
Q 1028 -725 1275 -790 
Q 1522 -856 1778 -856 
Q 2344 -856 2625 -561 
Q 2906 -266 2906 331 
L 2906 616 
Q 2728 306 2450 153 
Q 2172 0 1784 0 
Q 1141 0 747 490 
Q 353 981 353 1791 
Q 353 2603 747 3093 
Q 1141 3584 1784 3584 
Q 2172 3584 2450 3431 
Q 2728 3278 2906 2969 
L 2906 3500 
L 3481 3500 
L 3481 434 
z
" transform="scale(0.015625)"/>
      </defs>
      <use xlink:href="#DejaVuSans-56"/>
      <use xlink:href="#DejaVuSans-6f" transform="translate(60.658203 0)"/>
      <use xlink:href="#DejaVuSans-6c" transform="translate(121.839844 0)"/>
      <use xlink:href="#DejaVuSans-74" transform="translate(149.623047 0)"/>
      <use xlink:href="#DejaVuSans-61" transform="translate(188.832031 0)"/>
      <use xlink:href="#DejaVuSans-67" transform="translate(250.111328 0)"/>
      <use xlink:href="#DejaVuSans-65" transform="translate(313.587891 0)"/>
      <use xlink:href="#DejaVuSans-20" transform="translate(375.111328 0)"/>
      <use xlink:href="#DejaVuSans-28" transform="translate(406.898438 0)"/>
      <use xlink:href="#DejaVuSans-6d" transform="translate(445.912109 0)"/>
      <use xlink:href="#DejaVuSans-56" transform="translate(543.324219 0)"/>
      <use xlink:href="#DejaVuSans-29" transform="translate(611.732422 0)"/>
     </g>
    </g>
   </g>
   <g id="line2d_16">
    <path d="M 72 435.008244 
L 72.71424 426.898798 
L 73.488 415.40611 
L 74.35104 399.083652 
L 74.73792 388.010728 
L 74.88672 377.122458 
L 74.94624 359.217988 
L 75.03552 90.188888 
L 75.09504 90.508273 
L 75.24384 93.580569 
L 75.45216 103.902988 
L 75.74976 133.092284 
L 76.28544 214.424756 
L 76.7616 301.288053 
L 77.08896 464.136897 
L 77.14848 464.490005 
L 77.208 464.403615 
L 78.81504 459.699523 
L 79.49952 458.659208 
L 80.21376 457.979745 
L 80.95776 457.579416 
L 81.672 457.443325 
L 82.38624 457.531458 
L 83.16 457.855217 
L 83.99328 458.450993 
L 84.85632 459.349236 
L 85.6896 460.543658 
L 86.49312 462.093613 
L 87.29664 464.155412 
L 88.10016 466.854449 
L 88.87392 469.434992 
L 89.64768 470.773412 
L 91.37376 473.700199 
L 91.90944 474.04405 
L 92.44512 474.140683 
L 93.01056 474.009844 
L 93.60576 473.623502 
L 94.32 472.873954 
L 95.15328 471.646762 
L 96.19488 469.693505 
L 97.65312 466.43427 
L 100.09344 460.319836 
L 110.8368 432.86867 
L 113.33664 427.410061 
L 115.56864 423.049305 
L 117.77088 419.242615 
L 119.97312 415.894566 
L 122.53248 412.409718 
L 125.68704 408.045908 
L 127.056 405.713442 
L 127.97856 403.732526 
L 128.66304 401.744914 
L 129.16896 399.627542 
L 129.61536 396.715501 
L 129.94272 392.933722 
L 130.15104 387.998635 
L 130.29984 378.774416 
L 130.35936 366.9962 
L 130.38912 345.10746 
L 130.44864 89.313319 
L 130.50816 89.523042 
L 130.6272 91.007736 
L 130.776 96.217516 
L 130.98432 112.069249 
L 131.31168 156.970549 
L 132.1152 305.265878 
L 132.38304 460.963269 
L 132.47232 462.455915 
L 132.53184 462.352399 
L 132.94848 460.172054 
L 133.99008 455.208881 
L 135.8352 446.596062 
L 136.60896 441.676675 
L 137.3232 435.615645 
L 138.03744 427.493272 
L 138.78144 416.23543 
L 139.64448 399.382789 
L 140.03136 388.540852 
L 140.18016 379.275376 
L 140.23968 368.54905 
L 140.26944 349.41766 
L 140.35872 90.320075 
L 140.38848 90.451569 
L 140.50752 92.410083 
L 140.68608 99.335252 
L 140.95392 120.586057 
L 141.37056 177.11364 
L 142.0848 301.933251 
L 142.3824 462.842551 
L 142.47168 463.649682 
L 142.5312 463.519693 
L 144.13824 458.072847 
L 145.00128 456.280571 
L 146.1024 454.531594 
L 151.42944 447.135158 
L 152.2032 446.508676 
L 152.82816 446.273953 
L 153.36384 446.305485 
L 153.89952 446.540913 
L 154.46496 447.042315 
L 155.14944 447.944458 
L 155.95296 449.408282 
L 157.02432 451.8261 
L 159.97056 458.649329 
L 160.89312 460.128362 
L 161.63712 460.94126 
L 162.3216 461.3945 
L 162.94656 461.548684 
L 163.57152 461.475909 
L 164.256 461.148981 
L 165 460.533562 
L 165.86304 459.511963 
L 166.90464 457.928823 
L 168.24384 455.461376 
L 170.02944 451.676533 
L 172.64832 445.583985 
L 178.60032 431.660546 
L 181.2192 426.149627 
L 183.51072 421.823605 
L 185.71296 418.123099 
L 188.18304 414.41001 
L 193.59936 406.384098 
L 194.70048 404.057447 
L 195.41472 402.050165 
L 195.9504 399.907889 
L 196.36704 397.318251 
L 196.6944 393.88838 
L 196.93248 388.981232 
L 197.08128 381.606833 
L 197.17056 366.640673 
L 197.20032 343.666245 
L 197.25984 89.339126 
L 197.31936 89.518145 
L 197.4384 90.989106 
L 197.5872 96.188883 
L 197.79552 111.933949 
L 198.12288 156.66062 
L 198.9264 304.373838 
L 199.19424 461.754723 
L 199.31328 463.489931 
L 199.34304 463.428873 
L 199.64064 462.016411 
L 200.59296 457.942308 
L 201.57504 454.559184 
L 203.18208 448.958132 
L 203.95584 445.324993 
L 204.69984 440.686696 
L 205.44384 434.524828 
L 206.18784 426.441128 
L 207.02112 414.729385 
L 207.94368 398.458355 
L 208.3008 388.576113 
L 208.4496 378.433978 
L 208.50912 364.319837 
L 208.53888 321.101942 
L 208.5984 90.020569 
L 208.65792 90.224463 
L 208.77696 92.198454 
L 208.95552 99.239934 
L 209.22336 121.218889 
L 209.64 179.630729 
L 210.32448 301.693729 
L 210.65184 465.626061 
L 210.74112 466.031323 
L 210.77088 465.984187 
L 212.19936 462.726072 
L 212.67552 462.334839 
L 213.0624 462.296246 
L 213.89568 462.62534 
L 214.43136 463.236803 
L 215.1456 464.476721 
L 216.0384 466.556228 
L 217.08 469.648081 
L 218.50848 474.677948 
L 220.41312 481.236799 
L 221.21664 483.224978 
L 221.81184 484.184083 
L 222.25824 484.532915 
L 222.8832 484.648587 
L 223.35936 484.47274 
L 223.9248 484.006165 
L 224.63904 483.042401 
L 225.5616 481.409535 
L 226.752 478.744807 
L 228.41856 474.378188 
L 232.88256 461.726706 
L 238.29888 446.734124 
L 241.69152 437.957623 
L 244.42944 431.469743 
L 246.81024 426.379468 
L 249.01248 422.18897 
L 251.12544 418.641563 
L 253.3872 415.287494 
L 259.60704 406.414281 
L 260.64864 404.273135 
L 261.39264 402.2206 
L 261.95808 399.903831 
L 262.40448 397.226568 
L 262.73184 393.812022 
L 262.96992 388.708973 
L 263.11872 380.933677 
L 263.208 363.361261 
L 263.23776 323.206641 
L 263.29728 89.359746 
L 263.3568 89.572451 
L 263.47584 91.204984 
L 263.6544 98.364211 
L 263.89248 119.699943 
L 264.30912 184.251027 
L 264.96384 312.984071 
L 265.17216 457.283274 
L 265.32096 462.393574 
L 265.38048 462.25184 
L 268.65408 446.320595 
L 269.42784 441.215244 
L 270.14208 434.919395 
L 270.82656 426.847759 
L 271.57056 415.268694 
L 272.37408 399.279341 
L 272.76096 387.973435 
L 272.90976 377.833506 
L 272.96928 362.989968 
L 273.08832 90.375069 
L 273.20736 92.085219 
L 273.38592 98.553377 
L 273.624 116.029565 
L 273.98112 160.878015 
L 274.78464 294.94668 
L 274.84416 344.318178 
L 274.99296 453.239115 
L 275.14176 463.129938 
L 275.20128 463.277085 
L 275.23104 463.220137 
L 275.64768 461.423632 
L 276.42144 458.58836 
L 278.80224 452.949807 
L 280.20096 449.823799 
L 281.30208 446.753033 
L 282.43296 442.928593 
L 283.83168 437.360792 
L 286.09344 428.402368 
L 287.016 425.656613 
L 287.76 424.079061 
L 288.38496 423.213661 
L 288.9504 422.789041 
L 289.45632 422.671087 
L 289.96224 422.771238 
L 290.55744 423.14116 
L 291.27168 423.878151 
L 292.13472 425.117502 
L 293.23584 427.110441 
L 294.9024 430.641115 
L 298.08672 437.39507 
L 299.54496 439.943301 
L 300.67584 441.511541 
L 301.65792 442.521282 
L 302.52096 443.114565 
L 303.35424 443.422035 
L 304.128 443.479957 
L 304.99104 443.303862 
L 305.85408 442.89989 
L 306.77664 442.212925 
L 307.96704 441.012949 
L 309.24672 439.375139 
L 310.94304 436.793461 
L 313.14528 432.990105 
L 323.26368 415.015045 
L 327.01344 408.553193 
L 328.29312 405.836521 
L 329.18592 403.380158 
L 329.81088 401.041446 
L 330.28704 398.370134 
L 330.6144 395.281713 
L 330.88224 390.780732 
L 331.0608 383.653833 
L 331.15008 373.34383 
L 331.2096 330.943162 
L 331.26912 89.323424 
L 331.32864 89.522709 
L 331.44768 90.97167 
L 331.62624 97.560073 
L 331.86432 117.625644 
L 332.2512 174.787627 
L 332.96544 309.961704 
L 333.17376 458.148752 
L 333.32256 464.298041 
L 333.38208 464.267418 
L 333.50112 463.760468 
L 333.91776 461.86555 
L 334.7808 458.81252 
L 335.58432 456.720699 
L 336.95328 453.887379 
L 338.02464 451.433423 
L 338.85792 448.939895 
L 339.63168 445.899941 
L 340.40544 441.945477 
L 341.20896 436.656474 
L 342.072 429.405742 
L 343.14336 418.275864 
L 344.51232 401.700625 
L 344.98848 393.614735 
L 345.22656 385.642867 
L 345.3456 372.940043 
L 345.37536 362.457524 
L 345.46464 89.699256 
L 345.61344 91.142915 
L 345.792 97.272485 
L 346.03008 115.558363 
L 346.3872 164.120204 
L 347.1312 295.438806 
L 347.19072 352.917378 
L 347.33952 457.595377 
L 347.51808 468.889515 
L 347.5776 469.009981 
L 347.63712 468.937157 
L 348.38112 467.685525 
L 348.73824 467.468759 
L 349.12512 467.478639 
L 349.512 467.749697 
L 349.98816 468.395224 
L 350.58336 469.607788 
L 351.35712 471.737534 
L 352.36896 475.234873 
L 355.40448 486.188412 
L 356.08896 487.705618 
L 356.62464 488.430105 
L 357.04128 488.664266 
L 357.63648 488.654679 
L 358.64832 488.367632 
L 359.12448 488.019939 
L 359.6304 487.385128 
L 360.43392 485.864914 
L 361.74336 482.775855 
L 363.46944 477.953613 
L 366.86208 467.600255 
L 370.9392 455.430067 
L 374.62944 445.090184 
L 377.66496 437.215574 
L 380.28384 431.013483 
L 382.63488 426.003377 
L 384.80736 421.886609 
L 387.0096 418.197447 
L 389.2416 414.890323 
L 395.28288 406.128783 
L 396.11616 404.347764 
L 396.91968 402.107413 
L 397.48512 399.893563 
L 397.90176 397.379605 
L 398.22912 394.054016 
L 398.4672 389.439459 
L 398.616 382.703922 
L 398.70528 370.919743 
L 398.73504 358.821051 
L 398.82432 89.390137 
L 398.9136 89.899664 
L 399.03264 92.184704 
L 399.2112 100.805412 
L 399.47904 128.31581 
L 399.98496 211.914247 
L 400.46112 301.175807 
L 400.78848 462.884471 
L 400.848 463.166921 
L 400.90752 463.018805 
L 403.55616 452.049625 
L 404.568 447.776357 
L 405.34176 443.499639 
L 406.056 438.268707 
L 406.77024 431.302024 
L 407.51424 421.693801 
L 408.37728 407.365665 
L 409.032 393.297022 
L 409.27008 383.44238 
L 409.35936 372.475309 
L 409.38912 361.553756 
L 409.4784 90.149349 
L 409.59744 91.257544 
L 409.776 96.806676 
L 410.01408 113.116043 
L 410.3712 157.131237 
L 411.17472 290.252828 
L 411.23424 321.193867 
L 411.4128 456.931164 
L 411.5616 464.741059 
L 411.59136 464.824423 
L 411.65088 464.749545 
L 413.13888 460.518759 
L 413.76384 459.615969 
L 414.3888 459.086826 
L 414.984 458.863108 
L 415.5792 458.870671 
L 416.26368 459.111129 
L 417.0672 459.650029 
L 417.84096 460.445252 
L 418.43616 461.437444 
L 419.35872 463.316725 
L 420.45984 466.086645 
L 422.03712 470.727628 
L 423.4656 474.703594 
L 424.23936 476.230135 
L 424.77504 476.853124 
L 425.31072 477.106277 
L 425.8464 477.14854 
L 426.4416 476.970113 
L 427.06656 476.473698 
L 427.87008 475.531712 
L 428.76288 474.06806 
L 429.864 471.80735 
L 431.41152 468.056072 
L 434.50656 459.852217 
L 442.27392 439.256156 
L 445.16064 432.333199 
L 447.60096 427.03692 
L 449.8032 422.771559 
L 451.91616 419.15192 
L 454.08864 415.865709 
L 456.91584 412.038918 
L 459.7728 408.101968 
L 461.08224 405.910243 
L 461.97504 404.000123 
L 462.71904 401.851793 
L 463.28448 399.546532 
L 463.70112 396.878647 
L 464.02848 393.229571 
L 464.2368 388.651277 
L 464.3856 380.729735 
L 464.47488 362.365679 
L 464.56416 89.368523 
L 464.74272 91.243892 
L 464.92128 98.440336 
L 465.15936 119.85438 
L 465.576 184.499092 
L 466.23072 313.00299 
L 466.43904 457.409737 
L 466.58784 462.33344 
L 466.67712 462.051711 
L 468.81984 451.722869 
L 469.86144 446.494129 
L 470.66496 441.237586 
L 471.3792 435.043353 
L 472.03392 427.439685 
L 472.83744 415.004831 
L 473.64096 399.007296 
L 474.02784 387.592987 
L 474.17664 376.397017 
L 474.23616 355.629087 
L 474.32544 90.360949 
L 474.38496 90.737218 
L 474.53376 94.006339 
L 474.74208 104.543064 
L 475.03968 133.548919 
L 475.57536 214.338147 
L 476.05152 298.864613 
L 476.40864 463.329759 
L 476.4384 463.369212 
L 476.49792 463.275201 
L 476.67648 462.517398 
L 477.68832 458.743855 
L 478.64064 456.254886 
L 479.712 454.148233 
L 481.61664 450.414682 
L 482.62848 448.096863 
L 483.93792 444.561522 
L 487.09248 435.822624 
L 487.896 434.355456 
L 488.61024 433.510528 
L 489.14592 433.19494 
L 489.6816 433.146149 
L 490.18752 433.33355 
L 490.75296 433.793913 
L 491.43744 434.661105 
L 492.30048 436.133819 
L 493.5504 438.779046 
L 497.53824 447.611619 
L 498.57984 449.244514 
L 499.47264 450.265686 
L 500.27616 450.861352 
L 500.9904 451.130894 
L 501.70464 451.161376 
L 502.41888 450.964983 
L 503.2224 450.499664 
L 504.1152 449.701044 
L 505.18656 448.421789 
L 506.46624 446.513029 
L 508.01376 443.796587 
L 510.12672 439.625836 
L 518.4 422.855433 
L 518.4 422.855433 
" clip-path="url(#pd88a7a55a1)" style="fill: none; stroke: #000000; stroke-width: 1.5; stroke-linecap: square"/>
   </g>
   <g id="patch_3">
    <path d="M 72 512.64 
L 72 69.12 
" style="fill: none; stroke: #000000; stroke-width: 0.8; stroke-linejoin: miter; stroke-linecap: square"/>
   </g>
   <g id="patch_4">
    <path d="M 518.4 512.64 
L 518.4 69.12 
" style="fill: none; stroke: #000000; stroke-width: 0.8; stroke-linejoin: miter; stroke-linecap: square"/>
   </g>
   <g id="patch_5">
    <path d="M 72 512.64 
L 518.4 512.64 
" style="fill: none; stroke: #000000; stroke-width: 0.8; stroke-linejoin: miter; stroke-linecap: square"/>
   </g>
   <g id="patch_6">
    <path d="M 72 69.12 
L 518.4 69.12 
" style="fill: none; stroke: #000000; stroke-width: 0.8; stroke-linejoin: miter; stroke-linecap: square"/>
   </g>
  </g>
 </g>
 <defs>
  <clipPath id="pd88a7a55a1">
   <rect x="72" y="69.12" width="446.4" height="443.52"/>
  </clipPath>
 </defs>
</svg>
