<?xml version="1.0" encoding="utf-8" standalone="no"?>
<!DOCTYPE svg PUBLIC "-//W3C//DTD SVG 1.1//EN"
  "http://www.w3.org/Graphics/SVG/1.1/DTD/svg11.dtd">
<svg xmlns:xlink="http://www.w3.org/1999/xlink" width="576pt" height="576pt" viewBox="0 0 576 576" xmlns="http://www.w3.org/2000/svg" version="1.1">
 <metadata>
  <rdf:RDF xmlns:dc="http://purl.org/dc/elements/1.1/" xmlns:cc="http://creativecommons.org/ns#" xmlns:rdf="http://www.w3.org/1999/02/22-rdf-syntax-ns#">
   <cc:Work>
    <dc:type rdf:resource="http://purl.org/dc/dcmitype/StillImage"/>
    <dc:date>2025-03-19T20:13:18.100888</dc:date>
    <dc:format>image/svg+xml</dc:format>
    <dc:creator>
     <cc:Agent>
      <dc:title>Matplotlib v3.10.0, https://matplotlib.org/</dc:title>
     </cc:Agent>
    </dc:creator>
   </cc:Work>
  </rdf:RDF>
 </metadata>
 <defs>
  <style type="text/css">*{stroke-linejoin: round; stroke-linecap: butt}</style>
 </defs>
 <g id="figure_1">
  <g id="patch_1">
   <path d="M 0 576 
L 576 576 
L 576 0 
L 0 0 
z
" style="fill: #ffffff"/>
  </g>
  <g id="axes_1">
   <g id="patch_2">
    <path d="M 72 512.64 
L 518.4 512.64 
L 518.4 69.12 
L 72 69.12 
z
" style="fill: #ffffff"/>
   </g>
   <g id="matplotlib.axis_1">
    <g id="xtick_1">
     <g id="line2d_1">
      <defs>
       <path id="mc380a064bb" d="M 0 0 
L 0 3.5 
" style="stroke: #000000; stroke-width: 0.8"/>
      </defs>
      <g>
       <use xlink:href="#mc380a064bb" x="72" y="512.64" style="stroke: #000000; stroke-width: 0.8"/>
      </g>
     </g>
     <g id="text_1">
      <!-- 3000 -->
      <g transform="translate(59.275 527.238438) scale(0.1 -0.1)">
       <defs>
        <path id="DejaVuSans-33" d="M 2597 2516 
Q 3050 2419 3304 2112 
Q 3559 1806 3559 1356 
Q 3559 666 3084 287 
Q 2609 -91 1734 -91 
Q 1441 -91 1130 -33 
Q 819 25 488 141 
L 488 750 
Q 750 597 1062 519 
Q 1375 441 1716 441 
Q 2309 441 2620 675 
Q 2931 909 2931 1356 
Q 2931 1769 2642 2001 
Q 2353 2234 1838 2234 
L 1294 2234 
L 1294 2753 
L 1863 2753 
Q 2328 2753 2575 2939 
Q 2822 3125 2822 3475 
Q 2822 3834 2567 4026 
Q 2313 4219 1838 4219 
Q 1578 4219 1281 4162 
Q 984 4106 628 3988 
L 628 4550 
Q 988 4650 1302 4700 
Q 1616 4750 1894 4750 
Q 2613 4750 3031 4423 
Q 3450 4097 3450 3541 
Q 3450 3153 3228 2886 
Q 3006 2619 2597 2516 
z
" transform="scale(0.015625)"/>
        <path id="DejaVuSans-30" d="M 2034 4250 
Q 1547 4250 1301 3770 
Q 1056 3291 1056 2328 
Q 1056 1369 1301 889 
Q 1547 409 2034 409 
Q 2525 409 2770 889 
Q 3016 1369 3016 2328 
Q 3016 3291 2770 3770 
Q 2525 4250 2034 4250 
z
M 2034 4750 
Q 2819 4750 3233 4129 
Q 3647 3509 3647 2328 
Q 3647 1150 3233 529 
Q 2819 -91 2034 -91 
Q 1250 -91 836 529 
Q 422 1150 422 2328 
Q 422 3509 836 4129 
Q 1250 4750 2034 4750 
z
" transform="scale(0.015625)"/>
       </defs>
       <use xlink:href="#DejaVuSans-33"/>
       <use xlink:href="#DejaVuSans-30" transform="translate(63.623047 0)"/>
       <use xlink:href="#DejaVuSans-30" transform="translate(127.246094 0)"/>
       <use xlink:href="#DejaVuSans-30" transform="translate(190.869141 0)"/>
      </g>
     </g>
    </g>
    <g id="xtick_2">
     <g id="line2d_2">
      <g>
       <use xlink:href="#mc380a064bb" x="131.52" y="512.64" style="stroke: #000000; stroke-width: 0.8"/>
      </g>
     </g>
     <g id="text_2">
      <!-- 3100 -->
      <g transform="translate(118.795 527.238438) scale(0.1 -0.1)">
       <defs>
        <path id="DejaVuSans-31" d="M 794 531 
L 1825 531 
L 1825 4091 
L 703 3866 
L 703 4441 
L 1819 4666 
L 2450 4666 
L 2450 531 
L 3481 531 
L 3481 0 
L 794 0 
L 794 531 
z
" transform="scale(0.015625)"/>
       </defs>
       <use xlink:href="#DejaVuSans-33"/>
       <use xlink:href="#DejaVuSans-31" transform="translate(63.623047 0)"/>
       <use xlink:href="#DejaVuSans-30" transform="translate(127.246094 0)"/>
       <use xlink:href="#DejaVuSans-30" transform="translate(190.869141 0)"/>
      </g>
     </g>
    </g>
    <g id="xtick_3">
     <g id="line2d_3">
      <g>
       <use xlink:href="#mc380a064bb" x="191.04" y="512.64" style="stroke: #000000; stroke-width: 0.8"/>
      </g>
     </g>
     <g id="text_3">
      <!-- 3200 -->
      <g transform="translate(178.315 527.238438) scale(0.1 -0.1)">
       <defs>
        <path id="DejaVuSans-32" d="M 1228 531 
L 3431 531 
L 3431 0 
L 469 0 
L 469 531 
Q 828 903 1448 1529 
Q 2069 2156 2228 2338 
Q 2531 2678 2651 2914 
Q 2772 3150 2772 3378 
Q 2772 3750 2511 3984 
Q 2250 4219 1831 4219 
Q 1534 4219 1204 4116 
Q 875 4013 500 3803 
L 500 4441 
Q 881 4594 1212 4672 
Q 1544 4750 1819 4750 
Q 2544 4750 2975 4387 
Q 3406 4025 3406 3419 
Q 3406 3131 3298 2873 
Q 3191 2616 2906 2266 
Q 2828 2175 2409 1742 
Q 1991 1309 1228 531 
z
" transform="scale(0.015625)"/>
       </defs>
       <use xlink:href="#DejaVuSans-33"/>
       <use xlink:href="#DejaVuSans-32" transform="translate(63.623047 0)"/>
       <use xlink:href="#DejaVuSans-30" transform="translate(127.246094 0)"/>
       <use xlink:href="#DejaVuSans-30" transform="translate(190.869141 0)"/>
      </g>
     </g>
    </g>
    <g id="xtick_4">
     <g id="line2d_4">
      <g>
       <use xlink:href="#mc380a064bb" x="250.56" y="512.64" style="stroke: #000000; stroke-width: 0.8"/>
      </g>
     </g>
     <g id="text_4">
      <!-- 3300 -->
      <g transform="translate(237.835 527.238438) scale(0.1 -0.1)">
       <use xlink:href="#DejaVuSans-33"/>
       <use xlink:href="#DejaVuSans-33" transform="translate(63.623047 0)"/>
       <use xlink:href="#DejaVuSans-30" transform="translate(127.246094 0)"/>
       <use xlink:href="#DejaVuSans-30" transform="translate(190.869141 0)"/>
      </g>
     </g>
    </g>
    <g id="xtick_5">
     <g id="line2d_5">
      <g>
       <use xlink:href="#mc380a064bb" x="310.08" y="512.64" style="stroke: #000000; stroke-width: 0.8"/>
      </g>
     </g>
     <g id="text_5">
      <!-- 3400 -->
      <g transform="translate(297.355 527.238438) scale(0.1 -0.1)">
       <defs>
        <path id="DejaVuSans-34" d="M 2419 4116 
L 825 1625 
L 2419 1625 
L 2419 4116 
z
M 2253 4666 
L 3047 4666 
L 3047 1625 
L 3713 1625 
L 3713 1100 
L 3047 1100 
L 3047 0 
L 2419 0 
L 2419 1100 
L 313 1100 
L 313 1709 
L 2253 4666 
z
" transform="scale(0.015625)"/>
       </defs>
       <use xlink:href="#DejaVuSans-33"/>
       <use xlink:href="#DejaVuSans-34" transform="translate(63.623047 0)"/>
       <use xlink:href="#DejaVuSans-30" transform="translate(127.246094 0)"/>
       <use xlink:href="#DejaVuSans-30" transform="translate(190.869141 0)"/>
      </g>
     </g>
    </g>
    <g id="xtick_6">
     <g id="line2d_6">
      <g>
       <use xlink:href="#mc380a064bb" x="369.6" y="512.64" style="stroke: #000000; stroke-width: 0.8"/>
      </g>
     </g>
     <g id="text_6">
      <!-- 3500 -->
      <g transform="translate(356.875 527.238438) scale(0.1 -0.1)">
       <defs>
        <path id="DejaVuSans-35" d="M 691 4666 
L 3169 4666 
L 3169 4134 
L 1269 4134 
L 1269 2991 
Q 1406 3038 1543 3061 
Q 1681 3084 1819 3084 
Q 2600 3084 3056 2656 
Q 3513 2228 3513 1497 
Q 3513 744 3044 326 
Q 2575 -91 1722 -91 
Q 1428 -91 1123 -41 
Q 819 9 494 109 
L 494 744 
Q 775 591 1075 516 
Q 1375 441 1709 441 
Q 2250 441 2565 725 
Q 2881 1009 2881 1497 
Q 2881 1984 2565 2268 
Q 2250 2553 1709 2553 
Q 1456 2553 1204 2497 
Q 953 2441 691 2322 
L 691 4666 
z
" transform="scale(0.015625)"/>
       </defs>
       <use xlink:href="#DejaVuSans-33"/>
       <use xlink:href="#DejaVuSans-35" transform="translate(63.623047 0)"/>
       <use xlink:href="#DejaVuSans-30" transform="translate(127.246094 0)"/>
       <use xlink:href="#DejaVuSans-30" transform="translate(190.869141 0)"/>
      </g>
     </g>
    </g>
    <g id="xtick_7">
     <g id="line2d_7">
      <g>
       <use xlink:href="#mc380a064bb" x="429.12" y="512.64" style="stroke: #000000; stroke-width: 0.8"/>
      </g>
     </g>
     <g id="text_7">
      <!-- 3600 -->
      <g transform="translate(416.395 527.238438) scale(0.1 -0.1)">
       <defs>
        <path id="DejaVuSans-36" d="M 2113 2584 
Q 1688 2584 1439 2293 
Q 1191 2003 1191 1497 
Q 1191 994 1439 701 
Q 1688 409 2113 409 
Q 2538 409 2786 701 
Q 3034 994 3034 1497 
Q 3034 2003 2786 2293 
Q 2538 2584 2113 2584 
z
M 3366 4563 
L 3366 3988 
Q 3128 4100 2886 4159 
Q 2644 4219 2406 4219 
Q 1781 4219 1451 3797 
Q 1122 3375 1075 2522 
Q 1259 2794 1537 2939 
Q 1816 3084 2150 3084 
Q 2853 3084 3261 2657 
Q 3669 2231 3669 1497 
Q 3669 778 3244 343 
Q 2819 -91 2113 -91 
Q 1303 -91 875 529 
Q 447 1150 447 2328 
Q 447 3434 972 4092 
Q 1497 4750 2381 4750 
Q 2619 4750 2861 4703 
Q 3103 4656 3366 4563 
z
" transform="scale(0.015625)"/>
       </defs>
       <use xlink:href="#DejaVuSans-33"/>
       <use xlink:href="#DejaVuSans-36" transform="translate(63.623047 0)"/>
       <use xlink:href="#DejaVuSans-30" transform="translate(127.246094 0)"/>
       <use xlink:href="#DejaVuSans-30" transform="translate(190.869141 0)"/>
      </g>
     </g>
    </g>
    <g id="xtick_8">
     <g id="line2d_8">
      <g>
       <use xlink:href="#mc380a064bb" x="488.64" y="512.64" style="stroke: #000000; stroke-width: 0.8"/>
      </g>
     </g>
     <g id="text_8">
      <!-- 3700 -->
      <g transform="translate(475.915 527.238438) scale(0.1 -0.1)">
       <defs>
        <path id="DejaVuSans-37" d="M 525 4666 
L 3525 4666 
L 3525 4397 
L 1831 0 
L 1172 0 
L 2766 4134 
L 525 4134 
L 525 4666 
z
" transform="scale(0.015625)"/>
       </defs>
       <use xlink:href="#DejaVuSans-33"/>
       <use xlink:href="#DejaVuSans-37" transform="translate(63.623047 0)"/>
       <use xlink:href="#DejaVuSans-30" transform="translate(127.246094 0)"/>
       <use xlink:href="#DejaVuSans-30" transform="translate(190.869141 0)"/>
      </g>
     </g>
    </g>
    <g id="text_9">
     <!-- Time (ms) -->
     <g transform="translate(270.000781 540.916563) scale(0.1 -0.1)">
      <defs>
       <path id="DejaVuSans-54" d="M -19 4666 
L 3928 4666 
L 3928 4134 
L 2272 4134 
L 2272 0 
L 1638 0 
L 1638 4134 
L -19 4134 
L -19 4666 
z
" transform="scale(0.015625)"/>
       <path id="DejaVuSans-69" d="M 603 3500 
L 1178 3500 
L 1178 0 
L 603 0 
L 603 3500 
z
M 603 4863 
L 1178 4863 
L 1178 4134 
L 603 4134 
L 603 4863 
z
" transform="scale(0.015625)"/>
       <path id="DejaVuSans-6d" d="M 3328 2828 
Q 3544 3216 3844 3400 
Q 4144 3584 4550 3584 
Q 5097 3584 5394 3201 
Q 5691 2819 5691 2113 
L 5691 0 
L 5113 0 
L 5113 2094 
Q 5113 2597 4934 2840 
Q 4756 3084 4391 3084 
Q 3944 3084 3684 2787 
Q 3425 2491 3425 1978 
L 3425 0 
L 2847 0 
L 2847 2094 
Q 2847 2600 2669 2842 
Q 2491 3084 2119 3084 
Q 1678 3084 1418 2786 
Q 1159 2488 1159 1978 
L 1159 0 
L 581 0 
L 581 3500 
L 1159 3500 
L 1159 2956 
Q 1356 3278 1631 3431 
Q 1906 3584 2284 3584 
Q 2666 3584 2933 3390 
Q 3200 3197 3328 2828 
z
" transform="scale(0.015625)"/>
       <path id="DejaVuSans-65" d="M 3597 1894 
L 3597 1613 
L 953 1613 
Q 991 1019 1311 708 
Q 1631 397 2203 397 
Q 2534 397 2845 478 
Q 3156 559 3463 722 
L 3463 178 
Q 3153 47 2828 -22 
Q 2503 -91 2169 -91 
Q 1331 -91 842 396 
Q 353 884 353 1716 
Q 353 2575 817 3079 
Q 1281 3584 2069 3584 
Q 2775 3584 3186 3129 
Q 3597 2675 3597 1894 
z
M 3022 2063 
Q 3016 2534 2758 2815 
Q 2500 3097 2075 3097 
Q 1594 3097 1305 2825 
Q 1016 2553 972 2059 
L 3022 2063 
z
" transform="scale(0.015625)"/>
       <path id="DejaVuSans-20" transform="scale(0.015625)"/>
       <path id="DejaVuSans-28" d="M 1984 4856 
Q 1566 4138 1362 3434 
Q 1159 2731 1159 2009 
Q 1159 1288 1364 580 
Q 1569 -128 1984 -844 
L 1484 -844 
Q 1016 -109 783 600 
Q 550 1309 550 2009 
Q 550 2706 781 3412 
Q 1013 4119 1484 4856 
L 1984 4856 
z
" transform="scale(0.015625)"/>
       <path id="DejaVuSans-73" d="M 2834 3397 
L 2834 2853 
Q 2591 2978 2328 3040 
Q 2066 3103 1784 3103 
Q 1356 3103 1142 2972 
Q 928 2841 928 2578 
Q 928 2378 1081 2264 
Q 1234 2150 1697 2047 
L 1894 2003 
Q 2506 1872 2764 1633 
Q 3022 1394 3022 966 
Q 3022 478 2636 193 
Q 2250 -91 1575 -91 
Q 1294 -91 989 -36 
Q 684 19 347 128 
L 347 722 
Q 666 556 975 473 
Q 1284 391 1588 391 
Q 1994 391 2212 530 
Q 2431 669 2431 922 
Q 2431 1156 2273 1281 
Q 2116 1406 1581 1522 
L 1381 1569 
Q 847 1681 609 1914 
Q 372 2147 372 2553 
Q 372 3047 722 3315 
Q 1072 3584 1716 3584 
Q 2034 3584 2315 3537 
Q 2597 3491 2834 3397 
z
" transform="scale(0.015625)"/>
       <path id="DejaVuSans-29" d="M 513 4856 
L 1013 4856 
Q 1481 4119 1714 3412 
Q 1947 2706 1947 2009 
Q 1947 1309 1714 600 
Q 1481 -109 1013 -844 
L 513 -844 
Q 928 -128 1133 580 
Q 1338 1288 1338 2009 
Q 1338 2731 1133 3434 
Q 928 4138 513 4856 
z
" transform="scale(0.015625)"/>
      </defs>
      <use xlink:href="#DejaVuSans-54"/>
      <use xlink:href="#DejaVuSans-69" transform="translate(57.958984 0)"/>
      <use xlink:href="#DejaVuSans-6d" transform="translate(85.742188 0)"/>
      <use xlink:href="#DejaVuSans-65" transform="translate(183.154297 0)"/>
      <use xlink:href="#DejaVuSans-20" transform="translate(244.677734 0)"/>
      <use xlink:href="#DejaVuSans-28" transform="translate(276.464844 0)"/>
      <use xlink:href="#DejaVuSans-6d" transform="translate(315.478516 0)"/>
      <use xlink:href="#DejaVuSans-73" transform="translate(412.890625 0)"/>
      <use xlink:href="#DejaVuSans-29" transform="translate(464.990234 0)"/>
     </g>
    </g>
   </g>
   <g id="matplotlib.axis_2">
    <g id="ytick_1">
     <g id="line2d_9">
      <defs>
       <path id="m9931d0918d" d="M 0 0 
L -3.5 0 
" style="stroke: #000000; stroke-width: 0.8"/>
      </defs>
      <g>
       <use xlink:href="#m9931d0918d" x="72" y="456.750652" style="stroke: #000000; stroke-width: 0.8"/>
      </g>
     </g>
     <g id="text_10">
      <!-- −60 -->
      <g transform="translate(43.895313 460.54987) scale(0.1 -0.1)">
       <defs>
        <path id="DejaVuSans-2212" d="M 678 2272 
L 4684 2272 
L 4684 1741 
L 678 1741 
L 678 2272 
z
" transform="scale(0.015625)"/>
       </defs>
       <use xlink:href="#DejaVuSans-2212"/>
       <use xlink:href="#DejaVuSans-36" transform="translate(83.789062 0)"/>
       <use xlink:href="#DejaVuSans-30" transform="translate(147.412109 0)"/>
      </g>
     </g>
    </g>
    <g id="ytick_2">
     <g id="line2d_10">
      <g>
       <use xlink:href="#m9931d0918d" x="72" y="389.914261" style="stroke: #000000; stroke-width: 0.8"/>
      </g>
     </g>
     <g id="text_11">
      <!-- −40 -->
      <g transform="translate(43.895313 393.71348) scale(0.1 -0.1)">
       <use xlink:href="#DejaVuSans-2212"/>
       <use xlink:href="#DejaVuSans-34" transform="translate(83.789062 0)"/>
       <use xlink:href="#DejaVuSans-30" transform="translate(147.412109 0)"/>
      </g>
     </g>
    </g>
    <g id="ytick_3">
     <g id="line2d_11">
      <g>
       <use xlink:href="#m9931d0918d" x="72" y="323.077871" style="stroke: #000000; stroke-width: 0.8"/>
      </g>
     </g>
     <g id="text_12">
      <!-- −20 -->
      <g transform="translate(43.895313 326.87709) scale(0.1 -0.1)">
       <use xlink:href="#DejaVuSans-2212"/>
       <use xlink:href="#DejaVuSans-32" transform="translate(83.789062 0)"/>
       <use xlink:href="#DejaVuSans-30" transform="translate(147.412109 0)"/>
      </g>
     </g>
    </g>
    <g id="ytick_4">
     <g id="line2d_12">
      <g>
       <use xlink:href="#m9931d0918d" x="72" y="256.241481" style="stroke: #000000; stroke-width: 0.8"/>
      </g>
     </g>
     <g id="text_13">
      <!-- 0 -->
      <g transform="translate(58.6375 260.0407) scale(0.1 -0.1)">
       <use xlink:href="#DejaVuSans-30"/>
      </g>
     </g>
    </g>
    <g id="ytick_5">
     <g id="line2d_13">
      <g>
       <use xlink:href="#m9931d0918d" x="72" y="189.405091" style="stroke: #000000; stroke-width: 0.8"/>
      </g>
     </g>
     <g id="text_14">
      <!-- 20 -->
      <g transform="translate(52.275 193.20431) scale(0.1 -0.1)">
       <use xlink:href="#DejaVuSans-32"/>
       <use xlink:href="#DejaVuSans-30" transform="translate(63.623047 0)"/>
      </g>
     </g>
    </g>
    <g id="ytick_6">
     <g id="line2d_14">
      <g>
       <use xlink:href="#m9931d0918d" x="72" y="122.568701" style="stroke: #000000; stroke-width: 0.8"/>
      </g>
     </g>
     <g id="text_15">
      <!-- 40 -->
      <g transform="translate(52.275 126.36792) scale(0.1 -0.1)">
       <use xlink:href="#DejaVuSans-34"/>
       <use xlink:href="#DejaVuSans-30" transform="translate(63.623047 0)"/>
      </g>
     </g>
    </g>
    <g id="text_16">
     <!-- Voltage (mV) -->
     <g transform="translate(37.815625 323.4175) rotate(-90) scale(0.1 -0.1)">
      <defs>
       <path id="DejaVuSans-56" d="M 1831 0 
L 50 4666 
L 709 4666 
L 2188 738 
L 3669 4666 
L 4325 4666 
L 2547 0 
L 1831 0 
z
" transform="scale(0.015625)"/>
       <path id="DejaVuSans-6f" d="M 1959 3097 
Q 1497 3097 1228 2736 
Q 959 2375 959 1747 
Q 959 1119 1226 758 
Q 1494 397 1959 397 
Q 2419 397 2687 759 
Q 2956 1122 2956 1747 
Q 2956 2369 2687 2733 
Q 2419 3097 1959 3097 
z
M 1959 3584 
Q 2709 3584 3137 3096 
Q 3566 2609 3566 1747 
Q 3566 888 3137 398 
Q 2709 -91 1959 -91 
Q 1206 -91 779 398 
Q 353 888 353 1747 
Q 353 2609 779 3096 
Q 1206 3584 1959 3584 
z
" transform="scale(0.015625)"/>
       <path id="DejaVuSans-6c" d="M 603 4863 
L 1178 4863 
L 1178 0 
L 603 0 
L 603 4863 
z
" transform="scale(0.015625)"/>
       <path id="DejaVuSans-74" d="M 1172 4494 
L 1172 3500 
L 2356 3500 
L 2356 3053 
L 1172 3053 
L 1172 1153 
Q 1172 725 1289 603 
Q 1406 481 1766 481 
L 2356 481 
L 2356 0 
L 1766 0 
Q 1100 0 847 248 
Q 594 497 594 1153 
L 594 3053 
L 172 3053 
L 172 3500 
L 594 3500 
L 594 4494 
L 1172 4494 
z
" transform="scale(0.015625)"/>
       <path id="DejaVuSans-61" d="M 2194 1759 
Q 1497 1759 1228 1600 
Q 959 1441 959 1056 
Q 959 750 1161 570 
Q 1363 391 1709 391 
Q 2188 391 2477 730 
Q 2766 1069 2766 1631 
L 2766 1759 
L 2194 1759 
z
M 3341 1997 
L 3341 0 
L 2766 0 
L 2766 531 
Q 2569 213 2275 61 
Q 1981 -91 1556 -91 
Q 1019 -91 701 211 
Q 384 513 384 1019 
Q 384 1609 779 1909 
Q 1175 2209 1959 2209 
L 2766 2209 
L 2766 2266 
Q 2766 2663 2505 2880 
Q 2244 3097 1772 3097 
Q 1472 3097 1187 3025 
Q 903 2953 641 2809 
L 641 3341 
Q 956 3463 1253 3523 
Q 1550 3584 1831 3584 
Q 2591 3584 2966 3190 
Q 3341 2797 3341 1997 
z
" transform="scale(0.015625)"/>
       <path id="DejaVuSans-67" d="M 2906 1791 
Q 2906 2416 2648 2759 
Q 2391 3103 1925 3103 
Q 1463 3103 1205 2759 
Q 947 2416 947 1791 
Q 947 1169 1205 825 
Q 1463 481 1925 481 
Q 2391 481 2648 825 
Q 2906 1169 2906 1791 
z
M 3481 434 
Q 3481 -459 3084 -895 
Q 2688 -1331 1869 -1331 
Q 1566 -1331 1297 -1286 
Q 1028 -1241 775 -1147 
L 775 -588 
Q 1028 -725 1275 -790 
Q 1522 -856 1778 -856 
Q 2344 -856 2625 -561 
Q 2906 -266 2906 331 
L 2906 616 
Q 2728 306 2450 153 
Q 2172 0 1784 0 
Q 1141 0 747 490 
Q 353 981 353 1791 
Q 353 2603 747 3093 
Q 1141 3584 1784 3584 
Q 2172 3584 2450 3431 
Q 2728 3278 2906 2969 
L 2906 3500 
L 3481 3500 
L 3481 434 
z
" transform="scale(0.015625)"/>
      </defs>
      <use xlink:href="#DejaVuSans-56"/>
      <use xlink:href="#DejaVuSans-6f" transform="translate(60.658203 0)"/>
      <use xlink:href="#DejaVuSans-6c" transform="translate(121.839844 0)"/>
      <use xlink:href="#DejaVuSans-74" transform="translate(149.623047 0)"/>
      <use xlink:href="#DejaVuSans-61" transform="translate(188.832031 0)"/>
      <use xlink:href="#DejaVuSans-67" transform="translate(250.111328 0)"/>
      <use xlink:href="#DejaVuSans-65" transform="translate(313.587891 0)"/>
      <use xlink:href="#DejaVuSans-20" transform="translate(375.111328 0)"/>
      <use xlink:href="#DejaVuSans-28" transform="translate(406.898438 0)"/>
      <use xlink:href="#DejaVuSans-6d" transform="translate(445.912109 0)"/>
      <use xlink:href="#DejaVuSans-56" transform="translate(543.324219 0)"/>
      <use xlink:href="#DejaVuSans-29" transform="translate(611.732422 0)"/>
     </g>
    </g>
   </g>
   <g id="line2d_15">
    <path d="M 72 413.174258 
L 72.5952 411.566256 
L 73.10112 409.512509 
L 73.488 406.95295 
L 73.7856 403.471088 
L 73.99392 398.476495 
L 74.14272 389.10348 
L 74.20224 377.315498 
L 74.232 356.771904 
L 74.32128 89.404059 
L 74.35104 89.50289 
L 74.47008 90.839998 
L 74.61888 95.744493 
L 74.8272 111.24063 
L 75.15456 156.269332 
L 75.98784 313.277289 
L 76.25568 488.363085 
L 76.40448 492.444656 
L 76.43424 492.48 
L 76.464 492.439137 
L 77.38656 489.631021 
L 77.92224 488.780143 
L 78.36864 488.480808 
L 78.81504 488.397838 
L 79.17216 488.525579 
L 79.61856 488.95925 
L 80.54112 489.911322 
L 82.5648 491.737987 
L 83.21952 491.952669 
L 83.72544 491.891934 
L 84.26112 491.620391 
L 84.7968 491.094436 
L 85.5408 489.998163 
L 86.34432 488.339009 
L 87.35616 485.697632 
L 88.69536 481.529431 
L 89.7072 477.563608 
L 91.37376 469.708966 
L 94.7664 453.197261 
L 96.49248 446.020838 
L 98.06976 440.388242 
L 99.58752 435.793834 
L 101.016 432.152276 
L 102.47424 429.029712 
L 103.96224 426.365797 
L 105.48 424.100003 
L 107.08704 422.099805 
L 108.93216 420.168637 
L 112.89024 416.170076 
L 113.93184 414.71302 
L 114.67584 413.30088 
L 115.3008 411.624182 
L 115.80672 409.583718 
L 116.1936 406.996543 
L 116.4912 403.464247 
L 116.69952 398.303154 
L 116.84832 388.534663 
L 116.90784 375.331482 
L 116.9376 348.003426 
L 116.99712 89.337907 
L 117.05664 89.512489 
L 117.17568 90.926088 
L 117.32448 95.961456 
L 117.5328 111.712695 
L 117.86016 156.990811 
L 118.69344 313.361588 
L 118.96128 488.417866 
L 119.11008 492.396357 
L 119.1696 492.355648 
L 119.616 490.847266 
L 120.15168 489.503341 
L 120.71712 488.65453 
L 121.22304 488.36212 
L 121.66944 488.38511 
L 122.1456 488.657615 
L 122.7408 489.28789 
L 123.66336 490.640714 
L 124.25856 491.40272 
L 124.6752 491.635101 
L 126.6096 491.844546 
L 127.2048 491.612772 
L 127.77024 491.130515 
L 128.36544 490.322936 
L 129.02016 489.032229 
L 129.97248 486.533388 
L 130.98432 483.186837 
L 132.20448 478.339524 
L 133.78176 471.071849 
L 138.24576 449.943509 
L 139.88256 443.54002 
L 141.40032 438.466601 
L 142.88832 434.258714 
L 144.34656 430.792139 
L 145.8048 427.888894 
L 147.2928 425.4164 
L 148.84032 423.278204 
L 150.50688 421.3583 
L 152.6496 419.258592 
L 154.97088 416.939768 
L 156.28032 415.292872 
L 157.14336 413.879254 
L 157.82784 412.318249 
L 158.304 410.716399 
L 158.7504 408.423273 
L 159.10752 405.328167 
L 159.3456 401.456881 
L 159.52416 394.703695 
L 159.6432 379.761177 
L 159.67296 364.838694 
L 159.76224 89.395875 
L 159.82176 89.649937 
L 159.9408 91.302916 
L 160.11936 98.573549 
L 160.35744 120.282719 
L 160.74432 180.716931 
L 161.4288 308.491245 
L 161.78592 491.846123 
L 161.8752 492.437417 
L 161.93472 492.334698 
L 162.97632 489.364814 
L 163.63104 488.480026 
L 164.01792 488.272058 
L 164.34528 488.321384 
L 164.7024 488.613443 
L 165.744 489.683796 
L 166.36896 490.283426 
L 167.8272 491.663051 
L 168.4224 491.886434 
L 169.1664 491.870542 
L 169.79136 491.657597 
L 170.38656 491.187239 
L 171.01152 490.389502 
L 171.696 489.119877 
L 172.46976 487.21047 
L 173.4816 484.033887 
L 174.64224 479.628296 
L 176.10048 473.131487 
L 181.78464 446.729564 
L 183.36192 440.992109 
L 184.84992 436.391333 
L 186.30816 432.583691 
L 187.7664 429.385546 
L 189.22464 426.707868 
L 190.71264 424.428954 
L 192.28992 422.416988 
L 194.04576 420.541565 
L 198.86688 415.614094 
L 199.75968 414.211675 
L 200.47392 412.669518 
L 201.03936 410.910352 
L 201.48576 408.749997 
L 201.84288 405.869051 
L 202.11072 401.727301 
L 202.28928 395.764253 
L 202.40832 384.320928 
L 202.46784 352.413962 
L 202.52736 89.373755 
L 202.58688 89.51123 
L 202.70592 90.874477 
L 202.85472 95.859425 
L 203.06304 111.446501 
L 203.3904 156.57143 
L 204.22368 313.156814 
L 204.49152 488.36696 
L 204.64032 492.3873 
L 204.69984 492.364537 
L 206.00928 488.977219 
L 206.57472 488.410085 
L 207.05088 488.427151 
L 207.61632 488.716467 
L 208.36032 489.399323 
L 210.47328 491.496239 
L 211.09824 491.775488 
L 211.69344 491.793722 
L 212.19936 491.582517 
L 212.79456 491.079476 
L 213.41952 490.230695 
L 214.19328 488.782571 
L 215.20512 486.365218 
L 217.28832 480.65022 
L 218.03232 477.843286 
L 218.95488 473.253015 
L 222.97248 453.485107 
L 224.69856 446.20958 
L 226.27584 440.52423 
L 227.73408 436.079764 
L 229.19232 432.334146 
L 230.68032 429.128045 
L 232.16832 426.450408 
L 233.65632 424.208294 
L 235.26336 422.187519 
L 237.07872 420.271976 
L 241.39392 415.870974 
L 242.376 414.41412 
L 243.09024 412.969422 
L 243.62592 411.405964 
L 244.13184 409.163012 
L 244.51872 406.372894 
L 244.78656 402.816919 
L 244.99488 396.990691 
L 245.11392 388.030713 
L 245.17344 373.189236 
L 245.2032 334.89034 
L 245.26272 89.28 
L 245.32224 89.548024 
L 245.44128 91.020503 
L 245.59008 96.186063 
L 245.7984 112.169186 
L 246.12576 157.776937 
L 246.95904 318.314361 
L 247.16736 481.834171 
L 247.34592 492.388148 
L 247.40544 492.462522 
L 247.4352 492.425138 
L 248.74464 488.978381 
L 249.2208 488.543437 
L 249.63744 488.457023 
L 250.1136 488.62581 
L 250.73856 489.163878 
L 252.67296 491.040471 
L 253.17888 491.163557 
L 253.59552 491.237518 
L 254.19072 491.589012 
L 254.63712 491.836 
L 255.11328 491.829114 
L 255.55968 491.592728 
L 256.03584 491.101394 
L 256.77984 489.909522 
L 257.61312 488.146468 
L 258.50592 485.714702 
L 259.51776 482.247574 
L 260.73792 477.18789 
L 262.55328 468.583921 
L 266.06496 451.862224 
L 267.76128 444.963068 
L 269.27904 439.677927 
L 270.73728 435.362887 
L 272.22528 431.649391 
L 273.68352 428.607278 
L 275.14176 426.065508 
L 276.65952 423.860897 
L 278.26656 421.914211 
L 280.23072 419.903252 
L 283.68288 416.444222 
L 284.81376 414.945659 
L 285.61728 413.502689 
L 286.24224 411.920633 
L 286.7184 410.121372 
L 287.13504 407.606547 
L 287.4624 404.1583 
L 287.67072 399.749618 
L 287.81952 392.691888 
L 287.9088 379.880395 
L 287.93856 365.403398 
L 287.99808 89.401373 
L 288.08736 89.623504 
L 288.2064 91.283733 
L 288.38496 98.510733 
L 288.62304 120.184388 
L 289.00992 180.577481 
L 289.72416 325.720062 
L 289.90272 477.461583 
L 290.08128 492.142713 
L 290.17056 492.448284 
L 290.20032 492.334215 
L 290.5872 490.966992 
L 291.3312 489.151516 
L 291.98592 488.519817 
L 292.28352 488.412722 
L 292.84896 488.57792 
L 293.32512 488.901942 
L 294.81312 490.511544 
L 295.944 491.528851 
L 296.65824 491.897387 
L 297.25344 491.969049 
L 297.81888 491.802167 
L 298.35456 491.414164 
L 298.97952 490.661541 
L 299.664 489.46451 
L 300.49728 487.50202 
L 301.47936 484.562446 
L 302.72928 480.068813 
L 304.18752 473.907364 
L 306.12192 464.616085 
L 308.80032 451.938248 
L 310.46688 445.162908 
L 312.0144 439.776133 
L 313.53216 435.291687 
L 314.9904 431.658962 
L 316.44864 428.609674 
L 317.90688 426.064237 
L 319.42464 423.858719 
L 321.03168 421.913852 
L 322.93632 419.967191 
L 326.56704 416.319068 
L 327.6384 414.846091 
L 328.41216 413.406365 
L 329.03712 411.746434 
L 329.51328 409.907183 
L 329.8704 407.711367 
L 330.19776 404.354529 
L 330.43584 399.364508 
L 330.58464 391.549782 
L 330.67392 374.71345 
L 330.70368 344.305226 
L 330.7632 89.361748 
L 330.82272 89.551186 
L 330.94176 90.954494 
L 331.09056 96.026246 
L 331.29888 111.841287 
L 331.62624 157.179805 
L 332.45952 315.909554 
L 332.6976 485.908969 
L 332.87616 492.438392 
L 332.93568 492.397232 
L 334.12608 489.170482 
L 334.87008 488.390524 
L 335.2272 488.362613 
L 335.61408 488.57902 
L 336.17952 489.184142 
L 337.42944 490.581235 
L 338.76864 491.552788 
L 339.45312 491.965006 
L 339.92928 492.000484 
L 340.49472 491.845302 
L 341.14944 491.404228 
L 341.80416 490.684977 
L 342.54816 489.53243 
L 343.32192 487.890895 
L 344.12544 485.65001 
L 345.01824 482.454535 
L 346.14912 477.47521 
L 353.17248 445.305445 
L 354.66048 440.034727 
L 356.08896 435.74332 
L 357.51744 432.12049 
L 358.97568 429.01168 
L 360.46368 426.359075 
L 361.95168 424.148009 
L 363.55872 422.155359 
L 365.40384 420.232528 
L 369.48096 416.135894 
L 370.4928 414.697992 
L 371.2368 413.211886 
L 371.89152 411.39345 
L 372.36768 409.39569 
L 372.7248 406.970952 
L 373.0224 403.386725 
L 373.23072 398.080039 
L 373.37952 387.73539 
L 373.43904 372.374021 
L 373.4688 326.944356 
L 373.52832 89.37925 
L 373.58784 89.558333 
L 373.70688 91.053756 
L 373.85568 96.271588 
L 374.064 112.35577 
L 374.39136 158.008274 
L 375.22464 317.22406 
L 375.46272 485.938209 
L 375.64128 492.392484 
L 375.7008 492.331724 
L 377.04 488.787571 
L 377.60544 488.459667 
L 378.05184 488.414645 
L 378.49824 488.627973 
L 379.1232 489.227502 
L 381.0576 491.372515 
L 381.59328 491.519414 
L 382.78368 491.579286 
L 383.2896 491.694116 
L 383.79552 491.529091 
L 384.30144 491.116163 
L 384.80736 490.428079 
L 385.55136 488.948362 
L 386.4144 486.740855 
L 387.42624 483.50897 
L 388.58688 478.997263 
L 390.04512 472.365434 
L 395.13408 448.488448 
L 396.74112 442.388382 
L 398.22912 437.582865 
L 399.68736 433.600839 
L 401.1456 430.247978 
L 402.6336 427.381905 
L 404.15136 424.945119 
L 405.69888 422.874659 
L 407.42496 420.94127 
L 409.9248 418.523864 
L 411.91872 416.476404 
L 413.0496 414.97537 
L 413.85312 413.538386 
L 414.50784 411.865907 
L 415.01376 409.969325 
L 415.40064 407.634153 
L 415.69824 404.643015 
L 415.93632 399.820432 
L 416.08512 392.945811 
L 416.1744 380.462418 
L 416.20416 367.271514 
L 416.29344 89.390036 
L 416.38272 89.853582 
L 416.50176 91.970432 
L 416.68032 100.272634 
L 416.9184 123.599327 
L 417.33504 190.862835 
L 417.98976 326.426448 
L 418.16832 477.825733 
L 418.34688 492.215988 
L 418.4064 492.447263 
L 418.46592 492.35578 
L 419.50752 489.371253 
L 420.10272 488.576294 
L 420.4896 488.346855 
L 420.84672 488.386221 
L 421.29312 488.718492 
L 422.06688 489.67535 
L 422.8704 490.560583 
L 423.34656 490.771796 
L 423.88224 491.198246 
L 424.44768 491.67564 
L 425.07264 491.98495 
L 425.60832 491.98752 
L 426.144 491.784308 
L 426.76896 491.301641 
L 427.45344 490.470735 
L 428.19744 489.21221 
L 429.03072 487.320743 
L 429.89376 484.761415 
L 430.84608 481.188131 
L 432.27456 474.734493 
L 438.28608 446.875347 
L 439.8336 441.180605 
L 441.35136 436.449295 
L 442.83936 432.566858 
L 444.2976 429.385624 
L 445.75584 426.7234 
L 447.2736 424.410291 
L 448.85088 422.410691 
L 450.63648 420.5107 
L 455.16 415.92204 
L 456.11232 414.536588 
L 456.85632 413.063246 
L 457.45152 411.366745 
L 457.92768 409.317216 
L 458.2848 406.843883 
L 458.5824 403.170614 
L 458.79072 397.626907 
L 458.90976 389.655041 
L 458.99904 362.811254 
L 459.08832 89.414862 
L 459.14784 89.653655 
L 459.26688 91.344846 
L 459.44544 98.681561 
L 459.68352 120.544921 
L 460.0704 181.049455 
L 460.78464 328.25756 
L 460.9632 478.148032 
L 461.14176 492.168468 
L 461.20128 492.383622 
L 461.2608 492.289792 
L 462.57024 488.870094 
L 463.01664 488.48944 
L 463.43328 488.387483 
L 463.84992 488.512033 
L 464.41536 488.938939 
L 465.51648 490.144457 
L 466.43904 490.981521 
L 467.09376 491.297168 
L 467.77824 491.344191 
L 468.34368 491.147011 
L 468.9984 490.705232 
L 469.8912 489.786304 
L 471.2304 488.03318 
L 472.83744 485.653603 
L 473.25408 484.4303 
L 473.67072 482.464357 
L 475.15872 474.84066 
L 479.68224 452.738086 
L 481.3488 445.798825 
L 482.86656 440.387463 
L 484.35456 435.887875 
L 485.8128 432.164798 
L 487.27104 429.037549 
L 488.72928 426.420592 
L 490.24704 424.152626 
L 491.82432 422.191533 
L 493.63968 420.295989 
L 497.83584 416.084128 
L 498.81792 414.67827 
L 499.56192 413.177928 
L 500.21664 411.341548 
L 500.6928 409.314958 
L 501.04992 406.826226 
L 501.34752 403.04261 
L 501.55584 397.487823 
L 501.67488 389.468308 
L 501.7344 378.268944 
L 501.76416 360.878741 
L 501.85344 89.405848 
L 501.91296 89.671637 
L 502.032 91.404846 
L 502.1808 97.099211 
L 502.41888 117.262489 
L 502.776 170.988728 
L 503.52 310.210822 
L 503.84736 491.20981 
L 503.93664 492.428156 
L 503.99616 492.385793 
L 504.1152 492.021453 
L 504.7104 490.107314 
L 505.4544 488.763545 
L 505.78176 488.537386 
L 506.1984 488.459373 
L 506.6448 488.588245 
L 507.21024 488.997532 
L 508.10304 489.966954 
L 509.38272 491.313175 
L 510.00768 491.65991 
L 510.5136 491.712561 
L 511.01952 491.530979 
L 511.5552 491.096657 
L 512.20992 490.253751 
L 513.31104 488.410044 
L 514.26336 486.973157 
L 514.59072 486.456546 
L 515.21568 485.142828 
L 515.98944 482.845118 
L 516.73344 479.911483 
L 518.07264 473.658971 
L 518.4 472.048907 
L 518.4 472.048907 
" clip-path="url(#pf88039fee1)" style="fill: none; stroke: #000000; stroke-width: 1.5; stroke-linecap: square"/>
   </g>
   <g id="patch_3">
    <path d="M 72 512.64 
L 72 69.12 
" style="fill: none; stroke: #000000; stroke-width: 0.8; stroke-linejoin: miter; stroke-linecap: square"/>
   </g>
   <g id="patch_4">
    <path d="M 518.4 512.64 
L 518.4 69.12 
" style="fill: none; stroke: #000000; stroke-width: 0.8; stroke-linejoin: miter; stroke-linecap: square"/>
   </g>
   <g id="patch_5">
    <path d="M 72 512.64 
L 518.4 512.64 
" style="fill: none; stroke: #000000; stroke-width: 0.8; stroke-linejoin: miter; stroke-linecap: square"/>
   </g>
   <g id="patch_6">
    <path d="M 72 69.12 
L 518.4 69.12 
" style="fill: none; stroke: #000000; stroke-width: 0.8; stroke-linejoin: miter; stroke-linecap: square"/>
   </g>
  </g>
 </g>
 <defs>
  <clipPath id="pf88039fee1">
   <rect x="72" y="69.12" width="446.4" height="443.52"/>
  </clipPath>
 </defs>
</svg>
