<?xml version="1.0" encoding="UTF-8" standalone="no"?>
<!-- Created with Inkscape (http://www.inkscape.org/) -->

<svg
   width="157mm"
   height="76mm"
   viewBox="0 0 157 76"
   version="1.1"
   id="svg1"
   xml:space="preserve"
   inkscape:version="1.4 (e7c3feb100, 2024-10-09)"
   sodipodi:docname="stg_V_th_combined.svg"
   inkscape:export-filename="../final/stg_V_th_combined.pdf"
   inkscape:export-xdpi="96"
   inkscape:export-ydpi="96"
   xmlns:inkscape="http://www.inkscape.org/namespaces/inkscape"
   xmlns:sodipodi="http://sodipodi.sourceforge.net/DTD/sodipodi-0.dtd"
   xmlns:xlink="http://www.w3.org/1999/xlink"
   xmlns="http://www.w3.org/2000/svg"
   xmlns:svg="http://www.w3.org/2000/svg"><sodipodi:namedview
     id="namedview1"
     pagecolor="#ffffff"
     bordercolor="#000000"
     borderopacity="0.25"
     inkscape:showpageshadow="2"
     inkscape:pageopacity="0.0"
     inkscape:pagecheckerboard="0"
     inkscape:deskcolor="#d1d1d1"
     inkscape:document-units="mm"
     inkscape:zoom="0.99556626"
     inkscape:cx="419.86156"
     inkscape:cy="209.93078"
     inkscape:window-width="1920"
     inkscape:window-height="1131"
     inkscape:window-x="0"
     inkscape:window-y="0"
     inkscape:window-maximized="1"
     inkscape:current-layer="layer1"
     showguides="true"><sodipodi:guide
       position="112.18446,-0.15318627"
       orientation="0,-1"
       id="guide87"
       inkscape:locked="false" /><sodipodi:guide
       position="20.406193,-14.917954"
       orientation="0,-1"
       id="guide88"
       inkscape:locked="false" /><sodipodi:guide
       position="157.47853,130.1215"
       orientation="1,0"
       id="guide1"
       inkscape:locked="false" /></sodipodi:namedview><defs
     id="defs1"><style
   type="text/css"
   id="style1">*{stroke-linejoin: round; stroke-linecap: butt}</style><path
   id="mbd813339ee"
   d="M 0,0 V 3.5"
   style="stroke:#000000;stroke-width:0.8" /><path
   id="DejaVuSans-2212"
   d="M 678,2272 H 4684 V 1741 H 678 Z"
   transform="scale(0.015625)" /><path
   id="DejaVuSans-35"
   d="M 691,4666 H 3169 V 4134 H 1269 V 2991 q 137,47 274,70 138,23 276,23 781,0 1237,-428 457,-428 457,-1159 Q 3513,744 3044,326 2575,-91 1722,-91 1428,-91 1123,-41 819,9 494,109 v 635 q 281,-153 581,-228 300,-75 634,-75 541,0 856,284 316,284 316,772 0,487 -316,771 -315,285 -856,285 -253,0 -505,-56 -251,-56 -513,-175 z"
   transform="scale(0.015625)" /><path
   id="DejaVuSans-34"
   d="M 2419,4116 825,1625 h 1594 z m -166,550 h 794 V 1625 h 666 V 1100 H 3047 V 0 H 2419 V 1100 H 313 v 609 z"
   transform="scale(0.015625)" /><path
   id="DejaVuSans-33"
   d="m 2597,2516 q 453,-97 707,-404 255,-306 255,-756 0,-690 -475,-1069 -475,-378 -1350,-378 -293,0 -604,58 -311,58 -642,174 v 609 q 262,-153 574,-231 313,-78 654,-78 593,0 904,234 311,234 311,681 0,413 -289,645 -289,233 -804,233 h -544 v 519 h 569 q 465,0 712,186 247,186 247,536 0,359 -255,551 -254,193 -729,193 -260,0 -557,-57 -297,-56 -653,-174 v 562 q 360,100 674,150 314,50 592,50 719,0 1137,-327 419,-326 419,-882 0,-388 -222,-655 -222,-267 -631,-370 z"
   transform="scale(0.015625)" /><path
   id="DejaVuSans-32"
   d="M 1228,531 H 3431 V 0 H 469 v 531 q 359,372 979,998 621,627 780,809 303,340 423,576 121,236 121,464 0,372 -261,606 -261,235 -680,235 -297,0 -627,-103 -329,-103 -704,-313 v 638 q 381,153 712,231 332,78 607,78 725,0 1156,-363 431,-362 431,-968 0,-288 -108,-546 -107,-257 -392,-607 -78,-91 -497,-524 Q 1991,1309 1228,531 Z"
   transform="scale(0.015625)" /><path
   id="DejaVuSans-31"
   d="M 794,531 H 1825 V 4091 L 703,3866 v 575 l 1116,225 h 631 V 531 H 3481 V 0 H 794 Z"
   transform="scale(0.015625)" /><path
   id="DejaVuSans-30"
   d="m 2034,4250 q -487,0 -733,-480 -245,-479 -245,-1442 0,-959 245,-1439 246,-480 733,-480 491,0 736,480 246,480 246,1439 0,963 -246,1442 -245,480 -736,480 z m 0,500 q 785,0 1199,-621 414,-620 414,-1801 0,-1178 -414,-1799 -414,-620 -1199,-620 -784,0 -1198,620 -414,621 -414,1799 0,1181 414,1801 414,621 1198,621 z"
   transform="scale(0.015625)" /><path
   id="DejaVuSans-39"
   d="m 703,97 v 575 q 238,-113 481,-172 244,-59 479,-59 625,0 954,420 330,420 377,1277 -181,-269 -460,-413 -278,-144 -615,-144 -700,0 -1108,423 -408,424 -408,1159 0,718 425,1152 425,435 1131,435 810,0 1236,-621 427,-620 427,-1801 Q 3622,1225 3098,567 2575,-91 1691,-91 1453,-91 1209,-44 966,3 703,97 Z m 1256,1978 q 425,0 673,290 249,291 249,798 0,503 -249,795 -248,292 -673,292 -425,0 -673,-292 -248,-292 -248,-795 0,-507 248,-798 248,-290 673,-290 z"
   transform="scale(0.015625)" /><path
   id="DejaVuSans-38"
   d="m 2034,2216 q -450,0 -708,-241 -257,-241 -257,-662 0,-422 257,-663 258,-241 708,-241 450,0 709,242 260,243 260,662 0,421 -258,662 -257,241 -711,241 z m -631,268 q -406,100 -633,378 -226,279 -226,679 0,559 398,884 399,325 1092,325 697,0 1094,-325 397,-325 397,-884 0,-400 -227,-679 -226,-278 -629,-378 456,-106 710,-416 255,-309 255,-755 Q 3634,634 3220,271 2806,-91 2034,-91 1263,-91 848,271 434,634 434,1313 q 0,446 256,755 257,310 713,416 z m -231,997 q 0,-362 226,-565 227,-203 636,-203 407,0 636,203 230,203 230,565 0,363 -230,566 -229,203 -636,203 -409,0 -636,-203 -226,-203 -226,-566 z"
   transform="scale(0.015625)" /><path
   id="DejaVuSans-37"
   d="M 525,4666 H 3525 V 4397 L 1831,0 H 1172 L 2766,4134 H 525 Z"
   transform="scale(0.015625)" /><path
   id="DejaVuSans-56"
   d="M 1831,0 50,4666 H 709 L 2188,738 3669,4666 h 656 L 2547,0 Z"
   transform="scale(0.015625)" /><path
   id="DejaVuSans-5f"
   d="m 3263,-1063 v -446 H -63 v 446 z"
   transform="scale(0.015625)" /><path
   id="DejaVuSans-74"
   d="M 1172,4494 V 3500 H 2356 V 3053 H 1172 V 1153 q 0,-428 117,-550 117,-122 477,-122 h 590 V 0 H 1766 Q 1100,0 847,248 594,497 594,1153 V 3053 H 172 v 447 h 422 v 994 z"
   transform="scale(0.015625)" /><path
   id="DejaVuSans-68"
   d="M 3513,2113 V 0 h -575 v 2094 q 0,497 -194,743 -194,247 -581,247 -466,0 -735,-297 -269,-296 -269,-809 V 0 H 581 v 4863 h 578 V 2956 q 207,316 486,472 280,156 646,156 603,0 912,-373 310,-373 310,-1098 z"
   transform="scale(0.015625)" /><path
   id="DejaVuSans-20"
   transform="scale(0.015625)"
   d="" /><path
   id="DejaVuSans-28"
   d="m 1984,4856 q -418,-718 -622,-1422 -203,-703 -203,-1425 0,-721 205,-1429 205,-708 620,-1424 h -500 q -468,735 -701,1444 -233,709 -233,1409 0,697 231,1403 232,707 703,1444 z"
   transform="scale(0.015625)" /><path
   id="DejaVuSans-6d"
   d="m 3328,2828 q 216,388 516,572 300,184 706,184 547,0 844,-383 297,-382 297,-1088 V 0 h -578 v 2094 q 0,503 -179,746 -178,244 -543,244 -447,0 -707,-297 -259,-296 -259,-809 V 0 h -578 v 2094 q 0,506 -178,748 -178,242 -550,242 -441,0 -701,-298 -259,-298 -259,-808 V 0 H 581 v 3500 h 578 v -544 q 197,322 472,475 275,153 653,153 382,0 649,-194 267,-193 395,-562 z"
   transform="scale(0.015625)" /><path
   id="DejaVuSans-29"
   d="m 513,4856 h 500 q 468,-737 701,-1444 233,-706 233,-1403 0,-700 -233,-1409 -233,-709 -701,-1444 H 513 q 415,716 620,1424 205,708 205,1429 0,722 -205,1425 -205,704 -620,1422 z"
   transform="scale(0.015625)" /><path
   id="mc6681e3c06"
   d="M 0,0 H -3.5"
   style="stroke:#000000;stroke-width:0.8" /><path
   id="DejaVuSans-43"
   d="m 4122,4306 v -665 q -319,297 -680,443 -361,147 -767,147 -800,0 -1225,-489 -425,-489 -425,-1414 0,-922 425,-1411 425,-489 1225,-489 406,0 767,147 361,147 680,444 V 359 Q 3791,134 3420,21 3050,-91 2638,-91 1578,-91 968,557 359,1206 359,2328 q 0,1125 609,1773 610,649 1670,649 418,0 788,-111 371,-111 696,-333 z"
   transform="scale(0.015625)" /><path
   id="DejaVuSans-6f"
   d="m 1959,3097 q -462,0 -731,-361 -269,-361 -269,-989 0,-628 267,-989 268,-361 733,-361 460,0 728,362 269,363 269,988 0,622 -269,986 -268,364 -728,364 z m 0,487 q 750,0 1178,-488 429,-487 429,-1349 Q 3566,888 3137,398 2709,-91 1959,-91 1206,-91 779,398 353,888 353,1747 q 0,862 426,1349 427,488 1180,488 z"
   transform="scale(0.015625)" /><path
   id="DejaVuSans-75"
   d="m 544,1381 v 2119 h 575 V 1403 q 0,-497 193,-746 194,-248 582,-248 465,0 735,297 271,297 271,810 v 1984 h 575 V 0 H 2900 V 538 Q 2691,219 2414,64 2138,-91 1772,-91 1169,-91 856,284 544,659 544,1381 Z m 1447,2203 z"
   transform="scale(0.015625)" /><path
   id="DejaVuSans-6e"
   d="M 3513,2113 V 0 h -575 v 2094 q 0,497 -194,743 -194,247 -581,247 -466,0 -735,-297 -269,-296 -269,-809 V 0 H 581 v 3500 h 578 v -544 q 207,316 486,472 280,156 646,156 603,0 912,-373 310,-373 310,-1098 z"
   transform="scale(0.015625)" /><path
   id="m6521a08078"
   d="M 0,3 C 0.795609,3 1.55874,2.683901 2.12132,2.12132 2.683901,1.55874 3,0.795609 3,0 3,-0.795609 2.683901,-1.55874 2.12132,-2.12132 1.55874,-2.683901 0.795609,-3 0,-3 -0.795609,-3 -1.55874,-2.683901 -2.12132,-2.12132 -2.683901,-1.55874 -3,-0.795609 -3,0 -3,0.795609 -2.683901,1.55874 -2.12132,2.12132 -1.55874,2.683901 -0.795609,3 0,3 Z"
   style="stroke:#3f3f3f" /><clipPath
   id="pa28dfee9d2"><rect
     x="51.049999"
     y="10.8"
     width="368.7804"
     height="384.862"
     id="rect160" /></clipPath><clipPath
   id="p9f9a3bda7d"><rect
     x="51.049999"
     y="437.72324"
     width="368.7804"
     height="96.2155"
     id="rect161" /></clipPath><style
   type="text/css"
   id="style1-7">*{stroke-linejoin: round; stroke-linecap: butt}</style><path
   id="m821391f345"
   d="M 0,0 V 3.5"
   style="stroke:#000000;stroke-width:0.8" /><path
   id="DejaVuSans-2212-5"
   d="M 678,2272 H 4684 V 1741 H 678 Z"
   transform="scale(0.015625)" /><path
   id="DejaVuSans-35-3"
   d="M 691,4666 H 3169 V 4134 H 1269 V 2991 q 137,47 274,70 138,23 276,23 781,0 1237,-428 457,-428 457,-1159 Q 3513,744 3044,326 2575,-91 1722,-91 1428,-91 1123,-41 819,9 494,109 v 635 q 281,-153 581,-228 300,-75 634,-75 541,0 856,284 316,284 316,772 0,487 -316,771 -315,285 -856,285 -253,0 -505,-56 -251,-56 -513,-175 z"
   transform="scale(0.015625)" /><path
   id="DejaVuSans-34-5"
   d="M 2419,4116 825,1625 h 1594 z m -166,550 h 794 V 1625 h 666 V 1100 H 3047 V 0 H 2419 V 1100 H 313 v 609 z"
   transform="scale(0.015625)" /><path
   id="DejaVuSans-33-6"
   d="m 2597,2516 q 453,-97 707,-404 255,-306 255,-756 0,-690 -475,-1069 -475,-378 -1350,-378 -293,0 -604,58 -311,58 -642,174 v 609 q 262,-153 574,-231 313,-78 654,-78 593,0 904,234 311,234 311,681 0,413 -289,645 -289,233 -804,233 h -544 v 519 h 569 q 465,0 712,186 247,186 247,536 0,359 -255,551 -254,193 -729,193 -260,0 -557,-57 -297,-56 -653,-174 v 562 q 360,100 674,150 314,50 592,50 719,0 1137,-327 419,-326 419,-882 0,-388 -222,-655 -222,-267 -631,-370 z"
   transform="scale(0.015625)" /><path
   id="DejaVuSans-32-2"
   d="M 1228,531 H 3431 V 0 H 469 v 531 q 359,372 979,998 621,627 780,809 303,340 423,576 121,236 121,464 0,372 -261,606 -261,235 -680,235 -297,0 -627,-103 -329,-103 -704,-313 v 638 q 381,153 712,231 332,78 607,78 725,0 1156,-363 431,-362 431,-968 0,-288 -108,-546 -107,-257 -392,-607 -78,-91 -497,-524 Q 1991,1309 1228,531 Z"
   transform="scale(0.015625)" /><path
   id="DejaVuSans-31-9"
   d="M 794,531 H 1825 V 4091 L 703,3866 v 575 l 1116,225 h 631 V 531 H 3481 V 0 H 794 Z"
   transform="scale(0.015625)" /><path
   id="DejaVuSans-30-1"
   d="m 2034,4250 q -487,0 -733,-480 -245,-479 -245,-1442 0,-959 245,-1439 246,-480 733,-480 491,0 736,480 246,480 246,1439 0,963 -246,1442 -245,480 -736,480 z m 0,500 q 785,0 1199,-621 414,-620 414,-1801 0,-1178 -414,-1799 -414,-620 -1199,-620 -784,0 -1198,620 -414,621 -414,1799 0,1181 414,1801 414,621 1198,621 z"
   transform="scale(0.015625)" /><path
   id="DejaVuSans-39-2"
   d="m 703,97 v 575 q 238,-113 481,-172 244,-59 479,-59 625,0 954,420 330,420 377,1277 -181,-269 -460,-413 -278,-144 -615,-144 -700,0 -1108,423 -408,424 -408,1159 0,718 425,1152 425,435 1131,435 810,0 1236,-621 427,-620 427,-1801 Q 3622,1225 3098,567 2575,-91 1691,-91 1453,-91 1209,-44 966,3 703,97 Z m 1256,1978 q 425,0 673,290 249,291 249,798 0,503 -249,795 -248,292 -673,292 -425,0 -673,-292 -248,-292 -248,-795 0,-507 248,-798 248,-290 673,-290 z"
   transform="scale(0.015625)" /><path
   id="DejaVuSans-38-7"
   d="m 2034,2216 q -450,0 -708,-241 -257,-241 -257,-662 0,-422 257,-663 258,-241 708,-241 450,0 709,242 260,243 260,662 0,421 -258,662 -257,241 -711,241 z m -631,268 q -406,100 -633,378 -226,279 -226,679 0,559 398,884 399,325 1092,325 697,0 1094,-325 397,-325 397,-884 0,-400 -227,-679 -226,-278 -629,-378 456,-106 710,-416 255,-309 255,-755 Q 3634,634 3220,271 2806,-91 2034,-91 1263,-91 848,271 434,634 434,1313 q 0,446 256,755 257,310 713,416 z m -231,997 q 0,-362 226,-565 227,-203 636,-203 407,0 636,203 230,203 230,565 0,363 -230,566 -229,203 -636,203 -409,0 -636,-203 -226,-203 -226,-566 z"
   transform="scale(0.015625)" /><path
   id="DejaVuSans-37-0"
   d="M 525,4666 H 3525 V 4397 L 1831,0 H 1172 L 2766,4134 H 525 Z"
   transform="scale(0.015625)" /><path
   id="DejaVuSans-56-9"
   d="M 1831,0 50,4666 H 709 L 2188,738 3669,4666 h 656 L 2547,0 Z"
   transform="scale(0.015625)" /><path
   id="DejaVuSans-5f-3"
   d="m 3263,-1063 v -446 H -63 v 446 z"
   transform="scale(0.015625)" /><path
   id="DejaVuSans-74-6"
   d="M 1172,4494 V 3500 H 2356 V 3053 H 1172 V 1153 q 0,-428 117,-550 117,-122 477,-122 h 590 V 0 H 1766 Q 1100,0 847,248 594,497 594,1153 V 3053 H 172 v 447 h 422 v 994 z"
   transform="scale(0.015625)" /><path
   id="DejaVuSans-68-0"
   d="M 3513,2113 V 0 h -575 v 2094 q 0,497 -194,743 -194,247 -581,247 -466,0 -735,-297 -269,-296 -269,-809 V 0 H 581 v 4863 h 578 V 2956 q 207,316 486,472 280,156 646,156 603,0 912,-373 310,-373 310,-1098 z"
   transform="scale(0.015625)" /><path
   id="DejaVuSans-20-6"
   transform="scale(0.015625)"
   d="" /><path
   id="DejaVuSans-28-2"
   d="m 1984,4856 q -418,-718 -622,-1422 -203,-703 -203,-1425 0,-721 205,-1429 205,-708 620,-1424 h -500 q -468,735 -701,1444 -233,709 -233,1409 0,697 231,1403 232,707 703,1444 z"
   transform="scale(0.015625)" /><path
   id="DejaVuSans-6d-6"
   d="m 3328,2828 q 216,388 516,572 300,184 706,184 547,0 844,-383 297,-382 297,-1088 V 0 h -578 v 2094 q 0,503 -179,746 -178,244 -543,244 -447,0 -707,-297 -259,-296 -259,-809 V 0 h -578 v 2094 q 0,506 -178,748 -178,242 -550,242 -441,0 -701,-298 -259,-298 -259,-808 V 0 H 581 v 3500 h 578 v -544 q 197,322 472,475 275,153 653,153 382,0 649,-194 267,-193 395,-562 z"
   transform="scale(0.015625)" /><path
   id="DejaVuSans-29-1"
   d="m 513,4856 h 500 q 468,-737 701,-1444 233,-706 233,-1403 0,-700 -233,-1409 -233,-709 -701,-1444 H 513 q 415,716 620,1424 205,708 205,1429 0,722 -205,1425 -205,704 -620,1422 z"
   transform="scale(0.015625)" /><path
   id="me0391f6fc2"
   d="M 0,0 H -3.5"
   style="stroke:#000000;stroke-width:0.8" /><path
   id="DejaVuSans-43-8"
   d="m 4122,4306 v -665 q -319,297 -680,443 -361,147 -767,147 -800,0 -1225,-489 -425,-489 -425,-1414 0,-922 425,-1411 425,-489 1225,-489 406,0 767,147 361,147 680,444 V 359 Q 3791,134 3420,21 3050,-91 2638,-91 1578,-91 968,557 359,1206 359,2328 q 0,1125 609,1773 610,649 1670,649 418,0 788,-111 371,-111 696,-333 z"
   transform="scale(0.015625)" /><path
   id="DejaVuSans-6f-7"
   d="m 1959,3097 q -462,0 -731,-361 -269,-361 -269,-989 0,-628 267,-989 268,-361 733,-361 460,0 728,362 269,363 269,988 0,622 -269,986 -268,364 -728,364 z m 0,487 q 750,0 1178,-488 429,-487 429,-1349 Q 3566,888 3137,398 2709,-91 1959,-91 1206,-91 779,398 353,888 353,1747 q 0,862 426,1349 427,488 1180,488 z"
   transform="scale(0.015625)" /><path
   id="DejaVuSans-75-9"
   d="m 544,1381 v 2119 h 575 V 1403 q 0,-497 193,-746 194,-248 582,-248 465,0 735,297 271,297 271,810 v 1984 h 575 V 0 H 2900 V 538 Q 2691,219 2414,64 2138,-91 1772,-91 1169,-91 856,284 544,659 544,1381 Z m 1447,2203 z"
   transform="scale(0.015625)" /><path
   id="DejaVuSans-6e-2"
   d="M 3513,2113 V 0 h -575 v 2094 q 0,497 -194,743 -194,247 -581,247 -466,0 -735,-297 -269,-296 -269,-809 V 0 H 581 v 3500 h 578 v -544 q 207,316 486,472 280,156 646,156 603,0 912,-373 310,-373 310,-1098 z"
   transform="scale(0.015625)" /><path
   id="mec1f450a83"
   d="M 0,3 C 0.795609,3 1.55874,2.683901 2.12132,2.12132 2.683901,1.55874 3,0.795609 3,0 3,-0.795609 2.683901,-1.55874 2.12132,-2.12132 1.55874,-2.683901 0.795609,-3 0,-3 -0.795609,-3 -1.55874,-2.683901 -2.12132,-2.12132 -2.683901,-1.55874 -3,-0.795609 -3,0 -3,0.795609 -2.683901,1.55874 -2.12132,2.12132 -1.55874,2.683901 -0.795609,3 0,3 Z"
   style="stroke:#3f3f3f" /><clipPath
   id="p24639ab2f9"><rect
     x="51.049999"
     y="10.8"
     width="368.7804"
     height="269.66199"
     id="rect160-0" /></clipPath><clipPath
   id="p082662093a"><rect
     x="51.049999"
     y="322.52325"
     width="368.7804"
     height="67.415497"
     id="rect161-2" /></clipPath><style
   type="text/css"
   id="style1-6">*{stroke-linejoin: round; stroke-linecap: butt}</style><path
   id="mbc405265c2"
   d="M 0,0 V 3.5"
   style="stroke:#000000;stroke-width:0.8" /><path
   id="DejaVuSans-2212-7"
   d="M 678,2272 H 4684 V 1741 H 678 Z"
   transform="scale(0.015625)" /><path
   id="DejaVuSans-36"
   d="m 2113,2584 q -425,0 -674,-291 -248,-290 -248,-796 0,-503 248,-796 249,-292 674,-292 425,0 673,292 248,293 248,796 0,506 -248,796 -248,291 -673,291 z m 1253,1979 v -575 q -238,112 -480,171 -242,60 -480,60 -625,0 -955,-422 -329,-422 -376,-1275 184,272 462,417 279,145 613,145 703,0 1111,-427 408,-426 408,-1160 0,-719 -425,-1154 -425,-434 -1131,-434 -810,0 -1238,620 -428,621 -428,1799 0,1106 525,1764 525,658 1409,658 238,0 480,-47 242,-47 505,-140 z"
   transform="scale(0.015625)" /><path
   id="DejaVuSans-35-5"
   d="M 691,4666 H 3169 V 4134 H 1269 V 2991 q 137,47 274,70 138,23 276,23 781,0 1237,-428 457,-428 457,-1159 Q 3513,744 3044,326 2575,-91 1722,-91 1428,-91 1123,-41 819,9 494,109 v 635 q 281,-153 581,-228 300,-75 634,-75 541,0 856,284 316,284 316,772 0,487 -316,771 -315,285 -856,285 -253,0 -505,-56 -251,-56 -513,-175 z"
   transform="scale(0.015625)" /><path
   id="DejaVuSans-30-3"
   d="m 2034,4250 q -487,0 -733,-480 -245,-479 -245,-1442 0,-959 245,-1439 246,-480 733,-480 491,0 736,480 246,480 246,1439 0,963 -246,1442 -245,480 -736,480 z m 0,500 q 785,0 1199,-621 414,-620 414,-1801 0,-1178 -414,-1799 -414,-620 -1199,-620 -784,0 -1198,620 -414,621 -414,1799 0,1181 414,1801 414,621 1198,621 z"
   transform="scale(0.015625)" /><path
   id="DejaVuSans-34-56"
   d="M 2419,4116 825,1625 h 1594 z m -166,550 h 794 V 1625 h 666 V 1100 H 3047 V 0 H 2419 V 1100 H 313 v 609 z"
   transform="scale(0.015625)" /><path
   id="DejaVuSans-56-2"
   d="M 1831,0 50,4666 H 709 L 2188,738 3669,4666 h 656 L 2547,0 Z"
   transform="scale(0.015625)" /><path
   id="DejaVuSans-5f-9"
   d="m 3263,-1063 v -446 H -63 v 446 z"
   transform="scale(0.015625)" /><path
   id="DejaVuSans-74-1"
   d="M 1172,4494 V 3500 H 2356 V 3053 H 1172 V 1153 q 0,-428 117,-550 117,-122 477,-122 h 590 V 0 H 1766 Q 1100,0 847,248 594,497 594,1153 V 3053 H 172 v 447 h 422 v 994 z"
   transform="scale(0.015625)" /><path
   id="DejaVuSans-68-2"
   d="M 3513,2113 V 0 h -575 v 2094 q 0,497 -194,743 -194,247 -581,247 -466,0 -735,-297 -269,-296 -269,-809 V 0 H 581 v 4863 h 578 V 2956 q 207,316 486,472 280,156 646,156 603,0 912,-373 310,-373 310,-1098 z"
   transform="scale(0.015625)" /><path
   id="DejaVuSans-20-7"
   transform="scale(0.015625)"
   d="" /><path
   id="DejaVuSans-28-0"
   d="m 1984,4856 q -418,-718 -622,-1422 -203,-703 -203,-1425 0,-721 205,-1429 205,-708 620,-1424 h -500 q -468,735 -701,1444 -233,709 -233,1409 0,697 231,1403 232,707 703,1444 z"
   transform="scale(0.015625)" /><path
   id="DejaVuSans-6d-9"
   d="m 3328,2828 q 216,388 516,572 300,184 706,184 547,0 844,-383 297,-382 297,-1088 V 0 h -578 v 2094 q 0,503 -179,746 -178,244 -543,244 -447,0 -707,-297 -259,-296 -259,-809 V 0 h -578 v 2094 q 0,506 -178,748 -178,242 -550,242 -441,0 -701,-298 -259,-298 -259,-808 V 0 H 581 v 3500 h 578 v -544 q 197,322 472,475 275,153 653,153 382,0 649,-194 267,-193 395,-562 z"
   transform="scale(0.015625)" /><path
   id="DejaVuSans-29-3"
   d="m 513,4856 h 500 q 468,-737 701,-1444 233,-706 233,-1403 0,-700 -233,-1409 -233,-709 -701,-1444 H 513 q 415,716 620,1424 205,708 205,1429 0,722 -205,1425 -205,704 -620,1422 z"
   transform="scale(0.015625)" /><path
   id="m5db1676856"
   d="M 0,0 H -3.5"
   style="stroke:#000000;stroke-width:0.8" /><path
   id="DejaVuSans-32-6"
   d="M 1228,531 H 3431 V 0 H 469 v 531 q 359,372 979,998 621,627 780,809 303,340 423,576 121,236 121,464 0,372 -261,606 -261,235 -680,235 -297,0 -627,-103 -329,-103 -704,-313 v 638 q 381,153 712,231 332,78 607,78 725,0 1156,-363 431,-362 431,-968 0,-288 -108,-546 -107,-257 -392,-607 -78,-91 -497,-524 Q 1991,1309 1228,531 Z"
   transform="scale(0.015625)" /><path
   id="DejaVuSans-38-0"
   d="m 2034,2216 q -450,0 -708,-241 -257,-241 -257,-662 0,-422 257,-663 258,-241 708,-241 450,0 709,242 260,243 260,662 0,421 -258,662 -257,241 -711,241 z m -631,268 q -406,100 -633,378 -226,279 -226,679 0,559 398,884 399,325 1092,325 697,0 1094,-325 397,-325 397,-884 0,-400 -227,-679 -226,-278 -629,-378 456,-106 710,-416 255,-309 255,-755 Q 3634,634 3220,271 2806,-91 2034,-91 1263,-91 848,271 434,634 434,1313 q 0,446 256,755 257,310 713,416 z m -231,997 q 0,-362 226,-565 227,-203 636,-203 407,0 636,203 230,203 230,565 0,363 -230,566 -229,203 -636,203 -409,0 -636,-203 -226,-203 -226,-566 z"
   transform="scale(0.015625)" /><path
   id="DejaVuSans-31-6"
   d="M 794,531 H 1825 V 4091 L 703,3866 v 575 l 1116,225 h 631 V 531 H 3481 V 0 H 794 Z"
   transform="scale(0.015625)" /><path
   id="DejaVuSans-43-2"
   d="m 4122,4306 v -665 q -319,297 -680,443 -361,147 -767,147 -800,0 -1225,-489 -425,-489 -425,-1414 0,-922 425,-1411 425,-489 1225,-489 406,0 767,147 361,147 680,444 V 359 Q 3791,134 3420,21 3050,-91 2638,-91 1578,-91 968,557 359,1206 359,2328 q 0,1125 609,1773 610,649 1670,649 418,0 788,-111 371,-111 696,-333 z"
   transform="scale(0.015625)" /><path
   id="DejaVuSans-6f-6"
   d="m 1959,3097 q -462,0 -731,-361 -269,-361 -269,-989 0,-628 267,-989 268,-361 733,-361 460,0 728,362 269,363 269,988 0,622 -269,986 -268,364 -728,364 z m 0,487 q 750,0 1178,-488 429,-487 429,-1349 Q 3566,888 3137,398 2709,-91 1959,-91 1206,-91 779,398 353,888 353,1747 q 0,862 426,1349 427,488 1180,488 z"
   transform="scale(0.015625)" /><path
   id="DejaVuSans-75-1"
   d="m 544,1381 v 2119 h 575 V 1403 q 0,-497 193,-746 194,-248 582,-248 465,0 735,297 271,297 271,810 v 1984 h 575 V 0 H 2900 V 538 Q 2691,219 2414,64 2138,-91 1772,-91 1169,-91 856,284 544,659 544,1381 Z m 1447,2203 z"
   transform="scale(0.015625)" /><path
   id="DejaVuSans-6e-8"
   d="M 3513,2113 V 0 h -575 v 2094 q 0,497 -194,743 -194,247 -581,247 -466,0 -735,-297 -269,-296 -269,-809 V 0 H 581 v 3500 h 578 v -544 q 207,316 486,472 280,156 646,156 603,0 912,-373 310,-373 310,-1098 z"
   transform="scale(0.015625)" /><path
   id="md45040f4f8"
   d="M 0,3 C 0.795609,3 1.55874,2.683901 2.12132,2.12132 2.683901,1.55874 3,0.795609 3,0 3,-0.795609 2.683901,-1.55874 2.12132,-2.12132 1.55874,-2.683901 0.795609,-3 0,-3 -0.795609,-3 -1.55874,-2.683901 -2.12132,-2.12132 -2.683901,-1.55874 -3,-0.795609 -3,0 -3,0.795609 -2.683901,1.55874 -2.12132,2.12132 -1.55874,2.683901 -0.795609,3 0,3 Z"
   style="stroke:#3f3f3f" /><path
   id="me8b9277aba"
   d="M 0,5 C 1.326016,5 2.597899,4.473168 3.535534,3.535534 4.473168,2.597899 5,1.326016 5,0 5,-1.326016 4.473168,-2.597899 3.535534,-3.535534 2.597899,-4.473168 1.326016,-5 0,-5 -1.326016,-5 -2.597899,-4.473168 -3.535534,-3.535534 -4.473168,-2.597899 -5,-1.326016 -5,0 -5,1.326016 -4.473168,2.597899 -3.535534,3.535534 -2.597899,4.473168 -1.326016,5 0,5 Z"
   style="stroke:#ff0000" /><path
   id="DejaVuSans-4d"
   d="m 628,4666 h 941 L 2759,1491 3956,4666 h 941 V 0 H 4281 V 4097 L 3078,897 H 2444 L 1241,4097 V 0 H 628 Z"
   transform="scale(0.015625)" /><path
   id="DejaVuSans-65"
   d="M 3597,1894 V 1613 H 953 q 38,-594 358,-905 320,-311 892,-311 331,0 642,81 311,81 618,244 V 178 Q 3153,47 2828,-22 2503,-91 2169,-91 1331,-91 842,396 353,884 353,1716 q 0,859 464,1363 464,505 1252,505 706,0 1117,-455 411,-454 411,-1235 z m -575,169 q -6,471 -264,752 -258,282 -683,282 -481,0 -770,-272 -289,-272 -333,-766 z"
   transform="scale(0.015625)" /><path
   id="DejaVuSans-61"
   d="m 2194,1759 q -697,0 -966,-159 -269,-159 -269,-544 0,-306 202,-486 202,-179 548,-179 479,0 768,339 289,339 289,901 v 128 z m 1147,238 V 0 H 2766 V 531 Q 2569,213 2275,61 1981,-91 1556,-91 q -537,0 -855,302 -317,302 -317,808 0,590 395,890 396,300 1180,300 h 807 v 57 q 0,397 -261,614 -261,217 -733,217 -300,0 -585,-72 -284,-72 -546,-216 v 532 q 315,122 612,182 297,61 578,61 760,0 1135,-394 375,-393 375,-1193 z"
   transform="scale(0.015625)" /><clipPath
   id="p343ca5bbb3"><rect
     x="51.049999"
     y="322.52325"
     width="370.14999"
     height="67.415497"
     id="rect223" /></clipPath><rect
   x="149.5"
   y="172.01663"
   width="35.480339"
   height="29.983372"
   id="rect242-5-0-8-6" /><rect
   x="149.5"
   y="172.01663"
   width="35.480339"
   height="29.983372"
   id="rect81" /><rect
   x="149.5"
   y="172.01663"
   width="35.480339"
   height="29.983372"
   id="rect83" /><rect
   x="149.5"
   y="172.01663"
   width="35.480339"
   height="29.983372"
   id="rect85" /><rect
   x="149.5"
   y="172.01663"
   width="35.480339"
   height="29.983372"
   id="rect87" /><g
   id="g323">
      <g
   id="g2752">
        <path
   d="M 1.203125,-14.328125 3.984375,0.125 c 0.546875,0 1.078125,0 1.578125,-0.015625 l 0.203125,-0.28125 8.75,-14.15625 c -0.46875,0 -0.9375,-0.03125 -1.359375,0.03125 L 12.953125,-14.03125 7.25,-4.765625 5.90625,-2.5625 5.1875,-1.328125 C 5.109375,-1.625 5.078125,-1.96875 5.015625,-2.296875 4.75,-3.890625 3.40625,-10.796875 3.40625,-10.84375 L 2.78125,-14 c 0,-0.09375 -0.015625,-0.234375 -0.078125,-0.296875 -0.0625,-0.07813 -0.28125,-0.03125 -0.390625,-0.03125 z m 0,0"
   id="path4569" />
      </g>
      <g
   id="g9035">
        <path
   d="m 1.65625,-8.703125 v 1.9375 H 0.265625 v 0.71875 H 1.65625 V -2.1875 c 0,0.625 -0.046875,1.390625 0.359375,1.921875 0.171875,0.1875 0.390625,0.34375 0.65625,0.375 0.515625,0.0625 1.328125,-0.15625 1.625,-0.265625 0.15625,-0.0625 0.625,-0.25 0.6875,-0.359375 C 5,-0.578125 4.8125,-1.203125 4.8125,-1.203125 l -0.34375,0.25 C 4,-0.65625 3.140625,-0.40625 2.75,-0.921875 2.46875,-1.3125 2.53125,-1.9375 2.53125,-2.53125 V -6.046875 H 4.75 v -0.71875 H 2.53125 v -1.9375 z m 0,0"
   id="path6230" />
      </g>
      <g
   id="g9601">
        <path
   d="M 1.15625,-9.953125 V 0 h 0.921875 v -3.15625 c 0,-0.703125 -0.046875,-1.421875 0.28125,-2.078125 0.265625,-0.5625 0.734375,-1 1.578125,-0.921875 0.40625,0.03125 0.828125,0.140625 1.078125,0.46875 0.40625,0.5 0.3125,1.203125 0.3125,1.78125 V 0 h 0.90625 v -3.875 c 0,-0.6875 0.09375,-1.46875 -0.234375,-2.109375 -0.296875,-0.546875 -0.828125,-0.796875 -1.40625,-0.875 -0.28125,-0.046875 -0.546875,-0.046875 -0.828125,0 -0.734375,0.15625 -1.40625,0.71875 -1.6875,1.4375 H 2.0625 v -4.53125 z m 0,0"
   id="path1656" />
      </g>
    </g>
  <g
   id="g2289">
      <g
   id="g6232">
        <path
   d="M 1.203125,-14.328125 3.984375,0.125 c 0.546875,0 1.078125,0 1.578125,-0.015625 l 0.203125,-0.28125 8.75,-14.15625 c -0.46875,0 -0.9375,-0.03125 -1.359375,0.03125 L 12.953125,-14.03125 7.25,-4.765625 5.90625,-2.5625 5.1875,-1.328125 C 5.109375,-1.625 5.078125,-1.96875 5.015625,-2.296875 4.75,-3.890625 3.40625,-10.796875 3.40625,-10.84375 L 2.78125,-14 c 0,-0.09375 -0.015625,-0.234375 -0.078125,-0.296875 -0.0625,-0.07813 -0.28125,-0.03125 -0.390625,-0.03125 z m 0,0"
   id="path4772" />
      </g>
      <g
   id="g5278">
        <path
   d="m 1.65625,-8.703125 v 1.9375 H 0.265625 v 0.71875 H 1.65625 V -2.1875 c 0,0.625 -0.046875,1.390625 0.359375,1.921875 0.171875,0.1875 0.390625,0.34375 0.65625,0.375 0.515625,0.0625 1.328125,-0.15625 1.625,-0.265625 0.15625,-0.0625 0.625,-0.25 0.6875,-0.359375 C 5,-0.578125 4.8125,-1.203125 4.8125,-1.203125 l -0.34375,0.25 C 4,-0.65625 3.140625,-0.40625 2.75,-0.921875 2.46875,-1.3125 2.53125,-1.9375 2.53125,-2.53125 V -6.046875 H 4.75 v -0.71875 H 2.53125 v -1.9375 z m 0,0"
   id="path5588" />
      </g>
      <g
   id="g9836">
        <path
   d="M 1.15625,-9.953125 V 0 h 0.921875 v -3.15625 c 0,-0.703125 -0.046875,-1.421875 0.28125,-2.078125 0.265625,-0.5625 0.734375,-1 1.578125,-0.921875 0.40625,0.03125 0.828125,0.140625 1.078125,0.46875 0.40625,0.5 0.3125,1.203125 0.3125,1.78125 V 0 h 0.90625 v -3.875 c 0,-0.6875 0.09375,-1.46875 -0.234375,-2.109375 -0.296875,-0.546875 -0.828125,-0.796875 -1.40625,-0.875 -0.28125,-0.046875 -0.546875,-0.046875 -0.828125,0 -0.734375,0.15625 -1.40625,0.71875 -1.6875,1.4375 H 2.0625 v -4.53125 z m 0,0"
   id="path972" />
      </g>
      <g
   id="g3437">
        <path
   d="M 7.0625,4.578125 C 6.90625,4.40625 6.6875,4.234375 6.5,4.0625 6.34375,3.921875 6.203125,3.765625 6.046875,3.59375 3.984375,1.328125 2.90625,-2.3125 3.078125,-6.171875 3.15625,-8.28125 3.578125,-10.4375 4.5625,-12.328125 5.015625,-13.171875 5.796875,-14.375 6.5,-14.96875 6.6875,-15.140625 6.90625,-15.3125 7.0625,-15.5 H 6.375 c -0.09375,0 -0.234375,-0.01563 -0.34375,0.03125 -0.25,0.125 -0.859375,0.734375 -0.953125,0.828125 -1.984375,1.984375 -3.15625,4.96875 -3.328125,8.46875 -0.09375,2.5 0.3125,5.03125 1.4375,7.265625 0.484375,1 1.15625,1.90625 1.9375,2.6875 0.203125,0.203125 0.65625,0.65625 0.90625,0.78125 0.109375,0.046875 0.25,0.015625 0.34375,0.015625 z m 0,0"
   id="path4304" />
      </g>
      <g
   id="g1227">
        <path
   d="M 2.609375,-7.6875 H 2.578125 V -9.75 h -1.25 V 0 h 1.3125 V -4.546875 C 2.640625,-5.5625 2.578125,-6.5625 3.03125,-7.5 3.421875,-8.296875 4.109375,-8.9375 5.328125,-8.8125 5.953125,-8.78125 6.5625,-8.609375 6.96875,-8.09375 7.328125,-7.625 7.359375,-7 7.359375,-6.421875 V 0 h 1.3125 V -4.546875 C 8.671875,-5.5625 8.609375,-6.5625 9.0625,-7.5 9.453125,-8.296875 10.140625,-8.9375 11.359375,-8.8125 11.984375,-8.78125 12.59375,-8.609375 13,-8.09375 13.359375,-7.625 13.390625,-7 13.390625,-6.421875 V 0 h 1.3125 v -5.46875 c 0,-1 0.125,-2.109375 -0.3125,-3.015625 -0.421875,-0.859375 -1.125,-1.3125 -2.265625,-1.375 C 11.46875,-9.921875 10.796875,-9.8125 10.203125,-9.5 9.484375,-9.09375 8.9375,-8.40625 8.609375,-7.65625 8.46875,-8.328125 8.296875,-8.78125 7.84375,-9.21875 7.375,-9.625 6.734375,-9.8125 6.109375,-9.859375 c -1.5,-0.125 -2.453125,0.5 -3.09375,1.4375 -0.171875,0.21875 -0.328125,0.46875 -0.40625,0.734375 z m 0,0"
   id="path8599" />
      </g>
      <g
   id="g4083">
        <path
   d="m 0.140625,-14.328125 c 1.125,3.015625 4.625,11.78125 5.296875,13.546875 l 0.25,0.59375 C 5.703125,-0.109375 5.71875,0 5.796875,0.046875 5.890625,0.125 6.09375,0.078125 6.203125,0.078125 h 0.71875 c 0.3125,0 0.46875,0.0625 0.53125,-0.21875 0.828125,-2.046875 5.453125,-13.84375 5.5625,-14.1875 H 11.65625 c -1.640625,4.34375 -3.4375,8.546875 -4.984375,13 C 5.5,-4.609375 4.21875,-7.765625 2.96875,-10.96875 2.5,-12.0625 2.140625,-13.265625 1.625,-14.296875 c -0.453125,-0.0625 -0.984375,-0.03125 -1.484375,-0.03125 z m 0,0"
   id="path3225" />
      </g>
      <g
   id="g2718">
        <path
   d="m 1.03125,-15.5 c 0.171875,0.1875 0.375,0.359375 0.5625,0.53125 0.15625,0.140625 0.3125,0.296875 0.453125,0.46875 1.796875,2.0625 2.828125,4.875 2.96875,8.328125 0.109375,2.5625 -0.28125,5.21875 -1.46875,7.53125 -0.390625,0.8125 -0.90625,1.578125 -1.5,2.234375 C 1.90625,3.765625 1.75,3.921875 1.59375,4.0625 1.40625,4.234375 1.203125,4.40625 1.03125,4.578125 h 0.6875 c 0.09375,0 0.25,0.03125 0.34375,-0.015625 0.25,-0.125 0.875,-0.734375 0.953125,-0.828125 C 5,1.75 6.171875,-1.234375 6.34375,-4.734375 6.4375,-7.234375 6.03125,-9.765625 4.921875,-12 c -0.5,-1 -1.15625,-1.90625 -1.953125,-2.6875 C 2.765625,-14.890625 2.3125,-15.34375 2.0625,-15.46875 1.96875,-15.515625 1.8125,-15.5 1.71875,-15.5 Z m 0,0"
   id="path2414" />
      </g>
    </g>
  <rect
   x="149.5"
   y="172.01663"
   width="35.480339"
   height="29.983372"
   id="rect81-7" /></defs><g
     inkscape:label="Layer 1"
     inkscape:groupmode="layer"
     id="layer1"
     transform="matrix(1.263929,0,0,1.263929,-58.554298,-1.2549732)"><g
       id="figure_1"
       transform="matrix(0.352778,0,0,0.352778,26.2788,-87.2761)"><g
         id="axes_1"
         transform="matrix(1.0006543,0,0,0.26908523,-7.3694502,244.49073)" /><g
         id="axes_2"><g
           id="patch_54" /><g
           id="patch_55"><path
             d="m 256.31192,325.58759 v 61.28682 h 45.487 v -61.28682 z"
             clip-path="url(#p343ca5bbb3)"
             style="fill:#74b9ff;fill-opacity:1;stroke:#3f3f3f;stroke-linejoin:miter"
             id="path145" /></g><g
           id="line2d_21"><path
             d="M 256.31192,356.231 H 188.10667"
             clip-path="url(#p343ca5bbb3)"
             style="fill:none;stroke:#3f3f3f"
             id="path146" /></g><g
           id="line2d_22"><path
             d="m 301.79892,356.231 h 67.61631"
             clip-path="url(#p343ca5bbb3)"
             style="fill:none;stroke:#3f3f3f"
             id="path147" /></g><g
           id="line2d_23"><path
             d="M 188.10667,340.90929 V 371.5527"
             clip-path="url(#p343ca5bbb3)"
             style="fill:none;stroke:#3f3f3f;stroke-linecap:square"
             id="path148" /></g><g
           id="line2d_24"><path
             d="M 369.41523,340.90929 V 371.5527"
             clip-path="url(#p343ca5bbb3)"
             style="fill:none;stroke:#3f3f3f;stroke-linecap:square"
             id="path149" /></g><g
           id="line2d_25"><defs
             id="defs149"><path
               id="path72"
               d="M 0,3 C 0.795609,3 1.55874,2.683901 2.12132,2.12132 2.683901,1.55874 3,0.795609 3,0 3,-0.795609 2.683901,-1.55874 2.12132,-2.12132 1.55874,-2.683901 0.795609,-3 0,-3 -0.795609,-3 -1.55874,-2.683901 -2.12132,-2.12132 -2.683901,-1.55874 -3,-0.795609 -3,0 -3,0.795609 -2.683901,1.55874 -2.12132,2.12132 -1.55874,2.683901 -0.795609,3 0,3 Z"
               style="stroke:#3f3f3f" /></defs><g
             clip-path="url(#p343ca5bbb3)"
             id="g213"><use
               xlink:href="#md45040f4f8"
               x="173.21838"
               y="356.23099"
               style="fill-opacity:0;stroke:#3f3f3f"
               id="use149" /><use
               xlink:href="#md45040f4f8"
               x="89.594788"
               y="356.23099"
               style="fill-opacity:0;stroke:#3f3f3f"
               id="use150" /><use
               xlink:href="#md45040f4f8"
               x="180.2804"
               y="356.23099"
               style="fill-opacity:0;stroke:#3f3f3f"
               id="use151" /><use
               xlink:href="#md45040f4f8"
               x="170.89001"
               y="356.23099"
               style="fill-opacity:0;stroke:#3f3f3f"
               id="use152" /><use
               xlink:href="#md45040f4f8"
               x="179.22212"
               y="356.23099"
               style="fill-opacity:0;stroke:#3f3f3f"
               id="use153" /><use
               xlink:href="#md45040f4f8"
               x="178.30966"
               y="356.23099"
               style="fill-opacity:0;stroke:#3f3f3f"
               id="use154" /><use
               xlink:href="#md45040f4f8"
               x="177.35092"
               y="356.23099"
               style="fill-opacity:0;stroke:#3f3f3f"
               id="use155" /><use
               xlink:href="#md45040f4f8"
               x="177.2198"
               y="356.23099"
               style="fill-opacity:0;stroke:#3f3f3f"
               id="use156" /><use
               xlink:href="#md45040f4f8"
               x="137.9651"
               y="356.23099"
               style="fill-opacity:0;stroke:#3f3f3f"
               id="use157" /><use
               xlink:href="#md45040f4f8"
               x="186.30904"
               y="356.23099"
               style="fill-opacity:0;stroke:#3f3f3f"
               id="use158" /><use
               xlink:href="#md45040f4f8"
               x="184.13879"
               y="356.23099"
               style="fill-opacity:0;stroke:#3f3f3f"
               id="use159" /><use
               xlink:href="#md45040f4f8"
               x="92.036591"
               y="356.23099"
               style="fill-opacity:0;stroke:#3f3f3f"
               id="use160" /><use
               xlink:href="#md45040f4f8"
               x="111.68686"
               y="356.23099"
               style="fill-opacity:0;stroke:#3f3f3f"
               id="use161" /><use
               xlink:href="#md45040f4f8"
               x="168.47127"
               y="356.23099"
               style="fill-opacity:0;stroke:#3f3f3f"
               id="use162" /><use
               xlink:href="#md45040f4f8"
               x="186.17287"
               y="356.23099"
               style="fill-opacity:0;stroke:#3f3f3f"
               id="use163" /><use
               xlink:href="#md45040f4f8"
               x="177.91957"
               y="356.23099"
               style="fill-opacity:0;stroke:#3f3f3f"
               id="use164" /><use
               xlink:href="#md45040f4f8"
               x="104.33042"
               y="356.23099"
               style="fill-opacity:0;stroke:#3f3f3f"
               id="use165" /><use
               xlink:href="#md45040f4f8"
               x="133.76224"
               y="356.23099"
               style="fill-opacity:0;stroke:#3f3f3f"
               id="use166" /><use
               xlink:href="#md45040f4f8"
               x="107.51691"
               y="356.23099"
               style="fill-opacity:0;stroke:#3f3f3f"
               id="use167" /><use
               xlink:href="#md45040f4f8"
               x="188.00684"
               y="356.23099"
               style="fill-opacity:0;stroke:#3f3f3f"
               id="use168" /><use
               xlink:href="#md45040f4f8"
               x="185.12047"
               y="356.23099"
               style="fill-opacity:0;stroke:#3f3f3f"
               id="use169" /><use
               xlink:href="#md45040f4f8"
               x="183.10539"
               y="356.23099"
               style="fill-opacity:0;stroke:#3f3f3f"
               id="use170" /><use
               xlink:href="#md45040f4f8"
               x="176.62521"
               y="356.23099"
               style="fill-opacity:0;stroke:#3f3f3f"
               id="use171" /><use
               xlink:href="#md45040f4f8"
               x="176.58366"
               y="356.23099"
               style="fill-opacity:0;stroke:#3f3f3f"
               id="use172" /><use
               xlink:href="#md45040f4f8"
               x="67.875"
               y="356.23099"
               style="fill-opacity:0;stroke:#3f3f3f"
               id="use173" /><use
               xlink:href="#md45040f4f8"
               x="185.25375"
               y="356.23099"
               style="fill-opacity:0;stroke:#3f3f3f"
               id="use174" /><use
               xlink:href="#md45040f4f8"
               x="177.76099"
               y="356.23099"
               style="fill-opacity:0;stroke:#3f3f3f"
               id="use175" /><use
               xlink:href="#md45040f4f8"
               x="168.50432"
               y="356.23099"
               style="fill-opacity:0;stroke:#3f3f3f"
               id="use176" /><use
               xlink:href="#md45040f4f8"
               x="185.49832"
               y="356.23099"
               style="fill-opacity:0;stroke:#3f3f3f"
               id="use177" /><use
               xlink:href="#md45040f4f8"
               x="122.83788"
               y="356.23099"
               style="fill-opacity:0;stroke:#3f3f3f"
               id="use178" /><use
               xlink:href="#md45040f4f8"
               x="171.95566"
               y="356.23099"
               style="fill-opacity:0;stroke:#3f3f3f"
               id="use179" /><use
               xlink:href="#md45040f4f8"
               x="187.23325"
               y="356.23099"
               style="fill-opacity:0;stroke:#3f3f3f"
               id="use180" /><use
               xlink:href="#md45040f4f8"
               x="183.8873"
               y="356.23099"
               style="fill-opacity:0;stroke:#3f3f3f"
               id="use181" /><use
               xlink:href="#md45040f4f8"
               x="169.14464"
               y="356.23099"
               style="fill-opacity:0;stroke:#3f3f3f"
               id="use182" /><use
               xlink:href="#md45040f4f8"
               x="185.10536"
               y="356.23099"
               style="fill-opacity:0;stroke:#3f3f3f"
               id="use183" /><use
               xlink:href="#md45040f4f8"
               x="183.92995"
               y="356.23099"
               style="fill-opacity:0;stroke:#3f3f3f"
               id="use184" /><use
               xlink:href="#md45040f4f8"
               x="177.11118"
               y="356.23099"
               style="fill-opacity:0;stroke:#3f3f3f"
               id="use185" /><use
               xlink:href="#md45040f4f8"
               x="156.22615"
               y="356.23099"
               style="fill-opacity:0;stroke:#3f3f3f"
               id="use186" /><use
               xlink:href="#md45040f4f8"
               x="187.66867"
               y="356.23099"
               style="fill-opacity:0;stroke:#3f3f3f"
               id="use187" /><use
               xlink:href="#md45040f4f8"
               x="112.04259"
               y="356.23099"
               style="fill-opacity:0;stroke:#3f3f3f"
               id="use188" /><use
               xlink:href="#md45040f4f8"
               x="125.13705"
               y="356.23099"
               style="fill-opacity:0;stroke:#3f3f3f"
               id="use189" /><use
               xlink:href="#md45040f4f8"
               x="186.20395"
               y="356.23099"
               style="fill-opacity:0;stroke:#3f3f3f"
               id="use190" /><use
               xlink:href="#md45040f4f8"
               x="176.80988"
               y="356.23099"
               style="fill-opacity:0;stroke:#3f3f3f"
               id="use191" /><use
               xlink:href="#md45040f4f8"
               x="158.29901"
               y="356.23099"
               style="fill-opacity:0;stroke:#3f3f3f"
               id="use192" /><use
               xlink:href="#md45040f4f8"
               x="172.45132"
               y="356.23099"
               style="fill-opacity:0;stroke:#3f3f3f"
               id="use193" /><use
               xlink:href="#md45040f4f8"
               x="184.0753"
               y="356.23099"
               style="fill-opacity:0;stroke:#3f3f3f"
               id="use194" /><use
               xlink:href="#md45040f4f8"
               x="183.66129"
               y="356.23099"
               style="fill-opacity:0;stroke:#3f3f3f"
               id="use195" /><use
               xlink:href="#md45040f4f8"
               x="398.8298"
               y="356.23099"
               style="fill-opacity:0;stroke:#3f3f3f"
               id="use196" /><use
               xlink:href="#md45040f4f8"
               x="383.2785"
               y="356.23099"
               style="fill-opacity:0;stroke:#3f3f3f"
               id="use197" /><use
               xlink:href="#md45040f4f8"
               x="385.76596"
               y="356.23099"
               style="fill-opacity:0;stroke:#3f3f3f"
               id="use198" /><use
               xlink:href="#md45040f4f8"
               x="392.90488"
               y="356.23099"
               style="fill-opacity:0;stroke:#3f3f3f"
               id="use199" /><use
               xlink:href="#md45040f4f8"
               x="376.01123"
               y="356.23099"
               style="fill-opacity:0;stroke:#3f3f3f"
               id="use200" /><use
               xlink:href="#md45040f4f8"
               x="398.14868"
               y="356.23099"
               style="fill-opacity:0;stroke:#3f3f3f"
               id="use201" /><use
               xlink:href="#md45040f4f8"
               x="375.22101"
               y="356.23099"
               style="fill-opacity:0;stroke:#3f3f3f"
               id="use202" /><use
               xlink:href="#md45040f4f8"
               x="399.60449"
               y="356.23099"
               style="fill-opacity:0;stroke:#3f3f3f"
               id="use203" /><use
               xlink:href="#md45040f4f8"
               x="402.00299"
               y="356.23099"
               style="fill-opacity:0;stroke:#3f3f3f"
               id="use204" /><use
               xlink:href="#md45040f4f8"
               x="383.76901"
               y="356.23099"
               style="fill-opacity:0;stroke:#3f3f3f"
               id="use205" /><use
               xlink:href="#md45040f4f8"
               x="378.59787"
               y="356.23099"
               style="fill-opacity:0;stroke:#3f3f3f"
               id="use206" /><use
               xlink:href="#md45040f4f8"
               x="399.42996"
               y="356.23099"
               style="fill-opacity:0;stroke:#3f3f3f"
               id="use207" /><use
               xlink:href="#md45040f4f8"
               x="404.375"
               y="356.23099"
               style="fill-opacity:0;stroke:#3f3f3f"
               id="use208" /><use
               xlink:href="#md45040f4f8"
               x="377.1026"
               y="356.23099"
               style="fill-opacity:0;stroke:#3f3f3f"
               id="use209" /><use
               xlink:href="#md45040f4f8"
               x="391.36072"
               y="356.23099"
               style="fill-opacity:0;stroke:#3f3f3f"
               id="use210" /><use
               xlink:href="#md45040f4f8"
               x="392.78995"
               y="356.23099"
               style="fill-opacity:0;stroke:#3f3f3f"
               id="use211" /><use
               xlink:href="#md45040f4f8"
               x="389.66693"
               y="356.23099"
               style="fill-opacity:0;stroke:#3f3f3f"
               id="use212" /><use
               xlink:href="#md45040f4f8"
               x="394.27499"
               y="356.23099"
               style="fill-opacity:0;stroke:#3f3f3f"
               id="use213" /></g></g><g
           id="line2d_26"><path
             d="m 279.8225,325.58759 v 61.28682"
             clip-path="url(#p343ca5bbb3)"
             style="fill:#d63031;fill-opacity:1;stroke:#fdcb6e;stroke-opacity:1"
             id="path213" /></g><g
           id="PathCollection_1"><defs
             id="defs217"><path
               id="path73"
               d="M 0,5 C 1.326016,5 2.597899,4.473168 3.535534,3.535534 4.473168,2.597899 5,1.326016 5,0 5,-1.326016 4.473168,-2.597899 3.535534,-3.535534 2.597899,-4.473168 1.326016,-5 0,-5 -1.326016,-5 -2.597899,-4.473168 -3.535534,-3.535534 -4.473168,-2.597899 -5,-1.326016 -5,0 -5,1.326016 -4.473168,2.597899 -3.535534,3.535534 -2.597899,4.473168 -1.326016,5 0,5 Z"
               style="stroke:#ff0000" /></defs><g
             clip-path="url(#p343ca5bbb3)"
             id="g217" /></g><path
           style="font-variation-settings:normal;opacity:1;fill:none;fill-opacity:1;stroke:#d63031;stroke-width:1.28976;stroke-linecap:square;stroke-linejoin:miter;stroke-miterlimit:4;stroke-dasharray:5.15905, 2.57953;stroke-dashoffset:0;stroke-opacity:1"
           d="m 279.09565,325.51193 v 63.82364"
           id="path87"
           sodipodi:nodetypes="cc" /><path
           d="M 368.42207,389.49698 H 68.930945"
           style="font-variation-settings:normal;vector-effect:none;fill:none;fill-opacity:1;stroke:#2d3436;stroke-width:1.29111;stroke-linecap:square;stroke-linejoin:miter;stroke-miterlimit:4;stroke-dasharray:none;stroke-dashoffset:0;stroke-opacity:1;-inkscape-stroke:none;stop-color:#000000"
           id="path206"
           sodipodi:nodetypes="cc" /><rect
           style="font-variation-settings:normal;opacity:1;vector-effect:none;fill:#2d3436;fill-opacity:1;stroke:none;stroke-width:1.29111;stroke-linecap:square;stroke-linejoin:miter;stroke-miterlimit:4;stroke-dasharray:none;stroke-dashoffset:0;stroke-opacity:1;-inkscape-stroke:none"
           id="rect76"
           width="0.79614049"
           height="3.4894059"
           x="68.291824"
           y="389.93875"
           rx="0.11483383"
           ry="0" /><rect
           style="font-variation-settings:normal;opacity:1;vector-effect:none;fill:#2d3436;fill-opacity:1;stroke:none;stroke-width:1.29111;stroke-linecap:square;stroke-linejoin:miter;stroke-miterlimit:4;stroke-dasharray:none;stroke-dashoffset:0;stroke-opacity:1;-inkscape-stroke:none"
           id="rect77"
           width="0.79614049"
           height="3.4894059"
           x="143.29181"
           y="389.93875"
           rx="0.11483383"
           ry="0" /><rect
           style="font-variation-settings:normal;opacity:1;vector-effect:none;fill:#2d3436;fill-opacity:1;stroke:none;stroke-width:1.29111;stroke-linecap:square;stroke-linejoin:miter;stroke-miterlimit:4;stroke-dasharray:none;stroke-dashoffset:0;stroke-opacity:1;-inkscape-stroke:none"
           id="rect78"
           width="0.79614049"
           height="3.4894059"
           x="218.29181"
           y="389.93875"
           rx="0.11483383"
           ry="0" /><rect
           style="font-variation-settings:normal;opacity:1;vector-effect:none;fill:#2d3436;fill-opacity:1;stroke:none;stroke-width:1.29111;stroke-linecap:square;stroke-linejoin:miter;stroke-miterlimit:4;stroke-dasharray:none;stroke-dashoffset:0;stroke-opacity:1;-inkscape-stroke:none"
           id="rect79"
           width="0.79614049"
           height="3.4894059"
           x="293.29181"
           y="389.93875"
           rx="0.11483383"
           ry="0" /><rect
           style="font-variation-settings:normal;opacity:1;vector-effect:none;fill:#2d3436;fill-opacity:1;stroke:none;stroke-width:1.29111;stroke-linecap:square;stroke-linejoin:miter;stroke-miterlimit:4;stroke-dasharray:none;stroke-dashoffset:0;stroke-opacity:1;-inkscape-stroke:none"
           id="rect80"
           width="0.79614049"
           height="3.4894059"
           x="368.29181"
           y="389.93875"
           rx="0.11483383"
           ry="0" /><text
           xml:space="preserve"
           transform="matrix(0.47343714,0,0,0.47343714,288.22867,310.50046)"
           id="text234-7-4-6-8"
           style="font-style:normal;font-variant:normal;font-weight:600;font-stretch:normal;font-size:18.6667px;font-family:'CMU Bright';-inkscape-font-specification:'CMU Bright Semi-Bold';font-variant-ligatures:normal;font-variant-caps:normal;font-variant-numeric:normal;font-variant-east-asian:normal;text-align:center;writing-mode:lr-tb;direction:ltr;white-space:pre;shape-inside:url(#rect242-5-0-8-6);display:inline;fill:#2d3436;fill-opacity:1;stroke:none;stroke-width:1.79906;stroke-linecap:butt;stroke-linejoin:bevel;stroke-dasharray:none;stroke-opacity:1"><tspan
             x="154.17355"
             y="189.28428"
             id="tspan2"><tspan
               style="stroke-linejoin:round"
               id="tspan1">-45</tspan></tspan></text><text
           xml:space="preserve"
           transform="matrix(0.47343714,0,0,0.47343714,214.72867,310.50046)"
           id="text81"
           style="font-style:normal;font-variant:normal;font-weight:600;font-stretch:normal;font-size:18.6667px;font-family:'CMU Bright';-inkscape-font-specification:'CMU Bright Semi-Bold';font-variant-ligatures:normal;font-variant-caps:normal;font-variant-numeric:normal;font-variant-east-asian:normal;text-align:center;writing-mode:lr-tb;direction:ltr;white-space:pre;shape-inside:url(#rect81);display:inline;fill:#2d3436;fill-opacity:1;stroke:none;stroke-width:1.79906;stroke-linecap:butt;stroke-linejoin:bevel;stroke-dasharray:none;stroke-opacity:1"><tspan
             x="154.17355"
             y="189.28428"
             id="tspan4"><tspan
               style="stroke-linejoin:round"
               id="tspan3">-50</tspan></tspan></text><text
           xml:space="preserve"
           transform="matrix(0.47343714,0,0,0.47343714,199.89711,306.87459)"
           id="text81-6"
           style="font-style:normal;font-variant:normal;font-weight:600;font-stretch:normal;font-size:18.6667px;font-family:'CMU Bright';-inkscape-font-specification:'CMU Bright Semi-Bold';font-variant-ligatures:normal;font-variant-caps:normal;font-variant-numeric:normal;font-variant-east-asian:normal;text-align:center;writing-mode:lr-tb;direction:ltr;white-space:pre;shape-inside:url(#rect81-7);display:inline;fill:#d63031;fill-opacity:1;stroke:none;stroke-width:1.79906;stroke-linecap:butt;stroke-linejoin:bevel;stroke-dasharray:none;stroke-opacity:1"><tspan
             x="154.17355"
             y="189.28428"
             id="tspan6"><tspan
               style="stroke-linejoin:round"
               id="tspan5">-51</tspan></tspan></text><text
           xml:space="preserve"
           transform="matrix(0.47343714,0,0,0.47343714,139.72867,310.50046)"
           id="text83"
           style="font-style:normal;font-variant:normal;font-weight:600;font-stretch:normal;font-size:18.6667px;font-family:'CMU Bright';-inkscape-font-specification:'CMU Bright Semi-Bold';font-variant-ligatures:normal;font-variant-caps:normal;font-variant-numeric:normal;font-variant-east-asian:normal;text-align:center;writing-mode:lr-tb;direction:ltr;white-space:pre;shape-inside:url(#rect83);display:inline;fill:#2d3436;fill-opacity:1;stroke:none;stroke-width:1.79906;stroke-linecap:butt;stroke-linejoin:bevel;stroke-dasharray:none;stroke-opacity:1"><tspan
             x="154.17355"
             y="189.28428"
             id="tspan8"><tspan
               style="stroke-linejoin:round"
               id="tspan7">-55</tspan></tspan></text><text
           xml:space="preserve"
           transform="matrix(0.47343714,0,0,0.47343714,64.72867,310.50046)"
           id="text85"
           style="font-style:normal;font-variant:normal;font-weight:600;font-stretch:normal;font-size:18.6667px;font-family:'CMU Bright';-inkscape-font-specification:'CMU Bright Semi-Bold';font-variant-ligatures:normal;font-variant-caps:normal;font-variant-numeric:normal;font-variant-east-asian:normal;text-align:center;writing-mode:lr-tb;direction:ltr;white-space:pre;shape-inside:url(#rect85);display:inline;fill:#2d3436;fill-opacity:1;stroke:none;stroke-width:1.79906;stroke-linecap:butt;stroke-linejoin:bevel;stroke-dasharray:none;stroke-opacity:1"><tspan
             x="154.17355"
             y="189.28428"
             id="tspan10"><tspan
               style="stroke-linejoin:round"
               id="tspan9">-60</tspan></tspan></text><text
           xml:space="preserve"
           transform="matrix(0.47343714,0,0,0.47343714,-10.27133,310.50046)"
           id="text87"
           style="font-style:normal;font-variant:normal;font-weight:600;font-stretch:normal;font-size:18.6667px;font-family:'CMU Bright';-inkscape-font-specification:'CMU Bright Semi-Bold';font-variant-ligatures:normal;font-variant-caps:normal;font-variant-numeric:normal;font-variant-east-asian:normal;text-align:center;writing-mode:lr-tb;direction:ltr;white-space:pre;shape-inside:url(#rect87);display:inline;fill:#2d3436;fill-opacity:1;stroke:none;stroke-width:1.79906;stroke-linecap:butt;stroke-linejoin:bevel;stroke-dasharray:none;stroke-opacity:1"><tspan
             x="154.17355"
             y="189.28428"
             id="tspan12"><tspan
               style="stroke-linejoin:round"
               id="tspan11">-65</tspan></tspan></text><g
           inkscape:label=""
           transform="matrix(2.1294916,0,0,2.1294916,191.6759,403.8319)"
           id="g87"
           style="fill:#2d3436;fill-opacity:1"><g
   fill="#000000"
   fill-opacity="1"
   id="g8"
   transform="matrix(0.352778,0,0,0.352778,-1.12752,-0.701146)"
   style="fill:#2d3436;fill-opacity:1">
    <g
   id="use7"
   transform="translate(1.993,17.49)"
   style="fill:#2d3436;fill-opacity:1">
      <path
   d="M 1.203125,-14.328125 3.984375,0.125 c 0.546875,0 1.078125,0 1.578125,-0.015625 l 0.203125,-0.28125 8.75,-14.15625 c -0.46875,0 -0.9375,-0.03125 -1.359375,0.03125 L 12.953125,-14.03125 7.25,-4.765625 5.90625,-2.5625 5.1875,-1.328125 C 5.109375,-1.625 5.078125,-1.96875 5.015625,-2.296875 4.75,-3.890625 3.40625,-10.796875 3.40625,-10.84375 L 2.78125,-14 c 0,-0.09375 -0.015625,-0.234375 -0.078125,-0.296875 -0.0625,-0.07813 -0.28125,-0.03125 -0.390625,-0.03125 z m 0,0"
   id="path13-1"
   style="fill:#2d3436;fill-opacity:1" />
    </g>
  </g>
  <g
   fill="#000000"
   fill-opacity="1"
   id="g9"
   transform="matrix(0.352778,0,0,0.352778,-1.12752,-0.701146)"
   style="fill:#2d3436;fill-opacity:1">
    <g
   id="use8"
   transform="translate(12.324,20.589001)"
   style="fill:#2d3436;fill-opacity:1">
      <path
   d="m 1.65625,-8.703125 v 1.9375 H 0.265625 v 0.71875 H 1.65625 V -2.1875 c 0,0.625 -0.046875,1.390625 0.359375,1.921875 0.171875,0.1875 0.390625,0.34375 0.65625,0.375 0.515625,0.0625 1.328125,-0.15625 1.625,-0.265625 0.15625,-0.0625 0.625,-0.25 0.6875,-0.359375 C 5,-0.578125 4.8125,-1.203125 4.8125,-1.203125 l -0.34375,0.25 C 4,-0.65625 3.140625,-0.40625 2.75,-0.921875 2.46875,-1.3125 2.53125,-1.9375 2.53125,-2.53125 V -6.046875 H 4.75 v -0.71875 H 2.53125 v -1.9375 z m 0,0"
   id="path14-1"
   style="fill:#2d3436;fill-opacity:1" />
    </g>
    <g
   id="use9"
   transform="translate(17.764078,20.589001)"
   style="fill:#2d3436;fill-opacity:1">
      <path
   d="M 1.15625,-9.953125 V 0 h 0.921875 v -3.15625 c 0,-0.703125 -0.046875,-1.421875 0.28125,-2.078125 0.265625,-0.5625 0.734375,-1 1.578125,-0.921875 0.40625,0.03125 0.828125,0.140625 1.078125,0.46875 0.40625,0.5 0.3125,1.203125 0.3125,1.78125 V 0 h 0.90625 v -3.875 c 0,-0.6875 0.09375,-1.46875 -0.234375,-2.109375 -0.296875,-0.546875 -0.828125,-0.796875 -1.40625,-0.875 -0.28125,-0.046875 -0.546875,-0.046875 -0.828125,0 -0.734375,0.15625 -1.40625,0.71875 -1.6875,1.4375 H 2.0625 v -4.53125 z m 0,0"
   id="path15-1"
   style="fill:#2d3436;fill-opacity:1" />
    </g>
  </g>
  <g
   fill="#000000"
   fill-opacity="1"
   id="g13"
   transform="matrix(0.352778,0,0,0.352778,-1.12752,-0.701146)"
   style="fill:#2d3436;fill-opacity:1">
    <g
   id="use10"
   transform="translate(32.199001,17.49)"
   style="fill:#2d3436;fill-opacity:1">
      <path
   d="M 7.0625,4.578125 C 6.90625,4.40625 6.6875,4.234375 6.5,4.0625 6.34375,3.921875 6.203125,3.765625 6.046875,3.59375 3.984375,1.328125 2.90625,-2.3125 3.078125,-6.171875 3.15625,-8.28125 3.578125,-10.4375 4.5625,-12.328125 5.015625,-13.171875 5.796875,-14.375 6.5,-14.96875 6.6875,-15.140625 6.90625,-15.3125 7.0625,-15.5 H 6.375 c -0.09375,0 -0.234375,-0.01563 -0.34375,0.03125 -0.25,0.125 -0.859375,0.734375 -0.953125,0.828125 -1.984375,1.984375 -3.15625,4.96875 -3.328125,8.46875 -0.09375,2.5 0.3125,5.03125 1.4375,7.265625 0.484375,1 1.15625,1.90625 1.9375,2.6875 0.203125,0.203125 0.65625,0.65625 0.90625,0.78125 0.109375,0.046875 0.25,0.015625 0.34375,0.015625 z m 0,0"
   id="path16-1"
   style="fill:#2d3436;fill-opacity:1" />
    </g>
    <g
   id="use11"
   transform="translate(40.2925,17.49)"
   style="fill:#2d3436;fill-opacity:1">
      <path
   d="M 2.609375,-7.6875 H 2.578125 V -9.75 h -1.25 V 0 h 1.3125 V -4.546875 C 2.640625,-5.5625 2.578125,-6.5625 3.03125,-7.5 3.421875,-8.296875 4.109375,-8.9375 5.328125,-8.8125 5.953125,-8.78125 6.5625,-8.609375 6.96875,-8.09375 7.328125,-7.625 7.359375,-7 7.359375,-6.421875 V 0 h 1.3125 V -4.546875 C 8.671875,-5.5625 8.609375,-6.5625 9.0625,-7.5 9.453125,-8.296875 10.140625,-8.9375 11.359375,-8.8125 11.984375,-8.78125 12.59375,-8.609375 13,-8.09375 13.359375,-7.625 13.390625,-7 13.390625,-6.421875 V 0 h 1.3125 v -5.46875 c 0,-1 0.125,-2.109375 -0.3125,-3.015625 -0.421875,-0.859375 -1.125,-1.3125 -2.265625,-1.375 C 11.46875,-9.921875 10.796875,-9.8125 10.203125,-9.5 9.484375,-9.09375 8.9375,-8.40625 8.609375,-7.65625 8.46875,-8.328125 8.296875,-8.78125 7.84375,-9.21875 7.375,-9.625 6.734375,-9.8125 6.109375,-9.859375 c -1.5,-0.125 -2.453125,0.5 -3.09375,1.4375 -0.171875,0.21875 -0.328125,0.46875 -0.40625,0.734375 z m 0,0"
   id="path17-1"
   style="fill:#2d3436;fill-opacity:1" />
    </g>
    <g
   id="use12"
   transform="translate(56.305939,17.49)"
   style="fill:#2d3436;fill-opacity:1">
      <path
   d="m 0.140625,-14.328125 c 1.125,3.015625 4.625,11.78125 5.296875,13.546875 l 0.25,0.59375 C 5.703125,-0.109375 5.71875,0 5.796875,0.046875 5.890625,0.125 6.09375,0.078125 6.203125,0.078125 h 0.71875 c 0.3125,0 0.46875,0.0625 0.53125,-0.21875 0.828125,-2.046875 5.453125,-13.84375 5.5625,-14.1875 H 11.65625 c -1.640625,4.34375 -3.4375,8.546875 -4.984375,13 C 5.5,-4.609375 4.21875,-7.765625 2.96875,-10.96875 2.5,-12.0625 2.140625,-13.265625 1.625,-14.296875 c -0.453125,-0.0625 -0.984375,-0.03125 -1.484375,-0.03125 z m 0,0"
   id="path18-1"
   style="fill:#2d3436;fill-opacity:1" />
    </g>
    <g
   id="use13"
   transform="translate(69.478279,17.49)"
   style="fill:#2d3436;fill-opacity:1">
      <path
   d="m 1.03125,-15.5 c 0.171875,0.1875 0.375,0.359375 0.5625,0.53125 0.15625,0.140625 0.3125,0.296875 0.453125,0.46875 1.796875,2.0625 2.828125,4.875 2.96875,8.328125 0.109375,2.5625 -0.28125,5.21875 -1.46875,7.53125 -0.390625,0.8125 -0.90625,1.578125 -1.5,2.234375 C 1.90625,3.765625 1.75,3.921875 1.59375,4.0625 1.40625,4.234375 1.203125,4.40625 1.03125,4.578125 h 0.6875 c 0.09375,0 0.25,0.03125 0.34375,-0.015625 0.25,-0.125 0.875,-0.734375 0.953125,-0.828125 C 5,1.75 6.171875,-1.234375 6.34375,-4.734375 6.4375,-7.234375 6.03125,-9.765625 4.921875,-12 c -0.5,-1 -1.15625,-1.90625 -1.953125,-2.6875 C 2.765625,-14.890625 2.3125,-15.34375 2.0625,-15.46875 1.96875,-15.515625 1.8125,-15.5 1.71875,-15.5 Z m 0,0"
   id="path19-1"
   style="fill:#2d3436;fill-opacity:1" />
    </g>
  </g>
</g></g><circle
         style="fill:#e84393;fill-opacity:1;stroke:#243f31;stroke-width:0.340346;stroke-linecap:square;stroke-dasharray:none;stroke-opacity:1"
         id="path76"
         cx="277.48877"
         cy="356.1351"
         r="3.6144242" /></g><g
       id="g76"><path
         d="m 163.89944,25.598283 h 2.52739 v -0.860447 h -2.52739 z"
         clip-path="none"
         style="fill:#a29bfe;fill-opacity:1;stroke:#2d3436;stroke-width:0.183;stroke-linejoin:miter;stroke-dasharray:none;stroke-opacity:1"
         id="path49" /><path
         d="m 161.37204,25.598283 h 2.5274 v -0.573632 h -2.5274 z"
         clip-path="none"
         style="fill:#a29bfe;fill-opacity:1;stroke:#2d3436;stroke-width:0.183;stroke-linejoin:miter;stroke-dasharray:none;stroke-opacity:1"
         id="path48" /><path
         d="m 158.84465,25.598283 h 2.52739 v -0.573632 h -2.52739 z"
         clip-path="none"
         style="fill:#a29bfe;fill-opacity:1;stroke:#2d3436;stroke-width:0.183;stroke-linejoin:miter;stroke-dasharray:none;stroke-opacity:1"
         id="path47" /><path
         d="m 156.31726,25.598283 h 2.52739 V 25.16806 h -2.52739 z"
         clip-path="none"
         style="fill:#a29bfe;fill-opacity:1;stroke:#2d3436;stroke-width:0.183;stroke-linejoin:miter;stroke-dasharray:none;stroke-opacity:1"
         id="path46" /><path
         d="m 153.78987,25.598283 h 2.52739 V 25.16806 h -2.52739 z"
         clip-path="none"
         style="fill:#a29bfe;fill-opacity:1;stroke:#2d3436;stroke-width:0.183;stroke-linejoin:miter;stroke-dasharray:none;stroke-opacity:1"
         id="path45" /><path
         d="m 148.73509,25.598283 h 2.52739 v -1.720894 h -2.52739 z"
         clip-path="none"
         style="fill:#a29bfe;fill-opacity:1;stroke:#2d3436;stroke-width:0.183;stroke-linejoin:miter;stroke-dasharray:none;stroke-opacity:1"
         id="path43" /><path
         d="m 133.57074,25.598283 h 2.52739 V 13.982255 h -2.52739 z"
         clip-path="none"
         style="fill:#a29bfe;fill-opacity:1;stroke:#2d3436;stroke-width:0.183;stroke-linejoin:miter;stroke-dasharray:none;stroke-opacity:1"
         id="path37" /><path
         d="m 136.09813,25.598283 h 2.52739 V 16.85041 h -2.52739 z"
         clip-path="none"
         style="fill:#a29bfe;fill-opacity:1;stroke:#2d3436;stroke-width:0.183;stroke-linejoin:miter;stroke-dasharray:none;stroke-opacity:1"
         id="path38" /><path
         d="m 138.62552,25.598283 h 2.52739 v -8.030834 h -2.52739 z"
         clip-path="none"
         style="fill:#a29bfe;fill-opacity:1;stroke:#2d3436;stroke-width:0.183;stroke-linejoin:miter;stroke-dasharray:none;stroke-opacity:1"
         id="path39" /><path
         d="m 141.15291,25.598283 h 2.5274 v -6.309942 h -2.5274 z"
         clip-path="none"
         style="fill:#a29bfe;fill-opacity:1;stroke:#2d3436;stroke-width:0.183;stroke-linejoin:miter;stroke-dasharray:none;stroke-opacity:1"
         id="path40" /><path
         d="m 143.68031,25.598283 h 2.52738 V 21.29605 h -2.52738 z"
         clip-path="none"
         style="fill:#a29bfe;fill-opacity:1;stroke:#2d3436;stroke-width:0.183;stroke-linejoin:miter;stroke-dasharray:none;stroke-opacity:1"
         id="path41" /><path
         d="m 146.20769,25.598283 h 2.5274 v -2.151116 h -2.5274 z"
         clip-path="none"
         style="fill:#a29bfe;fill-opacity:1;stroke:#2d3436;stroke-width:0.183;stroke-linejoin:miter;stroke-dasharray:none;stroke-opacity:1"
         id="path42" /><path
         d="m 115.879,25.598283 h 2.52739 V 5.3777903 H 115.879 Z"
         clip-path="none"
         style="fill:#a29bfe;fill-opacity:1;stroke:#2d3436;stroke-width:0.183;stroke-linejoin:miter;stroke-dasharray:none;stroke-opacity:1"
         id="path30" /><path
         d="m 118.40639,25.598283 h 2.52739 V 1.2189656 h -2.52739 z"
         clip-path="none"
         style="fill:#a29bfe;fill-opacity:1;stroke:#2d3436;stroke-width:0.183;stroke-linejoin:miter;stroke-dasharray:none;stroke-opacity:1"
         id="path31" /><path
         d="m 120.93378,25.598283 h 2.52739 V 2.3662275 h -2.52739 z"
         clip-path="none"
         style="fill:#a29bfe;fill-opacity:1;stroke:#2d3436;stroke-width:0.183;stroke-linejoin:miter;stroke-dasharray:none;stroke-opacity:1"
         id="path32" /><path
         d="m 123.46117,25.598283 h 2.5274 V 2.7964508 h -2.5274 z"
         clip-path="none"
         style="fill:#a29bfe;fill-opacity:1;stroke:#2d3436;stroke-width:0.183;stroke-linejoin:miter;stroke-dasharray:none;stroke-opacity:1"
         id="path33" /><path
         d="m 125.98857,25.598283 h 2.52739 V 2.2228198 h -2.52739 z"
         clip-path="none"
         style="fill:#a29bfe;fill-opacity:1;stroke:#2d3436;stroke-width:0.183;stroke-linejoin:miter;stroke-dasharray:none;stroke-opacity:1"
         id="path34" /><path
         d="m 128.51596,25.598283 h 2.52739 V 6.3816445 h -2.52739 z"
         clip-path="none"
         style="fill:#a29bfe;fill-opacity:1;stroke:#2d3436;stroke-width:0.183;stroke-linejoin:miter;stroke-dasharray:none;stroke-opacity:1"
         id="path35" /><path
         d="m 131.04335,25.598283 h 2.52739 V 7.5289065 h -2.52739 z"
         clip-path="none"
         style="fill:#a29bfe;fill-opacity:1;stroke:#2d3436;stroke-width:0.183;stroke-linejoin:miter;stroke-dasharray:none;stroke-opacity:1"
         id="path36" /><path
         d="m 98.187262,25.598283 h 2.527388 v -4.445641 h -2.527388 z"
         clip-path="none"
         style="fill:#a29bfe;fill-opacity:1;stroke:#2d3436;stroke-width:0.183;stroke-linejoin:miter;stroke-dasharray:none;stroke-opacity:1"
         id="path23" /><path
         d="m 100.71465,25.598283 h 2.52739 v -6.023126 h -2.52739 z"
         clip-path="none"
         style="fill:#a29bfe;fill-opacity:1;stroke:#2d3436;stroke-width:0.183;stroke-linejoin:miter;stroke-dasharray:none;stroke-opacity:1"
         id="path24" /><path
         d="m 103.24204,25.598283 h 2.52739 v -6.883572 h -2.52739 z"
         clip-path="none"
         style="fill:#a29bfe;fill-opacity:1;stroke:#2d3436;stroke-width:0.183;stroke-linejoin:miter;stroke-dasharray:none;stroke-opacity:1"
         id="path25" /><path
         d="m 105.76943,25.598283 h 2.5274 V 16.85041 h -2.5274 z"
         clip-path="none"
         style="fill:#a29bfe;fill-opacity:1;stroke:#2d3436;stroke-width:0.183;stroke-linejoin:miter;stroke-dasharray:none;stroke-opacity:1"
         id="path26" /><path
         d="m 108.29683,25.598283 h 2.52739 V 14.26907 h -2.52739 z"
         clip-path="none"
         style="fill:#a29bfe;fill-opacity:1;stroke:#2d3436;stroke-width:0.183;stroke-linejoin:miter;stroke-dasharray:none;stroke-opacity:1"
         id="path27" /><path
         d="m 110.82422,25.598283 h 2.52739 V 13.69544 h -2.52739 z"
         clip-path="none"
         style="fill:#a29bfe;fill-opacity:1;stroke:#2d3436;stroke-width:0.183;stroke-linejoin:miter;stroke-dasharray:none;stroke-opacity:1"
         id="path28" /><path
         d="M 113.35161,25.598283 H 115.879 V 8.8195765 h -2.52739 z"
         clip-path="none"
         style="fill:#a29bfe;fill-opacity:1;stroke:#2d3436;stroke-width:0.183;stroke-linejoin:miter;stroke-dasharray:none;stroke-opacity:1"
         id="path29" /><path
         d="m 83.022913,25.598283 h 2.527393 v -1.003855 h -2.527393 z"
         clip-path="none"
         style="fill:#a29bfe;fill-opacity:1;stroke:#2d3436;stroke-width:0.183;stroke-linejoin:miter;stroke-dasharray:none;stroke-opacity:1"
         id="path17" /><path
         d="m 85.550306,25.598283 h 2.52739 v -1.577486 h -2.52739 z"
         clip-path="none"
         style="fill:#a29bfe;fill-opacity:1;stroke:#2d3436;stroke-width:0.183;stroke-linejoin:miter;stroke-dasharray:none;stroke-opacity:1"
         id="path18" /><path
         d="m 88.077696,25.598283 h 2.527393 v -2.724748 h -2.527393 z"
         clip-path="none"
         style="fill:#a29bfe;fill-opacity:1;stroke:#2d3436;stroke-width:0.183;stroke-linejoin:miter;stroke-dasharray:none;stroke-opacity:1"
         id="path19" /><path
         d="m 90.605089,25.598283 h 2.52739 v -2.58134 h -2.52739 z"
         clip-path="none"
         style="fill:#a29bfe;fill-opacity:1;stroke:#2d3436;stroke-width:0.183;stroke-linejoin:miter;stroke-dasharray:none;stroke-opacity:1"
         id="path20" /><path
         d="m 93.132479,25.598283 h 2.52739 v -2.58134 h -2.52739 z"
         clip-path="none"
         style="fill:#a29bfe;fill-opacity:1;stroke:#2d3436;stroke-width:0.183;stroke-linejoin:miter;stroke-dasharray:none;stroke-opacity:1"
         id="path21" /><path
         d="m 95.659869,25.598283 h 2.527393 v -3.441787 h -2.527393 z"
         clip-path="none"
         style="fill:#a29bfe;fill-opacity:1;stroke:#2d3436;stroke-width:0.183;stroke-linejoin:miter;stroke-dasharray:none;stroke-opacity:1"
         id="path22" /><path
         d="m 47.639436,25.598283 h 2.527391 v -0.143408 h -2.527391 z"
         clip-path="none"
         style="fill:#a29bfe;fill-opacity:1;stroke:#2d3436;stroke-width:0.183;stroke-linejoin:miter;stroke-dasharray:none;stroke-opacity:1"
         id="path3" /><path
         d="m 50.166827,25.598283 h 2.527392 v 0 z"
         clip-path="none"
         style="fill:#a29bfe;fill-opacity:1;stroke:#2d3436;stroke-width:0.183;stroke-linejoin:miter;stroke-dasharray:none;stroke-opacity:1"
         id="path4" /><path
         d="m 52.694219,25.598283 h 2.527391 v 0 z"
         clip-path="none"
         style="fill:#a29bfe;fill-opacity:1;stroke:#2d3436;stroke-width:0.183;stroke-linejoin:miter;stroke-dasharray:none;stroke-opacity:1"
         id="path5" /><path
         d="m 55.22161,25.598283 h 2.527391 V 25.311467 H 55.22161 Z"
         clip-path="none"
         style="fill:#a29bfe;fill-opacity:1;stroke:#2d3436;stroke-width:0.183;stroke-linejoin:miter;stroke-dasharray:none;stroke-opacity:1"
         id="path6" /><path
         d="m 57.749001,25.598283 h 2.527391 v 0 z"
         clip-path="none"
         style="fill:#a29bfe;fill-opacity:1;stroke:#2d3436;stroke-width:0.183;stroke-linejoin:miter;stroke-dasharray:none;stroke-opacity:1"
         id="path7" /><path
         d="m 60.276392,25.598283 h 2.527393 v -0.286816 h -2.527393 z"
         clip-path="none"
         style="fill:#a29bfe;fill-opacity:1;stroke:#2d3436;stroke-width:0.183;stroke-linejoin:miter;stroke-dasharray:none;stroke-opacity:1"
         id="path8" /><path
         d="m 62.803785,25.598283 h 2.52739 v -0.286816 h -2.52739 z"
         clip-path="none"
         style="fill:#a29bfe;fill-opacity:1;stroke:#2d3436;stroke-width:0.183;stroke-linejoin:miter;stroke-dasharray:none;stroke-opacity:1"
         id="path9" /><path
         d="m 65.331175,25.598283 h 2.527393 v -0.286816 h -2.527393 z"
         clip-path="none"
         style="fill:#a29bfe;fill-opacity:1;stroke:#2d3436;stroke-width:0.183;stroke-linejoin:miter;stroke-dasharray:none;stroke-opacity:1"
         id="path10" /><path
         d="m 67.858568,25.598283 h 2.52739 v 0 z"
         clip-path="none"
         style="fill:#a29bfe;fill-opacity:1;stroke:#2d3436;stroke-width:0.183;stroke-linejoin:miter;stroke-dasharray:none;stroke-opacity:1"
         id="path11" /><path
         d="m 70.385958,25.598283 h 2.527389 v -0.286816 h -2.527389 z"
         clip-path="none"
         style="fill:#a29bfe;fill-opacity:1;stroke:#2d3436;stroke-width:0.183;stroke-linejoin:miter;stroke-dasharray:none;stroke-opacity:1"
         id="path12" /><path
         d="m 72.913347,25.598283 h 2.527394 v 0 z"
         clip-path="none"
         style="fill:#a29bfe;fill-opacity:1;stroke:#2d3436;stroke-width:0.183;stroke-linejoin:miter;stroke-dasharray:none;stroke-opacity:1"
         id="path13" /><path
         d="m 75.440741,25.598283 h 2.527389 v 0 z"
         clip-path="none"
         style="fill:#a29bfe;fill-opacity:1;stroke:#2d3436;stroke-width:0.183;stroke-linejoin:miter;stroke-dasharray:none;stroke-opacity:1"
         id="path14" /><path
         d="m 77.96813,25.598283 h 2.527393 V 25.311467 H 77.96813 Z"
         clip-path="none"
         style="fill:#a29bfe;fill-opacity:1;stroke:#2d3436;stroke-width:0.183;stroke-linejoin:miter;stroke-dasharray:none;stroke-opacity:1"
         id="path15" /><path
         d="m 80.495523,25.598283 h 2.52739 v 0 z"
         clip-path="none"
         style="fill:#a29bfe;fill-opacity:1;stroke:#2d3436;stroke-width:0.183;stroke-linejoin:miter;stroke-dasharray:none;stroke-opacity:1"
         id="path16" /><path
         d="m 151.26248,25.598283 h 2.52739 v -1.29067 h -2.52739 z"
         clip-path="none"
         style="fill:#a29bfe;fill-opacity:1;stroke:#2d3436;stroke-width:0.183;stroke-linejoin:miter;stroke-dasharray:none;stroke-opacity:1"
         id="path44" /></g></g></svg>
