<?xml version="1.0" encoding="utf-8" standalone="no"?>
<!DOCTYPE svg PUBLIC "-//W3C//DTD SVG 1.1//EN"
  "http://www.w3.org/Graphics/SVG/1.1/DTD/svg11.dtd">
<svg xmlns:xlink="http://www.w3.org/1999/xlink" width="720pt" height="360pt" viewBox="0 0 720 360" xmlns="http://www.w3.org/2000/svg" version="1.1">
 <metadata>
  <rdf:RDF xmlns:dc="http://purl.org/dc/elements/1.1/" xmlns:cc="http://creativecommons.org/ns#" xmlns:rdf="http://www.w3.org/1999/02/22-rdf-syntax-ns#">
   <cc:Work>
    <dc:type rdf:resource="http://purl.org/dc/dcmitype/StillImage"/>
    <dc:date>2025-05-21T13:59:00.851295</dc:date>
    <dc:format>image/svg+xml</dc:format>
    <dc:creator>
     <cc:Agent>
      <dc:title>Matplotlib v3.10.0, https://matplotlib.org/</dc:title>
     </cc:Agent>
    </dc:creator>
   </cc:Work>
  </rdf:RDF>
 </metadata>
 <defs>
  <style type="text/css">*{stroke-linejoin: round; stroke-linecap: butt}</style>
 </defs>
 <g id="figure_1">
  <g id="patch_1">
   <path d="M 0 360 
L 720 360 
L 720 0 
L 0 0 
z
" style="fill: #ffffff"/>
  </g>
  <g id="axes_1">
   <g id="patch_2">
    <path d="M 90 320.4 
L 648 320.4 
L 648 43.2 
L 90 43.2 
z
" style="fill: #ffffff"/>
   </g>
   <g id="matplotlib.axis_1">
    <g id="xtick_1">
     <g id="line2d_1">
      <defs>
       <path id="m6397bfc475" d="M 0 0 
L 0 3.5 
" style="stroke: #000000; stroke-width: 0.8"/>
      </defs>
      <g>
       <use xlink:href="#m6397bfc475" x="90" y="320.4" style="stroke: #000000; stroke-width: 0.8"/>
      </g>
     </g>
     <g id="text_1">
      <!-- 0.0 -->
      <g transform="translate(82.048438 334.998438) scale(0.1 -0.1)">
       <defs>
        <path id="DejaVuSans-30" d="M 2034 4250 
Q 1547 4250 1301 3770 
Q 1056 3291 1056 2328 
Q 1056 1369 1301 889 
Q 1547 409 2034 409 
Q 2525 409 2770 889 
Q 3016 1369 3016 2328 
Q 3016 3291 2770 3770 
Q 2525 4250 2034 4250 
z
M 2034 4750 
Q 2819 4750 3233 4129 
Q 3647 3509 3647 2328 
Q 3647 1150 3233 529 
Q 2819 -91 2034 -91 
Q 1250 -91 836 529 
Q 422 1150 422 2328 
Q 422 3509 836 4129 
Q 1250 4750 2034 4750 
z
" transform="scale(0.015625)"/>
        <path id="DejaVuSans-2e" d="M 684 794 
L 1344 794 
L 1344 0 
L 684 0 
L 684 794 
z
" transform="scale(0.015625)"/>
       </defs>
       <use xlink:href="#DejaVuSans-30"/>
       <use xlink:href="#DejaVuSans-2e" transform="translate(63.623047 0)"/>
       <use xlink:href="#DejaVuSans-30" transform="translate(95.410156 0)"/>
      </g>
     </g>
    </g>
    <g id="xtick_2">
     <g id="line2d_2">
      <g>
       <use xlink:href="#m6397bfc475" x="201.6" y="320.4" style="stroke: #000000; stroke-width: 0.8"/>
      </g>
     </g>
     <g id="text_2">
      <!-- 0.2 -->
      <g transform="translate(193.648438 334.998438) scale(0.1 -0.1)">
       <defs>
        <path id="DejaVuSans-32" d="M 1228 531 
L 3431 531 
L 3431 0 
L 469 0 
L 469 531 
Q 828 903 1448 1529 
Q 2069 2156 2228 2338 
Q 2531 2678 2651 2914 
Q 2772 3150 2772 3378 
Q 2772 3750 2511 3984 
Q 2250 4219 1831 4219 
Q 1534 4219 1204 4116 
Q 875 4013 500 3803 
L 500 4441 
Q 881 4594 1212 4672 
Q 1544 4750 1819 4750 
Q 2544 4750 2975 4387 
Q 3406 4025 3406 3419 
Q 3406 3131 3298 2873 
Q 3191 2616 2906 2266 
Q 2828 2175 2409 1742 
Q 1991 1309 1228 531 
z
" transform="scale(0.015625)"/>
       </defs>
       <use xlink:href="#DejaVuSans-30"/>
       <use xlink:href="#DejaVuSans-2e" transform="translate(63.623047 0)"/>
       <use xlink:href="#DejaVuSans-32" transform="translate(95.410156 0)"/>
      </g>
     </g>
    </g>
    <g id="xtick_3">
     <g id="line2d_3">
      <g>
       <use xlink:href="#m6397bfc475" x="313.2" y="320.4" style="stroke: #000000; stroke-width: 0.8"/>
      </g>
     </g>
     <g id="text_3">
      <!-- 0.4 -->
      <g transform="translate(305.248438 334.998438) scale(0.1 -0.1)">
       <defs>
        <path id="DejaVuSans-34" d="M 2419 4116 
L 825 1625 
L 2419 1625 
L 2419 4116 
z
M 2253 4666 
L 3047 4666 
L 3047 1625 
L 3713 1625 
L 3713 1100 
L 3047 1100 
L 3047 0 
L 2419 0 
L 2419 1100 
L 313 1100 
L 313 1709 
L 2253 4666 
z
" transform="scale(0.015625)"/>
       </defs>
       <use xlink:href="#DejaVuSans-30"/>
       <use xlink:href="#DejaVuSans-2e" transform="translate(63.623047 0)"/>
       <use xlink:href="#DejaVuSans-34" transform="translate(95.410156 0)"/>
      </g>
     </g>
    </g>
    <g id="xtick_4">
     <g id="line2d_4">
      <g>
       <use xlink:href="#m6397bfc475" x="424.8" y="320.4" style="stroke: #000000; stroke-width: 0.8"/>
      </g>
     </g>
     <g id="text_4">
      <!-- 0.6 -->
      <g transform="translate(416.848438 334.998438) scale(0.1 -0.1)">
       <defs>
        <path id="DejaVuSans-36" d="M 2113 2584 
Q 1688 2584 1439 2293 
Q 1191 2003 1191 1497 
Q 1191 994 1439 701 
Q 1688 409 2113 409 
Q 2538 409 2786 701 
Q 3034 994 3034 1497 
Q 3034 2003 2786 2293 
Q 2538 2584 2113 2584 
z
M 3366 4563 
L 3366 3988 
Q 3128 4100 2886 4159 
Q 2644 4219 2406 4219 
Q 1781 4219 1451 3797 
Q 1122 3375 1075 2522 
Q 1259 2794 1537 2939 
Q 1816 3084 2150 3084 
Q 2853 3084 3261 2657 
Q 3669 2231 3669 1497 
Q 3669 778 3244 343 
Q 2819 -91 2113 -91 
Q 1303 -91 875 529 
Q 447 1150 447 2328 
Q 447 3434 972 4092 
Q 1497 4750 2381 4750 
Q 2619 4750 2861 4703 
Q 3103 4656 3366 4563 
z
" transform="scale(0.015625)"/>
       </defs>
       <use xlink:href="#DejaVuSans-30"/>
       <use xlink:href="#DejaVuSans-2e" transform="translate(63.623047 0)"/>
       <use xlink:href="#DejaVuSans-36" transform="translate(95.410156 0)"/>
      </g>
     </g>
    </g>
    <g id="xtick_5">
     <g id="line2d_5">
      <g>
       <use xlink:href="#m6397bfc475" x="536.4" y="320.4" style="stroke: #000000; stroke-width: 0.8"/>
      </g>
     </g>
     <g id="text_5">
      <!-- 0.8 -->
      <g transform="translate(528.448438 334.998438) scale(0.1 -0.1)">
       <defs>
        <path id="DejaVuSans-38" d="M 2034 2216 
Q 1584 2216 1326 1975 
Q 1069 1734 1069 1313 
Q 1069 891 1326 650 
Q 1584 409 2034 409 
Q 2484 409 2743 651 
Q 3003 894 3003 1313 
Q 3003 1734 2745 1975 
Q 2488 2216 2034 2216 
z
M 1403 2484 
Q 997 2584 770 2862 
Q 544 3141 544 3541 
Q 544 4100 942 4425 
Q 1341 4750 2034 4750 
Q 2731 4750 3128 4425 
Q 3525 4100 3525 3541 
Q 3525 3141 3298 2862 
Q 3072 2584 2669 2484 
Q 3125 2378 3379 2068 
Q 3634 1759 3634 1313 
Q 3634 634 3220 271 
Q 2806 -91 2034 -91 
Q 1263 -91 848 271 
Q 434 634 434 1313 
Q 434 1759 690 2068 
Q 947 2378 1403 2484 
z
M 1172 3481 
Q 1172 3119 1398 2916 
Q 1625 2713 2034 2713 
Q 2441 2713 2670 2916 
Q 2900 3119 2900 3481 
Q 2900 3844 2670 4047 
Q 2441 4250 2034 4250 
Q 1625 4250 1398 4047 
Q 1172 3844 1172 3481 
z
" transform="scale(0.015625)"/>
       </defs>
       <use xlink:href="#DejaVuSans-30"/>
       <use xlink:href="#DejaVuSans-2e" transform="translate(63.623047 0)"/>
       <use xlink:href="#DejaVuSans-38" transform="translate(95.410156 0)"/>
      </g>
     </g>
    </g>
    <g id="xtick_6">
     <g id="line2d_6">
      <g>
       <use xlink:href="#m6397bfc475" x="648" y="320.4" style="stroke: #000000; stroke-width: 0.8"/>
      </g>
     </g>
     <g id="text_6">
      <!-- 1.0 -->
      <g transform="translate(640.048437 334.998438) scale(0.1 -0.1)">
       <defs>
        <path id="DejaVuSans-31" d="M 794 531 
L 1825 531 
L 1825 4091 
L 703 3866 
L 703 4441 
L 1819 4666 
L 2450 4666 
L 2450 531 
L 3481 531 
L 3481 0 
L 794 0 
L 794 531 
z
" transform="scale(0.015625)"/>
       </defs>
       <use xlink:href="#DejaVuSans-31"/>
       <use xlink:href="#DejaVuSans-2e" transform="translate(63.623047 0)"/>
       <use xlink:href="#DejaVuSans-30" transform="translate(95.410156 0)"/>
      </g>
     </g>
    </g>
   </g>
   <g id="matplotlib.axis_2">
    <g id="ytick_1">
     <g id="line2d_7">
      <defs>
       <path id="mb930b5f1fe" d="M 0 0 
L -3.5 0 
" style="stroke: #000000; stroke-width: 0.8"/>
      </defs>
      <g>
       <use xlink:href="#mb930b5f1fe" x="90" y="318.186469" style="stroke: #000000; stroke-width: 0.8"/>
      </g>
     </g>
     <g id="text_7">
      <!-- 1.5 -->
      <g transform="translate(67.096875 321.985688) scale(0.1 -0.1)">
       <defs>
        <path id="DejaVuSans-35" d="M 691 4666 
L 3169 4666 
L 3169 4134 
L 1269 4134 
L 1269 2991 
Q 1406 3038 1543 3061 
Q 1681 3084 1819 3084 
Q 2600 3084 3056 2656 
Q 3513 2228 3513 1497 
Q 3513 744 3044 326 
Q 2575 -91 1722 -91 
Q 1428 -91 1123 -41 
Q 819 9 494 109 
L 494 744 
Q 775 591 1075 516 
Q 1375 441 1709 441 
Q 2250 441 2565 725 
Q 2881 1009 2881 1497 
Q 2881 1984 2565 2268 
Q 2250 2553 1709 2553 
Q 1456 2553 1204 2497 
Q 953 2441 691 2322 
L 691 4666 
z
" transform="scale(0.015625)"/>
       </defs>
       <use xlink:href="#DejaVuSans-31"/>
       <use xlink:href="#DejaVuSans-2e" transform="translate(63.623047 0)"/>
       <use xlink:href="#DejaVuSans-35" transform="translate(95.410156 0)"/>
      </g>
     </g>
    </g>
    <g id="ytick_2">
     <g id="line2d_8">
      <g>
       <use xlink:href="#mb930b5f1fe" x="90" y="267.542187" style="stroke: #000000; stroke-width: 0.8"/>
      </g>
     </g>
     <g id="text_8">
      <!-- 2.0 -->
      <g transform="translate(67.096875 271.341406) scale(0.1 -0.1)">
       <use xlink:href="#DejaVuSans-32"/>
       <use xlink:href="#DejaVuSans-2e" transform="translate(63.623047 0)"/>
       <use xlink:href="#DejaVuSans-30" transform="translate(95.410156 0)"/>
      </g>
     </g>
    </g>
    <g id="ytick_3">
     <g id="line2d_9">
      <g>
       <use xlink:href="#mb930b5f1fe" x="90" y="216.897904" style="stroke: #000000; stroke-width: 0.8"/>
      </g>
     </g>
     <g id="text_9">
      <!-- 2.5 -->
      <g transform="translate(67.096875 220.697123) scale(0.1 -0.1)">
       <use xlink:href="#DejaVuSans-32"/>
       <use xlink:href="#DejaVuSans-2e" transform="translate(63.623047 0)"/>
       <use xlink:href="#DejaVuSans-35" transform="translate(95.410156 0)"/>
      </g>
     </g>
    </g>
    <g id="ytick_4">
     <g id="line2d_10">
      <g>
       <use xlink:href="#mb930b5f1fe" x="90" y="166.253622" style="stroke: #000000; stroke-width: 0.8"/>
      </g>
     </g>
     <g id="text_10">
      <!-- 3.0 -->
      <g transform="translate(67.096875 170.052841) scale(0.1 -0.1)">
       <defs>
        <path id="DejaVuSans-33" d="M 2597 2516 
Q 3050 2419 3304 2112 
Q 3559 1806 3559 1356 
Q 3559 666 3084 287 
Q 2609 -91 1734 -91 
Q 1441 -91 1130 -33 
Q 819 25 488 141 
L 488 750 
Q 750 597 1062 519 
Q 1375 441 1716 441 
Q 2309 441 2620 675 
Q 2931 909 2931 1356 
Q 2931 1769 2642 2001 
Q 2353 2234 1838 2234 
L 1294 2234 
L 1294 2753 
L 1863 2753 
Q 2328 2753 2575 2939 
Q 2822 3125 2822 3475 
Q 2822 3834 2567 4026 
Q 2313 4219 1838 4219 
Q 1578 4219 1281 4162 
Q 984 4106 628 3988 
L 628 4550 
Q 988 4650 1302 4700 
Q 1616 4750 1894 4750 
Q 2613 4750 3031 4423 
Q 3450 4097 3450 3541 
Q 3450 3153 3228 2886 
Q 3006 2619 2597 2516 
z
" transform="scale(0.015625)"/>
       </defs>
       <use xlink:href="#DejaVuSans-33"/>
       <use xlink:href="#DejaVuSans-2e" transform="translate(63.623047 0)"/>
       <use xlink:href="#DejaVuSans-30" transform="translate(95.410156 0)"/>
      </g>
     </g>
    </g>
    <g id="ytick_5">
     <g id="line2d_11">
      <g>
       <use xlink:href="#mb930b5f1fe" x="90" y="115.60934" style="stroke: #000000; stroke-width: 0.8"/>
      </g>
     </g>
     <g id="text_11">
      <!-- 3.5 -->
      <g transform="translate(67.096875 119.408558) scale(0.1 -0.1)">
       <use xlink:href="#DejaVuSans-33"/>
       <use xlink:href="#DejaVuSans-2e" transform="translate(63.623047 0)"/>
       <use xlink:href="#DejaVuSans-35" transform="translate(95.410156 0)"/>
      </g>
     </g>
    </g>
    <g id="ytick_6">
     <g id="line2d_12">
      <g>
       <use xlink:href="#mb930b5f1fe" x="90" y="64.965057" style="stroke: #000000; stroke-width: 0.8"/>
      </g>
     </g>
     <g id="text_12">
      <!-- 4.0 -->
      <g transform="translate(67.096875 68.764276) scale(0.1 -0.1)">
       <use xlink:href="#DejaVuSans-34"/>
       <use xlink:href="#DejaVuSans-2e" transform="translate(63.623047 0)"/>
       <use xlink:href="#DejaVuSans-30" transform="translate(95.410156 0)"/>
      </g>
     </g>
    </g>
   </g>
   <g id="line2d_13">
    <path d="M 95.58 320.4 
L 95.58 43.2 
" clip-path="url(#pb34d52fcb3)" style="fill: none; stroke-dasharray: 5.55,2.4; stroke-dashoffset: 0; stroke: #808080; stroke-opacity: 0.1; stroke-width: 1.5"/>
   </g>
   <g id="line2d_14">
    <path d="M 117.9 320.4 
L 117.9 43.2 
" clip-path="url(#pb34d52fcb3)" style="fill: none; stroke-dasharray: 5.55,2.4; stroke-dashoffset: 0; stroke: #808080; stroke-opacity: 0.1; stroke-width: 1.5"/>
   </g>
   <g id="line2d_15">
    <path d="M 145.8 320.4 
L 145.8 43.2 
" clip-path="url(#pb34d52fcb3)" style="fill: none; stroke-dasharray: 5.55,2.4; stroke-dashoffset: 0; stroke: #808080; stroke-opacity: 0.1; stroke-width: 1.5"/>
   </g>
   <g id="line2d_16">
    <path d="M 229.5 320.4 
L 229.5 43.2 
" clip-path="url(#pb34d52fcb3)" style="fill: none; stroke-dasharray: 5.55,2.4; stroke-dashoffset: 0; stroke: #808080; stroke-opacity: 0.1; stroke-width: 1.5"/>
   </g>
   <g id="line2d_17">
    <path d="M 369 320.4 
L 369 43.2 
" clip-path="url(#pb34d52fcb3)" style="fill: none; stroke-dasharray: 5.55,2.4; stroke-dashoffset: 0; stroke: #808080; stroke-opacity: 0.1; stroke-width: 1.5"/>
   </g>
   <g id="line2d_18">
    <path d="M 508.5 320.4 
L 508.5 43.2 
" clip-path="url(#pb34d52fcb3)" style="fill: none; stroke-dasharray: 5.55,2.4; stroke-dashoffset: 0; stroke: #808080; stroke-opacity: 0.1; stroke-width: 1.5"/>
   </g>
   <g id="line2d_19">
    <path d="M 648 320.4 
L 648 43.2 
" clip-path="url(#pb34d52fcb3)" style="fill: none; stroke-dasharray: 5.55,2.4; stroke-dashoffset: 0; stroke: #808080; stroke-opacity: 0.1; stroke-width: 1.5"/>
   </g>
   <g id="line2d_20">
    <path d="M 95.58 65.325144 
L 117.9 211.160978 
L 145.8 263.192697 
L 229.5 247.041988 
L 369 300.450857 
L 508.5 293.236562 
L 648 302.922539 
" clip-path="url(#pb34d52fcb3)" style="fill: none; stroke: #f1c40f; stroke-opacity: 0.1; stroke-width: 1.5; stroke-linecap: square"/>
    <defs>
     <path id="m08cc44caa8" d="M 0 3 
C 0.795609 3 1.55874 2.683901 2.12132 2.12132 
C 2.683901 1.55874 3 0.795609 3 0 
C 3 -0.795609 2.683901 -1.55874 2.12132 -2.12132 
C 1.55874 -2.683901 0.795609 -3 0 -3 
C -0.795609 -3 -1.55874 -2.683901 -2.12132 -2.12132 
C -2.683901 -1.55874 -3 -0.795609 -3 0 
C -3 0.795609 -2.683901 1.55874 -2.12132 2.12132 
C -1.55874 2.683901 -0.795609 3 0 3 
z
" style="stroke: #f1c40f; stroke-opacity: 0.1"/>
    </defs>
    <g clip-path="url(#pb34d52fcb3)">
     <use xlink:href="#m08cc44caa8" x="95.58" y="65.325144" style="fill: #f1c40f; fill-opacity: 0.1; stroke: #f1c40f; stroke-opacity: 0.1"/>
     <use xlink:href="#m08cc44caa8" x="117.9" y="211.160978" style="fill: #f1c40f; fill-opacity: 0.1; stroke: #f1c40f; stroke-opacity: 0.1"/>
     <use xlink:href="#m08cc44caa8" x="145.8" y="263.192697" style="fill: #f1c40f; fill-opacity: 0.1; stroke: #f1c40f; stroke-opacity: 0.1"/>
     <use xlink:href="#m08cc44caa8" x="229.5" y="247.041988" style="fill: #f1c40f; fill-opacity: 0.1; stroke: #f1c40f; stroke-opacity: 0.1"/>
     <use xlink:href="#m08cc44caa8" x="369" y="300.450857" style="fill: #f1c40f; fill-opacity: 0.1; stroke: #f1c40f; stroke-opacity: 0.1"/>
     <use xlink:href="#m08cc44caa8" x="508.5" y="293.236562" style="fill: #f1c40f; fill-opacity: 0.1; stroke: #f1c40f; stroke-opacity: 0.1"/>
     <use xlink:href="#m08cc44caa8" x="648" y="302.922539" style="fill: #f1c40f; fill-opacity: 0.1; stroke: #f1c40f; stroke-opacity: 0.1"/>
    </g>
   </g>
   <g id="line2d_21">
    <path d="M 95.58 55.8 
L 117.9 228.40605 
L 145.8 245.430037 
L 229.5 258.381959 
L 369 280.260611 
L 508.5 288.291012 
L 648 272.73588 
" clip-path="url(#pb34d52fcb3)" style="fill: none; stroke: #e74c3c; stroke-opacity: 0.1; stroke-width: 1.5; stroke-linecap: square"/>
    <defs>
     <path id="m3fe4b237e1" d="M 0 3 
C 0.795609 3 1.55874 2.683901 2.12132 2.12132 
C 2.683901 1.55874 3 0.795609 3 0 
C 3 -0.795609 2.683901 -1.55874 2.12132 -2.12132 
C 1.55874 -2.683901 0.795609 -3 0 -3 
C -0.795609 -3 -1.55874 -2.683901 -2.12132 -2.12132 
C -2.683901 -1.55874 -3 -0.795609 -3 0 
C -3 0.795609 -2.683901 1.55874 -2.12132 2.12132 
C -1.55874 2.683901 -0.795609 3 0 3 
z
" style="stroke: #e74c3c; stroke-opacity: 0.1"/>
    </defs>
    <g clip-path="url(#pb34d52fcb3)">
     <use xlink:href="#m3fe4b237e1" x="95.58" y="55.8" style="fill: #e74c3c; fill-opacity: 0.1; stroke: #e74c3c; stroke-opacity: 0.1"/>
     <use xlink:href="#m3fe4b237e1" x="117.9" y="228.40605" style="fill: #e74c3c; fill-opacity: 0.1; stroke: #e74c3c; stroke-opacity: 0.1"/>
     <use xlink:href="#m3fe4b237e1" x="145.8" y="245.430037" style="fill: #e74c3c; fill-opacity: 0.1; stroke: #e74c3c; stroke-opacity: 0.1"/>
     <use xlink:href="#m3fe4b237e1" x="229.5" y="258.381959" style="fill: #e74c3c; fill-opacity: 0.1; stroke: #e74c3c; stroke-opacity: 0.1"/>
     <use xlink:href="#m3fe4b237e1" x="369" y="280.260611" style="fill: #e74c3c; fill-opacity: 0.1; stroke: #e74c3c; stroke-opacity: 0.1"/>
     <use xlink:href="#m3fe4b237e1" x="508.5" y="288.291012" style="fill: #e74c3c; fill-opacity: 0.1; stroke: #e74c3c; stroke-opacity: 0.1"/>
     <use xlink:href="#m3fe4b237e1" x="648" y="272.73588" style="fill: #e74c3c; fill-opacity: 0.1; stroke: #e74c3c; stroke-opacity: 0.1"/>
    </g>
   </g>
   <g id="line2d_22">
    <path d="M 95.58 59.496547 
L 117.9 235.928897 
L 145.8 243.689227 
L 229.5 276.552424 
L 369 293.984797 
L 508.5 302.334895 
L 648 307.8 
" clip-path="url(#pb34d52fcb3)" style="fill: none; stroke: #2ecc71; stroke-opacity: 0.1; stroke-width: 1.5; stroke-linecap: square"/>
    <defs>
     <path id="ma7c3e8461c" d="M 0 3 
C 0.795609 3 1.55874 2.683901 2.12132 2.12132 
C 2.683901 1.55874 3 0.795609 3 0 
C 3 -0.795609 2.683901 -1.55874 2.12132 -2.12132 
C 1.55874 -2.683901 0.795609 -3 0 -3 
C -0.795609 -3 -1.55874 -2.683901 -2.12132 -2.12132 
C -2.683901 -1.55874 -3 -0.795609 -3 0 
C -3 0.795609 -2.683901 1.55874 -2.12132 2.12132 
C -1.55874 2.683901 -0.795609 3 0 3 
z
" style="stroke: #2ecc71; stroke-opacity: 0.1"/>
    </defs>
    <g clip-path="url(#pb34d52fcb3)">
     <use xlink:href="#ma7c3e8461c" x="95.58" y="59.496547" style="fill: #2ecc71; fill-opacity: 0.1; stroke: #2ecc71; stroke-opacity: 0.1"/>
     <use xlink:href="#ma7c3e8461c" x="117.9" y="235.928897" style="fill: #2ecc71; fill-opacity: 0.1; stroke: #2ecc71; stroke-opacity: 0.1"/>
     <use xlink:href="#ma7c3e8461c" x="145.8" y="243.689227" style="fill: #2ecc71; fill-opacity: 0.1; stroke: #2ecc71; stroke-opacity: 0.1"/>
     <use xlink:href="#ma7c3e8461c" x="229.5" y="276.552424" style="fill: #2ecc71; fill-opacity: 0.1; stroke: #2ecc71; stroke-opacity: 0.1"/>
     <use xlink:href="#ma7c3e8461c" x="369" y="293.984797" style="fill: #2ecc71; fill-opacity: 0.1; stroke: #2ecc71; stroke-opacity: 0.1"/>
     <use xlink:href="#ma7c3e8461c" x="508.5" y="302.334895" style="fill: #2ecc71; fill-opacity: 0.1; stroke: #2ecc71; stroke-opacity: 0.1"/>
     <use xlink:href="#ma7c3e8461c" x="648" y="307.8" style="fill: #2ecc71; fill-opacity: 0.1; stroke: #2ecc71; stroke-opacity: 0.1"/>
    </g>
   </g>
   <g id="line2d_23">
    <path d="M 95.58 64.163115 
L 117.9 244.932397 
L 145.8 243.714704 
L 229.5 246.985503 
L 369 261.156471 
L 508.5 292.920499 
L 648 292.920499 
" clip-path="url(#pb34d52fcb3)" style="fill: none; stroke: #3498db; stroke-opacity: 0.1; stroke-width: 1.5; stroke-linecap: square"/>
    <defs>
     <path id="m72716e3ff4" d="M 0 3 
C 0.795609 3 1.55874 2.683901 2.12132 2.12132 
C 2.683901 1.55874 3 0.795609 3 0 
C 3 -0.795609 2.683901 -1.55874 2.12132 -2.12132 
C 1.55874 -2.683901 0.795609 -3 0 -3 
C -0.795609 -3 -1.55874 -2.683901 -2.12132 -2.12132 
C -2.683901 -1.55874 -3 -0.795609 -3 0 
C -3 0.795609 -2.683901 1.55874 -2.12132 2.12132 
C -1.55874 2.683901 -0.795609 3 0 3 
z
" style="stroke: #3498db; stroke-opacity: 0.1"/>
    </defs>
    <g clip-path="url(#pb34d52fcb3)">
     <use xlink:href="#m72716e3ff4" x="95.58" y="64.163115" style="fill: #3498db; fill-opacity: 0.1; stroke: #3498db; stroke-opacity: 0.1"/>
     <use xlink:href="#m72716e3ff4" x="117.9" y="244.932397" style="fill: #3498db; fill-opacity: 0.1; stroke: #3498db; stroke-opacity: 0.1"/>
     <use xlink:href="#m72716e3ff4" x="145.8" y="243.714704" style="fill: #3498db; fill-opacity: 0.1; stroke: #3498db; stroke-opacity: 0.1"/>
     <use xlink:href="#m72716e3ff4" x="229.5" y="246.985503" style="fill: #3498db; fill-opacity: 0.1; stroke: #3498db; stroke-opacity: 0.1"/>
     <use xlink:href="#m72716e3ff4" x="369" y="261.156471" style="fill: #3498db; fill-opacity: 0.1; stroke: #3498db; stroke-opacity: 0.1"/>
     <use xlink:href="#m72716e3ff4" x="508.5" y="292.920499" style="fill: #3498db; fill-opacity: 0.1; stroke: #3498db; stroke-opacity: 0.1"/>
     <use xlink:href="#m72716e3ff4" x="648" y="292.920499" style="fill: #3498db; fill-opacity: 0.1; stroke: #3498db; stroke-opacity: 0.1"/>
    </g>
   </g>
   <g id="LineCollection_1">
    <path d="M 95.58 64.999442 
L 95.58 57.392961 
" clip-path="url(#pb34d52fcb3)" style="fill: none; stroke: #9b59b6; stroke-width: 2"/>
    <path d="M 117.9 242.512038 
L 117.9 217.702123 
" clip-path="url(#pb34d52fcb3)" style="fill: none; stroke: #9b59b6; stroke-width: 2"/>
    <path d="M 145.8 257.227307 
L 145.8 240.786025 
" clip-path="url(#pb34d52fcb3)" style="fill: none; stroke: #9b59b6; stroke-width: 2"/>
    <path d="M 229.5 269.317595 
L 229.5 245.163342 
" clip-path="url(#pb34d52fcb3)" style="fill: none; stroke: #9b59b6; stroke-width: 2"/>
    <path d="M 369 299.014191 
L 369 268.912177 
" clip-path="url(#pb34d52fcb3)" style="fill: none; stroke: #9b59b6; stroke-width: 2"/>
    <path d="M 508.5 299.286369 
L 508.5 289.105115 
" clip-path="url(#pb34d52fcb3)" style="fill: none; stroke: #9b59b6; stroke-width: 2"/>
    <path d="M 648 307.542256 
L 648 280.647203 
" clip-path="url(#pb34d52fcb3)" style="fill: none; stroke: #9b59b6; stroke-width: 2"/>
   </g>
   <g id="line2d_24">
    <defs>
     <path id="mea5f882104" d="M 5 0 
L -5 -0 
" style="stroke: #9b59b6; stroke-width: 2"/>
    </defs>
    <g clip-path="url(#pb34d52fcb3)">
     <use xlink:href="#mea5f882104" x="95.58" y="64.999442" style="fill: #9b59b6; stroke: #9b59b6; stroke-width: 2"/>
     <use xlink:href="#mea5f882104" x="117.9" y="242.512038" style="fill: #9b59b6; stroke: #9b59b6; stroke-width: 2"/>
     <use xlink:href="#mea5f882104" x="145.8" y="257.227307" style="fill: #9b59b6; stroke: #9b59b6; stroke-width: 2"/>
     <use xlink:href="#mea5f882104" x="229.5" y="269.317595" style="fill: #9b59b6; stroke: #9b59b6; stroke-width: 2"/>
     <use xlink:href="#mea5f882104" x="369" y="299.014191" style="fill: #9b59b6; stroke: #9b59b6; stroke-width: 2"/>
     <use xlink:href="#mea5f882104" x="508.5" y="299.286369" style="fill: #9b59b6; stroke: #9b59b6; stroke-width: 2"/>
     <use xlink:href="#mea5f882104" x="648" y="307.542256" style="fill: #9b59b6; stroke: #9b59b6; stroke-width: 2"/>
    </g>
   </g>
   <g id="line2d_25">
    <g clip-path="url(#pb34d52fcb3)">
     <use xlink:href="#mea5f882104" x="95.58" y="57.392961" style="fill: #9b59b6; stroke: #9b59b6; stroke-width: 2"/>
     <use xlink:href="#mea5f882104" x="117.9" y="217.702123" style="fill: #9b59b6; stroke: #9b59b6; stroke-width: 2"/>
     <use xlink:href="#mea5f882104" x="145.8" y="240.786025" style="fill: #9b59b6; stroke: #9b59b6; stroke-width: 2"/>
     <use xlink:href="#mea5f882104" x="229.5" y="245.163342" style="fill: #9b59b6; stroke: #9b59b6; stroke-width: 2"/>
     <use xlink:href="#mea5f882104" x="369" y="268.912177" style="fill: #9b59b6; stroke: #9b59b6; stroke-width: 2"/>
     <use xlink:href="#mea5f882104" x="508.5" y="289.105115" style="fill: #9b59b6; stroke: #9b59b6; stroke-width: 2"/>
     <use xlink:href="#mea5f882104" x="648" y="280.647203" style="fill: #9b59b6; stroke: #9b59b6; stroke-width: 2"/>
    </g>
   </g>
   <g id="line2d_26">
    <path d="M 95.58 61.196202 
L 117.9 230.107081 
L 145.8 249.006666 
L 229.5 257.240469 
L 369 283.963184 
L 508.5 294.195742 
L 648 294.094729 
" clip-path="url(#pb34d52fcb3)" style="fill: none; stroke: #9b59b6; stroke-width: 1.5; stroke-linecap: square"/>
    <defs>
     <path id="m196918b5c1" d="M 0 3 
C 0.795609 3 1.55874 2.683901 2.12132 2.12132 
C 2.683901 1.55874 3 0.795609 3 0 
C 3 -0.795609 2.683901 -1.55874 2.12132 -2.12132 
C 1.55874 -2.683901 0.795609 -3 0 -3 
C -0.795609 -3 -1.55874 -2.683901 -2.12132 -2.12132 
C -2.683901 -1.55874 -3 -0.795609 -3 0 
C -3 0.795609 -2.683901 1.55874 -2.12132 2.12132 
C -1.55874 2.683901 -0.795609 3 0 3 
z
" style="stroke: #9b59b6"/>
    </defs>
    <g clip-path="url(#pb34d52fcb3)">
     <use xlink:href="#m196918b5c1" x="95.58" y="61.196202" style="fill: #9b59b6; stroke: #9b59b6"/>
     <use xlink:href="#m196918b5c1" x="117.9" y="230.107081" style="fill: #9b59b6; stroke: #9b59b6"/>
     <use xlink:href="#m196918b5c1" x="145.8" y="249.006666" style="fill: #9b59b6; stroke: #9b59b6"/>
     <use xlink:href="#m196918b5c1" x="229.5" y="257.240469" style="fill: #9b59b6; stroke: #9b59b6"/>
     <use xlink:href="#m196918b5c1" x="369" y="283.963184" style="fill: #9b59b6; stroke: #9b59b6"/>
     <use xlink:href="#m196918b5c1" x="508.5" y="294.195742" style="fill: #9b59b6; stroke: #9b59b6"/>
     <use xlink:href="#m196918b5c1" x="648" y="294.094729" style="fill: #9b59b6; stroke: #9b59b6"/>
    </g>
   </g>
   <g id="patch_3">
    <path d="M 90 320.4 
L 90 43.2 
" style="fill: none; stroke: #000000; stroke-width: 0.8; stroke-linejoin: miter; stroke-linecap: square"/>
   </g>
   <g id="patch_4">
    <path d="M 648 320.4 
L 648 43.2 
" style="fill: none; stroke: #000000; stroke-width: 0.8; stroke-linejoin: miter; stroke-linecap: square"/>
   </g>
   <g id="patch_5">
    <path d="M 90 320.4 
L 648 320.4 
" style="fill: none; stroke: #000000; stroke-width: 0.8; stroke-linejoin: miter; stroke-linecap: square"/>
   </g>
   <g id="patch_6">
    <path d="M 90 43.2 
L 648 43.2 
" style="fill: none; stroke: #000000; stroke-width: 0.8; stroke-linejoin: miter; stroke-linecap: square"/>
   </g>
  </g>
 </g>
 <defs>
  <clipPath id="pb34d52fcb3">
   <rect x="90" y="43.2" width="558" height="277.2"/>
  </clipPath>
 </defs>
</svg>
