<?xml version="1.0" encoding="utf-8" standalone="no"?>
<!DOCTYPE svg PUBLIC "-//W3C//DTD SVG 1.1//EN"
  "http://www.w3.org/Graphics/SVG/1.1/DTD/svg11.dtd">
<svg xmlns:xlink="http://www.w3.org/1999/xlink" width="864pt" height="432pt" viewBox="0 0 864 432" xmlns="http://www.w3.org/2000/svg" version="1.1">
 <metadata>
  <rdf:RDF xmlns:dc="http://purl.org/dc/elements/1.1/" xmlns:cc="http://creativecommons.org/ns#" xmlns:rdf="http://www.w3.org/1999/02/22-rdf-syntax-ns#">
   <cc:Work>
    <dc:type rdf:resource="http://purl.org/dc/dcmitype/StillImage"/>
    <dc:date>2025-05-21T13:59:01.091994</dc:date>
    <dc:format>image/svg+xml</dc:format>
    <dc:creator>
     <cc:Agent>
      <dc:title>Matplotlib v3.10.0, https://matplotlib.org/</dc:title>
     </cc:Agent>
    </dc:creator>
   </cc:Work>
  </rdf:RDF>
 </metadata>
 <defs>
  <style type="text/css">*{stroke-linejoin: round; stroke-linecap: butt}</style>
 </defs>
 <g id="figure_1">
  <g id="patch_1">
   <path d="M 0 432 
L 864 432 
L 864 0 
L 0 0 
z
" style="fill: #ffffff"/>
  </g>
  <g id="axes_1">
   <g id="patch_2">
    <path d="M 47.81 344.124834 
L 853.2 344.124834 
L 853.2 25.44 
L 47.81 25.44 
z
" style="fill: #ffffff"/>
   </g>
   <g id="patch_3">
    <path d="M 84.418636 344.124834 
L 134.057465 344.124834 
L 134.057465 163.00562 
L 84.418636 163.00562 
z
" clip-path="url(#p634687d210)" style="fill: #ffeaa7"/>
   </g>
   <g id="patch_4">
    <path d="M 146.467173 344.124834 
L 196.106002 344.124834 
L 196.106002 271.358464 
L 146.467173 271.358464 
z
" clip-path="url(#p634687d210)" style="fill: #ffeaa7"/>
   </g>
   <g id="patch_5">
    <path d="M 208.515709 344.124834 
L 258.154538 344.124834 
L 258.154538 272.420746 
L 208.515709 272.420746 
z
" clip-path="url(#p634687d210)" style="fill: #ffeaa7"/>
   </g>
   <g id="patch_6">
    <path d="M 270.564245 344.124834 
L 320.203074 344.124834 
L 320.203074 300.57124 
L 270.564245 300.57124 
z
" clip-path="url(#p634687d210)" style="fill: #ffeaa7"/>
   </g>
   <g id="patch_7">
    <path d="M 332.612781 344.124834 
L 382.25161 344.124834 
L 382.25161 317.567765 
L 332.612781 317.567765 
z
" clip-path="url(#p634687d210)" style="fill: #ffeaa7"/>
   </g>
   <g id="patch_8">
    <path d="M 394.661317 344.124834 
L 444.300146 344.124834 
L 444.300146 320.754613 
L 394.661317 320.754613 
z
" clip-path="url(#p634687d210)" style="fill: #ffeaa7"/>
   </g>
   <g id="patch_9">
    <path d="M 456.709854 344.124834 
L 506.348683 344.124834 
L 506.348683 322.348037 
L 456.709854 322.348037 
z
" clip-path="url(#p634687d210)" style="fill: #ffeaa7"/>
   </g>
   <g id="patch_10">
    <path d="M 518.75839 344.124834 
L 568.397219 344.124834 
L 568.397219 327.659451 
L 518.75839 327.659451 
z
" clip-path="url(#p634687d210)" style="fill: #ffeaa7"/>
   </g>
   <g id="patch_11">
    <path d="M 580.806926 344.124834 
L 630.445755 344.124834 
L 630.445755 328.721734 
L 580.806926 328.721734 
z
" clip-path="url(#p634687d210)" style="fill: #ffeaa7"/>
   </g>
   <g id="patch_12">
    <path d="M 642.855462 344.124834 
L 692.494291 344.124834 
L 692.494291 329.252875 
L 642.855462 329.252875 
z
" clip-path="url(#p634687d210)" style="fill: #ffeaa7"/>
   </g>
   <g id="patch_13">
    <path d="M 704.903998 344.124834 
L 754.542827 344.124834 
L 754.542827 332.970865 
L 704.903998 332.970865 
z
" clip-path="url(#p634687d210)" style="fill: #ffeaa7"/>
   </g>
   <g id="patch_14">
    <path d="M 766.952535 344.124834 
L 816.591364 344.124834 
L 816.591364 330.846299 
L 766.952535 330.846299 
z
" clip-path="url(#p634687d210)" style="fill: #ffeaa7"/>
   </g>
   <g id="matplotlib.axis_1">
    <g id="xtick_1">
     <g id="line2d_1">
      <defs>
       <path id="mc1033c53b8" d="M 0 0 
L 0 3.5 
" style="stroke: #000000; stroke-width: 0.8"/>
      </defs>
      <g>
       <use xlink:href="#mc1033c53b8" x="109.238051" y="344.124834" style="stroke: #000000; stroke-width: 0.8"/>
      </g>
     </g>
     <g id="text_1">
      <!-- learning_rate -->
      <g transform="translate(60.824438 403.244128) rotate(-45) scale(0.1 -0.1)">
       <defs>
        <path id="DejaVuSans-6c" d="M 603 4863 
L 1178 4863 
L 1178 0 
L 603 0 
L 603 4863 
z
" transform="scale(0.015625)"/>
        <path id="DejaVuSans-65" d="M 3597 1894 
L 3597 1613 
L 953 1613 
Q 991 1019 1311 708 
Q 1631 397 2203 397 
Q 2534 397 2845 478 
Q 3156 559 3463 722 
L 3463 178 
Q 3153 47 2828 -22 
Q 2503 -91 2169 -91 
Q 1331 -91 842 396 
Q 353 884 353 1716 
Q 353 2575 817 3079 
Q 1281 3584 2069 3584 
Q 2775 3584 3186 3129 
Q 3597 2675 3597 1894 
z
M 3022 2063 
Q 3016 2534 2758 2815 
Q 2500 3097 2075 3097 
Q 1594 3097 1305 2825 
Q 1016 2553 972 2059 
L 3022 2063 
z
" transform="scale(0.015625)"/>
        <path id="DejaVuSans-61" d="M 2194 1759 
Q 1497 1759 1228 1600 
Q 959 1441 959 1056 
Q 959 750 1161 570 
Q 1363 391 1709 391 
Q 2188 391 2477 730 
Q 2766 1069 2766 1631 
L 2766 1759 
L 2194 1759 
z
M 3341 1997 
L 3341 0 
L 2766 0 
L 2766 531 
Q 2569 213 2275 61 
Q 1981 -91 1556 -91 
Q 1019 -91 701 211 
Q 384 513 384 1019 
Q 384 1609 779 1909 
Q 1175 2209 1959 2209 
L 2766 2209 
L 2766 2266 
Q 2766 2663 2505 2880 
Q 2244 3097 1772 3097 
Q 1472 3097 1187 3025 
Q 903 2953 641 2809 
L 641 3341 
Q 956 3463 1253 3523 
Q 1550 3584 1831 3584 
Q 2591 3584 2966 3190 
Q 3341 2797 3341 1997 
z
" transform="scale(0.015625)"/>
        <path id="DejaVuSans-72" d="M 2631 2963 
Q 2534 3019 2420 3045 
Q 2306 3072 2169 3072 
Q 1681 3072 1420 2755 
Q 1159 2438 1159 1844 
L 1159 0 
L 581 0 
L 581 3500 
L 1159 3500 
L 1159 2956 
Q 1341 3275 1631 3429 
Q 1922 3584 2338 3584 
Q 2397 3584 2469 3576 
Q 2541 3569 2628 3553 
L 2631 2963 
z
" transform="scale(0.015625)"/>
        <path id="DejaVuSans-6e" d="M 3513 2113 
L 3513 0 
L 2938 0 
L 2938 2094 
Q 2938 2591 2744 2837 
Q 2550 3084 2163 3084 
Q 1697 3084 1428 2787 
Q 1159 2491 1159 1978 
L 1159 0 
L 581 0 
L 581 3500 
L 1159 3500 
L 1159 2956 
Q 1366 3272 1645 3428 
Q 1925 3584 2291 3584 
Q 2894 3584 3203 3211 
Q 3513 2838 3513 2113 
z
" transform="scale(0.015625)"/>
        <path id="DejaVuSans-69" d="M 603 3500 
L 1178 3500 
L 1178 0 
L 603 0 
L 603 3500 
z
M 603 4863 
L 1178 4863 
L 1178 4134 
L 603 4134 
L 603 4863 
z
" transform="scale(0.015625)"/>
        <path id="DejaVuSans-67" d="M 2906 1791 
Q 2906 2416 2648 2759 
Q 2391 3103 1925 3103 
Q 1463 3103 1205 2759 
Q 947 2416 947 1791 
Q 947 1169 1205 825 
Q 1463 481 1925 481 
Q 2391 481 2648 825 
Q 2906 1169 2906 1791 
z
M 3481 434 
Q 3481 -459 3084 -895 
Q 2688 -1331 1869 -1331 
Q 1566 -1331 1297 -1286 
Q 1028 -1241 775 -1147 
L 775 -588 
Q 1028 -725 1275 -790 
Q 1522 -856 1778 -856 
Q 2344 -856 2625 -561 
Q 2906 -266 2906 331 
L 2906 616 
Q 2728 306 2450 153 
Q 2172 0 1784 0 
Q 1141 0 747 490 
Q 353 981 353 1791 
Q 353 2603 747 3093 
Q 1141 3584 1784 3584 
Q 2172 3584 2450 3431 
Q 2728 3278 2906 2969 
L 2906 3500 
L 3481 3500 
L 3481 434 
z
" transform="scale(0.015625)"/>
        <path id="DejaVuSans-5f" d="M 3263 -1063 
L 3263 -1509 
L -63 -1509 
L -63 -1063 
L 3263 -1063 
z
" transform="scale(0.015625)"/>
        <path id="DejaVuSans-74" d="M 1172 4494 
L 1172 3500 
L 2356 3500 
L 2356 3053 
L 1172 3053 
L 1172 1153 
Q 1172 725 1289 603 
Q 1406 481 1766 481 
L 2356 481 
L 2356 0 
L 1766 0 
Q 1100 0 847 248 
Q 594 497 594 1153 
L 594 3053 
L 172 3053 
L 172 3500 
L 594 3500 
L 594 4494 
L 1172 4494 
z
" transform="scale(0.015625)"/>
       </defs>
       <use xlink:href="#DejaVuSans-6c"/>
       <use xlink:href="#DejaVuSans-65" transform="translate(27.783203 0)"/>
       <use xlink:href="#DejaVuSans-61" transform="translate(89.306641 0)"/>
       <use xlink:href="#DejaVuSans-72" transform="translate(150.585938 0)"/>
       <use xlink:href="#DejaVuSans-6e" transform="translate(189.949219 0)"/>
       <use xlink:href="#DejaVuSans-69" transform="translate(253.328125 0)"/>
       <use xlink:href="#DejaVuSans-6e" transform="translate(281.111328 0)"/>
       <use xlink:href="#DejaVuSans-67" transform="translate(344.490234 0)"/>
       <use xlink:href="#DejaVuSans-5f" transform="translate(407.966797 0)"/>
       <use xlink:href="#DejaVuSans-72" transform="translate(457.966797 0)"/>
       <use xlink:href="#DejaVuSans-61" transform="translate(499.080078 0)"/>
       <use xlink:href="#DejaVuSans-74" transform="translate(560.359375 0)"/>
       <use xlink:href="#DejaVuSans-65" transform="translate(599.568359 0)"/>
      </g>
     </g>
    </g>
    <g id="xtick_2">
     <g id="line2d_2">
      <g>
       <use xlink:href="#mc1033c53b8" x="171.286587" y="344.124834" style="stroke: #000000; stroke-width: 0.8"/>
      </g>
     </g>
     <g id="text_2">
      <!-- dropout -->
      <g transform="translate(142.183619 384.130148) rotate(-45) scale(0.1 -0.1)">
       <defs>
        <path id="DejaVuSans-64" d="M 2906 2969 
L 2906 4863 
L 3481 4863 
L 3481 0 
L 2906 0 
L 2906 525 
Q 2725 213 2448 61 
Q 2172 -91 1784 -91 
Q 1150 -91 751 415 
Q 353 922 353 1747 
Q 353 2572 751 3078 
Q 1150 3584 1784 3584 
Q 2172 3584 2448 3432 
Q 2725 3281 2906 2969 
z
M 947 1747 
Q 947 1113 1208 752 
Q 1469 391 1925 391 
Q 2381 391 2643 752 
Q 2906 1113 2906 1747 
Q 2906 2381 2643 2742 
Q 2381 3103 1925 3103 
Q 1469 3103 1208 2742 
Q 947 2381 947 1747 
z
" transform="scale(0.015625)"/>
        <path id="DejaVuSans-6f" d="M 1959 3097 
Q 1497 3097 1228 2736 
Q 959 2375 959 1747 
Q 959 1119 1226 758 
Q 1494 397 1959 397 
Q 2419 397 2687 759 
Q 2956 1122 2956 1747 
Q 2956 2369 2687 2733 
Q 2419 3097 1959 3097 
z
M 1959 3584 
Q 2709 3584 3137 3096 
Q 3566 2609 3566 1747 
Q 3566 888 3137 398 
Q 2709 -91 1959 -91 
Q 1206 -91 779 398 
Q 353 888 353 1747 
Q 353 2609 779 3096 
Q 1206 3584 1959 3584 
z
" transform="scale(0.015625)"/>
        <path id="DejaVuSans-70" d="M 1159 525 
L 1159 -1331 
L 581 -1331 
L 581 3500 
L 1159 3500 
L 1159 2969 
Q 1341 3281 1617 3432 
Q 1894 3584 2278 3584 
Q 2916 3584 3314 3078 
Q 3713 2572 3713 1747 
Q 3713 922 3314 415 
Q 2916 -91 2278 -91 
Q 1894 -91 1617 61 
Q 1341 213 1159 525 
z
M 3116 1747 
Q 3116 2381 2855 2742 
Q 2594 3103 2138 3103 
Q 1681 3103 1420 2742 
Q 1159 2381 1159 1747 
Q 1159 1113 1420 752 
Q 1681 391 2138 391 
Q 2594 391 2855 752 
Q 3116 1113 3116 1747 
z
" transform="scale(0.015625)"/>
        <path id="DejaVuSans-75" d="M 544 1381 
L 544 3500 
L 1119 3500 
L 1119 1403 
Q 1119 906 1312 657 
Q 1506 409 1894 409 
Q 2359 409 2629 706 
Q 2900 1003 2900 1516 
L 2900 3500 
L 3475 3500 
L 3475 0 
L 2900 0 
L 2900 538 
Q 2691 219 2414 64 
Q 2138 -91 1772 -91 
Q 1169 -91 856 284 
Q 544 659 544 1381 
z
M 1991 3584 
L 1991 3584 
z
" transform="scale(0.015625)"/>
       </defs>
       <use xlink:href="#DejaVuSans-64"/>
       <use xlink:href="#DejaVuSans-72" transform="translate(63.476562 0)"/>
       <use xlink:href="#DejaVuSans-6f" transform="translate(102.339844 0)"/>
       <use xlink:href="#DejaVuSans-70" transform="translate(163.521484 0)"/>
       <use xlink:href="#DejaVuSans-6f" transform="translate(226.998047 0)"/>
       <use xlink:href="#DejaVuSans-75" transform="translate(288.179688 0)"/>
       <use xlink:href="#DejaVuSans-74" transform="translate(351.558594 0)"/>
      </g>
     </g>
    </g>
    <g id="xtick_3">
     <g id="line2d_3">
      <g>
       <use xlink:href="#mc1033c53b8" x="233.335123" y="344.124834" style="stroke: #000000; stroke-width: 0.8"/>
      </g>
     </g>
     <g id="text_3">
      <!-- d_encoder -->
      <g transform="translate(194.849732 393.315907) rotate(-45) scale(0.1 -0.1)">
       <defs>
        <path id="DejaVuSans-63" d="M 3122 3366 
L 3122 2828 
Q 2878 2963 2633 3030 
Q 2388 3097 2138 3097 
Q 1578 3097 1268 2742 
Q 959 2388 959 1747 
Q 959 1106 1268 751 
Q 1578 397 2138 397 
Q 2388 397 2633 464 
Q 2878 531 3122 666 
L 3122 134 
Q 2881 22 2623 -34 
Q 2366 -91 2075 -91 
Q 1284 -91 818 406 
Q 353 903 353 1747 
Q 353 2603 823 3093 
Q 1294 3584 2113 3584 
Q 2378 3584 2631 3529 
Q 2884 3475 3122 3366 
z
" transform="scale(0.015625)"/>
       </defs>
       <use xlink:href="#DejaVuSans-64"/>
       <use xlink:href="#DejaVuSans-5f" transform="translate(63.476562 0)"/>
       <use xlink:href="#DejaVuSans-65" transform="translate(113.476562 0)"/>
       <use xlink:href="#DejaVuSans-6e" transform="translate(175 0)"/>
       <use xlink:href="#DejaVuSans-63" transform="translate(238.378906 0)"/>
       <use xlink:href="#DejaVuSans-6f" transform="translate(293.359375 0)"/>
       <use xlink:href="#DejaVuSans-64" transform="translate(354.541016 0)"/>
       <use xlink:href="#DejaVuSans-65" transform="translate(418.017578 0)"/>
       <use xlink:href="#DejaVuSans-72" transform="translate(479.541016 0)"/>
      </g>
     </g>
    </g>
    <g id="xtick_4">
     <g id="line2d_4">
      <g>
       <use xlink:href="#mc1033c53b8" x="295.383659" y="344.124834" style="stroke: #000000; stroke-width: 0.8"/>
      </g>
     </g>
     <g id="text_4">
      <!-- batch_size -->
      <g transform="translate(256.50715 393.707025) rotate(-45) scale(0.1 -0.1)">
       <defs>
        <path id="DejaVuSans-62" d="M 3116 1747 
Q 3116 2381 2855 2742 
Q 2594 3103 2138 3103 
Q 1681 3103 1420 2742 
Q 1159 2381 1159 1747 
Q 1159 1113 1420 752 
Q 1681 391 2138 391 
Q 2594 391 2855 752 
Q 3116 1113 3116 1747 
z
M 1159 2969 
Q 1341 3281 1617 3432 
Q 1894 3584 2278 3584 
Q 2916 3584 3314 3078 
Q 3713 2572 3713 1747 
Q 3713 922 3314 415 
Q 2916 -91 2278 -91 
Q 1894 -91 1617 61 
Q 1341 213 1159 525 
L 1159 0 
L 581 0 
L 581 4863 
L 1159 4863 
L 1159 2969 
z
" transform="scale(0.015625)"/>
        <path id="DejaVuSans-68" d="M 3513 2113 
L 3513 0 
L 2938 0 
L 2938 2094 
Q 2938 2591 2744 2837 
Q 2550 3084 2163 3084 
Q 1697 3084 1428 2787 
Q 1159 2491 1159 1978 
L 1159 0 
L 581 0 
L 581 4863 
L 1159 4863 
L 1159 2956 
Q 1366 3272 1645 3428 
Q 1925 3584 2291 3584 
Q 2894 3584 3203 3211 
Q 3513 2838 3513 2113 
z
" transform="scale(0.015625)"/>
        <path id="DejaVuSans-73" d="M 2834 3397 
L 2834 2853 
Q 2591 2978 2328 3040 
Q 2066 3103 1784 3103 
Q 1356 3103 1142 2972 
Q 928 2841 928 2578 
Q 928 2378 1081 2264 
Q 1234 2150 1697 2047 
L 1894 2003 
Q 2506 1872 2764 1633 
Q 3022 1394 3022 966 
Q 3022 478 2636 193 
Q 2250 -91 1575 -91 
Q 1294 -91 989 -36 
Q 684 19 347 128 
L 347 722 
Q 666 556 975 473 
Q 1284 391 1588 391 
Q 1994 391 2212 530 
Q 2431 669 2431 922 
Q 2431 1156 2273 1281 
Q 2116 1406 1581 1522 
L 1381 1569 
Q 847 1681 609 1914 
Q 372 2147 372 2553 
Q 372 3047 722 3315 
Q 1072 3584 1716 3584 
Q 2034 3584 2315 3537 
Q 2597 3491 2834 3397 
z
" transform="scale(0.015625)"/>
        <path id="DejaVuSans-7a" d="M 353 3500 
L 3084 3500 
L 3084 2975 
L 922 459 
L 3084 459 
L 3084 0 
L 275 0 
L 275 525 
L 2438 3041 
L 353 3041 
L 353 3500 
z
" transform="scale(0.015625)"/>
       </defs>
       <use xlink:href="#DejaVuSans-62"/>
       <use xlink:href="#DejaVuSans-61" transform="translate(63.476562 0)"/>
       <use xlink:href="#DejaVuSans-74" transform="translate(124.755859 0)"/>
       <use xlink:href="#DejaVuSans-63" transform="translate(163.964844 0)"/>
       <use xlink:href="#DejaVuSans-68" transform="translate(218.945312 0)"/>
       <use xlink:href="#DejaVuSans-5f" transform="translate(282.324219 0)"/>
       <use xlink:href="#DejaVuSans-73" transform="translate(332.324219 0)"/>
       <use xlink:href="#DejaVuSans-69" transform="translate(384.423828 0)"/>
       <use xlink:href="#DejaVuSans-7a" transform="translate(412.207031 0)"/>
       <use xlink:href="#DejaVuSans-65" transform="translate(464.697266 0)"/>
      </g>
     </g>
    </g>
    <g id="xtick_5">
     <g id="line2d_5">
      <g>
       <use xlink:href="#mc1033c53b8" x="357.432196" y="344.124834" style="stroke: #000000; stroke-width: 0.8"/>
      </g>
     </g>
     <g id="text_5">
      <!-- lambda_c_factor -->
      <g transform="translate(297.593284 414.669427) rotate(-45) scale(0.1 -0.1)">
       <defs>
        <path id="DejaVuSans-6d" d="M 3328 2828 
Q 3544 3216 3844 3400 
Q 4144 3584 4550 3584 
Q 5097 3584 5394 3201 
Q 5691 2819 5691 2113 
L 5691 0 
L 5113 0 
L 5113 2094 
Q 5113 2597 4934 2840 
Q 4756 3084 4391 3084 
Q 3944 3084 3684 2787 
Q 3425 2491 3425 1978 
L 3425 0 
L 2847 0 
L 2847 2094 
Q 2847 2600 2669 2842 
Q 2491 3084 2119 3084 
Q 1678 3084 1418 2786 
Q 1159 2488 1159 1978 
L 1159 0 
L 581 0 
L 581 3500 
L 1159 3500 
L 1159 2956 
Q 1356 3278 1631 3431 
Q 1906 3584 2284 3584 
Q 2666 3584 2933 3390 
Q 3200 3197 3328 2828 
z
" transform="scale(0.015625)"/>
        <path id="DejaVuSans-66" d="M 2375 4863 
L 2375 4384 
L 1825 4384 
Q 1516 4384 1395 4259 
Q 1275 4134 1275 3809 
L 1275 3500 
L 2222 3500 
L 2222 3053 
L 1275 3053 
L 1275 0 
L 697 0 
L 697 3053 
L 147 3053 
L 147 3500 
L 697 3500 
L 697 3744 
Q 697 4328 969 4595 
Q 1241 4863 1831 4863 
L 2375 4863 
z
" transform="scale(0.015625)"/>
       </defs>
       <use xlink:href="#DejaVuSans-6c"/>
       <use xlink:href="#DejaVuSans-61" transform="translate(27.783203 0)"/>
       <use xlink:href="#DejaVuSans-6d" transform="translate(89.0625 0)"/>
       <use xlink:href="#DejaVuSans-62" transform="translate(186.474609 0)"/>
       <use xlink:href="#DejaVuSans-64" transform="translate(249.951172 0)"/>
       <use xlink:href="#DejaVuSans-61" transform="translate(313.427734 0)"/>
       <use xlink:href="#DejaVuSans-5f" transform="translate(374.707031 0)"/>
       <use xlink:href="#DejaVuSans-63" transform="translate(424.707031 0)"/>
       <use xlink:href="#DejaVuSans-5f" transform="translate(479.6875 0)"/>
       <use xlink:href="#DejaVuSans-66" transform="translate(529.6875 0)"/>
       <use xlink:href="#DejaVuSans-61" transform="translate(564.892578 0)"/>
       <use xlink:href="#DejaVuSans-63" transform="translate(626.171875 0)"/>
       <use xlink:href="#DejaVuSans-74" transform="translate(681.152344 0)"/>
       <use xlink:href="#DejaVuSans-6f" transform="translate(720.361328 0)"/>
       <use xlink:href="#DejaVuSans-72" transform="translate(781.542969 0)"/>
      </g>
     </g>
    </g>
    <g id="xtick_6">
     <g id="line2d_6">
      <g>
       <use xlink:href="#mc1033c53b8" x="419.480732" y="344.124834" style="stroke: #000000; stroke-width: 0.8"/>
      </g>
     </g>
     <g id="text_6">
      <!-- d_latent -->
      <g transform="translate(389.114915 385.196332) rotate(-45) scale(0.1 -0.1)">
       <use xlink:href="#DejaVuSans-64"/>
       <use xlink:href="#DejaVuSans-5f" transform="translate(63.476562 0)"/>
       <use xlink:href="#DejaVuSans-6c" transform="translate(113.476562 0)"/>
       <use xlink:href="#DejaVuSans-61" transform="translate(141.259766 0)"/>
       <use xlink:href="#DejaVuSans-74" transform="translate(202.539062 0)"/>
       <use xlink:href="#DejaVuSans-65" transform="translate(241.748047 0)"/>
       <use xlink:href="#DejaVuSans-6e" transform="translate(303.271484 0)"/>
       <use xlink:href="#DejaVuSans-74" transform="translate(366.650391 0)"/>
      </g>
     </g>
    </g>
    <g id="xtick_7">
     <g id="line2d_7">
      <g>
       <use xlink:href="#mc1033c53b8" x="481.529268" y="344.124834" style="stroke: #000000; stroke-width: 0.8"/>
      </g>
     </g>
     <g id="text_7">
      <!-- n_blocks_encoder -->
      <g transform="translate(417.069856 419.289928) rotate(-45) scale(0.1 -0.1)">
       <defs>
        <path id="DejaVuSans-6b" d="M 581 4863 
L 1159 4863 
L 1159 1991 
L 2875 3500 
L 3609 3500 
L 1753 1863 
L 3688 0 
L 2938 0 
L 1159 1709 
L 1159 0 
L 581 0 
L 581 4863 
z
" transform="scale(0.015625)"/>
       </defs>
       <use xlink:href="#DejaVuSans-6e"/>
       <use xlink:href="#DejaVuSans-5f" transform="translate(63.378906 0)"/>
       <use xlink:href="#DejaVuSans-62" transform="translate(113.378906 0)"/>
       <use xlink:href="#DejaVuSans-6c" transform="translate(176.855469 0)"/>
       <use xlink:href="#DejaVuSans-6f" transform="translate(204.638672 0)"/>
       <use xlink:href="#DejaVuSans-63" transform="translate(265.820312 0)"/>
       <use xlink:href="#DejaVuSans-6b" transform="translate(320.800781 0)"/>
       <use xlink:href="#DejaVuSans-73" transform="translate(378.710938 0)"/>
       <use xlink:href="#DejaVuSans-5f" transform="translate(430.810547 0)"/>
       <use xlink:href="#DejaVuSans-65" transform="translate(480.810547 0)"/>
       <use xlink:href="#DejaVuSans-6e" transform="translate(542.333984 0)"/>
       <use xlink:href="#DejaVuSans-63" transform="translate(605.712891 0)"/>
       <use xlink:href="#DejaVuSans-6f" transform="translate(660.693359 0)"/>
       <use xlink:href="#DejaVuSans-64" transform="translate(721.875 0)"/>
       <use xlink:href="#DejaVuSans-65" transform="translate(785.351562 0)"/>
       <use xlink:href="#DejaVuSans-72" transform="translate(846.875 0)"/>
      </g>
     </g>
    </g>
    <g id="xtick_8">
     <g id="line2d_8">
      <g>
       <use xlink:href="#mc1033c53b8" x="543.577804" y="344.124834" style="stroke: #000000; stroke-width: 0.8"/>
      </g>
     </g>
     <g id="text_8">
      <!-- activation -->
      <g transform="translate(507.086675 391.518309) rotate(-45) scale(0.1 -0.1)">
       <defs>
        <path id="DejaVuSans-76" d="M 191 3500 
L 800 3500 
L 1894 563 
L 2988 3500 
L 3597 3500 
L 2284 0 
L 1503 0 
L 191 3500 
z
" transform="scale(0.015625)"/>
       </defs>
       <use xlink:href="#DejaVuSans-61"/>
       <use xlink:href="#DejaVuSans-63" transform="translate(61.279297 0)"/>
       <use xlink:href="#DejaVuSans-74" transform="translate(116.259766 0)"/>
       <use xlink:href="#DejaVuSans-69" transform="translate(155.46875 0)"/>
       <use xlink:href="#DejaVuSans-76" transform="translate(183.251953 0)"/>
       <use xlink:href="#DejaVuSans-61" transform="translate(242.431641 0)"/>
       <use xlink:href="#DejaVuSans-74" transform="translate(303.710938 0)"/>
       <use xlink:href="#DejaVuSans-69" transform="translate(342.919922 0)"/>
       <use xlink:href="#DejaVuSans-6f" transform="translate(370.703125 0)"/>
       <use xlink:href="#DejaVuSans-6e" transform="translate(431.884766 0)"/>
      </g>
     </g>
    </g>
    <g id="xtick_9">
     <g id="line2d_9">
      <g>
       <use xlink:href="#mc1033c53b8" x="605.626341" y="344.124834" style="stroke: #000000; stroke-width: 0.8"/>
      </g>
     </g>
     <g id="text_9">
      <!-- lambda_m_factor -->
      <g transform="translate(542.78775 417.669106) rotate(-45) scale(0.1 -0.1)">
       <use xlink:href="#DejaVuSans-6c"/>
       <use xlink:href="#DejaVuSans-61" transform="translate(27.783203 0)"/>
       <use xlink:href="#DejaVuSans-6d" transform="translate(89.0625 0)"/>
       <use xlink:href="#DejaVuSans-62" transform="translate(186.474609 0)"/>
       <use xlink:href="#DejaVuSans-64" transform="translate(249.951172 0)"/>
       <use xlink:href="#DejaVuSans-61" transform="translate(313.427734 0)"/>
       <use xlink:href="#DejaVuSans-5f" transform="translate(374.707031 0)"/>
       <use xlink:href="#DejaVuSans-6d" transform="translate(424.707031 0)"/>
       <use xlink:href="#DejaVuSans-5f" transform="translate(522.119141 0)"/>
       <use xlink:href="#DejaVuSans-66" transform="translate(572.119141 0)"/>
       <use xlink:href="#DejaVuSans-61" transform="translate(607.324219 0)"/>
       <use xlink:href="#DejaVuSans-63" transform="translate(668.603516 0)"/>
       <use xlink:href="#DejaVuSans-74" transform="translate(723.583984 0)"/>
       <use xlink:href="#DejaVuSans-6f" transform="translate(762.792969 0)"/>
       <use xlink:href="#DejaVuSans-72" transform="translate(823.974609 0)"/>
      </g>
     </g>
    </g>
    <g id="xtick_10">
     <g id="line2d_10">
      <g>
       <use xlink:href="#mc1033c53b8" x="667.674877" y="344.124834" style="stroke: #000000; stroke-width: 0.8"/>
      </g>
     </g>
     <g id="text_10">
      <!-- n_blocks_decoder -->
      <g transform="translate(603.207731 419.297662) rotate(-45) scale(0.1 -0.1)">
       <use xlink:href="#DejaVuSans-6e"/>
       <use xlink:href="#DejaVuSans-5f" transform="translate(63.378906 0)"/>
       <use xlink:href="#DejaVuSans-62" transform="translate(113.378906 0)"/>
       <use xlink:href="#DejaVuSans-6c" transform="translate(176.855469 0)"/>
       <use xlink:href="#DejaVuSans-6f" transform="translate(204.638672 0)"/>
       <use xlink:href="#DejaVuSans-63" transform="translate(265.820312 0)"/>
       <use xlink:href="#DejaVuSans-6b" transform="translate(320.800781 0)"/>
       <use xlink:href="#DejaVuSans-73" transform="translate(378.710938 0)"/>
       <use xlink:href="#DejaVuSans-5f" transform="translate(430.810547 0)"/>
       <use xlink:href="#DejaVuSans-64" transform="translate(480.810547 0)"/>
       <use xlink:href="#DejaVuSans-65" transform="translate(544.287109 0)"/>
       <use xlink:href="#DejaVuSans-63" transform="translate(605.810547 0)"/>
       <use xlink:href="#DejaVuSans-6f" transform="translate(660.791016 0)"/>
       <use xlink:href="#DejaVuSans-64" transform="translate(721.972656 0)"/>
       <use xlink:href="#DejaVuSans-65" transform="translate(785.449219 0)"/>
       <use xlink:href="#DejaVuSans-72" transform="translate(846.972656 0)"/>
      </g>
     </g>
    </g>
    <g id="xtick_11">
     <g id="line2d_11">
      <g>
       <use xlink:href="#mc1033c53b8" x="729.723413" y="344.124834" style="stroke: #000000; stroke-width: 0.8"/>
      </g>
     </g>
     <g id="text_11">
      <!-- should_log -->
      <g transform="translate(690.314363 394.239565) rotate(-45) scale(0.1 -0.1)">
       <use xlink:href="#DejaVuSans-73"/>
       <use xlink:href="#DejaVuSans-68" transform="translate(52.099609 0)"/>
       <use xlink:href="#DejaVuSans-6f" transform="translate(115.478516 0)"/>
       <use xlink:href="#DejaVuSans-75" transform="translate(176.660156 0)"/>
       <use xlink:href="#DejaVuSans-6c" transform="translate(240.039062 0)"/>
       <use xlink:href="#DejaVuSans-64" transform="translate(267.822266 0)"/>
       <use xlink:href="#DejaVuSans-5f" transform="translate(331.298828 0)"/>
       <use xlink:href="#DejaVuSans-6c" transform="translate(381.298828 0)"/>
       <use xlink:href="#DejaVuSans-6f" transform="translate(409.082031 0)"/>
       <use xlink:href="#DejaVuSans-67" transform="translate(470.263672 0)"/>
      </g>
     </g>
    </g>
    <g id="xtick_12">
     <g id="line2d_12">
      <g>
       <use xlink:href="#mc1033c53b8" x="791.771949" y="344.124834" style="stroke: #000000; stroke-width: 0.8"/>
      </g>
     </g>
     <g id="text_12">
      <!-- n_heads -->
      <g transform="translate(760.749849 385.852616) rotate(-45) scale(0.1 -0.1)">
       <use xlink:href="#DejaVuSans-6e"/>
       <use xlink:href="#DejaVuSans-5f" transform="translate(63.378906 0)"/>
       <use xlink:href="#DejaVuSans-68" transform="translate(113.378906 0)"/>
       <use xlink:href="#DejaVuSans-65" transform="translate(176.757812 0)"/>
       <use xlink:href="#DejaVuSans-61" transform="translate(238.28125 0)"/>
       <use xlink:href="#DejaVuSans-64" transform="translate(299.560547 0)"/>
       <use xlink:href="#DejaVuSans-73" transform="translate(363.037109 0)"/>
      </g>
     </g>
    </g>
   </g>
   <g id="matplotlib.axis_2">
    <g id="ytick_1">
     <g id="line2d_13">
      <defs>
       <path id="m6f0f71223f" d="M 0 0 
L -3.5 0 
" style="stroke: #000000; stroke-width: 0.8"/>
      </defs>
      <g>
       <use xlink:href="#m6f0f71223f" x="47.81" y="344.124834" style="stroke: #000000; stroke-width: 0.8"/>
      </g>
     </g>
     <g id="text_13">
      <!-- 0.0 -->
      <g transform="translate(24.906875 347.924053) scale(0.1 -0.1)">
       <defs>
        <path id="DejaVuSans-30" d="M 2034 4250 
Q 1547 4250 1301 3770 
Q 1056 3291 1056 2328 
Q 1056 1369 1301 889 
Q 1547 409 2034 409 
Q 2525 409 2770 889 
Q 3016 1369 3016 2328 
Q 3016 3291 2770 3770 
Q 2525 4250 2034 4250 
z
M 2034 4750 
Q 2819 4750 3233 4129 
Q 3647 3509 3647 2328 
Q 3647 1150 3233 529 
Q 2819 -91 2034 -91 
Q 1250 -91 836 529 
Q 422 1150 422 2328 
Q 422 3509 836 4129 
Q 1250 4750 2034 4750 
z
" transform="scale(0.015625)"/>
        <path id="DejaVuSans-2e" d="M 684 794 
L 1344 794 
L 1344 0 
L 684 0 
L 684 794 
z
" transform="scale(0.015625)"/>
       </defs>
       <use xlink:href="#DejaVuSans-30"/>
       <use xlink:href="#DejaVuSans-2e" transform="translate(63.623047 0)"/>
       <use xlink:href="#DejaVuSans-30" transform="translate(95.410156 0)"/>
      </g>
     </g>
    </g>
    <g id="ytick_2">
     <g id="line2d_14">
      <g>
       <use xlink:href="#m6f0f71223f" x="47.81" y="291.010695" style="stroke: #000000; stroke-width: 0.8"/>
      </g>
     </g>
     <g id="text_14">
      <!-- 0.1 -->
      <g transform="translate(24.906875 294.809914) scale(0.1 -0.1)">
       <defs>
        <path id="DejaVuSans-31" d="M 794 531 
L 1825 531 
L 1825 4091 
L 703 3866 
L 703 4441 
L 1819 4666 
L 2450 4666 
L 2450 531 
L 3481 531 
L 3481 0 
L 794 0 
L 794 531 
z
" transform="scale(0.015625)"/>
       </defs>
       <use xlink:href="#DejaVuSans-30"/>
       <use xlink:href="#DejaVuSans-2e" transform="translate(63.623047 0)"/>
       <use xlink:href="#DejaVuSans-31" transform="translate(95.410156 0)"/>
      </g>
     </g>
    </g>
    <g id="ytick_3">
     <g id="line2d_15">
      <g>
       <use xlink:href="#m6f0f71223f" x="47.81" y="237.896556" style="stroke: #000000; stroke-width: 0.8"/>
      </g>
     </g>
     <g id="text_15">
      <!-- 0.2 -->
      <g transform="translate(24.906875 241.695775) scale(0.1 -0.1)">
       <defs>
        <path id="DejaVuSans-32" d="M 1228 531 
L 3431 531 
L 3431 0 
L 469 0 
L 469 531 
Q 828 903 1448 1529 
Q 2069 2156 2228 2338 
Q 2531 2678 2651 2914 
Q 2772 3150 2772 3378 
Q 2772 3750 2511 3984 
Q 2250 4219 1831 4219 
Q 1534 4219 1204 4116 
Q 875 4013 500 3803 
L 500 4441 
Q 881 4594 1212 4672 
Q 1544 4750 1819 4750 
Q 2544 4750 2975 4387 
Q 3406 4025 3406 3419 
Q 3406 3131 3298 2873 
Q 3191 2616 2906 2266 
Q 2828 2175 2409 1742 
Q 1991 1309 1228 531 
z
" transform="scale(0.015625)"/>
       </defs>
       <use xlink:href="#DejaVuSans-30"/>
       <use xlink:href="#DejaVuSans-2e" transform="translate(63.623047 0)"/>
       <use xlink:href="#DejaVuSans-32" transform="translate(95.410156 0)"/>
      </g>
     </g>
    </g>
    <g id="ytick_4">
     <g id="line2d_16">
      <g>
       <use xlink:href="#m6f0f71223f" x="47.81" y="184.782417" style="stroke: #000000; stroke-width: 0.8"/>
      </g>
     </g>
     <g id="text_16">
      <!-- 0.3 -->
      <g transform="translate(24.906875 188.581636) scale(0.1 -0.1)">
       <defs>
        <path id="DejaVuSans-33" d="M 2597 2516 
Q 3050 2419 3304 2112 
Q 3559 1806 3559 1356 
Q 3559 666 3084 287 
Q 2609 -91 1734 -91 
Q 1441 -91 1130 -33 
Q 819 25 488 141 
L 488 750 
Q 750 597 1062 519 
Q 1375 441 1716 441 
Q 2309 441 2620 675 
Q 2931 909 2931 1356 
Q 2931 1769 2642 2001 
Q 2353 2234 1838 2234 
L 1294 2234 
L 1294 2753 
L 1863 2753 
Q 2328 2753 2575 2939 
Q 2822 3125 2822 3475 
Q 2822 3834 2567 4026 
Q 2313 4219 1838 4219 
Q 1578 4219 1281 4162 
Q 984 4106 628 3988 
L 628 4550 
Q 988 4650 1302 4700 
Q 1616 4750 1894 4750 
Q 2613 4750 3031 4423 
Q 3450 4097 3450 3541 
Q 3450 3153 3228 2886 
Q 3006 2619 2597 2516 
z
" transform="scale(0.015625)"/>
       </defs>
       <use xlink:href="#DejaVuSans-30"/>
       <use xlink:href="#DejaVuSans-2e" transform="translate(63.623047 0)"/>
       <use xlink:href="#DejaVuSans-33" transform="translate(95.410156 0)"/>
      </g>
     </g>
    </g>
    <g id="ytick_5">
     <g id="line2d_17">
      <g>
       <use xlink:href="#m6f0f71223f" x="47.81" y="131.668278" style="stroke: #000000; stroke-width: 0.8"/>
      </g>
     </g>
     <g id="text_17">
      <!-- 0.4 -->
      <g transform="translate(24.906875 135.467497) scale(0.1 -0.1)">
       <defs>
        <path id="DejaVuSans-34" d="M 2419 4116 
L 825 1625 
L 2419 1625 
L 2419 4116 
z
M 2253 4666 
L 3047 4666 
L 3047 1625 
L 3713 1625 
L 3713 1100 
L 3047 1100 
L 3047 0 
L 2419 0 
L 2419 1100 
L 313 1100 
L 313 1709 
L 2253 4666 
z
" transform="scale(0.015625)"/>
       </defs>
       <use xlink:href="#DejaVuSans-30"/>
       <use xlink:href="#DejaVuSans-2e" transform="translate(63.623047 0)"/>
       <use xlink:href="#DejaVuSans-34" transform="translate(95.410156 0)"/>
      </g>
     </g>
    </g>
    <g id="ytick_6">
     <g id="line2d_18">
      <g>
       <use xlink:href="#m6f0f71223f" x="47.81" y="78.554139" style="stroke: #000000; stroke-width: 0.8"/>
      </g>
     </g>
     <g id="text_18">
      <!-- 0.5 -->
      <g transform="translate(24.906875 82.353358) scale(0.1 -0.1)">
       <defs>
        <path id="DejaVuSans-35" d="M 691 4666 
L 3169 4666 
L 3169 4134 
L 1269 4134 
L 1269 2991 
Q 1406 3038 1543 3061 
Q 1681 3084 1819 3084 
Q 2600 3084 3056 2656 
Q 3513 2228 3513 1497 
Q 3513 744 3044 326 
Q 2575 -91 1722 -91 
Q 1428 -91 1123 -41 
Q 819 9 494 109 
L 494 744 
Q 775 591 1075 516 
Q 1375 441 1709 441 
Q 2250 441 2565 725 
Q 2881 1009 2881 1497 
Q 2881 1984 2565 2268 
Q 2250 2553 1709 2553 
Q 1456 2553 1204 2497 
Q 953 2441 691 2322 
L 691 4666 
z
" transform="scale(0.015625)"/>
       </defs>
       <use xlink:href="#DejaVuSans-30"/>
       <use xlink:href="#DejaVuSans-2e" transform="translate(63.623047 0)"/>
       <use xlink:href="#DejaVuSans-35" transform="translate(95.410156 0)"/>
      </g>
     </g>
    </g>
    <g id="ytick_7">
     <g id="line2d_19">
      <g>
       <use xlink:href="#m6f0f71223f" x="47.81" y="25.44" style="stroke: #000000; stroke-width: 0.8"/>
      </g>
     </g>
     <g id="text_19">
      <!-- 0.6 -->
      <g transform="translate(24.906875 29.239219) scale(0.1 -0.1)">
       <defs>
        <path id="DejaVuSans-36" d="M 2113 2584 
Q 1688 2584 1439 2293 
Q 1191 2003 1191 1497 
Q 1191 994 1439 701 
Q 1688 409 2113 409 
Q 2538 409 2786 701 
Q 3034 994 3034 1497 
Q 3034 2003 2786 2293 
Q 2538 2584 2113 2584 
z
M 3366 4563 
L 3366 3988 
Q 3128 4100 2886 4159 
Q 2644 4219 2406 4219 
Q 1781 4219 1451 3797 
Q 1122 3375 1075 2522 
Q 1259 2794 1537 2939 
Q 1816 3084 2150 3084 
Q 2853 3084 3261 2657 
Q 3669 2231 3669 1497 
Q 3669 778 3244 343 
Q 2819 -91 2113 -91 
Q 1303 -91 875 529 
Q 447 1150 447 2328 
Q 447 3434 972 4092 
Q 1497 4750 2381 4750 
Q 2619 4750 2861 4703 
Q 3103 4656 3366 4563 
z
" transform="scale(0.015625)"/>
       </defs>
       <use xlink:href="#DejaVuSans-30"/>
       <use xlink:href="#DejaVuSans-2e" transform="translate(63.623047 0)"/>
       <use xlink:href="#DejaVuSans-36" transform="translate(95.410156 0)"/>
      </g>
     </g>
    </g>
    <g id="text_20">
     <!-- Importance -->
     <g transform="translate(18.827187 213.435542) rotate(-90) scale(0.1 -0.1)">
      <defs>
       <path id="DejaVuSans-49" d="M 628 4666 
L 1259 4666 
L 1259 0 
L 628 0 
L 628 4666 
z
" transform="scale(0.015625)"/>
      </defs>
      <use xlink:href="#DejaVuSans-49"/>
      <use xlink:href="#DejaVuSans-6d" transform="translate(29.492188 0)"/>
      <use xlink:href="#DejaVuSans-70" transform="translate(126.904297 0)"/>
      <use xlink:href="#DejaVuSans-6f" transform="translate(190.380859 0)"/>
      <use xlink:href="#DejaVuSans-72" transform="translate(251.5625 0)"/>
      <use xlink:href="#DejaVuSans-74" transform="translate(292.675781 0)"/>
      <use xlink:href="#DejaVuSans-61" transform="translate(331.884766 0)"/>
      <use xlink:href="#DejaVuSans-6e" transform="translate(393.164062 0)"/>
      <use xlink:href="#DejaVuSans-63" transform="translate(456.542969 0)"/>
      <use xlink:href="#DejaVuSans-65" transform="translate(511.523438 0)"/>
     </g>
    </g>
   </g>
   <g id="patch_15">
    <path d="M 47.81 344.124834 
L 47.81 25.44 
" style="fill: none; stroke: #000000; stroke-width: 0.8; stroke-linejoin: miter; stroke-linecap: square"/>
   </g>
   <g id="patch_16">
    <path d="M 853.2 344.124834 
L 853.2 25.44 
" style="fill: none; stroke: #000000; stroke-width: 0.8; stroke-linejoin: miter; stroke-linecap: square"/>
   </g>
   <g id="patch_17">
    <path d="M 47.81 344.124834 
L 853.2 344.124834 
" style="fill: none; stroke: #000000; stroke-width: 0.8; stroke-linejoin: miter; stroke-linecap: square"/>
   </g>
   <g id="patch_18">
    <path d="M 47.81 25.44 
L 853.2 25.44 
" style="fill: none; stroke: #000000; stroke-width: 0.8; stroke-linejoin: miter; stroke-linecap: square"/>
   </g>
   <g id="text_21">
    <!-- Importance of Features -->
    <g transform="translate(380.730625 19.44) scale(0.12 -0.12)">
     <defs>
      <path id="DejaVuSans-20" transform="scale(0.015625)"/>
      <path id="DejaVuSans-46" d="M 628 4666 
L 3309 4666 
L 3309 4134 
L 1259 4134 
L 1259 2759 
L 3109 2759 
L 3109 2228 
L 1259 2228 
L 1259 0 
L 628 0 
L 628 4666 
z
" transform="scale(0.015625)"/>
     </defs>
     <use xlink:href="#DejaVuSans-49"/>
     <use xlink:href="#DejaVuSans-6d" transform="translate(29.492188 0)"/>
     <use xlink:href="#DejaVuSans-70" transform="translate(126.904297 0)"/>
     <use xlink:href="#DejaVuSans-6f" transform="translate(190.380859 0)"/>
     <use xlink:href="#DejaVuSans-72" transform="translate(251.5625 0)"/>
     <use xlink:href="#DejaVuSans-74" transform="translate(292.675781 0)"/>
     <use xlink:href="#DejaVuSans-61" transform="translate(331.884766 0)"/>
     <use xlink:href="#DejaVuSans-6e" transform="translate(393.164062 0)"/>
     <use xlink:href="#DejaVuSans-63" transform="translate(456.542969 0)"/>
     <use xlink:href="#DejaVuSans-65" transform="translate(511.523438 0)"/>
     <use xlink:href="#DejaVuSans-20" transform="translate(573.046875 0)"/>
     <use xlink:href="#DejaVuSans-6f" transform="translate(604.833984 0)"/>
     <use xlink:href="#DejaVuSans-66" transform="translate(666.015625 0)"/>
     <use xlink:href="#DejaVuSans-20" transform="translate(701.220703 0)"/>
     <use xlink:href="#DejaVuSans-46" transform="translate(733.007812 0)"/>
     <use xlink:href="#DejaVuSans-65" transform="translate(785.027344 0)"/>
     <use xlink:href="#DejaVuSans-61" transform="translate(846.550781 0)"/>
     <use xlink:href="#DejaVuSans-74" transform="translate(907.830078 0)"/>
     <use xlink:href="#DejaVuSans-75" transform="translate(947.039062 0)"/>
     <use xlink:href="#DejaVuSans-72" transform="translate(1010.417969 0)"/>
     <use xlink:href="#DejaVuSans-65" transform="translate(1049.28125 0)"/>
     <use xlink:href="#DejaVuSans-73" transform="translate(1110.804688 0)"/>
    </g>
   </g>
   <g id="legend_1">
    <g id="patch_19">
     <path d="M 756.89375 48.118125 
L 846.2 48.118125 
Q 848.2 48.118125 848.2 46.118125 
L 848.2 32.44 
Q 848.2 30.44 846.2 30.44 
L 756.89375 30.44 
Q 754.89375 30.44 754.89375 32.44 
L 754.89375 46.118125 
Q 754.89375 48.118125 756.89375 48.118125 
z
" style="fill: #ffffff; opacity: 0.8; stroke: #cccccc; stroke-linejoin: miter"/>
    </g>
    <g id="patch_20">
     <path d="M 758.89375 42.038438 
L 778.89375 42.038438 
L 778.89375 35.038438 
L 758.89375 35.038438 
z
" style="fill: #ffeaa7"/>
    </g>
    <g id="text_22">
     <!-- Importance -->
     <g transform="translate(786.89375 42.038438) scale(0.1 -0.1)">
      <use xlink:href="#DejaVuSans-49"/>
      <use xlink:href="#DejaVuSans-6d" transform="translate(29.492188 0)"/>
      <use xlink:href="#DejaVuSans-70" transform="translate(126.904297 0)"/>
      <use xlink:href="#DejaVuSans-6f" transform="translate(190.380859 0)"/>
      <use xlink:href="#DejaVuSans-72" transform="translate(251.5625 0)"/>
      <use xlink:href="#DejaVuSans-74" transform="translate(292.675781 0)"/>
      <use xlink:href="#DejaVuSans-61" transform="translate(331.884766 0)"/>
      <use xlink:href="#DejaVuSans-6e" transform="translate(393.164062 0)"/>
      <use xlink:href="#DejaVuSans-63" transform="translate(456.542969 0)"/>
      <use xlink:href="#DejaVuSans-65" transform="translate(511.523438 0)"/>
     </g>
    </g>
   </g>
  </g>
 </g>
 <defs>
  <clipPath id="p634687d210">
   <rect x="47.81" y="25.44" width="805.39" height="318.684834"/>
  </clipPath>
 </defs>
</svg>
